<svg width="30" height="30" viewBox="0 0 30 30" fill="none" xmlns="http://www.w3.org/2000/svg">
<path d="M24.5435 3.26367C26.4133 3.26375 27.9291 4.77956 27.9292 6.64941V18.5791C27.929 20.4488 26.4132 21.9648 24.5435 21.9648H16.0005V24.7363H19.772C20.324 24.7366 20.7719 25.1842 20.772 25.7363C20.772 26.2885 20.3241 26.7361 19.772 26.7363H10.228C9.67575 26.7363 9.22803 26.2886 9.22803 25.7363C9.22807 25.1841 9.67578 24.7363 10.228 24.7363H14.0005V21.9648H5.45654C3.58677 21.9648 2.07102 20.4488 2.0708 18.5791V6.64941C2.07087 4.77955 3.58668 3.26375 5.45654 3.26367H24.5435ZM5.45654 5.26367C4.69125 5.26375 4.07087 5.88412 4.0708 6.64941V18.5791C4.07102 19.3443 4.69134 19.9648 5.45654 19.9648H24.5435C25.3087 19.9648 25.929 19.3443 25.9292 18.5791V6.64941C25.9291 5.88413 25.3087 5.26375 24.5435 5.26367H5.45654ZM11.9897 8.41211C12.7598 8.07873 13.6068 7.96381 14.438 8.0791C15.2692 8.19451 16.0534 8.53586 16.7036 9.06641C17.1733 9.44967 17.5591 9.92184 17.8433 10.4521C18.5722 10.5516 19.2537 10.887 19.7798 11.4131C20.4146 12.048 20.7719 12.9088 20.772 13.8066C20.772 14.7046 20.4148 15.5662 19.7798 16.2012C19.1448 16.8361 18.2832 17.1924 17.3853 17.1924H13.8062C12.967 17.1919 12.144 16.9609 11.4272 16.5244C10.7105 16.0878 10.1272 15.4623 9.7417 14.7168C9.35632 13.9714 9.18267 13.134 9.24072 12.2969C9.29884 11.4598 9.58622 10.6548 10.0708 9.96973C10.5555 9.28457 11.2195 8.74557 11.9897 8.41211ZM14.1636 10.0596C13.6956 9.99463 13.2183 10.0594 12.7847 10.2471C12.3509 10.4349 11.9766 10.7391 11.7036 11.125C11.4307 11.5108 11.2685 11.9641 11.2358 12.4355C11.2031 12.9071 11.301 13.379 11.5181 13.7988C11.7352 14.2185 12.0637 14.5706 12.4673 14.8164C12.8709 15.0622 13.3346 15.192 13.8071 15.1924H17.3853C17.7527 15.1924 18.1058 15.0469 18.3657 14.7871C18.6256 14.5272 18.772 14.1742 18.772 13.8066C18.7719 13.4393 18.6255 13.087 18.3657 12.8271C18.1058 12.5673 17.7528 12.4209 17.3853 12.4209H17.1831C16.7594 12.4208 16.381 12.1534 16.2397 11.7539C16.0821 11.3085 15.805 10.9149 15.439 10.6162C15.0728 10.3175 14.6317 10.1246 14.1636 10.0596Z" fill="#979797"/>
</svg>
