<svg width="30" height="30" viewBox="0 0 30 30" fill="none" xmlns="http://www.w3.org/2000/svg">
<path fill-rule="evenodd" clip-rule="evenodd" d="M17.6514 0.743652C18.9356 0.743652 19.9773 1.78561 19.9775 3.06982V3.39502H21.6289C22.5971 3.39508 23.5263 3.77974 24.2109 4.46436C24.8955 5.149 25.2802 6.0782 25.2803 7.04639V8.14893C25.2803 8.7011 24.8324 9.14874 24.2803 9.14893C23.728 9.14893 23.2803 8.70121 23.2803 8.14893V7.04639C23.2802 6.60863 23.1064 6.18799 22.7969 5.87842C22.4873 5.56888 22.0667 5.39508 21.6289 5.39502H19.9775V5.72119C19.9773 7.00538 18.9356 8.04736 17.6514 8.04736H9.69727C8.41333 8.04699 7.37233 7.00515 7.37207 5.72119V5.39502H5.7207C5.28292 5.39514 4.8623 5.56885 4.55273 5.87842C4.24317 6.188 4.06944 6.60859 4.06934 7.04639V25.605C4.06934 26.0427 4.24335 26.4633 4.55273 26.7729C4.8623 27.0825 5.28292 27.2562 5.7207 27.2563H8.37207C8.9241 27.2565 9.37181 27.7044 9.37207 28.2563C9.37207 28.8086 8.92427 29.2562 8.37207 29.2563H5.7207C4.75248 29.2562 3.82331 28.8717 3.13867 28.187C2.45422 27.5023 2.06934 26.5731 2.06934 25.605V7.04639C2.06944 6.07816 2.45403 5.14901 3.13867 4.46436C3.82331 3.77971 4.75248 3.39514 5.7207 3.39502H7.37207V3.06982C7.37231 1.78584 8.41331 0.744022 9.69727 0.743652H17.6514ZM18.9775 11.3491C23.9224 11.3493 27.9306 15.3583 27.9307 20.3032C27.9305 25.248 23.9224 29.2562 18.9775 29.2563C14.0327 29.2563 10.0236 25.2481 10.0234 20.3032C10.0235 15.3583 14.0326 11.3492 18.9775 11.3491ZM18.9775 13.3491C15.1372 13.3492 12.0235 16.4628 12.0234 20.3032C12.0236 24.1435 15.1372 27.2563 18.9775 27.2563C22.8178 27.2562 25.9305 24.1435 25.9307 20.3032C25.9306 16.4629 22.8179 13.3493 18.9775 13.3491ZM18.9775 16.6519C19.5298 16.6519 19.9775 17.0996 19.9775 17.6519V20.0132L21.6289 21.0454C22.0971 21.3382 22.239 21.956 21.9463 22.4243C21.6535 22.8923 21.0365 23.0342 20.5684 22.7417L18.4473 21.4165C18.155 21.2338 17.9776 20.9126 17.9775 20.5679V17.6519C17.9775 17.0996 18.4253 16.6519 18.9775 16.6519ZM9.69727 2.74463C9.51788 2.745 9.37231 2.89041 9.37207 3.06982V5.72119C9.37233 5.90058 9.5179 6.047 9.69727 6.04736H17.6514C17.831 6.04736 17.9773 5.90081 17.9775 5.72119V3.06982C17.9773 2.89018 17.8311 2.74463 17.6514 2.74463H9.69727Z" fill="#00ADB5"/>
</svg>
