<svg width="32" height="29" viewBox="0 0 32 29" fill="none" xmlns="http://www.w3.org/2000/svg">
<path d="M5.80638 8.07143C6.95657 5.93231 8.65928 4.14594 10.7345 2.90119C12.8097 1.65644 15.1804 0.999558 17.5957 1C24.9987 1 31 7.04414 31 14.5C31 21.9559 24.9987 28 17.5957 28C14.9398 28.0007 12.3434 27.2067 10.1362 25.7188C7.92907 24.2309 6.21053 22.1161 5.19872 19.6429M5.19872 19.6429H23.9787M5.19872 19.6429H1M3.55319 15.7857H15.6809V14.5C15.6809 13.477 15.2774 12.4959 14.5591 11.7726C13.8409 11.0492 12.8668 10.6429 11.8511 10.6429C11.1617 10.6429 5.86128 11.2047 1.12766 11.7229M18.234 13.7286C18.234 13.7286 19.5106 15.7857 21.1064 15.7857C21.6989 15.7857 22.2671 15.5487 22.6861 15.1267C23.1051 14.7047 23.3404 14.1325 23.3404 13.5357C23.3404 12.2937 22.3396 11.2909 21.1064 11.2909C19.5106 11.2909 18.234 13.3429 18.234 13.3429V13.7286Z" stroke="#00ADB5" stroke-width="2" stroke-linecap="round"/>
</svg>
