<svg width="30" height="30" viewBox="0 0 30 30" fill="none" xmlns="http://www.w3.org/2000/svg">
<path d="M3.99414 20.1143C4.54643 20.1143 4.99414 20.562 4.99414 21.1143V23.5596C4.99425 23.9429 5.14694 24.311 5.41797 24.582C5.68896 24.8529 6.05632 25.0057 6.43945 25.0059H8.88574C9.43796 25.0059 9.88574 25.4536 9.88574 26.0059C9.88544 26.5578 9.43777 27.0058 8.88574 27.0059H6.43945C5.52585 27.0057 4.649 26.6421 4.00293 25.9961C3.35709 25.35 2.99425 24.4731 2.99414 23.5596V21.1143C2.99414 20.562 3.44189 20.1143 3.99414 20.1143ZM26.0059 20.1143C26.5581 20.1143 27.0059 20.562 27.0059 21.1143V23.5596C27.0057 24.4733 26.6422 25.35 25.9961 25.9961C25.3499 26.6421 24.4733 27.0059 23.5596 27.0059H21.1143C20.5622 27.0058 20.1146 26.5579 20.1143 26.0059C20.1143 25.4536 20.562 25.0059 21.1143 25.0059H23.5596C23.9429 25.0059 24.3109 24.853 24.582 24.582C24.8531 24.311 25.0057 23.9428 25.0059 23.5596V21.1143C25.0059 20.562 25.4536 20.1143 26.0059 20.1143ZM17.6123 9.10742C18.8187 9.14961 19.9627 9.65746 20.8027 10.5244C21.6427 11.3914 22.1141 12.5506 22.1182 13.7578C22.1221 14.9643 21.6576 16.1247 20.8242 16.9971L20.8252 16.998L16.6104 21.4248L16.6094 21.4238C16.4019 21.6417 16.1525 21.816 15.876 21.9346C15.5993 22.0532 15.301 22.1152 15 22.1152C14.699 22.1152 14.4007 22.0532 14.124 21.9346C13.8473 21.8158 13.5972 21.642 13.3896 21.4238L9.17383 16.998V16.9971C8.34077 16.1248 7.87697 14.964 7.88086 13.7578C7.8849 12.5508 8.35648 11.3914 9.19629 10.5244C10.0362 9.65749 11.1804 9.14972 12.3867 9.10742C13.313 9.07511 14.2205 9.32077 14.999 9.80078C15.7776 9.32048 16.6858 9.07518 17.6123 9.10742ZM17.543 11.1064C16.8535 11.0824 16.1805 11.3264 15.667 11.7871C15.2871 12.1273 14.7118 12.1275 14.332 11.7871C13.8184 11.3263 13.1456 11.0823 12.4561 11.1064C11.7667 11.1307 11.1128 11.4206 10.6328 11.916C10.1528 12.4116 9.88317 13.0747 9.88086 13.7646C9.879 14.3683 10.082 14.9523 10.4521 15.4229L10.6201 15.6172L10.6221 15.6182L14.8379 20.0449L14.8389 20.0459C14.8595 20.0675 14.8846 20.0848 14.9121 20.0967C14.9397 20.1085 14.97 20.1152 15 20.1152C15.03 20.1152 15.0603 20.1085 15.0879 20.0967C15.1155 20.0848 15.1414 20.0666 15.1621 20.0449L19.377 15.6182L19.3789 15.6172C19.8555 15.1186 20.1203 14.4544 20.1182 13.7646C20.1159 13.0746 19.8464 12.4116 19.3662 11.916C18.8861 11.4205 18.2325 11.1306 17.543 11.1064ZM8.88574 2.99414C9.43796 2.99422 9.88574 3.4419 9.88574 3.99414C9.88552 4.54619 9.43782 4.99406 8.88574 4.99414H6.43945C6.0562 4.99427 5.68898 5.14696 5.41797 5.41797C5.14709 5.68897 4.99425 6.05629 4.99414 6.43945V8.88574C4.99384 9.43777 4.54624 9.88574 3.99414 9.88574C3.44208 9.8857 2.99444 9.43774 2.99414 8.88574V6.43945C2.99425 5.52586 3.35698 4.64901 4.00293 4.00293C4.64901 3.35685 5.52577 2.99427 6.43945 2.99414H8.88574ZM23.5596 2.99414C24.4732 2.99414 25.3499 3.35699 25.9961 4.00293C26.6421 4.64901 27.0057 5.52582 27.0059 6.43945V8.88574C27.0056 9.43772 26.5579 9.88567 26.0059 9.88574C25.4538 9.8857 25.0062 9.43775 25.0059 8.88574V6.43945C25.0057 6.05629 24.8529 5.68897 24.582 5.41797C24.3109 5.14684 23.943 4.99414 23.5596 4.99414H21.1143C20.5621 4.9941 20.1145 4.54621 20.1143 3.99414C20.1143 3.44188 20.562 2.99418 21.1143 2.99414H23.5596Z" fill="#00ADB5"/>
</svg>
