<svg width="30" height="30" viewBox="0 0 30 30" fill="none" xmlns="http://www.w3.org/2000/svg">
<path fill-rule="evenodd" clip-rule="evenodd" d="M17.6514 0.744141C18.9356 0.744141 19.9773 1.78513 19.9775 3.06934V3.39453H21.6289C22.5971 3.3946 23.5263 3.77926 24.2109 4.46387C24.8955 5.14851 25.2802 6.07771 25.2803 7.0459V8.14844C25.2803 8.70061 24.8324 9.14825 24.2803 9.14844C23.728 9.14844 23.2803 8.70072 23.2803 8.14844V7.0459C23.2802 6.60814 23.1064 6.1875 22.7969 5.87793C22.4873 5.56839 22.0667 5.3946 21.6289 5.39453H19.9775V5.7207C19.9773 7.00489 18.9356 8.04688 17.6514 8.04688H9.69727C8.41333 8.04651 7.37233 7.00466 7.37207 5.7207V5.39453H5.7207C5.28292 5.39465 4.8623 5.56836 4.55273 5.87793C4.24317 6.18751 4.06944 6.60811 4.06934 7.0459V25.6045C4.06934 26.0422 4.24335 26.4628 4.55273 26.7725C4.8623 27.082 5.28292 27.2557 5.7207 27.2559H8.37207C8.9241 27.256 9.37181 27.7039 9.37207 28.2559C9.37207 28.8081 8.92427 29.2558 8.37207 29.2559H5.7207C4.75248 29.2557 3.82331 28.8712 3.13867 28.1865C2.45422 27.5018 2.06934 26.5727 2.06934 25.6045V7.0459C2.06944 6.07767 2.45403 5.14852 3.13867 4.46387C3.82331 3.77922 4.75248 3.39465 5.7207 3.39453H7.37207V3.06934C7.37231 1.78535 8.41331 0.74451 9.69727 0.744141H17.6514ZM18.9775 11.3486C23.9224 11.3488 27.9306 15.3578 27.9307 20.3027C27.9305 25.2476 23.9224 29.2557 18.9775 29.2559C14.0327 29.2558 10.0236 25.2476 10.0234 20.3027C10.0235 15.3578 14.0326 11.3487 18.9775 11.3486ZM18.9775 13.3486C15.1372 13.3487 12.0235 16.4623 12.0234 20.3027C12.0236 24.143 15.1372 27.2558 18.9775 27.2559C22.8178 27.2557 25.9305 24.143 25.9307 20.3027C25.9306 16.4624 22.8179 13.3488 18.9775 13.3486ZM18.9775 16.6514C19.5298 16.6514 19.9775 17.0991 19.9775 17.6514V20.0127L21.6289 21.0449C22.0971 21.3377 22.239 21.9556 21.9463 22.4238C21.6535 22.8918 21.0365 23.0337 20.5684 22.7412L18.4473 21.416C18.155 21.2333 17.9776 20.9121 17.9775 20.5674V17.6514C17.9775 17.0991 18.4253 16.6514 18.9775 16.6514ZM9.69727 2.74414C9.51788 2.74451 9.37231 2.88992 9.37207 3.06934V5.7207C9.37233 5.9001 9.5179 6.04651 9.69727 6.04688H17.6514C17.831 6.04688 17.9773 5.90032 17.9775 5.7207V3.06934C17.9773 2.88969 17.8311 2.74414 17.6514 2.74414H9.69727Z" fill="#00ADB5"/>
</svg>
