<svg width="30" height="30" viewBox="0 0 30 30" fill="none" xmlns="http://www.w3.org/2000/svg">
<path fill-rule="evenodd" clip-rule="evenodd" d="M21.5076 13.9999C21.8861 14 22.2318 14.2141 22.4011 14.5526L28.9089 27.5673C29.1558 28.0612 28.9556 28.6621 28.4617 28.9091C27.9678 29.1559 27.3669 28.9556 27.1199 28.4618L24.7937 23.8085H18.2205L15.8943 28.4618C15.6473 28.9556 15.0464 29.156 14.5525 28.9091C14.0586 28.6621 13.8584 28.0612 14.1052 27.5673L20.613 14.5526L20.6843 14.4315C20.8693 14.1637 21.1762 13.9999 21.5076 13.9999ZM19.2205 21.8085H23.7937L21.5066 17.2352L19.2205 21.8085ZM17.6033 4.88953C18.1554 4.88975 18.6033 5.33738 18.6033 5.88953C18.6032 6.44158 18.1553 6.88931 17.6033 6.88953H15.5349L13.2283 10.3485C13.1918 10.4032 13.1498 10.4544 13.1033 10.5009L10.5564 13.0468L14.405 16.8954C14.7956 17.2859 14.7956 17.9189 14.405 18.3094C14.0145 18.6999 13.3815 18.7 12.991 18.3094L9.14233 14.4608L5.29468 18.3104C4.90421 18.7004 4.27101 18.7005 3.88062 18.3104C3.49016 17.92 3.49029 17.2859 3.88062 16.8954L7.72827 13.0468L5.18237 10.5009C4.79187 10.1103 4.79189 9.47732 5.18237 9.08679C5.57289 8.69627 6.20591 8.69628 6.59644 9.08679L9.14233 11.6327L11.6189 9.15613L13.1306 6.88953H1.98511C1.43289 6.88953 0.985217 6.44172 0.985107 5.88953C0.985107 5.33724 1.43282 4.88953 1.98511 4.88953H17.6033ZM9.7937 0.985229C10.3459 0.985379 10.7937 1.43304 10.7937 1.98523C10.7935 2.53728 10.3458 2.98508 9.7937 2.98523H8.49194C7.93988 2.9851 7.49212 2.53729 7.49194 1.98523C7.49194 1.43303 7.93977 0.985362 8.49194 0.985229H9.7937Z" fill="#00ADB5"/>
</svg>
