<svg width="611" height="460" viewBox="0 0 611 460" fill="none" xmlns="http://www.w3.org/2000/svg">
<g filter="url(#filter0_d_602_911)">
<rect x="30" y="10" width="551" height="394" rx="12" fill="white" shape-rendering="crispEdges"/>
<rect x="30.5" y="10.5" width="550" height="393" rx="11.5" stroke="#C2FCFF" shape-rendering="crispEdges"/>
<rect x="30.5" y="10.5" width="550" height="399" rx="11.5" fill="white"/>
<rect x="30.5" y="10.5" width="550" height="399" rx="11.5" stroke="#C2FCFF"/>
<rect x="60" y="42" width="20" height="20" rx="6" fill="#00ADB5"/>
<path d="M91.56 60V45.9H94.14V57.82H100.78V60H91.56ZM102.951 60V49.9H105.451V60H102.951ZM102.811 48V45.56H105.591V48H102.811ZM111.526 60L107.166 49.9H109.826L112.986 57.8H112.366L115.606 49.9H118.106L113.726 60H111.526ZM124.53 60.2C122.837 60.2 121.51 59.7333 120.55 58.8C119.59 57.8667 119.11 56.5867 119.11 54.96C119.11 53.9067 119.317 52.9867 119.73 52.2C120.143 51.4133 120.717 50.8 121.45 50.36C122.197 49.92 123.063 49.7 124.05 49.7C125.023 49.7 125.837 49.9067 126.49 50.32C127.143 50.7333 127.637 51.3133 127.97 52.06C128.317 52.8067 128.49 53.68 128.49 54.68V55.34H121.13V54.02H126.71L126.37 54.3C126.37 53.3667 126.17 52.6533 125.77 52.16C125.383 51.6667 124.817 51.42 124.07 51.42C123.243 51.42 122.603 51.7133 122.15 52.3C121.71 52.8867 121.49 53.7067 121.49 54.76V55.02C121.49 56.1133 121.757 56.9333 122.29 57.48C122.837 58.0133 123.603 58.28 124.59 58.28C125.163 58.28 125.697 58.2067 126.19 58.06C126.697 57.9 127.177 57.6467 127.63 57.3L128.37 58.98C127.89 59.3667 127.317 59.6667 126.65 59.88C125.983 60.0933 125.277 60.2 124.53 60.2ZM140.415 60V48.02H135.755V45.9H147.655V48.02H142.995V60H140.415ZM148.095 60V52.48C148.095 52.0533 148.082 51.62 148.055 51.18C148.042 50.74 148.009 50.3133 147.955 49.9H150.375L150.655 52.66H150.255C150.389 51.9933 150.609 51.44 150.915 51C151.235 50.56 151.622 50.2333 152.075 50.02C152.529 49.8067 153.022 49.7 153.555 49.7C153.795 49.7 153.989 49.7133 154.135 49.74C154.282 49.7533 154.429 49.7867 154.575 49.84L154.555 52.04C154.302 51.9333 154.082 51.8667 153.895 51.84C153.722 51.8133 153.502 51.8 153.235 51.8C152.662 51.8 152.175 51.92 151.775 52.16C151.389 52.4 151.095 52.7333 150.895 53.16C150.709 53.5867 150.615 54.0733 150.615 54.62V60H148.095ZM160.169 60.2C159.289 60.2 158.516 59.9933 157.849 59.58C157.183 59.1533 156.663 58.5467 156.289 57.76C155.916 56.9733 155.729 56.0333 155.729 54.94C155.729 53.8467 155.916 52.9133 156.289 52.14C156.663 51.3533 157.183 50.7533 157.849 50.34C158.516 49.9133 159.289 49.7 160.169 49.7C161.023 49.7 161.769 49.9133 162.409 50.34C163.063 50.7533 163.496 51.3133 163.709 52.02H163.489L163.709 49.9H166.109C166.069 50.3133 166.029 50.7333 165.989 51.16C165.963 51.5867 165.949 52.0067 165.949 52.42V60H163.469L163.449 57.92H163.689C163.476 58.6133 163.043 59.1667 162.389 59.58C161.736 59.9933 160.996 60.2 160.169 60.2ZM160.869 58.28C161.656 58.28 162.289 58.0067 162.769 57.46C163.249 56.9 163.489 56.06 163.489 54.94C163.489 53.82 163.249 52.9867 162.769 52.44C162.289 51.8933 161.656 51.62 160.869 51.62C160.083 51.62 159.449 51.8933 158.969 52.44C158.489 52.9867 158.249 53.82 158.249 54.94C158.249 56.06 158.483 56.9 158.949 57.46C159.429 58.0067 160.069 58.28 160.869 58.28ZM169.072 60V52.42C169.072 52.0067 169.058 51.5867 169.032 51.16C169.005 50.7333 168.965 50.3133 168.912 49.9H171.332L171.532 51.9H171.292C171.612 51.1933 172.085 50.6533 172.712 50.28C173.338 49.8933 174.065 49.7 174.892 49.7C176.078 49.7 176.972 50.0333 177.572 50.7C178.172 51.3667 178.472 52.4067 178.472 53.82V60H175.972V53.94C175.972 53.1267 175.812 52.5467 175.492 52.2C175.185 51.84 174.718 51.66 174.092 51.66C173.318 51.66 172.705 51.9 172.252 52.38C171.798 52.86 171.572 53.5 171.572 54.3V60H169.072ZM185.122 60.2C184.256 60.2 183.456 60.1 182.722 59.9C182.002 59.6867 181.396 59.3933 180.902 59.02L181.602 57.34C182.109 57.6867 182.669 57.9533 183.282 58.14C183.896 58.3267 184.516 58.42 185.142 58.42C185.809 58.42 186.302 58.3067 186.622 58.08C186.956 57.8533 187.122 57.5467 187.122 57.16C187.122 56.8533 187.016 56.6133 186.802 56.44C186.602 56.2533 186.276 56.1133 185.822 56.02L183.822 55.64C182.969 55.4533 182.316 55.1333 181.862 54.68C181.422 54.2267 181.202 53.6333 181.202 52.9C181.202 52.2733 181.369 51.72 181.702 51.24C182.049 50.76 182.536 50.3867 183.162 50.12C183.802 49.84 184.549 49.7 185.402 49.7C186.149 49.7 186.849 49.8 187.502 50C188.169 50.2 188.729 50.5 189.182 50.9L188.462 52.52C188.049 52.1867 187.576 51.9267 187.042 51.74C186.509 51.5533 185.989 51.46 185.482 51.46C184.789 51.46 184.282 51.5867 183.962 51.84C183.642 52.08 183.482 52.3933 183.482 52.78C183.482 53.0733 183.576 53.32 183.762 53.52C183.962 53.7067 184.269 53.8467 184.682 53.94L186.682 54.32C187.576 54.4933 188.249 54.8 188.702 55.24C189.169 55.6667 189.402 56.2533 189.402 57C189.402 57.6667 189.222 58.24 188.862 58.72C188.502 59.2 188.002 59.5667 187.362 59.82C186.722 60.0733 185.976 60.2 185.122 60.2ZM196.582 60.2C195.542 60.2 194.629 59.9867 193.842 59.56C193.069 59.1333 192.469 58.5267 192.042 57.74C191.615 56.94 191.402 55.9933 191.402 54.9C191.402 53.8067 191.615 52.8733 192.042 52.1C192.482 51.3267 193.089 50.7333 193.862 50.32C194.635 49.9067 195.542 49.7 196.582 49.7C197.249 49.7 197.895 49.8067 198.522 50.02C199.162 50.22 199.682 50.5133 200.082 50.9L199.322 52.64C198.962 52.3067 198.555 52.06 198.102 51.9C197.662 51.7267 197.229 51.64 196.802 51.64C195.909 51.64 195.209 51.92 194.702 52.48C194.209 53.04 193.962 53.8533 193.962 54.92C193.962 55.9867 194.209 56.8067 194.702 57.38C195.209 57.9533 195.909 58.24 196.802 58.24C197.215 58.24 197.642 58.16 198.082 58C198.535 57.84 198.949 57.5933 199.322 57.26L200.082 58.98C199.669 59.3667 199.142 59.6667 198.502 59.88C197.875 60.0933 197.235 60.2 196.582 60.2ZM202.4 60V52.48C202.4 52.0533 202.387 51.62 202.36 51.18C202.347 50.74 202.313 50.3133 202.26 49.9H204.68L204.96 52.66H204.56C204.693 51.9933 204.913 51.44 205.22 51C205.54 50.56 205.927 50.2333 206.38 50.02C206.833 49.8067 207.327 49.7 207.86 49.7C208.1 49.7 208.293 49.7133 208.44 49.74C208.587 49.7533 208.733 49.7867 208.88 49.84L208.86 52.04C208.607 51.9333 208.387 51.8667 208.2 51.84C208.027 51.8133 207.807 51.8 207.54 51.8C206.967 51.8 206.48 51.92 206.08 52.16C205.693 52.4 205.4 52.7333 205.2 53.16C205.013 53.5867 204.92 54.0733 204.92 54.62V60H202.4ZM210.672 60V49.9H213.172V60H210.672ZM210.532 48V45.56H213.312V48H210.532ZM216.287 64.32V52.42C216.287 52.0067 216.273 51.5867 216.247 51.16C216.22 50.7333 216.18 50.3133 216.127 49.9H218.547L218.767 52.02H218.547C218.747 51.3133 219.167 50.7533 219.807 50.34C220.46 49.9133 221.213 49.7 222.067 49.7C222.96 49.7 223.74 49.9133 224.407 50.34C225.073 50.7533 225.593 51.3533 225.967 52.14C226.34 52.9133 226.527 53.8467 226.527 54.94C226.527 56.0333 226.34 56.9733 225.967 57.76C225.593 58.5467 225.073 59.1533 224.407 59.58C223.74 59.9933 222.96 60.2 222.067 60.2C221.227 60.2 220.487 59.9933 219.847 59.58C219.207 59.1667 218.78 58.6133 218.567 57.92H218.787V64.32H216.287ZM221.367 58.28C222.167 58.28 222.807 58.0067 223.287 57.46C223.767 56.9 224.007 56.06 224.007 54.94C224.007 53.82 223.767 52.9867 223.287 52.44C222.807 51.8933 222.167 51.62 221.367 51.62C220.58 51.62 219.947 51.8933 219.467 52.44C218.987 52.9867 218.747 53.82 218.747 54.94C218.747 56.06 218.987 56.9 219.467 57.46C219.947 58.0067 220.58 58.28 221.367 58.28ZM233.311 60.2C232.111 60.2 231.205 59.8867 230.591 59.26C229.978 58.6333 229.671 57.6933 229.671 56.44V51.78H227.731V49.9H229.671V47.32L232.171 46.68V49.9H234.871V51.78H232.171V56.28C232.171 56.9733 232.305 57.46 232.571 57.74C232.838 58.02 233.205 58.16 233.671 58.16C233.925 58.16 234.138 58.14 234.311 58.1C234.498 58.06 234.678 58.0067 234.851 57.94V59.92C234.625 60.0133 234.371 60.08 234.091 60.12C233.825 60.1733 233.565 60.2 233.311 60.2Z" fill="#00ADB5"/>
<path d="M61.548 101V88.31H65.85C67.266 88.31 68.46 88.556 69.432 89.048C70.416 89.54 71.16 90.26 71.664 91.208C72.168 92.144 72.42 93.29 72.42 94.646C72.42 96.002 72.168 97.154 71.664 98.102C71.16 99.05 70.416 99.77 69.432 100.262C68.46 100.754 67.266 101 65.85 101H61.548ZM63.222 99.578H65.724C67.416 99.578 68.67 99.17 69.486 98.354C70.302 97.538 70.71 96.302 70.71 94.646C70.71 92.99 70.302 91.76 69.486 90.956C68.67 90.14 67.416 89.732 65.724 89.732H63.222V99.578ZM75.57 101V94.16C75.57 93.8 75.558 93.434 75.534 93.062C75.522 92.678 75.492 92.306 75.444 91.946H77.028L77.226 94.214L76.956 94.232C77.076 93.68 77.28 93.224 77.568 92.864C77.868 92.492 78.222 92.222 78.63 92.054C79.05 91.874 79.482 91.784 79.926 91.784C80.118 91.784 80.28 91.79 80.412 91.802C80.544 91.814 80.676 91.844 80.808 91.892L80.772 93.35C80.592 93.278 80.424 93.236 80.268 93.224C80.124 93.2 79.944 93.188 79.728 93.188C79.2 93.188 78.744 93.308 78.36 93.548C77.988 93.788 77.7 94.106 77.496 94.502C77.304 94.898 77.208 95.324 77.208 95.78V101H75.57ZM82.3134 101V99.002H84.3114V101H82.3134ZM61.548 141V128.31H66.804C68.16 128.31 69.198 128.634 69.918 129.282C70.638 129.93 70.998 130.824 70.998 131.964C70.998 133.104 70.638 134.004 69.918 134.664C69.198 135.312 68.16 135.636 66.804 135.636H63.222V141H61.548ZM63.222 134.268H66.642C67.53 134.268 68.202 134.07 68.658 133.674C69.114 133.266 69.342 132.696 69.342 131.964C69.342 131.232 69.114 130.668 68.658 130.272C68.202 129.876 67.53 129.678 66.642 129.678H63.222V134.268ZM77.4954 141.162C76.5474 141.162 75.8274 140.904 75.3354 140.388C74.8554 139.86 74.6154 139.068 74.6154 138.012V133.206H72.8514V131.946H74.6154V129.516L76.2534 129.066V131.946H78.8094V133.206H76.2534V137.868C76.2534 138.564 76.3734 139.062 76.6134 139.362C76.8654 139.65 77.2254 139.794 77.6934 139.794C77.9334 139.794 78.1374 139.776 78.3054 139.74C78.4854 139.692 78.6474 139.638 78.7914 139.578V140.928C78.6114 141 78.4014 141.054 78.1614 141.09C77.9334 141.138 77.7114 141.162 77.4954 141.162ZM81.2411 141V139.002H83.2391V141H81.2411ZM61.548 181V168.31H65.85C67.266 168.31 68.46 168.556 69.432 169.048C70.416 169.54 71.16 170.26 71.664 171.208C72.168 172.144 72.42 173.29 72.42 174.646C72.42 176.002 72.168 177.154 71.664 178.102C71.16 179.05 70.416 179.77 69.432 180.262C68.46 180.754 67.266 181 65.85 181H61.548ZM63.222 179.578H65.724C67.416 179.578 68.67 179.17 69.486 178.354C70.302 177.538 70.71 176.302 70.71 174.646C70.71 172.99 70.302 171.76 69.486 170.956C68.67 170.14 67.416 169.732 65.724 169.732H63.222V179.578ZM75.57 181V174.16C75.57 173.8 75.558 173.434 75.534 173.062C75.522 172.678 75.492 172.306 75.444 171.946H77.028L77.226 174.214L76.956 174.232C77.076 173.68 77.28 173.224 77.568 172.864C77.868 172.492 78.222 172.222 78.63 172.054C79.05 171.874 79.482 171.784 79.926 171.784C80.118 171.784 80.28 171.79 80.412 171.802C80.544 171.814 80.676 171.844 80.808 171.892L80.772 173.35C80.592 173.278 80.424 173.236 80.268 173.224C80.124 173.2 79.944 173.188 79.728 173.188C79.2 173.188 78.744 173.308 78.36 173.548C77.988 173.788 77.7 174.106 77.496 174.502C77.304 174.898 77.208 175.324 77.208 175.78V181H75.57ZM82.3134 181V179.002H84.3114V181H82.3134Z" fill="black"/>
<mask id="path-7-inside-1_602_911" fill="white">
<path d="M30 206H581V250H30V206Z"/>
</mask>
<path d="M30 206V207H581V206V205H30V206Z" fill="#C2FCFF" mask="url(#path-7-inside-1_602_911)"/>
<path d="M60 234L65.104 222.72H66.832L72 234H69.904L68.528 230.832L69.36 231.392H62.592L63.456 230.832L62.08 234H60ZM65.952 224.928L63.696 230.272L63.28 229.776H68.656L68.32 230.272L66.016 224.928H65.952ZM76.64 234.16C75.648 234.16 74.9067 233.888 74.416 233.344C73.9253 232.8 73.68 231.968 73.68 230.848V225.92H75.68V230.832C75.68 231.429 75.8027 231.872 76.048 232.16C76.2933 232.437 76.6667 232.576 77.168 232.576C77.7333 232.576 78.192 232.384 78.544 232C78.9067 231.616 79.088 231.109 79.088 230.48V225.92H81.088V234H79.136V232.352H79.36C79.1253 232.928 78.768 233.376 78.288 233.696C77.8187 234.005 77.2693 234.16 76.64 234.16ZM87.3553 234.16C86.3953 234.16 85.6699 233.909 85.1793 233.408C84.6886 232.907 84.4433 232.155 84.4433 231.152V227.424H82.8913V225.92H84.4433V223.856L86.4433 223.344V225.92H88.6033V227.424H86.4433V231.024C86.4433 231.579 86.5499 231.968 86.7633 232.192C86.9766 232.416 87.2699 232.528 87.6433 232.528C87.8459 232.528 88.0166 232.512 88.1553 232.48C88.3046 232.448 88.4486 232.405 88.5873 232.352V233.936C88.4059 234.011 88.2033 234.064 87.9793 234.096C87.7659 234.139 87.5579 234.16 87.3553 234.16ZM94.1716 234.16C93.3396 234.16 92.6196 233.989 92.0116 233.648C91.4036 233.307 90.929 232.821 90.5876 232.192C90.257 231.563 90.0916 230.816 90.0916 229.952C90.0916 229.088 90.257 228.347 90.5876 227.728C90.929 227.099 91.4036 226.613 92.0116 226.272C92.6196 225.931 93.3396 225.76 94.1716 225.76C95.0036 225.76 95.7236 225.931 96.3316 226.272C96.9503 226.613 97.425 227.099 97.7556 227.728C98.097 228.347 98.2676 229.088 98.2676 229.952C98.2676 230.816 98.097 231.563 97.7556 232.192C97.425 232.821 96.9503 233.307 96.3316 233.648C95.7236 233.989 95.0036 234.16 94.1716 234.16ZM94.1716 232.624C94.801 232.624 95.3023 232.405 95.6756 231.968C96.049 231.52 96.2356 230.848 96.2356 229.952C96.2356 229.056 96.049 228.389 95.6756 227.952C95.3023 227.515 94.801 227.296 94.1716 227.296C93.5423 227.296 93.041 227.515 92.6676 227.952C92.2943 228.389 92.1076 229.056 92.1076 229.952C92.1076 230.848 92.2943 231.52 92.6676 231.968C93.041 232.405 93.5423 232.624 94.1716 232.624ZM100.851 230.384V228.8H105.715V230.384H100.851ZM108.522 237.456V227.936C108.522 227.605 108.512 227.269 108.49 226.928C108.469 226.587 108.437 226.251 108.394 225.92H110.33L110.506 227.616H110.33C110.49 227.051 110.826 226.603 111.338 226.272C111.861 225.931 112.464 225.76 113.146 225.76C113.861 225.76 114.485 225.931 115.018 226.272C115.552 226.603 115.968 227.083 116.266 227.712C116.565 228.331 116.714 229.077 116.714 229.952C116.714 230.827 116.565 231.579 116.266 232.208C115.968 232.837 115.552 233.323 115.018 233.664C114.485 233.995 113.861 234.16 113.146 234.16C112.474 234.16 111.882 233.995 111.37 233.664C110.858 233.333 110.517 232.891 110.346 232.336H110.522V237.456H108.522ZM112.586 232.624C113.226 232.624 113.738 232.405 114.122 231.968C114.506 231.52 114.698 230.848 114.698 229.952C114.698 229.056 114.506 228.389 114.122 227.952C113.738 227.515 113.226 227.296 112.586 227.296C111.957 227.296 111.45 227.515 111.066 227.952C110.682 228.389 110.49 229.056 110.49 229.952C110.49 230.848 110.682 231.52 111.066 231.968C111.45 232.405 111.957 232.624 112.586 232.624ZM122.732 234.16C121.9 234.16 121.18 233.989 120.572 233.648C119.964 233.307 119.49 232.821 119.148 232.192C118.818 231.563 118.652 230.816 118.652 229.952C118.652 229.088 118.818 228.347 119.148 227.728C119.49 227.099 119.964 226.613 120.572 226.272C121.18 225.931 121.9 225.76 122.732 225.76C123.564 225.76 124.284 225.931 124.892 226.272C125.511 226.613 125.986 227.099 126.316 227.728C126.658 228.347 126.828 229.088 126.828 229.952C126.828 230.816 126.658 231.563 126.316 232.192C125.986 232.821 125.511 233.307 124.892 233.648C124.284 233.989 123.564 234.16 122.732 234.16ZM122.732 232.624C123.362 232.624 123.863 232.405 124.236 231.968C124.61 231.52 124.796 230.848 124.796 229.952C124.796 229.056 124.61 228.389 124.236 227.952C123.863 227.515 123.362 227.296 122.732 227.296C122.103 227.296 121.602 227.515 121.228 227.952C120.855 228.389 120.668 229.056 120.668 229.952C120.668 230.848 120.855 231.52 121.228 231.968C121.602 232.405 122.103 232.624 122.732 232.624ZM129.193 237.456V227.936C129.193 227.605 129.182 227.269 129.161 226.928C129.14 226.587 129.108 226.251 129.065 225.92H131.001L131.177 227.616H131.001C131.161 227.051 131.497 226.603 132.009 226.272C132.532 225.931 133.134 225.76 133.817 225.76C134.532 225.76 135.156 225.931 135.689 226.272C136.222 226.603 136.638 227.083 136.937 227.712C137.236 228.331 137.385 229.077 137.385 229.952C137.385 230.827 137.236 231.579 136.937 232.208C136.638 232.837 136.222 233.323 135.689 233.664C135.156 233.995 134.532 234.16 133.817 234.16C133.145 234.16 132.553 233.995 132.041 233.664C131.529 233.333 131.188 232.891 131.017 232.336H131.193V237.456H129.193ZM133.257 232.624C133.897 232.624 134.409 232.405 134.793 231.968C135.177 231.52 135.369 230.848 135.369 229.952C135.369 229.056 135.177 228.389 134.793 227.952C134.409 227.515 133.897 227.296 133.257 227.296C132.628 227.296 132.121 227.515 131.737 227.952C131.353 228.389 131.161 229.056 131.161 229.952C131.161 230.848 131.353 231.52 131.737 231.968C132.121 232.405 132.628 232.624 133.257 232.624ZM142.667 234.16C141.675 234.16 140.934 233.888 140.443 233.344C139.952 232.8 139.707 231.968 139.707 230.848V225.92H141.707V230.832C141.707 231.429 141.83 231.872 142.075 232.16C142.32 232.437 142.694 232.576 143.195 232.576C143.76 232.576 144.219 232.384 144.571 232C144.934 231.616 145.115 231.109 145.115 230.48V225.92H147.115V234H145.163V232.352H145.387C145.152 232.928 144.795 233.376 144.315 233.696C143.846 234.005 143.296 234.16 142.667 234.16ZM149.926 234V222.224H151.926V234H149.926ZM157.858 234.16C157.154 234.16 156.535 233.995 156.002 233.664C155.469 233.323 155.053 232.837 154.754 232.208C154.455 231.579 154.306 230.827 154.306 229.952C154.306 229.077 154.455 228.331 154.754 227.712C155.053 227.083 155.469 226.603 156.002 226.272C156.535 225.931 157.154 225.76 157.858 225.76C158.541 225.76 159.138 225.931 159.65 226.272C160.173 226.603 160.519 227.051 160.69 227.616H160.514L160.69 225.92H162.61C162.578 226.251 162.546 226.587 162.514 226.928C162.493 227.269 162.482 227.605 162.482 227.936V234H160.498L160.482 232.336H160.674C160.503 232.891 160.157 233.333 159.634 233.664C159.111 233.995 158.519 234.16 157.858 234.16ZM158.418 232.624C159.047 232.624 159.554 232.405 159.938 231.968C160.322 231.52 160.514 230.848 160.514 229.952C160.514 229.056 160.322 228.389 159.938 227.952C159.554 227.515 159.047 227.296 158.418 227.296C157.789 227.296 157.282 227.515 156.898 227.952C156.514 228.389 156.322 229.056 156.322 229.952C156.322 230.848 156.509 231.52 156.882 231.968C157.266 232.405 157.778 232.624 158.418 232.624ZM168.756 234.16C167.796 234.16 167.071 233.909 166.58 233.408C166.089 232.907 165.844 232.155 165.844 231.152V227.424H164.292V225.92H165.844V223.856L167.844 223.344V225.92H170.004V227.424H167.844V231.024C167.844 231.579 167.951 231.968 168.164 232.192C168.377 232.416 168.671 232.528 169.044 232.528C169.247 232.528 169.417 232.512 169.556 232.48C169.705 232.448 169.849 232.405 169.988 232.352V233.936C169.807 234.011 169.604 234.064 169.38 234.096C169.167 234.139 168.959 234.16 168.756 234.16ZM172.002 234V225.92H174.002V234H172.002ZM171.89 224.4V222.448H174.114V224.4H171.89ZM180.462 234.16C179.63 234.16 178.91 233.989 178.302 233.648C177.694 233.307 177.22 232.821 176.878 232.192C176.548 231.563 176.382 230.816 176.382 229.952C176.382 229.088 176.548 228.347 176.878 227.728C177.22 227.099 177.694 226.613 178.302 226.272C178.91 225.931 179.63 225.76 180.462 225.76C181.294 225.76 182.014 225.931 182.622 226.272C183.241 226.613 183.716 227.099 184.046 227.728C184.388 228.347 184.558 229.088 184.558 229.952C184.558 230.816 184.388 231.563 184.046 232.192C183.716 232.821 183.241 233.307 182.622 233.648C182.014 233.989 181.294 234.16 180.462 234.16ZM180.462 232.624C181.092 232.624 181.593 232.405 181.966 231.968C182.34 231.52 182.526 230.848 182.526 229.952C182.526 229.056 182.34 228.389 181.966 227.952C181.593 227.515 181.092 227.296 180.462 227.296C179.833 227.296 179.332 227.515 178.958 227.952C178.585 228.389 178.398 229.056 178.398 229.952C178.398 230.848 178.585 231.52 178.958 231.968C179.332 232.405 179.833 232.624 180.462 232.624ZM186.923 234V227.936C186.923 227.605 186.912 227.269 186.891 226.928C186.87 226.587 186.838 226.251 186.795 225.92H188.731L188.891 227.52H188.699C188.955 226.955 189.334 226.523 189.835 226.224C190.336 225.915 190.918 225.76 191.579 225.76C192.528 225.76 193.243 226.027 193.723 226.56C194.203 227.093 194.443 227.925 194.443 229.056V234H192.443V229.152C192.443 228.501 192.315 228.037 192.059 227.76C191.814 227.472 191.44 227.328 190.939 227.328C190.32 227.328 189.83 227.52 189.467 227.904C189.104 228.288 188.923 228.8 188.923 229.44V234H186.923ZM205.946 234.16C205.114 234.16 204.384 233.989 203.754 233.648C203.136 233.307 202.656 232.821 202.314 232.192C201.973 231.552 201.802 230.795 201.802 229.92C201.802 229.045 201.973 228.299 202.314 227.68C202.666 227.061 203.152 226.587 203.77 226.256C204.389 225.925 205.114 225.76 205.946 225.76C206.48 225.76 206.997 225.845 207.498 226.016C208.01 226.176 208.426 226.411 208.746 226.72L208.138 228.112C207.85 227.845 207.525 227.648 207.162 227.52C206.81 227.381 206.464 227.312 206.122 227.312C205.408 227.312 204.848 227.536 204.442 227.984C204.048 228.432 203.85 229.083 203.85 229.936C203.85 230.789 204.048 231.445 204.442 231.904C204.848 232.363 205.408 232.592 206.122 232.592C206.453 232.592 206.794 232.528 207.146 232.4C207.509 232.272 207.84 232.075 208.138 231.808L208.746 233.184C208.416 233.493 207.994 233.733 207.482 233.904C206.981 234.075 206.469 234.16 205.946 234.16ZM210.937 234V222.224H212.937V234H210.937ZM215.749 234V225.92H217.749V234H215.749ZM215.637 224.4V222.448H217.861V224.4H215.637ZM220.561 234V227.936C220.561 227.605 220.55 227.269 220.529 226.928C220.507 226.587 220.475 226.251 220.433 225.92H222.369L222.529 227.52H222.337C222.593 226.955 222.971 226.523 223.473 226.224C223.974 225.915 224.555 225.76 225.217 225.76C226.166 225.76 226.881 226.027 227.361 226.56C227.841 227.093 228.081 227.925 228.081 229.056V234H226.081V229.152C226.081 228.501 225.953 228.037 225.697 227.76C225.451 227.472 225.078 227.328 224.577 227.328C223.958 227.328 223.467 227.52 223.105 227.904C222.742 228.288 222.561 228.8 222.561 229.44V234H220.561ZM230.841 234V225.92H232.841V234H230.841ZM230.729 224.4V222.448H232.953V224.4H230.729ZM239.365 234.16C238.533 234.16 237.802 233.989 237.173 233.648C236.554 233.307 236.074 232.821 235.733 232.192C235.392 231.552 235.221 230.795 235.221 229.92C235.221 229.045 235.392 228.299 235.733 227.68C236.085 227.061 236.57 226.587 237.189 226.256C237.808 225.925 238.533 225.76 239.365 225.76C239.898 225.76 240.416 225.845 240.917 226.016C241.429 226.176 241.845 226.411 242.165 226.72L241.557 228.112C241.269 227.845 240.944 227.648 240.581 227.52C240.229 227.381 239.882 227.312 239.541 227.312C238.826 227.312 238.266 227.536 237.861 227.984C237.466 228.432 237.269 229.083 237.269 229.936C237.269 230.789 237.466 231.445 237.861 231.904C238.266 232.363 238.826 232.592 239.541 232.592C239.872 232.592 240.213 232.528 240.565 232.4C240.928 232.272 241.258 232.075 241.557 231.808L242.165 233.184C241.834 233.493 241.413 233.733 240.901 233.904C240.4 234.075 239.888 234.16 239.365 234.16ZM247.429 234.16C246.725 234.16 246.106 233.995 245.573 233.664C245.039 233.323 244.623 232.837 244.325 232.208C244.026 231.579 243.877 230.827 243.877 229.952C243.877 229.077 244.026 228.331 244.325 227.712C244.623 227.083 245.039 226.603 245.573 226.272C246.106 225.931 246.725 225.76 247.429 225.76C248.111 225.76 248.709 225.931 249.221 226.272C249.743 226.603 250.09 227.051 250.261 227.616H250.085L250.261 225.92H252.181C252.149 226.251 252.117 226.587 252.085 226.928C252.063 227.269 252.053 227.605 252.053 227.936V234H250.069L250.053 232.336H250.245C250.074 232.891 249.727 233.333 249.205 233.664C248.682 233.995 248.09 234.16 247.429 234.16ZM247.989 232.624C248.618 232.624 249.125 232.405 249.509 231.968C249.893 231.52 250.085 230.848 250.085 229.952C250.085 229.056 249.893 228.389 249.509 227.952C249.125 227.515 248.618 227.296 247.989 227.296C247.359 227.296 246.853 227.515 246.469 227.952C246.085 228.389 245.893 229.056 245.893 229.952C245.893 230.848 246.079 231.52 246.453 231.968C246.837 232.405 247.349 232.624 247.989 232.624ZM254.871 234V222.224H256.871V234H254.871ZM264.713 234V227.936C264.713 227.605 264.702 227.269 264.681 226.928C264.66 226.587 264.628 226.251 264.585 225.92H266.521L266.681 227.52H266.489C266.713 226.965 267.054 226.533 267.513 226.224C267.982 225.915 268.537 225.76 269.177 225.76C269.817 225.76 270.345 225.915 270.761 226.224C271.188 226.523 271.486 226.992 271.657 227.632H271.401C271.625 227.056 271.993 226.603 272.505 226.272C273.017 225.931 273.604 225.76 274.265 225.76C275.172 225.76 275.849 226.027 276.297 226.56C276.745 227.093 276.969 227.925 276.969 229.056V234H274.969V229.136C274.969 228.496 274.862 228.037 274.649 227.76C274.436 227.472 274.094 227.328 273.625 227.328C273.07 227.328 272.633 227.525 272.313 227.92C271.993 228.304 271.833 228.827 271.833 229.488V234H269.833V229.136C269.833 228.496 269.726 228.037 269.513 227.76C269.3 227.472 268.958 227.328 268.489 227.328C267.934 227.328 267.497 227.525 267.177 227.92C266.868 228.304 266.713 228.827 266.713 229.488V234H264.713ZM283.392 234.16C282.56 234.16 281.84 233.989 281.232 233.648C280.624 233.307 280.149 232.821 279.808 232.192C279.477 231.563 279.312 230.816 279.312 229.952C279.312 229.088 279.477 228.347 279.808 227.728C280.149 227.099 280.624 226.613 281.232 226.272C281.84 225.931 282.56 225.76 283.392 225.76C284.224 225.76 284.944 225.931 285.552 226.272C286.17 226.613 286.645 227.099 286.976 227.728C287.317 228.347 287.488 229.088 287.488 229.952C287.488 230.816 287.317 231.563 286.976 232.192C286.645 232.821 286.17 233.307 285.552 233.648C284.944 233.989 284.224 234.16 283.392 234.16ZM283.392 232.624C284.021 232.624 284.522 232.405 284.896 231.968C285.269 231.52 285.456 230.848 285.456 229.952C285.456 229.056 285.269 228.389 284.896 227.952C284.522 227.515 284.021 227.296 283.392 227.296C282.762 227.296 282.261 227.515 281.888 227.952C281.514 228.389 281.328 229.056 281.328 229.952C281.328 230.848 281.514 231.52 281.888 231.968C282.261 232.405 282.762 232.624 283.392 232.624ZM293.23 234.16C292.27 234.16 291.545 233.909 291.054 233.408C290.564 232.907 290.318 232.155 290.318 231.152V227.424H288.766V225.92H290.318V223.856L292.318 223.344V225.92H294.478V227.424H292.318V231.024C292.318 231.579 292.425 231.968 292.638 232.192C292.852 232.416 293.145 232.528 293.518 232.528C293.721 232.528 293.892 232.512 294.03 232.48C294.18 232.448 294.324 232.405 294.462 232.352V233.936C294.281 234.011 294.078 234.064 293.854 234.096C293.641 234.139 293.433 234.16 293.23 234.16ZM300.303 234.16C298.948 234.16 297.887 233.787 297.119 233.04C296.351 232.293 295.967 231.269 295.967 229.968C295.967 229.125 296.132 228.389 296.463 227.76C296.793 227.131 297.252 226.64 297.839 226.288C298.436 225.936 299.129 225.76 299.919 225.76C300.697 225.76 301.348 225.925 301.871 226.256C302.393 226.587 302.788 227.051 303.055 227.648C303.332 228.245 303.471 228.944 303.471 229.744V230.272H297.583V229.216H302.047L301.775 229.44C301.775 228.693 301.615 228.123 301.295 227.728C300.985 227.333 300.532 227.136 299.935 227.136C299.273 227.136 298.761 227.371 298.399 227.84C298.047 228.309 297.871 228.965 297.871 229.808V230.016C297.871 230.891 298.084 231.547 298.511 231.984C298.948 232.411 299.561 232.624 300.351 232.624C300.809 232.624 301.236 232.565 301.631 232.448C302.036 232.32 302.42 232.117 302.783 231.84L303.375 233.184C302.991 233.493 302.532 233.733 301.999 233.904C301.465 234.075 300.9 234.16 300.303 234.16Z" fill="black"/>
<path d="M61.548 289V276.31H63.222V281.854H70.602V276.31H72.294V289H70.602V283.276H63.222V289H61.548ZM76.0844 289V276.31H81.3404C82.6964 276.31 83.7344 276.634 84.4544 277.282C85.1744 277.93 85.5344 278.824 85.5344 279.964C85.5344 281.104 85.1744 282.004 84.4544 282.664C83.7344 283.312 82.6964 283.636 81.3404 283.636H77.7584V289H76.0844ZM77.7584 282.268H81.1784C82.0664 282.268 82.7384 282.07 83.1944 281.674C83.6504 281.266 83.8784 280.696 83.8784 279.964C83.8784 279.232 83.6504 278.668 83.1944 278.272C82.7384 277.876 82.0664 277.678 81.1784 277.678H77.7584V282.268ZM88.5993 289V276.31H90.2733V289H88.5993ZM61.548 329V316.31H66.804C68.16 316.31 69.204 316.628 69.936 317.264C70.68 317.9 71.052 318.788 71.052 319.928C71.052 320.684 70.884 321.326 70.548 321.854C70.212 322.382 69.738 322.784 69.126 323.06C68.526 323.336 67.824 323.474 67.02 323.474L67.326 323.222H67.758C68.25 323.222 68.688 323.348 69.072 323.6C69.456 323.84 69.774 324.236 70.026 324.788L71.826 329H69.972L68.226 324.824C68.022 324.308 67.722 323.972 67.326 323.816C66.942 323.66 66.456 323.582 65.868 323.582H63.222V329H61.548ZM63.222 322.286H66.552C67.476 322.286 68.178 322.088 68.658 321.692C69.15 321.296 69.396 320.72 69.396 319.964C69.396 319.22 69.15 318.656 68.658 318.272C68.178 317.876 67.476 317.678 66.552 317.678H63.222V322.286ZM74.2277 322.646C74.2277 321.314 74.4617 320.162 74.9297 319.19C75.3977 318.218 76.0697 317.468 76.9457 316.94C77.8337 316.412 78.8897 316.148 80.1137 316.148C81.3257 316.148 82.3697 316.412 83.2457 316.94C84.1337 317.468 84.8177 318.218 85.2977 319.19C85.7777 320.162 86.0177 321.308 86.0177 322.628C86.0177 323.96 85.7777 325.118 85.2977 326.102C84.8177 327.074 84.1337 327.83 83.2457 328.37C82.3697 328.898 81.3257 329.162 80.1137 329.162C78.8897 329.162 77.8397 328.898 76.9637 328.37C76.0877 327.83 75.4097 327.074 74.9297 326.102C74.4617 325.118 74.2277 323.966 74.2277 322.646ZM75.9917 322.646C75.9917 324.23 76.3397 325.466 77.0357 326.354C77.7317 327.242 78.7577 327.686 80.1137 327.686C81.4217 327.686 82.4357 327.248 83.1557 326.372C83.8877 325.484 84.2537 324.242 84.2537 322.646C84.2537 321.05 83.8937 319.814 83.1737 318.938C82.4537 318.062 81.4337 317.624 80.1137 317.624C78.7577 317.624 77.7317 318.062 77.0357 318.938C76.3397 319.814 75.9917 321.05 75.9917 322.646ZM93.5843 329.162C92.5643 329.162 91.6463 329.03 90.8303 328.766C90.0143 328.502 89.3063 328.13 88.7063 327.65L89.2823 326.318C89.7023 326.63 90.1283 326.894 90.5603 327.11C90.9923 327.314 91.4543 327.47 91.9463 327.578C92.4503 327.674 92.9963 327.722 93.5843 327.722C94.6283 327.722 95.3963 327.536 95.8883 327.164C96.3923 326.78 96.6443 326.276 96.6443 325.652C96.6443 325.112 96.4703 324.698 96.1223 324.41C95.7743 324.122 95.1683 323.894 94.3043 323.726L92.3783 323.33C91.2143 323.09 90.3443 322.7 89.7683 322.16C89.2043 321.608 88.9223 320.864 88.9223 319.928C88.9223 319.172 89.1203 318.512 89.5163 317.948C89.9243 317.372 90.4823 316.928 91.1903 316.616C91.9103 316.304 92.7503 316.148 93.7103 316.148C94.5983 316.148 95.4203 316.28 96.1763 316.544C96.9323 316.808 97.5683 317.198 98.0843 317.714L97.5083 318.992C96.9683 318.5 96.3863 318.146 95.7623 317.93C95.1503 317.702 94.4543 317.588 93.6743 317.588C92.7263 317.588 91.9763 317.792 91.4243 318.2C90.8723 318.608 90.5963 319.16 90.5963 319.856C90.5963 320.408 90.7703 320.846 91.1183 321.17C91.4663 321.482 92.0423 321.722 92.8463 321.89L94.7723 322.268C95.9963 322.508 96.8903 322.886 97.4543 323.402C98.0303 323.918 98.3183 324.632 98.3183 325.544C98.3183 326.264 98.1263 326.9 97.7423 327.452C97.3583 327.992 96.8123 328.412 96.1043 328.712C95.3963 329.012 94.5563 329.162 93.5843 329.162ZM61.548 369V356.31H66.804C68.16 356.31 69.198 356.634 69.918 357.282C70.638 357.93 70.998 358.824 70.998 359.964C70.998 361.104 70.638 362.004 69.918 362.664C69.198 363.312 68.16 363.636 66.804 363.636H63.222V369H61.548ZM63.222 362.268H66.642C67.53 362.268 68.202 362.07 68.658 361.674C69.114 361.266 69.342 360.696 69.342 359.964C69.342 359.232 69.114 358.668 68.658 358.272C68.202 357.876 67.53 357.678 66.642 357.678H63.222V362.268ZM74.0629 369V356.31H82.2709V357.678H75.6829V361.872H81.8569V363.24H75.6829V367.632H82.2709V369H74.0629Z" fill="black"/>
</g>
<defs>
<filter id="filter0_d_602_911" x="0" y="0" width="611" height="460" filterUnits="userSpaceOnUse" color-interpolation-filters="sRGB">
<feFlood flood-opacity="0" result="BackgroundImageFix"/>
<feColorMatrix in="SourceAlpha" type="matrix" values="0 0 0 0 0 0 0 0 0 0 0 0 0 0 0 0 0 0 127 0" result="hardAlpha"/>
<feOffset dy="20"/>
<feGaussianBlur stdDeviation="15"/>
<feComposite in2="hardAlpha" operator="out"/>
<feColorMatrix type="matrix" values="0 0 0 0 0.663462 0 0 0 0 0.663462 0 0 0 0 0.663462 0 0 0 0.16 0"/>
<feBlend mode="normal" in2="BackgroundImageFix" result="effect1_dropShadow_602_911"/>
<feBlend mode="normal" in="SourceGraphic" in2="effect1_dropShadow_602_911" result="shape"/>
</filter>
</defs>
</svg>
