<svg width="24" height="24" viewBox="0 0 24 24" fill="none" xmlns="http://www.w3.org/2000/svg">
<path d="M12 0C8.8174 0 5.76516 1.26428 3.51472 3.51472C1.26428 5.76516 0 8.8174 0 12C0 15.1826 1.26428 18.2348 3.51472 20.4853C5.76516 22.7357 8.8174 24 12 24C13.5759 24 15.1363 23.6896 16.5922 23.0866C18.0481 22.4835 19.371 21.5996 20.4853 20.4853C21.5996 19.371 22.4835 18.0481 23.0866 16.5922C23.6896 15.1363 24 13.5759 24 12C24 10.4241 23.6896 8.86371 23.0866 7.4078C22.4835 5.95189 21.5996 4.62902 20.4853 3.51472C19.371 2.40042 18.0481 1.5165 16.5922 0.913446C15.1363 0.310389 13.5759 0 12 0ZM15.4434 13.1065L10.6712 17.8787C10.5322 18.0176 10.3672 18.1277 10.1856 18.2028C10.004 18.2778 9.80947 18.3164 9.613 18.3163C9.41653 18.3162 9.22201 18.2774 9.04054 18.2021C8.85907 18.1268 8.69421 18.0165 8.55537 17.8775C8.41653 17.7385 8.30642 17.5735 8.23135 17.3919C8.15627 17.2104 8.11769 17.0158 8.11781 16.8193C8.11804 16.4225 8.27589 16.0421 8.55663 15.7617L12.3208 12L8.55663 8.23832C8.27589 7.95791 8.11804 7.57747 8.11781 7.18068C8.11757 6.7839 8.27497 6.40326 8.55537 6.12253C8.83577 5.84179 9.21621 5.68394 9.613 5.6837C10.0098 5.68346 10.3904 5.84086 10.6712 6.12126L15.4434 10.8935C15.5883 11.038 15.7019 11.2109 15.7771 11.4012C15.8523 11.5916 15.8875 11.7954 15.8804 12V12.048C15.8807 12.4448 15.7235 12.8255 15.4434 13.1065Z" fill="#00ADB5"/>
</svg>
