<svg width="30" height="30" viewBox="0 0 30 30" fill="none" xmlns="http://www.w3.org/2000/svg">
<path d="M22.9056 17.1329C23.0803 16.6091 23.6473 16.3265 24.1712 16.5011C24.6949 16.6759 24.9776 17.242 24.8031 17.7657L24.6917 18.0978C25.1901 18.4219 25.6238 18.8365 25.9701 19.3185L26.3724 19.1583C26.8851 18.9534 27.4671 19.2032 27.6722 19.7159C27.8771 20.2286 27.6272 20.8107 27.1146 21.0157L26.7699 21.1525C26.8312 21.4575 26.8645 21.7728 26.8646 22.0958C26.8646 22.3428 26.8442 22.5855 26.808 22.8224L27.0589 22.9064C27.5828 23.0811 27.8664 23.6481 27.6917 24.172C27.5168 24.6954 26.9507 24.9782 26.4271 24.8038L26.0941 24.6925C25.7699 25.1907 25.3553 25.6237 24.8734 25.9698L25.0345 26.3722C25.2395 26.8848 24.9903 27.4667 24.4779 27.672C23.9651 27.8771 23.3832 27.6272 23.1781 27.1144L23.0404 26.7706C22.7351 26.832 22.4194 26.8644 22.096 26.8644C21.8492 26.8644 21.6062 26.8459 21.3695 26.8097L21.2865 27.0597C21.1119 27.5835 20.5457 27.8669 20.0218 27.6925C19.498 27.5178 19.2154 26.9517 19.39 26.4279L19.5003 26.0948C19.0016 25.7704 18.5674 25.3557 18.221 24.8732L17.8197 25.0343C17.307 25.2393 16.725 24.9903 16.5199 24.4777C16.3148 23.9649 16.5647 23.383 17.0775 23.1779L17.4212 23.0392C17.3601 22.7343 17.3285 22.4187 17.3285 22.0958C17.3285 21.8488 17.3469 21.6062 17.3831 21.3693L17.1322 21.2863C16.6084 21.1115 16.3257 20.5454 16.5003 20.0216C16.6751 19.4979 17.2412 19.2152 17.765 19.3898L18.097 19.5001C18.4212 19.0019 18.8357 18.568 19.3177 18.2218L19.1576 17.8204C18.9528 17.3078 19.2026 16.7257 19.7152 16.5206C20.2279 16.3158 20.8099 16.5656 21.015 17.0782L21.1527 17.422C21.4575 17.3608 21.7732 17.3283 22.096 17.3282C22.3427 17.3283 22.585 17.3478 22.8216 17.3839L22.9056 17.1329ZM23.3529 2.25598C24.284 2.25619 25.1778 2.62587 25.8363 3.2843C26.4947 3.94276 26.8644 4.83654 26.8646 5.7677V12.6759C26.8646 13.228 26.4167 13.6757 25.8646 13.6759C25.3123 13.6759 24.8646 13.2282 24.8646 12.6759V5.7677C24.8644 5.36694 24.7046 4.98176 24.4212 4.69836C24.1379 4.41527 23.7534 4.25619 23.3529 4.25598H19.3285V12.6759C19.3285 13.228 18.8806 13.6757 18.3285 13.6759C17.7762 13.6759 17.3285 13.2282 17.3285 12.6759V4.25598H11.7923V24.8644H12.6761C13.2281 24.8646 13.6759 25.3124 13.6761 25.8644C13.676 26.4165 13.2282 26.8642 12.6761 26.8644H5.76791C4.83661 26.8643 3.94307 26.4946 3.28452 25.8361C2.62601 25.1775 2.25631 24.2839 2.2562 23.3527V5.7677C2.25638 4.83651 2.62605 3.94277 3.28452 3.2843C3.94304 2.62597 4.83675 2.25606 5.76791 2.25598H23.3529ZM5.76791 4.25598C5.36718 4.25606 4.98203 4.41511 4.69858 4.69836C4.41518 4.98176 4.25638 5.36694 4.2562 5.7677V23.3527C4.25631 23.7533 4.41541 24.1376 4.69858 24.421C4.98207 24.7045 5.36701 24.8643 5.76791 24.8644H9.79233V4.25598H5.76791ZM22.096 19.3282C21.796 19.3283 21.5072 19.3776 21.2367 19.4659C21.1561 19.5346 21.064 19.5924 20.9603 19.6339C20.8827 19.665 20.8032 19.6836 20.724 19.6945C19.8908 20.1714 19.3287 21.0671 19.3285 22.0958C19.3285 22.3962 19.3767 22.6854 19.4652 22.9562C19.5338 23.0368 19.5917 23.1289 19.6331 23.2325C19.6639 23.3095 19.6828 23.3884 19.6937 23.4669C20.1705 24.301 21.0667 24.8642 22.096 24.8644C22.3959 24.8643 22.684 24.815 22.9544 24.7267C23.0352 24.6578 23.1287 24.6003 23.2328 24.5587C23.3104 24.5277 23.3898 24.508 23.4691 24.4972C24.3017 24.0198 24.8646 23.1242 24.8646 22.0958C24.8645 21.7953 24.8146 21.5064 24.7259 21.2355C24.6579 21.1553 24.6002 21.0641 24.5589 20.9611C24.5277 20.8831 24.5082 20.8033 24.4974 20.7238C24.0202 19.891 23.1245 19.3284 22.096 19.3282Z" fill="#979797"/>
</svg>
