<svg width="18" height="21" viewBox="0 0 18 21" fill="none" xmlns="http://www.w3.org/2000/svg">
<path fill-rule="evenodd" clip-rule="evenodd" d="M14.502 14.4377C14.5307 14.3616 14.6429 14.3617 14.6709 14.4377L14.9854 15.2853C15.335 16.225 16.0993 16.9649 17.0684 17.3039L17.9414 17.6095C18.0199 17.6374 18.02 17.7448 17.9414 17.7726L17.0684 18.0783C16.0992 18.4173 15.335 19.1571 14.9854 20.0968L14.6709 20.9435C14.6423 21.02 14.5306 21.02 14.502 20.9435L14.1875 20.0968C13.8379 19.1572 13.0745 18.4173 12.1055 18.0783L11.2324 17.7726C11.1536 17.7449 11.1536 17.6373 11.2324 17.6095L12.1055 17.3039C13.0745 16.9649 13.8379 16.2249 14.1875 15.2853L14.502 14.4377ZM6.57424 4.07731C6.62995 3.92584 6.85079 3.92582 6.90725 4.07731L7.52834 5.75016C8.21832 7.60623 9.72554 9.0675 11.6397 9.73649L13.3643 10.339C13.5197 10.3938 13.5197 10.6073 13.3643 10.6613L11.6397 11.2638C9.72538 11.9328 8.21829 13.3949 7.52834 15.2511L6.90725 16.924C6.85072 17.0745 6.6301 17.0744 6.57424 16.924L5.95315 15.2511C5.26325 13.3949 3.756 11.9329 1.84182 11.2638L0.116233 10.6613C-0.0386758 10.6063 -0.0388131 10.3931 0.116233 10.339L1.84182 9.73649C3.75582 9.06742 5.26324 7.60617 5.95315 5.75016L6.57424 4.07731ZM14.502 0.0577773C14.5306 -0.0193059 14.6429 -0.0192123 14.6709 0.0577773L14.9854 0.904457C15.335 1.84423 16.0992 2.58498 17.0684 2.92399L17.9414 3.22868C18.0202 3.25646 18.0201 3.3649 17.9414 3.39274L17.0684 3.69743C16.0992 4.03643 15.335 4.77719 14.9854 5.71696L14.6709 6.56364C14.6423 6.64014 14.5306 6.64014 14.502 6.56364L14.1875 5.71696C13.8379 4.77719 13.0746 4.03643 12.1055 3.69743L11.2324 3.39274C11.1536 3.36499 11.1536 3.25643 11.2324 3.22868L12.1055 2.92399C13.0746 2.58497 13.8379 1.84421 14.1875 0.904457L14.502 0.0577773Z" fill="white"/>
</svg>
