<svg width="30" height="30" viewBox="0 0 30 30" fill="none" xmlns="http://www.w3.org/2000/svg">
<path d="M10.3906 23.2197C10.9427 23.22 11.3906 23.6676 11.3906 24.2197C11.3906 24.5657 11.5278 24.8979 11.7725 25.1426C12.0171 25.3871 12.3494 25.5243 12.6953 25.5244C13.2473 25.5247 13.6952 25.9724 13.6953 26.5244C13.6953 27.0765 13.2474 27.5242 12.6953 27.5244C11.819 27.5243 10.9781 27.1762 10.3584 26.5566C9.73868 25.9369 9.39062 25.0962 9.39062 24.2197C9.39065 23.6675 9.83836 23.2197 10.3906 23.2197ZM19.6094 25.5244C20.1616 25.5244 20.6092 25.9723 20.6094 26.5244C20.6094 27.0767 20.1617 27.5244 19.6094 27.5244H17.3047C16.7526 27.5242 16.3047 27.0765 16.3047 26.5244C16.3049 25.9724 16.7527 25.5247 17.3047 25.5244H19.6094ZM26.5244 23.2197C27.0767 23.2197 27.5244 23.6675 27.5244 24.2197C27.5244 25.0963 27.1765 25.9368 26.5566 26.5566C25.9368 27.1763 25.0962 27.5244 24.2197 27.5244C23.6676 27.5242 23.2197 27.0766 23.2197 26.5244C23.2199 25.9724 23.6677 25.5246 24.2197 25.5244C24.5657 25.5244 24.8979 25.3872 25.1426 25.1426C25.3873 24.8979 25.5244 24.5658 25.5244 24.2197C25.5244 23.6677 25.9725 23.2201 26.5244 23.2197ZM17.3047 2.47559C18.1811 2.47559 19.0218 2.82367 19.6416 3.44336C20.2613 4.06308 20.6093 4.90387 20.6094 5.78027V9.23828C20.6092 9.80883 20.3829 10.3563 19.9795 10.7598C19.5758 11.1633 19.0278 11.3906 18.457 11.3906H12.6943C12.3484 11.3907 12.0161 11.5278 11.7715 11.7725C11.527 12.0172 11.3896 12.3494 11.3896 12.6953V18.458C11.3895 19.0287 11.1623 19.576 10.7588 19.9795C10.3552 20.3829 9.80797 20.6103 9.2373 20.6104H5.7793C4.90301 20.6102 4.06207 20.2621 3.44238 19.6426C2.82275 19.023 2.47482 18.1819 2.47461 17.3057V5.78027C2.47467 4.90394 2.82277 4.06307 3.44238 3.44336C4.06209 2.82367 4.90293 2.4757 5.7793 2.47559H17.3047ZM26.5254 16.3047C27.0775 16.3048 27.5253 16.7526 27.5254 17.3047V19.6094C27.5254 20.1616 27.0776 20.6093 26.5254 20.6094C25.9731 20.6094 25.5254 20.1617 25.5254 19.6094V17.3047C25.5255 16.7525 25.9732 16.3047 26.5254 16.3047ZM5.7793 4.47559C5.43333 4.4757 5.10108 4.6128 4.85645 4.85742C4.6119 5.10207 4.47467 5.43438 4.47461 5.78027V17.3057C4.47482 17.6513 4.61213 17.983 4.85645 18.2275C5.10107 18.4721 5.43338 18.6102 5.7793 18.6104H9.2373C9.27755 18.6103 9.3162 18.5938 9.34473 18.5654C9.37317 18.537 9.38947 18.4982 9.38965 18.458V12.6953C9.38965 11.819 9.73784 10.9782 10.3574 10.3584C10.9771 9.73872 11.818 9.39075 12.6943 9.39062H18.457C18.4974 9.39062 18.5368 9.37417 18.5654 9.3457C18.5938 9.31728 18.6092 9.27838 18.6094 9.23828V5.78027C18.6093 5.43433 18.4722 5.10208 18.2275 4.85742C17.9828 4.61281 17.6507 4.47559 17.3047 4.47559H5.7793ZM24.2197 9.38965C25.096 9.38965 25.9369 9.73799 26.5566 10.3574C27.1763 10.977 27.5242 11.8181 27.5244 12.6943C27.5244 13.2466 27.0767 13.6943 26.5244 13.6943C25.9725 13.6939 25.5244 13.2464 25.5244 12.6943C25.5242 12.3485 25.3871 12.016 25.1426 11.7715C24.8979 11.5271 24.5656 11.3896 24.2197 11.3896C23.6676 11.3894 23.2197 10.9418 23.2197 10.3896C23.22 9.83771 23.6678 9.38986 24.2197 9.38965Z" fill="#979797"/>
</svg>
