<svg width="593" height="486" viewBox="0 0 593 486" fill="none" xmlns="http://www.w3.org/2000/svg">
<rect x="123.5" y="2.5" width="469" height="469" rx="9.5" fill="white"/>
<rect x="123.5" y="2.5" width="469" height="469" rx="9.5" stroke="#C7D6DE"/>
<rect x="143.5" y="22.5" width="146" height="35" stroke="#F4F4F4"/>
<rect x="143" y="22" width="78" height="36" rx="6" fill="#00ADB5"/>
<path d="M156.92 45L153.476 35.13H154.694L157.704 44.02H157.214L160.378 35.13H161.302L164.298 44.02H163.85L166.944 35.13H168.092L164.62 45H163.584L160.672 36.446H160.966L157.928 45H156.92ZM172.302 45.126C171.63 45.126 171.042 44.9813 170.538 44.692C170.043 44.3933 169.661 43.9733 169.39 43.432C169.119 42.8813 168.984 42.2327 168.984 41.486C168.984 40.73 169.119 40.0813 169.39 39.54C169.661 38.9987 170.043 38.5833 170.538 38.294C171.042 37.9953 171.63 37.846 172.302 37.846C172.983 37.846 173.571 37.9953 174.066 38.294C174.57 38.5833 174.957 38.9987 175.228 39.54C175.508 40.0813 175.648 40.73 175.648 41.486C175.648 42.2327 175.508 42.8813 175.228 43.432C174.957 43.9733 174.57 44.3933 174.066 44.692C173.571 44.9813 172.983 45.126 172.302 45.126ZM172.302 44.202C172.974 44.202 173.506 43.9733 173.898 43.516C174.29 43.0493 174.486 42.3727 174.486 41.486C174.486 40.59 174.285 39.9133 173.884 39.456C173.492 38.9893 172.965 38.756 172.302 38.756C171.639 38.756 171.112 38.9893 170.72 39.456C170.328 39.9133 170.132 40.59 170.132 41.486C170.132 42.3727 170.328 43.0493 170.72 43.516C171.112 43.9733 171.639 44.202 172.302 44.202ZM177.948 45V39.666C177.948 39.386 177.939 39.1013 177.92 38.812C177.911 38.5227 177.892 38.2427 177.864 37.972H178.956L179.096 39.68L178.9 39.694C178.993 39.274 179.157 38.9287 179.39 38.658C179.623 38.3873 179.899 38.1867 180.216 38.056C180.533 37.916 180.865 37.846 181.21 37.846C181.35 37.846 181.471 37.8507 181.574 37.86C181.686 37.8693 181.789 37.8927 181.882 37.93L181.868 38.938C181.728 38.8913 181.597 38.8633 181.476 38.854C181.364 38.8353 181.233 38.826 181.084 38.826C180.673 38.826 180.314 38.924 180.006 39.12C179.707 39.316 179.479 39.568 179.32 39.876C179.171 40.184 179.096 40.5107 179.096 40.856V45H177.948ZM183.622 45V34.696H184.756V41.094H184.784L188.046 37.972H189.474L185.624 41.64L185.652 41.066L189.838 45H188.368L184.784 41.696H184.756V45H183.622ZM191.387 45V34.696H192.521V45H191.387ZM195.283 45V37.972H196.417V45H195.283ZM195.143 36.376V35.102H196.543V36.376H195.143ZM201.517 45.126C200.957 45.126 200.434 45.0513 199.949 44.902C199.464 44.7433 199.062 44.524 198.745 44.244L199.137 43.446C199.482 43.7167 199.856 43.9173 200.257 44.048C200.668 44.1787 201.092 44.244 201.531 44.244C202.091 44.244 202.511 44.146 202.791 43.95C203.08 43.7447 203.225 43.4647 203.225 43.11C203.225 42.8393 203.132 42.6247 202.945 42.466C202.768 42.298 202.474 42.1673 202.063 42.074L200.761 41.808C200.164 41.6773 199.716 41.458 199.417 41.15C199.118 40.8327 198.969 40.4313 198.969 39.946C198.969 39.5353 199.076 39.176 199.291 38.868C199.506 38.5507 199.818 38.3033 200.229 38.126C200.64 37.9393 201.12 37.846 201.671 37.846C202.184 37.846 202.656 37.9253 203.085 38.084C203.524 38.2333 203.888 38.4527 204.177 38.742L203.771 39.526C203.491 39.2553 203.169 39.0547 202.805 38.924C202.45 38.784 202.082 38.714 201.699 38.714C201.148 38.714 200.733 38.826 200.453 39.05C200.182 39.2647 200.047 39.5493 200.047 39.904C200.047 40.1747 200.131 40.3987 200.299 40.576C200.476 40.744 200.747 40.87 201.111 40.954L202.413 41.22C203.048 41.36 203.519 41.5793 203.827 41.878C204.144 42.1673 204.303 42.5593 204.303 43.054C204.303 43.474 204.186 43.8427 203.953 44.16C203.72 44.468 203.393 44.706 202.973 44.874C202.562 45.042 202.077 45.126 201.517 45.126ZM209.108 45.126C208.417 45.126 207.89 44.93 207.526 44.538C207.162 44.1367 206.98 43.5347 206.98 42.732V38.854H205.608V37.972H206.98V36.054L208.114 35.732V37.972H210.13V38.854H208.114V42.606C208.114 43.166 208.207 43.5673 208.394 43.81C208.59 44.0433 208.879 44.16 209.262 44.16C209.439 44.16 209.598 44.146 209.738 44.118C209.878 44.0807 210.004 44.0387 210.116 43.992V44.944C209.985 45 209.827 45.042 209.64 45.07C209.463 45.1073 209.285 45.126 209.108 45.126Z" fill="white"/>
<path d="M237.252 45L241.606 35.13H242.614L247.038 45H245.834L244.602 42.186L245.12 42.48H239.086L239.646 42.186L238.442 45H237.252ZM242.096 36.46L239.828 41.78L239.492 41.528H244.7L244.448 41.78L242.124 36.46H242.096ZM248.933 45V39.666C248.933 39.386 248.924 39.1013 248.905 38.812C248.896 38.5227 248.877 38.2427 248.849 37.972H249.941L250.081 39.68L249.885 39.694C249.978 39.274 250.142 38.9287 250.375 38.658C250.608 38.3873 250.884 38.1867 251.201 38.056C251.518 37.916 251.85 37.846 252.195 37.846C252.335 37.846 252.456 37.8507 252.559 37.86C252.671 37.8693 252.774 37.8927 252.867 37.93L252.853 38.938C252.713 38.8913 252.582 38.8633 252.461 38.854C252.349 38.8353 252.218 38.826 252.069 38.826C251.658 38.826 251.299 38.924 250.991 39.12C250.692 39.316 250.464 39.568 250.305 39.876C250.156 40.184 250.081 40.5107 250.081 40.856V45H248.933ZM257.479 45.126C256.788 45.126 256.186 44.9767 255.673 44.678C255.169 44.3793 254.777 43.9547 254.497 43.404C254.226 42.8533 254.091 42.2 254.091 41.444C254.091 40.6787 254.231 40.03 254.511 39.498C254.791 38.9567 255.183 38.546 255.687 38.266C256.2 37.986 256.797 37.846 257.479 37.846C257.927 37.846 258.361 37.9253 258.781 38.084C259.21 38.2427 259.565 38.4667 259.845 38.756L259.439 39.568C259.159 39.2973 258.851 39.0967 258.515 38.966C258.188 38.8353 257.866 38.77 257.549 38.77C256.821 38.77 256.256 38.9987 255.855 39.456C255.453 39.9133 255.253 40.5807 255.253 41.458C255.253 42.326 255.453 42.998 255.855 43.474C256.256 43.95 256.821 44.188 257.549 44.188C257.857 44.188 258.174 44.1273 258.501 44.006C258.837 43.8847 259.149 43.684 259.439 43.404L259.845 44.202C259.555 44.5007 259.196 44.7293 258.767 44.888C258.337 45.0467 257.908 45.126 257.479 45.126ZM262.016 45V34.696H263.15V39.526H262.968C263.164 38.9753 263.491 38.56 263.948 38.28C264.415 37.9907 264.952 37.846 265.558 37.846C266.398 37.846 267.024 38.0747 267.434 38.532C267.845 38.98 268.05 39.6613 268.05 40.576V45H266.916V40.646C266.916 39.9927 266.786 39.5167 266.524 39.218C266.272 38.9193 265.862 38.77 265.292 38.77C264.639 38.77 264.116 38.9707 263.724 39.372C263.342 39.7733 263.15 40.3007 263.15 40.954V45H262.016ZM270.78 45V37.972H271.914V45H270.78ZM270.64 36.376V35.102H272.04V36.376H270.64ZM276.748 45L273.738 37.972H274.97L277.49 44.16H277.112L279.66 37.972H280.836L277.826 45H276.748ZM285.699 45.126C284.598 45.126 283.73 44.8087 283.095 44.174C282.461 43.53 282.143 42.6387 282.143 41.5C282.143 40.7627 282.283 40.1233 282.563 39.582C282.843 39.0313 283.235 38.6067 283.739 38.308C284.243 38 284.822 37.846 285.475 37.846C286.119 37.846 286.661 37.9813 287.099 38.252C287.538 38.5227 287.874 38.91 288.107 39.414C288.341 39.9087 288.457 40.4967 288.457 41.178V41.598H283.011V40.884H287.715L287.477 41.066C287.477 40.3193 287.309 39.736 286.973 39.316C286.637 38.896 286.138 38.686 285.475 38.686C284.775 38.686 284.229 38.9333 283.837 39.428C283.445 39.9133 283.249 40.5713 283.249 41.402V41.528C283.249 42.4053 283.464 43.0727 283.893 43.53C284.332 43.978 284.943 44.202 285.727 44.202C286.147 44.202 286.539 44.1413 286.903 44.02C287.277 43.8893 287.631 43.6793 287.967 43.39L288.359 44.188C288.051 44.4867 287.659 44.72 287.183 44.888C286.717 45.0467 286.222 45.126 285.699 45.126Z" fill="black"/>
<mask id="path-6-inside-1_580_359" fill="white">
<path d="M143 88C143 82.4772 147.477 78 153 78H559C564.523 78 569 82.4772 569 88V162C569 167.523 564.523 172 559 172H153C147.477 172 143 167.523 143 162V88Z"/>
</mask>
<path d="M143 88C143 82.4772 147.477 78 153 78H559C564.523 78 569 82.4772 569 88V162C569 167.523 564.523 172 559 172H153C147.477 172 143 167.523 143 162V88Z" fill="#00ADB5" fill-opacity="0.12"/>
<path d="M143 78H569H143M143 78M569 172H143H569M153 172C146.373 172 141 166.627 141 160V90C141 83.3726 146.373 78 153 78C148.582 78 145 82.4772 145 88V162C145 167.523 148.582 172 153 172ZM153 172M569 78V172V78" fill="#00ADB5" mask="url(#path-6-inside-1_580_359)"/>
<rect x="159" y="95" width="60" height="60" rx="10" fill="white"/>
<path d="M336 124.5H235V99.5H336V124.5Z" stroke="black"/>
<path d="M243.12 119.7C241.653 119.7 240.393 119.407 239.34 118.82C238.3 118.22 237.5 117.38 236.94 116.3C236.38 115.207 236.1 113.92 236.1 112.44C236.1 110.96 236.38 109.68 236.94 108.6C237.5 107.52 238.3 106.687 239.34 106.1C240.393 105.5 241.653 105.2 243.12 105.2C244.107 105.2 244.993 105.34 245.78 105.62C246.58 105.9 247.267 106.313 247.84 106.86L247 108.9C246.373 108.393 245.767 108.033 245.18 107.82C244.607 107.593 243.947 107.48 243.2 107.48C241.773 107.48 240.68 107.913 239.92 108.78C239.173 109.633 238.8 110.853 238.8 112.44C238.8 114.027 239.173 115.253 239.92 116.12C240.68 116.987 241.773 117.42 243.2 117.42C243.947 117.42 244.607 117.313 245.18 117.1C245.767 116.873 246.373 116.5 247 115.98L247.84 118.02C247.267 118.553 246.58 118.967 245.78 119.26C244.993 119.553 244.107 119.7 243.12 119.7ZM253.776 119.5V107.52H249.116V105.4H261.016V107.52H256.356V119.5H253.776ZM275.687 119.7C274.221 119.7 272.961 119.407 271.907 118.82C270.867 118.22 270.067 117.38 269.507 116.3C268.947 115.207 268.667 113.92 268.667 112.44C268.667 110.96 268.947 109.68 269.507 108.6C270.067 107.52 270.867 106.687 271.907 106.1C272.961 105.5 274.221 105.2 275.687 105.2C276.674 105.2 277.561 105.34 278.347 105.62C279.147 105.9 279.834 106.313 280.407 106.86L279.567 108.9C278.941 108.393 278.334 108.033 277.747 107.82C277.174 107.593 276.514 107.48 275.767 107.48C274.341 107.48 273.247 107.913 272.487 108.78C271.741 109.633 271.367 110.853 271.367 112.44C271.367 114.027 271.741 115.253 272.487 116.12C273.247 116.987 274.341 117.42 275.767 117.42C276.514 117.42 277.174 117.313 277.747 117.1C278.334 116.873 278.941 116.5 279.567 115.98L280.407 118.02C279.834 118.553 279.147 118.967 278.347 119.26C277.561 119.553 276.674 119.7 275.687 119.7ZM283.219 119.5V105.4H285.799V111.28H293.019V105.4H295.599V119.5H293.019V113.42H285.799V119.5H283.219ZM299.107 119.5V105.4H308.607V107.42H301.587V111.32H308.147V113.36H301.587V117.46H308.607V119.5H299.107ZM316.126 119.7C314.993 119.7 313.946 119.56 312.986 119.28C312.039 118.987 311.226 118.587 310.546 118.08L311.346 116.06C311.799 116.38 312.273 116.653 312.766 116.88C313.259 117.093 313.786 117.26 314.346 117.38C314.906 117.487 315.499 117.54 316.126 117.54C317.179 117.54 317.939 117.367 318.406 117.02C318.873 116.673 319.106 116.22 319.106 115.66C319.106 115.167 318.946 114.793 318.626 114.54C318.306 114.273 317.733 114.053 316.906 113.88L314.646 113.42C313.353 113.153 312.386 112.707 311.746 112.08C311.106 111.453 310.786 110.613 310.786 109.56C310.786 108.68 311.019 107.913 311.486 107.26C311.953 106.607 312.606 106.1 313.446 105.74C314.286 105.38 315.266 105.2 316.386 105.2C317.386 105.2 318.313 105.347 319.166 105.64C320.019 105.92 320.733 106.327 321.306 106.86L320.506 108.78C319.933 108.3 319.306 107.947 318.626 107.72C317.946 107.48 317.186 107.36 316.346 107.36C315.399 107.36 314.659 107.547 314.126 107.92C313.606 108.28 313.346 108.78 313.346 109.42C313.346 109.913 313.506 110.307 313.826 110.6C314.159 110.893 314.719 111.12 315.506 111.28L317.746 111.72C319.079 111.987 320.066 112.427 320.706 113.04C321.346 113.64 321.666 114.453 321.666 115.48C321.666 116.32 321.439 117.06 320.986 117.7C320.533 118.327 319.893 118.82 319.066 119.18C318.239 119.527 317.259 119.7 316.126 119.7ZM327.524 119.5V107.52H322.864V105.4H334.764V107.52H330.104V119.5H327.524Z" fill="black"/>
<path d="M236.29 144.5V143.57L240.04 139.655C240.53 139.145 240.895 138.66 241.135 138.2C241.385 137.73 241.51 137.245 241.51 136.745C241.51 136.135 241.32 135.675 240.94 135.365C240.56 135.045 240.01 134.885 239.29 134.885C238.73 134.885 238.21 134.985 237.73 135.185C237.26 135.375 236.805 135.68 236.365 136.1L235.915 135.125C236.315 134.725 236.825 134.405 237.445 134.165C238.065 133.915 238.72 133.79 239.41 133.79C240.48 133.79 241.305 134.04 241.885 134.54C242.465 135.03 242.755 135.73 242.755 136.64C242.755 137.31 242.59 137.95 242.26 138.56C241.94 139.16 241.47 139.78 240.85 140.42L237.535 143.78V143.435H243.205V144.5H236.29ZM249.094 144.635C247.894 144.635 246.974 144.17 246.334 143.24C245.694 142.31 245.374 140.965 245.374 139.205C245.374 137.435 245.694 136.09 246.334 135.17C246.974 134.25 247.894 133.79 249.094 133.79C250.304 133.79 251.224 134.25 251.854 135.17C252.494 136.09 252.814 137.43 252.814 139.19C252.814 140.96 252.494 142.31 251.854 143.24C251.214 144.17 250.294 144.635 249.094 144.635ZM249.094 143.555C249.934 143.555 250.559 143.2 250.969 142.49C251.379 141.78 251.584 140.68 251.584 139.19C251.584 137.69 251.379 136.595 250.969 135.905C250.559 135.205 249.934 134.855 249.094 134.855C248.264 134.855 247.639 135.205 247.219 135.905C246.809 136.605 246.604 137.7 246.604 139.19C246.604 140.68 246.809 141.78 247.219 142.49C247.639 143.2 248.264 143.555 249.094 143.555ZM255.478 144.5V143.57L259.228 139.655C259.718 139.145 260.083 138.66 260.323 138.2C260.573 137.73 260.698 137.245 260.698 136.745C260.698 136.135 260.508 135.675 260.128 135.365C259.748 135.045 259.198 134.885 258.478 134.885C257.918 134.885 257.398 134.985 256.918 135.185C256.448 135.375 255.993 135.68 255.553 136.1L255.103 135.125C255.503 134.725 256.013 134.405 256.633 134.165C257.253 133.915 257.908 133.79 258.598 133.79C259.668 133.79 260.493 134.04 261.073 134.54C261.653 135.03 261.943 135.73 261.943 136.64C261.943 137.31 261.778 137.95 261.448 138.56C261.128 139.16 260.658 139.78 260.038 140.42L256.723 143.78V143.435H262.393V144.5H255.478ZM268.627 144.635C267.347 144.635 266.357 144.185 265.657 143.285C264.967 142.375 264.622 141.105 264.622 139.475C264.622 138.255 264.797 137.225 265.147 136.385C265.497 135.535 265.997 134.89 266.647 134.45C267.297 134.01 268.082 133.79 269.002 133.79C269.552 133.79 270.107 133.905 270.667 134.135C271.227 134.355 271.687 134.665 272.047 135.065L271.597 136.025C271.217 135.635 270.802 135.35 270.352 135.17C269.902 134.98 269.447 134.885 268.987 134.885C267.967 134.885 267.182 135.25 266.632 135.98C266.092 136.7 265.822 137.785 265.822 139.235V140.63H265.687C265.757 140.06 265.927 139.57 266.197 139.16C266.477 138.74 266.842 138.42 267.292 138.2C267.742 137.98 268.242 137.87 268.792 137.87C269.432 137.87 269.997 138.01 270.487 138.29C270.977 138.57 271.362 138.965 271.642 139.475C271.922 139.975 272.062 140.55 272.062 141.2C272.062 141.86 271.917 142.45 271.627 142.97C271.337 143.49 270.932 143.9 270.412 144.2C269.892 144.49 269.297 144.635 268.627 144.635ZM268.537 143.585C268.997 143.585 269.402 143.49 269.752 143.3C270.112 143.1 270.387 142.825 270.577 142.475C270.777 142.115 270.877 141.705 270.877 141.245C270.877 140.785 270.777 140.38 270.577 140.03C270.387 139.68 270.112 139.405 269.752 139.205C269.402 139.005 268.997 138.905 268.537 138.905C268.077 138.905 267.672 139.005 267.322 139.205C266.972 139.405 266.697 139.68 266.497 140.03C266.307 140.38 266.212 140.785 266.212 141.245C266.212 141.705 266.307 142.115 266.497 142.475C266.697 142.825 266.972 143.1 267.322 143.3C267.672 143.49 268.077 143.585 268.537 143.585ZM277.877 144.635C276.677 144.635 275.757 144.17 275.117 143.24C274.477 142.31 274.157 140.965 274.157 139.205C274.157 137.435 274.477 136.09 275.117 135.17C275.757 134.25 276.677 133.79 277.877 133.79C279.087 133.79 280.007 134.25 280.637 135.17C281.277 136.09 281.597 137.43 281.597 139.19C281.597 140.96 281.277 142.31 280.637 143.24C279.997 144.17 279.077 144.635 277.877 144.635ZM277.877 143.555C278.717 143.555 279.342 143.2 279.752 142.49C280.162 141.78 280.367 140.68 280.367 139.19C280.367 137.69 280.162 136.595 279.752 135.905C279.342 135.205 278.717 134.855 277.877 134.855C277.047 134.855 276.422 135.205 276.002 135.905C275.592 136.605 275.387 137.7 275.387 139.19C275.387 140.68 275.592 141.78 276.002 142.49C276.422 143.2 277.047 143.555 277.877 143.555ZM287.411 144.635C286.701 144.635 286.021 144.525 285.371 144.305C284.721 144.085 284.176 143.77 283.736 143.36L284.201 142.4C284.691 142.8 285.196 143.09 285.716 143.27C286.236 143.45 286.796 143.54 287.396 143.54C288.186 143.54 288.786 143.375 289.196 143.045C289.606 142.705 289.811 142.21 289.811 141.56C289.811 140.94 289.601 140.47 289.181 140.15C288.761 139.82 288.146 139.655 287.336 139.655H285.746V138.62H287.231C287.931 138.62 288.486 138.44 288.896 138.08C289.306 137.72 289.511 137.23 289.511 136.61C289.511 136.05 289.321 135.625 288.941 135.335C288.571 135.035 288.036 134.885 287.336 134.885C286.196 134.885 285.211 135.29 284.381 136.1L283.916 135.125C284.326 134.705 284.841 134.38 285.461 134.15C286.081 133.91 286.731 133.79 287.411 133.79C288.451 133.79 289.266 134.03 289.856 134.51C290.446 134.99 290.741 135.655 290.741 136.505C290.741 137.155 290.556 137.715 290.186 138.185C289.816 138.645 289.316 138.96 288.686 139.13V138.965C289.436 139.085 290.016 139.385 290.426 139.865C290.836 140.335 291.041 140.93 291.041 141.65C291.041 142.57 290.716 143.3 290.066 143.84C289.426 144.37 288.541 144.635 287.411 144.635ZM294.47 144.5V143.435H296.96V134.99H297.62L294.71 136.805V135.56L297.305 133.925H298.205V143.435H300.545V144.5H294.47ZM306.854 144.635C306.394 144.635 305.944 144.585 305.504 144.485C305.064 144.385 304.649 144.24 304.259 144.05C303.879 143.86 303.544 143.63 303.254 143.36L303.719 142.4C304.209 142.79 304.709 143.08 305.219 143.27C305.729 143.45 306.274 143.54 306.854 143.54C307.614 143.54 308.209 143.335 308.639 142.925C309.069 142.515 309.284 141.975 309.284 141.305C309.284 140.615 309.079 140.05 308.669 139.61C308.259 139.17 307.689 138.95 306.959 138.95C306.439 138.95 305.974 139.055 305.564 139.265C305.154 139.465 304.799 139.78 304.499 140.21H303.599V133.925H309.869V134.975H304.799V139.19H304.469C304.739 138.77 305.109 138.45 305.579 138.23C306.059 138 306.599 137.885 307.199 137.885C307.879 137.885 308.464 138.025 308.954 138.305C309.454 138.585 309.839 138.975 310.109 139.475C310.379 139.975 310.514 140.56 310.514 141.23C310.514 141.9 310.364 142.495 310.064 143.015C309.774 143.525 309.354 143.925 308.804 144.215C308.264 144.495 307.614 144.635 306.854 144.635ZM317.224 141.155V139.625H318.769V141.155H317.224ZM329.347 144.635C328.137 144.635 327.202 144.38 326.542 143.87C325.882 143.35 325.552 142.625 325.552 141.695C325.552 140.965 325.777 140.36 326.227 139.88C326.677 139.39 327.272 139.095 328.012 138.995V139.22C327.342 139.08 326.807 138.775 326.407 138.305C326.007 137.825 325.807 137.26 325.807 136.61C325.807 135.72 326.122 135.03 326.752 134.54C327.382 134.04 328.247 133.79 329.347 133.79C330.457 133.79 331.327 134.04 331.957 134.54C332.587 135.03 332.902 135.72 332.902 136.61C332.902 137.26 332.712 137.825 332.332 138.305C331.962 138.785 331.442 139.085 330.772 139.205V138.995C331.502 139.095 332.082 139.39 332.512 139.88C332.942 140.36 333.157 140.965 333.157 141.695C333.157 142.625 332.827 143.35 332.167 143.87C331.507 144.38 330.567 144.635 329.347 144.635ZM329.347 143.615C330.227 143.615 330.882 143.45 331.312 143.12C331.752 142.79 331.972 142.29 331.972 141.62C331.972 140.96 331.752 140.47 331.312 140.15C330.882 139.82 330.227 139.655 329.347 139.655C328.467 139.655 327.807 139.82 327.367 140.15C326.937 140.47 326.722 140.96 326.722 141.62C326.722 142.29 326.942 142.79 327.382 143.12C327.822 143.45 328.477 143.615 329.347 143.615ZM329.347 138.635C330.107 138.635 330.687 138.465 331.087 138.125C331.497 137.785 331.702 137.315 331.702 136.715C331.702 136.115 331.497 135.65 331.087 135.32C330.687 134.98 330.107 134.81 329.347 134.81C328.587 134.81 328.002 134.98 327.592 135.32C327.192 135.65 326.992 136.115 326.992 136.715C326.992 137.315 327.192 137.785 327.592 138.125C328.002 138.465 328.587 138.635 329.347 138.635ZM338.941 144.635C337.731 144.635 336.796 144.38 336.136 143.87C335.476 143.35 335.146 142.625 335.146 141.695C335.146 140.965 335.371 140.36 335.821 139.88C336.271 139.39 336.866 139.095 337.606 138.995V139.22C336.936 139.08 336.401 138.775 336.001 138.305C335.601 137.825 335.401 137.26 335.401 136.61C335.401 135.72 335.716 135.03 336.346 134.54C336.976 134.04 337.841 133.79 338.941 133.79C340.051 133.79 340.921 134.04 341.551 134.54C342.181 135.03 342.496 135.72 342.496 136.61C342.496 137.26 342.306 137.825 341.926 138.305C341.556 138.785 341.036 139.085 340.366 139.205V138.995C341.096 139.095 341.676 139.39 342.106 139.88C342.536 140.36 342.751 140.965 342.751 141.695C342.751 142.625 342.421 143.35 341.761 143.87C341.101 144.38 340.161 144.635 338.941 144.635ZM338.941 143.615C339.821 143.615 340.476 143.45 340.906 143.12C341.346 142.79 341.566 142.29 341.566 141.62C341.566 140.96 341.346 140.47 340.906 140.15C340.476 139.82 339.821 139.655 338.941 139.655C338.061 139.655 337.401 139.82 336.961 140.15C336.531 140.47 336.316 140.96 336.316 141.62C336.316 142.29 336.536 142.79 336.976 143.12C337.416 143.45 338.071 143.615 338.941 143.615ZM338.941 138.635C339.701 138.635 340.281 138.465 340.681 138.125C341.091 137.785 341.296 137.315 341.296 136.715C341.296 136.115 341.091 135.65 340.681 135.32C340.281 134.98 339.701 134.81 338.941 134.81C338.181 134.81 337.596 134.98 337.186 135.32C336.786 135.65 336.586 136.115 336.586 136.715C336.586 137.315 336.786 137.785 337.186 138.125C337.596 138.465 338.181 138.635 338.941 138.635ZM352.236 144.635C351.636 144.635 351.076 144.555 350.556 144.395C350.036 144.225 349.606 143.99 349.266 143.69L349.686 142.835C350.056 143.125 350.456 143.34 350.886 143.48C351.326 143.62 351.781 143.69 352.251 143.69C352.851 143.69 353.301 143.585 353.601 143.375C353.911 143.155 354.066 142.855 354.066 142.475C354.066 142.185 353.966 141.955 353.766 141.785C353.576 141.605 353.261 141.465 352.821 141.365L351.426 141.08C350.786 140.94 350.306 140.705 349.986 140.375C349.666 140.035 349.506 139.605 349.506 139.085C349.506 138.645 349.621 138.26 349.851 137.93C350.081 137.59 350.416 137.325 350.856 137.135C351.296 136.935 351.811 136.835 352.401 136.835C352.951 136.835 353.456 136.92 353.916 137.09C354.386 137.25 354.776 137.485 355.086 137.795L354.651 138.635C354.351 138.345 354.006 138.13 353.616 137.99C353.236 137.84 352.841 137.765 352.431 137.765C351.841 137.765 351.396 137.885 351.096 138.125C350.806 138.355 350.661 138.66 350.661 139.04C350.661 139.33 350.751 139.57 350.931 139.76C351.121 139.94 351.411 140.075 351.801 140.165L353.196 140.45C353.876 140.6 354.381 140.835 354.711 141.155C355.051 141.465 355.221 141.885 355.221 142.415C355.221 142.865 355.096 143.26 354.846 143.6C354.596 143.93 354.246 144.185 353.796 144.365C353.356 144.545 352.836 144.635 352.236 144.635ZM357.773 144.5V133.46H358.988V144.5H357.773ZM361.947 144.5V136.97H363.162V144.5H361.947ZM361.797 135.26V133.895H363.297V135.26H361.797ZM369.286 144.635C368.546 144.635 367.901 144.475 367.351 144.155C366.811 143.835 366.391 143.38 366.091 142.79C365.801 142.2 365.656 141.5 365.656 140.69C365.656 139.87 365.806 139.175 366.106 138.605C366.406 138.025 366.826 137.585 367.366 137.285C367.916 136.985 368.556 136.835 369.286 136.835C369.766 136.835 370.231 136.92 370.681 137.09C371.141 137.26 371.521 137.5 371.821 137.81L371.386 138.68C371.086 138.39 370.756 138.175 370.396 138.035C370.046 137.895 369.701 137.825 369.361 137.825C368.581 137.825 367.976 138.07 367.546 138.56C367.116 139.05 366.901 139.765 366.901 140.705C366.901 141.635 367.116 142.355 367.546 142.865C367.976 143.375 368.581 143.63 369.361 143.63C369.691 143.63 370.031 143.565 370.381 143.435C370.741 143.305 371.076 143.09 371.386 142.79L371.821 143.645C371.511 143.965 371.126 144.21 370.666 144.38C370.206 144.55 369.746 144.635 369.286 144.635ZM377.347 144.635C376.167 144.635 375.237 144.295 374.557 143.615C373.877 142.925 373.537 141.97 373.537 140.75C373.537 139.96 373.687 139.275 373.987 138.695C374.287 138.105 374.707 137.65 375.247 137.33C375.787 137 376.407 136.835 377.107 136.835C377.797 136.835 378.377 136.98 378.847 137.27C379.317 137.56 379.677 137.975 379.927 138.515C380.177 139.045 380.302 139.675 380.302 140.405V140.855H374.467V140.09H379.507L379.252 140.285C379.252 139.485 379.072 138.86 378.712 138.41C378.352 137.96 377.817 137.735 377.107 137.735C376.357 137.735 375.772 138 375.352 138.53C374.932 139.05 374.722 139.755 374.722 140.645V140.78C374.722 141.72 374.952 142.435 375.412 142.925C375.882 143.405 376.537 143.645 377.377 143.645C377.827 143.645 378.247 143.58 378.637 143.45C379.037 143.31 379.417 143.085 379.777 142.775L380.197 143.63C379.867 143.95 379.447 144.2 378.937 144.38C378.437 144.55 377.907 144.635 377.347 144.635ZM385.266 144.635C384.666 144.635 384.106 144.555 383.586 144.395C383.066 144.225 382.636 143.99 382.296 143.69L382.716 142.835C383.086 143.125 383.486 143.34 383.916 143.48C384.356 143.62 384.811 143.69 385.281 143.69C385.881 143.69 386.331 143.585 386.631 143.375C386.941 143.155 387.096 142.855 387.096 142.475C387.096 142.185 386.996 141.955 386.796 141.785C386.606 141.605 386.291 141.465 385.851 141.365L384.456 141.08C383.816 140.94 383.336 140.705 383.016 140.375C382.696 140.035 382.536 139.605 382.536 139.085C382.536 138.645 382.651 138.26 382.881 137.93C383.111 137.59 383.446 137.325 383.886 137.135C384.326 136.935 384.841 136.835 385.431 136.835C385.981 136.835 386.486 136.92 386.946 137.09C387.416 137.25 387.806 137.485 388.116 137.795L387.681 138.635C387.381 138.345 387.036 138.13 386.646 137.99C386.266 137.84 385.871 137.765 385.461 137.765C384.871 137.765 384.426 137.885 384.126 138.125C383.836 138.355 383.691 138.66 383.691 139.04C383.691 139.33 383.781 139.57 383.961 139.76C384.151 139.94 384.441 140.075 384.831 140.165L386.226 140.45C386.906 140.6 387.411 140.835 387.741 141.155C388.081 141.465 388.251 141.885 388.251 142.415C388.251 142.865 388.126 143.26 387.876 143.6C387.626 143.93 387.276 144.185 386.826 144.365C386.386 144.545 385.866 144.635 385.266 144.635Z" fill="black"/>
<g filter="url(#filter0_d_580_359)">
<rect x="477" y="107" width="76" height="36" rx="6" fill="white" fill-opacity="0.12" shape-rendering="crispEdges"/>
<rect x="477.3" y="107.3" width="75.4" height="35.4" rx="5.7" stroke="#00ADB5" stroke-width="0.6" shape-rendering="crispEdges"/>
<path d="M498.408 131V119.72H499.448L506.68 129.32H506.312V119.72H507.544V131H506.52L499.288 121.4H499.64V131H498.408ZM514.425 131.144C513.166 131.144 512.174 130.781 511.449 130.056C510.724 129.32 510.361 128.301 510.361 127C510.361 126.157 510.521 125.427 510.841 124.808C511.161 124.179 511.609 123.693 512.185 123.352C512.761 123 513.422 122.824 514.169 122.824C514.905 122.824 515.524 122.979 516.025 123.288C516.526 123.597 516.91 124.04 517.177 124.616C517.444 125.181 517.577 125.853 517.577 126.632V127.112H511.353V126.296H516.729L516.457 126.504C516.457 125.651 516.265 124.984 515.881 124.504C515.497 124.024 514.926 123.784 514.169 123.784C513.369 123.784 512.745 124.067 512.297 124.632C511.849 125.187 511.625 125.939 511.625 126.888V127.032C511.625 128.035 511.87 128.797 512.361 129.32C512.862 129.832 513.561 130.088 514.457 130.088C514.937 130.088 515.385 130.019 515.801 129.88C516.228 129.731 516.633 129.491 517.017 129.16L517.465 130.072C517.113 130.413 516.665 130.68 516.121 130.872C515.588 131.053 515.022 131.144 514.425 131.144ZM522.251 131L519.275 122.968H520.651L523.131 130.04H522.715L525.275 122.968H526.395L528.907 130.04H528.507L531.003 122.968H532.315L529.323 131H528.075L525.483 123.816H526.123L523.515 131H522.251Z" fill="#00ADB5"/>
</g>
<rect x="143" y="184" width="426" height="94" rx="10" fill="white" fill-opacity="0.2"/>
<rect x="159" y="196" width="70" height="70" rx="10" fill="#C7D6DE"/>
<path d="M355 230.5H245V205.5H355V230.5Z" stroke="black"/>
<path d="M246.58 225.5V211.4H248.84L254.02 223.06H253.4L258.58 211.4H260.82V225.5H258.48V215.04H259.2L254.46 225.5H252.92L248.18 215.04H248.92V225.5H246.58ZM264.362 225.5V211.4H270.522C272.069 211.4 273.262 211.767 274.102 212.5C274.956 213.233 275.382 214.253 275.382 215.56C275.382 216.427 275.189 217.167 274.802 217.78C274.429 218.393 273.889 218.867 273.182 219.2C272.476 219.52 271.642 219.68 270.682 219.68L270.962 219.3H271.642C272.202 219.3 272.702 219.447 273.142 219.74C273.582 220.033 273.942 220.48 274.222 221.08L276.282 225.5H273.442L271.362 220.92C271.176 220.453 270.889 220.147 270.502 220C270.129 219.853 269.676 219.78 269.142 219.78H266.942V225.5H264.362ZM266.942 217.88H270.102C271.009 217.88 271.696 217.693 272.162 217.32C272.642 216.933 272.882 216.373 272.882 215.64C272.882 214.907 272.642 214.353 272.162 213.98C271.696 213.607 271.009 213.42 270.102 213.42H266.942V217.88ZM278.805 225.5V211.4H281.385V225.5H278.805ZM290.777 225.5V211.4H296.957C298.491 211.4 299.671 211.727 300.497 212.38C301.324 213.02 301.737 213.913 301.737 215.06C301.737 215.913 301.484 216.633 300.977 217.22C300.471 217.807 299.771 218.2 298.877 218.4V218.1C299.904 218.247 300.697 218.62 301.257 219.22C301.831 219.807 302.117 220.587 302.117 221.56C302.117 222.813 301.684 223.787 300.817 224.48C299.951 225.16 298.744 225.5 297.197 225.5H290.777ZM293.257 223.54H296.897C297.764 223.54 298.437 223.38 298.917 223.06C299.397 222.727 299.637 222.187 299.637 221.44C299.637 220.68 299.397 220.14 298.917 219.82C298.437 219.487 297.764 219.32 296.897 219.32H293.257V223.54ZM293.257 217.38H296.517C297.437 217.38 298.117 217.213 298.557 216.88C299.011 216.533 299.237 216.027 299.237 215.36C299.237 214.693 299.011 214.193 298.557 213.86C298.117 213.513 297.437 213.34 296.517 213.34H293.257V217.38ZM304.986 225.5V211.4H311.146C312.692 211.4 313.886 211.767 314.726 212.5C315.579 213.233 316.006 214.253 316.006 215.56C316.006 216.427 315.812 217.167 315.426 217.78C315.052 218.393 314.512 218.867 313.806 219.2C313.099 219.52 312.266 219.68 311.306 219.68L311.586 219.3H312.266C312.826 219.3 313.326 219.447 313.766 219.74C314.206 220.033 314.566 220.48 314.846 221.08L316.906 225.5H314.066L311.986 220.92C311.799 220.453 311.512 220.147 311.126 220C310.752 219.853 310.299 219.78 309.766 219.78H307.566V225.5H304.986ZM307.566 217.88H310.726C311.632 217.88 312.319 217.693 312.786 217.32C313.266 216.933 313.506 216.373 313.506 215.64C313.506 214.907 313.266 214.353 312.786 213.98C312.319 213.607 311.632 213.42 310.726 213.42H307.566V217.88ZM317.615 225.5L323.995 211.4H326.155L332.615 225.5H329.995L328.275 221.54L329.315 222.24H320.855L321.935 221.54L320.215 225.5H317.615ZM325.055 214.16L322.235 220.84L321.715 220.22H328.435L328.015 220.84L325.135 214.16H325.055ZM334.575 225.5V211.4H337.155V225.5H334.575ZM340.658 225.5V211.4H342.598L350.778 221.98H350.258V211.4H352.658V225.5H350.718L342.558 214.92H343.058V225.5H340.658Z" fill="black"/>
<path d="M246.29 250.5V249.57L250.04 245.655C250.53 245.145 250.895 244.66 251.135 244.2C251.385 243.73 251.51 243.245 251.51 242.745C251.51 242.135 251.32 241.675 250.94 241.365C250.56 241.045 250.01 240.885 249.29 240.885C248.73 240.885 248.21 240.985 247.73 241.185C247.26 241.375 246.805 241.68 246.365 242.1L245.915 241.125C246.315 240.725 246.825 240.405 247.445 240.165C248.065 239.915 248.72 239.79 249.41 239.79C250.48 239.79 251.305 240.04 251.885 240.54C252.465 241.03 252.755 241.73 252.755 242.64C252.755 243.31 252.59 243.95 252.26 244.56C251.94 245.16 251.47 245.78 250.85 246.42L247.535 249.78V249.435H253.205V250.5H246.29ZM259.094 250.635C257.894 250.635 256.974 250.17 256.334 249.24C255.694 248.31 255.374 246.965 255.374 245.205C255.374 243.435 255.694 242.09 256.334 241.17C256.974 240.25 257.894 239.79 259.094 239.79C260.304 239.79 261.224 240.25 261.854 241.17C262.494 242.09 262.814 243.43 262.814 245.19C262.814 246.96 262.494 248.31 261.854 249.24C261.214 250.17 260.294 250.635 259.094 250.635ZM259.094 249.555C259.934 249.555 260.559 249.2 260.969 248.49C261.379 247.78 261.584 246.68 261.584 245.19C261.584 243.69 261.379 242.595 260.969 241.905C260.559 241.205 259.934 240.855 259.094 240.855C258.264 240.855 257.639 241.205 257.219 241.905C256.809 242.605 256.604 243.7 256.604 245.19C256.604 246.68 256.809 247.78 257.219 248.49C257.639 249.2 258.264 249.555 259.094 249.555ZM265.478 250.5V249.57L269.228 245.655C269.718 245.145 270.083 244.66 270.323 244.2C270.573 243.73 270.698 243.245 270.698 242.745C270.698 242.135 270.508 241.675 270.128 241.365C269.748 241.045 269.198 240.885 268.478 240.885C267.918 240.885 267.398 240.985 266.918 241.185C266.448 241.375 265.993 241.68 265.553 242.1L265.103 241.125C265.503 240.725 266.013 240.405 266.633 240.165C267.253 239.915 267.908 239.79 268.598 239.79C269.668 239.79 270.493 240.04 271.073 240.54C271.653 241.03 271.943 241.73 271.943 242.64C271.943 243.31 271.778 243.95 271.448 244.56C271.128 245.16 270.658 245.78 270.038 246.42L266.723 249.78V249.435H272.393V250.5H265.478ZM278.627 250.635C277.347 250.635 276.357 250.185 275.657 249.285C274.967 248.375 274.622 247.105 274.622 245.475C274.622 244.255 274.797 243.225 275.147 242.385C275.497 241.535 275.997 240.89 276.647 240.45C277.297 240.01 278.082 239.79 279.002 239.79C279.552 239.79 280.107 239.905 280.667 240.135C281.227 240.355 281.687 240.665 282.047 241.065L281.597 242.025C281.217 241.635 280.802 241.35 280.352 241.17C279.902 240.98 279.447 240.885 278.987 240.885C277.967 240.885 277.182 241.25 276.632 241.98C276.092 242.7 275.822 243.785 275.822 245.235V246.63H275.687C275.757 246.06 275.927 245.57 276.197 245.16C276.477 244.74 276.842 244.42 277.292 244.2C277.742 243.98 278.242 243.87 278.792 243.87C279.432 243.87 279.997 244.01 280.487 244.29C280.977 244.57 281.362 244.965 281.642 245.475C281.922 245.975 282.062 246.55 282.062 247.2C282.062 247.86 281.917 248.45 281.627 248.97C281.337 249.49 280.932 249.9 280.412 250.2C279.892 250.49 279.297 250.635 278.627 250.635ZM278.537 249.585C278.997 249.585 279.402 249.49 279.752 249.3C280.112 249.1 280.387 248.825 280.577 248.475C280.777 248.115 280.877 247.705 280.877 247.245C280.877 246.785 280.777 246.38 280.577 246.03C280.387 245.68 280.112 245.405 279.752 245.205C279.402 245.005 278.997 244.905 278.537 244.905C278.077 244.905 277.672 245.005 277.322 245.205C276.972 245.405 276.697 245.68 276.497 246.03C276.307 246.38 276.212 246.785 276.212 247.245C276.212 247.705 276.307 248.115 276.497 248.475C276.697 248.825 276.972 249.1 277.322 249.3C277.672 249.49 278.077 249.585 278.537 249.585ZM287.877 250.635C286.677 250.635 285.757 250.17 285.117 249.24C284.477 248.31 284.157 246.965 284.157 245.205C284.157 243.435 284.477 242.09 285.117 241.17C285.757 240.25 286.677 239.79 287.877 239.79C289.087 239.79 290.007 240.25 290.637 241.17C291.277 242.09 291.597 243.43 291.597 245.19C291.597 246.96 291.277 248.31 290.637 249.24C289.997 250.17 289.077 250.635 287.877 250.635ZM287.877 249.555C288.717 249.555 289.342 249.2 289.752 248.49C290.162 247.78 290.367 246.68 290.367 245.19C290.367 243.69 290.162 242.595 289.752 241.905C289.342 241.205 288.717 240.855 287.877 240.855C287.047 240.855 286.422 241.205 286.002 241.905C285.592 242.605 285.387 243.7 285.387 245.19C285.387 246.68 285.592 247.78 286.002 248.49C286.422 249.2 287.047 249.555 287.877 249.555ZM297.411 250.635C296.701 250.635 296.021 250.525 295.371 250.305C294.721 250.085 294.176 249.77 293.736 249.36L294.201 248.4C294.691 248.8 295.196 249.09 295.716 249.27C296.236 249.45 296.796 249.54 297.396 249.54C298.186 249.54 298.786 249.375 299.196 249.045C299.606 248.705 299.811 248.21 299.811 247.56C299.811 246.94 299.601 246.47 299.181 246.15C298.761 245.82 298.146 245.655 297.336 245.655H295.746V244.62H297.231C297.931 244.62 298.486 244.44 298.896 244.08C299.306 243.72 299.511 243.23 299.511 242.61C299.511 242.05 299.321 241.625 298.941 241.335C298.571 241.035 298.036 240.885 297.336 240.885C296.196 240.885 295.211 241.29 294.381 242.1L293.916 241.125C294.326 240.705 294.841 240.38 295.461 240.15C296.081 239.91 296.731 239.79 297.411 239.79C298.451 239.79 299.266 240.03 299.856 240.51C300.446 240.99 300.741 241.655 300.741 242.505C300.741 243.155 300.556 243.715 300.186 244.185C299.816 244.645 299.316 244.96 298.686 245.13V244.965C299.436 245.085 300.016 245.385 300.426 245.865C300.836 246.335 301.041 246.93 301.041 247.65C301.041 248.57 300.716 249.3 300.066 249.84C299.426 250.37 298.541 250.635 297.411 250.635ZM304.47 250.5V249.435H306.96V240.99H307.62L304.71 242.805V241.56L307.305 239.925H308.205V249.435H310.545V250.5H304.47ZM317.949 250.5V248.205H312.909V247.305L318.144 239.925H319.164V247.2H320.784V248.205H319.164V250.5H317.949ZM317.949 247.2V241.395H318.279L313.929 247.515V247.2H317.949ZM327.224 247.155V245.625H328.769V247.155H327.224ZM336.752 250.5V249.435H339.242V240.99H339.902L336.992 242.805V241.56L339.587 239.925H340.487V249.435H342.827V250.5H336.752ZM345.731 250.5V249.57L349.481 245.655C349.971 245.145 350.336 244.66 350.576 244.2C350.826 243.73 350.951 243.245 350.951 242.745C350.951 242.135 350.761 241.675 350.381 241.365C350.001 241.045 349.451 240.885 348.731 240.885C348.171 240.885 347.651 240.985 347.171 241.185C346.701 241.375 346.246 241.68 345.806 242.1L345.356 241.125C345.756 240.725 346.266 240.405 346.886 240.165C347.506 239.915 348.161 239.79 348.851 239.79C349.921 239.79 350.746 240.04 351.326 240.54C351.906 241.03 352.196 241.73 352.196 242.64C352.196 243.31 352.031 243.95 351.701 244.56C351.381 245.16 350.911 245.78 350.291 246.42L346.976 249.78V249.435H352.646V250.5H345.731ZM359.825 250.5V248.205H354.785V247.305L360.02 239.925H361.04V247.2H362.66V248.205H361.04V250.5H359.825ZM359.825 247.2V241.395H360.155L355.805 247.515V247.2H359.825ZM371.831 250.635C371.231 250.635 370.671 250.555 370.151 250.395C369.631 250.225 369.201 249.99 368.861 249.69L369.281 248.835C369.651 249.125 370.051 249.34 370.481 249.48C370.921 249.62 371.376 249.69 371.846 249.69C372.446 249.69 372.896 249.585 373.196 249.375C373.506 249.155 373.661 248.855 373.661 248.475C373.661 248.185 373.561 247.955 373.361 247.785C373.171 247.605 372.856 247.465 372.416 247.365L371.021 247.08C370.381 246.94 369.901 246.705 369.581 246.375C369.261 246.035 369.101 245.605 369.101 245.085C369.101 244.645 369.216 244.26 369.446 243.93C369.676 243.59 370.011 243.325 370.451 243.135C370.891 242.935 371.406 242.835 371.996 242.835C372.546 242.835 373.051 242.92 373.511 243.09C373.981 243.25 374.371 243.485 374.681 243.795L374.246 244.635C373.946 244.345 373.601 244.13 373.211 243.99C372.831 243.84 372.436 243.765 372.026 243.765C371.436 243.765 370.991 243.885 370.691 244.125C370.401 244.355 370.256 244.66 370.256 245.04C370.256 245.33 370.346 245.57 370.526 245.76C370.716 245.94 371.006 246.075 371.396 246.165L372.791 246.45C373.471 246.6 373.976 246.835 374.306 247.155C374.646 247.465 374.816 247.885 374.816 248.415C374.816 248.865 374.691 249.26 374.441 249.6C374.191 249.93 373.841 250.185 373.391 250.365C372.951 250.545 372.431 250.635 371.831 250.635ZM377.367 250.5V239.46H378.582V250.5H377.367ZM381.541 250.5V242.97H382.756V250.5H381.541ZM381.391 241.26V239.895H382.891V241.26H381.391ZM388.88 250.635C388.14 250.635 387.495 250.475 386.945 250.155C386.405 249.835 385.985 249.38 385.685 248.79C385.395 248.2 385.25 247.5 385.25 246.69C385.25 245.87 385.4 245.175 385.7 244.605C386 244.025 386.42 243.585 386.96 243.285C387.51 242.985 388.15 242.835 388.88 242.835C389.36 242.835 389.825 242.92 390.275 243.09C390.735 243.26 391.115 243.5 391.415 243.81L390.98 244.68C390.68 244.39 390.35 244.175 389.99 244.035C389.64 243.895 389.295 243.825 388.955 243.825C388.175 243.825 387.57 244.07 387.14 244.56C386.71 245.05 386.495 245.765 386.495 246.705C386.495 247.635 386.71 248.355 387.14 248.865C387.57 249.375 388.175 249.63 388.955 249.63C389.285 249.63 389.625 249.565 389.975 249.435C390.335 249.305 390.67 249.09 390.98 248.79L391.415 249.645C391.105 249.965 390.72 250.21 390.26 250.38C389.8 250.55 389.34 250.635 388.88 250.635ZM396.941 250.635C395.761 250.635 394.831 250.295 394.151 249.615C393.471 248.925 393.131 247.97 393.131 246.75C393.131 245.96 393.281 245.275 393.581 244.695C393.881 244.105 394.301 243.65 394.841 243.33C395.381 243 396.001 242.835 396.701 242.835C397.391 242.835 397.971 242.98 398.441 243.27C398.911 243.56 399.271 243.975 399.521 244.515C399.771 245.045 399.896 245.675 399.896 246.405V246.855H394.061V246.09H399.101L398.846 246.285C398.846 245.485 398.666 244.86 398.306 244.41C397.946 243.96 397.411 243.735 396.701 243.735C395.951 243.735 395.366 244 394.946 244.53C394.526 245.05 394.316 245.755 394.316 246.645V246.78C394.316 247.72 394.546 248.435 395.006 248.925C395.476 249.405 396.131 249.645 396.971 249.645C397.421 249.645 397.841 249.58 398.231 249.45C398.631 249.31 399.011 249.085 399.371 248.775L399.791 249.63C399.461 249.95 399.041 250.2 398.531 250.38C398.031 250.55 397.501 250.635 396.941 250.635ZM404.86 250.635C404.26 250.635 403.7 250.555 403.18 250.395C402.66 250.225 402.23 249.99 401.89 249.69L402.31 248.835C402.68 249.125 403.08 249.34 403.51 249.48C403.95 249.62 404.405 249.69 404.875 249.69C405.475 249.69 405.925 249.585 406.225 249.375C406.535 249.155 406.69 248.855 406.69 248.475C406.69 248.185 406.59 247.955 406.39 247.785C406.2 247.605 405.885 247.465 405.445 247.365L404.05 247.08C403.41 246.94 402.93 246.705 402.61 246.375C402.29 246.035 402.13 245.605 402.13 245.085C402.13 244.645 402.245 244.26 402.475 243.93C402.705 243.59 403.04 243.325 403.48 243.135C403.92 242.935 404.435 242.835 405.025 242.835C405.575 242.835 406.08 242.92 406.54 243.09C407.01 243.25 407.4 243.485 407.71 243.795L407.275 244.635C406.975 244.345 406.63 244.13 406.24 243.99C405.86 243.84 405.465 243.765 405.055 243.765C404.465 243.765 404.02 243.885 403.72 244.125C403.43 244.355 403.285 244.66 403.285 245.04C403.285 245.33 403.375 245.57 403.555 245.76C403.745 245.94 404.035 246.075 404.425 246.165L405.82 246.45C406.5 246.6 407.005 246.835 407.335 247.155C407.675 247.465 407.845 247.885 407.845 248.415C407.845 248.865 407.72 249.26 407.47 249.6C407.22 249.93 406.87 250.185 406.42 250.365C405.98 250.545 405.46 250.635 404.86 250.635Z" fill="black"/>
<rect x="143" y="290" width="426" height="94" rx="10" fill="white" fill-opacity="0.2"/>
<rect x="159" y="302" width="70" height="70" rx="10" fill="#C7D6DE"/>
<path d="M385 336.5H245V311.5H385V336.5Z" stroke="black"/>
<path d="M253.12 331.7C251.653 331.7 250.393 331.407 249.34 330.82C248.3 330.22 247.5 329.38 246.94 328.3C246.38 327.207 246.1 325.92 246.1 324.44C246.1 322.96 246.38 321.68 246.94 320.6C247.5 319.52 248.3 318.687 249.34 318.1C250.393 317.5 251.653 317.2 253.12 317.2C254.107 317.2 254.993 317.34 255.78 317.62C256.58 317.9 257.267 318.313 257.84 318.86L257 320.9C256.373 320.393 255.767 320.033 255.18 319.82C254.607 319.593 253.947 319.48 253.2 319.48C251.773 319.48 250.68 319.913 249.92 320.78C249.173 321.633 248.8 322.853 248.8 324.44C248.8 326.027 249.173 327.253 249.92 328.12C250.68 328.987 251.773 329.42 253.2 329.42C253.947 329.42 254.607 329.313 255.18 329.1C255.767 328.873 256.373 328.5 257 327.98L257.84 330.02C257.267 330.553 256.58 330.967 255.78 331.26C254.993 331.553 254.107 331.7 253.12 331.7ZM263.776 331.5V319.52H259.116V317.4H271.016V319.52H266.356V331.5H263.776ZM277.567 331.5L283.947 317.4H286.107L292.567 331.5H289.947L288.227 327.54L289.267 328.24H280.807L281.887 327.54L280.167 331.5H277.567ZM285.007 320.16L282.187 326.84L281.667 326.22H288.387L287.967 326.84L285.087 320.16H285.007ZM294.527 331.5V317.4H300.707C302.241 317.4 303.421 317.727 304.247 318.38C305.074 319.02 305.487 319.913 305.487 321.06C305.487 321.913 305.234 322.633 304.727 323.22C304.221 323.807 303.521 324.2 302.627 324.4V324.1C303.654 324.247 304.447 324.62 305.007 325.22C305.581 325.807 305.867 326.587 305.867 327.56C305.867 328.813 305.434 329.787 304.567 330.48C303.701 331.16 302.494 331.5 300.947 331.5H294.527ZM297.007 329.54H300.647C301.514 329.54 302.187 329.38 302.667 329.06C303.147 328.727 303.387 328.187 303.387 327.44C303.387 326.68 303.147 326.14 302.667 325.82C302.187 325.487 301.514 325.32 300.647 325.32H297.007V329.54ZM297.007 323.38H300.267C301.187 323.38 301.867 323.213 302.307 322.88C302.761 322.533 302.987 322.027 302.987 321.36C302.987 320.693 302.761 320.193 302.307 319.86C301.867 319.513 301.187 319.34 300.267 319.34H297.007V323.38ZM308.736 331.5V317.4H313.856C315.469 317.4 316.829 317.68 317.936 318.24C319.056 318.787 319.902 319.587 320.476 320.64C321.049 321.68 321.336 322.947 321.336 324.44C321.336 325.92 321.049 327.187 320.476 328.24C319.902 329.293 319.056 330.1 317.936 330.66C316.829 331.22 315.469 331.5 313.856 331.5H308.736ZM311.316 329.36H313.696C315.402 329.36 316.669 328.953 317.496 328.14C318.322 327.327 318.736 326.093 318.736 324.44C318.736 322.773 318.322 321.54 317.496 320.74C316.669 319.927 315.402 319.52 313.696 319.52H311.316V329.36ZM323.91 324.44C323.91 322.96 324.177 321.68 324.71 320.6C325.257 319.52 326.037 318.687 327.05 318.1C328.063 317.5 329.27 317.2 330.67 317.2C332.057 317.2 333.257 317.5 334.27 318.1C335.283 318.687 336.063 319.52 336.61 320.6C337.17 321.68 337.45 322.953 337.45 324.42C337.45 325.9 337.17 327.187 336.61 328.28C336.063 329.36 335.283 330.2 334.27 330.8C333.257 331.4 332.057 331.7 330.67 331.7C329.27 331.7 328.063 331.4 327.05 330.8C326.05 330.2 325.277 329.36 324.73 328.28C324.183 327.187 323.91 325.907 323.91 324.44ZM326.61 324.44C326.61 326.027 326.95 327.267 327.63 328.16C328.31 329.053 329.323 329.5 330.67 329.5C331.977 329.5 332.983 329.053 333.69 328.16C334.397 327.267 334.75 326.027 334.75 324.44C334.75 322.84 334.397 321.6 333.69 320.72C332.997 319.84 331.99 319.4 330.67 319.4C329.323 319.4 328.31 319.84 327.63 320.72C326.95 321.6 326.61 322.84 326.61 324.44ZM340.532 331.5V317.4H342.792L347.972 329.06H347.352L352.532 317.4H354.772V331.5H352.432V321.04H353.152L348.412 331.5H346.872L342.132 321.04H342.872V331.5H340.532ZM358.315 331.5V317.4H367.815V319.42H360.795V323.32H367.355V325.36H360.795V329.46H367.815V331.5H358.315ZM370.609 331.5V317.4H372.549L380.729 327.98H380.209V317.4H382.609V331.5H380.669L372.509 320.92H373.009V331.5H370.609Z" fill="black"/>
<path d="M246.29 356.5V355.57L250.04 351.655C250.53 351.145 250.895 350.66 251.135 350.2C251.385 349.73 251.51 349.245 251.51 348.745C251.51 348.135 251.32 347.675 250.94 347.365C250.56 347.045 250.01 346.885 249.29 346.885C248.73 346.885 248.21 346.985 247.73 347.185C247.26 347.375 246.805 347.68 246.365 348.1L245.915 347.125C246.315 346.725 246.825 346.405 247.445 346.165C248.065 345.915 248.72 345.79 249.41 345.79C250.48 345.79 251.305 346.04 251.885 346.54C252.465 347.03 252.755 347.73 252.755 348.64C252.755 349.31 252.59 349.95 252.26 350.56C251.94 351.16 251.47 351.78 250.85 352.42L247.535 355.78V355.435H253.205V356.5H246.29ZM259.094 356.635C257.894 356.635 256.974 356.17 256.334 355.24C255.694 354.31 255.374 352.965 255.374 351.205C255.374 349.435 255.694 348.09 256.334 347.17C256.974 346.25 257.894 345.79 259.094 345.79C260.304 345.79 261.224 346.25 261.854 347.17C262.494 348.09 262.814 349.43 262.814 351.19C262.814 352.96 262.494 354.31 261.854 355.24C261.214 356.17 260.294 356.635 259.094 356.635ZM259.094 355.555C259.934 355.555 260.559 355.2 260.969 354.49C261.379 353.78 261.584 352.68 261.584 351.19C261.584 349.69 261.379 348.595 260.969 347.905C260.559 347.205 259.934 346.855 259.094 346.855C258.264 346.855 257.639 347.205 257.219 347.905C256.809 348.605 256.604 349.7 256.604 351.19C256.604 352.68 256.809 353.78 257.219 354.49C257.639 355.2 258.264 355.555 259.094 355.555ZM265.478 356.5V355.57L269.228 351.655C269.718 351.145 270.083 350.66 270.323 350.2C270.573 349.73 270.698 349.245 270.698 348.745C270.698 348.135 270.508 347.675 270.128 347.365C269.748 347.045 269.198 346.885 268.478 346.885C267.918 346.885 267.398 346.985 266.918 347.185C266.448 347.375 265.993 347.68 265.553 348.1L265.103 347.125C265.503 346.725 266.013 346.405 266.633 346.165C267.253 345.915 267.908 345.79 268.598 345.79C269.668 345.79 270.493 346.04 271.073 346.54C271.653 347.03 271.943 347.73 271.943 348.64C271.943 349.31 271.778 349.95 271.448 350.56C271.128 351.16 270.658 351.78 270.038 352.42L266.723 355.78V355.435H272.393V356.5H265.478ZM278.627 356.635C277.347 356.635 276.357 356.185 275.657 355.285C274.967 354.375 274.622 353.105 274.622 351.475C274.622 350.255 274.797 349.225 275.147 348.385C275.497 347.535 275.997 346.89 276.647 346.45C277.297 346.01 278.082 345.79 279.002 345.79C279.552 345.79 280.107 345.905 280.667 346.135C281.227 346.355 281.687 346.665 282.047 347.065L281.597 348.025C281.217 347.635 280.802 347.35 280.352 347.17C279.902 346.98 279.447 346.885 278.987 346.885C277.967 346.885 277.182 347.25 276.632 347.98C276.092 348.7 275.822 349.785 275.822 351.235V352.63H275.687C275.757 352.06 275.927 351.57 276.197 351.16C276.477 350.74 276.842 350.42 277.292 350.2C277.742 349.98 278.242 349.87 278.792 349.87C279.432 349.87 279.997 350.01 280.487 350.29C280.977 350.57 281.362 350.965 281.642 351.475C281.922 351.975 282.062 352.55 282.062 353.2C282.062 353.86 281.917 354.45 281.627 354.97C281.337 355.49 280.932 355.9 280.412 356.2C279.892 356.49 279.297 356.635 278.627 356.635ZM278.537 355.585C278.997 355.585 279.402 355.49 279.752 355.3C280.112 355.1 280.387 354.825 280.577 354.475C280.777 354.115 280.877 353.705 280.877 353.245C280.877 352.785 280.777 352.38 280.577 352.03C280.387 351.68 280.112 351.405 279.752 351.205C279.402 351.005 278.997 350.905 278.537 350.905C278.077 350.905 277.672 351.005 277.322 351.205C276.972 351.405 276.697 351.68 276.497 352.03C276.307 352.38 276.212 352.785 276.212 353.245C276.212 353.705 276.307 354.115 276.497 354.475C276.697 354.825 276.972 355.1 277.322 355.3C277.672 355.49 278.077 355.585 278.537 355.585ZM287.877 356.635C286.677 356.635 285.757 356.17 285.117 355.24C284.477 354.31 284.157 352.965 284.157 351.205C284.157 349.435 284.477 348.09 285.117 347.17C285.757 346.25 286.677 345.79 287.877 345.79C289.087 345.79 290.007 346.25 290.637 347.17C291.277 348.09 291.597 349.43 291.597 351.19C291.597 352.96 291.277 354.31 290.637 355.24C289.997 356.17 289.077 356.635 287.877 356.635ZM287.877 355.555C288.717 355.555 289.342 355.2 289.752 354.49C290.162 353.78 290.367 352.68 290.367 351.19C290.367 349.69 290.162 348.595 289.752 347.905C289.342 347.205 288.717 346.855 287.877 346.855C287.047 346.855 286.422 347.205 286.002 347.905C285.592 348.605 285.387 349.7 285.387 351.19C285.387 352.68 285.592 353.78 286.002 354.49C286.422 355.2 287.047 355.555 287.877 355.555ZM297.411 356.635C296.701 356.635 296.021 356.525 295.371 356.305C294.721 356.085 294.176 355.77 293.736 355.36L294.201 354.4C294.691 354.8 295.196 355.09 295.716 355.27C296.236 355.45 296.796 355.54 297.396 355.54C298.186 355.54 298.786 355.375 299.196 355.045C299.606 354.705 299.811 354.21 299.811 353.56C299.811 352.94 299.601 352.47 299.181 352.15C298.761 351.82 298.146 351.655 297.336 351.655H295.746V350.62H297.231C297.931 350.62 298.486 350.44 298.896 350.08C299.306 349.72 299.511 349.23 299.511 348.61C299.511 348.05 299.321 347.625 298.941 347.335C298.571 347.035 298.036 346.885 297.336 346.885C296.196 346.885 295.211 347.29 294.381 348.1L293.916 347.125C294.326 346.705 294.841 346.38 295.461 346.15C296.081 345.91 296.731 345.79 297.411 345.79C298.451 345.79 299.266 346.03 299.856 346.51C300.446 346.99 300.741 347.655 300.741 348.505C300.741 349.155 300.556 349.715 300.186 350.185C299.816 350.645 299.316 350.96 298.686 351.13V350.965C299.436 351.085 300.016 351.385 300.426 351.865C300.836 352.335 301.041 352.93 301.041 353.65C301.041 354.57 300.716 355.3 300.066 355.84C299.426 356.37 298.541 356.635 297.411 356.635ZM304.47 356.5V355.435H306.96V346.99H307.62L304.71 348.805V347.56L307.305 345.925H308.205V355.435H310.545V356.5H304.47ZM316.599 356.635C315.889 356.635 315.209 356.525 314.559 356.305C313.909 356.085 313.364 355.77 312.924 355.36L313.389 354.4C313.879 354.8 314.384 355.09 314.904 355.27C315.424 355.45 315.984 355.54 316.584 355.54C317.374 355.54 317.974 355.375 318.384 355.045C318.794 354.705 318.999 354.21 318.999 353.56C318.999 352.94 318.789 352.47 318.369 352.15C317.949 351.82 317.334 351.655 316.524 351.655H314.934V350.62H316.419C317.119 350.62 317.674 350.44 318.084 350.08C318.494 349.72 318.699 349.23 318.699 348.61C318.699 348.05 318.509 347.625 318.129 347.335C317.759 347.035 317.224 346.885 316.524 346.885C315.384 346.885 314.399 347.29 313.569 348.1L313.104 347.125C313.514 346.705 314.029 346.38 314.649 346.15C315.269 345.91 315.919 345.79 316.599 345.79C317.639 345.79 318.454 346.03 319.044 346.51C319.634 346.99 319.929 347.655 319.929 348.505C319.929 349.155 319.744 349.715 319.374 350.185C319.004 350.645 318.504 350.96 317.874 351.13V350.965C318.624 351.085 319.204 351.385 319.614 351.865C320.024 352.335 320.229 352.93 320.229 353.65C320.229 354.57 319.904 355.3 319.254 355.84C318.614 356.37 317.729 356.635 316.599 356.635ZM327.224 353.155V351.625H328.769V353.155H327.224ZM336.137 356.5V355.57L339.887 351.655C340.377 351.145 340.742 350.66 340.982 350.2C341.232 349.73 341.357 349.245 341.357 348.745C341.357 348.135 341.167 347.675 340.787 347.365C340.407 347.045 339.857 346.885 339.137 346.885C338.577 346.885 338.057 346.985 337.577 347.185C337.107 347.375 336.652 347.68 336.212 348.1L335.762 347.125C336.162 346.725 336.672 346.405 337.292 346.165C337.912 345.915 338.567 345.79 339.257 345.79C340.327 345.79 341.152 346.04 341.732 346.54C342.312 347.03 342.602 347.73 342.602 348.64C342.602 349.31 342.437 349.95 342.107 350.56C341.787 351.16 341.317 351.78 340.697 352.42L337.382 355.78V355.435H343.052V356.5H336.137ZM346.346 356.5V355.435H348.836V346.99H349.496L346.586 348.805V347.56L349.181 345.925H350.081V355.435H352.421V356.5H346.346ZM358.535 356.635C357.335 356.635 356.415 356.17 355.775 355.24C355.135 354.31 354.815 352.965 354.815 351.205C354.815 349.435 355.135 348.09 355.775 347.17C356.415 346.25 357.335 345.79 358.535 345.79C359.745 345.79 360.665 346.25 361.295 347.17C361.935 348.09 362.255 349.43 362.255 351.19C362.255 352.96 361.935 354.31 361.295 355.24C360.655 356.17 359.735 356.635 358.535 356.635ZM358.535 355.555C359.375 355.555 360 355.2 360.41 354.49C360.82 353.78 361.025 352.68 361.025 351.19C361.025 349.69 360.82 348.595 360.41 347.905C360 347.205 359.375 346.855 358.535 346.855C357.705 346.855 357.08 347.205 356.66 347.905C356.25 348.605 356.045 349.7 356.045 351.19C356.045 352.68 356.25 353.78 356.66 354.49C357.08 355.2 357.705 355.555 358.535 355.555ZM371.831 356.635C371.231 356.635 370.671 356.555 370.151 356.395C369.631 356.225 369.201 355.99 368.861 355.69L369.281 354.835C369.651 355.125 370.051 355.34 370.481 355.48C370.921 355.62 371.376 355.69 371.846 355.69C372.446 355.69 372.896 355.585 373.196 355.375C373.506 355.155 373.661 354.855 373.661 354.475C373.661 354.185 373.561 353.955 373.361 353.785C373.171 353.605 372.856 353.465 372.416 353.365L371.021 353.08C370.381 352.94 369.901 352.705 369.581 352.375C369.261 352.035 369.101 351.605 369.101 351.085C369.101 350.645 369.216 350.26 369.446 349.93C369.676 349.59 370.011 349.325 370.451 349.135C370.891 348.935 371.406 348.835 371.996 348.835C372.546 348.835 373.051 348.92 373.511 349.09C373.981 349.25 374.371 349.485 374.681 349.795L374.246 350.635C373.946 350.345 373.601 350.13 373.211 349.99C372.831 349.84 372.436 349.765 372.026 349.765C371.436 349.765 370.991 349.885 370.691 350.125C370.401 350.355 370.256 350.66 370.256 351.04C370.256 351.33 370.346 351.57 370.526 351.76C370.716 351.94 371.006 352.075 371.396 352.165L372.791 352.45C373.471 352.6 373.976 352.835 374.306 353.155C374.646 353.465 374.816 353.885 374.816 354.415C374.816 354.865 374.691 355.26 374.441 355.6C374.191 355.93 373.841 356.185 373.391 356.365C372.951 356.545 372.431 356.635 371.831 356.635ZM377.367 356.5V345.46H378.582V356.5H377.367ZM381.541 356.5V348.97H382.756V356.5H381.541ZM381.391 347.26V345.895H382.891V347.26H381.391ZM388.88 356.635C388.14 356.635 387.495 356.475 386.945 356.155C386.405 355.835 385.985 355.38 385.685 354.79C385.395 354.2 385.25 353.5 385.25 352.69C385.25 351.87 385.4 351.175 385.7 350.605C386 350.025 386.42 349.585 386.96 349.285C387.51 348.985 388.15 348.835 388.88 348.835C389.36 348.835 389.825 348.92 390.275 349.09C390.735 349.26 391.115 349.5 391.415 349.81L390.98 350.68C390.68 350.39 390.35 350.175 389.99 350.035C389.64 349.895 389.295 349.825 388.955 349.825C388.175 349.825 387.57 350.07 387.14 350.56C386.71 351.05 386.495 351.765 386.495 352.705C386.495 353.635 386.71 354.355 387.14 354.865C387.57 355.375 388.175 355.63 388.955 355.63C389.285 355.63 389.625 355.565 389.975 355.435C390.335 355.305 390.67 355.09 390.98 354.79L391.415 355.645C391.105 355.965 390.72 356.21 390.26 356.38C389.8 356.55 389.34 356.635 388.88 356.635ZM396.941 356.635C395.761 356.635 394.831 356.295 394.151 355.615C393.471 354.925 393.131 353.97 393.131 352.75C393.131 351.96 393.281 351.275 393.581 350.695C393.881 350.105 394.301 349.65 394.841 349.33C395.381 349 396.001 348.835 396.701 348.835C397.391 348.835 397.971 348.98 398.441 349.27C398.911 349.56 399.271 349.975 399.521 350.515C399.771 351.045 399.896 351.675 399.896 352.405V352.855H394.061V352.09H399.101L398.846 352.285C398.846 351.485 398.666 350.86 398.306 350.41C397.946 349.96 397.411 349.735 396.701 349.735C395.951 349.735 395.366 350 394.946 350.53C394.526 351.05 394.316 351.755 394.316 352.645V352.78C394.316 353.72 394.546 354.435 395.006 354.925C395.476 355.405 396.131 355.645 396.971 355.645C397.421 355.645 397.841 355.58 398.231 355.45C398.631 355.31 399.011 355.085 399.371 354.775L399.791 355.63C399.461 355.95 399.041 356.2 398.531 356.38C398.031 356.55 397.501 356.635 396.941 356.635ZM404.86 356.635C404.26 356.635 403.7 356.555 403.18 356.395C402.66 356.225 402.23 355.99 401.89 355.69L402.31 354.835C402.68 355.125 403.08 355.34 403.51 355.48C403.95 355.62 404.405 355.69 404.875 355.69C405.475 355.69 405.925 355.585 406.225 355.375C406.535 355.155 406.69 354.855 406.69 354.475C406.69 354.185 406.59 353.955 406.39 353.785C406.2 353.605 405.885 353.465 405.445 353.365L404.05 353.08C403.41 352.94 402.93 352.705 402.61 352.375C402.29 352.035 402.13 351.605 402.13 351.085C402.13 350.645 402.245 350.26 402.475 349.93C402.705 349.59 403.04 349.325 403.48 349.135C403.92 348.935 404.435 348.835 405.025 348.835C405.575 348.835 406.08 348.92 406.54 349.09C407.01 349.25 407.4 349.485 407.71 349.795L407.275 350.635C406.975 350.345 406.63 350.13 406.24 349.99C405.86 349.84 405.465 349.765 405.055 349.765C404.465 349.765 404.02 349.885 403.72 350.125C403.43 350.355 403.285 350.66 403.285 351.04C403.285 351.33 403.375 351.57 403.555 351.76C403.745 351.94 404.035 352.075 404.425 352.165L405.82 352.45C406.5 352.6 407.005 352.835 407.335 353.155C407.675 353.465 407.845 353.885 407.845 354.415C407.845 354.865 407.72 355.26 407.47 355.6C407.22 355.93 406.87 356.185 406.42 356.365C405.98 356.545 405.46 356.635 404.86 356.635Z" fill="black"/>
<line x1="143" y1="395.7" x2="569" y2="395.7" stroke="#C7D6DE" stroke-width="0.6"/>
<path d="M143 438.5L149.38 424.4H151.54L158 438.5H155.38L153.66 434.54L154.7 435.24H146.24L147.32 434.54L145.6 438.5H143ZM150.44 427.16L147.62 433.84L147.1 433.22H153.82L153.4 433.84L150.52 427.16H150.44ZM159.96 438.5V424.4H162.54V438.5H159.96ZM171.932 438.5V424.4H178.092C179.639 424.4 180.832 424.767 181.672 425.5C182.525 426.233 182.952 427.253 182.952 428.56C182.952 429.427 182.759 430.167 182.372 430.78C181.999 431.393 181.459 431.867 180.752 432.2C180.045 432.52 179.212 432.68 178.252 432.68L178.532 432.3H179.212C179.772 432.3 180.272 432.447 180.712 432.74C181.152 433.033 181.512 433.48 181.792 434.08L183.852 438.5H181.012L178.932 433.92C178.745 433.453 178.459 433.147 178.072 433C177.699 432.853 177.245 432.78 176.712 432.78H174.512V438.5H171.932ZM174.512 430.88H177.672C178.579 430.88 179.265 430.693 179.732 430.32C180.212 429.933 180.452 429.373 180.452 428.64C180.452 427.907 180.212 427.353 179.732 426.98C179.265 426.607 178.579 426.42 177.672 426.42H174.512V430.88ZM189.977 438.7C189.097 438.7 188.324 438.493 187.657 438.08C186.991 437.653 186.471 437.047 186.097 436.26C185.724 435.473 185.537 434.533 185.537 433.44C185.537 432.347 185.724 431.413 186.097 430.64C186.471 429.853 186.991 429.253 187.657 428.84C188.324 428.413 189.097 428.2 189.977 428.2C190.831 428.2 191.577 428.413 192.217 428.84C192.871 429.253 193.304 429.813 193.517 430.52H193.297L193.517 428.4H195.917C195.877 428.813 195.837 429.233 195.797 429.66C195.771 430.087 195.757 430.507 195.757 430.92V438.5H193.277L193.257 436.42H193.497C193.284 437.113 192.851 437.667 192.197 438.08C191.544 438.493 190.804 438.7 189.977 438.7ZM190.677 436.78C191.464 436.78 192.097 436.507 192.577 435.96C193.057 435.4 193.297 434.56 193.297 433.44C193.297 432.32 193.057 431.487 192.577 430.94C192.097 430.393 191.464 430.12 190.677 430.12C189.891 430.12 189.257 430.393 188.777 430.94C188.297 431.487 188.057 432.32 188.057 433.44C188.057 434.56 188.291 435.4 188.757 435.96C189.237 436.507 189.877 436.78 190.677 436.78ZM202.8 438.7C201.92 438.7 201.14 438.493 200.46 438.08C199.793 437.653 199.273 437.047 198.9 436.26C198.526 435.473 198.34 434.533 198.34 433.44C198.34 432.347 198.526 431.413 198.9 430.64C199.273 429.853 199.793 429.253 200.46 428.84C201.14 428.413 201.92 428.2 202.8 428.2C203.64 428.2 204.38 428.407 205.02 428.82C205.673 429.22 206.106 429.767 206.32 430.46H206.06V423.78H208.56V438.5H206.1V436.36H206.34C206.126 437.08 205.693 437.653 205.04 438.08C204.4 438.493 203.653 438.7 202.8 438.7ZM203.5 436.78C204.286 436.78 204.92 436.507 205.4 435.96C205.88 435.4 206.12 434.56 206.12 433.44C206.12 432.32 205.88 431.487 205.4 430.94C204.92 430.393 204.286 430.12 203.5 430.12C202.713 430.12 202.073 430.393 201.58 430.94C201.1 431.487 200.86 432.32 200.86 433.44C200.86 434.56 201.1 435.4 201.58 435.96C202.073 436.507 202.713 436.78 203.5 436.78ZM211.682 438.5V428.4H214.182V438.5H211.682ZM211.542 426.5V424.06H214.322V426.5H211.542ZM221.857 438.7C220.817 438.7 219.917 438.487 219.157 438.06C218.397 437.633 217.803 437.027 217.377 436.24C216.963 435.453 216.757 434.52 216.757 433.44C216.757 432.36 216.963 431.433 217.377 430.66C217.803 429.873 218.397 429.267 219.157 428.84C219.917 428.413 220.817 428.2 221.857 428.2C222.897 428.2 223.797 428.413 224.557 428.84C225.33 429.267 225.923 429.873 226.337 430.66C226.763 431.433 226.977 432.36 226.977 433.44C226.977 434.52 226.763 435.453 226.337 436.24C225.923 437.027 225.33 437.633 224.557 438.06C223.797 438.487 222.897 438.7 221.857 438.7ZM221.857 436.78C222.643 436.78 223.27 436.507 223.737 435.96C224.203 435.4 224.437 434.56 224.437 433.44C224.437 432.32 224.203 431.487 223.737 430.94C223.27 430.393 222.643 430.12 221.857 430.12C221.07 430.12 220.443 430.393 219.977 430.94C219.51 431.487 219.277 432.32 219.277 433.44C219.277 434.56 219.51 435.4 219.977 435.96C220.443 436.507 221.07 436.78 221.857 436.78ZM229.533 438.5V423.78H232.033V438.5H229.533ZM239.707 438.7C238.667 438.7 237.767 438.487 237.007 438.06C236.247 437.633 235.654 437.027 235.227 436.24C234.814 435.453 234.607 434.52 234.607 433.44C234.607 432.36 234.814 431.433 235.227 430.66C235.654 429.873 236.247 429.267 237.007 428.84C237.767 428.413 238.667 428.2 239.707 428.2C240.747 428.2 241.647 428.413 242.407 428.84C243.181 429.267 243.774 429.873 244.187 430.66C244.614 431.433 244.827 432.36 244.827 433.44C244.827 434.52 244.614 435.453 244.187 436.24C243.774 437.027 243.181 437.633 242.407 438.06C241.647 438.487 240.747 438.7 239.707 438.7ZM239.707 436.78C240.494 436.78 241.121 436.507 241.587 435.96C242.054 435.4 242.287 434.56 242.287 433.44C242.287 432.32 242.054 431.487 241.587 430.94C241.121 430.393 240.494 430.12 239.707 430.12C238.921 430.12 238.294 430.393 237.827 430.94C237.361 431.487 237.127 432.32 237.127 433.44C237.127 434.56 237.361 435.4 237.827 435.96C238.294 436.507 238.921 436.78 239.707 436.78ZM252.063 442.98C251.13 442.98 250.283 442.88 249.523 442.68C248.777 442.48 248.11 442.173 247.523 441.76L248.063 439.96C248.45 440.213 248.85 440.42 249.263 440.58C249.677 440.74 250.103 440.86 250.543 440.94C250.983 441.02 251.43 441.06 251.883 441.06C252.817 441.06 253.51 440.827 253.963 440.36C254.43 439.907 254.663 439.253 254.663 438.4V435.98H254.863C254.65 436.673 254.217 437.227 253.563 437.64C252.923 438.053 252.183 438.26 251.343 438.26C250.437 438.26 249.643 438.06 248.963 437.66C248.297 437.247 247.777 436.66 247.403 435.9C247.03 435.14 246.843 434.247 246.843 433.22C246.843 432.193 247.03 431.307 247.403 430.56C247.777 429.8 248.297 429.22 248.963 428.82C249.643 428.407 250.437 428.2 251.343 428.2C252.197 428.2 252.937 428.407 253.563 428.82C254.203 429.22 254.63 429.767 254.843 430.46L254.663 430.34L254.863 428.4H257.283C257.23 428.813 257.19 429.233 257.163 429.66C257.137 430.087 257.123 430.507 257.123 430.92V438.1C257.123 439.687 256.69 440.893 255.823 441.72C254.97 442.56 253.717 442.98 252.063 442.98ZM252.023 436.34C252.823 436.34 253.457 436.073 253.923 435.54C254.403 434.993 254.643 434.22 254.643 433.22C254.643 432.22 254.403 431.453 253.923 430.92C253.457 430.387 252.823 430.12 252.023 430.12C251.21 430.12 250.563 430.387 250.083 430.92C249.603 431.453 249.363 432.22 249.363 433.22C249.363 434.22 249.603 434.993 250.083 435.54C250.563 436.073 251.21 436.34 252.023 436.34ZM260.225 438.5V428.4H262.725V438.5H260.225ZM260.085 426.5V424.06H262.865V426.5H260.085ZM269.44 438.7C268.573 438.7 267.773 438.6 267.04 438.4C266.32 438.187 265.713 437.893 265.22 437.52L265.92 435.84C266.426 436.187 266.986 436.453 267.6 436.64C268.213 436.827 268.833 436.92 269.46 436.92C270.126 436.92 270.62 436.807 270.94 436.58C271.273 436.353 271.44 436.047 271.44 435.66C271.44 435.353 271.333 435.113 271.12 434.94C270.92 434.753 270.593 434.613 270.14 434.52L268.14 434.14C267.286 433.953 266.633 433.633 266.18 433.18C265.74 432.727 265.52 432.133 265.52 431.4C265.52 430.773 265.686 430.22 266.02 429.74C266.366 429.26 266.853 428.887 267.48 428.62C268.12 428.34 268.866 428.2 269.72 428.2C270.466 428.2 271.166 428.3 271.82 428.5C272.486 428.7 273.046 429 273.5 429.4L272.78 431.02C272.366 430.687 271.893 430.427 271.36 430.24C270.826 430.053 270.306 429.96 269.8 429.96C269.106 429.96 268.6 430.087 268.28 430.34C267.96 430.58 267.8 430.893 267.8 431.28C267.8 431.573 267.893 431.82 268.08 432.02C268.28 432.207 268.586 432.347 269 432.44L271 432.82C271.893 432.993 272.566 433.3 273.02 433.74C273.486 434.167 273.72 434.753 273.72 435.5C273.72 436.167 273.54 436.74 273.18 437.22C272.82 437.7 272.32 438.067 271.68 438.32C271.04 438.573 270.293 438.7 269.44 438.7ZM280.482 438.7C279.282 438.7 278.375 438.387 277.762 437.76C277.148 437.133 276.842 436.193 276.842 434.94V430.28H274.902V428.4H276.842V425.82L279.342 425.18V428.4H282.042V430.28H279.342V434.78C279.342 435.473 279.475 435.96 279.742 436.24C280.008 436.52 280.375 436.66 280.842 436.66C281.095 436.66 281.308 436.64 281.482 436.6C281.668 436.56 281.848 436.507 282.022 436.44V438.42C281.795 438.513 281.542 438.58 281.262 438.62C280.995 438.673 280.735 438.7 280.482 438.7Z" fill="#00ADB5"/>
<g filter="url(#filter1_d_580_359)">
<rect x="463" y="408" width="106" height="46" rx="12" fill="#00ADB5" shape-rendering="crispEdges"/>
<path d="M489.32 437.144C488.189 437.144 487.229 436.909 486.44 436.44C485.651 435.971 485.043 435.304 484.616 434.44C484.2 433.576 483.992 432.547 483.992 431.352C483.992 430.157 484.2 429.133 484.616 428.28C485.043 427.416 485.651 426.749 486.44 426.28C487.229 425.811 488.189 425.576 489.32 425.576C490.12 425.576 490.835 425.699 491.464 425.944C492.093 426.189 492.643 426.547 493.112 427.016L492.616 428.072C492.104 427.624 491.597 427.299 491.096 427.096C490.595 426.883 490.008 426.776 489.336 426.776C488.045 426.776 487.064 427.176 486.392 427.976C485.72 428.776 485.384 429.901 485.384 431.352C485.384 432.803 485.72 433.933 486.392 434.744C487.064 435.544 488.045 435.944 489.336 435.944C490.008 435.944 490.595 435.843 491.096 435.64C491.597 435.427 492.104 435.091 492.616 434.632L493.112 435.704C492.643 436.163 492.093 436.52 491.464 436.776C490.835 437.021 490.12 437.144 489.32 437.144ZM498.575 437.144C497.807 437.144 497.135 436.979 496.559 436.648C495.994 436.307 495.556 435.827 495.247 435.208C494.938 434.579 494.783 433.837 494.783 432.984C494.783 432.12 494.938 431.379 495.247 430.76C495.556 430.141 495.994 429.667 496.559 429.336C497.135 428.995 497.807 428.824 498.575 428.824C499.354 428.824 500.026 428.995 500.591 429.336C501.167 429.667 501.61 430.141 501.919 430.76C502.239 431.379 502.399 432.12 502.399 432.984C502.399 433.837 502.239 434.579 501.919 435.208C501.61 435.827 501.167 436.307 500.591 436.648C500.026 436.979 499.354 437.144 498.575 437.144ZM498.575 436.088C499.343 436.088 499.951 435.827 500.399 435.304C500.847 434.771 501.071 433.997 501.071 432.984C501.071 431.96 500.842 431.187 500.383 430.664C499.935 430.131 499.332 429.864 498.575 429.864C497.818 429.864 497.215 430.131 496.767 430.664C496.319 431.187 496.095 431.96 496.095 432.984C496.095 433.997 496.319 434.771 496.767 435.304C497.215 435.827 497.818 436.088 498.575 436.088ZM505.06 440.456V430.824C505.06 430.525 505.044 430.221 505.012 429.912C504.99 429.592 504.964 429.277 504.932 428.968H506.18L506.356 430.872H506.164C506.334 430.243 506.681 429.747 507.204 429.384C507.726 429.011 508.35 428.824 509.076 428.824C509.801 428.824 510.425 428.989 510.948 429.32C511.481 429.651 511.897 430.125 512.196 430.744C512.494 431.363 512.644 432.109 512.644 432.984C512.644 433.848 512.494 434.589 512.196 435.208C511.908 435.827 511.497 436.307 510.964 436.648C510.43 436.979 509.801 437.144 509.076 437.144C508.361 437.144 507.742 436.963 507.22 436.6C506.697 436.237 506.35 435.741 506.18 435.112H506.356V440.456H505.06ZM508.82 436.088C509.588 436.088 510.196 435.827 510.644 435.304C511.102 434.771 511.332 433.997 511.332 432.984C511.332 431.96 511.102 431.187 510.644 430.664C510.196 430.131 509.588 429.864 508.82 429.864C508.062 429.864 507.454 430.131 506.996 430.664C506.548 431.187 506.324 431.96 506.324 432.984C506.324 433.997 506.548 434.771 506.996 435.304C507.454 435.827 508.062 436.088 508.82 436.088ZM514.864 440.632L514.56 439.56C515.061 439.443 515.477 439.304 515.808 439.144C516.149 438.995 516.432 438.792 516.656 438.536C516.88 438.28 517.072 437.96 517.232 437.576L517.648 436.632L517.616 437.176L514.112 428.968H515.52L518.416 436.024H518L520.864 428.968H522.224L518.512 437.672C518.299 438.184 518.064 438.611 517.808 438.952C517.552 439.304 517.275 439.587 516.976 439.8C516.688 440.024 516.368 440.2 516.016 440.328C515.664 440.456 515.28 440.557 514.864 440.632ZM528.16 437L533.136 425.72H534.288L539.344 437H537.968L536.56 433.784L537.152 434.12H530.256L530.896 433.784L529.52 437H528.16ZM533.696 427.24L531.104 433.32L530.72 433.032H536.672L536.384 433.32L533.728 427.24H533.696ZM541.542 437V425.224H542.838V437H541.542ZM545.994 437V425.224H547.29V437H545.994Z" fill="white"/>
</g>
<rect x="10" y="20" width="122" height="36" rx="6" fill="#C7D6DE"/>
<path d="M27.092 43V33.13H31.474C32.5567 33.13 33.3827 33.3913 33.952 33.914C34.5213 34.4367 34.806 35.1553 34.806 36.07C34.806 36.9753 34.5213 37.694 33.952 38.226C33.3827 38.758 32.5567 39.024 31.474 39.024H28.898V43H27.092ZM28.898 37.596H31.264C31.8613 37.596 32.3093 37.4653 32.608 37.204C32.9067 36.9333 33.056 36.5553 33.056 36.07C33.056 35.5847 32.9067 35.2113 32.608 34.95C32.3093 34.6793 31.8613 34.544 31.264 34.544H28.898V37.596ZM34.2988 43L38.7648 33.13H40.2768L44.7988 43H42.9648L41.7608 40.228L42.4888 40.718H36.5668L37.3228 40.228L36.1188 43H34.2988ZM39.5068 35.062L37.5328 39.738L37.1688 39.304H41.8728L41.5788 39.738L39.5628 35.062H39.5068ZM50.2778 43.14C49.2511 43.14 48.3691 42.9347 47.6318 42.524C46.9038 42.104 46.3438 41.516 45.9518 40.76C45.5598 39.9947 45.3638 39.094 45.3638 38.058C45.3638 37.022 45.5598 36.126 45.9518 35.37C46.3438 34.614 46.9038 34.0307 47.6318 33.62C48.3691 33.2 49.2511 32.99 50.2778 32.99C50.9684 32.99 51.5891 33.088 52.1398 33.284C52.6998 33.48 53.1804 33.7693 53.5818 34.152L52.9938 35.58C52.5551 35.2253 52.1304 34.9733 51.7198 34.824C51.3184 34.6653 50.8564 34.586 50.3338 34.586C49.3351 34.586 48.5698 34.8893 48.0378 35.496C47.5151 36.0933 47.2538 36.9473 47.2538 38.058C47.2538 39.1687 47.5151 40.0273 48.0378 40.634C48.5698 41.2407 49.3351 41.544 50.3338 41.544C50.8564 41.544 51.3184 41.4693 51.7198 41.32C52.1304 41.1613 52.5551 40.9 52.9938 40.536L53.5818 41.964C53.1804 42.3373 52.6998 42.6267 52.1398 42.832C51.5891 43.0373 50.9684 43.14 50.2778 43.14ZM58.5087 43.14C57.7153 43.14 56.9827 43.042 56.3107 42.846C55.648 42.6407 55.0787 42.3607 54.6027 42.006L55.1627 40.592C55.48 40.816 55.8113 41.0073 56.1567 41.166C56.502 41.3153 56.8707 41.432 57.2627 41.516C57.6547 41.5907 58.07 41.628 58.5087 41.628C59.246 41.628 59.778 41.5067 60.1047 41.264C60.4313 41.0213 60.5947 40.704 60.5947 40.312C60.5947 39.9667 60.4827 39.7053 60.2587 39.528C60.0347 39.3413 59.6333 39.1873 59.0547 39.066L57.4727 38.744C56.5673 38.5573 55.8907 38.2447 55.4427 37.806C54.9947 37.3673 54.7707 36.7793 54.7707 36.042C54.7707 35.426 54.934 34.8893 55.2607 34.432C55.5873 33.9747 56.0447 33.62 56.6327 33.368C57.2207 33.116 57.9067 32.99 58.6907 32.99C59.3907 32.99 60.0393 33.0927 60.6367 33.298C61.234 33.494 61.7333 33.7787 62.1347 34.152L61.5747 35.496C61.1733 35.16 60.7347 34.9127 60.2587 34.754C59.7827 34.586 59.2507 34.502 58.6627 34.502C58 34.502 57.482 34.6327 57.1087 34.894C56.7447 35.146 56.5627 35.496 56.5627 35.944C56.5627 36.2893 56.6747 36.5647 56.8987 36.77C57.132 36.9753 57.524 37.134 58.0747 37.246L59.6427 37.554C60.576 37.7407 61.2667 38.0487 61.7147 38.478C62.1627 38.898 62.3867 39.4673 62.3867 40.186C62.3867 40.774 62.228 41.292 61.9107 41.74C61.5933 42.1787 61.1453 42.524 60.5667 42.776C59.988 43.0187 59.302 43.14 58.5087 43.14ZM71.3739 43.14C70.5806 43.14 69.8479 43.042 69.1759 42.846C68.5132 42.6407 67.9439 42.3607 67.4679 42.006L68.0279 40.592C68.3452 40.816 68.6766 41.0073 69.0219 41.166C69.3672 41.3153 69.7359 41.432 70.1279 41.516C70.5199 41.5907 70.9352 41.628 71.3739 41.628C72.1112 41.628 72.6432 41.5067 72.9699 41.264C73.2966 41.0213 73.4599 40.704 73.4599 40.312C73.4599 39.9667 73.3479 39.7053 73.1239 39.528C72.8999 39.3413 72.4986 39.1873 71.9199 39.066L70.3379 38.744C69.4326 38.5573 68.7559 38.2447 68.3079 37.806C67.8599 37.3673 67.6359 36.7793 67.6359 36.042C67.6359 35.426 67.7992 34.8893 68.1259 34.432C68.4526 33.9747 68.9099 33.62 69.4979 33.368C70.0859 33.116 70.7719 32.99 71.5559 32.99C72.2559 32.99 72.9046 33.0927 73.5019 33.298C74.0992 33.494 74.5986 33.7787 74.9999 34.152L74.4399 35.496C74.0386 35.16 73.5999 34.9127 73.1239 34.754C72.6479 34.586 72.1159 34.502 71.5279 34.502C70.8652 34.502 70.3472 34.6327 69.9739 34.894C69.6099 35.146 69.4279 35.496 69.4279 35.944C69.4279 36.2893 69.5399 36.5647 69.7639 36.77C69.9972 36.9753 70.3892 37.134 70.9399 37.246L72.5079 37.554C73.4412 37.7407 74.1319 38.0487 74.5799 38.478C75.0279 38.898 75.2519 39.4673 75.2519 40.186C75.2519 40.774 75.0932 41.292 74.7759 41.74C74.4586 42.1787 74.0106 42.524 73.4319 42.776C72.8532 43.0187 72.1672 43.14 71.3739 43.14ZM76.564 46.178L76.158 44.792C76.5966 44.6987 76.9653 44.5913 77.264 44.47C77.5626 44.3487 77.81 44.19 78.006 43.994C78.202 43.798 78.3653 43.546 78.496 43.238L78.846 42.412L78.804 43.098L75.724 35.93H77.586L79.798 41.446H79.392L81.618 35.93H83.382L80.162 43.392C79.9473 43.896 79.714 44.3113 79.462 44.638C79.21 44.974 78.9393 45.24 78.65 45.436C78.3606 45.6413 78.0433 45.8 77.698 45.912C77.3526 46.024 76.9746 46.1127 76.564 46.178ZM86.6888 43.14C86.0821 43.14 85.5221 43.07 85.0088 42.93C84.5048 42.7807 84.0801 42.5753 83.7348 42.314L84.2248 41.138C84.5795 41.3807 84.9715 41.5673 85.4008 41.698C85.8301 41.8287 86.2641 41.894 86.7028 41.894C87.1695 41.894 87.5148 41.8147 87.7388 41.656C87.9721 41.4973 88.0888 41.2827 88.0888 41.012C88.0888 40.7973 88.0141 40.6293 87.8648 40.508C87.7248 40.3773 87.4961 40.2793 87.1788 40.214L85.7788 39.948C85.1815 39.8173 84.7241 39.5933 84.4068 39.276C84.0988 38.9587 83.9448 38.5433 83.9448 38.03C83.9448 37.5913 84.0615 37.204 84.2948 36.868C84.5375 36.532 84.8781 36.2707 85.3168 36.084C85.7648 35.888 86.2875 35.79 86.8848 35.79C87.4075 35.79 87.8975 35.86 88.3548 36C88.8215 36.14 89.2135 36.35 89.5308 36.63L89.0268 37.764C88.7375 37.5307 88.4061 37.3487 88.0328 37.218C87.6595 37.0873 87.2955 37.022 86.9408 37.022C86.4555 37.022 86.1008 37.1107 85.8768 37.288C85.6528 37.456 85.5408 37.6753 85.5408 37.946C85.5408 38.1513 85.6061 38.324 85.7368 38.464C85.8768 38.5947 86.0915 38.6927 86.3808 38.758L87.7808 39.024C88.4061 39.1453 88.8775 39.36 89.1948 39.668C89.5215 39.9667 89.6848 40.3773 89.6848 40.9C89.6848 41.3667 89.5588 41.768 89.3068 42.104C89.0548 42.44 88.7048 42.6967 88.2568 42.874C87.8088 43.0513 87.2861 43.14 86.6888 43.14ZM94.1381 43.14C93.2981 43.14 92.6634 42.9207 92.2341 42.482C91.8048 42.0433 91.5901 41.3853 91.5901 40.508V37.246H90.2321V35.93H91.5901V34.124L93.3401 33.676V35.93H95.2301V37.246H93.3401V40.396C93.3401 40.8813 93.4334 41.222 93.6201 41.418C93.8068 41.614 94.0634 41.712 94.3901 41.712C94.5674 41.712 94.7168 41.698 94.8381 41.67C94.9688 41.642 95.0948 41.6047 95.2161 41.558V42.944C95.0574 43.0093 94.8801 43.056 94.6841 43.084C94.4974 43.1213 94.3154 43.14 94.1381 43.14ZM99.7664 43.14C98.5811 43.14 97.6524 42.8133 96.9804 42.16C96.3084 41.5067 95.9724 40.6107 95.9724 39.472C95.9724 38.7347 96.1171 38.0907 96.4064 37.54C96.6958 36.9893 97.0971 36.56 97.6104 36.252C98.1331 35.944 98.7398 35.79 99.4304 35.79C100.112 35.79 100.681 35.9347 101.138 36.224C101.596 36.5133 101.941 36.9193 102.174 37.442C102.417 37.9647 102.538 38.576 102.538 39.276V39.738H97.3864V38.814H101.292L101.054 39.01C101.054 38.3567 100.914 37.8573 100.634 37.512C100.364 37.1667 99.9671 36.994 99.4444 36.994C98.8658 36.994 98.4178 37.1993 98.1004 37.61C97.7924 38.0207 97.6384 38.5947 97.6384 39.332V39.514C97.6384 40.2793 97.8251 40.8533 98.1984 41.236C98.5811 41.6093 99.1178 41.796 99.8084 41.796C100.21 41.796 100.583 41.7447 100.928 41.642C101.283 41.53 101.619 41.3527 101.936 41.11L102.454 42.286C102.118 42.5567 101.717 42.7667 101.25 42.916C100.784 43.0653 100.289 43.14 99.7664 43.14ZM104.02 43V37.694C104.02 37.4047 104.011 37.1107 103.992 36.812C103.974 36.5133 103.946 36.2193 103.908 35.93H105.602L105.742 37.33H105.574C105.77 36.8447 106.069 36.4667 106.47 36.196C106.881 35.9253 107.366 35.79 107.926 35.79C108.486 35.79 108.948 35.9253 109.312 36.196C109.686 36.4573 109.947 36.868 110.096 37.428H109.872C110.068 36.924 110.39 36.5273 110.838 36.238C111.286 35.9393 111.8 35.79 112.378 35.79C113.172 35.79 113.764 36.0233 114.156 36.49C114.548 36.9567 114.744 37.6847 114.744 38.674V43H112.994V38.744C112.994 38.184 112.901 37.7827 112.714 37.54C112.528 37.288 112.229 37.162 111.818 37.162C111.333 37.162 110.95 37.3347 110.67 37.68C110.39 38.016 110.25 38.4733 110.25 39.052V43H108.5V38.744C108.5 38.184 108.407 37.7827 108.22 37.54C108.034 37.288 107.735 37.162 107.324 37.162C106.839 37.162 106.456 37.3347 106.176 37.68C105.906 38.016 105.77 38.4733 105.77 39.052V43H104.02Z" fill="#222831"/>
<rect y="86" width="132" height="36" rx="6" fill="#C7D6DE"/>
<path d="M16 109L20.466 99.13H21.978L26.5 109H24.666L23.462 106.228L24.19 106.718H18.268L19.024 106.228L17.82 109H16ZM21.208 101.062L19.234 105.738L18.87 105.304H23.574L23.28 105.738L21.264 101.062H21.208ZM30 109.14C29.132 109.14 28.4833 108.902 28.054 108.426C27.6247 107.95 27.41 107.222 27.41 106.242V101.93H29.16V106.228C29.16 106.751 29.2673 107.138 29.482 107.39C29.6967 107.633 30.0233 107.754 30.462 107.754C30.9567 107.754 31.358 107.586 31.666 107.25C31.9833 106.914 32.142 106.471 32.142 105.92V101.93H33.892V109H32.184V107.558H32.38C32.1747 108.062 31.862 108.454 31.442 108.734C31.0313 109.005 30.5507 109.14 30 109.14ZM38.8158 109.14C37.9758 109.14 37.3412 108.921 36.9118 108.482C36.4825 108.043 36.2678 107.385 36.2678 106.508V103.246H34.9098V101.93H36.2678V100.124L38.0178 99.676V101.93H39.9078V103.246H38.0178V106.396C38.0178 106.881 38.1112 107.222 38.2978 107.418C38.4845 107.614 38.7412 107.712 39.0678 107.712C39.2452 107.712 39.3945 107.698 39.5158 107.67C39.6465 107.642 39.7725 107.605 39.8938 107.558V108.944C39.7352 109.009 39.5578 109.056 39.3618 109.084C39.1752 109.121 38.9932 109.14 38.8158 109.14ZM44.2202 109.14C43.4922 109.14 42.8622 108.991 42.3302 108.692C41.7982 108.393 41.3828 107.969 41.0842 107.418C40.7948 106.867 40.6502 106.214 40.6502 105.458C40.6502 104.702 40.7948 104.053 41.0842 103.512C41.3828 102.961 41.7982 102.537 42.3302 102.238C42.8622 101.939 43.4922 101.79 44.2202 101.79C44.9482 101.79 45.5782 101.939 46.1102 102.238C46.6515 102.537 47.0668 102.961 47.3562 103.512C47.6548 104.053 47.8042 104.702 47.8042 105.458C47.8042 106.214 47.6548 106.867 47.3562 107.418C47.0668 107.969 46.6515 108.393 46.1102 108.692C45.5782 108.991 44.9482 109.14 44.2202 109.14ZM44.2202 107.796C44.7708 107.796 45.2095 107.605 45.5362 107.222C45.8628 106.83 46.0262 106.242 46.0262 105.458C46.0262 104.674 45.8628 104.091 45.5362 103.708C45.2095 103.325 44.7708 103.134 44.2202 103.134C43.6695 103.134 43.2308 103.325 42.9042 103.708C42.5775 104.091 42.4142 104.674 42.4142 105.458C42.4142 106.242 42.5775 106.83 42.9042 107.222C43.2308 107.605 43.6695 107.796 44.2202 107.796ZM53.2951 109V99.13H57.6071C58.6898 99.13 59.5251 99.3867 60.1131 99.9C60.7105 100.413 61.0091 101.127 61.0091 102.042C61.0091 102.649 60.8738 103.167 60.6031 103.596C60.3418 104.025 59.9638 104.357 59.4691 104.59C58.9745 104.814 58.3911 104.926 57.7191 104.926L57.9151 104.66H58.3911C58.7831 104.66 59.1331 104.763 59.4411 104.968C59.7491 105.173 60.0011 105.486 60.1971 105.906L61.6391 109H59.6511L58.1951 105.794C58.0645 105.467 57.8638 105.253 57.5931 105.15C57.3318 105.047 57.0145 104.996 56.6411 104.996H55.1011V109H53.2951ZM55.1011 103.666H57.3131C57.9478 103.666 58.4285 103.535 58.7551 103.274C59.0911 103.003 59.2591 102.611 59.2591 102.098C59.2591 101.585 59.0911 101.197 58.7551 100.936C58.4285 100.675 57.9478 100.544 57.3131 100.544H55.1011V103.666ZM66.2235 109.14C65.0381 109.14 64.1095 108.813 63.4375 108.16C62.7655 107.507 62.4295 106.611 62.4295 105.472C62.4295 104.735 62.5741 104.091 62.8635 103.54C63.1528 102.989 63.5541 102.56 64.0675 102.252C64.5901 101.944 65.1968 101.79 65.8875 101.79C66.5688 101.79 67.1381 101.935 67.5955 102.224C68.0528 102.513 68.3981 102.919 68.6315 103.442C68.8741 103.965 68.9955 104.576 68.9955 105.276V105.738H63.8435V104.814H67.7495L67.5115 105.01C67.5115 104.357 67.3715 103.857 67.0915 103.512C66.8208 103.167 66.4241 102.994 65.9015 102.994C65.3228 102.994 64.8748 103.199 64.5575 103.61C64.2495 104.021 64.0955 104.595 64.0955 105.332V105.514C64.0955 106.279 64.2821 106.853 64.6555 107.236C65.0381 107.609 65.5748 107.796 66.2655 107.796C66.6668 107.796 67.0401 107.745 67.3855 107.642C67.7401 107.53 68.0761 107.353 68.3935 107.11L68.9115 108.286C68.5755 108.557 68.1741 108.767 67.7075 108.916C67.2408 109.065 66.7461 109.14 66.2235 109.14ZM73.474 109.14C72.634 109.14 71.9994 108.921 71.57 108.482C71.1407 108.043 70.926 107.385 70.926 106.508V103.246H69.568V101.93H70.926V100.124L72.676 99.676V101.93H74.566V103.246H72.676V106.396C72.676 106.881 72.7694 107.222 72.956 107.418C73.1427 107.614 73.3994 107.712 73.726 107.712C73.9034 107.712 74.0527 107.698 74.174 107.67C74.3047 107.642 74.4307 107.605 74.552 107.558V108.944C74.3934 109.009 74.216 109.056 74.02 109.084C73.8334 109.121 73.6514 109.14 73.474 109.14ZM75.7407 109V103.736C75.7407 103.437 75.7314 103.134 75.7127 102.826C75.7034 102.518 75.6801 102.219 75.6427 101.93H77.3367L77.5327 103.862H77.2527C77.3461 103.395 77.5001 103.008 77.7147 102.7C77.9387 102.392 78.2094 102.163 78.5267 102.014C78.8441 101.865 79.1894 101.79 79.5627 101.79C79.7307 101.79 79.8661 101.799 79.9687 101.818C80.0714 101.827 80.1741 101.851 80.2767 101.888L80.2627 103.428C80.0854 103.353 79.9314 103.307 79.8007 103.288C79.6794 103.269 79.5254 103.26 79.3387 103.26C78.9374 103.26 78.5967 103.344 78.3167 103.512C78.0461 103.68 77.8407 103.913 77.7007 104.212C77.5701 104.511 77.5047 104.851 77.5047 105.234V109H75.7407ZM81.2508 109V101.93H83.0008V109H81.2508ZM81.1528 100.6V98.892H83.0988V100.6H81.1528ZM88.3172 109.14C87.1319 109.14 86.2032 108.813 85.5312 108.16C84.8592 107.507 84.5232 106.611 84.5232 105.472C84.5232 104.735 84.6679 104.091 84.9572 103.54C85.2466 102.989 85.6479 102.56 86.1612 102.252C86.6839 101.944 87.2906 101.79 87.9812 101.79C88.6626 101.79 89.2319 101.935 89.6892 102.224C90.1466 102.513 90.4919 102.919 90.7252 103.442C90.9679 103.965 91.0892 104.576 91.0892 105.276V105.738H85.9372V104.814H89.8432L89.6052 105.01C89.6052 104.357 89.4652 103.857 89.1852 103.512C88.9146 103.167 88.5179 102.994 87.9952 102.994C87.4166 102.994 86.9686 103.199 86.6512 103.61C86.3432 104.021 86.1892 104.595 86.1892 105.332V105.514C86.1892 106.279 86.3759 106.853 86.7492 107.236C87.1319 107.609 87.6686 107.796 88.3592 107.796C88.7606 107.796 89.1339 107.745 89.4792 107.642C89.8339 107.53 90.1699 107.353 90.4872 107.11L91.0052 108.286C90.6692 108.557 90.2679 108.767 89.8012 108.916C89.3346 109.065 88.8399 109.14 88.3172 109.14ZM94.5338 109L91.4818 101.93H93.3438L95.5558 107.46H95.1218L97.3898 101.93H99.1398L96.0738 109H94.5338ZM103.356 109.14C102.171 109.14 101.242 108.813 100.57 108.16C99.8983 107.507 99.5623 106.611 99.5623 105.472C99.5623 104.735 99.7069 104.091 99.9963 103.54C100.286 102.989 100.687 102.56 101.2 102.252C101.723 101.944 102.33 101.79 103.02 101.79C103.702 101.79 104.271 101.935 104.728 102.224C105.186 102.513 105.531 102.919 105.764 103.442C106.007 103.965 106.128 104.576 106.128 105.276V105.738H100.976V104.814H104.882L104.644 105.01C104.644 104.357 104.504 103.857 104.224 103.512C103.954 103.167 103.557 102.994 103.034 102.994C102.456 102.994 102.008 103.199 101.69 103.61C101.382 104.021 101.228 104.595 101.228 105.332V105.514C101.228 106.279 101.415 106.853 101.788 107.236C102.171 107.609 102.708 107.796 103.398 107.796C103.8 107.796 104.173 107.745 104.518 107.642C104.873 107.53 105.209 107.353 105.526 107.11L106.044 108.286C105.708 108.557 105.307 108.767 104.84 108.916C104.374 109.065 103.879 109.14 103.356 109.14ZM110.354 109.14C109.738 109.14 109.192 108.995 108.716 108.706C108.25 108.407 107.886 107.983 107.624 107.432C107.363 106.881 107.232 106.223 107.232 105.458C107.232 104.693 107.363 104.039 107.624 103.498C107.886 102.947 108.25 102.527 108.716 102.238C109.192 101.939 109.738 101.79 110.354 101.79C110.942 101.79 111.46 101.935 111.908 102.224C112.366 102.504 112.669 102.887 112.818 103.372H112.636V98.696H114.386V109H112.664V107.502H112.832C112.683 108.006 112.38 108.407 111.922 108.706C111.474 108.995 110.952 109.14 110.354 109.14ZM110.844 107.796C111.395 107.796 111.838 107.605 112.174 107.222C112.51 106.83 112.678 106.242 112.678 105.458C112.678 104.674 112.51 104.091 112.174 103.708C111.838 103.325 111.395 103.134 110.844 103.134C110.294 103.134 109.846 103.325 109.5 103.708C109.164 104.091 108.996 104.674 108.996 105.458C108.996 106.242 109.164 106.83 109.5 107.222C109.846 107.605 110.294 107.796 110.844 107.796Z" fill="#222831"/>
<defs>
<filter id="filter0_d_580_359" x="457" y="99" width="116" height="76" filterUnits="userSpaceOnUse" color-interpolation-filters="sRGB">
<feFlood flood-opacity="0" result="BackgroundImageFix"/>
<feColorMatrix in="SourceAlpha" type="matrix" values="0 0 0 0 0 0 0 0 0 0 0 0 0 0 0 0 0 0 127 0" result="hardAlpha"/>
<feOffset dy="12"/>
<feGaussianBlur stdDeviation="10"/>
<feComposite in2="hardAlpha" operator="out"/>
<feColorMatrix type="matrix" values="0 0 0 0 0.740385 0 0 0 0 0.740385 0 0 0 0 0.740385 0 0 0 0.16 0"/>
<feBlend mode="normal" in2="BackgroundImageFix" result="effect1_dropShadow_580_359"/>
<feBlend mode="normal" in="SourceGraphic" in2="effect1_dropShadow_580_359" result="shape"/>
</filter>
<filter id="filter1_d_580_359" x="443" y="400" width="146" height="86" filterUnits="userSpaceOnUse" color-interpolation-filters="sRGB">
<feFlood flood-opacity="0" result="BackgroundImageFix"/>
<feColorMatrix in="SourceAlpha" type="matrix" values="0 0 0 0 0 0 0 0 0 0 0 0 0 0 0 0 0 0 127 0" result="hardAlpha"/>
<feOffset dy="12"/>
<feGaussianBlur stdDeviation="10"/>
<feComposite in2="hardAlpha" operator="out"/>
<feColorMatrix type="matrix" values="0 0 0 0 0.740385 0 0 0 0 0.740385 0 0 0 0 0.740385 0 0 0 0.16 0"/>
<feBlend mode="normal" in2="BackgroundImageFix" result="effect1_dropShadow_580_359"/>
<feBlend mode="normal" in="SourceGraphic" in2="effect1_dropShadow_580_359" result="shape"/>
</filter>
</defs>
</svg>
