<svg width="571" height="502" viewBox="0 0 571 502" fill="none" xmlns="http://www.w3.org/2000/svg">
<g filter="url(#filter0_d_582_1698)">
<rect x="30" y="14" width="511" height="442" rx="10" fill="white" shape-rendering="crispEdges"/>
<rect x="30.5" y="14.5" width="510" height="441" rx="9.5" stroke="#C2FCFF" shape-rendering="crispEdges"/>
<path d="M57.872 65V48.08H65.264C67.12 48.08 68.552 48.52 69.56 49.4C70.584 50.28 71.096 51.504 71.096 53.072C71.096 54.112 70.864 55 70.4 55.736C69.952 56.472 69.304 57.04 68.456 57.44C67.608 57.824 66.608 58.016 65.456 58.016L65.792 57.56H66.608C67.28 57.56 67.88 57.736 68.408 58.088C68.936 58.44 69.368 58.976 69.704 59.696L72.176 65H68.768L66.272 59.504C66.048 58.944 65.704 58.576 65.24 58.4C64.792 58.224 64.248 58.136 63.608 58.136H60.968V65H57.872ZM60.968 55.856H64.76C65.848 55.856 66.672 55.632 67.232 55.184C67.808 54.72 68.096 54.048 68.096 53.168C68.096 52.288 67.808 51.624 67.232 51.176C66.672 50.728 65.848 50.504 64.76 50.504H60.968V55.856ZM80.0064 65.24C78.9504 65.24 78.0224 64.992 77.2224 64.496C76.4224 63.984 75.7984 63.256 75.3504 62.312C74.9024 61.368 74.6784 60.24 74.6784 58.928C74.6784 57.616 74.9024 56.496 75.3504 55.568C75.7984 54.624 76.4224 53.904 77.2224 53.408C78.0224 52.896 78.9504 52.64 80.0064 52.64C81.0304 52.64 81.9264 52.896 82.6944 53.408C83.4784 53.904 83.9984 54.576 84.2544 55.424H83.9904L84.2544 52.88H87.1344C87.0864 53.376 87.0384 53.88 86.9904 54.392C86.9584 54.904 86.9424 55.408 86.9424 55.904V65H83.9664L83.9424 62.504H84.2304C83.9744 63.336 83.4544 64 82.6704 64.496C81.8864 64.992 80.9984 65.24 80.0064 65.24ZM80.8464 62.936C81.7904 62.936 82.5504 62.608 83.1264 61.952C83.7024 61.28 83.9904 60.272 83.9904 58.928C83.9904 57.584 83.7024 56.584 83.1264 55.928C82.5504 55.272 81.7904 54.944 80.8464 54.944C79.9024 54.944 79.1424 55.272 78.5664 55.928C77.9904 56.584 77.7024 57.584 77.7024 58.928C77.7024 60.272 77.9824 61.28 78.5424 61.952C79.1184 62.608 79.8864 62.936 80.8464 62.936ZM95.8732 65.24C94.8172 65.24 93.8812 64.992 93.0652 64.496C92.2652 63.984 91.6412 63.256 91.1932 62.312C90.7452 61.368 90.5212 60.24 90.5212 58.928C90.5212 57.616 90.7452 56.496 91.1932 55.568C91.6412 54.624 92.2652 53.904 93.0652 53.408C93.8812 52.896 94.8172 52.64 95.8732 52.64C96.8812 52.64 97.7692 52.888 98.5372 53.384C99.3212 53.864 99.8412 54.52 100.097 55.352H99.7852V47.336H102.785V65H99.8332V62.432H100.121C99.8652 63.296 99.3452 63.984 98.5612 64.496C97.7932 64.992 96.8972 65.24 95.8732 65.24ZM96.7132 62.936C97.6572 62.936 98.4172 62.608 98.9932 61.952C99.5692 61.28 99.8572 60.272 99.8572 58.928C99.8572 57.584 99.5692 56.584 98.9932 55.928C98.4172 55.272 97.6572 54.944 96.7132 54.944C95.7692 54.944 95.0012 55.272 94.4092 55.928C93.8332 56.584 93.5452 57.584 93.5452 58.928C93.5452 60.272 93.8332 61.28 94.4092 61.952C95.0012 62.608 95.7692 62.936 96.7132 62.936ZM107.012 65V52.88H110.012V65H107.012ZM106.844 50.6V47.672H110.18V50.6H106.844ZM119.702 65.24C118.454 65.24 117.374 64.984 116.462 64.472C115.55 63.96 114.838 63.232 114.326 62.288C113.83 61.344 113.582 60.224 113.582 58.928C113.582 57.632 113.83 56.52 114.326 55.592C114.838 54.648 115.55 53.92 116.462 53.408C117.374 52.896 118.454 52.64 119.702 52.64C120.95 52.64 122.03 52.896 122.942 53.408C123.87 53.92 124.582 54.648 125.078 55.592C125.59 56.52 125.846 57.632 125.846 58.928C125.846 60.224 125.59 61.344 125.078 62.288C124.582 63.232 123.87 63.96 122.942 64.472C122.03 64.984 120.95 65.24 119.702 65.24ZM119.702 62.936C120.646 62.936 121.398 62.608 121.958 61.952C122.518 61.28 122.798 60.272 122.798 58.928C122.798 57.584 122.518 56.584 121.958 55.928C121.398 55.272 120.646 54.944 119.702 54.944C118.758 54.944 118.006 55.272 117.446 55.928C116.886 56.584 116.606 57.584 116.606 58.928C116.606 60.272 116.886 61.28 117.446 61.952C118.006 62.608 118.758 62.936 119.702 62.936ZM129.393 65V47.336H132.393V65H129.393ZM142.083 65.24C140.835 65.24 139.755 64.984 138.843 64.472C137.931 63.96 137.219 63.232 136.707 62.288C136.211 61.344 135.963 60.224 135.963 58.928C135.963 57.632 136.211 56.52 136.707 55.592C137.219 54.648 137.931 53.92 138.843 53.408C139.755 52.896 140.835 52.64 142.083 52.64C143.331 52.64 144.411 52.896 145.323 53.408C146.251 53.92 146.963 54.648 147.459 55.592C147.971 56.52 148.227 57.632 148.227 58.928C148.227 60.224 147.971 61.344 147.459 62.288C146.963 63.232 146.251 63.96 145.323 64.472C144.411 64.984 143.331 65.24 142.083 65.24ZM142.083 62.936C143.027 62.936 143.779 62.608 144.339 61.952C144.899 61.28 145.179 60.272 145.179 58.928C145.179 57.584 144.899 56.584 144.339 55.928C143.779 55.272 143.027 54.944 142.083 54.944C141.139 54.944 140.387 55.272 139.827 55.928C139.267 56.584 138.987 57.584 138.987 58.928C138.987 60.272 139.267 61.28 139.827 61.952C140.387 62.608 141.139 62.936 142.083 62.936ZM157.39 70.376C156.27 70.376 155.254 70.256 154.342 70.016C153.446 69.776 152.646 69.408 151.942 68.912L152.59 66.752C153.054 67.056 153.534 67.304 154.03 67.496C154.526 67.688 155.038 67.832 155.566 67.928C156.094 68.024 156.63 68.072 157.174 68.072C158.294 68.072 159.126 67.792 159.67 67.232C160.23 66.688 160.51 65.904 160.51 64.88V61.976H160.75C160.494 62.808 159.974 63.472 159.19 63.968C158.422 64.464 157.534 64.712 156.526 64.712C155.438 64.712 154.486 64.472 153.67 63.992C152.87 63.496 152.246 62.792 151.798 61.88C151.35 60.968 151.126 59.896 151.126 58.664C151.126 57.432 151.35 56.368 151.798 55.472C152.246 54.56 152.87 53.864 153.67 53.384C154.486 52.888 155.438 52.64 156.526 52.64C157.55 52.64 158.438 52.888 159.19 53.384C159.958 53.864 160.47 54.52 160.726 55.352L160.51 55.208L160.75 52.88H163.654C163.59 53.376 163.542 53.88 163.51 54.392C163.478 54.904 163.462 55.408 163.462 55.904V64.52C163.462 66.424 162.942 67.872 161.902 68.864C160.878 69.872 159.374 70.376 157.39 70.376ZM157.342 62.408C158.302 62.408 159.062 62.088 159.622 61.448C160.198 60.792 160.486 59.864 160.486 58.664C160.486 57.464 160.198 56.544 159.622 55.904C159.062 55.264 158.302 54.944 157.342 54.944C156.366 54.944 155.59 55.264 155.014 55.904C154.438 56.544 154.15 57.464 154.15 58.664C154.15 59.864 154.438 60.792 155.014 61.448C155.59 62.088 156.366 62.408 157.342 62.408ZM167.424 70.448L166.728 68.072C167.48 67.912 168.112 67.728 168.624 67.52C169.136 67.312 169.56 67.04 169.896 66.704C170.232 66.368 170.512 65.936 170.736 65.408L171.336 63.992L171.264 65.168L165.984 52.88H169.176L172.968 62.336H172.272L176.088 52.88H179.112L173.592 65.672C173.224 66.536 172.824 67.248 172.392 67.808C171.96 68.384 171.496 68.84 171 69.176C170.504 69.528 169.96 69.8 169.368 69.992C168.776 70.184 168.128 70.336 167.424 70.448ZM189.441 65V48.08H196.833C198.689 48.08 200.121 48.52 201.129 49.4C202.153 50.28 202.665 51.504 202.665 53.072C202.665 54.112 202.433 55 201.969 55.736C201.521 56.472 200.873 57.04 200.025 57.44C199.177 57.824 198.177 58.016 197.025 58.016L197.361 57.56H198.177C198.849 57.56 199.449 57.736 199.977 58.088C200.505 58.44 200.937 58.976 201.273 59.696L203.745 65H200.337L197.841 59.504C197.617 58.944 197.273 58.576 196.809 58.4C196.361 58.224 195.817 58.136 195.177 58.136H192.537V65H189.441ZM192.537 55.856H196.329C197.417 55.856 198.241 55.632 198.801 55.184C199.377 54.72 199.665 54.048 199.665 53.168C199.665 52.288 199.377 51.624 198.801 51.176C198.241 50.728 197.417 50.504 196.329 50.504H192.537V55.856ZM212.564 65.24C210.532 65.24 208.94 64.68 207.788 63.56C206.636 62.44 206.06 60.904 206.06 58.952C206.06 57.688 206.308 56.584 206.804 55.64C207.3 54.696 207.988 53.96 208.868 53.432C209.764 52.904 210.804 52.64 211.988 52.64C213.156 52.64 214.132 52.888 214.916 53.384C215.7 53.88 216.292 54.576 216.692 55.472C217.108 56.368 217.316 57.416 217.316 58.616V59.408H208.484V57.824H215.18L214.772 58.16C214.772 57.04 214.532 56.184 214.052 55.592C213.588 55 212.908 54.704 212.012 54.704C211.02 54.704 210.252 55.056 209.708 55.76C209.18 56.464 208.916 57.448 208.916 58.712V59.024C208.916 60.336 209.236 61.32 209.876 61.976C210.532 62.616 211.452 62.936 212.636 62.936C213.324 62.936 213.964 62.848 214.556 62.672C215.164 62.48 215.74 62.176 216.284 61.76L217.172 63.776C216.596 64.24 215.908 64.6 215.108 64.856C214.308 65.112 213.46 65.24 212.564 65.24ZM220.816 70.184V55.904C220.816 55.408 220.8 54.904 220.768 54.392C220.736 53.88 220.688 53.376 220.624 52.88H223.528L223.792 55.424H223.528C223.768 54.576 224.272 53.904 225.04 53.408C225.824 52.896 226.728 52.64 227.752 52.64C228.824 52.64 229.76 52.896 230.56 53.408C231.36 53.904 231.984 54.624 232.432 55.568C232.88 56.496 233.104 57.616 233.104 58.928C233.104 60.24 232.88 61.368 232.432 62.312C231.984 63.256 231.36 63.984 230.56 64.496C229.76 64.992 228.824 65.24 227.752 65.24C226.744 65.24 225.856 64.992 225.088 64.496C224.32 64 223.808 63.336 223.552 62.504H223.816V70.184H220.816ZM226.912 62.936C227.872 62.936 228.64 62.608 229.216 61.952C229.792 61.28 230.08 60.272 230.08 58.928C230.08 57.584 229.792 56.584 229.216 55.928C228.64 55.272 227.872 54.944 226.912 54.944C225.968 54.944 225.208 55.272 224.632 55.928C224.056 56.584 223.768 57.584 223.768 58.928C223.768 60.272 224.056 61.28 224.632 61.952C225.208 62.608 225.968 62.936 226.912 62.936ZM242.131 65.24C240.883 65.24 239.803 64.984 238.891 64.472C237.979 63.96 237.267 63.232 236.755 62.288C236.259 61.344 236.011 60.224 236.011 58.928C236.011 57.632 236.259 56.52 236.755 55.592C237.267 54.648 237.979 53.92 238.891 53.408C239.803 52.896 240.883 52.64 242.131 52.64C243.379 52.64 244.459 52.896 245.371 53.408C246.299 53.92 247.011 54.648 247.507 55.592C248.019 56.52 248.275 57.632 248.275 58.928C248.275 60.224 248.019 61.344 247.507 62.288C247.011 63.232 246.299 63.96 245.371 64.472C244.459 64.984 243.379 65.24 242.131 65.24ZM242.131 62.936C243.075 62.936 243.827 62.608 244.387 61.952C244.947 61.28 245.227 60.272 245.227 58.928C245.227 57.584 244.947 56.584 244.387 55.928C243.827 55.272 243.075 54.944 242.131 54.944C241.187 54.944 240.435 55.272 239.875 55.928C239.315 56.584 239.035 57.584 239.035 58.928C239.035 60.272 239.315 61.28 239.875 61.952C240.435 62.608 241.187 62.936 242.131 62.936ZM251.798 65V55.976C251.798 55.464 251.782 54.944 251.75 54.416C251.734 53.888 251.694 53.376 251.63 52.88H254.534L254.87 56.192H254.39C254.55 55.392 254.814 54.728 255.182 54.2C255.566 53.672 256.03 53.28 256.574 53.024C257.118 52.768 257.71 52.64 258.35 52.64C258.638 52.64 258.87 52.656 259.046 52.688C259.222 52.704 259.398 52.744 259.574 52.808L259.55 55.448C259.246 55.32 258.982 55.24 258.758 55.208C258.55 55.176 258.286 55.16 257.966 55.16C257.278 55.16 256.694 55.304 256.214 55.592C255.75 55.88 255.398 56.28 255.158 56.792C254.934 57.304 254.822 57.888 254.822 58.544V65H251.798ZM268.068 65.24C266.628 65.24 265.54 64.864 264.804 64.112C264.068 63.36 263.7 62.232 263.7 60.728V55.136H261.372V52.88H263.7V49.784L266.7 49.016V52.88H269.94V55.136H266.7V60.536C266.7 61.368 266.86 61.952 267.18 62.288C267.5 62.624 267.94 62.792 268.5 62.792C268.804 62.792 269.06 62.768 269.268 62.72C269.492 62.672 269.708 62.608 269.916 62.528V64.904C269.644 65.016 269.34 65.096 269.004 65.144C268.684 65.208 268.372 65.24 268.068 65.24Z" fill="black"/>
<path d="M60.144 126V115.84H56.16V114.72H65.44V115.84H61.472V126H60.144ZM69.9095 126.144C68.6508 126.144 67.6588 125.781 66.9335 125.056C66.2082 124.32 65.8455 123.301 65.8455 122C65.8455 121.157 66.0055 120.427 66.3255 119.808C66.6455 119.179 67.0935 118.693 67.6695 118.352C68.2455 118 68.9068 117.824 69.6535 117.824C70.3895 117.824 71.0082 117.979 71.5095 118.288C72.0108 118.597 72.3948 119.04 72.6615 119.616C72.9282 120.181 73.0615 120.853 73.0615 121.632V122.112H66.8375V121.296H72.2135L71.9415 121.504C71.9415 120.651 71.7495 119.984 71.3655 119.504C70.9815 119.024 70.4108 118.784 69.6535 118.784C68.8535 118.784 68.2295 119.067 67.7815 119.632C67.3335 120.187 67.1095 120.939 67.1095 121.888V122.032C67.1095 123.035 67.3548 123.797 67.8455 124.32C68.3468 124.832 69.0455 125.088 69.9415 125.088C70.4215 125.088 70.8695 125.019 71.2855 124.88C71.7122 124.731 72.1175 124.491 72.5015 124.16L72.9495 125.072C72.5975 125.413 72.1495 125.68 71.6055 125.872C71.0722 126.053 70.5068 126.144 69.9095 126.144ZM79.0606 126.144C78.2713 126.144 77.5833 125.973 76.9966 125.632C76.4206 125.291 75.9726 124.805 75.6526 124.176C75.3433 123.547 75.1886 122.8 75.1886 121.936C75.1886 121.061 75.3486 120.32 75.6686 119.712C75.9886 119.093 76.4366 118.624 77.0126 118.304C77.5993 117.984 78.282 117.824 79.0606 117.824C79.5726 117.824 80.0686 117.915 80.5486 118.096C81.0393 118.277 81.4446 118.533 81.7646 118.864L81.3006 119.792C80.9806 119.483 80.6286 119.253 80.2446 119.104C79.8713 118.955 79.5033 118.88 79.1406 118.88C78.3086 118.88 77.6633 119.141 77.2046 119.664C76.746 120.187 76.5166 120.949 76.5166 121.952C76.5166 122.944 76.746 123.712 77.2046 124.256C77.6633 124.8 78.3086 125.072 79.1406 125.072C79.4926 125.072 79.8553 125.003 80.2286 124.864C80.6126 124.725 80.97 124.496 81.3006 124.176L81.7646 125.088C81.434 125.429 81.0233 125.691 80.5326 125.872C80.042 126.053 79.5513 126.144 79.0606 126.144ZM84.2465 126V114.224H85.5425V119.744H85.3345C85.5585 119.115 85.9318 118.64 86.4545 118.32C86.9878 117.989 87.6012 117.824 88.2945 117.824C89.2545 117.824 89.9692 118.085 90.4385 118.608C90.9078 119.12 91.1425 119.899 91.1425 120.944V126H89.8465V121.024C89.8465 120.277 89.6972 119.733 89.3985 119.392C89.1105 119.051 88.6412 118.88 87.9905 118.88C87.2438 118.88 86.6465 119.109 86.1985 119.568C85.7612 120.027 85.5425 120.629 85.5425 121.376V126H84.2465ZM94.2615 126V117.968H95.5575V126H94.2615ZM94.1015 116.144V114.688H95.7015V116.144H94.1015ZM104.506 129.456V124.112H104.682C104.511 124.741 104.159 125.237 103.626 125.6C103.093 125.963 102.474 126.144 101.77 126.144C101.055 126.144 100.431 125.979 99.898 125.648C99.3647 125.307 98.9487 124.827 98.65 124.208C98.362 123.589 98.218 122.848 98.218 121.984C98.218 121.109 98.362 120.363 98.65 119.744C98.9487 119.125 99.3647 118.651 99.898 118.32C100.431 117.989 101.055 117.824 101.77 117.824C102.495 117.824 103.119 118.011 103.642 118.384C104.175 118.747 104.527 119.243 104.698 119.872H104.506L104.682 117.968H105.93C105.898 118.277 105.866 118.592 105.834 118.912C105.813 119.221 105.802 119.525 105.802 119.824V129.456H104.506ZM102.026 125.088C102.794 125.088 103.402 124.827 103.85 124.304C104.298 123.771 104.522 122.997 104.522 121.984C104.522 120.96 104.298 120.187 103.85 119.664C103.402 119.131 102.794 118.864 102.026 118.864C101.269 118.864 100.661 119.131 100.202 119.664C99.754 120.187 99.53 120.96 99.53 121.984C99.53 122.997 99.754 123.771 100.202 124.304C100.661 124.827 101.269 125.088 102.026 125.088ZM111.78 126.144C110.83 126.144 110.11 125.883 109.62 125.36C109.14 124.837 108.9 124.037 108.9 122.96V117.968H110.196V122.928C110.196 123.664 110.345 124.208 110.644 124.56C110.942 124.901 111.406 125.072 112.036 125.072C112.74 125.072 113.305 124.843 113.732 124.384C114.158 123.925 114.372 123.312 114.372 122.544V117.968H115.668V126H114.404V124.192H114.612C114.388 124.811 114.025 125.291 113.524 125.632C113.033 125.973 112.452 126.144 111.78 126.144ZM122.39 126.144C121.131 126.144 120.139 125.781 119.414 125.056C118.689 124.32 118.326 123.301 118.326 122C118.326 121.157 118.486 120.427 118.806 119.808C119.126 119.179 119.574 118.693 120.15 118.352C120.726 118 121.387 117.824 122.134 117.824C122.87 117.824 123.489 117.979 123.99 118.288C124.491 118.597 124.875 119.04 125.142 119.616C125.409 120.181 125.542 120.853 125.542 121.632V122.112H119.318V121.296H124.694L124.422 121.504C124.422 120.651 124.23 119.984 123.846 119.504C123.462 119.024 122.891 118.784 122.134 118.784C121.334 118.784 120.71 119.067 120.262 119.632C119.814 120.187 119.59 120.939 119.59 121.888V122.032C119.59 123.035 119.835 123.797 120.326 124.32C120.827 124.832 121.526 125.088 122.422 125.088C122.902 125.088 123.35 125.019 123.766 124.88C124.193 124.731 124.598 124.491 124.982 124.16L125.43 125.072C125.078 125.413 124.63 125.68 124.086 125.872C123.553 126.053 122.987 126.144 122.39 126.144Z" fill="#00ADB5"/>
<line x1="59" y1="143" x2="495" y2="143" stroke="#DFEAF0" stroke-width="6" stroke-linecap="round"/>
<path d="M57.408 204V192.72H64.448V193.808H58.736V197.76H64.096V198.848H58.736V204H57.408ZM66.8884 204V195.968H68.1844V204H66.8884ZM66.7284 194.144V192.688H68.3284V194.144H66.7284ZM71.3409 204V197.824C71.3409 197.525 71.3249 197.221 71.2929 196.912C71.2715 196.592 71.2449 196.277 71.2129 195.968H72.4609L72.6209 197.728H72.4289C72.6635 197.109 73.0369 196.64 73.5489 196.32C74.0715 195.989 74.6742 195.824 75.3569 195.824C76.3062 195.824 77.0209 196.08 77.5009 196.592C77.9915 197.093 78.2369 197.888 78.2369 198.976V204H76.9409V199.056C76.9409 198.299 76.7862 197.749 76.4769 197.408C76.1782 197.056 75.7089 196.88 75.0689 196.88C74.3222 196.88 73.7302 197.109 73.2929 197.568C72.8555 198.027 72.6369 198.64 72.6369 199.408V204H71.3409ZM84.3959 204.144C83.6919 204.144 83.0732 203.979 82.5399 203.648C82.0065 203.307 81.5905 202.827 81.2919 202.208C81.0039 201.589 80.8599 200.848 80.8599 199.984C80.8599 199.109 81.0039 198.363 81.2919 197.744C81.5905 197.125 82.0065 196.651 82.5399 196.32C83.0732 195.989 83.6919 195.824 84.3959 195.824C85.1212 195.824 85.7452 196.005 86.2679 196.368C86.8012 196.731 87.1585 197.221 87.3399 197.84H87.1479V192.224H88.4439V204H87.1639V202.08H87.3399C87.1692 202.72 86.8172 203.227 86.2839 203.6C85.7505 203.963 85.1212 204.144 84.3959 204.144ZM84.6679 203.088C85.4252 203.088 86.0332 202.827 86.4919 202.304C86.9505 201.771 87.1799 200.997 87.1799 199.984C87.1799 198.96 86.9505 198.187 86.4919 197.664C86.0332 197.131 85.4252 196.864 84.6679 196.864C83.9105 196.864 83.3025 197.131 82.8439 197.664C82.3959 198.187 82.1719 198.96 82.1719 199.984C82.1719 200.997 82.3959 201.771 82.8439 202.304C83.3025 202.827 83.9105 203.088 84.6679 203.088ZM91.5896 204V195.968H92.8856V204H91.5896ZM91.4296 194.144V192.688H93.0296V194.144H91.4296ZM96.0421 204V195.968H97.3381V204H96.0421ZM95.8821 194.144V192.688H97.4821V194.144H95.8821ZM100.495 204V197.824C100.495 197.525 100.479 197.221 100.447 196.912C100.425 196.592 100.399 196.277 100.367 195.968H101.615L101.775 197.728H101.583C101.817 197.109 102.191 196.64 102.703 196.32C103.225 195.989 103.828 195.824 104.511 195.824C105.46 195.824 106.175 196.08 106.655 196.592C107.145 197.093 107.391 197.888 107.391 198.976V204H106.095V199.056C106.095 198.299 105.94 197.749 105.631 197.408C105.332 197.056 104.863 196.88 104.223 196.88C103.476 196.88 102.884 197.109 102.447 197.568C102.009 198.027 101.791 198.64 101.791 199.408V204H100.495ZM114.046 207.568C113.352 207.568 112.712 207.483 112.126 207.312C111.539 207.141 111.011 206.88 110.542 206.528L110.926 205.552C111.256 205.787 111.582 205.973 111.902 206.112C112.222 206.251 112.552 206.352 112.894 206.416C113.235 206.491 113.598 206.528 113.982 206.528C114.771 206.528 115.368 206.32 115.774 205.904C116.179 205.488 116.382 204.896 116.382 204.128V201.776H116.542C116.371 202.405 116.019 202.907 115.486 203.28C114.952 203.643 114.328 203.824 113.614 203.824C112.878 203.824 112.238 203.664 111.694 203.344C111.16 203.013 110.744 202.549 110.446 201.952C110.158 201.344 110.014 200.629 110.014 199.808C110.014 198.997 110.158 198.293 110.446 197.696C110.744 197.099 111.16 196.64 111.694 196.32C112.238 195.989 112.878 195.824 113.614 195.824C114.339 195.824 114.963 196.005 115.486 196.368C116.019 196.731 116.371 197.232 116.542 197.872L116.382 197.712L116.526 195.968H117.79C117.747 196.277 117.715 196.592 117.694 196.912C117.672 197.221 117.662 197.525 117.662 197.824V203.952C117.662 205.147 117.352 206.048 116.734 206.656C116.126 207.264 115.23 207.568 114.046 207.568ZM113.854 202.768C114.632 202.768 115.246 202.512 115.694 202C116.142 201.477 116.366 200.747 116.366 199.808C116.366 198.869 116.142 198.144 115.694 197.632C115.246 197.12 114.632 196.864 113.854 196.864C113.086 196.864 112.472 197.12 112.014 197.632C111.555 198.144 111.326 198.869 111.326 199.808C111.326 200.747 111.555 201.477 112.014 202C112.472 202.512 113.086 202.768 113.854 202.768ZM123.462 204.144C122.822 204.144 122.225 204.059 121.67 203.888C121.116 203.707 120.657 203.456 120.294 203.136L120.742 202.224C121.137 202.533 121.564 202.763 122.022 202.912C122.492 203.061 122.977 203.136 123.478 203.136C124.118 203.136 124.598 203.024 124.918 202.8C125.249 202.565 125.414 202.245 125.414 201.84C125.414 201.531 125.308 201.285 125.094 201.104C124.892 200.912 124.556 200.763 124.086 200.656L122.598 200.352C121.916 200.203 121.404 199.952 121.062 199.6C120.721 199.237 120.55 198.779 120.55 198.224C120.55 197.755 120.673 197.344 120.918 196.992C121.164 196.629 121.521 196.347 121.99 196.144C122.46 195.931 123.009 195.824 123.638 195.824C124.225 195.824 124.764 195.915 125.254 196.096C125.756 196.267 126.172 196.517 126.502 196.848L126.038 197.744C125.718 197.435 125.35 197.205 124.934 197.056C124.529 196.896 124.108 196.816 123.67 196.816C123.041 196.816 122.566 196.944 122.246 197.2C121.937 197.445 121.782 197.771 121.782 198.176C121.782 198.485 121.878 198.741 122.07 198.944C122.273 199.136 122.582 199.28 122.998 199.376L124.486 199.68C125.212 199.84 125.75 200.091 126.102 200.432C126.465 200.763 126.646 201.211 126.646 201.776C126.646 202.256 126.513 202.677 126.246 203.04C125.98 203.392 125.606 203.664 125.126 203.856C124.657 204.048 124.102 204.144 123.462 204.144Z" fill="#00ADB5"/>
<line x1="59" y1="253" x2="313" y2="253" stroke="#DFEAF0" stroke-width="6" stroke-linecap="round"/>
<line x1="59" y1="221" x2="495" y2="221" stroke="#DFEAF0" stroke-width="6" stroke-linecap="round"/>
<line x1="59" y1="237" x2="435" y2="237" stroke="#DFEAF0" stroke-width="6" stroke-linecap="round"/>
<path d="M57.408 314V302.72H58.736V314H57.408ZM62.0446 314V307.824C62.0446 307.525 62.0286 307.221 61.9966 306.912C61.9753 306.592 61.9486 306.277 61.9166 305.968H63.1646L63.3246 307.728H63.1326C63.346 307.12 63.682 306.651 64.1406 306.32C64.61 305.989 65.1753 305.824 65.8366 305.824C66.5086 305.824 67.0526 305.984 67.4686 306.304C67.8953 306.624 68.1833 307.12 68.3326 307.792H68.0926C68.2953 307.184 68.6526 306.704 69.1646 306.352C69.6766 306 70.274 305.824 70.9566 305.824C71.842 305.824 72.5086 306.08 72.9566 306.592C73.4046 307.093 73.6286 307.888 73.6286 308.976V314H72.3326V309.056C72.3326 308.299 72.1993 307.749 71.9326 307.408C71.666 307.056 71.2393 306.88 70.6526 306.88C69.9806 306.88 69.4473 307.115 69.0526 307.584C68.6686 308.043 68.4766 308.661 68.4766 309.44V314H67.1806V309.056C67.1806 308.299 67.0473 307.749 66.7806 307.408C66.514 307.056 66.0873 306.88 65.5006 306.88C64.8286 306.88 64.3006 307.115 63.9166 307.584C63.5326 308.043 63.3406 308.661 63.3406 309.44V314H62.0446ZM76.7315 317.456V307.824C76.7315 307.525 76.7155 307.221 76.6835 306.912C76.6622 306.592 76.6355 306.277 76.6035 305.968H77.8515L78.0275 307.872H77.8355C78.0062 307.243 78.3528 306.747 78.8755 306.384C79.3982 306.011 80.0222 305.824 80.7475 305.824C81.4728 305.824 82.0968 305.989 82.6195 306.32C83.1528 306.651 83.5688 307.125 83.8675 307.744C84.1662 308.363 84.3155 309.109 84.3155 309.984C84.3155 310.848 84.1662 311.589 83.8675 312.208C83.5795 312.827 83.1688 313.307 82.6355 313.648C82.1022 313.979 81.4728 314.144 80.7475 314.144C80.0328 314.144 79.4142 313.963 78.8915 313.6C78.3688 313.237 78.0222 312.741 77.8515 312.112H78.0275V317.456H76.7315ZM80.4915 313.088C81.2595 313.088 81.8675 312.827 82.3155 312.304C82.7742 311.771 83.0035 310.997 83.0035 309.984C83.0035 308.96 82.7742 308.187 82.3155 307.664C81.8675 307.131 81.2595 306.864 80.4915 306.864C79.7342 306.864 79.1262 307.131 78.6675 307.664C78.2195 308.187 77.9955 308.96 77.9955 309.984C77.9955 310.997 78.2195 311.771 78.6675 312.304C79.1262 312.827 79.7342 313.088 80.4915 313.088ZM86.9333 314V307.904C86.9333 307.584 86.9226 307.259 86.9013 306.928C86.8906 306.597 86.8693 306.277 86.8373 305.968H88.0853L88.2453 307.92L88.0213 307.936C88.1279 307.456 88.3146 307.061 88.5813 306.752C88.8479 306.443 89.1626 306.213 89.5253 306.064C89.8879 305.904 90.2666 305.824 90.6613 305.824C90.8213 305.824 90.9599 305.829 91.0773 305.84C91.2053 305.851 91.3226 305.877 91.4293 305.92L91.4133 307.072C91.2533 307.019 91.1039 306.987 90.9653 306.976C90.8373 306.955 90.6879 306.944 90.5173 306.944C90.0479 306.944 89.6373 307.056 89.2853 307.28C88.9439 307.504 88.6826 307.792 88.5013 308.144C88.3306 308.496 88.2453 308.869 88.2453 309.264V314H86.9333ZM96.892 314.144C95.6333 314.144 94.6413 313.781 93.916 313.056C93.1907 312.32 92.828 311.301 92.828 310C92.828 309.157 92.988 308.427 93.308 307.808C93.628 307.179 94.076 306.693 94.652 306.352C95.228 306 95.8893 305.824 96.636 305.824C97.372 305.824 97.9907 305.979 98.492 306.288C98.9933 306.597 99.3773 307.04 99.644 307.616C99.9107 308.181 100.044 308.853 100.044 309.632V310.112H93.82V309.296H99.196L98.924 309.504C98.924 308.651 98.732 307.984 98.348 307.504C97.964 307.024 97.3933 306.784 96.636 306.784C95.836 306.784 95.212 307.067 94.764 307.632C94.316 308.187 94.092 308.939 94.092 309.888V310.032C94.092 311.035 94.3373 311.797 94.828 312.32C95.3293 312.832 96.028 313.088 96.924 313.088C97.404 313.088 97.852 313.019 98.268 312.88C98.6947 312.731 99.1 312.491 99.484 312.16L99.932 313.072C99.58 313.413 99.132 313.68 98.588 313.872C98.0547 314.053 97.4893 314.144 96.892 314.144ZM105.339 314.144C104.699 314.144 104.102 314.059 103.547 313.888C102.992 313.707 102.534 313.456 102.171 313.136L102.619 312.224C103.014 312.533 103.44 312.763 103.899 312.912C104.368 313.061 104.854 313.136 105.355 313.136C105.995 313.136 106.475 313.024 106.795 312.8C107.126 312.565 107.291 312.245 107.291 311.84C107.291 311.531 107.184 311.285 106.971 311.104C106.768 310.912 106.432 310.763 105.963 310.656L104.475 310.352C103.792 310.203 103.28 309.952 102.939 309.6C102.598 309.237 102.427 308.779 102.427 308.224C102.427 307.755 102.55 307.344 102.795 306.992C103.04 306.629 103.398 306.347 103.867 306.144C104.336 305.931 104.886 305.824 105.515 305.824C106.102 305.824 106.64 305.915 107.131 306.096C107.632 306.267 108.048 306.517 108.379 306.848L107.915 307.744C107.595 307.435 107.227 307.205 106.811 307.056C106.406 306.896 105.984 306.816 105.547 306.816C104.918 306.816 104.443 306.944 104.123 307.2C103.814 307.445 103.659 307.771 103.659 308.176C103.659 308.485 103.755 308.741 103.947 308.944C104.15 309.136 104.459 309.28 104.875 309.376L106.363 309.68C107.088 309.84 107.627 310.091 107.979 310.432C108.342 310.763 108.523 311.211 108.523 311.776C108.523 312.256 108.39 312.677 108.123 313.04C107.856 313.392 107.483 313.664 107.003 313.856C106.534 314.048 105.979 314.144 105.339 314.144ZM113.917 314.144C113.277 314.144 112.679 314.059 112.125 313.888C111.57 313.707 111.111 313.456 110.749 313.136L111.197 312.224C111.591 312.533 112.018 312.763 112.477 312.912C112.946 313.061 113.431 313.136 113.933 313.136C114.573 313.136 115.053 313.024 115.373 312.8C115.703 312.565 115.869 312.245 115.869 311.84C115.869 311.531 115.762 311.285 115.549 311.104C115.346 310.912 115.01 310.763 114.541 310.656L113.053 310.352C112.37 310.203 111.858 309.952 111.517 309.6C111.175 309.237 111.005 308.779 111.005 308.224C111.005 307.755 111.127 307.344 111.373 306.992C111.618 306.629 111.975 306.347 112.445 306.144C112.914 305.931 113.463 305.824 114.093 305.824C114.679 305.824 115.218 305.915 115.709 306.096C116.21 306.267 116.626 306.517 116.957 306.848L116.493 307.744C116.173 307.435 115.805 307.205 115.389 307.056C114.983 306.896 114.562 306.816 114.125 306.816C113.495 306.816 113.021 306.944 112.701 307.2C112.391 307.445 112.237 307.771 112.237 308.176C112.237 308.485 112.333 308.741 112.525 308.944C112.727 309.136 113.037 309.28 113.453 309.376L114.941 309.68C115.666 309.84 116.205 310.091 116.557 310.432C116.919 310.763 117.101 311.211 117.101 311.776C117.101 312.256 116.967 312.677 116.701 313.04C116.434 313.392 116.061 313.664 115.581 313.856C115.111 314.048 114.557 314.144 113.917 314.144ZM119.822 314V305.968H121.118V314H119.822ZM119.662 304.144V302.688H121.262V304.144H119.662ZM127.571 314.144C126.803 314.144 126.131 313.979 125.555 313.648C124.989 313.307 124.552 312.827 124.243 312.208C123.933 311.579 123.779 310.837 123.779 309.984C123.779 309.12 123.933 308.379 124.243 307.76C124.552 307.141 124.989 306.667 125.555 306.336C126.131 305.995 126.803 305.824 127.571 305.824C128.349 305.824 129.021 305.995 129.587 306.336C130.163 306.667 130.605 307.141 130.915 307.76C131.235 308.379 131.395 309.12 131.395 309.984C131.395 310.837 131.235 311.579 130.915 312.208C130.605 312.827 130.163 313.307 129.587 313.648C129.021 313.979 128.349 314.144 127.571 314.144ZM127.571 313.088C128.339 313.088 128.947 312.827 129.395 312.304C129.843 311.771 130.067 310.997 130.067 309.984C130.067 308.96 129.837 308.187 129.379 307.664C128.931 307.131 128.328 306.864 127.571 306.864C126.813 306.864 126.211 307.131 125.763 307.664C125.315 308.187 125.091 308.96 125.091 309.984C125.091 310.997 125.315 311.771 125.763 312.304C126.211 312.827 126.813 313.088 127.571 313.088ZM134.055 314V307.824C134.055 307.525 134.039 307.221 134.007 306.912C133.986 306.592 133.959 306.277 133.927 305.968H135.175L135.335 307.728H135.143C135.378 307.109 135.751 306.64 136.263 306.32C136.786 305.989 137.389 305.824 138.071 305.824C139.021 305.824 139.735 306.08 140.215 306.592C140.706 307.093 140.951 307.888 140.951 308.976V314H139.655V309.056C139.655 308.299 139.501 307.749 139.191 307.408C138.893 307.056 138.423 306.88 137.783 306.88C137.037 306.88 136.445 307.109 136.007 307.568C135.57 308.027 135.351 308.64 135.351 309.408V314H134.055Z" fill="#00ADB5"/>
<line x1="59" y1="331" x2="495" y2="331" stroke="#DFEAF0" stroke-width="6" stroke-linecap="round"/>
<g filter="url(#filter1_d_582_1698)">
<rect x="56" y="374" width="185" height="46" rx="6" fill="#00ADB5" shape-rendering="crispEdges"/>
<path d="M76.288 403L81.264 391.72H82.416L87.472 403H86.096L84.688 399.784L85.28 400.12H78.384L79.024 399.784L77.648 403H76.288ZM81.824 393.24L79.232 399.32L78.848 399.032H84.8L84.512 399.32L81.856 393.24H81.824ZM89.6696 406.456V396.824C89.6696 396.525 89.6536 396.221 89.6216 395.912C89.6003 395.592 89.5736 395.277 89.5416 394.968H90.7896L90.9656 396.872H90.7736C90.9443 396.243 91.291 395.747 91.8136 395.384C92.3363 395.011 92.9603 394.824 93.6856 394.824C94.411 394.824 95.035 394.989 95.5576 395.32C96.091 395.651 96.507 396.125 96.8056 396.744C97.1043 397.363 97.2536 398.109 97.2536 398.984C97.2536 399.848 97.1043 400.589 96.8056 401.208C96.5176 401.827 96.107 402.307 95.5736 402.648C95.0403 402.979 94.411 403.144 93.6856 403.144C92.971 403.144 92.3523 402.963 91.8296 402.6C91.307 402.237 90.9603 401.741 90.7896 401.112H90.9656V406.456H89.6696ZM93.4296 402.088C94.1976 402.088 94.8056 401.827 95.2536 401.304C95.7123 400.771 95.9416 399.997 95.9416 398.984C95.9416 397.96 95.7123 397.187 95.2536 396.664C94.8056 396.131 94.1976 395.864 93.4296 395.864C92.6723 395.864 92.0643 396.131 91.6056 396.664C91.1576 397.187 90.9336 397.96 90.9336 398.984C90.9336 399.997 91.1576 400.771 91.6056 401.304C92.0643 401.827 92.6723 402.088 93.4296 402.088ZM99.9034 406.456V396.824C99.9034 396.525 99.8874 396.221 99.8554 395.912C99.834 395.592 99.8074 395.277 99.7754 394.968H101.023L101.199 396.872H101.007C101.178 396.243 101.525 395.747 102.047 395.384C102.57 395.011 103.194 394.824 103.919 394.824C104.645 394.824 105.269 394.989 105.791 395.32C106.325 395.651 106.741 396.125 107.039 396.744C107.338 397.363 107.487 398.109 107.487 398.984C107.487 399.848 107.338 400.589 107.039 401.208C106.751 401.827 106.341 402.307 105.807 402.648C105.274 402.979 104.645 403.144 103.919 403.144C103.205 403.144 102.586 402.963 102.063 402.6C101.541 402.237 101.194 401.741 101.023 401.112H101.199V406.456H99.9034ZM103.663 402.088C104.431 402.088 105.039 401.827 105.487 401.304C105.946 400.771 106.175 399.997 106.175 398.984C106.175 397.96 105.946 397.187 105.487 396.664C105.039 396.131 104.431 395.864 103.663 395.864C102.906 395.864 102.298 396.131 101.839 396.664C101.391 397.187 101.167 397.96 101.167 398.984C101.167 399.997 101.391 400.771 101.839 401.304C102.298 401.827 102.906 402.088 103.663 402.088ZM110.105 403V396.904C110.105 396.584 110.094 396.259 110.073 395.928C110.062 395.597 110.041 395.277 110.009 394.968H111.257L111.417 396.92L111.193 396.936C111.3 396.456 111.486 396.061 111.753 395.752C112.02 395.443 112.334 395.213 112.697 395.064C113.06 394.904 113.438 394.824 113.833 394.824C113.993 394.824 114.132 394.829 114.249 394.84C114.377 394.851 114.494 394.877 114.601 394.92L114.585 396.072C114.425 396.019 114.276 395.987 114.137 395.976C114.009 395.955 113.86 395.944 113.689 395.944C113.22 395.944 112.809 396.056 112.457 396.28C112.116 396.504 111.854 396.792 111.673 397.144C111.502 397.496 111.417 397.869 111.417 398.264V403H110.105ZM119.792 403.144C119.024 403.144 118.352 402.979 117.776 402.648C117.211 402.307 116.773 401.827 116.464 401.208C116.155 400.579 116 399.837 116 398.984C116 398.12 116.155 397.379 116.464 396.76C116.773 396.141 117.211 395.667 117.776 395.336C118.352 394.995 119.024 394.824 119.792 394.824C120.571 394.824 121.243 394.995 121.808 395.336C122.384 395.667 122.827 396.141 123.136 396.76C123.456 397.379 123.616 398.12 123.616 398.984C123.616 399.837 123.456 400.579 123.136 401.208C122.827 401.827 122.384 402.307 121.808 402.648C121.243 402.979 120.571 403.144 119.792 403.144ZM119.792 402.088C120.56 402.088 121.168 401.827 121.616 401.304C122.064 400.771 122.288 399.997 122.288 398.984C122.288 397.96 122.059 397.187 121.6 396.664C121.152 396.131 120.549 395.864 119.792 395.864C119.035 395.864 118.432 396.131 117.984 396.664C117.536 397.187 117.312 397.96 117.312 398.984C117.312 399.997 117.536 400.771 117.984 401.304C118.432 401.827 119.035 402.088 119.792 402.088ZM128.535 403L125.095 394.968H126.503L129.383 402.04H128.951L131.863 394.968H133.207L129.767 403H128.535ZM138.766 403.144C137.507 403.144 136.515 402.781 135.79 402.056C135.064 401.32 134.702 400.301 134.702 399C134.702 398.157 134.862 397.427 135.182 396.808C135.502 396.179 135.95 395.693 136.526 395.352C137.102 395 137.763 394.824 138.51 394.824C139.246 394.824 139.864 394.979 140.366 395.288C140.867 395.597 141.251 396.04 141.518 396.616C141.784 397.181 141.918 397.853 141.918 398.632V399.112H135.694V398.296H141.07L140.798 398.504C140.798 397.651 140.606 396.984 140.222 396.504C139.838 396.024 139.267 395.784 138.51 395.784C137.71 395.784 137.086 396.067 136.638 396.632C136.19 397.187 135.966 397.939 135.966 398.888V399.032C135.966 400.035 136.211 400.797 136.702 401.32C137.203 401.832 137.902 402.088 138.798 402.088C139.278 402.088 139.726 402.019 140.142 401.88C140.568 401.731 140.974 401.491 141.358 401.16L141.806 402.072C141.454 402.413 141.006 402.68 140.462 402.872C139.928 403.053 139.363 403.144 138.766 403.144ZM158.521 403.144C158.03 402.92 157.571 402.648 157.145 402.328C156.718 401.997 156.355 401.677 156.057 401.368L156.377 401.384C155.918 401.939 155.363 402.371 154.713 402.68C154.062 402.989 153.353 403.144 152.585 403.144C151.817 403.144 151.155 403.027 150.601 402.792C150.057 402.547 149.635 402.211 149.337 401.784C149.049 401.357 148.905 400.861 148.905 400.296C148.905 399.56 149.118 398.936 149.545 398.424C149.971 397.912 150.579 397.4 151.369 396.888L151.897 396.552L151.705 396.792C151.203 396.259 150.835 395.784 150.601 395.368C150.377 394.941 150.265 394.504 150.265 394.056C150.265 393.565 150.382 393.133 150.617 392.76C150.851 392.387 151.177 392.099 151.593 391.896C152.019 391.683 152.521 391.576 153.097 391.576C153.822 391.576 154.425 391.784 154.905 392.2C155.395 392.605 155.641 393.16 155.641 393.864C155.641 394.248 155.561 394.611 155.401 394.952C155.251 395.283 154.995 395.613 154.633 395.944C154.27 396.264 153.779 396.616 153.161 397L153.193 396.696L156.297 400.056H156.009C156.286 399.619 156.499 399.08 156.649 398.44C156.809 397.789 156.899 397.107 156.921 396.392H158.057C158.035 397.277 157.913 398.104 157.689 398.872C157.465 399.629 157.166 400.301 156.793 400.888L156.761 400.504C157.038 400.803 157.374 401.107 157.769 401.416C158.163 401.715 158.59 401.971 159.049 402.184L158.521 403.144ZM152.633 402.088C153.273 402.088 153.838 401.96 154.329 401.704C154.83 401.448 155.267 401.075 155.641 400.584L155.609 400.952L152.137 397.24L152.633 397.256L152.137 397.56C151.689 397.859 151.321 398.141 151.033 398.408C150.745 398.675 150.531 398.952 150.393 399.24C150.254 399.528 150.185 399.853 150.185 400.216C150.185 400.803 150.393 401.261 150.809 401.592C151.235 401.923 151.843 402.088 152.633 402.088ZM153.097 392.552C152.617 392.552 152.227 392.691 151.929 392.968C151.63 393.235 151.481 393.592 151.481 394.04C151.481 394.275 151.518 394.493 151.593 394.696C151.678 394.899 151.817 395.123 152.009 395.368C152.201 395.603 152.457 395.901 152.777 396.264L152.425 396.312C153.161 395.864 153.694 395.464 154.025 395.112C154.366 394.749 154.537 394.355 154.537 393.928C154.537 393.512 154.403 393.181 154.137 392.936C153.881 392.68 153.534 392.552 153.097 392.552ZM169.363 403.144C168.456 403.144 167.646 403.027 166.931 402.792C166.216 402.557 165.592 402.221 165.059 401.784L165.539 400.728C165.912 401.005 166.286 401.24 166.659 401.432C167.043 401.613 167.454 401.752 167.891 401.848C168.328 401.933 168.819 401.976 169.363 401.976C170.312 401.976 171.016 401.8 171.475 401.448C171.934 401.096 172.163 400.627 172.163 400.04C172.163 399.539 172.003 399.155 171.683 398.888C171.363 398.621 170.803 398.408 170.003 398.248L168.323 397.912C167.288 397.699 166.515 397.352 166.003 396.872C165.502 396.392 165.251 395.741 165.251 394.92C165.251 394.248 165.422 393.661 165.763 393.16C166.115 392.659 166.606 392.269 167.235 391.992C167.864 391.715 168.595 391.576 169.427 391.576C170.227 391.576 170.958 391.699 171.619 391.944C172.28 392.179 172.846 392.525 173.315 392.984L172.851 394.008C172.35 393.56 171.822 393.24 171.267 393.048C170.723 392.845 170.104 392.744 169.411 392.744C168.536 392.744 167.843 392.936 167.331 393.32C166.83 393.693 166.579 394.205 166.579 394.856C166.579 395.379 166.739 395.789 167.059 396.088C167.379 396.376 167.907 396.595 168.643 396.744L170.339 397.08C171.427 397.304 172.227 397.64 172.739 398.088C173.251 398.536 173.507 399.165 173.507 399.976C173.507 400.595 173.336 401.144 172.995 401.624C172.664 402.104 172.19 402.477 171.571 402.744C170.952 403.011 170.216 403.144 169.363 403.144ZM178.98 403.144C178.03 403.144 177.31 402.883 176.82 402.36C176.34 401.837 176.1 401.037 176.1 399.96V394.968H177.396V399.928C177.396 400.664 177.545 401.208 177.844 401.56C178.142 401.901 178.606 402.072 179.236 402.072C179.94 402.072 180.505 401.843 180.932 401.384C181.358 400.925 181.572 400.312 181.572 399.544V394.968H182.868V403H181.604V401.192H181.812C181.588 401.811 181.225 402.291 180.724 402.632C180.233 402.973 179.652 403.144 178.98 403.144ZM190.054 403.144C189.329 403.144 188.705 402.963 188.182 402.6C187.659 402.227 187.307 401.72 187.126 401.08H187.302V403H186.022V391.224H187.318V396.84H187.126C187.307 396.221 187.659 395.731 188.182 395.368C188.705 395.005 189.329 394.824 190.054 394.824C190.779 394.824 191.403 394.995 191.926 395.336C192.459 395.667 192.87 396.141 193.158 396.76C193.457 397.379 193.606 398.12 193.606 398.984C193.606 399.848 193.457 400.589 193.158 401.208C192.859 401.827 192.443 402.307 191.91 402.648C191.387 402.979 190.769 403.144 190.054 403.144ZM189.782 402.088C190.539 402.088 191.147 401.827 191.606 401.304C192.065 400.781 192.294 400.008 192.294 398.984C192.294 397.96 192.065 397.187 191.606 396.664C191.147 396.131 190.539 395.864 189.782 395.864C189.025 395.864 188.417 396.131 187.958 396.664C187.51 397.187 187.286 397.96 187.286 398.984C187.286 399.997 187.51 400.771 187.958 401.304C188.417 401.827 189.025 402.088 189.782 402.088ZM196.256 403V396.824C196.256 396.525 196.24 396.221 196.208 395.912C196.187 395.592 196.16 395.277 196.128 394.968H197.376L197.536 396.728H197.344C197.557 396.12 197.893 395.651 198.352 395.32C198.821 394.989 199.387 394.824 200.048 394.824C200.72 394.824 201.264 394.984 201.68 395.304C202.107 395.624 202.395 396.12 202.544 396.792H202.304C202.507 396.184 202.864 395.704 203.376 395.352C203.888 395 204.485 394.824 205.168 394.824C206.053 394.824 206.72 395.08 207.168 395.592C207.616 396.093 207.84 396.888 207.84 397.976V403H206.544V398.056C206.544 397.299 206.411 396.749 206.144 396.408C205.877 396.056 205.451 395.88 204.864 395.88C204.192 395.88 203.659 396.115 203.264 396.584C202.88 397.043 202.688 397.661 202.688 398.44V403H201.392V398.056C201.392 397.299 201.259 396.749 200.992 396.408C200.725 396.056 200.299 395.88 199.712 395.88C199.04 395.88 198.512 396.115 198.128 396.584C197.744 397.043 197.552 397.661 197.552 398.44V403H196.256ZM210.943 403V394.968H212.239V403H210.943ZM210.783 393.144V391.688H212.383V393.144H210.783ZM218.243 403.144C217.454 403.144 216.851 402.92 216.435 402.472C216.019 402.013 215.811 401.325 215.811 400.408V395.976H214.243V394.968H215.811V392.776L217.107 392.408V394.968H219.411V395.976H217.107V400.264C217.107 400.904 217.214 401.363 217.427 401.64C217.651 401.907 217.982 402.04 218.419 402.04C218.622 402.04 218.803 402.024 218.963 401.992C219.123 401.949 219.267 401.901 219.395 401.848V402.936C219.246 403 219.065 403.048 218.851 403.08C218.649 403.123 218.446 403.144 218.243 403.144Z" fill="white"/>
</g>
</g>
<defs>
<filter id="filter0_d_582_1698" x="0" y="0" width="571" height="502" filterUnits="userSpaceOnUse" color-interpolation-filters="sRGB">
<feFlood flood-opacity="0" result="BackgroundImageFix"/>
<feColorMatrix in="SourceAlpha" type="matrix" values="0 0 0 0 0 0 0 0 0 0 0 0 0 0 0 0 0 0 127 0" result="hardAlpha"/>
<feOffset dy="16"/>
<feGaussianBlur stdDeviation="15"/>
<feComposite in2="hardAlpha" operator="out"/>
<feColorMatrix type="matrix" values="0 0 0 0 0.403846 0 0 0 0 0.403846 0 0 0 0 0.403846 0 0 0 0.16 0"/>
<feBlend mode="normal" in2="BackgroundImageFix" result="effect1_dropShadow_582_1698"/>
<feBlend mode="normal" in="SourceGraphic" in2="effect1_dropShadow_582_1698" result="shape"/>
</filter>
<filter id="filter1_d_582_1698" x="36" y="366" width="225" height="86" filterUnits="userSpaceOnUse" color-interpolation-filters="sRGB">
<feFlood flood-opacity="0" result="BackgroundImageFix"/>
<feColorMatrix in="SourceAlpha" type="matrix" values="0 0 0 0 0 0 0 0 0 0 0 0 0 0 0 0 0 0 127 0" result="hardAlpha"/>
<feOffset dy="12"/>
<feGaussianBlur stdDeviation="10"/>
<feComposite in2="hardAlpha" operator="out"/>
<feColorMatrix type="matrix" values="0 0 0 0 0.740385 0 0 0 0 0.740385 0 0 0 0 0.740385 0 0 0 0.16 0"/>
<feBlend mode="normal" in2="BackgroundImageFix" result="effect1_dropShadow_582_1698"/>
<feBlend mode="normal" in="SourceGraphic" in2="effect1_dropShadow_582_1698" result="shape"/>
</filter>
</defs>
</svg>
