<svg width="641" height="492" viewBox="0 0 641 492" fill="none" xmlns="http://www.w3.org/2000/svg">
<g filter="url(#filter0_d_580_949)">
<rect x="100" y="14" width="511" height="432" rx="10" fill="white"/>
<rect x="100.5" y="14.5" width="510" height="431" rx="9.5" stroke="#C2FCFF"/>
</g>
<rect x="120" y="90" width="470" height="260" rx="12" fill="#EBFEFF"/>
<g filter="url(#filter1_d_580_949)">
<rect x="483" y="385" width="107" height="46" rx="6" fill="#00ADB5" shape-rendering="crispEdges"/>
<path d="M503.288 414L508.264 402.72H509.416L514.472 414H513.096L511.688 410.784L512.28 411.12H505.384L506.024 410.784L504.648 414H503.288ZM508.824 404.24L506.232 410.32L505.848 410.032H511.8L511.512 410.32L508.856 404.24H508.824ZM516.67 417.456V407.824C516.67 407.525 516.654 407.221 516.622 406.912C516.6 406.592 516.574 406.277 516.542 405.968H517.79L517.966 407.872H517.774C517.944 407.243 518.291 406.747 518.814 406.384C519.336 406.011 519.96 405.824 520.686 405.824C521.411 405.824 522.035 405.989 522.558 406.32C523.091 406.651 523.507 407.125 523.806 407.744C524.104 408.363 524.254 409.109 524.254 409.984C524.254 410.848 524.104 411.589 523.806 412.208C523.518 412.827 523.107 413.307 522.574 413.648C522.04 413.979 521.411 414.144 520.686 414.144C519.971 414.144 519.352 413.963 518.83 413.6C518.307 413.237 517.96 412.741 517.79 412.112H517.966V417.456H516.67ZM520.43 413.088C521.198 413.088 521.806 412.827 522.254 412.304C522.712 411.771 522.942 410.997 522.942 409.984C522.942 408.96 522.712 408.187 522.254 407.664C521.806 407.131 521.198 406.864 520.43 406.864C519.672 406.864 519.064 407.131 518.606 407.664C518.158 408.187 517.934 408.96 517.934 409.984C517.934 410.997 518.158 411.771 518.606 412.304C519.064 412.827 519.672 413.088 520.43 413.088ZM526.903 417.456V407.824C526.903 407.525 526.887 407.221 526.855 406.912C526.834 406.592 526.807 406.277 526.775 405.968H528.023L528.199 407.872H528.007C528.178 407.243 528.525 406.747 529.047 406.384C529.57 406.011 530.194 405.824 530.919 405.824C531.645 405.824 532.269 405.989 532.791 406.32C533.325 406.651 533.741 407.125 534.039 407.744C534.338 408.363 534.487 409.109 534.487 409.984C534.487 410.848 534.338 411.589 534.039 412.208C533.751 412.827 533.341 413.307 532.807 413.648C532.274 413.979 531.645 414.144 530.919 414.144C530.205 414.144 529.586 413.963 529.063 413.6C528.541 413.237 528.194 412.741 528.023 412.112H528.199V417.456H526.903ZM530.663 413.088C531.431 413.088 532.039 412.827 532.487 412.304C532.946 411.771 533.175 410.997 533.175 409.984C533.175 408.96 532.946 408.187 532.487 407.664C532.039 407.131 531.431 406.864 530.663 406.864C529.906 406.864 529.298 407.131 528.839 407.664C528.391 408.187 528.167 408.96 528.167 409.984C528.167 410.997 528.391 411.771 528.839 412.304C529.298 412.827 529.906 413.088 530.663 413.088ZM537.105 414V407.904C537.105 407.584 537.094 407.259 537.073 406.928C537.062 406.597 537.041 406.277 537.009 405.968H538.257L538.417 407.92L538.193 407.936C538.3 407.456 538.486 407.061 538.753 406.752C539.02 406.443 539.334 406.213 539.697 406.064C540.06 405.904 540.438 405.824 540.833 405.824C540.993 405.824 541.132 405.829 541.249 405.84C541.377 405.851 541.494 405.877 541.601 405.92L541.585 407.072C541.425 407.019 541.276 406.987 541.137 406.976C541.009 406.955 540.86 406.944 540.689 406.944C540.22 406.944 539.809 407.056 539.457 407.28C539.116 407.504 538.854 407.792 538.673 408.144C538.502 408.496 538.417 408.869 538.417 409.264V414H537.105ZM546.792 414.144C546.024 414.144 545.352 413.979 544.776 413.648C544.211 413.307 543.773 412.827 543.464 412.208C543.155 411.579 543 410.837 543 409.984C543 409.12 543.155 408.379 543.464 407.76C543.773 407.141 544.211 406.667 544.776 406.336C545.352 405.995 546.024 405.824 546.792 405.824C547.571 405.824 548.243 405.995 548.808 406.336C549.384 406.667 549.827 407.141 550.136 407.76C550.456 408.379 550.616 409.12 550.616 409.984C550.616 410.837 550.456 411.579 550.136 412.208C549.827 412.827 549.384 413.307 548.808 413.648C548.243 413.979 547.571 414.144 546.792 414.144ZM546.792 413.088C547.56 413.088 548.168 412.827 548.616 412.304C549.064 411.771 549.288 410.997 549.288 409.984C549.288 408.96 549.059 408.187 548.6 407.664C548.152 407.131 547.549 406.864 546.792 406.864C546.035 406.864 545.432 407.131 544.984 407.664C544.536 408.187 544.312 408.96 544.312 409.984C544.312 410.997 544.536 411.771 544.984 412.304C545.432 412.827 546.035 413.088 546.792 413.088ZM555.535 414L552.095 405.968H553.503L556.383 413.04H555.951L558.863 405.968H560.207L556.767 414H555.535ZM565.766 414.144C564.507 414.144 563.515 413.781 562.79 413.056C562.064 412.32 561.702 411.301 561.702 410C561.702 409.157 561.862 408.427 562.182 407.808C562.502 407.179 562.95 406.693 563.526 406.352C564.102 406 564.763 405.824 565.51 405.824C566.246 405.824 566.864 405.979 567.366 406.288C567.867 406.597 568.251 407.04 568.518 407.616C568.784 408.181 568.918 408.853 568.918 409.632V410.112H562.694V409.296H568.07L567.798 409.504C567.798 408.651 567.606 407.984 567.222 407.504C566.838 407.024 566.267 406.784 565.51 406.784C564.71 406.784 564.086 407.067 563.638 407.632C563.19 408.187 562.966 408.939 562.966 409.888V410.032C562.966 411.035 563.211 411.797 563.702 412.32C564.203 412.832 564.902 413.088 565.798 413.088C566.278 413.088 566.726 413.019 567.142 412.88C567.568 412.731 567.974 412.491 568.358 412.16L568.806 413.072C568.454 413.413 568.006 413.68 567.462 413.872C566.928 414.053 566.363 414.144 565.766 414.144Z" fill="white"/>
</g>
<g filter="url(#filter2_d_580_949)">
<rect x="140" y="284" width="150" height="46" rx="6" fill="#C2FCFF" shape-rendering="crispEdges"/>
<path d="M158.195 312.635C157.735 312.635 157.285 312.585 156.845 312.485C156.405 312.385 155.99 312.24 155.6 312.05C155.22 311.86 154.885 311.63 154.595 311.36L155.06 310.4C155.55 310.79 156.05 311.08 156.56 311.27C157.07 311.45 157.615 311.54 158.195 311.54C158.955 311.54 159.55 311.335 159.98 310.925C160.41 310.515 160.625 309.975 160.625 309.305C160.625 308.615 160.42 308.05 160.01 307.61C159.6 307.17 159.03 306.95 158.3 306.95C157.78 306.95 157.315 307.055 156.905 307.265C156.495 307.465 156.14 307.78 155.84 308.21H154.94V301.925H161.21V302.975H156.14V307.19H155.81C156.08 306.77 156.45 306.45 156.92 306.23C157.4 306 157.94 305.885 158.54 305.885C159.22 305.885 159.805 306.025 160.295 306.305C160.795 306.585 161.18 306.975 161.45 307.475C161.72 307.975 161.855 308.56 161.855 309.23C161.855 309.9 161.705 310.495 161.405 311.015C161.115 311.525 160.695 311.925 160.145 312.215C159.605 312.495 158.955 312.635 158.195 312.635ZM170.68 312.635C169.96 312.635 169.33 312.48 168.79 312.17C168.26 311.85 167.85 311.4 167.56 310.82C167.27 310.23 167.125 309.535 167.125 308.735C167.125 307.925 167.27 307.23 167.56 306.65C167.85 306.07 168.26 305.625 168.79 305.315C169.33 304.995 169.96 304.835 170.68 304.835C171.41 304.835 172.04 304.995 172.57 305.315C173.11 305.625 173.525 306.07 173.815 306.65C174.115 307.23 174.265 307.925 174.265 308.735C174.265 309.535 174.115 310.23 173.815 310.82C173.525 311.4 173.11 311.85 172.57 312.17C172.04 312.48 171.41 312.635 170.68 312.635ZM170.68 311.645C171.4 311.645 171.97 311.4 172.39 310.91C172.81 310.41 173.02 309.685 173.02 308.735C173.02 307.775 172.805 307.05 172.375 306.56C171.955 306.06 171.39 305.81 170.68 305.81C169.97 305.81 169.405 306.06 168.985 306.56C168.565 307.05 168.355 307.775 168.355 308.735C168.355 309.685 168.565 310.41 168.985 310.91C169.405 311.4 169.97 311.645 170.68 311.645ZM176.13 312.5V306.785C176.13 306.485 176.12 306.18 176.1 305.87C176.09 305.56 176.07 305.26 176.04 304.97H177.21L177.36 306.8L177.15 306.815C177.25 306.365 177.425 305.995 177.675 305.705C177.925 305.415 178.22 305.2 178.56 305.06C178.9 304.91 179.255 304.835 179.625 304.835C179.775 304.835 179.905 304.84 180.015 304.85C180.135 304.86 180.245 304.885 180.345 304.925L180.33 306.005C180.18 305.955 180.04 305.925 179.91 305.915C179.79 305.895 179.65 305.885 179.49 305.885C179.05 305.885 178.665 305.99 178.335 306.2C178.015 306.41 177.77 306.68 177.6 307.01C177.44 307.34 177.36 307.69 177.36 308.06V312.5H176.13ZM184.836 315.845C184.186 315.845 183.586 315.765 183.036 315.605C182.486 315.445 181.991 315.2 181.551 314.87L181.911 313.955C182.221 314.175 182.526 314.35 182.826 314.48C183.126 314.61 183.436 314.705 183.756 314.765C184.076 314.835 184.416 314.87 184.776 314.87C185.516 314.87 186.076 314.675 186.456 314.285C186.836 313.895 187.026 313.34 187.026 312.62V310.415H187.176C187.016 311.005 186.686 311.475 186.186 311.825C185.686 312.165 185.101 312.335 184.431 312.335C183.741 312.335 183.141 312.185 182.631 311.885C182.131 311.575 181.741 311.14 181.461 310.58C181.191 310.01 181.056 309.34 181.056 308.57C181.056 307.81 181.191 307.15 181.461 306.59C181.741 306.03 182.131 305.6 182.631 305.3C183.141 304.99 183.741 304.835 184.431 304.835C185.111 304.835 185.696 305.005 186.186 305.345C186.686 305.685 187.016 306.155 187.176 306.755L187.026 306.605L187.161 304.97H188.346C188.306 305.26 188.276 305.555 188.256 305.855C188.236 306.145 188.226 306.43 188.226 306.71V312.455C188.226 313.575 187.936 314.42 187.356 314.99C186.786 315.56 185.946 315.845 184.836 315.845ZM184.656 311.345C185.386 311.345 185.961 311.105 186.381 310.625C186.801 310.135 187.011 309.45 187.011 308.57C187.011 307.69 186.801 307.01 186.381 306.53C185.961 306.05 185.386 305.81 184.656 305.81C183.936 305.81 183.361 306.05 182.931 306.53C182.501 307.01 182.286 307.69 182.286 308.57C182.286 309.45 182.501 310.135 182.931 310.625C183.361 311.105 183.936 311.345 184.656 311.345ZM193.424 312.635C192.754 312.635 192.169 312.48 191.669 312.17C191.169 311.85 190.779 311.4 190.499 310.82C190.229 310.24 190.094 309.545 190.094 308.735C190.094 307.915 190.229 307.215 190.499 306.635C190.779 306.055 191.169 305.61 191.669 305.3C192.169 304.99 192.754 304.835 193.424 304.835C194.104 304.835 194.689 305.01 195.179 305.36C195.679 305.7 196.009 306.165 196.169 306.755H195.989L196.154 304.97H197.324C197.294 305.26 197.264 305.555 197.234 305.855C197.214 306.145 197.204 306.43 197.204 306.71V312.5H195.989V310.73H196.154C195.994 311.32 195.664 311.785 195.164 312.125C194.664 312.465 194.084 312.635 193.424 312.635ZM193.664 311.645C194.384 311.645 194.954 311.4 195.374 310.91C195.794 310.41 196.004 309.685 196.004 308.735C196.004 307.775 195.794 307.05 195.374 306.56C194.954 306.06 194.384 305.81 193.664 305.81C192.954 305.81 192.384 306.06 191.954 306.56C191.534 307.05 191.324 307.775 191.324 308.735C191.324 309.685 191.534 310.41 191.954 310.91C192.384 311.4 192.954 311.645 193.664 311.645ZM199.553 312.5V306.71C199.553 306.43 199.538 306.145 199.508 305.855C199.488 305.555 199.463 305.26 199.433 304.97H200.603L200.753 306.62H200.573C200.793 306.04 201.143 305.6 201.623 305.3C202.113 304.99 202.678 304.835 203.318 304.835C204.208 304.835 204.878 305.075 205.328 305.555C205.788 306.025 206.018 306.77 206.018 307.79V312.5H204.803V307.865C204.803 307.155 204.658 306.64 204.368 306.32C204.088 305.99 203.648 305.825 203.048 305.825C202.348 305.825 201.793 306.04 201.383 306.47C200.973 306.9 200.768 307.475 200.768 308.195V312.5H199.553ZM210.847 312.635C210.247 312.635 209.687 312.555 209.167 312.395C208.647 312.225 208.217 311.99 207.877 311.69L208.297 310.835C208.667 311.125 209.067 311.34 209.497 311.48C209.937 311.62 210.392 311.69 210.862 311.69C211.462 311.69 211.912 311.585 212.212 311.375C212.522 311.155 212.677 310.855 212.677 310.475C212.677 310.185 212.577 309.955 212.377 309.785C212.187 309.605 211.872 309.465 211.432 309.365L210.037 309.08C209.397 308.94 208.917 308.705 208.597 308.375C208.277 308.035 208.117 307.605 208.117 307.085C208.117 306.645 208.232 306.26 208.462 305.93C208.692 305.59 209.027 305.325 209.467 305.135C209.907 304.935 210.422 304.835 211.012 304.835C211.562 304.835 212.067 304.92 212.527 305.09C212.997 305.25 213.387 305.485 213.697 305.795L213.262 306.635C212.962 306.345 212.617 306.13 212.227 305.99C211.847 305.84 211.452 305.765 211.042 305.765C210.452 305.765 210.007 305.885 209.707 306.125C209.417 306.355 209.272 306.66 209.272 307.04C209.272 307.33 209.362 307.57 209.542 307.76C209.732 307.94 210.022 308.075 210.412 308.165L211.807 308.45C212.487 308.6 212.992 308.835 213.322 309.155C213.662 309.465 213.832 309.885 213.832 310.415C213.832 310.865 213.707 311.26 213.457 311.6C213.207 311.93 212.857 312.185 212.407 312.365C211.967 312.545 211.447 312.635 210.847 312.635ZM219.695 312.5V306.71C219.695 306.43 219.68 306.145 219.65 305.855C219.63 305.555 219.605 305.26 219.575 304.97H220.745L220.895 306.62H220.715C220.915 306.05 221.23 305.61 221.66 305.3C222.1 304.99 222.63 304.835 223.25 304.835C223.88 304.835 224.39 304.985 224.78 305.285C225.18 305.585 225.45 306.05 225.59 306.68H225.365C225.555 306.11 225.89 305.66 226.37 305.33C226.85 305 227.41 304.835 228.05 304.835C228.88 304.835 229.505 305.075 229.925 305.555C230.345 306.025 230.555 306.77 230.555 307.79V312.5H229.34V307.865C229.34 307.155 229.215 306.64 228.965 306.32C228.715 305.99 228.315 305.825 227.765 305.825C227.135 305.825 226.635 306.045 226.265 306.485C225.905 306.915 225.725 307.495 225.725 308.225V312.5H224.51V307.865C224.51 307.155 224.385 306.64 224.135 306.32C223.885 305.99 223.485 305.825 222.935 305.825C222.305 305.825 221.81 306.045 221.45 306.485C221.09 306.915 220.91 307.495 220.91 308.225V312.5H219.695ZM235.729 312.635C235.059 312.635 234.474 312.48 233.974 312.17C233.474 311.85 233.084 311.4 232.804 310.82C232.534 310.24 232.399 309.545 232.399 308.735C232.399 307.915 232.534 307.215 232.804 306.635C233.084 306.055 233.474 305.61 233.974 305.3C234.474 304.99 235.059 304.835 235.729 304.835C236.409 304.835 236.994 305.01 237.484 305.36C237.984 305.7 238.314 306.165 238.474 306.755H238.294L238.459 304.97H239.629C239.599 305.26 239.569 305.555 239.539 305.855C239.519 306.145 239.509 306.43 239.509 306.71V312.5H238.294V310.73H238.459C238.299 311.32 237.969 311.785 237.469 312.125C236.969 312.465 236.389 312.635 235.729 312.635ZM235.969 311.645C236.689 311.645 237.259 311.4 237.679 310.91C238.099 310.41 238.309 309.685 238.309 308.735C238.309 307.775 238.099 307.05 237.679 306.56C237.259 306.06 236.689 305.81 235.969 305.81C235.259 305.81 234.689 306.06 234.259 306.56C233.839 307.05 233.629 307.775 233.629 308.735C233.629 309.685 233.839 310.41 234.259 310.91C234.689 311.4 235.259 311.645 235.969 311.645ZM241.858 315.74V306.71C241.858 306.43 241.843 306.145 241.813 305.855C241.793 305.555 241.768 305.26 241.738 304.97H242.908L243.073 306.755H242.893C243.053 306.165 243.378 305.7 243.868 305.36C244.358 305.01 244.943 304.835 245.623 304.835C246.303 304.835 246.888 304.99 247.378 305.3C247.878 305.61 248.268 306.055 248.548 306.635C248.828 307.215 248.968 307.915 248.968 308.735C248.968 309.545 248.828 310.24 248.548 310.82C248.278 311.4 247.893 311.85 247.393 312.17C246.893 312.48 246.303 312.635 245.623 312.635C244.953 312.635 244.373 312.465 243.883 312.125C243.393 311.785 243.068 311.32 242.908 310.73H243.073V315.74H241.858ZM245.383 311.645C246.103 311.645 246.673 311.4 247.093 310.91C247.523 310.41 247.738 309.685 247.738 308.735C247.738 307.775 247.523 307.05 247.093 306.56C246.673 306.06 246.103 305.81 245.383 305.81C244.673 305.81 244.103 306.06 243.673 306.56C243.253 307.05 243.043 307.775 243.043 308.735C243.043 309.685 243.253 310.41 243.673 310.91C244.103 311.4 244.673 311.645 245.383 311.645ZM250.852 315.74V306.71C250.852 306.43 250.837 306.145 250.807 305.855C250.787 305.555 250.762 305.26 250.732 304.97H251.902L252.067 306.755H251.887C252.047 306.165 252.372 305.7 252.862 305.36C253.352 305.01 253.937 304.835 254.617 304.835C255.297 304.835 255.882 304.99 256.372 305.3C256.872 305.61 257.262 306.055 257.542 306.635C257.822 307.215 257.962 307.915 257.962 308.735C257.962 309.545 257.822 310.24 257.542 310.82C257.272 311.4 256.887 311.85 256.387 312.17C255.887 312.48 255.297 312.635 254.617 312.635C253.947 312.635 253.367 312.465 252.877 312.125C252.387 311.785 252.062 311.32 251.902 310.73H252.067V315.74H250.852ZM254.377 311.645C255.097 311.645 255.667 311.4 256.087 310.91C256.517 310.41 256.732 309.685 256.732 308.735C256.732 307.775 256.517 307.05 256.087 306.56C255.667 306.06 255.097 305.81 254.377 305.81C253.667 305.81 253.097 306.06 252.667 306.56C252.247 307.05 252.037 307.775 252.037 308.735C252.037 309.685 252.247 310.41 252.667 310.91C253.097 311.4 253.667 311.645 254.377 311.645ZM263.191 312.635C262.011 312.635 261.081 312.295 260.401 311.615C259.721 310.925 259.381 309.97 259.381 308.75C259.381 307.96 259.531 307.275 259.831 306.695C260.131 306.105 260.551 305.65 261.091 305.33C261.631 305 262.251 304.835 262.951 304.835C263.641 304.835 264.221 304.98 264.691 305.27C265.161 305.56 265.521 305.975 265.771 306.515C266.021 307.045 266.146 307.675 266.146 308.405V308.855H260.311V308.09H265.351L265.096 308.285C265.096 307.485 264.916 306.86 264.556 306.41C264.196 305.96 263.661 305.735 262.951 305.735C262.201 305.735 261.616 306 261.196 306.53C260.776 307.05 260.566 307.755 260.566 308.645V308.78C260.566 309.72 260.796 310.435 261.256 310.925C261.726 311.405 262.381 311.645 263.221 311.645C263.671 311.645 264.091 311.58 264.481 311.45C264.881 311.31 265.261 311.085 265.621 310.775L266.041 311.63C265.711 311.95 265.291 312.2 264.781 312.38C264.281 312.55 263.751 312.635 263.191 312.635ZM270.855 312.635C270.195 312.635 269.615 312.48 269.115 312.17C268.615 311.85 268.225 311.4 267.945 310.82C267.675 310.24 267.54 309.545 267.54 308.735C267.54 307.915 267.675 307.215 267.945 306.635C268.225 306.055 268.615 305.61 269.115 305.3C269.615 304.99 270.195 304.835 270.855 304.835C271.535 304.835 272.12 305.005 272.61 305.345C273.11 305.685 273.445 306.145 273.615 306.725H273.435V301.46H274.65V312.5H273.45V310.7H273.615C273.455 311.3 273.125 311.775 272.625 312.125C272.125 312.465 271.535 312.635 270.855 312.635ZM271.11 311.645C271.82 311.645 272.39 311.4 272.82 310.91C273.25 310.41 273.465 309.685 273.465 308.735C273.465 307.775 273.25 307.05 272.82 306.56C272.39 306.06 271.82 305.81 271.11 305.81C270.4 305.81 269.83 306.06 269.4 306.56C268.98 307.05 268.77 307.775 268.77 308.735C268.77 309.685 268.98 310.41 269.4 310.91C269.83 311.4 270.4 311.645 271.11 311.645Z" fill="#00ADB5"/>
</g>
<path d="M120 416L126.38 401.9H128.54L135 416H132.38L130.66 412.04L131.7 412.74H123.24L124.32 412.04L122.6 416H120ZM127.44 404.66L124.62 411.34L124.1 410.72H130.82L130.4 411.34L127.52 404.66H127.44ZM136.96 416V401.9H139.54V416H136.96ZM148.932 416V401.9H155.092C156.639 401.9 157.832 402.267 158.672 403C159.525 403.733 159.952 404.753 159.952 406.06C159.952 406.927 159.759 407.667 159.372 408.28C158.999 408.893 158.459 409.367 157.752 409.7C157.045 410.02 156.212 410.18 155.252 410.18L155.532 409.8H156.212C156.772 409.8 157.272 409.947 157.712 410.24C158.152 410.533 158.512 410.98 158.792 411.58L160.852 416H158.012L155.932 411.42C155.745 410.953 155.459 410.647 155.072 410.5C154.699 410.353 154.245 410.28 153.712 410.28H151.512V416H148.932ZM151.512 408.38H154.672C155.579 408.38 156.265 408.193 156.732 407.82C157.212 407.433 157.452 406.873 157.452 406.14C157.452 405.407 157.212 404.853 156.732 404.48C156.265 404.107 155.579 403.92 154.672 403.92H151.512V408.38ZM166.977 416.2C166.097 416.2 165.324 415.993 164.657 415.58C163.991 415.153 163.471 414.547 163.097 413.76C162.724 412.973 162.537 412.033 162.537 410.94C162.537 409.847 162.724 408.913 163.097 408.14C163.471 407.353 163.991 406.753 164.657 406.34C165.324 405.913 166.097 405.7 166.977 405.7C167.831 405.7 168.577 405.913 169.217 406.34C169.871 406.753 170.304 407.313 170.517 408.02H170.297L170.517 405.9H172.917C172.877 406.313 172.837 406.733 172.797 407.16C172.771 407.587 172.757 408.007 172.757 408.42V416H170.277L170.257 413.92H170.497C170.284 414.613 169.851 415.167 169.197 415.58C168.544 415.993 167.804 416.2 166.977 416.2ZM167.677 414.28C168.464 414.28 169.097 414.007 169.577 413.46C170.057 412.9 170.297 412.06 170.297 410.94C170.297 409.82 170.057 408.987 169.577 408.44C169.097 407.893 168.464 407.62 167.677 407.62C166.891 407.62 166.257 407.893 165.777 408.44C165.297 408.987 165.057 409.82 165.057 410.94C165.057 412.06 165.291 412.9 165.757 413.46C166.237 414.007 166.877 414.28 167.677 414.28ZM179.8 416.2C178.92 416.2 178.14 415.993 177.46 415.58C176.793 415.153 176.273 414.547 175.9 413.76C175.526 412.973 175.34 412.033 175.34 410.94C175.34 409.847 175.526 408.913 175.9 408.14C176.273 407.353 176.793 406.753 177.46 406.34C178.14 405.913 178.92 405.7 179.8 405.7C180.64 405.7 181.38 405.907 182.02 406.32C182.673 406.72 183.106 407.267 183.32 407.96H183.06V401.28H185.56V416H183.1V413.86H183.34C183.126 414.58 182.693 415.153 182.04 415.58C181.4 415.993 180.653 416.2 179.8 416.2ZM180.5 414.28C181.286 414.28 181.92 414.007 182.4 413.46C182.88 412.9 183.12 412.06 183.12 410.94C183.12 409.82 182.88 408.987 182.4 408.44C181.92 407.893 181.286 407.62 180.5 407.62C179.713 407.62 179.073 407.893 178.58 408.44C178.1 408.987 177.86 409.82 177.86 410.94C177.86 412.06 178.1 412.9 178.58 413.46C179.073 414.007 179.713 414.28 180.5 414.28ZM188.682 416V405.9H191.182V416H188.682ZM188.542 404V401.56H191.322V404H188.542ZM198.857 416.2C197.817 416.2 196.917 415.987 196.157 415.56C195.397 415.133 194.803 414.527 194.377 413.74C193.963 412.953 193.757 412.02 193.757 410.94C193.757 409.86 193.963 408.933 194.377 408.16C194.803 407.373 195.397 406.767 196.157 406.34C196.917 405.913 197.817 405.7 198.857 405.7C199.897 405.7 200.797 405.913 201.557 406.34C202.33 406.767 202.923 407.373 203.337 408.16C203.763 408.933 203.977 409.86 203.977 410.94C203.977 412.02 203.763 412.953 203.337 413.74C202.923 414.527 202.33 415.133 201.557 415.56C200.797 415.987 199.897 416.2 198.857 416.2ZM198.857 414.28C199.643 414.28 200.27 414.007 200.737 413.46C201.203 412.9 201.437 412.06 201.437 410.94C201.437 409.82 201.203 408.987 200.737 408.44C200.27 407.893 199.643 407.62 198.857 407.62C198.07 407.62 197.443 407.893 196.977 408.44C196.51 408.987 196.277 409.82 196.277 410.94C196.277 412.06 196.51 412.9 196.977 413.46C197.443 414.007 198.07 414.28 198.857 414.28ZM206.533 416V401.28H209.033V416H206.533ZM216.707 416.2C215.667 416.2 214.767 415.987 214.007 415.56C213.247 415.133 212.654 414.527 212.227 413.74C211.814 412.953 211.607 412.02 211.607 410.94C211.607 409.86 211.814 408.933 212.227 408.16C212.654 407.373 213.247 406.767 214.007 406.34C214.767 405.913 215.667 405.7 216.707 405.7C217.747 405.7 218.647 405.913 219.407 406.34C220.181 406.767 220.774 407.373 221.187 408.16C221.614 408.933 221.827 409.86 221.827 410.94C221.827 412.02 221.614 412.953 221.187 413.74C220.774 414.527 220.181 415.133 219.407 415.56C218.647 415.987 217.747 416.2 216.707 416.2ZM216.707 414.28C217.494 414.28 218.121 414.007 218.587 413.46C219.054 412.9 219.287 412.06 219.287 410.94C219.287 409.82 219.054 408.987 218.587 408.44C218.121 407.893 217.494 407.62 216.707 407.62C215.921 407.62 215.294 407.893 214.827 408.44C214.361 408.987 214.127 409.82 214.127 410.94C214.127 412.06 214.361 412.9 214.827 413.46C215.294 414.007 215.921 414.28 216.707 414.28ZM229.063 420.48C228.13 420.48 227.283 420.38 226.523 420.18C225.777 419.98 225.11 419.673 224.523 419.26L225.063 417.46C225.45 417.713 225.85 417.92 226.263 418.08C226.677 418.24 227.103 418.36 227.543 418.44C227.983 418.52 228.43 418.56 228.883 418.56C229.817 418.56 230.51 418.327 230.963 417.86C231.43 417.407 231.663 416.753 231.663 415.9V413.48H231.863C231.65 414.173 231.217 414.727 230.563 415.14C229.923 415.553 229.183 415.76 228.343 415.76C227.437 415.76 226.643 415.56 225.963 415.16C225.297 414.747 224.777 414.16 224.403 413.4C224.03 412.64 223.843 411.747 223.843 410.72C223.843 409.693 224.03 408.807 224.403 408.06C224.777 407.3 225.297 406.72 225.963 406.32C226.643 405.907 227.437 405.7 228.343 405.7C229.197 405.7 229.937 405.907 230.563 406.32C231.203 406.72 231.63 407.267 231.843 407.96L231.663 407.84L231.863 405.9H234.283C234.23 406.313 234.19 406.733 234.163 407.16C234.137 407.587 234.123 408.007 234.123 408.42V415.6C234.123 417.187 233.69 418.393 232.823 419.22C231.97 420.06 230.717 420.48 229.063 420.48ZM229.023 413.84C229.823 413.84 230.457 413.573 230.923 413.04C231.403 412.493 231.643 411.72 231.643 410.72C231.643 409.72 231.403 408.953 230.923 408.42C230.457 407.887 229.823 407.62 229.023 407.62C228.21 407.62 227.563 407.887 227.083 408.42C226.603 408.953 226.363 409.72 226.363 410.72C226.363 411.72 226.603 412.493 227.083 413.04C227.563 413.573 228.21 413.84 229.023 413.84ZM237.225 416V405.9H239.725V416H237.225ZM237.085 404V401.56H239.865V404H237.085ZM246.44 416.2C245.573 416.2 244.773 416.1 244.04 415.9C243.32 415.687 242.713 415.393 242.22 415.02L242.92 413.34C243.426 413.687 243.986 413.953 244.6 414.14C245.213 414.327 245.833 414.42 246.46 414.42C247.126 414.42 247.62 414.307 247.94 414.08C248.273 413.853 248.44 413.547 248.44 413.16C248.44 412.853 248.333 412.613 248.12 412.44C247.92 412.253 247.593 412.113 247.14 412.02L245.14 411.64C244.286 411.453 243.633 411.133 243.18 410.68C242.74 410.227 242.52 409.633 242.52 408.9C242.52 408.273 242.686 407.72 243.02 407.24C243.366 406.76 243.853 406.387 244.48 406.12C245.12 405.84 245.866 405.7 246.72 405.7C247.466 405.7 248.166 405.8 248.82 406C249.486 406.2 250.046 406.5 250.5 406.9L249.78 408.52C249.366 408.187 248.893 407.927 248.36 407.74C247.826 407.553 247.306 407.46 246.8 407.46C246.106 407.46 245.6 407.587 245.28 407.84C244.96 408.08 244.8 408.393 244.8 408.78C244.8 409.073 244.893 409.32 245.08 409.52C245.28 409.707 245.586 409.847 246 409.94L248 410.32C248.893 410.493 249.566 410.8 250.02 411.24C250.486 411.667 250.72 412.253 250.72 413C250.72 413.667 250.54 414.24 250.18 414.72C249.82 415.2 249.32 415.567 248.68 415.82C248.04 416.073 247.293 416.2 246.44 416.2ZM257.482 416.2C256.282 416.2 255.375 415.887 254.762 415.26C254.148 414.633 253.842 413.693 253.842 412.44V407.78H251.902V405.9H253.842V403.32L256.342 402.68V405.9H259.042V407.78H256.342V412.28C256.342 412.973 256.475 413.46 256.742 413.74C257.008 414.02 257.375 414.16 257.842 414.16C258.095 414.16 258.308 414.14 258.482 414.1C258.668 414.06 258.848 414.007 259.022 413.94V415.92C258.795 416.013 258.542 416.08 258.262 416.12C257.995 416.173 257.735 416.2 257.482 416.2Z" fill="#00ADB5"/>
<rect x="120" y="34" width="90" height="36" rx="6" fill="#00ADB5"/>
<path d="M141.53 57.126C140.541 57.126 139.701 56.9207 139.01 56.51C138.319 56.0993 137.787 55.516 137.414 54.76C137.05 54.004 136.868 53.1033 136.868 52.058C136.868 51.0127 137.05 50.1167 137.414 49.37C137.787 48.614 138.319 48.0307 139.01 47.62C139.701 47.2093 140.541 47.004 141.53 47.004C142.23 47.004 142.855 47.1113 143.406 47.326C143.957 47.5407 144.437 47.8533 144.848 48.264L144.414 49.188C143.966 48.796 143.523 48.5113 143.084 48.334C142.645 48.1473 142.132 48.054 141.544 48.054C140.415 48.054 139.556 48.404 138.968 49.104C138.38 49.804 138.086 50.7887 138.086 52.058C138.086 53.3273 138.38 54.3167 138.968 55.026C139.556 55.726 140.415 56.076 141.544 56.076C142.132 56.076 142.645 55.9873 143.084 55.81C143.523 55.6233 143.966 55.3293 144.414 54.928L144.848 55.866C144.437 56.2673 143.957 56.58 143.406 56.804C142.855 57.0187 142.23 57.126 141.53 57.126ZM149.62 57V48.11H146.134V47.13H154.254V48.11H150.782V57H149.62ZM163.665 57.126C162.872 57.126 162.163 57.0233 161.537 56.818C160.912 56.6127 160.366 56.3187 159.899 55.936L160.319 55.012C160.646 55.2547 160.973 55.46 161.299 55.628C161.635 55.7867 161.995 55.908 162.377 55.992C162.76 56.0667 163.189 56.104 163.665 56.104C164.496 56.104 165.112 55.95 165.513 55.642C165.915 55.334 166.115 54.9233 166.115 54.41C166.115 53.9713 165.975 53.6353 165.695 53.402C165.415 53.1687 164.925 52.982 164.225 52.842L162.755 52.548C161.85 52.3613 161.173 52.058 160.725 51.638C160.287 51.218 160.067 50.6487 160.067 49.93C160.067 49.342 160.217 48.8287 160.515 48.39C160.823 47.9513 161.253 47.6107 161.803 47.368C162.354 47.1253 162.993 47.004 163.721 47.004C164.421 47.004 165.061 47.1113 165.639 47.326C166.218 47.5313 166.713 47.8347 167.123 48.236L166.717 49.132C166.279 48.74 165.817 48.46 165.331 48.292C164.855 48.1147 164.314 48.026 163.707 48.026C162.942 48.026 162.335 48.194 161.887 48.53C161.449 48.8567 161.229 49.3047 161.229 49.874C161.229 50.3313 161.369 50.6907 161.649 50.952C161.929 51.204 162.391 51.3953 163.035 51.526L164.519 51.82C165.471 52.016 166.171 52.31 166.619 52.702C167.067 53.094 167.291 53.6447 167.291 54.354C167.291 54.8953 167.142 55.376 166.843 55.796C166.554 56.216 166.139 56.5427 165.597 56.776C165.056 57.0093 164.412 57.126 163.665 57.126ZM172.556 57.126C171.865 57.126 171.263 56.9767 170.75 56.678C170.246 56.3793 169.854 55.9547 169.574 55.404C169.303 54.8533 169.168 54.2 169.168 53.444C169.168 52.6787 169.308 52.03 169.588 51.498C169.868 50.9567 170.26 50.546 170.764 50.266C171.277 49.986 171.875 49.846 172.556 49.846C173.004 49.846 173.438 49.9253 173.858 50.084C174.287 50.2427 174.642 50.4667 174.922 50.756L174.516 51.568C174.236 51.2973 173.928 51.0967 173.592 50.966C173.265 50.8353 172.943 50.77 172.626 50.77C171.898 50.77 171.333 50.9987 170.932 51.456C170.531 51.9133 170.33 52.5807 170.33 53.458C170.33 54.326 170.531 54.998 170.932 55.474C171.333 55.95 171.898 56.188 172.626 56.188C172.934 56.188 173.251 56.1273 173.578 56.006C173.914 55.8847 174.227 55.684 174.516 55.404L174.922 56.202C174.633 56.5007 174.273 56.7293 173.844 56.888C173.415 57.0467 172.985 57.126 172.556 57.126ZM179.713 57.126C179.087 57.126 178.541 56.9813 178.075 56.692C177.608 56.3933 177.244 55.9733 176.983 55.432C176.731 54.8907 176.605 54.242 176.605 53.486C176.605 52.7207 176.731 52.0673 176.983 51.526C177.244 50.9847 177.608 50.5693 178.075 50.28C178.541 49.9907 179.087 49.846 179.713 49.846C180.347 49.846 180.893 50.0093 181.351 50.336C181.817 50.6533 182.125 51.0873 182.275 51.638H182.107L182.261 49.972H183.353C183.325 50.2427 183.297 50.518 183.269 50.798C183.25 51.0687 183.241 51.3347 183.241 51.596V57H182.107V55.348H182.261C182.111 55.8987 181.803 56.3327 181.337 56.65C180.87 56.9673 180.329 57.126 179.713 57.126ZM179.937 56.202C180.609 56.202 181.141 55.9733 181.533 55.516C181.925 55.0493 182.121 54.3727 182.121 53.486C182.121 52.59 181.925 51.9133 181.533 51.456C181.141 50.9893 180.609 50.756 179.937 50.756C179.274 50.756 178.742 50.9893 178.341 51.456C177.949 51.9133 177.753 52.59 177.753 53.486C177.753 54.3727 177.949 55.0493 178.341 55.516C178.742 55.9733 179.274 56.202 179.937 56.202ZM185.993 57V51.596C185.993 51.3347 185.979 51.0687 185.951 50.798C185.933 50.518 185.909 50.2427 185.881 49.972H186.973L187.113 51.512H186.945C187.151 50.9707 187.477 50.56 187.925 50.28C188.383 49.9907 188.91 49.846 189.507 49.846C190.338 49.846 190.963 50.07 191.383 50.518C191.813 50.9567 192.027 51.652 192.027 52.604V57H190.893V52.674C190.893 52.0113 190.758 51.5307 190.487 51.232C190.226 50.924 189.815 50.77 189.255 50.77C188.602 50.77 188.084 50.9707 187.701 51.372C187.319 51.7733 187.127 52.31 187.127 52.982V57H185.993Z" fill="white"/>
<path d="M227.232 57V47.13H231.264C232.3 47.13 233.103 47.3773 233.672 47.872C234.241 48.3573 234.526 49.0387 234.526 49.916C234.526 50.4947 234.395 50.9893 234.134 51.4C233.882 51.8013 233.523 52.1093 233.056 52.324C232.599 52.5387 232.062 52.646 231.446 52.646L231.698 52.464H231.978C232.361 52.464 232.701 52.5573 233 52.744C233.308 52.9307 233.551 53.2433 233.728 53.682L235.128 57H233.854L232.51 53.738C232.351 53.318 232.113 53.0473 231.796 52.926C231.479 52.7953 231.082 52.73 230.606 52.73H228.394V57H227.232ZM228.394 51.82H231.096C231.843 51.82 232.407 51.6613 232.79 51.344C233.182 51.0173 233.378 50.5507 233.378 49.944C233.378 49.3373 233.182 48.8753 232.79 48.558C232.407 48.2407 231.843 48.082 231.096 48.082H228.394V51.82ZM240.331 57.126C239.23 57.126 238.362 56.8087 237.727 56.174C237.092 55.53 236.775 54.6387 236.775 53.5C236.775 52.7627 236.915 52.1233 237.195 51.582C237.475 51.0313 237.867 50.6067 238.371 50.308C238.875 50 239.454 49.846 240.107 49.846C240.751 49.846 241.292 49.9813 241.731 50.252C242.17 50.5227 242.506 50.91 242.739 51.414C242.972 51.9087 243.089 52.4967 243.089 53.178V53.598H237.643V52.884H242.347L242.109 53.066C242.109 52.3193 241.941 51.736 241.605 51.316C241.269 50.896 240.77 50.686 240.107 50.686C239.407 50.686 238.861 50.9333 238.469 51.428C238.077 51.9133 237.881 52.5713 237.881 53.402V53.528C237.881 54.4053 238.096 55.0727 238.525 55.53C238.964 55.978 239.575 56.202 240.359 56.202C240.779 56.202 241.171 56.1413 241.535 56.02C241.908 55.8893 242.263 55.6793 242.599 55.39L242.991 56.188C242.683 56.4867 242.291 56.72 241.815 56.888C241.348 57.0467 240.854 57.126 240.331 57.126ZM245.384 60.024V51.596C245.384 51.3347 245.37 51.0687 245.342 50.798C245.324 50.518 245.3 50.2427 245.272 49.972H246.364L246.518 51.638H246.35C246.5 51.0873 246.803 50.6533 247.26 50.336C247.718 50.0093 248.264 49.846 248.898 49.846C249.533 49.846 250.079 49.9907 250.536 50.28C251.003 50.5693 251.367 50.9847 251.628 51.526C251.89 52.0673 252.02 52.7207 252.02 53.486C252.02 54.242 251.89 54.8907 251.628 55.432C251.376 55.9733 251.017 56.3933 250.55 56.692C250.084 56.9813 249.533 57.126 248.898 57.126C248.273 57.126 247.732 56.9673 247.274 56.65C246.817 56.3327 246.514 55.8987 246.364 55.348H246.518V60.024H245.384ZM248.674 56.202C249.346 56.202 249.878 55.9733 250.27 55.516C250.672 55.0493 250.872 54.3727 250.872 53.486C250.872 52.59 250.672 51.9133 250.27 51.456C249.878 50.9893 249.346 50.756 248.674 50.756C248.012 50.756 247.48 50.9893 247.078 51.456C246.686 51.9133 246.49 52.59 246.49 53.486C246.49 54.3727 246.686 55.0493 247.078 55.516C247.48 55.9733 248.012 56.202 248.674 56.202ZM257.223 57.126C256.551 57.126 255.963 56.9813 255.459 56.692C254.964 56.3933 254.581 55.9733 254.311 55.432C254.04 54.8813 253.905 54.2327 253.905 53.486C253.905 52.73 254.04 52.0813 254.311 51.54C254.581 50.9987 254.964 50.5833 255.459 50.294C255.963 49.9953 256.551 49.846 257.223 49.846C257.904 49.846 258.492 49.9953 258.987 50.294C259.491 50.5833 259.878 50.9987 260.149 51.54C260.429 52.0813 260.569 52.73 260.569 53.486C260.569 54.2327 260.429 54.8813 260.149 55.432C259.878 55.9733 259.491 56.3933 258.987 56.692C258.492 56.9813 257.904 57.126 257.223 57.126ZM257.223 56.202C257.895 56.202 258.427 55.9733 258.819 55.516C259.211 55.0493 259.407 54.3727 259.407 53.486C259.407 52.59 259.206 51.9133 258.805 51.456C258.413 50.9893 257.885 50.756 257.223 50.756C256.56 50.756 256.033 50.9893 255.641 51.456C255.249 51.9133 255.053 52.59 255.053 53.486C255.053 54.3727 255.249 55.0493 255.641 55.516C256.033 55.9733 256.56 56.202 257.223 56.202ZM262.869 57V51.666C262.869 51.386 262.859 51.1013 262.841 50.812C262.831 50.5227 262.813 50.2427 262.785 49.972H263.877L264.017 51.68L263.821 51.694C263.914 51.274 264.077 50.9287 264.311 50.658C264.544 50.3873 264.819 50.1867 265.137 50.056C265.454 49.916 265.785 49.846 266.131 49.846C266.271 49.846 266.392 49.8507 266.495 49.86C266.607 49.8693 266.709 49.8927 266.803 49.93L266.789 50.938C266.649 50.8913 266.518 50.8633 266.397 50.854C266.285 50.8353 266.154 50.826 266.005 50.826C265.594 50.826 265.235 50.924 264.927 51.12C264.628 51.316 264.399 51.568 264.241 51.876C264.091 52.184 264.017 52.5107 264.017 52.856V57H262.869ZM271.404 57.126C270.713 57.126 270.186 56.93 269.822 56.538C269.458 56.1367 269.276 55.5347 269.276 54.732V50.854H267.904V49.972H269.276V48.054L270.41 47.732V49.972H272.426V50.854H270.41V54.606C270.41 55.166 270.503 55.5673 270.69 55.81C270.886 56.0433 271.175 56.16 271.558 56.16C271.735 56.16 271.894 56.146 272.034 56.118C272.174 56.0807 272.3 56.0387 272.412 55.992V56.944C272.281 57 272.123 57.042 271.936 57.07C271.759 57.1073 271.581 57.126 271.404 57.126Z" fill="black"/>
<line x1="100.5" y1="369.5" x2="609.5" y2="369.5" stroke="#C2FCFF" stroke-linecap="round"/>
<path d="M500.53 137.126C499.541 137.126 498.701 136.921 498.01 136.51C497.319 136.099 496.787 135.516 496.414 134.76C496.05 134.004 495.868 133.103 495.868 132.058C495.868 131.013 496.05 130.117 496.414 129.37C496.787 128.614 497.319 128.031 498.01 127.62C498.701 127.209 499.541 127.004 500.53 127.004C501.23 127.004 501.855 127.111 502.406 127.326C502.957 127.541 503.437 127.853 503.848 128.264L503.414 129.188C502.966 128.796 502.523 128.511 502.084 128.334C501.645 128.147 501.132 128.054 500.544 128.054C499.415 128.054 498.556 128.404 497.968 129.104C497.38 129.804 497.086 130.789 497.086 132.058C497.086 133.327 497.38 134.317 497.968 135.026C498.556 135.726 499.415 136.076 500.544 136.076C501.132 136.076 501.645 135.987 502.084 135.81C502.523 135.623 502.966 135.329 503.414 134.928L503.848 135.866C503.437 136.267 502.957 136.58 502.406 136.804C501.855 137.019 501.23 137.126 500.53 137.126ZM508.62 137V128.11H505.134V127.13H513.254V128.11H509.782V137H508.62ZM519.095 137V135.572H520.523V137H519.095ZM526.421 137L530.775 127.13H531.783L536.207 137H535.003L533.771 134.186L534.289 134.48H528.255L528.815 134.186L527.611 137H526.421ZM531.265 128.46L528.997 133.78L528.661 133.528H533.869L533.617 133.78L531.293 128.46H531.265ZM536.904 137L540.838 131.736V132.17L537.086 127.13H538.458L541.538 131.344H541.174L544.226 127.13H545.612L541.846 132.17V131.736L545.78 137H544.408L541.118 132.534H541.566L538.276 137H536.904ZM547.703 137V127.13H548.865V137H547.703ZM550.906 137L555.26 127.13H556.268L560.692 137H559.488L558.256 134.186L558.774 134.48H552.74L553.3 134.186L552.096 137H550.906ZM555.75 128.46L553.482 133.78L553.146 133.528H558.354L558.102 133.78L555.778 128.46H555.75ZM562.741 137V127.13H563.903V135.992H568.887V137H562.741Z" fill="black"/>
<path d="M489.452 161.126C488.659 161.126 487.949 161.023 487.324 160.818C486.699 160.613 486.153 160.319 485.686 159.936L486.106 159.012C486.433 159.255 486.759 159.46 487.086 159.628C487.422 159.787 487.781 159.908 488.164 159.992C488.547 160.067 488.976 160.104 489.452 160.104C490.283 160.104 490.899 159.95 491.3 159.642C491.701 159.334 491.902 158.923 491.902 158.41C491.902 157.971 491.762 157.635 491.482 157.402C491.202 157.169 490.712 156.982 490.012 156.842L488.542 156.548C487.637 156.361 486.96 156.058 486.512 155.638C486.073 155.218 485.854 154.649 485.854 153.93C485.854 153.342 486.003 152.829 486.302 152.39C486.61 151.951 487.039 151.611 487.59 151.368C488.141 151.125 488.78 151.004 489.508 151.004C490.208 151.004 490.847 151.111 491.426 151.326C492.005 151.531 492.499 151.835 492.91 152.236L492.504 153.132C492.065 152.74 491.603 152.46 491.118 152.292C490.642 152.115 490.101 152.026 489.494 152.026C488.729 152.026 488.122 152.194 487.674 152.53C487.235 152.857 487.016 153.305 487.016 153.874C487.016 154.331 487.156 154.691 487.436 154.952C487.716 155.204 488.178 155.395 488.822 155.526L490.306 155.82C491.258 156.016 491.958 156.31 492.406 156.702C492.854 157.094 493.078 157.645 493.078 158.354C493.078 158.895 492.929 159.376 492.63 159.796C492.341 160.216 491.925 160.543 491.384 160.776C490.843 161.009 490.199 161.126 489.452 161.126ZM495.515 161V151.13H496.677V159.992H501.661V161H495.515ZM503.704 161V151.13H504.866V161H503.704ZM512.185 161.126C511.195 161.126 510.355 160.921 509.665 160.51C508.974 160.099 508.442 159.516 508.069 158.76C507.705 158.004 507.523 157.103 507.523 156.058C507.523 155.013 507.705 154.117 508.069 153.37C508.442 152.614 508.974 152.031 509.665 151.62C510.355 151.209 511.195 151.004 512.185 151.004C512.885 151.004 513.51 151.111 514.061 151.326C514.611 151.541 515.092 151.853 515.503 152.264L515.069 153.188C514.621 152.796 514.177 152.511 513.739 152.334C513.3 152.147 512.787 152.054 512.199 152.054C511.069 152.054 510.211 152.404 509.623 153.104C509.035 153.804 508.741 154.789 508.741 156.058C508.741 157.327 509.035 158.317 509.623 159.026C510.211 159.726 511.069 160.076 512.199 160.076C512.787 160.076 513.3 159.987 513.739 159.81C514.177 159.623 514.621 159.329 515.069 158.928L515.503 159.866C515.092 160.267 514.611 160.58 514.061 160.804C513.51 161.019 512.885 161.126 512.185 161.126ZM518.017 161V151.13H524.317V152.082H519.151V155.512H524.009V156.478H519.151V160.034H524.317V161H518.017ZM535.19 161V158.858H530.486V158.018L535.372 151.13H536.324V157.92H537.836V158.858H536.324V161H535.19ZM535.19 157.92V152.502H535.498L531.438 158.214V157.92H535.19ZM539.944 161V160.132L543.444 156.478C543.902 156.002 544.242 155.549 544.466 155.12C544.7 154.681 544.816 154.229 544.816 153.762C544.816 153.193 544.639 152.763 544.284 152.474C543.93 152.175 543.416 152.026 542.744 152.026C542.222 152.026 541.736 152.119 541.288 152.306C540.85 152.483 540.425 152.768 540.014 153.16L539.594 152.25C539.968 151.877 540.444 151.578 541.022 151.354C541.601 151.121 542.212 151.004 542.856 151.004C543.855 151.004 544.625 151.237 545.166 151.704C545.708 152.161 545.978 152.815 545.978 153.664C545.978 154.289 545.824 154.887 545.516 155.456C545.218 156.016 544.779 156.595 544.2 157.192L541.106 160.328V160.006H546.398V161H539.944ZM548.353 161.77H547.373L551.041 150.528H552.021L548.353 161.77ZM556.461 161.126C555.331 161.126 554.459 160.888 553.843 160.412C553.227 159.927 552.919 159.25 552.919 158.382C552.919 157.701 553.129 157.136 553.549 156.688C553.969 156.231 554.524 155.955 555.215 155.862V156.072C554.589 155.941 554.09 155.657 553.717 155.218C553.343 154.77 553.157 154.243 553.157 153.636C553.157 152.805 553.451 152.161 554.039 151.704C554.627 151.237 555.434 151.004 556.461 151.004C557.497 151.004 558.309 151.237 558.897 151.704C559.485 152.161 559.779 152.805 559.779 153.636C559.779 154.243 559.601 154.77 559.247 155.218C558.901 155.666 558.416 155.946 557.791 156.058V155.862C558.472 155.955 559.013 156.231 559.415 156.688C559.816 157.136 560.017 157.701 560.017 158.382C560.017 159.25 559.709 159.927 559.093 160.412C558.477 160.888 557.599 161.126 556.461 161.126ZM556.461 160.174C557.282 160.174 557.893 160.02 558.295 159.712C558.705 159.404 558.911 158.937 558.911 158.312C558.911 157.696 558.705 157.239 558.295 156.94C557.893 156.632 557.282 156.478 556.461 156.478C555.639 156.478 555.023 156.632 554.613 156.94C554.211 157.239 554.011 157.696 554.011 158.312C554.011 158.937 554.216 159.404 554.627 159.712C555.037 160.02 555.649 160.174 556.461 160.174ZM556.461 155.526C557.17 155.526 557.711 155.367 558.085 155.05C558.467 154.733 558.659 154.294 558.659 153.734C558.659 153.174 558.467 152.74 558.085 152.432C557.711 152.115 557.17 151.956 556.461 151.956C555.751 151.956 555.205 152.115 554.823 152.432C554.449 152.74 554.263 153.174 554.263 153.734C554.263 154.294 554.449 154.733 554.823 155.05C555.205 155.367 555.751 155.526 556.461 155.526ZM565.415 161.126C564.286 161.126 563.413 160.888 562.797 160.412C562.181 159.927 561.873 159.25 561.873 158.382C561.873 157.701 562.083 157.136 562.503 156.688C562.923 156.231 563.479 155.955 564.169 155.862V156.072C563.544 155.941 563.045 155.657 562.671 155.218C562.298 154.77 562.111 154.243 562.111 153.636C562.111 152.805 562.405 152.161 562.993 151.704C563.581 151.237 564.389 151.004 565.415 151.004C566.451 151.004 567.263 151.237 567.851 151.704C568.439 152.161 568.733 152.805 568.733 153.636C568.733 154.243 568.556 154.77 568.201 155.218C567.856 155.666 567.371 155.946 566.745 156.058V155.862C567.427 155.955 567.968 156.231 568.369 156.688C568.771 157.136 568.971 157.701 568.971 158.382C568.971 159.25 568.663 159.927 568.047 160.412C567.431 160.888 566.554 161.126 565.415 161.126ZM565.415 160.174C566.237 160.174 566.848 160.02 567.249 159.712C567.66 159.404 567.865 158.937 567.865 158.312C567.865 157.696 567.66 157.239 567.249 156.94C566.848 156.632 566.237 156.478 565.415 156.478C564.594 156.478 563.978 156.632 563.567 156.94C563.166 157.239 562.965 157.696 562.965 158.312C562.965 158.937 563.171 159.404 563.581 159.712C563.992 160.02 564.603 160.174 565.415 160.174ZM565.415 155.526C566.125 155.526 566.666 155.367 567.039 155.05C567.422 154.733 567.613 154.294 567.613 153.734C567.613 153.174 567.422 152.74 567.039 152.432C566.666 152.115 566.125 151.956 565.415 151.956C564.706 151.956 564.16 152.115 563.777 152.432C563.404 152.74 563.217 153.174 563.217 153.734C563.217 154.294 563.404 154.733 563.777 155.05C564.16 155.367 564.706 155.526 565.415 155.526Z" fill="black"/>
<path d="M201.575 167C201.575 176.023 199.022 184.17 194.918 190.048C190.813 195.928 185.19 199.5 179.037 199.5C172.884 199.5 167.262 195.927 163.157 190.048C159.054 184.17 156.5 176.023 156.5 167C156.5 157.977 159.054 149.83 163.157 143.952C167.262 138.073 172.884 134.5 179.037 134.5C185.19 134.5 190.813 138.072 194.918 143.952C199.022 149.83 201.575 157.977 201.575 167Z" stroke="#00ADB5"/>
<path d="M328.5 117.5C375.444 117.5 413.5 155.556 413.5 202.5C413.5 249.444 375.444 287.5 328.5 287.5C281.556 287.5 243.5 249.444 243.5 202.5C243.5 155.556 281.556 117.5 328.5 117.5Z" fill="#EBFEFF" stroke="#C2FCFF"/>
<path d="M336.625 202.5C336.625 208.393 335.728 213.706 334.295 217.527C333.578 219.44 332.737 220.953 331.827 221.979C330.917 223.005 329.981 223.5 329.062 223.5C328.144 223.5 327.209 223.005 326.299 221.979C325.389 220.953 324.547 219.44 323.83 217.527C322.397 213.706 321.5 208.393 321.5 202.5C321.5 196.607 322.397 191.294 323.83 187.473C324.547 185.56 325.389 184.047 326.299 183.021C327.209 181.995 328.144 181.5 329.062 181.5C329.981 181.5 330.917 181.995 331.827 183.021C332.737 184.047 333.578 185.56 334.295 187.473C335.728 191.294 336.625 196.607 336.625 202.5Z" stroke="#00ADB5"/>
<path d="M179.662 244.5C170.456 244.5 162.143 241.894 156.146 237.707C150.146 233.519 146.5 227.781 146.5 221.5C146.5 215.219 150.146 209.481 156.146 205.293C162.143 201.106 170.456 198.5 179.662 198.5C188.868 198.5 197.181 201.106 203.179 205.293C209.178 209.481 212.824 215.219 212.824 221.5C212.824 227.781 209.178 233.519 203.179 237.707C197.181 241.894 188.868 244.5 179.662 244.5Z" stroke="#00ADB5"/>
<circle cx="466.5" cy="281.5" r="18" stroke="#00ADB5"/>
<path d="M447 177C454.602 177 461.579 181.302 466.693 188.444C471.806 195.585 475 205.501 475 216.5C475 227.499 471.806 237.415 466.693 244.556C461.579 251.698 454.602 256 447 256C439.398 256 432.421 251.698 427.307 244.556C422.194 237.415 419 227.499 419 216.5C419 205.501 422.194 195.585 427.307 188.444C432.421 181.302 439.398 177 447 177Z" stroke="#00ADB5" stroke-width="2"/>
<rect x="15" y="40" width="55" height="36" rx="6" fill="#C7D6DE"/>
<path d="M27.092 63V53.13H28.898V61.474H33.546V63H27.092ZM34.786 63V55.93H36.536V63H34.786ZM34.688 54.6V52.892H36.634V54.6H34.688ZM40.5084 63L37.4564 55.93H39.3184L41.5304 61.46H41.0964L43.3644 55.93H45.1144L42.0484 63H40.5084ZM49.3309 63.14C48.1456 63.14 47.2169 62.8133 46.5449 62.16C45.8729 61.5067 45.5369 60.6107 45.5369 59.472C45.5369 58.7347 45.6816 58.0907 45.9709 57.54C46.2602 56.9893 46.6616 56.56 47.1749 56.252C47.6976 55.944 48.3042 55.79 48.9949 55.79C49.6762 55.79 50.2456 55.9347 50.7029 56.224C51.1602 56.5133 51.5056 56.9193 51.7389 57.442C51.9816 57.9647 52.1029 58.576 52.1029 59.276V59.738H46.9509V58.814H50.8569L50.6189 59.01C50.6189 58.3567 50.4789 57.8573 50.1989 57.512C49.9282 57.1667 49.5316 56.994 49.0089 56.994C48.4302 56.994 47.9822 57.1993 47.6649 57.61C47.3569 58.0207 47.2029 58.5947 47.2029 59.332V59.514C47.2029 60.2793 47.3896 60.8533 47.7629 61.236C48.1456 61.6093 48.6822 61.796 49.3729 61.796C49.7742 61.796 50.1476 61.7447 50.4929 61.642C50.8476 61.53 51.1836 61.3527 51.5009 61.11L52.0189 62.286C51.6829 62.5567 51.2816 62.7667 50.8149 62.916C50.3482 63.0653 49.8536 63.14 49.3309 63.14ZM53.5708 63V57.736C53.5708 57.4373 53.5615 57.134 53.5428 56.826C53.5335 56.518 53.5101 56.2193 53.4728 55.93H55.1668L55.3628 57.862H55.0828C55.1761 57.3953 55.3301 57.008 55.5448 56.7C55.7688 56.392 56.0395 56.1633 56.3568 56.014C56.6741 55.8647 57.0195 55.79 57.3928 55.79C57.5608 55.79 57.6961 55.7993 57.7988 55.818C57.9015 55.8273 58.0041 55.8507 58.1068 55.888L58.0928 57.428C57.9155 57.3533 57.7615 57.3067 57.6308 57.288C57.5095 57.2693 57.3555 57.26 57.1688 57.26C56.7675 57.26 56.4268 57.344 56.1468 57.512C55.8761 57.68 55.6708 57.9133 55.5308 58.212C55.4001 58.5107 55.3348 58.8513 55.3348 59.234V63H53.5708Z" fill="#222831"/>
<rect y="112" width="70" height="36" rx="6" fill="#C7D6DE"/>
<path d="M16.536 135.14C15.7427 135.14 15.01 135.042 14.338 134.846C13.6753 134.641 13.106 134.361 12.63 134.006L13.19 132.592C13.5073 132.816 13.8387 133.007 14.184 133.166C14.5293 133.315 14.898 133.432 15.29 133.516C15.682 133.591 16.0973 133.628 16.536 133.628C17.2733 133.628 17.8053 133.507 18.132 133.264C18.4587 133.021 18.622 132.704 18.622 132.312C18.622 131.967 18.51 131.705 18.286 131.528C18.062 131.341 17.6607 131.187 17.082 131.066L15.5 130.744C14.5947 130.557 13.918 130.245 13.47 129.806C13.022 129.367 12.798 128.779 12.798 128.042C12.798 127.426 12.9613 126.889 13.288 126.432C13.6147 125.975 14.072 125.62 14.66 125.368C15.248 125.116 15.934 124.99 16.718 124.99C17.418 124.99 18.0667 125.093 18.664 125.298C19.2613 125.494 19.7607 125.779 20.162 126.152L19.602 127.496C19.2007 127.16 18.762 126.913 18.286 126.754C17.81 126.586 17.278 126.502 16.69 126.502C16.0273 126.502 15.5093 126.633 15.136 126.894C14.772 127.146 14.59 127.496 14.59 127.944C14.59 128.289 14.702 128.565 14.926 128.77C15.1593 128.975 15.5513 129.134 16.102 129.246L17.67 129.554C18.6033 129.741 19.294 130.049 19.742 130.478C20.19 130.898 20.414 131.467 20.414 132.186C20.414 132.774 20.2553 133.292 19.938 133.74C19.6207 134.179 19.1727 134.524 18.594 134.776C18.0153 135.019 17.3293 135.14 16.536 135.14ZM21.9754 138.024V129.694C21.9754 129.405 21.9661 129.111 21.9474 128.812C21.9288 128.513 21.9008 128.219 21.8634 127.93H23.5574L23.7114 129.414H23.5574C23.6974 128.919 23.9914 128.527 24.4394 128.238C24.8968 127.939 25.4241 127.79 26.0214 127.79C26.6468 127.79 27.1928 127.939 27.6594 128.238C28.1261 128.527 28.4901 128.947 28.7514 129.498C29.0128 130.039 29.1434 130.693 29.1434 131.458C29.1434 132.223 29.0128 132.881 28.7514 133.432C28.4901 133.983 28.1261 134.407 27.6594 134.706C27.1928 134.995 26.6468 135.14 26.0214 135.14C25.4334 135.14 24.9154 134.995 24.4674 134.706C24.0194 134.417 23.7208 134.029 23.5714 133.544H23.7254V138.024H21.9754ZM25.5314 133.796C26.0914 133.796 26.5394 133.605 26.8754 133.222C27.2114 132.83 27.3794 132.242 27.3794 131.458C27.3794 130.674 27.2114 130.091 26.8754 129.708C26.5394 129.325 26.0914 129.134 25.5314 129.134C24.9808 129.134 24.5374 129.325 24.2014 129.708C23.8654 130.091 23.6974 130.674 23.6974 131.458C23.6974 132.242 23.8654 132.83 24.2014 133.222C24.5374 133.605 24.9808 133.796 25.5314 133.796ZM30.6571 135V124.696H32.4071V135H30.6571ZM37.7235 135.14C36.5381 135.14 35.6095 134.813 34.9375 134.16C34.2655 133.507 33.9295 132.611 33.9295 131.472C33.9295 130.735 34.0741 130.091 34.3635 129.54C34.6528 128.989 35.0541 128.56 35.5675 128.252C36.0901 127.944 36.6968 127.79 37.3875 127.79C38.0688 127.79 38.6381 127.935 39.0955 128.224C39.5528 128.513 39.8981 128.919 40.1315 129.442C40.3741 129.965 40.4955 130.576 40.4955 131.276V131.738H35.3435V130.814H39.2495L39.0115 131.01C39.0115 130.357 38.8715 129.857 38.5915 129.512C38.3208 129.167 37.9241 128.994 37.4015 128.994C36.8228 128.994 36.3748 129.199 36.0575 129.61C35.7495 130.021 35.5955 130.595 35.5955 131.332V131.514C35.5955 132.279 35.7821 132.853 36.1555 133.236C36.5381 133.609 37.0748 133.796 37.7655 133.796C38.1668 133.796 38.5401 133.745 38.8855 133.642C39.2401 133.53 39.5761 133.353 39.8935 133.11L40.4115 134.286C40.0755 134.557 39.6741 134.767 39.2075 134.916C38.7408 135.065 38.2461 135.14 37.7235 135.14ZM45.3934 135.14C44.2081 135.14 43.2794 134.813 42.6074 134.16C41.9354 133.507 41.5994 132.611 41.5994 131.472C41.5994 130.735 41.7441 130.091 42.0334 129.54C42.3227 128.989 42.7241 128.56 43.2374 128.252C43.7601 127.944 44.3667 127.79 45.0574 127.79C45.7387 127.79 46.3081 127.935 46.7654 128.224C47.2227 128.513 47.5681 128.919 47.8014 129.442C48.0441 129.965 48.1654 130.576 48.1654 131.276V131.738H43.0134V130.814H46.9194L46.6814 131.01C46.6814 130.357 46.5414 129.857 46.2614 129.512C45.9907 129.167 45.5941 128.994 45.0714 128.994C44.4927 128.994 44.0447 129.199 43.7274 129.61C43.4194 130.021 43.2654 130.595 43.2654 131.332V131.514C43.2654 132.279 43.4521 132.853 43.8254 133.236C44.2081 133.609 44.7447 133.796 45.4354 133.796C45.8367 133.796 46.2101 133.745 46.5554 133.642C46.9101 133.53 47.2461 133.353 47.5634 133.11L48.0814 134.286C47.7454 134.557 47.3441 134.767 46.8774 134.916C46.4107 135.065 45.9161 135.14 45.3934 135.14ZM49.6473 135V129.694C49.6473 129.405 49.638 129.111 49.6193 128.812C49.6006 128.513 49.5726 128.219 49.5353 127.93H51.2293L51.3693 129.33H51.2013C51.4253 128.835 51.7566 128.457 52.1953 128.196C52.634 127.925 53.1426 127.79 53.7213 127.79C54.552 127.79 55.1773 128.023 55.5973 128.49C56.0173 128.957 56.2273 129.685 56.2273 130.674V135H54.4773V130.758C54.4773 130.189 54.3653 129.783 54.1413 129.54C53.9266 129.288 53.6 129.162 53.1613 129.162C52.62 129.162 52.1906 129.33 51.8733 129.666C51.556 130.002 51.3973 130.45 51.3973 131.01V135H49.6473Z" fill="#222831"/>
<rect x="10" y="198" width="60" height="36" rx="6" fill="#C7D6DE"/>
<path d="M21.5 221L25.966 211.13H27.478L32 221H30.166L28.962 218.228L29.69 218.718H23.768L24.524 218.228L23.32 221H21.5ZM26.708 213.062L24.734 217.738L24.37 217.304H29.074L28.78 217.738L26.764 213.062H26.708ZM36.0756 221.14C35.3476 221.14 34.7176 220.991 34.1856 220.692C33.6536 220.393 33.2383 219.969 32.9396 219.418C32.6503 218.867 32.5056 218.214 32.5056 217.458C32.5056 216.702 32.6503 216.053 32.9396 215.512C33.2383 214.961 33.6536 214.537 34.1856 214.238C34.7176 213.939 35.3476 213.79 36.0756 213.79C36.8036 213.79 37.4336 213.939 37.9656 214.238C38.507 214.537 38.9223 214.961 39.2116 215.512C39.5103 216.053 39.6596 216.702 39.6596 217.458C39.6596 218.214 39.5103 218.867 39.2116 219.418C38.9223 219.969 38.507 220.393 37.9656 220.692C37.4336 220.991 36.8036 221.14 36.0756 221.14ZM36.0756 219.796C36.6263 219.796 37.065 219.605 37.3916 219.222C37.7183 218.83 37.8816 218.242 37.8816 217.458C37.8816 216.674 37.7183 216.091 37.3916 215.708C37.065 215.325 36.6263 215.134 36.0756 215.134C35.525 215.134 35.0863 215.325 34.7596 215.708C34.433 216.091 34.2696 216.674 34.2696 217.458C34.2696 218.242 34.433 218.83 34.7596 219.222C35.0863 219.605 35.525 219.796 36.0756 219.796ZM41.1548 221V215.736C41.1548 215.437 41.1455 215.134 41.1268 214.826C41.1175 214.518 41.0941 214.219 41.0568 213.93H42.7508L42.9468 215.862H42.6668C42.7601 215.395 42.9141 215.008 43.1288 214.7C43.3528 214.392 43.6235 214.163 43.9408 214.014C44.2581 213.865 44.6035 213.79 44.9768 213.79C45.1448 213.79 45.2801 213.799 45.3828 213.818C45.4855 213.827 45.5881 213.851 45.6908 213.888L45.6768 215.428C45.4995 215.353 45.3455 215.307 45.2148 215.288C45.0935 215.269 44.9395 215.26 44.7528 215.26C44.3515 215.26 44.0108 215.344 43.7308 215.512C43.4601 215.68 43.2548 215.913 43.1148 216.212C42.9841 216.511 42.9188 216.851 42.9188 217.234V221H41.1548ZM46.6649 221V210.696H48.4149V221H46.6649ZM53.0453 221.14C52.4293 221.14 51.8879 220.995 51.4213 220.706C50.9546 220.407 50.5906 219.983 50.3293 219.432C50.0679 218.881 49.9373 218.223 49.9373 217.458C49.9373 216.693 50.0679 216.039 50.3293 215.498C50.5906 214.947 50.9546 214.527 51.4213 214.238C51.8879 213.939 52.4293 213.79 53.0453 213.79C53.6426 213.79 54.1653 213.939 54.6133 214.238C55.0706 214.527 55.3739 214.919 55.5233 215.414H55.3693L55.5233 213.93H57.2033C57.1753 214.219 57.1473 214.513 57.1193 214.812C57.1006 215.111 57.0913 215.405 57.0913 215.694V221H55.3553L55.3413 219.544H55.5093C55.3599 220.029 55.0566 220.417 54.5993 220.706C54.1419 220.995 53.6239 221.14 53.0453 221.14ZM53.5353 219.796C54.0859 219.796 54.5293 219.605 54.8653 219.222C55.2013 218.83 55.3693 218.242 55.3693 217.458C55.3693 216.674 55.2013 216.091 54.8653 215.708C54.5293 215.325 54.0859 215.134 53.5353 215.134C52.9846 215.134 52.5413 215.325 52.2053 215.708C51.8693 216.091 51.7013 216.674 51.7013 217.458C51.7013 218.242 51.8646 218.83 52.1913 219.222C52.5273 219.605 52.9753 219.796 53.5353 219.796Z" fill="#222831"/>
<line x1="75" y1="57.5" x2="121" y2="57.5" stroke="#C2FCFF"/>
<line x1="64" y1="129.5" x2="119" y2="129.5" stroke="#C2FCFF"/>
<line x1="64" y1="215.5" x2="125" y2="215.5" stroke="#C2FCFF"/>
<defs>
<filter id="filter0_d_580_949" x="70" y="0" width="571" height="492" filterUnits="userSpaceOnUse" color-interpolation-filters="sRGB">
<feFlood flood-opacity="0" result="BackgroundImageFix"/>
<feColorMatrix in="SourceAlpha" type="matrix" values="0 0 0 0 0 0 0 0 0 0 0 0 0 0 0 0 0 0 127 0" result="hardAlpha"/>
<feOffset dy="16"/>
<feGaussianBlur stdDeviation="15"/>
<feComposite in2="hardAlpha" operator="out"/>
<feColorMatrix type="matrix" values="0 0 0 0 0.403846 0 0 0 0 0.403846 0 0 0 0 0.403846 0 0 0 0.16 0"/>
<feBlend mode="normal" in2="BackgroundImageFix" result="effect1_dropShadow_580_949"/>
<feBlend mode="normal" in="SourceGraphic" in2="effect1_dropShadow_580_949" result="shape"/>
</filter>
<filter id="filter1_d_580_949" x="463" y="377" width="147" height="86" filterUnits="userSpaceOnUse" color-interpolation-filters="sRGB">
<feFlood flood-opacity="0" result="BackgroundImageFix"/>
<feColorMatrix in="SourceAlpha" type="matrix" values="0 0 0 0 0 0 0 0 0 0 0 0 0 0 0 0 0 0 127 0" result="hardAlpha"/>
<feOffset dy="12"/>
<feGaussianBlur stdDeviation="10"/>
<feComposite in2="hardAlpha" operator="out"/>
<feColorMatrix type="matrix" values="0 0 0 0 0.740385 0 0 0 0 0.740385 0 0 0 0 0.740385 0 0 0 0.16 0"/>
<feBlend mode="normal" in2="BackgroundImageFix" result="effect1_dropShadow_580_949"/>
<feBlend mode="normal" in="SourceGraphic" in2="effect1_dropShadow_580_949" result="shape"/>
</filter>
<filter id="filter2_d_580_949" x="120" y="276" width="190" height="86" filterUnits="userSpaceOnUse" color-interpolation-filters="sRGB">
<feFlood flood-opacity="0" result="BackgroundImageFix"/>
<feColorMatrix in="SourceAlpha" type="matrix" values="0 0 0 0 0 0 0 0 0 0 0 0 0 0 0 0 0 0 127 0" result="hardAlpha"/>
<feOffset dy="12"/>
<feGaussianBlur stdDeviation="10"/>
<feComposite in2="hardAlpha" operator="out"/>
<feColorMatrix type="matrix" values="0 0 0 0 0.740385 0 0 0 0 0.740385 0 0 0 0 0.740385 0 0 0 0.16 0"/>
<feBlend mode="normal" in2="BackgroundImageFix" result="effect1_dropShadow_580_949"/>
<feBlend mode="normal" in="SourceGraphic" in2="effect1_dropShadow_580_949" result="shape"/>
</filter>
</defs>
</svg>
