<svg width="710" height="462" viewBox="0 0 710 462" fill="none" xmlns="http://www.w3.org/2000/svg">
<g filter="url(#filter0_d_576_348)">
<rect x="30.5" y="10.5" width="649" height="401" rx="9.5" fill="white" stroke="#C2FCFF"/>
<g filter="url(#filter1_d_576_348)">
<rect x="553" y="346" width="107" height="46" rx="12" fill="#00ADB5" shape-rendering="crispEdges"/>
<path d="M573.288 375L578.264 363.72H579.416L584.472 375H583.096L581.688 371.784L582.28 372.12H575.384L576.024 371.784L574.648 375H573.288ZM578.824 365.24L576.232 371.32L575.848 371.032H581.8L581.512 371.32L578.856 365.24H578.824ZM586.67 378.456V368.824C586.67 368.525 586.654 368.221 586.622 367.912C586.6 367.592 586.574 367.277 586.542 366.968H587.79L587.966 368.872H587.774C587.944 368.243 588.291 367.747 588.814 367.384C589.336 367.011 589.96 366.824 590.686 366.824C591.411 366.824 592.035 366.989 592.558 367.32C593.091 367.651 593.507 368.125 593.806 368.744C594.104 369.363 594.254 370.109 594.254 370.984C594.254 371.848 594.104 372.589 593.806 373.208C593.518 373.827 593.107 374.307 592.574 374.648C592.04 374.979 591.411 375.144 590.686 375.144C589.971 375.144 589.352 374.963 588.83 374.6C588.307 374.237 587.96 373.741 587.79 373.112H587.966V378.456H586.67ZM590.43 374.088C591.198 374.088 591.806 373.827 592.254 373.304C592.712 372.771 592.942 371.997 592.942 370.984C592.942 369.96 592.712 369.187 592.254 368.664C591.806 368.131 591.198 367.864 590.43 367.864C589.672 367.864 589.064 368.131 588.606 368.664C588.158 369.187 587.934 369.96 587.934 370.984C587.934 371.997 588.158 372.771 588.606 373.304C589.064 373.827 589.672 374.088 590.43 374.088ZM596.903 378.456V368.824C596.903 368.525 596.887 368.221 596.855 367.912C596.834 367.592 596.807 367.277 596.775 366.968H598.023L598.199 368.872H598.007C598.178 368.243 598.525 367.747 599.047 367.384C599.57 367.011 600.194 366.824 600.919 366.824C601.645 366.824 602.269 366.989 602.791 367.32C603.325 367.651 603.741 368.125 604.039 368.744C604.338 369.363 604.487 370.109 604.487 370.984C604.487 371.848 604.338 372.589 604.039 373.208C603.751 373.827 603.341 374.307 602.807 374.648C602.274 374.979 601.645 375.144 600.919 375.144C600.205 375.144 599.586 374.963 599.063 374.6C598.541 374.237 598.194 373.741 598.023 373.112H598.199V378.456H596.903ZM600.663 374.088C601.431 374.088 602.039 373.827 602.487 373.304C602.946 372.771 603.175 371.997 603.175 370.984C603.175 369.96 602.946 369.187 602.487 368.664C602.039 368.131 601.431 367.864 600.663 367.864C599.906 367.864 599.298 368.131 598.839 368.664C598.391 369.187 598.167 369.96 598.167 370.984C598.167 371.997 598.391 372.771 598.839 373.304C599.298 373.827 599.906 374.088 600.663 374.088ZM607.105 375V368.904C607.105 368.584 607.094 368.259 607.073 367.928C607.062 367.597 607.041 367.277 607.009 366.968H608.257L608.417 368.92L608.193 368.936C608.3 368.456 608.486 368.061 608.753 367.752C609.02 367.443 609.334 367.213 609.697 367.064C610.06 366.904 610.438 366.824 610.833 366.824C610.993 366.824 611.132 366.829 611.249 366.84C611.377 366.851 611.494 366.877 611.601 366.92L611.585 368.072C611.425 368.019 611.276 367.987 611.137 367.976C611.009 367.955 610.86 367.944 610.689 367.944C610.22 367.944 609.809 368.056 609.457 368.28C609.116 368.504 608.854 368.792 608.673 369.144C608.502 369.496 608.417 369.869 608.417 370.264V375H607.105ZM616.792 375.144C616.024 375.144 615.352 374.979 614.776 374.648C614.211 374.307 613.773 373.827 613.464 373.208C613.155 372.579 613 371.837 613 370.984C613 370.12 613.155 369.379 613.464 368.76C613.773 368.141 614.211 367.667 614.776 367.336C615.352 366.995 616.024 366.824 616.792 366.824C617.571 366.824 618.243 366.995 618.808 367.336C619.384 367.667 619.827 368.141 620.136 368.76C620.456 369.379 620.616 370.12 620.616 370.984C620.616 371.837 620.456 372.579 620.136 373.208C619.827 373.827 619.384 374.307 618.808 374.648C618.243 374.979 617.571 375.144 616.792 375.144ZM616.792 374.088C617.56 374.088 618.168 373.827 618.616 373.304C619.064 372.771 619.288 371.997 619.288 370.984C619.288 369.96 619.059 369.187 618.6 368.664C618.152 368.131 617.549 367.864 616.792 367.864C616.035 367.864 615.432 368.131 614.984 368.664C614.536 369.187 614.312 369.96 614.312 370.984C614.312 371.997 614.536 372.771 614.984 373.304C615.432 373.827 616.035 374.088 616.792 374.088ZM625.535 375L622.095 366.968H623.503L626.383 374.04H625.951L628.863 366.968H630.207L626.767 375H625.535ZM635.766 375.144C634.507 375.144 633.515 374.781 632.79 374.056C632.064 373.32 631.702 372.301 631.702 371C631.702 370.157 631.862 369.427 632.182 368.808C632.502 368.179 632.95 367.693 633.526 367.352C634.102 367 634.763 366.824 635.51 366.824C636.246 366.824 636.864 366.979 637.366 367.288C637.867 367.597 638.251 368.04 638.518 368.616C638.784 369.181 638.918 369.853 638.918 370.632V371.112H632.694V370.296H638.07L637.798 370.504C637.798 369.651 637.606 368.984 637.222 368.504C636.838 368.024 636.267 367.784 635.51 367.784C634.71 367.784 634.086 368.067 633.638 368.632C633.19 369.187 632.966 369.939 632.966 370.888V371.032C632.966 372.035 633.211 372.797 633.702 373.32C634.203 373.832 634.902 374.088 635.798 374.088C636.278 374.088 636.726 374.019 637.142 373.88C637.568 373.731 637.974 373.491 638.358 373.16L638.806 374.072C638.454 374.413 638.006 374.68 637.462 374.872C636.928 375.053 636.363 375.144 635.766 375.144Z" fill="white"/>
</g>
<path d="M50 377L56.38 362.9H58.54L65 377H62.38L60.66 373.04L61.7 373.74H53.24L54.32 373.04L52.6 377H50ZM57.44 365.66L54.62 372.34L54.1 371.72H60.82L60.4 372.34L57.52 365.66H57.44ZM66.96 377V362.9H69.54V377H66.96ZM78.9319 377V362.9H85.0919C86.6385 362.9 87.8319 363.267 88.6719 364C89.5252 364.733 89.9519 365.753 89.9519 367.06C89.9519 367.927 89.7585 368.667 89.3719 369.28C88.9985 369.893 88.4585 370.367 87.7519 370.7C87.0452 371.02 86.2119 371.18 85.2519 371.18L85.5319 370.8H86.2119C86.7719 370.8 87.2719 370.947 87.7119 371.24C88.1519 371.533 88.5119 371.98 88.7919 372.58L90.8519 377H88.0119L85.9319 372.42C85.7452 371.953 85.4585 371.647 85.0719 371.5C84.6985 371.353 84.2452 371.28 83.7119 371.28H81.5119V377H78.9319ZM81.5119 369.38H84.6719C85.5785 369.38 86.2652 369.193 86.7319 368.82C87.2119 368.433 87.4519 367.873 87.4519 367.14C87.4519 366.407 87.2119 365.853 86.7319 365.48C86.2652 365.107 85.5785 364.92 84.6719 364.92H81.5119V369.38ZM96.9772 377.2C96.0972 377.2 95.3239 376.993 94.6572 376.58C93.9905 376.153 93.4705 375.547 93.0972 374.76C92.7239 373.973 92.5372 373.033 92.5372 371.94C92.5372 370.847 92.7239 369.913 93.0972 369.14C93.4705 368.353 93.9905 367.753 94.6572 367.34C95.3239 366.913 96.0972 366.7 96.9772 366.7C97.8305 366.7 98.5772 366.913 99.2172 367.34C99.8705 367.753 100.304 368.313 100.517 369.02H100.297L100.517 366.9H102.917C102.877 367.313 102.837 367.733 102.797 368.16C102.771 368.587 102.757 369.007 102.757 369.42V377H100.277L100.257 374.92H100.497C100.284 375.613 99.8505 376.167 99.1972 376.58C98.5439 376.993 97.8039 377.2 96.9772 377.2ZM97.6772 375.28C98.4639 375.28 99.0972 375.007 99.5772 374.46C100.057 373.9 100.297 373.06 100.297 371.94C100.297 370.82 100.057 369.987 99.5772 369.44C99.0972 368.893 98.4639 368.62 97.6772 368.62C96.8905 368.62 96.2572 368.893 95.7772 369.44C95.2972 369.987 95.0572 370.82 95.0572 371.94C95.0572 373.06 95.2905 373.9 95.7572 374.46C96.2372 375.007 96.8772 375.28 97.6772 375.28ZM109.8 377.2C108.92 377.2 108.14 376.993 107.46 376.58C106.793 376.153 106.273 375.547 105.9 374.76C105.526 373.973 105.34 373.033 105.34 371.94C105.34 370.847 105.526 369.913 105.9 369.14C106.273 368.353 106.793 367.753 107.46 367.34C108.14 366.913 108.92 366.7 109.8 366.7C110.64 366.7 111.38 366.907 112.02 367.32C112.673 367.72 113.106 368.267 113.32 368.96H113.06V362.28H115.56V377H113.1V374.86H113.34C113.126 375.58 112.693 376.153 112.04 376.58C111.4 376.993 110.653 377.2 109.8 377.2ZM110.5 375.28C111.286 375.28 111.92 375.007 112.4 374.46C112.88 373.9 113.12 373.06 113.12 371.94C113.12 370.82 112.88 369.987 112.4 369.44C111.92 368.893 111.286 368.62 110.5 368.62C109.713 368.62 109.073 368.893 108.58 369.44C108.1 369.987 107.86 370.82 107.86 371.94C107.86 373.06 108.1 373.9 108.58 374.46C109.073 375.007 109.713 375.28 110.5 375.28ZM118.682 377V366.9H121.182V377H118.682ZM118.542 365V362.56H121.322V365H118.542ZM128.857 377.2C127.817 377.2 126.917 376.987 126.157 376.56C125.397 376.133 124.803 375.527 124.377 374.74C123.963 373.953 123.757 373.02 123.757 371.94C123.757 370.86 123.963 369.933 124.377 369.16C124.803 368.373 125.397 367.767 126.157 367.34C126.917 366.913 127.817 366.7 128.857 366.7C129.897 366.7 130.797 366.913 131.557 367.34C132.33 367.767 132.923 368.373 133.337 369.16C133.763 369.933 133.977 370.86 133.977 371.94C133.977 373.02 133.763 373.953 133.337 374.74C132.923 375.527 132.33 376.133 131.557 376.56C130.797 376.987 129.897 377.2 128.857 377.2ZM128.857 375.28C129.643 375.28 130.27 375.007 130.737 374.46C131.203 373.9 131.437 373.06 131.437 371.94C131.437 370.82 131.203 369.987 130.737 369.44C130.27 368.893 129.643 368.62 128.857 368.62C128.07 368.62 127.443 368.893 126.977 369.44C126.51 369.987 126.277 370.82 126.277 371.94C126.277 373.06 126.51 373.9 126.977 374.46C127.443 375.007 128.07 375.28 128.857 375.28ZM136.533 377V362.28H139.033V377H136.533ZM146.707 377.2C145.667 377.2 144.767 376.987 144.007 376.56C143.247 376.133 142.654 375.527 142.227 374.74C141.814 373.953 141.607 373.02 141.607 371.94C141.607 370.86 141.814 369.933 142.227 369.16C142.654 368.373 143.247 367.767 144.007 367.34C144.767 366.913 145.667 366.7 146.707 366.7C147.747 366.7 148.647 366.913 149.407 367.34C150.181 367.767 150.774 368.373 151.187 369.16C151.614 369.933 151.827 370.86 151.827 371.94C151.827 373.02 151.614 373.953 151.187 374.74C150.774 375.527 150.181 376.133 149.407 376.56C148.647 376.987 147.747 377.2 146.707 377.2ZM146.707 375.28C147.494 375.28 148.121 375.007 148.587 374.46C149.054 373.9 149.287 373.06 149.287 371.94C149.287 370.82 149.054 369.987 148.587 369.44C148.121 368.893 147.494 368.62 146.707 368.62C145.921 368.62 145.294 368.893 144.827 369.44C144.361 369.987 144.127 370.82 144.127 371.94C144.127 373.06 144.361 373.9 144.827 374.46C145.294 375.007 145.921 375.28 146.707 375.28ZM159.063 381.48C158.13 381.48 157.283 381.38 156.523 381.18C155.777 380.98 155.11 380.673 154.523 380.26L155.063 378.46C155.45 378.713 155.85 378.92 156.263 379.08C156.677 379.24 157.103 379.36 157.543 379.44C157.983 379.52 158.43 379.56 158.883 379.56C159.817 379.56 160.51 379.327 160.963 378.86C161.43 378.407 161.663 377.753 161.663 376.9V374.48H161.863C161.65 375.173 161.217 375.727 160.563 376.14C159.923 376.553 159.183 376.76 158.343 376.76C157.437 376.76 156.643 376.56 155.963 376.16C155.297 375.747 154.777 375.16 154.403 374.4C154.03 373.64 153.843 372.747 153.843 371.72C153.843 370.693 154.03 369.807 154.403 369.06C154.777 368.3 155.297 367.72 155.963 367.32C156.643 366.907 157.437 366.7 158.343 366.7C159.197 366.7 159.937 366.907 160.563 367.32C161.203 367.72 161.63 368.267 161.843 368.96L161.663 368.84L161.863 366.9H164.283C164.23 367.313 164.19 367.733 164.163 368.16C164.137 368.587 164.123 369.007 164.123 369.42V376.6C164.123 378.187 163.69 379.393 162.823 380.22C161.97 381.06 160.717 381.48 159.063 381.48ZM159.023 374.84C159.823 374.84 160.457 374.573 160.923 374.04C161.403 373.493 161.643 372.72 161.643 371.72C161.643 370.72 161.403 369.953 160.923 369.42C160.457 368.887 159.823 368.62 159.023 368.62C158.21 368.62 157.563 368.887 157.083 369.42C156.603 369.953 156.363 370.72 156.363 371.72C156.363 372.72 156.603 373.493 157.083 374.04C157.563 374.573 158.21 374.84 159.023 374.84ZM167.225 377V366.9H169.725V377H167.225ZM167.085 365V362.56H169.865V365H167.085ZM176.44 377.2C175.573 377.2 174.773 377.1 174.04 376.9C173.32 376.687 172.713 376.393 172.22 376.02L172.92 374.34C173.426 374.687 173.986 374.953 174.6 375.14C175.213 375.327 175.833 375.42 176.46 375.42C177.126 375.42 177.62 375.307 177.94 375.08C178.273 374.853 178.44 374.547 178.44 374.16C178.44 373.853 178.333 373.613 178.12 373.44C177.92 373.253 177.593 373.113 177.14 373.02L175.14 372.64C174.286 372.453 173.633 372.133 173.18 371.68C172.74 371.227 172.52 370.633 172.52 369.9C172.52 369.273 172.686 368.72 173.02 368.24C173.366 367.76 173.853 367.387 174.48 367.12C175.12 366.84 175.866 366.7 176.72 366.7C177.466 366.7 178.166 366.8 178.82 367C179.486 367.2 180.046 367.5 180.5 367.9L179.78 369.52C179.366 369.187 178.893 368.927 178.36 368.74C177.826 368.553 177.306 368.46 176.8 368.46C176.106 368.46 175.6 368.587 175.28 368.84C174.96 369.08 174.8 369.393 174.8 369.78C174.8 370.073 174.893 370.32 175.08 370.52C175.28 370.707 175.586 370.847 176 370.94L178 371.32C178.893 371.493 179.566 371.8 180.02 372.24C180.486 372.667 180.72 373.253 180.72 374C180.72 374.667 180.54 375.24 180.18 375.72C179.82 376.2 179.32 376.567 178.68 376.82C178.04 377.073 177.293 377.2 176.44 377.2ZM187.482 377.2C186.282 377.2 185.375 376.887 184.762 376.26C184.148 375.633 183.842 374.693 183.842 373.44V368.78H181.902V366.9H183.842V364.32L186.342 363.68V366.9H189.042V368.78H186.342V373.28C186.342 373.973 186.475 374.46 186.742 374.74C187.008 375.02 187.375 375.16 187.842 375.16C188.095 375.16 188.308 375.14 188.482 375.1C188.668 375.06 188.848 375.007 189.022 374.94V376.92C188.795 377.013 188.542 377.08 188.262 377.12C187.995 377.173 187.735 377.2 187.482 377.2Z" fill="#00ADB5"/>
<rect x="50" y="30" width="90" height="36" rx="6" fill="#00ADB5"/>
<path d="M71.53 53.126C70.5407 53.126 69.7007 52.9207 69.01 52.51C68.3193 52.0993 67.7873 51.516 67.414 50.76C67.05 50.004 66.868 49.1033 66.868 48.058C66.868 47.0127 67.05 46.1167 67.414 45.37C67.7873 44.614 68.3193 44.0307 69.01 43.62C69.7007 43.2093 70.5407 43.004 71.53 43.004C72.23 43.004 72.8553 43.1113 73.406 43.326C73.9567 43.5407 74.4373 43.8533 74.848 44.264L74.414 45.188C73.966 44.796 73.5227 44.5113 73.084 44.334C72.6453 44.1473 72.132 44.054 71.544 44.054C70.4147 44.054 69.556 44.404 68.968 45.104C68.38 45.804 68.086 46.7887 68.086 48.058C68.086 49.3273 68.38 50.3167 68.968 51.026C69.556 51.726 70.4147 52.076 71.544 52.076C72.132 52.076 72.6453 51.9873 73.084 51.81C73.5227 51.6233 73.966 51.3293 74.414 50.928L74.848 51.866C74.4373 52.2673 73.9567 52.58 73.406 52.804C72.8553 53.0187 72.23 53.126 71.53 53.126ZM79.6196 53V44.11H76.1336V43.13H84.2536V44.11H80.7816V53H79.6196ZM93.6652 53.126C92.8719 53.126 92.1625 53.0233 91.5372 52.818C90.9119 52.6127 90.3659 52.3187 89.8992 51.936L90.3192 51.012C90.6459 51.2547 90.9725 51.46 91.2992 51.628C91.6352 51.7867 91.9945 51.908 92.3772 51.992C92.7599 52.0667 93.1892 52.104 93.6652 52.104C94.4959 52.104 95.1119 51.95 95.5132 51.642C95.9145 51.334 96.1152 50.9233 96.1152 50.41C96.1152 49.9713 95.9752 49.6353 95.6952 49.402C95.4152 49.1687 94.9252 48.982 94.2252 48.842L92.7552 48.548C91.8499 48.3613 91.1732 48.058 90.7252 47.638C90.2865 47.218 90.0672 46.6487 90.0672 45.93C90.0672 45.342 90.2165 44.8287 90.5152 44.39C90.8232 43.9513 91.2525 43.6107 91.8032 43.368C92.3539 43.1253 92.9932 43.004 93.7212 43.004C94.4212 43.004 95.0605 43.1113 95.6392 43.326C96.2179 43.5313 96.7125 43.8347 97.1232 44.236L96.7172 45.132C96.2785 44.74 95.8165 44.46 95.3312 44.292C94.8552 44.1147 94.3139 44.026 93.7072 44.026C92.9419 44.026 92.3352 44.194 91.8872 44.53C91.4485 44.8567 91.2292 45.3047 91.2292 45.874C91.2292 46.3313 91.3692 46.6907 91.6492 46.952C91.9292 47.204 92.3912 47.3953 93.0352 47.526L94.5192 47.82C95.4712 48.016 96.1712 48.31 96.6192 48.702C97.0672 49.094 97.2912 49.6447 97.2912 50.354C97.2912 50.8953 97.1419 51.376 96.8432 51.796C96.5539 52.216 96.1385 52.5427 95.5972 52.776C95.0559 53.0093 94.4119 53.126 93.6652 53.126ZM102.556 53.126C101.865 53.126 101.263 52.9767 100.75 52.678C100.246 52.3793 99.8539 51.9547 99.5739 51.404C99.3032 50.8533 99.1679 50.2 99.1679 49.444C99.1679 48.6787 99.3079 48.03 99.5879 47.498C99.8679 46.9567 100.26 46.546 100.764 46.266C101.277 45.986 101.875 45.846 102.556 45.846C103.004 45.846 103.438 45.9253 103.858 46.084C104.287 46.2427 104.642 46.4667 104.922 46.756L104.516 47.568C104.236 47.2973 103.928 47.0967 103.592 46.966C103.265 46.8353 102.943 46.77 102.626 46.77C101.898 46.77 101.333 46.9987 100.932 47.456C100.531 47.9133 100.33 48.5807 100.33 49.458C100.33 50.326 100.531 50.998 100.932 51.474C101.333 51.95 101.898 52.188 102.626 52.188C102.934 52.188 103.251 52.1273 103.578 52.006C103.914 51.8847 104.227 51.684 104.516 51.404L104.922 52.202C104.633 52.5007 104.273 52.7293 103.844 52.888C103.415 53.0467 102.985 53.126 102.556 53.126ZM109.713 53.126C109.087 53.126 108.541 52.9813 108.075 52.692C107.608 52.3933 107.244 51.9733 106.983 51.432C106.731 50.8907 106.605 50.242 106.605 49.486C106.605 48.7207 106.731 48.0673 106.983 47.526C107.244 46.9847 107.608 46.5693 108.075 46.28C108.541 45.9907 109.087 45.846 109.713 45.846C110.347 45.846 110.893 46.0093 111.351 46.336C111.817 46.6533 112.125 47.0873 112.275 47.638H112.107L112.261 45.972H113.353C113.325 46.2427 113.297 46.518 113.269 46.798C113.25 47.0687 113.241 47.3347 113.241 47.596V53H112.107V51.348H112.261C112.111 51.8987 111.803 52.3327 111.337 52.65C110.87 52.9673 110.329 53.126 109.713 53.126ZM109.937 52.202C110.609 52.202 111.141 51.9733 111.533 51.516C111.925 51.0493 112.121 50.3727 112.121 49.486C112.121 48.59 111.925 47.9133 111.533 47.456C111.141 46.9893 110.609 46.756 109.937 46.756C109.274 46.756 108.742 46.9893 108.341 47.456C107.949 47.9133 107.753 48.59 107.753 49.486C107.753 50.3727 107.949 51.0493 108.341 51.516C108.742 51.9733 109.274 52.202 109.937 52.202ZM115.993 53V47.596C115.993 47.3347 115.979 47.0687 115.951 46.798C115.933 46.518 115.909 46.2427 115.881 45.972H116.973L117.113 47.512H116.945C117.151 46.9707 117.477 46.56 117.925 46.28C118.383 45.9907 118.91 45.846 119.507 45.846C120.338 45.846 120.963 46.07 121.383 46.518C121.813 46.9567 122.027 47.652 122.027 48.604V53H120.893V48.674C120.893 48.0113 120.758 47.5307 120.487 47.232C120.226 46.924 119.815 46.77 119.255 46.77C118.602 46.77 118.084 46.9707 117.701 47.372C117.319 47.7733 117.127 48.31 117.127 48.982V53H115.993Z" fill="white"/>
<path d="M157.232 53V43.13H161.264C162.3 43.13 163.103 43.3773 163.672 43.872C164.241 44.3573 164.526 45.0387 164.526 45.916C164.526 46.4947 164.395 46.9893 164.134 47.4C163.882 47.8013 163.523 48.1093 163.056 48.324C162.599 48.5387 162.062 48.646 161.446 48.646L161.698 48.464H161.978C162.361 48.464 162.701 48.5573 163 48.744C163.308 48.9307 163.551 49.2433 163.728 49.682L165.128 53H163.854L162.51 49.738C162.351 49.318 162.113 49.0473 161.796 48.926C161.479 48.7953 161.082 48.73 160.606 48.73H158.394V53H157.232ZM158.394 47.82H161.096C161.843 47.82 162.407 47.6613 162.79 47.344C163.182 47.0173 163.378 46.5507 163.378 45.944C163.378 45.3373 163.182 44.8753 162.79 44.558C162.407 44.2407 161.843 44.082 161.096 44.082H158.394V47.82ZM170.331 53.126C169.23 53.126 168.362 52.8087 167.727 52.174C167.092 51.53 166.775 50.6387 166.775 49.5C166.775 48.7627 166.915 48.1233 167.195 47.582C167.475 47.0313 167.867 46.6067 168.371 46.308C168.875 46 169.454 45.846 170.107 45.846C170.751 45.846 171.292 45.9813 171.731 46.252C172.17 46.5227 172.506 46.91 172.739 47.414C172.972 47.9087 173.089 48.4967 173.089 49.178V49.598H167.643V48.884H172.347L172.109 49.066C172.109 48.3193 171.941 47.736 171.605 47.316C171.269 46.896 170.77 46.686 170.107 46.686C169.407 46.686 168.861 46.9333 168.469 47.428C168.077 47.9133 167.881 48.5713 167.881 49.402V49.528C167.881 50.4053 168.096 51.0727 168.525 51.53C168.964 51.978 169.575 52.202 170.359 52.202C170.779 52.202 171.171 52.1413 171.535 52.02C171.908 51.8893 172.263 51.6793 172.599 51.39L172.991 52.188C172.683 52.4867 172.291 52.72 171.815 52.888C171.348 53.0467 170.854 53.126 170.331 53.126ZM175.384 56.024V47.596C175.384 47.3347 175.37 47.0687 175.342 46.798C175.324 46.518 175.3 46.2427 175.272 45.972H176.364L176.518 47.638H176.35C176.5 47.0873 176.803 46.6533 177.26 46.336C177.718 46.0093 178.264 45.846 178.898 45.846C179.533 45.846 180.079 45.9907 180.536 46.28C181.003 46.5693 181.367 46.9847 181.628 47.526C181.89 48.0673 182.02 48.7207 182.02 49.486C182.02 50.242 181.89 50.8907 181.628 51.432C181.376 51.9733 181.017 52.3933 180.55 52.692C180.084 52.9813 179.533 53.126 178.898 53.126C178.273 53.126 177.732 52.9673 177.274 52.65C176.817 52.3327 176.514 51.8987 176.364 51.348H176.518V56.024H175.384ZM178.674 52.202C179.346 52.202 179.878 51.9733 180.27 51.516C180.672 51.0493 180.872 50.3727 180.872 49.486C180.872 48.59 180.672 47.9133 180.27 47.456C179.878 46.9893 179.346 46.756 178.674 46.756C178.012 46.756 177.48 46.9893 177.078 47.456C176.686 47.9133 176.49 48.59 176.49 49.486C176.49 50.3727 176.686 51.0493 177.078 51.516C177.48 51.9733 178.012 52.202 178.674 52.202ZM187.223 53.126C186.551 53.126 185.963 52.9813 185.459 52.692C184.964 52.3933 184.581 51.9733 184.311 51.432C184.04 50.8813 183.905 50.2327 183.905 49.486C183.905 48.73 184.04 48.0813 184.311 47.54C184.581 46.9987 184.964 46.5833 185.459 46.294C185.963 45.9953 186.551 45.846 187.223 45.846C187.904 45.846 188.492 45.9953 188.987 46.294C189.491 46.5833 189.878 46.9987 190.149 47.54C190.429 48.0813 190.569 48.73 190.569 49.486C190.569 50.2327 190.429 50.8813 190.149 51.432C189.878 51.9733 189.491 52.3933 188.987 52.692C188.492 52.9813 187.904 53.126 187.223 53.126ZM187.223 52.202C187.895 52.202 188.427 51.9733 188.819 51.516C189.211 51.0493 189.407 50.3727 189.407 49.486C189.407 48.59 189.206 47.9133 188.805 47.456C188.413 46.9893 187.885 46.756 187.223 46.756C186.56 46.756 186.033 46.9893 185.641 47.456C185.249 47.9133 185.053 48.59 185.053 49.486C185.053 50.3727 185.249 51.0493 185.641 51.516C186.033 51.9733 186.56 52.202 187.223 52.202ZM192.869 53V47.666C192.869 47.386 192.859 47.1013 192.841 46.812C192.831 46.5227 192.813 46.2427 192.785 45.972H193.877L194.017 47.68L193.821 47.694C193.914 47.274 194.077 46.9287 194.311 46.658C194.544 46.3873 194.819 46.1867 195.137 46.056C195.454 45.916 195.785 45.846 196.131 45.846C196.271 45.846 196.392 45.8507 196.495 45.86C196.607 45.8693 196.709 45.8927 196.803 45.93L196.789 46.938C196.649 46.8913 196.518 46.8633 196.397 46.854C196.285 46.8353 196.154 46.826 196.005 46.826C195.594 46.826 195.235 46.924 194.927 47.12C194.628 47.316 194.399 47.568 194.241 47.876C194.091 48.184 194.017 48.5107 194.017 48.856V53H192.869ZM201.404 53.126C200.713 53.126 200.186 52.93 199.822 52.538C199.458 52.1367 199.276 51.5347 199.276 50.732V46.854H197.904V45.972H199.276V44.054L200.41 43.732V45.972H202.426V46.854H200.41V50.606C200.41 51.166 200.503 51.5673 200.69 51.81C200.886 52.0433 201.175 52.16 201.558 52.16C201.735 52.16 201.894 52.146 202.034 52.118C202.174 52.0807 202.3 52.0387 202.412 51.992V52.944C202.281 53 202.123 53.042 201.936 53.07C201.759 53.1073 201.581 53.126 201.404 53.126Z" fill="black"/>
<line x1="53" y1="303" x2="437" y2="303" stroke="#DFEAF0" stroke-width="6" stroke-linecap="round"/>
<line x1="30.3" y1="325.7" x2="679.7" y2="325.7" stroke="#EEEEEE" stroke-width="0.6" stroke-linecap="round"/>
<line x1="53" y1="283" x2="589" y2="283" stroke="#DFEAF0" stroke-width="6" stroke-linecap="round"/>
<rect x="50" y="86" width="610" height="170" rx="12" fill="#EBFEFF"/>
<path d="M71.232 229V219.13H72.142L78.47 227.53H78.148V219.13H79.226V229H78.33L72.002 220.6H72.31V229H71.232ZM81.887 224.058C81.887 223.013 82.0643 222.117 82.419 221.37C82.783 220.614 83.301 220.031 83.973 219.62C84.6543 219.209 85.471 219.004 86.423 219.004C87.347 219.004 88.1497 219.209 88.831 219.62C89.5123 220.031 90.035 220.614 90.399 221.37C90.7723 222.117 90.959 223.008 90.959 224.044C90.959 225.089 90.7723 225.99 90.399 226.746C90.0257 227.502 89.4983 228.09 88.817 228.51C88.145 228.921 87.347 229.126 86.423 229.126C85.471 229.126 84.659 228.921 83.987 228.51C83.315 228.09 82.797 227.502 82.433 226.746C82.069 225.99 81.887 225.094 81.887 224.058ZM83.105 224.058C83.105 225.327 83.385 226.321 83.945 227.04C84.505 227.749 85.331 228.104 86.423 228.104C87.4683 228.104 88.2803 227.749 88.859 227.04C89.447 226.321 89.741 225.327 89.741 224.058C89.741 222.779 89.4517 221.79 88.873 221.09C88.2943 220.381 87.4777 220.026 86.423 220.026C85.331 220.026 84.505 220.381 83.945 221.09C83.385 221.79 83.105 222.779 83.105 224.058ZM93.6254 229V219.13H96.9014C97.9934 219.13 98.9174 219.321 99.6734 219.704C100.429 220.077 101.003 220.633 101.395 221.37C101.787 222.098 101.983 222.994 101.983 224.058C101.983 225.113 101.787 226.009 101.395 226.746C101.003 227.483 100.429 228.043 99.6734 228.426C98.9174 228.809 97.9934 229 96.9014 229H93.6254ZM94.7874 228.006H96.8174C98.1614 228.006 99.1601 227.679 99.8134 227.026C100.467 226.363 100.793 225.374 100.793 224.058C100.793 222.733 100.467 221.743 99.8134 221.09C99.1601 220.437 98.1614 220.11 96.8174 220.11H94.7874V228.006ZM108.536 229.126C107.202 229.126 106.208 228.785 105.554 228.104C104.91 227.423 104.588 226.419 104.588 225.094V219.13H105.736V225.038C105.736 226.055 105.96 226.821 106.408 227.334C106.856 227.847 107.566 228.104 108.536 228.104C109.451 228.104 110.146 227.847 110.622 227.334C111.098 226.821 111.336 226.055 111.336 225.038V219.13H112.484V225.094C112.484 226.419 112.148 227.423 111.476 228.104C110.814 228.785 109.834 229.126 108.536 229.126ZM115.431 229V219.13H116.593V227.992H121.577V229H115.431ZM123.62 229V219.13H129.92V220.082H124.754V223.512H129.612V224.478H124.754V228.034H129.92V229H123.62Z" fill="black"/>
<path d="M142.882 229V227.572H144.31V229H142.882ZM161.919 229.126C161.405 229.126 160.887 229.019 160.365 228.804C159.842 228.58 159.408 228.291 159.063 227.936L159.497 227.026C159.851 227.39 160.239 227.661 160.659 227.838C161.079 228.015 161.503 228.104 161.933 228.104C162.875 228.104 163.599 227.768 164.103 227.096C164.616 226.415 164.873 225.397 164.873 224.044V222.742H165.013C164.957 223.265 164.793 223.722 164.523 224.114C164.261 224.506 163.921 224.805 163.501 225.01C163.09 225.215 162.628 225.318 162.115 225.318C161.517 225.318 160.985 225.187 160.519 224.926C160.061 224.665 159.702 224.296 159.441 223.82C159.179 223.344 159.049 222.807 159.049 222.21C159.049 221.585 159.184 221.034 159.455 220.558C159.735 220.073 160.113 219.695 160.589 219.424C161.074 219.144 161.629 219.004 162.255 219.004C163.459 219.004 164.383 219.424 165.027 220.264C165.68 221.104 166.007 222.289 166.007 223.82C166.007 224.949 165.843 225.911 165.517 226.704C165.19 227.497 164.723 228.099 164.117 228.51C163.51 228.921 162.777 229.126 161.919 229.126ZM162.353 224.352C162.782 224.352 163.16 224.259 163.487 224.072C163.813 223.885 164.065 223.629 164.243 223.302C164.429 222.975 164.523 222.597 164.523 222.168C164.523 221.729 164.429 221.347 164.243 221.02C164.065 220.693 163.813 220.437 163.487 220.25C163.16 220.063 162.782 219.97 162.353 219.97C161.923 219.97 161.541 220.063 161.205 220.25C160.878 220.437 160.621 220.693 160.435 221.02C160.257 221.347 160.169 221.729 160.169 222.168C160.169 222.597 160.257 222.975 160.435 223.302C160.621 223.629 160.878 223.885 161.205 224.072C161.541 224.259 161.923 224.352 162.353 224.352ZM172.648 229V223.596C172.648 223.335 172.634 223.069 172.606 222.798C172.587 222.518 172.564 222.243 172.536 221.972H173.628L173.768 223.512H173.6C173.786 222.98 174.08 222.569 174.482 222.28C174.892 221.991 175.387 221.846 175.966 221.846C176.554 221.846 177.03 221.986 177.394 222.266C177.767 222.546 178.019 222.98 178.15 223.568H177.94C178.117 223.036 178.43 222.616 178.878 222.308C179.326 222 179.848 221.846 180.446 221.846C181.22 221.846 181.804 222.07 182.196 222.518C182.588 222.957 182.784 223.652 182.784 224.604V229H181.65V224.674C181.65 224.011 181.533 223.531 181.3 223.232C181.066 222.924 180.693 222.77 180.18 222.77C179.592 222.77 179.125 222.975 178.78 223.386C178.444 223.787 178.276 224.329 178.276 225.01V229H177.142V224.674C177.142 224.011 177.025 223.531 176.792 223.232C176.558 222.924 176.185 222.77 175.672 222.77C175.084 222.77 174.622 222.975 174.286 223.386C173.95 223.787 173.782 224.329 173.782 225.01V229H172.648ZM197.906 229V227.572H199.334V229H197.906ZM214.633 229V219.13H218.665C219.701 219.13 220.503 219.377 221.073 219.872C221.642 220.357 221.927 221.039 221.927 221.916C221.927 222.495 221.796 222.989 221.535 223.4C221.283 223.801 220.923 224.109 220.457 224.324C219.999 224.539 219.463 224.646 218.847 224.646L219.099 224.464H219.379C219.761 224.464 220.102 224.557 220.401 224.744C220.709 224.931 220.951 225.243 221.129 225.682L222.529 229H221.255L219.911 225.738C219.752 225.318 219.514 225.047 219.197 224.926C218.879 224.795 218.483 224.73 218.007 224.73H215.795V229H214.633ZM215.795 223.82H218.497C219.243 223.82 219.808 223.661 220.191 223.344C220.583 223.017 220.779 222.551 220.779 221.944C220.779 221.337 220.583 220.875 220.191 220.558C219.808 220.241 219.243 220.082 218.497 220.082H215.795V223.82ZM228.778 229.126C227.443 229.126 226.449 228.785 225.796 228.104C225.152 227.423 224.83 226.419 224.83 225.094V219.13H225.978V225.038C225.978 226.055 226.202 226.821 226.65 227.334C227.098 227.847 227.807 228.104 228.778 228.104C229.693 228.104 230.388 227.847 230.864 227.334C231.34 226.821 231.578 226.055 231.578 225.038V219.13H232.726V225.094C232.726 226.419 232.39 227.423 231.718 228.104C231.055 228.785 230.075 229.126 228.778 229.126ZM235.672 229V219.13H236.834V227.992H241.818V229H235.672Z" fill="black"/>
<path d="M86 116.5C91.4328 116.5 96.33 118.042 99.8555 120.51C103.383 122.979 105.5 126.342 105.5 130C105.5 133.658 103.383 137.021 99.8555 139.49C96.33 141.958 91.4328 143.5 86 143.5C80.5672 143.5 75.67 141.958 72.1445 139.49C68.6175 137.021 66.5 133.658 66.5 130C66.5 126.342 68.6175 122.979 72.1445 120.51C75.67 118.042 80.5672 116.5 86 116.5Z" stroke="#00ADB5"/>
<path d="M327.5 128.5C351.248 128.5 370.5 147.752 370.5 171.5C370.5 195.248 351.248 214.5 327.5 214.5C303.752 214.5 284.5 195.248 284.5 171.5C284.5 147.752 303.752 128.5 327.5 128.5Z" stroke="#C2FCFF"/>
<path d="M594 145.5C598.603 145.5 602.75 146.818 605.732 148.923C608.716 151.029 610.5 153.892 610.5 157C610.5 160.108 608.716 162.971 605.732 165.077C602.75 167.182 598.603 168.5 594 168.5C589.397 168.5 585.25 167.182 582.268 165.077C579.284 162.971 577.5 160.108 577.5 157C577.5 153.892 579.284 151.029 582.268 148.923C585.25 146.818 589.397 145.5 594 145.5Z" stroke="#00ADB5"/>
<path d="M595 136C598.412 136 601.458 136.959 603.623 138.458C605.792 139.96 607 141.936 607 144C607 146.064 605.792 148.04 603.623 149.542C601.458 151.041 598.412 152 595 152C591.588 152 588.542 151.041 586.377 149.542C584.208 148.04 583 146.064 583 144C583 141.936 584.208 139.96 586.377 138.458C588.542 136.959 591.588 136 595 136Z" stroke="#00ADB5" stroke-width="2"/>
<g filter="url(#filter2_d_576_348)">
<rect x="593" y="118" width="35" height="22" rx="4" fill="white" shape-rendering="crispEdges"/>
<path d="M600.036 134.108C599.596 134.108 599.152 134.016 598.704 133.832C598.256 133.64 597.884 133.392 597.588 133.088L597.96 132.308C598.264 132.62 598.596 132.852 598.956 133.004C599.316 133.156 599.68 133.232 600.048 133.232C600.856 133.232 601.476 132.944 601.908 132.368C602.348 131.784 602.568 130.912 602.568 129.752V128.636H602.688C602.64 129.084 602.5 129.476 602.268 129.812C602.044 130.148 601.752 130.404 601.392 130.58C601.04 130.756 600.644 130.844 600.204 130.844C599.692 130.844 599.236 130.732 598.836 130.508C598.444 130.284 598.136 129.968 597.912 129.56C597.688 129.152 597.576 128.692 597.576 128.18C597.576 127.644 597.692 127.172 597.924 126.764C598.164 126.348 598.488 126.024 598.896 125.792C599.312 125.552 599.788 125.432 600.324 125.432C601.356 125.432 602.148 125.792 602.7 126.512C603.26 127.232 603.54 128.248 603.54 129.56C603.54 130.528 603.4 131.352 603.12 132.032C602.84 132.712 602.44 133.228 601.92 133.58C601.4 133.932 600.772 134.108 600.036 134.108ZM600.408 130.016C600.776 130.016 601.1 129.936 601.38 129.776C601.66 129.616 601.876 129.396 602.028 129.116C602.188 128.836 602.268 128.512 602.268 128.144C602.268 127.768 602.188 127.44 602.028 127.16C601.876 126.88 601.66 126.66 601.38 126.5C601.1 126.34 600.776 126.26 600.408 126.26C600.04 126.26 599.712 126.34 599.424 126.5C599.144 126.66 598.924 126.88 598.764 127.16C598.612 127.44 598.536 127.768 598.536 128.144C598.536 128.512 598.612 128.836 598.764 129.116C598.924 129.396 599.144 129.616 599.424 129.776C599.712 129.936 600.04 130.016 600.408 130.016ZM609.307 134V132.164H605.275V131.444L609.463 125.54H610.279V131.36H611.575V132.164H610.279V134H609.307ZM609.307 131.36V126.716H609.571L606.091 131.612V131.36H609.307ZM615.903 134H615.027L620.055 125.54H620.931L615.903 134ZM615.051 130.616C614.403 130.616 613.891 130.388 613.515 129.932C613.147 129.468 612.963 128.832 612.963 128.024C612.963 127.208 613.151 126.576 613.527 126.128C613.903 125.672 614.411 125.444 615.051 125.444C615.699 125.444 616.207 125.672 616.575 126.128C616.951 126.576 617.139 127.208 617.139 128.024C617.139 128.832 616.951 129.468 616.575 129.932C616.207 130.388 615.699 130.616 615.051 130.616ZM615.051 129.92C615.443 129.92 615.747 129.764 615.963 129.452C616.187 129.132 616.299 128.656 616.299 128.024C616.299 127.384 616.187 126.908 615.963 126.596C615.747 126.284 615.443 126.128 615.051 126.128C614.667 126.128 614.363 126.284 614.139 126.596C613.923 126.908 613.815 127.384 613.815 128.024C613.815 128.664 613.923 129.14 614.139 129.452C614.363 129.764 614.667 129.92 615.051 129.92ZM620.907 134.108C620.251 134.108 619.735 133.88 619.359 133.424C618.991 132.968 618.807 132.328 618.807 131.504C618.807 130.688 618.995 130.056 619.371 129.608C619.747 129.16 620.259 128.936 620.907 128.936C621.555 128.936 622.063 129.164 622.431 129.62C622.807 130.068 622.995 130.696 622.995 131.504C622.995 132.32 622.807 132.96 622.431 133.424C622.063 133.88 621.555 134.108 620.907 134.108ZM620.907 133.412C621.291 133.412 621.591 133.256 621.807 132.944C622.031 132.624 622.143 132.144 622.143 131.504C622.143 130.872 622.031 130.4 621.807 130.088C621.591 129.776 621.291 129.62 620.907 129.62C620.515 129.62 620.211 129.776 619.995 130.088C619.779 130.4 619.671 130.872 619.671 131.504C619.671 132.152 619.779 132.632 619.995 132.944C620.211 133.256 620.515 133.412 620.907 133.412Z" fill="#00ADB5"/>
</g>
</g>
<defs>
<filter id="filter0_d_576_348" x="0" y="0" width="710" height="462" filterUnits="userSpaceOnUse" color-interpolation-filters="sRGB">
<feFlood flood-opacity="0" result="BackgroundImageFix"/>
<feColorMatrix in="SourceAlpha" type="matrix" values="0 0 0 0 0 0 0 0 0 0 0 0 0 0 0 0 0 0 127 0" result="hardAlpha"/>
<feOffset dy="20"/>
<feGaussianBlur stdDeviation="15"/>
<feComposite in2="hardAlpha" operator="out"/>
<feColorMatrix type="matrix" values="0 0 0 0 0.663462 0 0 0 0 0.663462 0 0 0 0 0.663462 0 0 0 0.16 0"/>
<feBlend mode="normal" in2="BackgroundImageFix" result="effect1_dropShadow_576_348"/>
<feBlend mode="normal" in="SourceGraphic" in2="effect1_dropShadow_576_348" result="shape"/>
</filter>
<filter id="filter1_d_576_348" x="533" y="338" width="147" height="86" filterUnits="userSpaceOnUse" color-interpolation-filters="sRGB">
<feFlood flood-opacity="0" result="BackgroundImageFix"/>
<feColorMatrix in="SourceAlpha" type="matrix" values="0 0 0 0 0 0 0 0 0 0 0 0 0 0 0 0 0 0 127 0" result="hardAlpha"/>
<feOffset dy="12"/>
<feGaussianBlur stdDeviation="10"/>
<feComposite in2="hardAlpha" operator="out"/>
<feColorMatrix type="matrix" values="0 0 0 0 0.740385 0 0 0 0 0.740385 0 0 0 0 0.740385 0 0 0 0.16 0"/>
<feBlend mode="normal" in2="BackgroundImageFix" result="effect1_dropShadow_576_348"/>
<feBlend mode="normal" in="SourceGraphic" in2="effect1_dropShadow_576_348" result="shape"/>
</filter>
<filter id="filter2_d_576_348" x="589" y="118" width="43" height="30" filterUnits="userSpaceOnUse" color-interpolation-filters="sRGB">
<feFlood flood-opacity="0" result="BackgroundImageFix"/>
<feColorMatrix in="SourceAlpha" type="matrix" values="0 0 0 0 0 0 0 0 0 0 0 0 0 0 0 0 0 0 127 0" result="hardAlpha"/>
<feOffset dy="4"/>
<feGaussianBlur stdDeviation="2"/>
<feComposite in2="hardAlpha" operator="out"/>
<feColorMatrix type="matrix" values="0 0 0 0 0 0 0 0 0 0 0 0 0 0 0 0 0 0 0.25 0"/>
<feBlend mode="normal" in2="BackgroundImageFix" result="effect1_dropShadow_576_348"/>
<feBlend mode="normal" in="SourceGraphic" in2="effect1_dropShadow_576_348" result="shape"/>
</filter>
</defs>
</svg>
