<svg width="626" height="492" viewBox="0 0 626 492" fill="none" xmlns="http://www.w3.org/2000/svg">
<g filter="url(#filter0_d_582_1018)">
<rect x="85" y="14" width="511" height="432" rx="10" fill="white"/>
<rect x="85.5" y="14.5" width="510" height="431" rx="9.5" stroke="#C2FCFF"/>
</g>
<rect x="105" y="90" width="470" height="260" rx="12" fill="#EBFEFF"/>
<path d="M126.232 323V313.13H127.142L133.47 321.53H133.148V313.13H134.226V323H133.33L127.002 314.6H127.31V323H126.232ZM136.887 318.058C136.887 317.013 137.064 316.117 137.419 315.37C137.783 314.614 138.301 314.031 138.973 313.62C139.654 313.209 140.471 313.004 141.423 313.004C142.347 313.004 143.15 313.209 143.831 313.62C144.512 314.031 145.035 314.614 145.399 315.37C145.772 316.117 145.959 317.008 145.959 318.044C145.959 319.089 145.772 319.99 145.399 320.746C145.026 321.502 144.498 322.09 143.817 322.51C143.145 322.921 142.347 323.126 141.423 323.126C140.471 323.126 139.659 322.921 138.987 322.51C138.315 322.09 137.797 321.502 137.433 320.746C137.069 319.99 136.887 319.094 136.887 318.058ZM138.105 318.058C138.105 319.327 138.385 320.321 138.945 321.04C139.505 321.749 140.331 322.104 141.423 322.104C142.468 322.104 143.28 321.749 143.859 321.04C144.447 320.321 144.741 319.327 144.741 318.058C144.741 316.779 144.452 315.79 143.873 315.09C143.294 314.381 142.478 314.026 141.423 314.026C140.331 314.026 139.505 314.381 138.945 315.09C138.385 315.79 138.105 316.779 138.105 318.058ZM148.625 323V313.13H151.901C152.993 313.13 153.917 313.321 154.673 313.704C155.429 314.077 156.003 314.633 156.395 315.37C156.787 316.098 156.983 316.994 156.983 318.058C156.983 319.113 156.787 320.009 156.395 320.746C156.003 321.483 155.429 322.043 154.673 322.426C153.917 322.809 152.993 323 151.901 323H148.625ZM149.787 322.006H151.817C153.161 322.006 154.16 321.679 154.813 321.026C155.467 320.363 155.793 319.374 155.793 318.058C155.793 316.733 155.467 315.743 154.813 315.09C154.16 314.437 153.161 314.11 151.817 314.11H149.787V322.006ZM163.536 323.126C162.202 323.126 161.208 322.785 160.554 322.104C159.91 321.423 159.588 320.419 159.588 319.094V313.13H160.736V319.038C160.736 320.055 160.96 320.821 161.408 321.334C161.856 321.847 162.566 322.104 163.536 322.104C164.451 322.104 165.146 321.847 165.622 321.334C166.098 320.821 166.336 320.055 166.336 319.038V313.13H167.484V319.094C167.484 320.419 167.148 321.423 166.476 322.104C165.814 322.785 164.834 323.126 163.536 323.126ZM170.431 323V313.13H171.593V321.992H176.577V323H170.431ZM178.62 323V313.13H184.92V314.082H179.754V317.512H184.612V318.478H179.754V322.034H184.92V323H178.62Z" fill="black"/>
<path d="M197.882 323V321.572H199.31V323H197.882ZM216.919 323.126C216.405 323.126 215.887 323.019 215.365 322.804C214.842 322.58 214.408 322.291 214.063 321.936L214.497 321.026C214.851 321.39 215.239 321.661 215.659 321.838C216.079 322.015 216.503 322.104 216.933 322.104C217.875 322.104 218.599 321.768 219.103 321.096C219.616 320.415 219.873 319.397 219.873 318.044V316.742H220.013C219.957 317.265 219.793 317.722 219.523 318.114C219.261 318.506 218.921 318.805 218.501 319.01C218.09 319.215 217.628 319.318 217.115 319.318C216.517 319.318 215.985 319.187 215.519 318.926C215.061 318.665 214.702 318.296 214.441 317.82C214.179 317.344 214.049 316.807 214.049 316.21C214.049 315.585 214.184 315.034 214.455 314.558C214.735 314.073 215.113 313.695 215.589 313.424C216.074 313.144 216.629 313.004 217.255 313.004C218.459 313.004 219.383 313.424 220.027 314.264C220.68 315.104 221.007 316.289 221.007 317.82C221.007 318.949 220.843 319.911 220.517 320.704C220.19 321.497 219.723 322.099 219.117 322.51C218.51 322.921 217.777 323.126 216.919 323.126ZM217.353 318.352C217.782 318.352 218.16 318.259 218.487 318.072C218.813 317.885 219.065 317.629 219.243 317.302C219.429 316.975 219.523 316.597 219.523 316.168C219.523 315.729 219.429 315.347 219.243 315.02C219.065 314.693 218.813 314.437 218.487 314.25C218.16 314.063 217.782 313.97 217.353 313.97C216.923 313.97 216.541 314.063 216.205 314.25C215.878 314.437 215.621 314.693 215.435 315.02C215.257 315.347 215.169 315.729 215.169 316.168C215.169 316.597 215.257 316.975 215.435 317.302C215.621 317.629 215.878 317.885 216.205 318.072C216.541 318.259 216.923 318.352 217.353 318.352ZM227.648 323V317.596C227.648 317.335 227.634 317.069 227.606 316.798C227.587 316.518 227.564 316.243 227.536 315.972H228.628L228.768 317.512H228.6C228.786 316.98 229.08 316.569 229.482 316.28C229.892 315.991 230.387 315.846 230.966 315.846C231.554 315.846 232.03 315.986 232.394 316.266C232.767 316.546 233.019 316.98 233.15 317.568H232.94C233.117 317.036 233.43 316.616 233.878 316.308C234.326 316 234.848 315.846 235.446 315.846C236.22 315.846 236.804 316.07 237.196 316.518C237.588 316.957 237.784 317.652 237.784 318.604V323H236.65V318.674C236.65 318.011 236.533 317.531 236.3 317.232C236.066 316.924 235.693 316.77 235.18 316.77C234.592 316.77 234.125 316.975 233.78 317.386C233.444 317.787 233.276 318.329 233.276 319.01V323H232.142V318.674C232.142 318.011 232.025 317.531 231.792 317.232C231.558 316.924 231.185 316.77 230.672 316.77C230.084 316.77 229.622 316.975 229.286 317.386C228.95 317.787 228.782 318.329 228.782 319.01V323H227.648ZM252.906 323V321.572H254.334V323H252.906ZM269.633 323V313.13H273.665C274.701 313.13 275.503 313.377 276.073 313.872C276.642 314.357 276.927 315.039 276.927 315.916C276.927 316.495 276.796 316.989 276.535 317.4C276.283 317.801 275.923 318.109 275.457 318.324C274.999 318.539 274.463 318.646 273.847 318.646L274.099 318.464H274.379C274.761 318.464 275.102 318.557 275.401 318.744C275.709 318.931 275.951 319.243 276.129 319.682L277.529 323H276.255L274.911 319.738C274.752 319.318 274.514 319.047 274.197 318.926C273.879 318.795 273.483 318.73 273.007 318.73H270.795V323H269.633ZM270.795 317.82H273.497C274.243 317.82 274.808 317.661 275.191 317.344C275.583 317.017 275.779 316.551 275.779 315.944C275.779 315.337 275.583 314.875 275.191 314.558C274.808 314.241 274.243 314.082 273.497 314.082H270.795V317.82ZM283.778 323.126C282.443 323.126 281.449 322.785 280.796 322.104C280.152 321.423 279.83 320.419 279.83 319.094V313.13H280.978V319.038C280.978 320.055 281.202 320.821 281.65 321.334C282.098 321.847 282.807 322.104 283.778 322.104C284.693 322.104 285.388 321.847 285.864 321.334C286.34 320.821 286.578 320.055 286.578 319.038V313.13H287.726V319.094C287.726 320.419 287.39 321.423 286.718 322.104C286.055 322.785 285.075 323.126 283.778 323.126ZM290.672 323V313.13H291.834V321.992H296.818V323H290.672Z" fill="black"/>
<path d="M511 167.5C520.585 167.5 528.5 176.815 528.5 188.5C528.5 200.185 520.585 209.5 511 209.5C501.415 209.5 493.5 200.185 493.5 188.5C493.5 176.815 501.415 167.5 511 167.5Z" stroke="#EEEEEE"/>
<path d="M511 162C516.343 162 521.137 163.518 524.568 165.92C528.003 168.324 530 171.55 530 175C530 178.45 528.003 181.676 524.568 184.08C521.137 186.482 516.343 188 511 188C505.657 188 500.863 186.482 497.432 184.08C493.997 181.676 492 178.45 492 175C492 171.55 493.997 168.324 497.432 165.92C500.863 163.518 505.657 162 511 162Z" stroke="#00ADB5" stroke-width="2"/>
<ellipse cx="511" cy="175" rx="7" ry="5" fill="#C2FCFF"/>
<g filter="url(#filter1_d_582_1018)">
<rect x="491" y="110" width="69" height="30" rx="4" fill="white" shape-rendering="crispEdges"/>
<path d="M500.536 130.108C500.096 130.108 499.652 130.016 499.204 129.832C498.756 129.64 498.384 129.392 498.088 129.088L498.46 128.308C498.764 128.62 499.096 128.852 499.456 129.004C499.816 129.156 500.18 129.232 500.548 129.232C501.356 129.232 501.976 128.944 502.408 128.368C502.848 127.784 503.068 126.912 503.068 125.752V124.636H503.188C503.14 125.084 503 125.476 502.768 125.812C502.544 126.148 502.252 126.404 501.892 126.58C501.54 126.756 501.144 126.844 500.704 126.844C500.192 126.844 499.736 126.732 499.336 126.508C498.944 126.284 498.636 125.968 498.412 125.56C498.188 125.152 498.076 124.692 498.076 124.18C498.076 123.644 498.192 123.172 498.424 122.764C498.664 122.348 498.988 122.024 499.396 121.792C499.812 121.552 500.288 121.432 500.824 121.432C501.856 121.432 502.648 121.792 503.2 122.512C503.76 123.232 504.04 124.248 504.04 125.56C504.04 126.528 503.9 127.352 503.62 128.032C503.34 128.712 502.94 129.228 502.42 129.58C501.9 129.932 501.272 130.108 500.536 130.108ZM500.908 126.016C501.276 126.016 501.6 125.936 501.88 125.776C502.16 125.616 502.376 125.396 502.528 125.116C502.688 124.836 502.768 124.512 502.768 124.144C502.768 123.768 502.688 123.44 502.528 123.16C502.376 122.88 502.16 122.66 501.88 122.5C501.6 122.34 501.276 122.26 500.908 122.26C500.54 122.26 500.212 122.34 499.924 122.5C499.644 122.66 499.424 122.88 499.264 123.16C499.112 123.44 499.036 123.768 499.036 124.144C499.036 124.512 499.112 124.836 499.264 125.116C499.424 125.396 499.644 125.616 499.924 125.776C500.212 125.936 500.54 126.016 500.908 126.016ZM509.807 130V128.164H505.775V127.444L509.963 121.54H510.779V127.36H512.075V128.164H510.779V130H509.807ZM509.807 127.36V122.716H510.071L506.591 127.612V127.36H509.807ZM516.403 130H515.527L520.555 121.54H521.431L516.403 130ZM515.551 126.616C514.903 126.616 514.391 126.388 514.015 125.932C513.647 125.468 513.463 124.832 513.463 124.024C513.463 123.208 513.651 122.576 514.027 122.128C514.403 121.672 514.911 121.444 515.551 121.444C516.199 121.444 516.707 121.672 517.075 122.128C517.451 122.576 517.639 123.208 517.639 124.024C517.639 124.832 517.451 125.468 517.075 125.932C516.707 126.388 516.199 126.616 515.551 126.616ZM515.551 125.92C515.943 125.92 516.247 125.764 516.463 125.452C516.687 125.132 516.799 124.656 516.799 124.024C516.799 123.384 516.687 122.908 516.463 122.596C516.247 122.284 515.943 122.128 515.551 122.128C515.167 122.128 514.863 122.284 514.639 122.596C514.423 122.908 514.315 123.384 514.315 124.024C514.315 124.664 514.423 125.14 514.639 125.452C514.863 125.764 515.167 125.92 515.551 125.92ZM521.407 130.108C520.751 130.108 520.235 129.88 519.859 129.424C519.491 128.968 519.307 128.328 519.307 127.504C519.307 126.688 519.495 126.056 519.871 125.608C520.247 125.16 520.759 124.936 521.407 124.936C522.055 124.936 522.563 125.164 522.931 125.62C523.307 126.068 523.495 126.696 523.495 127.504C523.495 128.32 523.307 128.96 522.931 129.424C522.563 129.88 522.055 130.108 521.407 130.108ZM521.407 129.412C521.791 129.412 522.091 129.256 522.307 128.944C522.531 128.624 522.643 128.144 522.643 127.504C522.643 126.872 522.531 126.4 522.307 126.088C522.091 125.776 521.791 125.62 521.407 125.62C521.015 125.62 520.711 125.776 520.495 126.088C520.279 126.4 520.171 126.872 520.171 127.504C520.171 128.152 520.279 128.632 520.495 128.944C520.711 129.256 521.015 129.412 521.407 129.412ZM531.658 130.108C531.066 130.108 530.55 129.98 530.11 129.724C529.678 129.468 529.342 129.104 529.102 128.632C528.87 128.16 528.754 127.6 528.754 126.952C528.754 126.296 528.874 125.74 529.114 125.284C529.354 124.82 529.69 124.468 530.122 124.228C530.562 123.988 531.074 123.868 531.658 123.868C532.042 123.868 532.414 123.936 532.774 124.072C533.142 124.208 533.446 124.4 533.686 124.648L533.338 125.344C533.098 125.112 532.834 124.94 532.546 124.828C532.266 124.716 531.99 124.66 531.718 124.66C531.094 124.66 530.61 124.856 530.266 125.248C529.922 125.64 529.75 126.212 529.75 126.964C529.75 127.708 529.922 128.284 530.266 128.692C530.61 129.1 531.094 129.304 531.718 129.304C531.982 129.304 532.254 129.252 532.534 129.148C532.822 129.044 533.09 128.872 533.338 128.632L533.686 129.316C533.438 129.572 533.13 129.768 532.762 129.904C532.394 130.04 532.026 130.108 531.658 130.108ZM537.902 130.108C537.326 130.108 536.822 129.984 536.39 129.736C535.966 129.48 535.638 129.12 535.406 128.656C535.174 128.184 535.058 127.628 535.058 126.988C535.058 126.34 535.174 125.784 535.406 125.32C535.638 124.856 535.966 124.5 536.39 124.252C536.822 123.996 537.326 123.868 537.902 123.868C538.486 123.868 538.99 123.996 539.414 124.252C539.846 124.5 540.178 124.856 540.41 125.32C540.65 125.784 540.77 126.34 540.77 126.988C540.77 127.628 540.65 128.184 540.41 128.656C540.178 129.12 539.846 129.48 539.414 129.736C538.99 129.984 538.486 130.108 537.902 130.108ZM537.902 129.316C538.478 129.316 538.934 129.12 539.27 128.728C539.606 128.328 539.774 127.748 539.774 126.988C539.774 126.22 539.602 125.64 539.258 125.248C538.922 124.848 538.47 124.648 537.902 124.648C537.334 124.648 536.882 124.848 536.546 125.248C536.21 125.64 536.042 126.22 536.042 126.988C536.042 127.748 536.21 128.328 536.546 128.728C536.882 129.12 537.334 129.316 537.902 129.316ZM542.766 130V125.368C542.766 125.144 542.754 124.916 542.73 124.684C542.714 124.444 542.694 124.208 542.67 123.976H543.606L543.726 125.296H543.582C543.758 124.832 544.038 124.48 544.422 124.24C544.814 123.992 545.266 123.868 545.778 123.868C546.49 123.868 547.026 124.06 547.386 124.444C547.754 124.82 547.938 125.416 547.938 126.232V130H546.966V126.292C546.966 125.724 546.85 125.312 546.618 125.056C546.394 124.792 546.042 124.66 545.562 124.66C545.002 124.66 544.558 124.832 544.23 125.176C543.902 125.52 543.738 125.98 543.738 126.556V130H542.766ZM550.589 130V124.732H549.413V123.976H550.853L550.589 124.228V123.22C550.589 122.54 550.761 122.02 551.105 121.66C551.449 121.3 551.941 121.12 552.581 121.12C552.741 121.12 552.905 121.136 553.073 121.168C553.249 121.192 553.393 121.228 553.505 121.276V122.08C553.409 122.04 553.289 122.008 553.145 121.984C553.009 121.952 552.869 121.936 552.725 121.936C552.477 121.936 552.265 121.988 552.089 122.092C551.913 122.188 551.781 122.336 551.693 122.536C551.605 122.736 551.561 122.992 551.561 123.304V124.18L551.405 123.976H553.241V124.732H551.561V130H550.589Z" fill="#00ADB5"/>
</g>
<g filter="url(#filter2_d_582_1018)">
<rect x="468" y="385" width="106" height="46" rx="6" fill="#00ADB5" shape-rendering="crispEdges"/>
<path d="M494.32 414.144C493.189 414.144 492.229 413.909 491.44 413.44C490.651 412.971 490.043 412.304 489.616 411.44C489.2 410.576 488.992 409.547 488.992 408.352C488.992 407.157 489.2 406.133 489.616 405.28C490.043 404.416 490.651 403.749 491.44 403.28C492.229 402.811 493.189 402.576 494.32 402.576C495.12 402.576 495.835 402.699 496.464 402.944C497.093 403.189 497.643 403.547 498.112 404.016L497.616 405.072C497.104 404.624 496.597 404.299 496.096 404.096C495.595 403.883 495.008 403.776 494.336 403.776C493.045 403.776 492.064 404.176 491.392 404.976C490.72 405.776 490.384 406.901 490.384 408.352C490.384 409.803 490.72 410.933 491.392 411.744C492.064 412.544 493.045 412.944 494.336 412.944C495.008 412.944 495.595 412.843 496.096 412.64C496.597 412.427 497.104 412.091 497.616 411.632L498.112 412.704C497.643 413.163 497.093 413.52 496.464 413.776C495.835 414.021 495.12 414.144 494.32 414.144ZM503.575 414.144C502.807 414.144 502.135 413.979 501.559 413.648C500.994 413.307 500.556 412.827 500.247 412.208C499.938 411.579 499.783 410.837 499.783 409.984C499.783 409.12 499.938 408.379 500.247 407.76C500.556 407.141 500.994 406.667 501.559 406.336C502.135 405.995 502.807 405.824 503.575 405.824C504.354 405.824 505.026 405.995 505.591 406.336C506.167 406.667 506.61 407.141 506.919 407.76C507.239 408.379 507.399 409.12 507.399 409.984C507.399 410.837 507.239 411.579 506.919 412.208C506.61 412.827 506.167 413.307 505.591 413.648C505.026 413.979 504.354 414.144 503.575 414.144ZM503.575 413.088C504.343 413.088 504.951 412.827 505.399 412.304C505.847 411.771 506.071 410.997 506.071 409.984C506.071 408.96 505.842 408.187 505.383 407.664C504.935 407.131 504.332 406.864 503.575 406.864C502.818 406.864 502.215 407.131 501.767 407.664C501.319 408.187 501.095 408.96 501.095 409.984C501.095 410.997 501.319 411.771 501.767 412.304C502.215 412.827 502.818 413.088 503.575 413.088ZM510.06 417.456V407.824C510.06 407.525 510.044 407.221 510.012 406.912C509.99 406.592 509.964 406.277 509.932 405.968H511.18L511.356 407.872H511.164C511.334 407.243 511.681 406.747 512.204 406.384C512.726 406.011 513.35 405.824 514.076 405.824C514.801 405.824 515.425 405.989 515.948 406.32C516.481 406.651 516.897 407.125 517.196 407.744C517.494 408.363 517.644 409.109 517.644 409.984C517.644 410.848 517.494 411.589 517.196 412.208C516.908 412.827 516.497 413.307 515.964 413.648C515.43 413.979 514.801 414.144 514.076 414.144C513.361 414.144 512.742 413.963 512.22 413.6C511.697 413.237 511.35 412.741 511.18 412.112H511.356V417.456H510.06ZM513.82 413.088C514.588 413.088 515.196 412.827 515.644 412.304C516.102 411.771 516.332 410.997 516.332 409.984C516.332 408.96 516.102 408.187 515.644 407.664C515.196 407.131 514.588 406.864 513.82 406.864C513.062 406.864 512.454 407.131 511.996 407.664C511.548 408.187 511.324 408.96 511.324 409.984C511.324 410.997 511.548 411.771 511.996 412.304C512.454 412.827 513.062 413.088 513.82 413.088ZM519.864 417.632L519.56 416.56C520.061 416.443 520.477 416.304 520.808 416.144C521.149 415.995 521.432 415.792 521.656 415.536C521.88 415.28 522.072 414.96 522.232 414.576L522.648 413.632L522.616 414.176L519.112 405.968H520.52L523.416 413.024H523L525.864 405.968H527.224L523.512 414.672C523.299 415.184 523.064 415.611 522.808 415.952C522.552 416.304 522.275 416.587 521.976 416.8C521.688 417.024 521.368 417.2 521.016 417.328C520.664 417.456 520.28 417.557 519.864 417.632ZM533.16 414L538.136 402.72H539.288L544.344 414H542.968L541.56 410.784L542.152 411.12H535.256L535.896 410.784L534.52 414H533.16ZM538.696 404.24L536.104 410.32L535.72 410.032H541.672L541.384 410.32L538.728 404.24H538.696ZM546.542 414V402.224H547.838V414H546.542ZM550.994 414V402.224H552.29V414H550.994Z" fill="white"/>
</g>
<path d="M105 416L111.38 401.9H113.54L120 416H117.38L115.66 412.04L116.7 412.74H108.24L109.32 412.04L107.6 416H105ZM112.44 404.66L109.62 411.34L109.1 410.72H115.82L115.4 411.34L112.52 404.66H112.44ZM121.96 416V401.9H124.54V416H121.96ZM133.932 416V401.9H140.092C141.639 401.9 142.832 402.267 143.672 403C144.525 403.733 144.952 404.753 144.952 406.06C144.952 406.927 144.759 407.667 144.372 408.28C143.999 408.893 143.459 409.367 142.752 409.7C142.045 410.02 141.212 410.18 140.252 410.18L140.532 409.8H141.212C141.772 409.8 142.272 409.947 142.712 410.24C143.152 410.533 143.512 410.98 143.792 411.58L145.852 416H143.012L140.932 411.42C140.745 410.953 140.459 410.647 140.072 410.5C139.699 410.353 139.245 410.28 138.712 410.28H136.512V416H133.932ZM136.512 408.38H139.672C140.579 408.38 141.265 408.193 141.732 407.82C142.212 407.433 142.452 406.873 142.452 406.14C142.452 405.407 142.212 404.853 141.732 404.48C141.265 404.107 140.579 403.92 139.672 403.92H136.512V408.38ZM151.977 416.2C151.097 416.2 150.324 415.993 149.657 415.58C148.991 415.153 148.471 414.547 148.097 413.76C147.724 412.973 147.537 412.033 147.537 410.94C147.537 409.847 147.724 408.913 148.097 408.14C148.471 407.353 148.991 406.753 149.657 406.34C150.324 405.913 151.097 405.7 151.977 405.7C152.831 405.7 153.577 405.913 154.217 406.34C154.871 406.753 155.304 407.313 155.517 408.02H155.297L155.517 405.9H157.917C157.877 406.313 157.837 406.733 157.797 407.16C157.771 407.587 157.757 408.007 157.757 408.42V416H155.277L155.257 413.92H155.497C155.284 414.613 154.851 415.167 154.197 415.58C153.544 415.993 152.804 416.2 151.977 416.2ZM152.677 414.28C153.464 414.28 154.097 414.007 154.577 413.46C155.057 412.9 155.297 412.06 155.297 410.94C155.297 409.82 155.057 408.987 154.577 408.44C154.097 407.893 153.464 407.62 152.677 407.62C151.891 407.62 151.257 407.893 150.777 408.44C150.297 408.987 150.057 409.82 150.057 410.94C150.057 412.06 150.291 412.9 150.757 413.46C151.237 414.007 151.877 414.28 152.677 414.28ZM164.8 416.2C163.92 416.2 163.14 415.993 162.46 415.58C161.793 415.153 161.273 414.547 160.9 413.76C160.526 412.973 160.34 412.033 160.34 410.94C160.34 409.847 160.526 408.913 160.9 408.14C161.273 407.353 161.793 406.753 162.46 406.34C163.14 405.913 163.92 405.7 164.8 405.7C165.64 405.7 166.38 405.907 167.02 406.32C167.673 406.72 168.106 407.267 168.32 407.96H168.06V401.28H170.56V416H168.1V413.86H168.34C168.126 414.58 167.693 415.153 167.04 415.58C166.4 415.993 165.653 416.2 164.8 416.2ZM165.5 414.28C166.286 414.28 166.92 414.007 167.4 413.46C167.88 412.9 168.12 412.06 168.12 410.94C168.12 409.82 167.88 408.987 167.4 408.44C166.92 407.893 166.286 407.62 165.5 407.62C164.713 407.62 164.073 407.893 163.58 408.44C163.1 408.987 162.86 409.82 162.86 410.94C162.86 412.06 163.1 412.9 163.58 413.46C164.073 414.007 164.713 414.28 165.5 414.28ZM173.682 416V405.9H176.182V416H173.682ZM173.542 404V401.56H176.322V404H173.542ZM183.857 416.2C182.817 416.2 181.917 415.987 181.157 415.56C180.397 415.133 179.803 414.527 179.377 413.74C178.963 412.953 178.757 412.02 178.757 410.94C178.757 409.86 178.963 408.933 179.377 408.16C179.803 407.373 180.397 406.767 181.157 406.34C181.917 405.913 182.817 405.7 183.857 405.7C184.897 405.7 185.797 405.913 186.557 406.34C187.33 406.767 187.923 407.373 188.337 408.16C188.763 408.933 188.977 409.86 188.977 410.94C188.977 412.02 188.763 412.953 188.337 413.74C187.923 414.527 187.33 415.133 186.557 415.56C185.797 415.987 184.897 416.2 183.857 416.2ZM183.857 414.28C184.643 414.28 185.27 414.007 185.737 413.46C186.203 412.9 186.437 412.06 186.437 410.94C186.437 409.82 186.203 408.987 185.737 408.44C185.27 407.893 184.643 407.62 183.857 407.62C183.07 407.62 182.443 407.893 181.977 408.44C181.51 408.987 181.277 409.82 181.277 410.94C181.277 412.06 181.51 412.9 181.977 413.46C182.443 414.007 183.07 414.28 183.857 414.28ZM191.533 416V401.28H194.033V416H191.533ZM201.707 416.2C200.667 416.2 199.767 415.987 199.007 415.56C198.247 415.133 197.654 414.527 197.227 413.74C196.814 412.953 196.607 412.02 196.607 410.94C196.607 409.86 196.814 408.933 197.227 408.16C197.654 407.373 198.247 406.767 199.007 406.34C199.767 405.913 200.667 405.7 201.707 405.7C202.747 405.7 203.647 405.913 204.407 406.34C205.181 406.767 205.774 407.373 206.187 408.16C206.614 408.933 206.827 409.86 206.827 410.94C206.827 412.02 206.614 412.953 206.187 413.74C205.774 414.527 205.181 415.133 204.407 415.56C203.647 415.987 202.747 416.2 201.707 416.2ZM201.707 414.28C202.494 414.28 203.121 414.007 203.587 413.46C204.054 412.9 204.287 412.06 204.287 410.94C204.287 409.82 204.054 408.987 203.587 408.44C203.121 407.893 202.494 407.62 201.707 407.62C200.921 407.62 200.294 407.893 199.827 408.44C199.361 408.987 199.127 409.82 199.127 410.94C199.127 412.06 199.361 412.9 199.827 413.46C200.294 414.007 200.921 414.28 201.707 414.28ZM214.063 420.48C213.13 420.48 212.283 420.38 211.523 420.18C210.777 419.98 210.11 419.673 209.523 419.26L210.063 417.46C210.45 417.713 210.85 417.92 211.263 418.08C211.677 418.24 212.103 418.36 212.543 418.44C212.983 418.52 213.43 418.56 213.883 418.56C214.817 418.56 215.51 418.327 215.963 417.86C216.43 417.407 216.663 416.753 216.663 415.9V413.48H216.863C216.65 414.173 216.217 414.727 215.563 415.14C214.923 415.553 214.183 415.76 213.343 415.76C212.437 415.76 211.643 415.56 210.963 415.16C210.297 414.747 209.777 414.16 209.403 413.4C209.03 412.64 208.843 411.747 208.843 410.72C208.843 409.693 209.03 408.807 209.403 408.06C209.777 407.3 210.297 406.72 210.963 406.32C211.643 405.907 212.437 405.7 213.343 405.7C214.197 405.7 214.937 405.907 215.563 406.32C216.203 406.72 216.63 407.267 216.843 407.96L216.663 407.84L216.863 405.9H219.283C219.23 406.313 219.19 406.733 219.163 407.16C219.137 407.587 219.123 408.007 219.123 408.42V415.6C219.123 417.187 218.69 418.393 217.823 419.22C216.97 420.06 215.717 420.48 214.063 420.48ZM214.023 413.84C214.823 413.84 215.457 413.573 215.923 413.04C216.403 412.493 216.643 411.72 216.643 410.72C216.643 409.72 216.403 408.953 215.923 408.42C215.457 407.887 214.823 407.62 214.023 407.62C213.21 407.62 212.563 407.887 212.083 408.42C211.603 408.953 211.363 409.72 211.363 410.72C211.363 411.72 211.603 412.493 212.083 413.04C212.563 413.573 213.21 413.84 214.023 413.84ZM222.225 416V405.9H224.725V416H222.225ZM222.085 404V401.56H224.865V404H222.085ZM231.44 416.2C230.573 416.2 229.773 416.1 229.04 415.9C228.32 415.687 227.713 415.393 227.22 415.02L227.92 413.34C228.426 413.687 228.986 413.953 229.6 414.14C230.213 414.327 230.833 414.42 231.46 414.42C232.126 414.42 232.62 414.307 232.94 414.08C233.273 413.853 233.44 413.547 233.44 413.16C233.44 412.853 233.333 412.613 233.12 412.44C232.92 412.253 232.593 412.113 232.14 412.02L230.14 411.64C229.286 411.453 228.633 411.133 228.18 410.68C227.74 410.227 227.52 409.633 227.52 408.9C227.52 408.273 227.686 407.72 228.02 407.24C228.366 406.76 228.853 406.387 229.48 406.12C230.12 405.84 230.866 405.7 231.72 405.7C232.466 405.7 233.166 405.8 233.82 406C234.486 406.2 235.046 406.5 235.5 406.9L234.78 408.52C234.366 408.187 233.893 407.927 233.36 407.74C232.826 407.553 232.306 407.46 231.8 407.46C231.106 407.46 230.6 407.587 230.28 407.84C229.96 408.08 229.8 408.393 229.8 408.78C229.8 409.073 229.893 409.32 230.08 409.52C230.28 409.707 230.586 409.847 231 409.94L233 410.32C233.893 410.493 234.566 410.8 235.02 411.24C235.486 411.667 235.72 412.253 235.72 413C235.72 413.667 235.54 414.24 235.18 414.72C234.82 415.2 234.32 415.567 233.68 415.82C233.04 416.073 232.293 416.2 231.44 416.2ZM242.482 416.2C241.282 416.2 240.375 415.887 239.762 415.26C239.148 414.633 238.842 413.693 238.842 412.44V407.78H236.902V405.9H238.842V403.32L241.342 402.68V405.9H244.042V407.78H241.342V412.28C241.342 412.973 241.475 413.46 241.742 413.74C242.008 414.02 242.375 414.16 242.842 414.16C243.095 414.16 243.308 414.14 243.482 414.1C243.668 414.06 243.848 414.007 244.022 413.94V415.92C243.795 416.013 243.542 416.08 243.262 416.12C242.995 416.173 242.735 416.2 242.482 416.2Z" fill="#00ADB5"/>
<rect x="105" y="34" width="90" height="36" rx="6" fill="#00ADB5"/>
<path d="M121.732 57V47.13H127.892V48.082H122.894V51.54H127.584V52.492H122.894V57H121.732ZM130.027 57V49.972H131.161V57H130.027ZM129.887 48.376V47.102H131.287V48.376H129.887ZM133.923 57V51.596C133.923 51.3347 133.909 51.0687 133.881 50.798C133.863 50.518 133.839 50.2427 133.811 49.972H134.903L135.043 51.512H134.875C135.081 50.9707 135.407 50.56 135.855 50.28C136.313 49.9907 136.84 49.846 137.437 49.846C138.268 49.846 138.893 50.07 139.313 50.518C139.743 50.9567 139.957 51.652 139.957 52.604V57H138.823V52.674C138.823 52.0113 138.688 51.5307 138.417 51.232C138.156 50.924 137.745 50.77 137.185 50.77C136.532 50.77 136.014 50.9707 135.631 51.372C135.249 51.7733 135.057 52.31 135.057 52.982V57H133.923ZM145.346 57.126C144.73 57.126 144.189 56.9813 143.722 56.692C143.256 56.3933 142.892 55.9733 142.63 55.432C142.378 54.8907 142.252 54.242 142.252 53.486C142.252 52.7207 142.378 52.0673 142.63 51.526C142.892 50.9847 143.256 50.5693 143.722 50.28C144.189 49.9907 144.73 49.846 145.346 49.846C145.981 49.846 146.527 50.0047 146.984 50.322C147.451 50.6393 147.764 51.0687 147.922 51.61H147.754V46.696H148.888V57H147.768V55.32H147.922C147.773 55.88 147.465 56.3233 146.998 56.65C146.532 56.9673 145.981 57.126 145.346 57.126ZM145.584 56.202C146.247 56.202 146.779 55.9733 147.18 55.516C147.582 55.0493 147.782 54.3727 147.782 53.486C147.782 52.59 147.582 51.9133 147.18 51.456C146.779 50.9893 146.247 50.756 145.584 50.756C144.922 50.756 144.39 50.9893 143.988 51.456C143.596 51.9133 143.4 52.59 143.4 53.486C143.4 54.3727 143.596 55.0493 143.988 55.516C144.39 55.9733 144.922 56.202 145.584 56.202ZM151.641 57V49.972H152.775V57H151.641ZM151.501 48.376V47.102H152.901V48.376H151.501ZM155.537 57V51.596C155.537 51.3347 155.523 51.0687 155.495 50.798C155.476 50.518 155.453 50.2427 155.425 49.972H156.517L156.657 51.512H156.489C156.694 50.9707 157.021 50.56 157.469 50.28C157.926 49.9907 158.454 49.846 159.051 49.846C159.882 49.846 160.507 50.07 160.927 50.518C161.356 50.9567 161.571 51.652 161.571 52.604V57H160.437V52.674C160.437 52.0113 160.302 51.5307 160.031 51.232C159.77 50.924 159.359 50.77 158.799 50.77C158.146 50.77 157.628 50.9707 157.245 51.372C156.862 51.7733 156.671 52.31 156.671 52.982V57H155.537ZM167.394 60.122C166.787 60.122 166.227 60.0473 165.714 59.898C165.201 59.7487 164.739 59.52 164.328 59.212L164.664 58.358C164.953 58.5633 165.238 58.7267 165.518 58.848C165.798 58.9693 166.087 59.058 166.386 59.114C166.685 59.1793 167.002 59.212 167.338 59.212C168.029 59.212 168.551 59.03 168.906 58.666C169.261 58.302 169.438 57.784 169.438 57.112V55.054H169.578C169.429 55.6047 169.121 56.0433 168.654 56.37C168.187 56.6873 167.641 56.846 167.016 56.846C166.372 56.846 165.812 56.706 165.336 56.426C164.869 56.1367 164.505 55.7307 164.244 55.208C163.992 54.676 163.866 54.0507 163.866 53.332C163.866 52.6227 163.992 52.0067 164.244 51.484C164.505 50.9613 164.869 50.56 165.336 50.28C165.812 49.9907 166.372 49.846 167.016 49.846C167.651 49.846 168.197 50.0047 168.654 50.322C169.121 50.6393 169.429 51.078 169.578 51.638L169.438 51.498L169.564 49.972H170.67C170.633 50.2427 170.605 50.518 170.586 50.798C170.567 51.0687 170.558 51.3347 170.558 51.596V56.958C170.558 58.0033 170.287 58.792 169.746 59.324C169.214 59.856 168.43 60.122 167.394 60.122ZM167.226 55.922C167.907 55.922 168.444 55.698 168.836 55.25C169.228 54.7927 169.424 54.1533 169.424 53.332C169.424 52.5107 169.228 51.876 168.836 51.428C168.444 50.98 167.907 50.756 167.226 50.756C166.554 50.756 166.017 50.98 165.616 51.428C165.215 51.876 165.014 52.5107 165.014 53.332C165.014 54.1533 165.215 54.7927 165.616 55.25C166.017 55.698 166.554 55.922 167.226 55.922ZM175.634 57.126C175.074 57.126 174.551 57.0513 174.066 56.902C173.58 56.7433 173.179 56.524 172.862 56.244L173.254 55.446C173.599 55.7167 173.972 55.9173 174.374 56.048C174.784 56.1787 175.209 56.244 175.648 56.244C176.208 56.244 176.628 56.146 176.908 55.95C177.197 55.7447 177.342 55.4647 177.342 55.11C177.342 54.8393 177.248 54.6247 177.062 54.466C176.884 54.298 176.59 54.1673 176.18 54.074L174.878 53.808C174.28 53.6773 173.832 53.458 173.534 53.15C173.235 52.8327 173.086 52.4313 173.086 51.946C173.086 51.5353 173.193 51.176 173.408 50.868C173.622 50.5507 173.935 50.3033 174.346 50.126C174.756 49.9393 175.237 49.846 175.788 49.846C176.301 49.846 176.772 49.9253 177.202 50.084C177.64 50.2333 178.004 50.4527 178.294 50.742L177.888 51.526C177.608 51.2553 177.286 51.0547 176.922 50.924C176.567 50.784 176.198 50.714 175.816 50.714C175.265 50.714 174.85 50.826 174.57 51.05C174.299 51.2647 174.164 51.5493 174.164 51.904C174.164 52.1747 174.248 52.3987 174.416 52.576C174.593 52.744 174.864 52.87 175.228 52.954L176.53 53.22C177.164 53.36 177.636 53.5793 177.944 53.878C178.261 54.1673 178.42 54.5593 178.42 55.054C178.42 55.474 178.303 55.8427 178.07 56.16C177.836 56.468 177.51 56.706 177.09 56.874C176.679 57.042 176.194 57.126 175.634 57.126Z" fill="white"/>
<path d="M212.232 57V47.13H216.264C217.3 47.13 218.103 47.3773 218.672 47.872C219.241 48.3573 219.526 49.0387 219.526 49.916C219.526 50.4947 219.395 50.9893 219.134 51.4C218.882 51.8013 218.523 52.1093 218.056 52.324C217.599 52.5387 217.062 52.646 216.446 52.646L216.698 52.464H216.978C217.361 52.464 217.701 52.5573 218 52.744C218.308 52.9307 218.551 53.2433 218.728 53.682L220.128 57H218.854L217.51 53.738C217.351 53.318 217.113 53.0473 216.796 52.926C216.479 52.7953 216.082 52.73 215.606 52.73H213.394V57H212.232ZM213.394 51.82H216.096C216.843 51.82 217.407 51.6613 217.79 51.344C218.182 51.0173 218.378 50.5507 218.378 49.944C218.378 49.3373 218.182 48.8753 217.79 48.558C217.407 48.2407 216.843 48.082 216.096 48.082H213.394V51.82ZM225.331 57.126C224.23 57.126 223.362 56.8087 222.727 56.174C222.092 55.53 221.775 54.6387 221.775 53.5C221.775 52.7627 221.915 52.1233 222.195 51.582C222.475 51.0313 222.867 50.6067 223.371 50.308C223.875 50 224.454 49.846 225.107 49.846C225.751 49.846 226.292 49.9813 226.731 50.252C227.17 50.5227 227.506 50.91 227.739 51.414C227.972 51.9087 228.089 52.4967 228.089 53.178V53.598H222.643V52.884H227.347L227.109 53.066C227.109 52.3193 226.941 51.736 226.605 51.316C226.269 50.896 225.77 50.686 225.107 50.686C224.407 50.686 223.861 50.9333 223.469 51.428C223.077 51.9133 222.881 52.5713 222.881 53.402V53.528C222.881 54.4053 223.096 55.0727 223.525 55.53C223.964 55.978 224.575 56.202 225.359 56.202C225.779 56.202 226.171 56.1413 226.535 56.02C226.908 55.8893 227.263 55.6793 227.599 55.39L227.991 56.188C227.683 56.4867 227.291 56.72 226.815 56.888C226.348 57.0467 225.854 57.126 225.331 57.126ZM230.384 60.024V51.596C230.384 51.3347 230.37 51.0687 230.342 50.798C230.324 50.518 230.3 50.2427 230.272 49.972H231.364L231.518 51.638H231.35C231.5 51.0873 231.803 50.6533 232.26 50.336C232.718 50.0093 233.264 49.846 233.898 49.846C234.533 49.846 235.079 49.9907 235.536 50.28C236.003 50.5693 236.367 50.9847 236.628 51.526C236.89 52.0673 237.02 52.7207 237.02 53.486C237.02 54.242 236.89 54.8907 236.628 55.432C236.376 55.9733 236.017 56.3933 235.55 56.692C235.084 56.9813 234.533 57.126 233.898 57.126C233.273 57.126 232.732 56.9673 232.274 56.65C231.817 56.3327 231.514 55.8987 231.364 55.348H231.518V60.024H230.384ZM233.674 56.202C234.346 56.202 234.878 55.9733 235.27 55.516C235.672 55.0493 235.872 54.3727 235.872 53.486C235.872 52.59 235.672 51.9133 235.27 51.456C234.878 50.9893 234.346 50.756 233.674 50.756C233.012 50.756 232.48 50.9893 232.078 51.456C231.686 51.9133 231.49 52.59 231.49 53.486C231.49 54.3727 231.686 55.0493 232.078 55.516C232.48 55.9733 233.012 56.202 233.674 56.202ZM242.223 57.126C241.551 57.126 240.963 56.9813 240.459 56.692C239.964 56.3933 239.581 55.9733 239.311 55.432C239.04 54.8813 238.905 54.2327 238.905 53.486C238.905 52.73 239.04 52.0813 239.311 51.54C239.581 50.9987 239.964 50.5833 240.459 50.294C240.963 49.9953 241.551 49.846 242.223 49.846C242.904 49.846 243.492 49.9953 243.987 50.294C244.491 50.5833 244.878 50.9987 245.149 51.54C245.429 52.0813 245.569 52.73 245.569 53.486C245.569 54.2327 245.429 54.8813 245.149 55.432C244.878 55.9733 244.491 56.3933 243.987 56.692C243.492 56.9813 242.904 57.126 242.223 57.126ZM242.223 56.202C242.895 56.202 243.427 55.9733 243.819 55.516C244.211 55.0493 244.407 54.3727 244.407 53.486C244.407 52.59 244.206 51.9133 243.805 51.456C243.413 50.9893 242.885 50.756 242.223 50.756C241.56 50.756 241.033 50.9893 240.641 51.456C240.249 51.9133 240.053 52.59 240.053 53.486C240.053 54.3727 240.249 55.0493 240.641 55.516C241.033 55.9733 241.56 56.202 242.223 56.202ZM247.869 57V51.666C247.869 51.386 247.859 51.1013 247.841 50.812C247.831 50.5227 247.813 50.2427 247.785 49.972H248.877L249.017 51.68L248.821 51.694C248.914 51.274 249.077 50.9287 249.311 50.658C249.544 50.3873 249.819 50.1867 250.137 50.056C250.454 49.916 250.785 49.846 251.131 49.846C251.271 49.846 251.392 49.8507 251.495 49.86C251.607 49.8693 251.709 49.8927 251.803 49.93L251.789 50.938C251.649 50.8913 251.518 50.8633 251.397 50.854C251.285 50.8353 251.154 50.826 251.005 50.826C250.594 50.826 250.235 50.924 249.927 51.12C249.628 51.316 249.399 51.568 249.241 51.876C249.091 52.184 249.017 52.5107 249.017 52.856V57H247.869ZM256.404 57.126C255.713 57.126 255.186 56.93 254.822 56.538C254.458 56.1367 254.276 55.5347 254.276 54.732V50.854H252.904V49.972H254.276V48.054L255.41 47.732V49.972H257.426V50.854H255.41V54.606C255.41 55.166 255.503 55.5673 255.69 55.81C255.886 56.0433 256.175 56.16 256.558 56.16C256.735 56.16 256.894 56.146 257.034 56.118C257.174 56.0807 257.3 56.0387 257.412 55.992V56.944C257.281 57 257.123 57.042 256.936 57.07C256.759 57.1073 256.581 57.126 256.404 57.126Z" fill="black"/>
<line x1="85.5" y1="369.5" x2="594.5" y2="369.5" stroke="#C2FCFF" stroke-linecap="round"/>
<path d="M313.5 117.5C360.444 117.5 398.5 155.556 398.5 202.5C398.5 249.444 360.444 287.5 313.5 287.5C266.556 287.5 228.5 249.444 228.5 202.5C228.5 155.556 266.556 117.5 313.5 117.5Z" fill="#EBFEFF" stroke="#EEEEEE"/>
<path d="M174.5 155.5C184.328 155.5 192.5 165.893 192.5 179C192.5 192.107 184.328 202.5 174.5 202.5C164.672 202.5 156.5 192.107 156.5 179C156.5 165.893 164.672 155.5 174.5 155.5Z" stroke="#EEEEEE"/>
<rect y="80" width="132" height="36" rx="6" fill="#C7D6DE"/>
<path d="M13.232 103V93.13H14.142L20.47 101.53H20.148V93.13H21.226V103H20.33L14.002 94.6H14.31V103H13.232ZM26.449 103.126C25.777 103.126 25.189 102.981 24.685 102.692C24.1903 102.393 23.8077 101.973 23.537 101.432C23.2663 100.881 23.131 100.233 23.131 99.486C23.131 98.73 23.2663 98.0813 23.537 97.54C23.8077 96.9987 24.1903 96.5833 24.685 96.294C25.189 95.9953 25.777 95.846 26.449 95.846C27.1303 95.846 27.7183 95.9953 28.213 96.294C28.717 96.5833 29.1043 96.9987 29.375 97.54C29.655 98.0813 29.795 98.73 29.795 99.486C29.795 100.233 29.655 100.881 29.375 101.432C29.1043 101.973 28.717 102.393 28.213 102.692C27.7183 102.981 27.1303 103.126 26.449 103.126ZM26.449 102.202C27.121 102.202 27.653 101.973 28.045 101.516C28.437 101.049 28.633 100.373 28.633 99.486C28.633 98.59 28.4323 97.9133 28.031 97.456C27.639 96.9893 27.1117 96.756 26.449 96.756C25.7863 96.756 25.259 96.9893 24.867 97.456C24.475 97.9133 24.279 98.59 24.279 99.486C24.279 100.373 24.475 101.049 24.867 101.516C25.259 101.973 25.7863 102.202 26.449 102.202ZM34.223 103.126C33.607 103.126 33.0657 102.981 32.599 102.692C32.1324 102.393 31.7684 101.973 31.507 101.432C31.255 100.891 31.129 100.242 31.129 99.486C31.129 98.7207 31.255 98.0673 31.507 97.526C31.7684 96.9847 32.1324 96.5693 32.599 96.28C33.0657 95.9907 33.607 95.846 34.223 95.846C34.8577 95.846 35.4037 96.0047 35.861 96.322C36.3277 96.6393 36.6404 97.0687 36.799 97.61H36.631V92.696H37.765V103H36.645V101.32H36.799C36.6497 101.88 36.3417 102.323 35.875 102.65C35.4084 102.967 34.8577 103.126 34.223 103.126ZM34.461 102.202C35.1237 102.202 35.6557 101.973 36.057 101.516C36.4584 101.049 36.659 100.373 36.659 99.486C36.659 98.59 36.4584 97.9133 36.057 97.456C35.6557 96.9893 35.1237 96.756 34.461 96.756C33.7984 96.756 33.2664 96.9893 32.865 97.456C32.473 97.9133 32.277 98.59 32.277 99.486C32.277 100.373 32.473 101.049 32.865 101.516C33.2664 101.973 33.7984 102.202 34.461 102.202ZM42.4356 103.126C41.6049 103.126 40.9749 102.897 40.5456 102.44C40.1256 101.983 39.9156 101.283 39.9156 100.34V95.972H41.0496V100.312C41.0496 100.956 41.1802 101.432 41.4416 101.74C41.7029 102.039 42.1089 102.188 42.6596 102.188C43.2756 102.188 43.7702 101.987 44.1436 101.586C44.5169 101.185 44.7036 100.648 44.7036 99.976V95.972H45.8376V103H44.7316V101.418H44.9136C44.7176 101.959 44.4002 102.379 43.9616 102.678C43.5322 102.977 43.0236 103.126 42.4356 103.126ZM48.0376 103V92.696H49.1716V103H48.0376ZM54.4956 103.126C53.3942 103.126 52.5262 102.809 51.8916 102.174C51.2569 101.53 50.9396 100.639 50.9396 99.5C50.9396 98.7627 51.0796 98.1233 51.3596 97.582C51.6396 97.0313 52.0316 96.6067 52.5356 96.308C53.0396 96 53.6182 95.846 54.2716 95.846C54.9156 95.846 55.4569 95.9813 55.8956 96.252C56.3342 96.5227 56.6702 96.91 56.9036 97.414C57.1369 97.9087 57.2536 98.4967 57.2536 99.178V99.598H51.8076V98.884H56.5116L56.2736 99.066C56.2736 98.3193 56.1056 97.736 55.7696 97.316C55.4336 96.896 54.9342 96.686 54.2716 96.686C53.5716 96.686 53.0256 96.9333 52.6336 97.428C52.2416 97.9133 52.0456 98.5713 52.0456 99.402V99.528C52.0456 100.405 52.2602 101.073 52.6896 101.53C53.1282 101.978 53.7396 102.202 54.5236 102.202C54.9436 102.202 55.3356 102.141 55.6996 102.02C56.0729 101.889 56.4276 101.679 56.7636 101.39L57.1556 102.188C56.8476 102.487 56.4556 102.72 55.9796 102.888C55.5129 103.047 55.0182 103.126 54.4956 103.126ZM62.7652 103V93.13H66.0412C67.1332 93.13 68.0572 93.3213 68.8132 93.704C69.5692 94.0773 70.1432 94.6327 70.5352 95.37C70.9272 96.098 71.1232 96.994 71.1232 98.058C71.1232 99.1127 70.9272 100.009 70.5352 100.746C70.1432 101.483 69.5692 102.043 68.8132 102.426C68.0572 102.809 67.1332 103 66.0412 103H62.7652ZM63.9272 102.006H65.9572C67.3012 102.006 68.2999 101.679 68.9532 101.026C69.6065 100.363 69.9332 99.374 69.9332 98.058C69.9332 96.7327 69.6065 95.7433 68.9532 95.09C68.2999 94.4367 67.3012 94.11 65.9572 94.11H63.9272V102.006ZM76.2202 103.126C75.1189 103.126 74.2509 102.809 73.6162 102.174C72.9815 101.53 72.6642 100.639 72.6642 99.5C72.6642 98.7627 72.8042 98.1233 73.0842 97.582C73.3642 97.0313 73.7562 96.6067 74.2602 96.308C74.7642 96 75.3429 95.846 75.9962 95.846C76.6402 95.846 77.1815 95.9813 77.6202 96.252C78.0589 96.5227 78.3949 96.91 78.6282 97.414C78.8615 97.9087 78.9782 98.4967 78.9782 99.178V99.598H73.5322V98.884H78.2362L77.9982 99.066C77.9982 98.3193 77.8302 97.736 77.4942 97.316C77.1582 96.896 76.6589 96.686 75.9962 96.686C75.2962 96.686 74.7502 96.9333 74.3582 97.428C73.9662 97.9133 73.7702 98.5713 73.7702 99.402V99.528C73.7702 100.405 73.9849 101.073 74.4142 101.53C74.8529 101.978 75.4642 102.202 76.2482 102.202C76.6682 102.202 77.0602 102.141 77.4242 102.02C77.7975 101.889 78.1522 101.679 78.4882 101.39L78.8802 102.188C78.5722 102.487 78.1802 102.72 77.7042 102.888C77.2375 103.047 76.7429 103.126 76.2202 103.126ZM83.2054 103.126C82.5148 103.126 81.9874 102.93 81.6234 102.538C81.2594 102.137 81.0774 101.535 81.0774 100.732V96.854H79.7054V95.972H81.0774V94.054L82.2114 93.732V95.972H84.2274V96.854H82.2114V100.606C82.2114 101.166 82.3048 101.567 82.4914 101.81C82.6874 102.043 82.9768 102.16 83.3594 102.16C83.5368 102.16 83.6954 102.146 83.8354 102.118C83.9754 102.081 84.1014 102.039 84.2134 101.992V102.944C84.0828 103 83.9241 103.042 83.7374 103.07C83.5601 103.107 83.3828 103.126 83.2054 103.126ZM88.6616 103.126C87.5603 103.126 86.6923 102.809 86.0576 102.174C85.4229 101.53 85.1056 100.639 85.1056 99.5C85.1056 98.7627 85.2456 98.1233 85.5256 97.582C85.8056 97.0313 86.1976 96.6067 86.7016 96.308C87.2056 96 87.7843 95.846 88.4376 95.846C89.0816 95.846 89.6229 95.9813 90.0616 96.252C90.5003 96.5227 90.8363 96.91 91.0696 97.414C91.3029 97.9087 91.4196 98.4967 91.4196 99.178V99.598H85.9736V98.884H90.6776L90.4396 99.066C90.4396 98.3193 90.2716 97.736 89.9356 97.316C89.5996 96.896 89.1003 96.686 88.4376 96.686C87.7376 96.686 87.1916 96.9333 86.7996 97.428C86.4076 97.9133 86.2116 98.5713 86.2116 99.402V99.528C86.2116 100.405 86.4263 101.073 86.8556 101.53C87.2943 101.978 87.9056 102.202 88.6896 102.202C89.1096 102.202 89.5016 102.141 89.8656 102.02C90.2389 101.889 90.5936 101.679 90.9296 101.39L91.3216 102.188C91.0136 102.487 90.6216 102.72 90.1456 102.888C89.6789 103.047 89.1843 103.126 88.6616 103.126ZM96.1088 103.126C95.4182 103.126 94.8162 102.977 94.3028 102.678C93.7988 102.379 93.4068 101.955 93.1268 101.404C92.8562 100.853 92.7208 100.2 92.7208 99.444C92.7208 98.6787 92.8608 98.03 93.1408 97.498C93.4208 96.9567 93.8128 96.546 94.3168 96.266C94.8302 95.986 95.4275 95.846 96.1088 95.846C96.5568 95.846 96.9908 95.9253 97.4108 96.084C97.8402 96.2427 98.1948 96.4667 98.4748 96.756L98.0688 97.568C97.7888 97.2973 97.4808 97.0967 97.1448 96.966C96.8182 96.8353 96.4962 96.77 96.1788 96.77C95.4508 96.77 94.8862 96.9987 94.4848 97.456C94.0835 97.9133 93.8828 98.5807 93.8828 99.458C93.8828 100.326 94.0835 100.998 94.4848 101.474C94.8862 101.95 95.4508 102.188 96.1788 102.188C96.4868 102.188 96.8042 102.127 97.1308 102.006C97.4668 101.885 97.7795 101.684 98.0688 101.404L98.4748 102.202C98.1855 102.501 97.8262 102.729 97.3968 102.888C96.9675 103.047 96.5382 103.126 96.1088 103.126ZM102.578 103.126C101.888 103.126 101.36 102.93 100.996 102.538C100.632 102.137 100.45 101.535 100.45 100.732V96.854H99.0785V95.972H100.45V94.054L101.584 93.732V95.972H103.6V96.854H101.584V100.606C101.584 101.166 101.678 101.567 101.864 101.81C102.06 102.043 102.35 102.16 102.732 102.16C102.91 102.16 103.068 102.146 103.208 102.118C103.348 102.081 103.474 102.039 103.586 101.992V102.944C103.456 103 103.297 103.042 103.11 103.07C102.933 103.107 102.756 103.126 102.578 103.126ZM108.035 103.126C106.933 103.126 106.065 102.809 105.431 102.174C104.796 101.53 104.479 100.639 104.479 99.5C104.479 98.7627 104.619 98.1233 104.899 97.582C105.179 97.0313 105.571 96.6067 106.075 96.308C106.579 96 107.157 95.846 107.811 95.846C108.455 95.846 108.996 95.9813 109.435 96.252C109.873 96.5227 110.209 96.91 110.443 97.414C110.676 97.9087 110.793 98.4967 110.793 99.178V99.598H105.347V98.884H110.051L109.813 99.066C109.813 98.3193 109.645 97.736 109.309 97.316C108.973 96.896 108.473 96.686 107.811 96.686C107.111 96.686 106.565 96.9333 106.173 97.428C105.781 97.9133 105.585 98.5713 105.585 99.402V99.528C105.585 100.405 105.799 101.073 106.229 101.53C106.667 101.978 107.279 102.202 108.063 102.202C108.483 102.202 108.875 102.141 109.239 102.02C109.612 101.889 109.967 101.679 110.303 101.39L110.695 102.188C110.387 102.487 109.995 102.72 109.519 102.888C109.052 103.047 108.557 103.126 108.035 103.126ZM115.188 103.126C114.572 103.126 114.031 102.981 113.564 102.692C113.097 102.393 112.733 101.973 112.472 101.432C112.22 100.891 112.094 100.242 112.094 99.486C112.094 98.7207 112.22 98.0673 112.472 97.526C112.733 96.9847 113.097 96.5693 113.564 96.28C114.031 95.9907 114.572 95.846 115.188 95.846C115.823 95.846 116.369 96.0047 116.826 96.322C117.293 96.6393 117.605 97.0687 117.764 97.61H117.596V92.696H118.73V103H117.61V101.32H117.764C117.615 101.88 117.307 102.323 116.84 102.65C116.373 102.967 115.823 103.126 115.188 103.126ZM115.426 102.202C116.089 102.202 116.621 101.973 117.022 101.516C117.423 101.049 117.624 100.373 117.624 99.486C117.624 98.59 117.423 97.9133 117.022 97.456C116.621 96.9893 116.089 96.756 115.426 96.756C114.763 96.756 114.231 96.9893 113.83 97.456C113.438 97.9133 113.242 98.59 113.242 99.486C113.242 100.373 113.438 101.049 113.83 101.516C114.231 101.973 114.763 102.202 115.426 102.202Z" fill="#222831"/>
<rect y="152" width="136" height="36" rx="6" fill="#C7D6DE"/>
<path d="M17.53 175.126C16.5407 175.126 15.7007 174.921 15.01 174.51C14.3193 174.099 13.7873 173.516 13.414 172.76C13.05 172.004 12.868 171.103 12.868 170.058C12.868 169.013 13.05 168.117 13.414 167.37C13.7873 166.614 14.3193 166.031 15.01 165.62C15.7007 165.209 16.5407 165.004 17.53 165.004C18.23 165.004 18.8553 165.111 19.406 165.326C19.9567 165.541 20.4373 165.853 20.848 166.264L20.414 167.188C19.966 166.796 19.5227 166.511 19.084 166.334C18.6453 166.147 18.132 166.054 17.544 166.054C16.4147 166.054 15.556 166.404 14.968 167.104C14.38 167.804 14.086 168.789 14.086 170.058C14.086 171.327 14.38 172.317 14.968 173.026C15.556 173.726 16.4147 174.076 17.544 174.076C18.132 174.076 18.6453 173.987 19.084 173.81C19.5227 173.623 19.966 173.329 20.414 172.928L20.848 173.866C20.4373 174.267 19.9567 174.58 19.406 174.804C18.8553 175.019 18.23 175.126 17.53 175.126ZM25.0681 175.126C24.3961 175.126 23.8081 174.981 23.3041 174.692C22.8095 174.393 22.4268 173.973 22.1561 173.432C21.8855 172.881 21.7501 172.233 21.7501 171.486C21.7501 170.73 21.8855 170.081 22.1561 169.54C22.4268 168.999 22.8095 168.583 23.3041 168.294C23.8081 167.995 24.3961 167.846 25.0681 167.846C25.7495 167.846 26.3375 167.995 26.8321 168.294C27.3361 168.583 27.7235 168.999 27.9941 169.54C28.2741 170.081 28.4141 170.73 28.4141 171.486C28.4141 172.233 28.2741 172.881 27.9941 173.432C27.7235 173.973 27.3361 174.393 26.8321 174.692C26.3375 174.981 25.7495 175.126 25.0681 175.126ZM25.0681 174.202C25.7401 174.202 26.2721 173.973 26.6641 173.516C27.0561 173.049 27.2521 172.373 27.2521 171.486C27.2521 170.59 27.0515 169.913 26.6501 169.456C26.2581 168.989 25.7308 168.756 25.0681 168.756C24.4055 168.756 23.8781 168.989 23.4861 169.456C23.0941 169.913 22.8981 170.59 22.8981 171.486C22.8981 172.373 23.0941 173.049 23.4861 173.516C23.8781 173.973 24.4055 174.202 25.0681 174.202ZM30.1822 175V169.596C30.1822 169.335 30.1682 169.069 30.1402 168.798C30.1215 168.518 30.0982 168.243 30.0702 167.972H31.1622L31.3022 169.512H31.1342C31.3395 168.971 31.6662 168.56 32.1142 168.28C32.5715 167.991 33.0988 167.846 33.6962 167.846C34.5268 167.846 35.1522 168.07 35.5722 168.518C36.0015 168.957 36.2162 169.652 36.2162 170.604V175H35.0822V170.674C35.0822 170.011 34.9468 169.531 34.6762 169.232C34.4148 168.924 34.0042 168.77 33.4442 168.77C32.7908 168.77 32.2728 168.971 31.8902 169.372C31.5075 169.773 31.3162 170.31 31.3162 170.982V175H30.1822ZM38.7493 175V168.854H37.3773V167.972H39.0573L38.7493 168.266V167.09C38.7493 166.297 38.9453 165.69 39.3373 165.27C39.7386 164.85 40.308 164.64 41.0453 164.64C41.2226 164.64 41.4093 164.659 41.6053 164.696C41.8106 164.724 41.9833 164.766 42.1233 164.822V165.76C42.0113 165.713 41.8713 165.676 41.7033 165.648C41.5446 165.611 41.3813 165.592 41.2133 165.592C40.7746 165.592 40.4433 165.723 40.2193 165.984C39.9953 166.245 39.8833 166.647 39.8833 167.188V168.21L39.7013 167.972H44.2093V175H43.0753V168.854H39.8833V175H38.7493ZM42.9493 166.376V165.102H44.3493V166.376H42.9493ZM49.0844 175.126C48.4684 175.126 47.927 174.981 47.4604 174.692C46.9937 174.393 46.6297 173.973 46.3684 173.432C46.1164 172.891 45.9904 172.242 45.9904 171.486C45.9904 170.721 46.1164 170.067 46.3684 169.526C46.6297 168.985 46.9937 168.569 47.4604 168.28C47.927 167.991 48.4684 167.846 49.0844 167.846C49.719 167.846 50.265 168.005 50.7224 168.322C51.189 168.639 51.5017 169.069 51.6604 169.61H51.4924V164.696H52.6264V175H51.5064V173.32H51.6604C51.511 173.88 51.203 174.323 50.7364 174.65C50.2697 174.967 49.719 175.126 49.0844 175.126ZM49.3224 174.202C49.985 174.202 50.517 173.973 50.9184 173.516C51.3197 173.049 51.5204 172.373 51.5204 171.486C51.5204 170.59 51.3197 169.913 50.9184 169.456C50.517 168.989 49.985 168.756 49.3224 168.756C48.6597 168.756 48.1277 168.989 47.7264 169.456C47.3344 169.913 47.1384 170.59 47.1384 171.486C47.1384 172.373 47.3344 173.049 47.7264 173.516C48.1277 173.973 48.6597 174.202 49.3224 174.202ZM57.9409 175.126C56.8396 175.126 55.9716 174.809 55.3369 174.174C54.7022 173.53 54.3849 172.639 54.3849 171.5C54.3849 170.763 54.5249 170.123 54.8049 169.582C55.0849 169.031 55.4769 168.607 55.9809 168.308C56.4849 168 57.0636 167.846 57.7169 167.846C58.3609 167.846 58.9022 167.981 59.3409 168.252C59.7796 168.523 60.1156 168.91 60.3489 169.414C60.5822 169.909 60.6989 170.497 60.6989 171.178V171.598H55.2529V170.884H59.9569L59.7189 171.066C59.7189 170.319 59.5509 169.736 59.2149 169.316C58.8789 168.896 58.3796 168.686 57.7169 168.686C57.0169 168.686 56.4709 168.933 56.0789 169.428C55.6869 169.913 55.4909 170.571 55.4909 171.402V171.528C55.4909 172.405 55.7056 173.073 56.1349 173.53C56.5736 173.978 57.1849 174.202 57.9689 174.202C58.3889 174.202 58.7809 174.141 59.1449 174.02C59.5182 173.889 59.8729 173.679 60.2089 173.39L60.6009 174.188C60.2929 174.487 59.9009 174.72 59.4249 174.888C58.9582 175.047 58.4636 175.126 57.9409 175.126ZM62.4341 175V169.596C62.4341 169.335 62.4201 169.069 62.3921 168.798C62.3735 168.518 62.3501 168.243 62.3221 167.972H63.4141L63.5541 169.512H63.3861C63.5915 168.971 63.9181 168.56 64.3661 168.28C64.8235 167.991 65.3508 167.846 65.9481 167.846C66.7788 167.846 67.4041 168.07 67.8241 168.518C68.2535 168.957 68.4681 169.652 68.4681 170.604V175H67.3341V170.674C67.3341 170.011 67.1988 169.531 66.9281 169.232C66.6668 168.924 66.2561 168.77 65.6961 168.77C65.0428 168.77 64.5248 168.971 64.1421 169.372C63.7595 169.773 63.5681 170.31 63.5681 170.982V175H62.4341ZM73.5913 175.126C72.9006 175.126 72.2986 174.977 71.7853 174.678C71.2813 174.379 70.8893 173.955 70.6093 173.404C70.3386 172.853 70.2033 172.2 70.2033 171.444C70.2033 170.679 70.3433 170.03 70.6233 169.498C70.9033 168.957 71.2953 168.546 71.7993 168.266C72.3126 167.986 72.9099 167.846 73.5913 167.846C74.0393 167.846 74.4733 167.925 74.8933 168.084C75.3226 168.243 75.6773 168.467 75.9573 168.756L75.5513 169.568C75.2713 169.297 74.9633 169.097 74.6273 168.966C74.3006 168.835 73.9786 168.77 73.6613 168.77C72.9333 168.77 72.3686 168.999 71.9673 169.456C71.5659 169.913 71.3653 170.581 71.3653 171.458C71.3653 172.326 71.5659 172.998 71.9673 173.474C72.3686 173.95 72.9333 174.188 73.6613 174.188C73.9693 174.188 74.2866 174.127 74.6133 174.006C74.9493 173.885 75.2619 173.684 75.5513 173.404L75.9573 174.202C75.6679 174.501 75.3086 174.729 74.8793 174.888C74.4499 175.047 74.0206 175.126 73.5913 175.126ZM80.5542 175.126C79.4528 175.126 78.5848 174.809 77.9502 174.174C77.3155 173.53 76.9982 172.639 76.9982 171.5C76.9982 170.763 77.1382 170.123 77.4182 169.582C77.6982 169.031 78.0902 168.607 78.5942 168.308C79.0982 168 79.6768 167.846 80.3302 167.846C80.9742 167.846 81.5155 167.981 81.9542 168.252C82.3928 168.523 82.7288 168.91 82.9622 169.414C83.1955 169.909 83.3122 170.497 83.3122 171.178V171.598H77.8662V170.884H82.5702L82.3322 171.066C82.3322 170.319 82.1642 169.736 81.8282 169.316C81.4922 168.896 80.9928 168.686 80.3302 168.686C79.6302 168.686 79.0842 168.933 78.6922 169.428C78.3002 169.913 78.1042 170.571 78.1042 171.402V171.528C78.1042 172.405 78.3188 173.073 78.7482 173.53C79.1868 173.978 79.7982 174.202 80.5822 174.202C81.0022 174.202 81.3942 174.141 81.7582 174.02C82.1315 173.889 82.4862 173.679 82.8222 173.39L83.2142 174.188C82.9062 174.487 82.5142 174.72 82.0382 174.888C81.5715 175.047 81.0768 175.126 80.5542 175.126ZM92.0438 175.126C91.2505 175.126 90.5411 175.023 89.9158 174.818C89.2905 174.613 88.7445 174.319 88.2778 173.936L88.6978 173.012C89.0245 173.255 89.3511 173.46 89.6778 173.628C90.0138 173.787 90.3731 173.908 90.7558 173.992C91.1385 174.067 91.5678 174.104 92.0438 174.104C92.8745 174.104 93.4905 173.95 93.8918 173.642C94.2931 173.334 94.4938 172.923 94.4938 172.41C94.4938 171.971 94.3538 171.635 94.0738 171.402C93.7938 171.169 93.3038 170.982 92.6038 170.842L91.1338 170.548C90.2285 170.361 89.5518 170.058 89.1038 169.638C88.6651 169.218 88.4458 168.649 88.4458 167.93C88.4458 167.342 88.5951 166.829 88.8938 166.39C89.2018 165.951 89.6311 165.611 90.1818 165.368C90.7325 165.125 91.3718 165.004 92.0998 165.004C92.7998 165.004 93.4391 165.111 94.0178 165.326C94.5965 165.531 95.0911 165.835 95.5018 166.236L95.0958 167.132C94.6571 166.74 94.1951 166.46 93.7098 166.292C93.2338 166.115 92.6925 166.026 92.0858 166.026C91.3205 166.026 90.7138 166.194 90.2658 166.53C89.8271 166.857 89.6078 167.305 89.6078 167.874C89.6078 168.331 89.7478 168.691 90.0278 168.952C90.3078 169.204 90.7698 169.395 91.4138 169.526L92.8978 169.82C93.8498 170.016 94.5498 170.31 94.9978 170.702C95.4458 171.094 95.6698 171.645 95.6698 172.354C95.6698 172.895 95.5205 173.376 95.2218 173.796C94.9325 174.216 94.5171 174.543 93.9758 174.776C93.4345 175.009 92.7905 175.126 92.0438 175.126ZM100.374 175.126C99.6838 175.126 99.0818 174.977 98.5685 174.678C98.0645 174.379 97.6725 173.955 97.3925 173.404C97.1218 172.853 96.9865 172.2 96.9865 171.444C96.9865 170.679 97.1265 170.03 97.4065 169.498C97.6865 168.957 98.0785 168.546 98.5825 168.266C99.0958 167.986 99.6931 167.846 100.374 167.846C100.822 167.846 101.256 167.925 101.676 168.084C102.106 168.243 102.46 168.467 102.74 168.756L102.334 169.568C102.054 169.297 101.746 169.097 101.41 168.966C101.084 168.835 100.762 168.77 100.444 168.77C99.7165 168.77 99.1518 168.999 98.7505 169.456C98.3491 169.913 98.1485 170.581 98.1485 171.458C98.1485 172.326 98.3491 172.998 98.7505 173.474C99.1518 173.95 99.7165 174.188 100.444 174.188C100.752 174.188 101.07 174.127 101.396 174.006C101.732 173.885 102.045 173.684 102.334 173.404L102.74 174.202C102.451 174.501 102.092 174.729 101.662 174.888C101.233 175.047 100.804 175.126 100.374 175.126ZM107.099 175.126C106.427 175.126 105.839 174.981 105.335 174.692C104.841 174.393 104.458 173.973 104.187 173.432C103.917 172.881 103.781 172.233 103.781 171.486C103.781 170.73 103.917 170.081 104.187 169.54C104.458 168.999 104.841 168.583 105.335 168.294C105.839 167.995 106.427 167.846 107.099 167.846C107.781 167.846 108.369 167.995 108.863 168.294C109.367 168.583 109.755 168.999 110.025 169.54C110.305 170.081 110.445 170.73 110.445 171.486C110.445 172.233 110.305 172.881 110.025 173.432C109.755 173.973 109.367 174.393 108.863 174.692C108.369 174.981 107.781 175.126 107.099 175.126ZM107.099 174.202C107.771 174.202 108.303 173.973 108.695 173.516C109.087 173.049 109.283 172.373 109.283 171.486C109.283 170.59 109.083 169.913 108.681 169.456C108.289 168.989 107.762 168.756 107.099 168.756C106.437 168.756 105.909 168.989 105.517 169.456C105.125 169.913 104.929 170.59 104.929 171.486C104.929 172.373 105.125 173.049 105.517 173.516C105.909 173.973 106.437 174.202 107.099 174.202ZM112.185 175V169.666C112.185 169.386 112.176 169.101 112.157 168.812C112.148 168.523 112.129 168.243 112.101 167.972H113.193L113.333 169.68L113.137 169.694C113.231 169.274 113.394 168.929 113.627 168.658C113.861 168.387 114.136 168.187 114.453 168.056C114.771 167.916 115.102 167.846 115.447 167.846C115.587 167.846 115.709 167.851 115.811 167.86C115.923 167.869 116.026 167.893 116.119 167.93L116.105 168.938C115.965 168.891 115.835 168.863 115.713 168.854C115.601 168.835 115.471 168.826 115.321 168.826C114.911 168.826 114.551 168.924 114.243 169.12C113.945 169.316 113.716 169.568 113.557 169.876C113.408 170.184 113.333 170.511 113.333 170.856V175H112.185ZM120.339 175.126C119.238 175.126 118.37 174.809 117.735 174.174C117.101 173.53 116.783 172.639 116.783 171.5C116.783 170.763 116.923 170.123 117.203 169.582C117.483 169.031 117.875 168.607 118.379 168.308C118.883 168 119.462 167.846 120.115 167.846C120.759 167.846 121.301 167.981 121.739 168.252C122.178 168.523 122.514 168.91 122.747 169.414C122.981 169.909 123.097 170.497 123.097 171.178V171.598H117.651V170.884H122.355L122.117 171.066C122.117 170.319 121.949 169.736 121.613 169.316C121.277 168.896 120.778 168.686 120.115 168.686C119.415 168.686 118.869 168.933 118.477 169.428C118.085 169.913 117.889 170.571 117.889 171.402V171.528C117.889 172.405 118.104 173.073 118.533 173.53C118.972 173.978 119.583 174.202 120.367 174.202C120.787 174.202 121.179 174.141 121.543 174.02C121.917 173.889 122.271 173.679 122.607 173.39L122.999 174.188C122.691 174.487 122.299 174.72 121.823 174.888C121.357 175.047 120.862 175.126 120.339 175.126Z" fill="#222831"/>
<path d="M174.008 167.626V166.688H177.998V167.626H174.008ZM179.996 167.626V166.688H183.986V167.626H179.996ZM185.985 167.626V166.688H189.975V167.626H185.985ZM191.973 167.626V166.688H195.963V167.626H191.973ZM197.961 167.626V166.688H201.951V167.626H197.961ZM203.949 167.626V166.688H207.939V167.626H203.949Z" fill="#222831"/>
<defs>
<filter id="filter0_d_582_1018" x="55" y="0" width="571" height="492" filterUnits="userSpaceOnUse" color-interpolation-filters="sRGB">
<feFlood flood-opacity="0" result="BackgroundImageFix"/>
<feColorMatrix in="SourceAlpha" type="matrix" values="0 0 0 0 0 0 0 0 0 0 0 0 0 0 0 0 0 0 127 0" result="hardAlpha"/>
<feOffset dy="16"/>
<feGaussianBlur stdDeviation="15"/>
<feComposite in2="hardAlpha" operator="out"/>
<feColorMatrix type="matrix" values="0 0 0 0 0.403846 0 0 0 0 0.403846 0 0 0 0 0.403846 0 0 0 0.16 0"/>
<feBlend mode="normal" in2="BackgroundImageFix" result="effect1_dropShadow_582_1018"/>
<feBlend mode="normal" in="SourceGraphic" in2="effect1_dropShadow_582_1018" result="shape"/>
</filter>
<filter id="filter1_d_582_1018" x="479" y="106" width="93" height="54" filterUnits="userSpaceOnUse" color-interpolation-filters="sRGB">
<feFlood flood-opacity="0" result="BackgroundImageFix"/>
<feColorMatrix in="SourceAlpha" type="matrix" values="0 0 0 0 0 0 0 0 0 0 0 0 0 0 0 0 0 0 127 0" result="hardAlpha"/>
<feOffset dy="8"/>
<feGaussianBlur stdDeviation="6"/>
<feComposite in2="hardAlpha" operator="out"/>
<feColorMatrix type="matrix" values="0 0 0 0 0.629808 0 0 0 0 0.629808 0 0 0 0 0.629808 0 0 0 0.16 0"/>
<feBlend mode="normal" in2="BackgroundImageFix" result="effect1_dropShadow_582_1018"/>
<feBlend mode="normal" in="SourceGraphic" in2="effect1_dropShadow_582_1018" result="shape"/>
</filter>
<filter id="filter2_d_582_1018" x="448" y="377" width="146" height="86" filterUnits="userSpaceOnUse" color-interpolation-filters="sRGB">
<feFlood flood-opacity="0" result="BackgroundImageFix"/>
<feColorMatrix in="SourceAlpha" type="matrix" values="0 0 0 0 0 0 0 0 0 0 0 0 0 0 0 0 0 0 127 0" result="hardAlpha"/>
<feOffset dy="12"/>
<feGaussianBlur stdDeviation="10"/>
<feComposite in2="hardAlpha" operator="out"/>
<feColorMatrix type="matrix" values="0 0 0 0 0.740385 0 0 0 0 0.740385 0 0 0 0 0.740385 0 0 0 0.16 0"/>
<feBlend mode="normal" in2="BackgroundImageFix" result="effect1_dropShadow_582_1018"/>
<feBlend mode="normal" in="SourceGraphic" in2="effect1_dropShadow_582_1018" result="shape"/>
</filter>
</defs>
</svg>
