<svg width="710" height="730" viewBox="0 0 710 730" fill="none" xmlns="http://www.w3.org/2000/svg">
<circle cx="351.003" cy="369.092" r="175.129" fill="white" stroke="#E3F5FF" stroke-width="11"/>
<path d="M350.791 518.747C433.518 518.747 500.582 451.647 500.582 368.874C500.582 286.101 433.518 219 350.791 219C268.064 219 201 286.101 201 368.874C201 451.647 268.064 518.747 350.791 518.747Z" fill="#E3F5FF"/>
<path d="M291.353 378L299.009 361.08H301.601L309.353 378H306.209L304.145 373.248L305.393 374.088H295.241L296.537 373.248L294.473 378H291.353ZM300.281 364.392L296.897 372.408L296.273 371.664H304.337L303.833 372.408L300.377 364.392H300.281ZM311.441 378V368.976C311.441 368.464 311.425 367.944 311.393 367.416C311.377 366.888 311.337 366.376 311.273 365.88H314.177L314.513 369.192H314.033C314.193 368.392 314.457 367.728 314.825 367.2C315.209 366.672 315.673 366.28 316.217 366.024C316.761 365.768 317.353 365.64 317.993 365.64C318.281 365.64 318.513 365.656 318.689 365.688C318.865 365.704 319.041 365.744 319.217 365.808L319.193 368.448C318.889 368.32 318.625 368.24 318.401 368.208C318.193 368.176 317.929 368.16 317.609 368.16C316.921 368.16 316.337 368.304 315.857 368.592C315.393 368.88 315.041 369.28 314.801 369.792C314.577 370.304 314.465 370.888 314.465 371.544V378H311.441ZM326.652 378.24C325.404 378.24 324.324 377.984 323.412 377.472C322.5 376.96 321.788 376.232 321.276 375.288C320.78 374.344 320.532 373.224 320.532 371.928C320.532 370.632 320.78 369.52 321.276 368.592C321.788 367.648 322.5 366.92 323.412 366.408C324.324 365.896 325.404 365.64 326.652 365.64C327.9 365.64 328.98 365.896 329.892 366.408C330.82 366.92 331.532 367.648 332.028 368.592C332.54 369.52 332.796 370.632 332.796 371.928C332.796 373.224 332.54 374.344 332.028 375.288C331.532 376.232 330.82 376.96 329.892 377.472C328.98 377.984 327.9 378.24 326.652 378.24ZM326.652 375.936C327.596 375.936 328.348 375.608 328.908 374.952C329.468 374.28 329.748 373.272 329.748 371.928C329.748 370.584 329.468 369.584 328.908 368.928C328.348 368.272 327.596 367.944 326.652 367.944C325.708 367.944 324.956 368.272 324.396 368.928C323.836 369.584 323.556 370.584 323.556 371.928C323.556 373.272 323.836 374.28 324.396 374.952C324.956 375.608 325.708 375.936 326.652 375.936ZM341.479 383.376C340.359 383.376 339.343 383.256 338.431 383.016C337.535 382.776 336.735 382.408 336.031 381.912L336.679 379.752C337.143 380.056 337.623 380.304 338.119 380.496C338.615 380.688 339.127 380.832 339.655 380.928C340.183 381.024 340.719 381.072 341.263 381.072C342.383 381.072 343.215 380.792 343.759 380.232C344.319 379.688 344.599 378.904 344.599 377.88V374.976H344.839C344.583 375.808 344.063 376.472 343.279 376.968C342.511 377.464 341.623 377.712 340.615 377.712C339.527 377.712 338.575 377.472 337.759 376.992C336.959 376.496 336.335 375.792 335.887 374.88C335.439 373.968 335.215 372.896 335.215 371.664C335.215 370.432 335.439 369.368 335.887 368.472C336.335 367.56 336.959 366.864 337.759 366.384C338.575 365.888 339.527 365.64 340.615 365.64C341.639 365.64 342.527 365.888 343.279 366.384C344.047 366.864 344.559 367.52 344.815 368.352L344.599 368.208L344.839 365.88H347.743C347.679 366.376 347.631 366.88 347.599 367.392C347.567 367.904 347.551 368.408 347.551 368.904V377.52C347.551 379.424 347.031 380.872 345.991 381.864C344.967 382.872 343.463 383.376 341.479 383.376ZM341.431 375.408C342.391 375.408 343.151 375.088 343.711 374.448C344.287 373.792 344.575 372.864 344.575 371.664C344.575 370.464 344.287 369.544 343.711 368.904C343.151 368.264 342.391 367.944 341.431 367.944C340.455 367.944 339.679 368.264 339.103 368.904C338.527 369.544 338.239 370.464 338.239 371.664C338.239 372.864 338.527 373.792 339.103 374.448C339.679 375.088 340.455 375.408 341.431 375.408ZM351.033 383.448L350.337 381.072C351.089 380.912 351.721 380.728 352.233 380.52C352.745 380.312 353.169 380.04 353.505 379.704C353.841 379.368 354.121 378.936 354.345 378.408L354.945 376.992L354.873 378.168L349.593 365.88H352.785L356.577 375.336H355.881L359.697 365.88H362.721L357.201 378.672C356.833 379.536 356.433 380.248 356.001 380.808C355.569 381.384 355.105 381.84 354.609 382.176C354.113 382.528 353.569 382.8 352.977 382.992C352.385 383.184 351.737 383.336 351.033 383.448ZM369.23 378.24C368.174 378.24 367.246 377.992 366.446 377.496C365.646 376.984 365.022 376.256 364.574 375.312C364.126 374.368 363.902 373.24 363.902 371.928C363.902 370.616 364.126 369.496 364.574 368.568C365.022 367.624 365.646 366.904 366.446 366.408C367.246 365.896 368.174 365.64 369.23 365.64C370.254 365.64 371.15 365.896 371.918 366.408C372.702 366.904 373.222 367.576 373.478 368.424H373.214L373.478 365.88H376.358C376.31 366.376 376.262 366.88 376.214 367.392C376.182 367.904 376.166 368.408 376.166 368.904V378H373.19L373.166 375.504H373.454C373.198 376.336 372.678 377 371.894 377.496C371.11 377.992 370.222 378.24 369.23 378.24ZM370.07 375.936C371.014 375.936 371.774 375.608 372.35 374.952C372.926 374.28 373.214 373.272 373.214 371.928C373.214 370.584 372.926 369.584 372.35 368.928C371.774 368.272 371.014 367.944 370.07 367.944C369.126 367.944 368.366 368.272 367.79 368.928C367.214 369.584 366.926 370.584 366.926 371.928C366.926 373.272 367.206 374.28 367.766 374.952C368.342 375.608 369.11 375.936 370.07 375.936ZM385.346 378L393.002 361.08H395.594L403.346 378H400.202L398.138 373.248L399.386 374.088H389.234L390.53 373.248L388.466 378H385.346ZM394.274 364.392L390.89 372.408L390.266 371.664H398.33L397.826 372.408L394.37 364.392H394.274ZM405.698 378V361.08H408.794V378H405.698Z" fill="#00ADB5"/>
<path d="M252.827 270.998C307.018 216.753 394.88 216.753 449.071 270.998C503.262 325.243 503.262 413.192 449.071 467.437C394.88 521.682 307.018 521.682 252.827 467.437C198.635 413.192 198.635 325.243 252.827 270.998Z" stroke="#00ADB5" stroke-width="4" stroke-miterlimit="10"/>
<path d="M246.561 212.414C255.539 212.414 262.817 219.696 262.817 228.679C262.817 237.662 255.539 244.944 246.561 244.944C237.583 244.944 230.305 237.662 230.305 228.679C230.305 219.696 237.583 212.414 246.561 212.414Z" fill="#00ADB5"/>
<path d="M246.561 221.05C250.772 221.05 254.186 224.465 254.186 228.679C254.186 232.893 250.772 236.309 246.561 236.309C242.35 236.309 238.935 232.893 238.935 228.679C238.935 224.465 242.35 221.05 246.561 221.05Z" fill="white"/>
<path d="M178.303 18.0001V5.31006H180.625V16.0381H186.601V18.0001H178.303ZM188.555 18.0001V8.91006H190.805V18.0001H188.555ZM188.429 7.20006V5.00406H190.931V7.20006H188.429ZM196.273 18.0001L192.349 8.91006H194.743L197.587 16.0201H197.029L199.945 8.91006H202.195L198.253 18.0001H196.273ZM207.976 18.1801C206.452 18.1801 205.258 17.7601 204.394 16.9201C203.53 16.0801 203.098 14.9281 203.098 13.4641C203.098 12.5161 203.284 11.6881 203.656 10.9801C204.028 10.2721 204.544 9.72006 205.204 9.32406C205.876 8.92806 206.656 8.73006 207.544 8.73006C208.42 8.73006 209.152 8.91606 209.74 9.28806C210.328 9.66006 210.772 10.1821 211.072 10.8541C211.384 11.5261 211.54 12.3121 211.54 13.2121V13.8061H204.916V12.6181H209.938L209.632 12.8701C209.632 12.0301 209.452 11.3881 209.092 10.9441C208.744 10.5001 208.234 10.2781 207.562 10.2781C206.818 10.2781 206.242 10.5421 205.834 11.0701C205.438 11.5981 205.24 12.3361 205.24 13.2841V13.5181C205.24 14.5021 205.48 15.2401 205.96 15.7321C206.452 16.2121 207.142 16.4521 208.03 16.4521C208.546 16.4521 209.026 16.3861 209.47 16.2541C209.926 16.1101 210.358 15.8821 210.766 15.5701L211.432 17.0821C211 17.4301 210.484 17.7001 209.884 17.8921C209.284 18.0841 208.648 18.1801 207.976 18.1801ZM140.463 41.0001V30.2181H136.269V28.3101H146.979V30.2181H142.785V41.0001H140.463ZM147.375 41.0001V34.2321C147.375 33.8481 147.363 33.4581 147.339 33.0621C147.327 32.6661 147.297 32.2821 147.249 31.9101H149.427L149.679 34.3941H149.319C149.439 33.7941 149.637 33.2961 149.913 32.9001C150.201 32.5041 150.549 32.2101 150.957 32.0181C151.365 31.8261 151.809 31.7301 152.289 31.7301C152.505 31.7301 152.679 31.7421 152.811 31.7661C152.943 31.7781 153.075 31.8081 153.207 31.8561L153.189 33.8361C152.961 33.7401 152.763 33.6801 152.595 33.6561C152.439 33.6321 152.241 33.6201 152.001 33.6201C151.485 33.6201 151.047 33.7281 150.687 33.9441C150.339 34.1601 150.075 34.4601 149.895 34.8441C149.727 35.2281 149.643 35.6661 149.643 36.1581V41.0001H147.375ZM158.242 41.1801C157.45 41.1801 156.754 40.9941 156.154 40.6221C155.554 40.2381 155.086 39.6921 154.75 38.9841C154.414 38.2761 154.246 37.4301 154.246 36.4461C154.246 35.4621 154.414 34.6221 154.75 33.9261C155.086 33.2181 155.554 32.6781 156.154 32.3061C156.754 31.9221 157.45 31.7301 158.242 31.7301C159.01 31.7301 159.682 31.9221 160.258 32.3061C160.846 32.6781 161.236 33.1821 161.428 33.8181H161.23L161.428 31.9101H163.588C163.552 32.2821 163.516 32.6601 163.48 33.0441C163.456 33.4281 163.444 33.8061 163.444 34.1781V41.0001H161.212L161.194 39.1281H161.41C161.218 39.7521 160.828 40.2501 160.24 40.6221C159.652 40.9941 158.986 41.1801 158.242 41.1801ZM158.872 39.4521C159.58 39.4521 160.15 39.2061 160.582 38.7141C161.014 38.2101 161.23 37.4541 161.23 36.4461C161.23 35.4381 161.014 34.6881 160.582 34.1961C160.15 33.7041 159.58 33.4581 158.872 33.4581C158.164 33.4581 157.594 33.7041 157.162 34.1961C156.73 34.6881 156.514 35.4381 156.514 36.4461C156.514 37.4541 156.724 38.2101 157.144 38.7141C157.576 39.2061 158.152 39.4521 158.872 39.4521ZM166.254 41.0001V34.1781C166.254 33.8061 166.242 33.4281 166.218 33.0441C166.194 32.6601 166.158 32.2821 166.11 31.9101H168.288L168.468 33.7101H168.252C168.54 33.0741 168.966 32.5881 169.53 32.2521C170.094 31.9041 170.748 31.7301 171.492 31.7301C172.56 31.7301 173.364 32.0301 173.904 32.6301C174.444 33.2301 174.714 34.1661 174.714 35.4381V41.0001H172.464V35.5461C172.464 34.8141 172.32 34.2921 172.032 33.9801C171.756 33.6561 171.336 33.4941 170.772 33.4941C170.076 33.4941 169.524 33.7101 169.116 34.1421C168.708 34.5741 168.504 35.1501 168.504 35.8701V41.0001H166.254ZM180.7 41.1801C179.92 41.1801 179.2 41.0901 178.54 40.9101C177.892 40.7181 177.346 40.4541 176.902 40.1181L177.532 38.6061C177.988 38.9181 178.492 39.1581 179.044 39.3261C179.596 39.4941 180.154 39.5781 180.718 39.5781C181.318 39.5781 181.762 39.4761 182.05 39.2721C182.35 39.0681 182.5 38.7921 182.5 38.4441C182.5 38.1681 182.404 37.9521 182.212 37.7961C182.032 37.6281 181.738 37.5021 181.33 37.4181L179.53 37.0761C178.762 36.9081 178.174 36.6201 177.766 36.2121C177.37 35.8041 177.172 35.2701 177.172 34.6101C177.172 34.0461 177.322 33.5481 177.622 33.1161C177.934 32.6841 178.372 32.3481 178.936 32.1081C179.512 31.8561 180.184 31.7301 180.952 31.7301C181.624 31.7301 182.254 31.8201 182.842 32.0001C183.442 32.1801 183.946 32.4501 184.354 32.8101L183.706 34.2681C183.334 33.9681 182.908 33.7341 182.428 33.5661C181.948 33.3981 181.48 33.3141 181.024 33.3141C180.4 33.3141 179.944 33.4281 179.656 33.6561C179.368 33.8721 179.224 34.1541 179.224 34.5021C179.224 34.7661 179.308 34.9881 179.476 35.1681C179.656 35.3361 179.932 35.4621 180.304 35.5461L182.104 35.8881C182.908 36.0441 183.514 36.3201 183.922 36.7161C184.342 37.1001 184.552 37.6281 184.552 38.3001C184.552 38.9001 184.39 39.4161 184.066 39.8481C183.742 40.2801 183.292 40.6101 182.716 40.8381C182.14 41.0661 181.468 41.1801 180.7 41.1801ZM191.013 41.1801C190.077 41.1801 189.255 40.9881 188.547 40.6041C187.851 40.2201 187.311 39.6741 186.927 38.9661C186.543 38.2461 186.351 37.3941 186.351 36.4101C186.351 35.4261 186.543 34.5861 186.927 33.8901C187.323 33.1941 187.869 32.6601 188.565 32.2881C189.261 31.9161 190.077 31.7301 191.013 31.7301C191.613 31.7301 192.195 31.8261 192.759 32.0181C193.335 32.1981 193.803 32.4621 194.163 32.8101L193.479 34.3761C193.155 34.0761 192.789 33.8541 192.381 33.7101C191.985 33.5541 191.595 33.4761 191.211 33.4761C190.407 33.4761 189.777 33.7281 189.321 34.2321C188.877 34.7361 188.655 35.4681 188.655 36.4281C188.655 37.3881 188.877 38.1261 189.321 38.6421C189.777 39.1581 190.407 39.4161 191.211 39.4161C191.583 39.4161 191.967 39.3441 192.363 39.2001C192.771 39.0561 193.143 38.8341 193.479 38.5341L194.163 40.0821C193.791 40.4301 193.317 40.7001 192.741 40.8921C192.177 41.0841 191.601 41.1801 191.013 41.1801ZM196.25 41.0001V34.2321C196.25 33.8481 196.238 33.4581 196.214 33.0621C196.202 32.6661 196.172 32.2821 196.124 31.9101H198.302L198.554 34.3941H198.194C198.314 33.7941 198.512 33.2961 198.788 32.9001C199.076 32.5041 199.424 32.2101 199.832 32.0181C200.24 31.8261 200.684 31.7301 201.164 31.7301C201.38 31.7301 201.554 31.7421 201.686 31.7661C201.818 31.7781 201.95 31.8081 202.082 31.8561L202.064 33.8361C201.836 33.7401 201.638 33.6801 201.47 33.6561C201.314 33.6321 201.116 33.6201 200.876 33.6201C200.36 33.6201 199.922 33.7281 199.562 33.9441C199.214 34.1601 198.95 34.4601 198.77 34.8441C198.602 35.2281 198.518 35.6661 198.518 36.1581V41.0001H196.25ZM203.694 41.0001V31.9101H205.944V41.0001H203.694ZM203.568 30.2001V28.0041H206.07V30.2001H203.568ZM208.747 44.8881V34.1781C208.747 33.8061 208.735 33.4281 208.711 33.0441C208.687 32.6601 208.651 32.2821 208.603 31.9101H210.781L210.979 33.8181H210.781C210.961 33.1821 211.339 32.6781 211.915 32.3061C212.503 31.9221 213.181 31.7301 213.949 31.7301C214.753 31.7301 215.455 31.9221 216.055 32.3061C216.655 32.6781 217.123 33.2181 217.459 33.9261C217.795 34.6221 217.963 35.4621 217.963 36.4461C217.963 37.4301 217.795 38.2761 217.459 38.9841C217.123 39.6921 216.655 40.2381 216.055 40.6221C215.455 40.9941 214.753 41.1801 213.949 41.1801C213.193 41.1801 212.527 40.9941 211.951 40.6221C211.375 40.2501 210.991 39.7521 210.799 39.1281H210.997V44.8881H208.747ZM213.319 39.4521C214.039 39.4521 214.615 39.2061 215.047 38.7141C215.479 38.2101 215.695 37.4541 215.695 36.4461C215.695 35.4381 215.479 34.6881 215.047 34.1961C214.615 33.7041 214.039 33.4581 213.319 33.4581C212.611 33.4581 212.041 33.7041 211.609 34.1961C211.177 34.6881 210.961 35.4381 210.961 36.4461C210.961 37.4541 211.177 38.2101 211.609 38.7141C212.041 39.2061 212.611 39.4521 213.319 39.4521ZM224.07 41.1801C222.99 41.1801 222.174 40.8981 221.622 40.3341C221.07 39.7701 220.794 38.9241 220.794 37.7961V33.6021H219.048V31.9101H220.794V29.5881L223.044 29.0121V31.9101H225.474V33.6021H223.044V37.6521C223.044 38.2761 223.164 38.7141 223.404 38.9661C223.644 39.2181 223.974 39.3441 224.394 39.3441C224.622 39.3441 224.814 39.3261 224.97 39.2901C225.138 39.2541 225.3 39.2061 225.456 39.1461V40.9281C225.252 41.0121 225.024 41.0721 224.772 41.1081C224.532 41.1561 224.298 41.1801 224.07 41.1801ZM227.362 41.0001V31.9101H229.612V41.0001H227.362ZM227.236 30.2001V28.0041H229.738V30.2001H227.236ZM236.519 41.1801C235.583 41.1801 234.773 40.9881 234.089 40.6041C233.405 40.2201 232.871 39.6741 232.487 38.9661C232.115 38.2581 231.929 37.4181 231.929 36.4461C231.929 35.4741 232.115 34.6401 232.487 33.9441C232.871 33.2361 233.405 32.6901 234.089 32.3061C234.773 31.9221 235.583 31.7301 236.519 31.7301C237.455 31.7301 238.265 31.9221 238.949 32.3061C239.645 32.6901 240.179 33.2361 240.551 33.9441C240.935 34.6401 241.127 35.4741 241.127 36.4461C241.127 37.4181 240.935 38.2581 240.551 38.9661C240.179 39.6741 239.645 40.2201 238.949 40.6041C238.265 40.9881 237.455 41.1801 236.519 41.1801ZM236.519 39.4521C237.227 39.4521 237.791 39.2061 238.211 38.7141C238.631 38.2101 238.841 37.4541 238.841 36.4461C238.841 35.4381 238.631 34.6881 238.211 34.1961C237.791 33.7041 237.227 33.4581 236.519 33.4581C235.811 33.4581 235.247 33.7041 234.827 34.1961C234.407 34.6881 234.197 35.4381 234.197 36.4461C234.197 37.4541 234.407 38.2101 234.827 38.7141C235.247 39.2061 235.811 39.4521 236.519 39.4521ZM243.428 41.0001V34.1781C243.428 33.8061 243.416 33.4281 243.392 33.0441C243.368 32.6601 243.332 32.2821 243.284 31.9101H245.462L245.642 33.7101H245.426C245.714 33.0741 246.14 32.5881 246.704 32.2521C247.268 31.9041 247.922 31.7301 248.666 31.7301C249.734 31.7301 250.538 32.0301 251.078 32.6301C251.618 33.2301 251.888 34.1661 251.888 35.4381V41.0001H249.638V35.5461C249.638 34.8141 249.494 34.2921 249.206 33.9801C248.93 33.6561 248.51 33.4941 247.946 33.4941C247.25 33.4941 246.698 33.7101 246.29 34.1421C245.882 34.5741 245.678 35.1501 245.678 35.8701V41.0001H243.428Z" fill="#222831"/>
<path d="M232.982 206.163L213.012 192.411C191.245 198.99 166.657 193.794 149.293 176.724C123.961 151.82 123.603 111.086 148.492 85.7401C173.382 60.394 214.094 60.0353 239.426 84.9389C264.758 109.842 265.117 150.577 240.227 175.923C237.797 178.397 235.213 180.624 232.511 182.622L232.982 206.163Z" fill="#E3F5FF"/>
<path d="M194.152 85.6468C219.088 85.6468 239.303 105.873 239.303 130.823C239.303 155.774 219.088 176 194.152 176C169.215 176 149 155.774 149 130.823C149 105.873 169.215 85.6468 194.152 85.6468Z" fill="white"/>
<path d="M205.667 113.333C206.374 113.333 207.053 113.614 207.553 114.114C208.053 114.614 208.334 115.293 208.334 116V146C208.334 146.707 208.053 147.386 207.553 147.886C207.053 148.386 206.374 148.666 205.667 148.666H184.834C183.464 148.666 182.15 148.122 181.181 147.153C180.272 146.245 179.737 145.033 179.674 143.756L179.667 143.5V118.5C179.667 117.13 180.212 115.815 181.181 114.847C182.15 113.878 183.464 113.333 184.834 113.333H205.667ZM184.834 140.333C183.994 140.333 183.189 140.667 182.595 141.261C182.001 141.854 181.667 142.66 181.667 143.5L181.671 143.656C181.71 144.439 182.038 145.182 182.595 145.739C183.189 146.333 183.994 146.666 184.834 146.666H205.667C205.844 146.666 206.014 146.596 206.139 146.471C206.263 146.346 206.334 146.176 206.334 146V140.333H184.834ZM184.834 115.333C183.994 115.333 183.189 115.667 182.595 116.261C182.001 116.854 181.667 117.66 181.667 118.5V139.419C182.568 138.72 183.681 138.333 184.834 138.333H206.334V116C206.334 115.823 206.264 115.653 206.139 115.528C206.014 115.403 205.844 115.333 205.667 115.333H184.834ZM198.293 122.793C198.683 122.402 199.317 122.402 199.707 122.793C200.098 123.183 200.098 123.816 199.707 124.207L193.04 130.874C192.649 131.264 192.016 131.264 191.626 130.874L188.293 127.54C187.903 127.149 187.902 126.516 188.293 126.126C188.683 125.736 189.317 125.736 189.707 126.126L192.333 128.752L198.293 122.793Z" fill="#00ADB5"/>
<path d="M246.561 525.873C255.539 525.873 262.817 518.591 262.817 509.608C262.817 500.625 255.539 493.343 246.561 493.343C237.583 493.343 230.305 500.625 230.305 509.608C230.305 518.591 237.583 525.873 246.561 525.873Z" fill="#00ADB5"/>
<path d="M246.561 517.237C250.772 517.237 254.186 513.821 254.186 509.608C254.186 505.394 250.772 501.978 246.561 501.978C242.35 501.978 238.935 505.394 238.935 509.608C238.935 513.821 242.35 517.237 246.561 517.237Z" fill="white"/>
<path d="M145.885 701.977V689.287H150.493C151.945 689.287 153.169 689.539 154.165 690.043C155.173 690.535 155.935 691.255 156.451 692.203C156.967 693.139 157.225 694.279 157.225 695.623C157.225 696.955 156.967 698.095 156.451 699.043C155.935 699.991 155.173 700.717 154.165 701.221C153.169 701.725 151.945 701.977 150.493 701.977H145.885ZM148.207 700.051H150.349C151.885 700.051 153.025 699.685 153.769 698.953C154.513 698.221 154.885 697.111 154.885 695.623C154.885 694.123 154.513 693.013 153.769 692.293C153.025 691.561 151.885 691.195 150.349 691.195H148.207V700.051ZM159.776 701.977V692.887H162.026V701.977H159.776ZM159.65 691.177V688.981H162.152V691.177H159.65ZM165.441 701.977V694.579H163.695V692.887H166.071L165.441 693.463V692.077C165.441 690.949 165.729 690.097 166.305 689.521C166.893 688.945 167.751 688.657 168.879 688.657C169.143 688.657 169.419 688.675 169.707 688.711C170.007 688.747 170.265 688.813 170.481 688.909V690.673C170.325 690.613 170.139 690.565 169.923 690.529C169.707 690.493 169.497 690.475 169.293 690.475C168.981 690.475 168.699 690.535 168.447 690.655C168.207 690.775 168.015 690.961 167.871 691.213C167.739 691.453 167.673 691.777 167.673 692.185V693.283L167.349 692.887H170.067V694.579H167.691V701.977H165.441ZM172.024 701.977V694.579H170.278V692.887H172.654L172.024 693.463V692.077C172.024 690.949 172.312 690.097 172.888 689.521C173.476 688.945 174.334 688.657 175.462 688.657C175.726 688.657 176.002 688.675 176.29 688.711C176.59 688.747 176.848 688.813 177.064 688.909V690.673C176.908 690.613 176.722 690.565 176.506 690.529C176.29 690.493 176.08 690.475 175.876 690.475C175.564 690.475 175.282 690.535 175.03 690.655C174.79 690.775 174.598 690.961 174.454 691.213C174.322 691.453 174.256 691.777 174.256 692.185V693.283L173.932 692.887H176.65V694.579H174.274V701.977H172.024ZM182.562 702.157C181.038 702.157 179.844 701.737 178.98 700.897C178.116 700.057 177.684 698.905 177.684 697.441C177.684 696.493 177.87 695.665 178.242 694.957C178.614 694.249 179.13 693.697 179.79 693.301C180.462 692.905 181.242 692.707 182.13 692.707C183.006 692.707 183.738 692.893 184.326 693.265C184.914 693.637 185.358 694.159 185.658 694.831C185.97 695.503 186.126 696.289 186.126 697.189V697.783H179.502V696.595H184.524L184.218 696.847C184.218 696.007 184.038 695.365 183.678 694.921C183.33 694.477 182.82 694.255 182.148 694.255C181.404 694.255 180.828 694.519 180.42 695.047C180.024 695.575 179.826 696.313 179.826 697.261V697.495C179.826 698.479 180.066 699.217 180.546 699.709C181.038 700.189 181.728 700.429 182.616 700.429C183.132 700.429 183.612 700.363 184.056 700.231C184.512 700.087 184.944 699.859 185.352 699.547L186.018 701.059C185.586 701.407 185.07 701.677 184.47 701.869C183.87 702.061 183.234 702.157 182.562 702.157ZM188.374 701.977V695.209C188.374 694.825 188.362 694.435 188.338 694.039C188.326 693.643 188.296 693.259 188.248 692.887H190.426L190.678 695.371H190.318C190.438 694.771 190.636 694.273 190.912 693.877C191.2 693.481 191.548 693.187 191.956 692.995C192.364 692.803 192.808 692.707 193.288 692.707C193.504 692.707 193.678 692.719 193.81 692.743C193.942 692.755 194.074 692.785 194.206 692.833L194.188 694.813C193.96 694.717 193.762 694.657 193.594 694.633C193.438 694.609 193.24 694.597 193 694.597C192.484 694.597 192.046 694.705 191.686 694.921C191.338 695.137 191.074 695.437 190.894 695.821C190.726 696.205 190.642 696.643 190.642 697.135V701.977H188.374ZM200.07 702.157C198.546 702.157 197.352 701.737 196.488 700.897C195.624 700.057 195.192 698.905 195.192 697.441C195.192 696.493 195.378 695.665 195.75 694.957C196.122 694.249 196.638 693.697 197.298 693.301C197.97 692.905 198.75 692.707 199.638 692.707C200.514 692.707 201.246 692.893 201.834 693.265C202.422 693.637 202.866 694.159 203.166 694.831C203.478 695.503 203.634 696.289 203.634 697.189V697.783H197.01V696.595H202.032L201.726 696.847C201.726 696.007 201.546 695.365 201.186 694.921C200.838 694.477 200.328 694.255 199.656 694.255C198.912 694.255 198.336 694.519 197.928 695.047C197.532 695.575 197.334 696.313 197.334 697.261V697.495C197.334 698.479 197.574 699.217 198.054 699.709C198.546 700.189 199.236 700.429 200.124 700.429C200.64 700.429 201.12 700.363 201.564 700.231C202.02 700.087 202.452 699.859 202.86 699.547L203.526 701.059C203.094 701.407 202.578 701.677 201.978 701.869C201.378 702.061 200.742 702.157 200.07 702.157ZM205.899 701.977V695.155C205.899 694.783 205.887 694.405 205.863 694.021C205.839 693.637 205.803 693.259 205.755 692.887H207.933L208.113 694.687H207.897C208.185 694.051 208.611 693.565 209.175 693.229C209.739 692.881 210.393 692.707 211.137 692.707C212.205 692.707 213.009 693.007 213.549 693.607C214.089 694.207 214.359 695.143 214.359 696.415V701.977H212.109V696.523C212.109 695.791 211.965 695.269 211.677 694.957C211.401 694.633 210.981 694.471 210.417 694.471C209.721 694.471 209.169 694.687 208.761 695.119C208.353 695.551 208.149 696.127 208.149 696.847V701.977H205.899ZM220.993 702.157C219.913 702.157 219.097 701.875 218.545 701.311C217.993 700.747 217.717 699.901 217.717 698.773V694.579H215.971V692.887H217.717V690.565L219.967 689.989V692.887H222.397V694.579H219.967V698.629C219.967 699.253 220.087 699.691 220.327 699.943C220.567 700.195 220.897 700.321 221.317 700.321C221.545 700.321 221.737 700.303 221.893 700.267C222.061 700.231 222.223 700.183 222.379 700.123V701.905C222.175 701.989 221.947 702.049 221.695 702.085C221.455 702.133 221.221 702.157 220.993 702.157ZM224.285 701.977V692.887H226.535V701.977H224.285ZM224.159 691.177V688.981H226.661V691.177H224.159ZM232.848 702.157C232.056 702.157 231.36 701.971 230.76 701.599C230.16 701.215 229.692 700.669 229.356 699.961C229.02 699.253 228.852 698.407 228.852 697.423C228.852 696.439 229.02 695.599 229.356 694.903C229.692 694.195 230.16 693.655 230.76 693.283C231.36 692.899 232.056 692.707 232.848 692.707C233.616 692.707 234.288 692.899 234.864 693.283C235.452 693.655 235.842 694.159 236.034 694.795H235.836L236.034 692.887H238.194C238.158 693.259 238.122 693.637 238.086 694.021C238.062 694.405 238.05 694.783 238.05 695.155V701.977H235.818L235.8 700.105H236.016C235.824 700.729 235.434 701.227 234.846 701.599C234.258 701.971 233.592 702.157 232.848 702.157ZM233.478 700.429C234.186 700.429 234.756 700.183 235.188 699.691C235.62 699.187 235.836 698.431 235.836 697.423C235.836 696.415 235.62 695.665 235.188 695.173C234.756 694.681 234.186 694.435 233.478 694.435C232.77 694.435 232.2 694.681 231.768 695.173C231.336 695.665 231.12 696.415 231.12 697.423C231.12 698.431 231.33 699.187 231.75 699.691C232.182 700.183 232.758 700.429 233.478 700.429ZM240.86 701.977V688.729H243.11V701.977H240.86ZM152.054 724.977V712.287H156.662C158.114 712.287 159.338 712.539 160.334 713.043C161.342 713.535 162.104 714.255 162.62 715.203C163.136 716.139 163.394 717.279 163.394 718.623C163.394 719.955 163.136 721.095 162.62 722.043C162.104 722.991 161.342 723.717 160.334 724.221C159.338 724.725 158.114 724.977 156.662 724.977H152.054ZM154.376 723.051H156.518C158.054 723.051 159.194 722.685 159.938 721.953C160.682 721.221 161.054 720.111 161.054 718.623C161.054 717.123 160.682 716.013 159.938 715.293C159.194 714.561 158.054 714.195 156.518 714.195H154.376V723.051ZM165.945 724.977V715.887H168.195V724.977H165.945ZM165.819 714.177V711.981H168.321V714.177H165.819ZM174.509 725.157C173.717 725.157 173.021 724.971 172.421 724.599C171.821 724.215 171.353 723.669 171.017 722.961C170.681 722.253 170.513 721.407 170.513 720.423C170.513 719.439 170.681 718.599 171.017 717.903C171.353 717.195 171.821 716.655 172.421 716.283C173.021 715.899 173.717 715.707 174.509 715.707C175.277 715.707 175.949 715.899 176.525 716.283C177.113 716.655 177.503 717.159 177.695 717.795H177.497L177.695 715.887H179.855C179.819 716.259 179.783 716.637 179.747 717.021C179.723 717.405 179.711 717.783 179.711 718.155V724.977H177.479L177.461 723.105H177.677C177.485 723.729 177.095 724.227 176.507 724.599C175.919 724.971 175.253 725.157 174.509 725.157ZM175.139 723.429C175.847 723.429 176.417 723.183 176.849 722.691C177.281 722.187 177.497 721.431 177.497 720.423C177.497 719.415 177.281 718.665 176.849 718.173C176.417 717.681 175.847 717.435 175.139 717.435C174.431 717.435 173.861 717.681 173.429 718.173C172.997 718.665 172.781 719.415 172.781 720.423C172.781 721.431 172.991 722.187 173.411 722.691C173.843 723.183 174.419 723.429 175.139 723.429ZM186.733 729.009C185.893 729.009 185.131 728.919 184.447 728.739C183.775 728.559 183.175 728.283 182.647 727.911L183.133 726.291C183.481 726.519 183.841 726.705 184.213 726.849C184.585 726.993 184.969 727.101 185.365 727.173C185.761 727.245 186.163 727.281 186.571 727.281C187.411 727.281 188.035 727.071 188.443 726.651C188.863 726.243 189.073 725.655 189.073 724.887V722.709H189.253C189.061 723.333 188.671 723.831 188.083 724.203C187.507 724.575 186.841 724.761 186.085 724.761C185.269 724.761 184.555 724.581 183.943 724.221C183.343 723.849 182.875 723.321 182.539 722.637C182.203 721.953 182.035 721.149 182.035 720.225C182.035 719.301 182.203 718.503 182.539 717.831C182.875 717.147 183.343 716.625 183.943 716.265C184.555 715.893 185.269 715.707 186.085 715.707C186.853 715.707 187.519 715.893 188.083 716.265C188.659 716.625 189.043 717.117 189.235 717.741L189.073 717.633L189.253 715.887H191.431C191.383 716.259 191.347 716.637 191.323 717.021C191.299 717.405 191.287 717.783 191.287 718.155V724.617C191.287 726.045 190.897 727.131 190.117 727.875C189.349 728.631 188.221 729.009 186.733 729.009ZM186.697 723.033C187.417 723.033 187.987 722.793 188.407 722.313C188.839 721.821 189.055 721.125 189.055 720.225C189.055 719.325 188.839 718.635 188.407 718.155C187.987 717.675 187.417 717.435 186.697 717.435C185.965 717.435 185.383 717.675 184.951 718.155C184.519 718.635 184.303 719.325 184.303 720.225C184.303 721.125 184.519 721.821 184.951 722.313C185.383 722.793 185.965 723.033 186.697 723.033ZM194.078 724.977V718.155C194.078 717.783 194.066 717.405 194.042 717.021C194.018 716.637 193.982 716.259 193.934 715.887H196.112L196.292 717.687H196.076C196.364 717.051 196.79 716.565 197.354 716.229C197.918 715.881 198.572 715.707 199.316 715.707C200.384 715.707 201.188 716.007 201.728 716.607C202.268 717.207 202.538 718.143 202.538 719.415V724.977H200.288V719.523C200.288 718.791 200.144 718.269 199.856 717.957C199.58 717.633 199.16 717.471 198.596 717.471C197.9 717.471 197.348 717.687 196.94 718.119C196.532 718.551 196.328 719.127 196.328 719.847V724.977H194.078ZM209.388 725.157C208.452 725.157 207.642 724.965 206.958 724.581C206.274 724.197 205.74 723.651 205.356 722.943C204.984 722.235 204.798 721.395 204.798 720.423C204.798 719.451 204.984 718.617 205.356 717.921C205.74 717.213 206.274 716.667 206.958 716.283C207.642 715.899 208.452 715.707 209.388 715.707C210.324 715.707 211.134 715.899 211.818 716.283C212.514 716.667 213.048 717.213 213.42 717.921C213.804 718.617 213.996 719.451 213.996 720.423C213.996 721.395 213.804 722.235 213.42 722.943C213.048 723.651 212.514 724.197 211.818 724.581C211.134 724.965 210.324 725.157 209.388 725.157ZM209.388 723.429C210.096 723.429 210.66 723.183 211.08 722.691C211.5 722.187 211.71 721.431 211.71 720.423C211.71 719.415 211.5 718.665 211.08 718.173C210.66 717.681 210.096 717.435 209.388 717.435C208.68 717.435 208.116 717.681 207.696 718.173C207.276 718.665 207.066 719.415 207.066 720.423C207.066 721.431 207.276 722.187 207.696 722.691C208.116 723.183 208.68 723.429 209.388 723.429ZM219.536 725.157C218.756 725.157 218.036 725.067 217.376 724.887C216.728 724.695 216.182 724.431 215.738 724.095L216.368 722.583C216.824 722.895 217.328 723.135 217.88 723.303C218.432 723.471 218.99 723.555 219.554 723.555C220.154 723.555 220.598 723.453 220.886 723.249C221.186 723.045 221.336 722.769 221.336 722.421C221.336 722.145 221.24 721.929 221.048 721.773C220.868 721.605 220.574 721.479 220.166 721.395L218.366 721.053C217.598 720.885 217.01 720.597 216.602 720.189C216.206 719.781 216.008 719.247 216.008 718.587C216.008 718.023 216.158 717.525 216.458 717.093C216.77 716.661 217.208 716.325 217.772 716.085C218.348 715.833 219.02 715.707 219.788 715.707C220.46 715.707 221.09 715.797 221.678 715.977C222.278 716.157 222.782 716.427 223.19 716.787L222.542 718.245C222.17 717.945 221.744 717.711 221.264 717.543C220.784 717.375 220.316 717.291 219.86 717.291C219.236 717.291 218.78 717.405 218.492 717.633C218.204 717.849 218.06 718.131 218.06 718.479C218.06 718.743 218.144 718.965 218.312 719.145C218.492 719.313 218.768 719.439 219.14 719.523L220.94 719.865C221.744 720.021 222.35 720.297 222.758 720.693C223.178 721.077 223.388 721.605 223.388 722.277C223.388 722.877 223.226 723.393 222.902 723.825C222.578 724.257 222.128 724.587 221.552 724.815C220.976 725.043 220.304 725.157 219.536 725.157ZM225.674 724.977V715.887H227.924V724.977H225.674ZM225.548 714.177V711.981H228.05V714.177H225.548ZM233.967 725.157C233.187 725.157 232.467 725.067 231.807 724.887C231.159 724.695 230.613 724.431 230.169 724.095L230.799 722.583C231.255 722.895 231.759 723.135 232.311 723.303C232.863 723.471 233.421 723.555 233.985 723.555C234.585 723.555 235.029 723.453 235.317 723.249C235.617 723.045 235.767 722.769 235.767 722.421C235.767 722.145 235.671 721.929 235.479 721.773C235.299 721.605 235.005 721.479 234.597 721.395L232.797 721.053C232.029 720.885 231.441 720.597 231.033 720.189C230.637 719.781 230.439 719.247 230.439 718.587C230.439 718.023 230.589 717.525 230.889 717.093C231.201 716.661 231.639 716.325 232.203 716.085C232.779 715.833 233.451 715.707 234.219 715.707C234.891 715.707 235.521 715.797 236.109 715.977C236.709 716.157 237.213 716.427 237.621 716.787L236.973 718.245C236.601 717.945 236.175 717.711 235.695 717.543C235.215 717.375 234.747 717.291 234.291 717.291C233.667 717.291 233.211 717.405 232.923 717.633C232.635 717.849 232.491 718.131 232.491 718.479C232.491 718.743 232.575 718.965 232.743 719.145C232.923 719.313 233.199 719.439 233.571 719.523L235.371 719.865C236.175 720.021 236.781 720.297 237.189 720.693C237.609 721.077 237.819 721.605 237.819 722.277C237.819 722.877 237.657 723.393 237.333 723.825C237.009 724.257 236.559 724.587 235.983 724.815C235.407 725.043 234.735 725.157 233.967 725.157Z" fill="#222831"/>
<path d="M232.982 532.124L213.012 545.876C191.245 539.296 166.657 544.493 149.293 561.563C123.961 586.467 123.603 627.201 148.492 652.547C173.382 677.893 214.094 678.252 239.426 653.348C264.758 628.444 265.117 587.71 240.227 562.364C237.797 559.89 235.213 557.663 232.511 555.664L232.982 532.124Z" fill="#E3F5FF"/>
<path d="M194.152 561.647C219.088 561.647 239.303 581.873 239.303 606.823C239.303 631.774 219.088 652 194.152 652C169.215 652 149 631.774 149 606.823C149 581.873 169.215 561.647 194.152 561.647Z" fill="white"/>
<path fill-rule="evenodd" clip-rule="evenodd" d="M200.43 589.513C202.876 588.917 205.446 589.081 207.797 589.982C210.148 590.883 212.169 592.479 213.591 594.557C215.012 596.633 215.767 599.094 215.756 601.61L215.746 602.095C215.633 604.852 214.56 607.211 213.116 609.278C213.061 609.403 212.981 609.514 212.883 609.605C211.777 611.125 210.481 612.487 209.236 613.732C209.233 613.736 209.228 613.74 209.225 613.744L197.845 624.752C197.372 625.283 196.795 625.711 196.148 626.008C195.484 626.313 194.763 626.473 194.032 626.477C193.302 626.482 192.578 626.331 191.91 626.035C191.259 625.746 190.675 625.324 190.195 624.798L178.776 613.744C178.773 613.74 178.768 613.736 178.765 613.732C177.529 612.497 176.242 611.151 175.142 609.647C175.008 609.537 174.904 609.392 174.842 609.227C173.335 607.056 172.245 604.562 172.245 601.61C172.245 599.098 173.007 596.645 174.431 594.575C175.854 592.506 177.872 590.916 180.217 590.018C182.562 589.119 185.126 588.952 187.568 589.54C190.003 590.127 192.204 591.437 193.881 593.297H193.882C193.897 593.313 193.915 593.326 193.936 593.335C193.956 593.344 193.978 593.349 194 593.349C194.022 593.349 194.045 593.344 194.065 593.335L194.119 593.297C195.791 591.426 197.992 590.106 200.43 589.513ZM194.962 616.414C194.846 616.818 194.49 617.107 194.07 617.137C193.651 617.166 193.258 616.929 193.087 616.545L189.796 609.142L189.706 609.322C189.537 609.661 189.19 609.875 188.812 609.875H177.883C178.596 610.704 179.371 611.51 180.167 612.307L191.6 623.374L191.649 623.426C191.947 623.759 192.313 624.026 192.722 624.207C193.13 624.388 193.573 624.48 194.02 624.477C194.466 624.475 194.908 624.377 195.314 624.19C195.72 624.004 196.083 623.733 196.376 623.396L196.435 623.334L207.834 612.307C208.629 611.511 209.402 610.705 210.114 609.875H201.265C200.865 609.875 200.503 609.636 200.346 609.268L198.34 604.589L194.962 616.414ZM207.081 591.85C205.11 591.094 202.954 590.957 200.902 591.456C198.851 591.955 197 593.068 195.597 594.645C195.591 594.651 195.585 594.657 195.58 594.663C195.378 594.879 195.133 595.052 194.861 595.17C194.59 595.288 194.296 595.349 194 595.349C193.704 595.349 193.411 595.288 193.14 595.17C192.868 595.052 192.623 594.879 192.421 594.663C192.417 594.658 192.412 594.653 192.407 594.648C190.999 593.081 189.148 591.978 187.1 591.484C185.051 590.991 182.9 591.131 180.933 591.885C178.965 592.639 177.272 593.973 176.078 595.709C174.884 597.445 174.245 599.503 174.245 601.61C174.245 603.962 175.078 606 176.342 607.875H188.193L188.955 606.352L189.028 606.228C189.218 605.956 189.534 605.792 189.872 605.8C190.259 605.809 190.607 606.039 190.764 606.393L193.795 613.216L197.19 601.336L197.245 601.188C197.398 600.86 197.719 600.636 198.088 600.612C198.51 600.586 198.904 600.828 199.07 601.217L201.924 607.875H211.654C212.92 605.995 213.756 603.954 213.756 601.61V601.605C213.766 599.494 213.133 597.429 211.94 595.686C210.748 593.944 209.053 592.605 207.081 591.85Z" fill="#00ADB5"/>
<path d="M175.464 379.663C184.442 379.663 191.72 372.381 191.72 363.398C191.72 354.415 184.442 347.133 175.464 347.133C166.486 347.133 159.208 354.415 159.208 363.398C159.208 372.381 166.486 379.663 175.464 379.663Z" fill="#00ADB5"/>
<path d="M183.089 363.398C183.089 367.612 179.675 371.028 175.464 371.028C171.252 371.028 167.838 367.612 167.838 363.398C167.838 359.184 171.252 355.768 175.464 355.768C179.675 355.767 183.089 359.184 183.089 363.398Z" fill="white"/>
<path d="M144.619 363.697L120.741 359.502C109.822 339.546 88.6436 326.01 64.3022 326.01C28.7894 326.01 0 354.815 0 390.348C0 425.88 28.7894 454.687 64.3022 454.687C99.815 454.687 128.604 425.882 128.604 390.349C128.604 386.881 128.321 383.479 127.794 380.16L144.619 363.697Z" fill="#E3F5FF"/>
<path d="M64.1516 344.647C89.0881 344.647 109.303 364.873 109.303 389.823C109.303 414.774 89.0881 435 64.1516 435C39.2151 435 19 414.774 19 389.823C19 364.873 39.2151 344.647 64.1516 344.647Z" fill="white"/>
<path fill-rule="evenodd" clip-rule="evenodd" d="M72.4375 389C72.8162 389 73.1627 389.214 73.332 389.553L81.7695 406.428C82.0162 406.922 81.816 407.523 81.3223 407.769C80.8284 408.016 80.2276 407.816 79.9805 407.322L76.8818 401.125H67.9932L64.8945 407.322C64.6475 407.816 64.0466 408.016 63.5527 407.769C63.0588 407.523 62.8587 406.922 63.1055 406.428L71.543 389.553L71.6143 389.432C71.7992 389.164 72.1061 389 72.4375 389ZM68.9932 399.125H75.8818L72.4375 392.236L68.9932 399.125ZM67.375 377.187C67.927 377.188 68.3749 377.635 68.375 378.187C68.375 378.74 67.9271 379.187 67.375 379.187H64.5352L61.457 383.805C61.4205 383.859 61.3786 383.91 61.332 383.957L57.8203 387.469L63.0195 392.668C63.4099 393.058 63.41 393.692 63.0195 394.082C62.6291 394.472 61.996 394.472 61.6055 394.082L56.4062 388.883L51.207 394.082C50.8165 394.472 50.1835 394.472 49.793 394.082C49.4027 393.691 49.4027 393.058 49.793 392.668L54.9922 387.469L51.4805 383.957C51.0901 383.566 51.09 382.933 51.4805 382.543C51.8709 382.152 52.504 382.153 52.8945 382.543L56.4062 386.055L59.8477 382.613L62.1318 379.187H47.125C46.5728 379.187 46.125 378.74 46.125 378.187C46.1251 377.635 46.5729 377.188 47.125 377.187H67.375ZM57.25 372.125C57.8022 372.125 58.2498 372.573 58.25 373.125C58.25 373.677 57.8023 374.125 57.25 374.125H55.5625C55.0103 374.125 54.5625 373.677 54.5625 373.125C54.5627 372.573 55.0104 372.125 55.5625 372.125H57.25Z" fill="#00ADB5"/>
<path d="M13.6452 485.194V472.504H15.6792L20.3412 482.998H19.7832L24.4452 472.504H26.4612V485.194H24.3552V475.78H25.0032L20.7372 485.194H19.3512L15.0852 475.78H15.7512V485.194H13.6452ZM32.7454 485.374C31.6294 485.374 30.7954 485.068 30.2434 484.456C29.6914 483.844 29.4154 482.908 29.4154 481.648V476.104H31.6654V481.63C31.6654 482.302 31.8034 482.8 32.0794 483.124C32.3554 483.436 32.7754 483.592 33.3394 483.592C33.9754 483.592 34.4914 483.376 34.8874 482.944C35.2954 482.512 35.4994 481.942 35.4994 481.234V476.104H37.7494V485.194H35.5534V483.34H35.8054C35.5414 483.988 35.1394 484.492 34.5994 484.852C34.0714 485.2 33.4534 485.374 32.7454 485.374ZM40.552 485.194V471.946H42.802V485.194H40.552ZM49.4934 485.374C48.4134 485.374 47.5974 485.092 47.0454 484.528C46.4934 483.964 46.2174 483.118 46.2174 481.99V477.796H44.4714V476.104H46.2174V473.782L48.4674 473.206V476.104H50.8974V477.796H48.4674V481.846C48.4674 482.47 48.5874 482.908 48.8274 483.16C49.0674 483.412 49.3974 483.538 49.8174 483.538C50.0454 483.538 50.2374 483.52 50.3934 483.484C50.5614 483.448 50.7234 483.4 50.8794 483.34V485.122C50.6754 485.206 50.4474 485.266 50.1954 485.302C49.9554 485.35 49.7214 485.374 49.4934 485.374ZM52.7857 485.194V476.104H55.0357V485.194H52.7857ZM52.6597 474.394V472.198H55.1617V474.394H52.6597ZM57.839 485.194V471.946H60.089V485.194H57.839ZM62.8924 485.194V476.104H65.1424V485.194H62.8924ZM62.7664 474.394V472.198H65.2684V474.394H62.7664ZM67.9458 485.194V478.372C67.9458 478 67.9338 477.622 67.9098 477.238C67.8858 476.854 67.8498 476.476 67.8018 476.104H69.9798L70.1598 477.904H69.9438C70.2318 477.268 70.6578 476.782 71.2218 476.446C71.7858 476.098 72.4398 475.924 73.1838 475.924C74.2518 475.924 75.0558 476.224 75.5958 476.824C76.1358 477.424 76.4058 478.36 76.4058 479.632V485.194H74.1558V479.74C74.1558 479.008 74.0118 478.486 73.7238 478.174C73.4478 477.85 73.0278 477.688 72.4638 477.688C71.7678 477.688 71.2158 477.904 70.8078 478.336C70.3998 478.768 70.1958 479.344 70.1958 480.064V485.194H67.9458ZM83.3635 489.226C82.5235 489.226 81.7615 489.136 81.0775 488.956C80.4055 488.776 79.8055 488.5 79.2775 488.128L79.7635 486.508C80.1115 486.736 80.4715 486.922 80.8435 487.066C81.2155 487.21 81.5995 487.318 81.9955 487.39C82.3915 487.462 82.7935 487.498 83.2015 487.498C84.0415 487.498 84.6655 487.288 85.0735 486.868C85.4935 486.46 85.7035 485.872 85.7035 485.104V482.926H85.8835C85.6915 483.55 85.3015 484.048 84.7135 484.42C84.1375 484.792 83.4715 484.978 82.7155 484.978C81.8995 484.978 81.1855 484.798 80.5735 484.438C79.9735 484.066 79.5055 483.538 79.1695 482.854C78.8335 482.17 78.6655 481.366 78.6655 480.442C78.6655 479.518 78.8335 478.72 79.1695 478.048C79.5055 477.364 79.9735 476.842 80.5735 476.482C81.1855 476.11 81.8995 475.924 82.7155 475.924C83.4835 475.924 84.1495 476.11 84.7135 476.482C85.2895 476.842 85.6735 477.334 85.8655 477.958L85.7035 477.85L85.8835 476.104H88.0615C88.0135 476.476 87.9775 476.854 87.9535 477.238C87.9295 477.622 87.9175 478 87.9175 478.372V484.834C87.9175 486.262 87.5275 487.348 86.7475 488.092C85.9795 488.848 84.8515 489.226 83.3635 489.226ZM83.3275 483.25C84.0475 483.25 84.6175 483.01 85.0375 482.53C85.4695 482.038 85.6855 481.342 85.6855 480.442C85.6855 479.542 85.4695 478.852 85.0375 478.372C84.6175 477.892 84.0475 477.652 83.3275 477.652C82.5955 477.652 82.0135 477.892 81.5815 478.372C81.1495 478.852 80.9335 479.542 80.9335 480.442C80.9335 481.342 81.1495 482.038 81.5815 482.53C82.0135 483.01 82.5955 483.25 83.3275 483.25ZM93.9847 485.374C92.8687 485.374 92.0347 485.068 91.4827 484.456C90.9307 483.844 90.6547 482.908 90.6547 481.648V476.104H92.9047V481.63C92.9047 482.302 93.0427 482.8 93.3187 483.124C93.5947 483.436 94.0147 483.592 94.5787 483.592C95.2147 483.592 95.7307 483.376 96.1267 482.944C96.5347 482.512 96.7387 481.942 96.7387 481.234V476.104H98.9887V485.194H96.7927V483.34H97.0447C96.7807 483.988 96.3787 484.492 95.8387 484.852C95.3107 485.2 94.6927 485.374 93.9847 485.374ZM105.301 485.374C104.509 485.374 103.813 485.188 103.213 484.816C102.613 484.432 102.145 483.886 101.809 483.178C101.473 482.47 101.305 481.624 101.305 480.64C101.305 479.656 101.473 478.816 101.809 478.12C102.145 477.412 102.613 476.872 103.213 476.5C103.813 476.116 104.509 475.924 105.301 475.924C106.069 475.924 106.741 476.116 107.317 476.5C107.905 476.872 108.295 477.376 108.487 478.012H108.289L108.487 476.104H110.647C110.611 476.476 110.575 476.854 110.539 477.238C110.515 477.622 110.503 478 110.503 478.372V485.194H108.271L108.253 483.322H108.469C108.277 483.946 107.887 484.444 107.299 484.816C106.711 485.188 106.045 485.374 105.301 485.374ZM105.931 483.646C106.639 483.646 107.209 483.4 107.641 482.908C108.073 482.404 108.289 481.648 108.289 480.64C108.289 479.632 108.073 478.882 107.641 478.39C107.209 477.898 106.639 477.652 105.931 477.652C105.223 477.652 104.653 477.898 104.221 478.39C103.789 478.882 103.573 479.632 103.573 480.64C103.573 481.648 103.783 482.404 104.203 482.908C104.635 483.4 105.211 483.646 105.931 483.646ZM113.313 485.194V471.946H115.563V485.194H113.313ZM34.4064 508.374C33.3864 508.374 32.4444 508.248 31.5804 507.996C30.7284 507.732 29.9964 507.372 29.3844 506.916L30.1044 505.098C30.5124 505.386 30.9384 505.632 31.3824 505.836C31.8264 506.028 32.3004 506.178 32.8044 506.286C33.3084 506.382 33.8424 506.43 34.4064 506.43C35.3544 506.43 36.0384 506.274 36.4584 505.962C36.8784 505.65 37.0884 505.242 37.0884 504.738C37.0884 504.294 36.9444 503.958 36.6564 503.73C36.3684 503.49 35.8524 503.292 35.1084 503.136L33.0744 502.722C31.9104 502.482 31.0404 502.08 30.4644 501.516C29.8884 500.952 29.6004 500.196 29.6004 499.248C29.6004 498.456 29.8104 497.766 30.2304 497.178C30.6504 496.59 31.2384 496.134 31.9944 495.81C32.7504 495.486 33.6324 495.324 34.6404 495.324C35.5404 495.324 36.3744 495.456 37.1424 495.72C37.9104 495.972 38.5524 496.338 39.0684 496.818L38.3484 498.546C37.8324 498.114 37.2684 497.796 36.6564 497.592C36.0444 497.376 35.3604 497.268 34.6044 497.268C33.7524 497.268 33.0864 497.436 32.6064 497.772C32.1384 498.096 31.9044 498.546 31.9044 499.122C31.9044 499.566 32.0484 499.92 32.3364 500.184C32.6364 500.448 33.1404 500.652 33.8484 500.796L35.8644 501.192C37.0644 501.432 37.9524 501.828 38.5284 502.38C39.1044 502.92 39.3924 503.652 39.3924 504.576C39.3924 505.332 39.1884 505.998 38.7804 506.574C38.3724 507.138 37.7964 507.582 37.0524 507.906C36.3084 508.218 35.4264 508.374 34.4064 508.374ZM45.036 508.374C43.92 508.374 43.086 508.068 42.534 507.456C41.982 506.844 41.706 505.908 41.706 504.648V499.104H43.956V504.63C43.956 505.302 44.094 505.8 44.37 506.124C44.646 506.436 45.066 506.592 45.63 506.592C46.266 506.592 46.782 506.376 47.178 505.944C47.586 505.512 47.79 504.942 47.79 504.234V499.104H50.04V508.194H47.844V506.34H48.096C47.832 506.988 47.43 507.492 46.89 507.852C46.362 508.2 45.744 508.374 45.036 508.374ZM52.8426 512.082V501.372C52.8426 501 52.8306 500.622 52.8066 500.238C52.7826 499.854 52.7466 499.476 52.6986 499.104H54.8766L55.0746 501.012H54.8766C55.0566 500.376 55.4346 499.872 56.0106 499.5C56.5986 499.116 57.2766 498.924 58.0446 498.924C58.8486 498.924 59.5506 499.116 60.1506 499.5C60.7506 499.872 61.2186 500.412 61.5546 501.12C61.8906 501.816 62.0586 502.656 62.0586 503.64C62.0586 504.624 61.8906 505.47 61.5546 506.178C61.2186 506.886 60.7506 507.432 60.1506 507.816C59.5506 508.188 58.8486 508.374 58.0446 508.374C57.2886 508.374 56.6226 508.188 56.0466 507.816C55.4706 507.444 55.0866 506.946 54.8946 506.322H55.0926V512.082H52.8426ZM57.4146 506.646C58.1346 506.646 58.7106 506.4 59.1426 505.908C59.5746 505.404 59.7906 504.648 59.7906 503.64C59.7906 502.632 59.5746 501.882 59.1426 501.39C58.7106 500.898 58.1346 500.652 57.4146 500.652C56.7066 500.652 56.1366 500.898 55.7046 501.39C55.2726 501.882 55.0566 502.632 55.0566 503.64C55.0566 504.648 55.2726 505.404 55.7046 505.908C56.1366 506.4 56.7066 506.646 57.4146 506.646ZM64.3647 512.082V501.372C64.3647 501 64.3527 500.622 64.3287 500.238C64.3047 499.854 64.2687 499.476 64.2207 499.104H66.3987L66.5967 501.012H66.3987C66.5787 500.376 66.9567 499.872 67.5327 499.5C68.1207 499.116 68.7987 498.924 69.5667 498.924C70.3707 498.924 71.0727 499.116 71.6727 499.5C72.2727 499.872 72.7407 500.412 73.0767 501.12C73.4127 501.816 73.5807 502.656 73.5807 503.64C73.5807 504.624 73.4127 505.47 73.0767 506.178C72.7407 506.886 72.2727 507.432 71.6727 507.816C71.0727 508.188 70.3707 508.374 69.5667 508.374C68.8107 508.374 68.1447 508.188 67.5687 507.816C66.9927 507.444 66.6087 506.946 66.4167 506.322H66.6147V512.082H64.3647ZM68.9367 506.646C69.6567 506.646 70.2327 506.4 70.6647 505.908C71.0967 505.404 71.3127 504.648 71.3127 503.64C71.3127 502.632 71.0967 501.882 70.6647 501.39C70.2327 500.898 69.6567 500.652 68.9367 500.652C68.2287 500.652 67.6587 500.898 67.2267 501.39C66.7947 501.882 66.5787 502.632 66.5787 503.64C66.5787 504.648 66.7947 505.404 67.2267 505.908C67.6587 506.4 68.2287 506.646 68.9367 506.646ZM79.9909 508.374C79.0549 508.374 78.2449 508.182 77.5609 507.798C76.8769 507.414 76.3429 506.868 75.9589 506.16C75.5869 505.452 75.4009 504.612 75.4009 503.64C75.4009 502.668 75.5869 501.834 75.9589 501.138C76.3429 500.43 76.8769 499.884 77.5609 499.5C78.2449 499.116 79.0549 498.924 79.9909 498.924C80.9269 498.924 81.7369 499.116 82.4209 499.5C83.1169 499.884 83.6509 500.43 84.0229 501.138C84.4069 501.834 84.5989 502.668 84.5989 503.64C84.5989 504.612 84.4069 505.452 84.0229 506.16C83.6509 506.868 83.1169 507.414 82.4209 507.798C81.7369 508.182 80.9269 508.374 79.9909 508.374ZM79.9909 506.646C80.6989 506.646 81.2629 506.4 81.6829 505.908C82.1029 505.404 82.3129 504.648 82.3129 503.64C82.3129 502.632 82.1029 501.882 81.6829 501.39C81.2629 500.898 80.6989 500.652 79.9909 500.652C79.2829 500.652 78.7189 500.898 78.2989 501.39C77.8789 501.882 77.6689 502.632 77.6689 503.64C77.6689 504.648 77.8789 505.404 78.2989 505.908C78.7189 506.4 79.2829 506.646 79.9909 506.646ZM86.8812 508.194V501.426C86.8812 501.042 86.8692 500.652 86.8452 500.256C86.8332 499.86 86.8032 499.476 86.7552 499.104H88.9332L89.1852 501.588H88.8252C88.9452 500.988 89.1432 500.49 89.4192 500.094C89.7072 499.698 90.0552 499.404 90.4632 499.212C90.8712 499.02 91.3152 498.924 91.7952 498.924C92.0112 498.924 92.1852 498.936 92.3172 498.96C92.4492 498.972 92.5812 499.002 92.7132 499.05L92.6952 501.03C92.4672 500.934 92.2692 500.874 92.1012 500.85C91.9452 500.826 91.7472 500.814 91.5072 500.814C90.9912 500.814 90.5532 500.922 90.1932 501.138C89.8452 501.354 89.5812 501.654 89.4012 502.038C89.2332 502.422 89.1492 502.86 89.1492 503.352V508.194H86.8812ZM98.7234 508.374C97.6434 508.374 96.8274 508.092 96.2754 507.528C95.7234 506.964 95.4474 506.118 95.4474 504.99V500.796H93.7014V499.104H95.4474V496.782L97.6974 496.206V499.104H100.127V500.796H97.6974V504.846C97.6974 505.47 97.8174 505.908 98.0574 506.16C98.2974 506.412 98.6274 506.538 99.0474 506.538C99.2754 506.538 99.4674 506.52 99.6234 506.484C99.7914 506.448 99.9534 506.4 100.109 506.34V508.122C99.9054 508.206 99.6774 508.266 99.4254 508.302C99.1854 508.35 98.9514 508.374 98.7234 508.374Z" fill="#222831"/>
<path d="M453.438 212.414C444.46 212.414 437.182 219.696 437.182 228.679C437.182 237.662 444.46 244.944 453.438 244.944C462.416 244.944 469.694 237.662 469.694 228.679C469.694 219.696 462.416 212.414 453.438 212.414Z" fill="#00ADB5"/>
<path d="M453.438 221.05C449.227 221.05 445.813 224.465 445.813 228.679C445.813 232.893 449.227 236.309 453.438 236.309C457.65 236.309 461.064 232.893 461.064 228.679C461.064 224.465 457.65 221.05 453.438 221.05Z" fill="white"/>
<path d="M473.285 18.18C472.265 18.18 471.323 18.054 470.459 17.802C469.607 17.538 468.875 17.178 468.263 16.722L468.983 14.904C469.391 15.192 469.817 15.438 470.261 15.642C470.705 15.834 471.179 15.984 471.683 16.092C472.187 16.188 472.721 16.236 473.285 16.236C474.233 16.236 474.917 16.08 475.337 15.768C475.757 15.456 475.967 15.048 475.967 14.544C475.967 14.1 475.823 13.764 475.535 13.536C475.247 13.296 474.731 13.098 473.987 12.942L471.953 12.528C470.789 12.288 469.919 11.886 469.343 11.322C468.767 10.758 468.479 10.002 468.479 9.054C468.479 8.262 468.689 7.572 469.109 6.984C469.529 6.396 470.117 5.94 470.873 5.616C471.629 5.292 472.511 5.13 473.519 5.13C474.419 5.13 475.253 5.262 476.021 5.526C476.789 5.778 477.431 6.144 477.947 6.624L477.227 8.352C476.711 7.92 476.147 7.602 475.535 7.398C474.923 7.182 474.239 7.074 473.483 7.074C472.631 7.074 471.965 7.242 471.485 7.578C471.017 7.902 470.783 8.352 470.783 8.928C470.783 9.372 470.927 9.726 471.215 9.99C471.515 10.254 472.019 10.458 472.727 10.602L474.743 10.998C475.943 11.238 476.831 11.634 477.407 12.186C477.983 12.726 478.271 13.458 478.271 14.382C478.271 15.138 478.067 15.804 477.659 16.38C477.251 16.944 476.675 17.388 475.931 17.712C475.187 18.024 474.305 18.18 473.285 18.18ZM480.318 22.086L479.796 20.304C480.36 20.184 480.834 20.046 481.218 19.89C481.602 19.734 481.92 19.53 482.172 19.278C482.424 19.026 482.634 18.702 482.802 18.306L483.252 17.244L483.198 18.126L479.238 8.91H481.632L484.476 16.002H483.954L486.816 8.91H489.084L484.944 18.504C484.668 19.152 484.368 19.686 484.044 20.106C483.72 20.538 483.372 20.88 483 21.132C482.628 21.396 482.22 21.6 481.776 21.744C481.332 21.888 480.846 22.002 480.318 22.086ZM490.632 18V11.178C490.632 10.806 490.62 10.428 490.596 10.044C490.572 9.66 490.536 9.282 490.488 8.91H492.666L492.846 10.71H492.63C492.882 10.086 493.266 9.6 493.782 9.252C494.31 8.904 494.934 8.73 495.654 8.73C496.374 8.73 496.968 8.904 497.436 9.252C497.916 9.588 498.252 10.116 498.444 10.836H498.156C498.408 10.188 498.822 9.678 499.398 9.306C499.974 8.922 500.634 8.73 501.378 8.73C502.398 8.73 503.16 9.03 503.664 9.63C504.168 10.23 504.42 11.166 504.42 12.438V18H502.17V12.528C502.17 11.808 502.05 11.292 501.81 10.98C501.57 10.656 501.186 10.494 500.658 10.494C500.034 10.494 499.542 10.716 499.182 11.16C498.822 11.592 498.642 12.18 498.642 12.924V18H496.392V12.528C496.392 11.808 496.272 11.292 496.032 10.98C495.792 10.656 495.408 10.494 494.88 10.494C494.256 10.494 493.764 10.716 493.404 11.16C493.056 11.592 492.882 12.18 492.882 12.924V18H490.632ZM507.181 21.888V11.178C507.181 10.806 507.169 10.428 507.145 10.044C507.121 9.66 507.085 9.282 507.037 8.91H509.215L509.413 10.818H509.215C509.395 10.182 509.773 9.678 510.349 9.306C510.937 8.922 511.615 8.73 512.383 8.73C513.187 8.73 513.889 8.922 514.489 9.306C515.089 9.678 515.557 10.218 515.893 10.926C516.229 11.622 516.397 12.462 516.397 13.446C516.397 14.43 516.229 15.276 515.893 15.984C515.557 16.692 515.089 17.238 514.489 17.622C513.889 17.994 513.187 18.18 512.383 18.18C511.627 18.18 510.961 17.994 510.385 17.622C509.809 17.25 509.425 16.752 509.233 16.128H509.431V21.888H507.181ZM511.753 16.452C512.473 16.452 513.049 16.206 513.481 15.714C513.913 15.21 514.129 14.454 514.129 13.446C514.129 12.438 513.913 11.688 513.481 11.196C513.049 10.704 512.473 10.458 511.753 10.458C511.045 10.458 510.475 10.704 510.043 11.196C509.611 11.688 509.395 12.438 509.395 13.446C509.395 14.454 509.611 15.21 510.043 15.714C510.475 16.206 511.045 16.452 511.753 16.452ZM522.503 18.18C521.423 18.18 520.607 17.898 520.055 17.334C519.503 16.77 519.227 15.924 519.227 14.796V10.602H517.481V8.91H519.227V6.588L521.477 6.012V8.91H523.907V10.602H521.477V14.652C521.477 15.276 521.597 15.714 521.837 15.966C522.077 16.218 522.407 16.344 522.827 16.344C523.055 16.344 523.247 16.326 523.403 16.29C523.571 16.254 523.733 16.206 523.889 16.146V17.928C523.685 18.012 523.457 18.072 523.205 18.108C522.965 18.156 522.731 18.18 522.503 18.18ZM529.812 18.18C528.876 18.18 528.066 17.988 527.382 17.604C526.698 17.22 526.164 16.674 525.78 15.966C525.408 15.258 525.222 14.418 525.222 13.446C525.222 12.474 525.408 11.64 525.78 10.944C526.164 10.236 526.698 9.69 527.382 9.306C528.066 8.922 528.876 8.73 529.812 8.73C530.748 8.73 531.558 8.922 532.242 9.306C532.938 9.69 533.472 10.236 533.844 10.944C534.228 11.64 534.42 12.474 534.42 13.446C534.42 14.418 534.228 15.258 533.844 15.966C533.472 16.674 532.938 17.22 532.242 17.604C531.558 17.988 530.748 18.18 529.812 18.18ZM529.812 16.452C530.52 16.452 531.084 16.206 531.504 15.714C531.924 15.21 532.134 14.454 532.134 13.446C532.134 12.438 531.924 11.688 531.504 11.196C531.084 10.704 530.52 10.458 529.812 10.458C529.104 10.458 528.54 10.704 528.12 11.196C527.7 11.688 527.49 12.438 527.49 13.446C527.49 14.454 527.7 15.21 528.12 15.714C528.54 16.206 529.104 16.452 529.812 16.452ZM536.72 18V11.178C536.72 10.806 536.708 10.428 536.684 10.044C536.66 9.66 536.624 9.282 536.576 8.91H538.754L538.934 10.71H538.718C538.97 10.086 539.354 9.6 539.87 9.252C540.398 8.904 541.022 8.73 541.742 8.73C542.462 8.73 543.056 8.904 543.524 9.252C544.004 9.588 544.34 10.116 544.532 10.836H544.244C544.496 10.188 544.91 9.678 545.486 9.306C546.062 8.922 546.722 8.73 547.466 8.73C548.486 8.73 549.248 9.03 549.752 9.63C550.256 10.23 550.508 11.166 550.508 12.438V18H548.258V12.528C548.258 11.808 548.138 11.292 547.898 10.98C547.658 10.656 547.274 10.494 546.746 10.494C546.122 10.494 545.63 10.716 545.27 11.16C544.91 11.592 544.73 12.18 544.73 12.924V18H542.48V12.528C542.48 11.808 542.36 11.292 542.12 10.98C541.88 10.656 541.496 10.494 540.968 10.494C540.344 10.494 539.852 10.716 539.492 11.16C539.144 11.592 538.97 12.18 538.97 12.924V18H536.72ZM465.522 41V28.31H474.072V30.128H467.754V33.638H473.658V35.474H467.754V39.164H474.072V41H465.522ZM475.003 41L479.233 35.798V36.824L475.237 31.91H477.901L480.511 35.276H479.701L482.311 31.91H484.957L480.997 36.824V35.798L485.209 41H482.527L479.701 37.382H480.511L477.667 41H475.003ZM490.534 41.18C489.454 41.18 488.638 40.898 488.086 40.334C487.534 39.77 487.258 38.924 487.258 37.796V33.602H485.512V31.91H487.258V29.588L489.508 29.012V31.91H491.938V33.602H489.508V37.652C489.508 38.276 489.628 38.714 489.868 38.966C490.108 39.218 490.438 39.344 490.858 39.344C491.086 39.344 491.278 39.326 491.434 39.29C491.602 39.254 491.764 39.206 491.92 39.146V40.928C491.716 41.012 491.488 41.072 491.236 41.108C490.996 41.156 490.762 41.18 490.534 41.18ZM493.809 41V34.232C493.809 33.848 493.797 33.458 493.773 33.062C493.761 32.666 493.731 32.282 493.683 31.91H495.861L496.113 34.394H495.753C495.873 33.794 496.071 33.296 496.347 32.9C496.635 32.504 496.983 32.21 497.391 32.018C497.799 31.826 498.243 31.73 498.723 31.73C498.939 31.73 499.113 31.742 499.245 31.766C499.377 31.778 499.509 31.808 499.641 31.856L499.623 33.836C499.395 33.74 499.197 33.68 499.029 33.656C498.873 33.632 498.675 33.62 498.435 33.62C497.919 33.62 497.481 33.728 497.121 33.944C496.773 34.16 496.509 34.46 496.329 34.844C496.161 35.228 496.077 35.666 496.077 36.158V41H493.809ZM504.675 41.18C503.883 41.18 503.187 40.994 502.587 40.622C501.987 40.238 501.519 39.692 501.183 38.984C500.847 38.276 500.679 37.43 500.679 36.446C500.679 35.462 500.847 34.622 501.183 33.926C501.519 33.218 501.987 32.678 502.587 32.306C503.187 31.922 503.883 31.73 504.675 31.73C505.443 31.73 506.115 31.922 506.691 32.306C507.279 32.678 507.669 33.182 507.861 33.818H507.663L507.861 31.91H510.021C509.985 32.282 509.949 32.66 509.913 33.044C509.889 33.428 509.877 33.806 509.877 34.178V41H507.645L507.627 39.128H507.843C507.651 39.752 507.261 40.25 506.673 40.622C506.085 40.994 505.419 41.18 504.675 41.18ZM505.305 39.452C506.013 39.452 506.583 39.206 507.015 38.714C507.447 38.21 507.663 37.454 507.663 36.446C507.663 35.438 507.447 34.688 507.015 34.196C506.583 33.704 506.013 33.458 505.305 33.458C504.597 33.458 504.027 33.704 503.595 34.196C503.163 34.688 502.947 35.438 502.947 36.446C502.947 37.454 503.157 38.21 503.577 38.714C504.009 39.206 504.585 39.452 505.305 39.452ZM516.863 41.18C515.927 41.18 515.105 40.988 514.397 40.604C513.701 40.22 513.161 39.674 512.777 38.966C512.393 38.246 512.201 37.394 512.201 36.41C512.201 35.426 512.393 34.586 512.777 33.89C513.173 33.194 513.719 32.66 514.415 32.288C515.111 31.916 515.927 31.73 516.863 31.73C517.463 31.73 518.045 31.826 518.609 32.018C519.185 32.198 519.653 32.462 520.013 32.81L519.329 34.376C519.005 34.076 518.639 33.854 518.231 33.71C517.835 33.554 517.445 33.476 517.061 33.476C516.257 33.476 515.627 33.728 515.171 34.232C514.727 34.736 514.505 35.468 514.505 36.428C514.505 37.388 514.727 38.126 515.171 38.642C515.627 39.158 516.257 39.416 517.061 39.416C517.433 39.416 517.817 39.344 518.213 39.2C518.621 39.056 518.993 38.834 519.329 38.534L520.013 40.082C519.641 40.43 519.167 40.7 518.591 40.892C518.027 41.084 517.451 41.18 516.863 41.18ZM526.041 41.18C524.961 41.18 524.145 40.898 523.593 40.334C523.041 39.77 522.765 38.924 522.765 37.796V33.602H521.019V31.91H522.765V29.588L525.015 29.012V31.91H527.445V33.602H525.015V37.652C525.015 38.276 525.135 38.714 525.375 38.966C525.615 39.218 525.945 39.344 526.365 39.344C526.593 39.344 526.785 39.326 526.941 39.29C527.109 39.254 527.271 39.206 527.427 39.146V40.928C527.223 41.012 526.995 41.072 526.743 41.108C526.503 41.156 526.269 41.18 526.041 41.18ZM529.333 41V31.91H531.583V41H529.333ZM529.207 30.2V28.004H531.709V30.2H529.207ZM538.49 41.18C537.554 41.18 536.744 40.988 536.06 40.604C535.376 40.22 534.842 39.674 534.458 38.966C534.086 38.258 533.9 37.418 533.9 36.446C533.9 35.474 534.086 34.64 534.458 33.944C534.842 33.236 535.376 32.69 536.06 32.306C536.744 31.922 537.554 31.73 538.49 31.73C539.426 31.73 540.236 31.922 540.92 32.306C541.616 32.69 542.15 33.236 542.522 33.944C542.906 34.64 543.098 35.474 543.098 36.446C543.098 37.418 542.906 38.258 542.522 38.966C542.15 39.674 541.616 40.22 540.92 40.604C540.236 40.988 539.426 41.18 538.49 41.18ZM538.49 39.452C539.198 39.452 539.762 39.206 540.182 38.714C540.602 38.21 540.812 37.454 540.812 36.446C540.812 35.438 540.602 34.688 540.182 34.196C539.762 33.704 539.198 33.458 538.49 33.458C537.782 33.458 537.218 33.704 536.798 34.196C536.378 34.688 536.168 35.438 536.168 36.446C536.168 37.454 536.378 38.21 536.798 38.714C537.218 39.206 537.782 39.452 538.49 39.452ZM545.399 41V34.178C545.399 33.806 545.387 33.428 545.363 33.044C545.339 32.66 545.303 32.282 545.255 31.91H547.433L547.613 33.71H547.397C547.685 33.074 548.111 32.588 548.675 32.252C549.239 31.904 549.893 31.73 550.637 31.73C551.705 31.73 552.509 32.03 553.049 32.63C553.589 33.23 553.859 34.166 553.859 35.438V41H551.609V35.546C551.609 34.814 551.465 34.292 551.177 33.98C550.901 33.656 550.481 33.494 549.917 33.494C549.221 33.494 548.669 33.71 548.261 34.142C547.853 34.574 547.649 35.15 547.649 35.87V41H545.399Z" fill="#222831"/>
<path d="M467.034 206.163L487.005 192.411C508.772 198.99 533.36 193.794 550.724 176.724C576.056 151.82 576.414 111.086 551.524 85.7401C526.635 60.394 485.923 60.0353 460.591 84.9389C435.259 109.842 434.9 150.577 459.79 175.923C462.22 178.397 464.804 180.624 467.506 182.622L467.034 206.163Z" fill="#E3F5FF"/>
<path d="M504.848 85.6468C479.912 85.6468 459.697 105.873 459.697 130.823C459.697 155.774 479.912 176 504.848 176C529.785 176 550 155.774 550 130.823C550 105.873 529.785 85.6468 504.848 85.6468Z" fill="white"/>
<path fill-rule="evenodd" clip-rule="evenodd" d="M510.455 111.818C512.011 111.819 513.273 113.08 513.273 114.637V115.454H515.908C517.138 115.454 518.318 115.943 519.188 116.812C520.057 117.682 520.545 118.861 520.545 120.091V145.545C520.545 146.774 520.057 147.954 519.188 148.823C518.318 149.693 517.138 150.182 515.908 150.182H494.091C492.861 150.181 491.682 149.692 490.812 148.823C489.943 147.954 489.454 146.774 489.454 145.545V120.091C489.454 118.861 489.943 117.682 490.812 116.812C491.682 115.943 492.861 115.454 494.091 115.454H496.728V114.637C496.728 113.08 497.989 111.818 499.546 111.818H510.455ZM494.091 117.454C493.392 117.454 492.721 117.732 492.227 118.227C491.732 118.721 491.454 119.392 491.454 120.091V145.545C491.454 146.244 491.732 146.915 492.227 147.409C492.721 147.903 493.392 148.181 494.091 148.182H515.908C516.607 148.182 517.278 147.903 517.772 147.409C518.267 146.915 518.545 146.244 518.545 145.545V120.091C518.545 119.392 518.267 118.721 517.772 118.227C517.278 117.732 516.607 117.454 515.908 117.454H513.273V118.272C513.273 119.829 512.011 121.09 510.455 121.091H499.546C497.99 121.091 496.728 119.829 496.728 118.272V117.454H494.091ZM505 128.182C505.552 128.182 506 128.629 506 129.182V133.637H510.455C511.007 133.637 511.455 134.085 511.455 134.637C511.455 135.189 511.007 135.636 510.455 135.637H506V140.091C506 140.643 505.552 141.091 505 141.091C504.448 141.091 504 140.643 504 140.091V135.637H499.546C498.994 135.637 498.546 135.189 498.546 134.637C498.546 134.084 498.994 133.637 499.546 133.637H504V129.182C504 128.629 504.448 128.182 505 128.182ZM499.546 113.818C499.094 113.818 498.728 114.185 498.728 114.637V118.272C498.728 118.724 499.094 119.091 499.546 119.091H510.455C510.907 119.09 511.273 118.724 511.273 118.272V116.471C511.273 116.465 511.272 116.459 511.272 116.454C511.272 116.448 511.273 116.442 511.273 116.436V114.637C511.273 114.185 510.907 113.819 510.455 113.818H499.546Z" fill="#00ADB5"/>
<path d="M453.438 525.873C444.46 525.873 437.182 518.591 437.182 509.608C437.182 500.625 444.46 493.343 453.438 493.343C462.416 493.343 469.694 500.625 469.694 509.608C469.694 518.591 462.416 525.873 453.438 525.873Z" fill="#00ADB5"/>
<path d="M453.438 517.237C449.227 517.237 445.813 513.821 445.813 509.608C445.813 505.394 449.227 501.978 453.438 501.978C457.65 501.978 461.064 505.394 461.064 509.608C461.064 513.821 457.65 517.237 453.438 517.237Z" fill="white"/>
<path d="M480.529 702.157C479.209 702.157 478.075 701.893 477.127 701.365C476.191 700.825 475.471 700.069 474.967 699.097C474.463 698.113 474.211 696.955 474.211 695.623C474.211 694.291 474.463 693.139 474.967 692.167C475.471 691.195 476.191 690.445 477.127 689.917C478.075 689.377 479.209 689.107 480.529 689.107C481.417 689.107 482.215 689.233 482.923 689.485C483.643 689.737 484.261 690.109 484.777 690.601L484.021 692.437C483.457 691.981 482.911 691.657 482.383 691.465C481.867 691.261 481.273 691.159 480.601 691.159C479.317 691.159 478.333 691.549 477.649 692.329C476.977 693.097 476.641 694.195 476.641 695.623C476.641 697.051 476.977 698.155 477.649 698.935C478.333 699.715 479.317 700.105 480.601 700.105C481.273 700.105 481.867 700.009 482.383 699.817C482.911 699.613 483.457 699.277 484.021 698.809L484.777 700.645C484.261 701.125 483.643 701.497 482.923 701.761C482.215 702.025 481.417 702.157 480.529 702.157ZM487.128 701.977V688.729H489.378V701.977H487.128ZM492.181 701.977V692.887H494.431V701.977H492.181ZM492.055 691.177V688.981H494.557V691.177H492.055ZM497.234 701.977V695.155C497.234 694.783 497.222 694.405 497.198 694.021C497.174 693.637 497.138 693.259 497.09 692.887H499.268L499.448 694.687H499.232C499.52 694.051 499.946 693.565 500.51 693.229C501.074 692.881 501.728 692.707 502.472 692.707C503.54 692.707 504.344 693.007 504.884 693.607C505.424 694.207 505.694 695.143 505.694 696.415V701.977H503.444V696.523C503.444 695.791 503.3 695.269 503.012 694.957C502.736 694.633 502.316 694.471 501.752 694.471C501.056 694.471 500.504 694.687 500.096 695.119C499.688 695.551 499.484 696.127 499.484 696.847V701.977H497.234ZM508.44 701.977V692.887H510.69V701.977H508.44ZM508.314 691.177V688.981H510.816V691.177H508.314ZM517.669 702.157C516.733 702.157 515.911 701.965 515.203 701.581C514.507 701.197 513.967 700.651 513.583 699.943C513.199 699.223 513.007 698.371 513.007 697.387C513.007 696.403 513.199 695.563 513.583 694.867C513.979 694.171 514.525 693.637 515.221 693.265C515.917 692.893 516.733 692.707 517.669 692.707C518.269 692.707 518.851 692.803 519.415 692.995C519.991 693.175 520.459 693.439 520.819 693.787L520.135 695.353C519.811 695.053 519.445 694.831 519.037 694.687C518.641 694.531 518.251 694.453 517.867 694.453C517.063 694.453 516.433 694.705 515.977 695.209C515.533 695.713 515.311 696.445 515.311 697.405C515.311 698.365 515.533 699.103 515.977 699.619C516.433 700.135 517.063 700.393 517.867 700.393C518.239 700.393 518.623 700.321 519.019 700.177C519.427 700.033 519.799 699.811 520.135 699.511L520.819 701.059C520.447 701.407 519.973 701.677 519.397 701.869C518.833 702.061 518.257 702.157 517.669 702.157ZM526.381 702.157C525.589 702.157 524.893 701.971 524.293 701.599C523.693 701.215 523.225 700.669 522.889 699.961C522.553 699.253 522.385 698.407 522.385 697.423C522.385 696.439 522.553 695.599 522.889 694.903C523.225 694.195 523.693 693.655 524.293 693.283C524.893 692.899 525.589 692.707 526.381 692.707C527.149 692.707 527.821 692.899 528.397 693.283C528.985 693.655 529.375 694.159 529.567 694.795H529.369L529.567 692.887H531.727C531.691 693.259 531.655 693.637 531.619 694.021C531.595 694.405 531.583 694.783 531.583 695.155V701.977H529.351L529.333 700.105H529.549C529.357 700.729 528.967 701.227 528.379 701.599C527.791 701.971 527.125 702.157 526.381 702.157ZM527.011 700.429C527.719 700.429 528.289 700.183 528.721 699.691C529.153 699.187 529.369 698.431 529.369 697.423C529.369 696.415 529.153 695.665 528.721 695.173C528.289 694.681 527.719 694.435 527.011 694.435C526.303 694.435 525.733 694.681 525.301 695.173C524.869 695.665 524.653 696.415 524.653 697.423C524.653 698.431 524.863 699.187 525.283 699.691C525.715 700.183 526.291 700.429 527.011 700.429ZM534.393 701.977V688.729H536.643V701.977H534.393ZM464.38 724.977L470.122 712.287H472.066L477.88 724.977H475.522L473.974 721.413L474.91 722.043H467.296L468.268 721.413L466.72 724.977H464.38ZM471.076 714.771L468.538 720.783L468.07 720.225H474.118L473.74 720.783L471.148 714.771H471.076ZM479.464 724.977V718.155C479.464 717.783 479.452 717.405 479.428 717.021C479.404 716.637 479.368 716.259 479.32 715.887H481.498L481.678 717.687H481.462C481.75 717.051 482.176 716.565 482.74 716.229C483.304 715.881 483.958 715.707 484.702 715.707C485.77 715.707 486.574 716.007 487.114 716.607C487.654 717.207 487.924 718.143 487.924 719.415V724.977H485.674V719.523C485.674 718.791 485.53 718.269 485.242 717.957C484.966 717.633 484.546 717.471 483.982 717.471C483.286 717.471 482.734 717.687 482.326 718.119C481.918 718.551 481.714 719.127 481.714 719.847V724.977H479.464ZM494.179 725.157C493.387 725.157 492.691 724.971 492.091 724.599C491.491 724.215 491.023 723.669 490.687 722.961C490.351 722.253 490.183 721.407 490.183 720.423C490.183 719.439 490.351 718.599 490.687 717.903C491.023 717.195 491.491 716.655 492.091 716.283C492.691 715.899 493.387 715.707 494.179 715.707C494.947 715.707 495.619 715.899 496.195 716.283C496.783 716.655 497.173 717.159 497.365 717.795H497.167L497.365 715.887H499.525C499.489 716.259 499.453 716.637 499.417 717.021C499.393 717.405 499.381 717.783 499.381 718.155V724.977H497.149L497.131 723.105H497.347C497.155 723.729 496.765 724.227 496.177 724.599C495.589 724.971 494.923 725.157 494.179 725.157ZM494.809 723.429C495.517 723.429 496.087 723.183 496.519 722.691C496.951 722.187 497.167 721.431 497.167 720.423C497.167 719.415 496.951 718.665 496.519 718.173C496.087 717.681 495.517 717.435 494.809 717.435C494.101 717.435 493.531 717.681 493.099 718.173C492.667 718.665 492.451 719.415 492.451 720.423C492.451 721.431 492.661 722.187 493.081 722.691C493.513 723.183 494.089 723.429 494.809 723.429ZM502.191 724.977V711.729H504.441V724.977H502.191ZM507.065 729.063L506.543 727.281C507.107 727.161 507.581 727.023 507.965 726.867C508.349 726.711 508.667 726.507 508.919 726.255C509.171 726.003 509.381 725.679 509.549 725.283L509.999 724.221L509.945 725.103L505.985 715.887H508.379L511.223 722.979H510.701L513.563 715.887H515.831L511.691 725.481C511.415 726.129 511.115 726.663 510.791 727.083C510.467 727.515 510.119 727.857 509.747 728.109C509.375 728.373 508.967 728.577 508.523 728.721C508.079 728.865 507.593 728.979 507.065 729.063ZM521.495 725.157C520.415 725.157 519.599 724.875 519.047 724.311C518.495 723.747 518.219 722.901 518.219 721.773V717.579H516.473V715.887H518.219V713.565L520.469 712.989V715.887H522.899V717.579H520.469V721.629C520.469 722.253 520.589 722.691 520.829 722.943C521.069 723.195 521.399 723.321 521.819 723.321C522.047 723.321 522.239 723.303 522.395 723.267C522.563 723.231 522.725 723.183 522.881 723.123V724.905C522.677 724.989 522.449 725.049 522.197 725.085C521.957 725.133 521.723 725.157 521.495 725.157ZM524.787 724.977V715.887H527.037V724.977H524.787ZM524.661 714.177V711.981H527.163V714.177H524.661ZM534.016 725.157C533.08 725.157 532.258 724.965 531.55 724.581C530.854 724.197 530.314 723.651 529.93 722.943C529.546 722.223 529.354 721.371 529.354 720.387C529.354 719.403 529.546 718.563 529.93 717.867C530.326 717.171 530.872 716.637 531.568 716.265C532.264 715.893 533.08 715.707 534.016 715.707C534.616 715.707 535.198 715.803 535.762 715.995C536.338 716.175 536.806 716.439 537.166 716.787L536.482 718.353C536.158 718.053 535.792 717.831 535.384 717.687C534.988 717.531 534.598 717.453 534.214 717.453C533.41 717.453 532.78 717.705 532.324 718.209C531.88 718.713 531.658 719.445 531.658 720.405C531.658 721.365 531.88 722.103 532.324 722.619C532.78 723.135 533.41 723.393 534.214 723.393C534.586 723.393 534.97 723.321 535.366 723.177C535.774 723.033 536.146 722.811 536.482 722.511L537.166 724.059C536.794 724.407 536.32 724.677 535.744 724.869C535.18 725.061 534.604 725.157 534.016 725.157ZM542.511 725.157C541.731 725.157 541.011 725.067 540.351 724.887C539.703 724.695 539.157 724.431 538.713 724.095L539.343 722.583C539.799 722.895 540.303 723.135 540.855 723.303C541.407 723.471 541.965 723.555 542.529 723.555C543.129 723.555 543.573 723.453 543.861 723.249C544.161 723.045 544.311 722.769 544.311 722.421C544.311 722.145 544.215 721.929 544.023 721.773C543.843 721.605 543.549 721.479 543.141 721.395L541.341 721.053C540.573 720.885 539.985 720.597 539.577 720.189C539.181 719.781 538.983 719.247 538.983 718.587C538.983 718.023 539.133 717.525 539.433 717.093C539.745 716.661 540.183 716.325 540.747 716.085C541.323 715.833 541.995 715.707 542.763 715.707C543.435 715.707 544.065 715.797 544.653 715.977C545.253 716.157 545.757 716.427 546.165 716.787L545.517 718.245C545.145 717.945 544.719 717.711 544.239 717.543C543.759 717.375 543.291 717.291 542.835 717.291C542.211 717.291 541.755 717.405 541.467 717.633C541.179 717.849 541.035 718.131 541.035 718.479C541.035 718.743 541.119 718.965 541.287 719.145C541.467 719.313 541.743 719.439 542.115 719.523L543.915 719.865C544.719 720.021 545.325 720.297 545.733 720.693C546.153 721.077 546.363 721.605 546.363 722.277C546.363 722.877 546.201 723.393 545.877 723.825C545.553 724.257 545.103 724.587 544.527 724.815C543.951 725.043 543.279 725.157 542.511 725.157Z" fill="#222831"/>
<path d="M467.325 532.124L487.296 545.876C509.063 539.296 533.65 544.493 551.014 561.563C576.346 586.467 576.705 627.201 551.815 652.547C526.925 677.893 486.213 678.252 460.881 653.348C435.549 628.444 435.191 587.71 460.081 562.364C462.51 559.89 465.095 557.663 467.796 555.664L467.325 532.124Z" fill="#E3F5FF"/>
<path d="M506.152 561.647C531.088 561.647 551.303 581.873 551.303 606.823C551.303 631.774 531.088 652 506.152 652C481.215 652 461 631.774 461 606.823C461 581.873 481.215 561.647 506.152 561.647Z" fill="white"/>
<path fill-rule="evenodd" clip-rule="evenodd" d="M509.539 588.501C510.211 588.505 510.876 588.639 511.497 588.896C512.13 589.159 512.706 589.543 513.189 590.028L519.466 596.306L519.644 596.491C520.048 596.934 520.372 597.445 520.603 598C520.866 598.634 521.001 599.314 521 600V621C521 622.193 520.526 623.338 519.682 624.182C518.838 625.025 517.693 625.5 516.5 625.5H495.5C494.307 625.5 493.162 625.025 492.318 624.182C491.474 623.338 491 622.193 491 621V593C491 591.806 491.474 590.662 492.318 589.818C493.162 588.974 494.307 588.5 495.5 588.5H509.5C509.513 588.5 509.526 588.5 509.539 588.501ZM495.5 590.5C494.837 590.5 494.201 590.764 493.732 591.232C493.264 591.701 493 592.337 493 593V621C493 621.663 493.264 622.299 493.732 622.768C494.201 623.236 494.837 623.5 495.5 623.5H516.5C517.163 623.5 517.799 623.236 518.268 622.768C518.736 622.299 519 621.663 519 621V601H511.25C510.521 601 509.821 600.71 509.306 600.194C508.79 599.679 508.5 598.979 508.5 598.25V590.5H495.5ZM499 614.75C499.552 614.75 500 615.198 500 615.75V617.5C500 618.052 499.552 618.5 499 618.5C498.448 618.5 498 618.052 498 617.5V615.75C498 615.198 498.448 614.75 499 614.75ZM506 606C506.552 606 507 606.448 507 607V617.5C507 618.052 506.552 618.5 506 618.5C505.448 618.5 505 618.052 505 617.5V607C505 606.448 505.448 606 506 606ZM513 611.25C513.552 611.25 514 611.698 514 612.25V617.5C514 618.052 513.552 618.5 513 618.5C512.448 618.5 512 618.052 512 617.5V612.25C512 611.698 512.448 611.25 513 611.25ZM510.5 598.25C510.5 598.449 510.579 598.64 510.72 598.78C510.86 598.921 511.051 599 511.25 599H518.841C518.815 598.921 518.788 598.843 518.756 598.767C518.594 598.376 518.355 598.022 518.056 597.724L511.773 591.441C511.476 591.142 511.121 590.906 510.731 590.744C510.655 590.713 510.578 590.685 510.5 590.659V598.25Z" fill="#00ADB5"/>
<path d="M526.536 379.663C517.558 379.663 510.28 372.381 510.28 363.398C510.28 354.415 517.558 347.133 526.536 347.133C535.514 347.133 542.792 354.415 542.792 363.398C542.792 372.381 535.514 379.663 526.536 379.663Z" fill="#00ADB5"/>
<path d="M518.911 363.398C518.911 367.612 522.325 371.028 526.536 371.028C530.748 371.028 534.162 367.612 534.162 363.398C534.162 359.184 530.748 355.768 526.536 355.768C522.325 355.767 518.911 359.184 518.911 363.398Z" fill="white"/>
<path d="M554.703 362.576L577.904 355.544C586.347 334.421 605.746 318.438 629.911 315.514C665.167 311.248 697.208 336.386 701.476 371.661C705.745 406.937 680.624 438.993 645.369 443.259C610.113 447.525 578.072 422.387 573.804 387.112C573.387 383.668 573.259 380.258 573.384 376.899L554.703 362.576Z" fill="#E3F5FF"/>
<path d="M642.196 424.16C617.436 427.16 594.938 409.515 591.945 384.749C588.951 359.983 606.596 337.475 631.356 334.475C656.116 331.476 678.614 349.121 681.608 373.887C684.601 398.653 666.956 421.161 642.196 424.16Z" fill="white"/>
<path fill-rule="evenodd" clip-rule="evenodd" d="M641.203 360.168C641.824 360.172 642.439 360.295 643.013 360.533C643.598 360.776 644.13 361.133 644.577 361.583L644.576 361.583L650.256 367.262L650.255 367.262C650.703 367.708 651.059 368.239 651.301 368.823C651.543 369.408 651.668 370.034 651.667 370.667L651.666 373.834C651.666 374.386 651.218 374.834 650.666 374.834C650.114 374.834 649.666 374.386 649.666 373.834L649.666 371.667L642.75 371.667C642.065 371.667 641.408 371.394 640.924 370.91C640.44 370.426 640.167 369.769 640.167 369.084L640.167 362.167L628.5 362.167C627.925 362.167 627.374 362.395 626.968 362.802C626.562 363.208 626.333 363.759 626.333 364.334L626.333 389.667C626.333 390.241 626.562 390.793 626.968 391.199C627.374 391.605 627.926 391.834 628.5 391.834L635.387 391.834C635.939 391.834 636.387 392.282 636.387 392.834C636.386 393.386 635.939 393.834 635.387 393.834L628.5 393.834C627.395 393.834 626.335 393.394 625.554 392.613C624.772 391.832 624.333 390.772 624.333 389.667L624.333 364.334C624.333 363.229 624.773 362.169 625.554 361.388C626.335 360.606 627.395 360.167 628.5 360.167L641.167 360.167C641.179 360.167 641.191 360.167 641.203 360.168ZM641.167 388.667C641.719 388.667 642.167 389.115 642.167 389.667C642.167 390.241 642.396 390.793 642.802 391.199C643.208 391.605 643.76 391.834 644.334 391.834C644.886 391.834 645.334 392.282 645.334 392.834C645.334 393.386 644.886 393.834 644.334 393.834C643.229 393.834 642.169 393.394 641.388 392.613C640.606 391.832 640.167 390.772 640.167 389.667C640.167 389.115 640.615 388.667 641.167 388.667ZM653.834 388.667C654.386 388.667 654.834 389.115 654.834 389.667C654.834 390.772 654.395 391.832 653.613 392.613C652.832 393.395 651.772 393.834 650.667 393.834C650.115 393.834 649.667 393.386 649.667 392.834C649.667 392.282 650.115 391.834 650.667 391.834C651.242 391.834 651.793 391.605 652.199 391.199C652.605 390.793 652.834 390.241 652.834 389.667C652.834 389.115 653.282 388.667 653.834 388.667ZM644.334 379.167C644.886 379.167 645.334 379.615 645.334 380.167C645.334 380.719 644.886 381.167 644.334 381.167C643.759 381.167 643.208 381.395 642.802 381.802C642.395 382.208 642.167 382.759 642.167 383.334C642.167 383.886 641.719 384.334 641.167 384.334C640.615 384.334 640.167 383.886 640.167 383.334C640.167 382.229 640.606 381.169 641.388 380.388C642.169 379.606 643.229 379.167 644.334 379.167ZM650.667 379.167C651.772 379.167 652.832 379.606 653.613 380.388C654.394 381.169 654.834 382.229 654.834 383.334C654.834 383.886 654.386 384.334 653.834 384.334C653.282 384.334 652.834 383.886 652.834 383.334C652.834 382.76 652.605 382.208 652.199 381.802C651.793 381.395 651.242 381.167 650.667 381.167C650.115 381.167 649.667 380.719 649.667 380.167C649.667 379.615 650.115 379.167 650.667 379.167ZM642.167 369.084C642.167 369.238 642.229 369.387 642.338 369.496C642.447 369.605 642.596 369.667 642.75 369.667L649.481 369.667C649.472 369.641 649.464 369.614 649.453 369.589C649.312 369.248 649.104 368.938 648.843 368.678L648.842 368.676L643.16 362.995L643.158 362.993C642.898 362.731 642.588 362.523 642.246 362.381C642.22 362.37 642.193 362.361 642.167 362.352L642.167 369.084Z" fill="#00ADB5"/>
<path d="M583.159 475.194V462.504H588.703C590.095 462.504 591.169 462.834 591.925 463.494C592.693 464.154 593.077 465.072 593.077 466.248C593.077 467.028 592.903 467.694 592.555 468.246C592.219 468.798 591.733 469.224 591.097 469.524C590.461 469.812 589.711 469.956 588.847 469.956L589.099 469.614H589.711C590.215 469.614 590.665 469.746 591.061 470.01C591.457 470.274 591.781 470.676 592.033 471.216L593.887 475.194H591.331L589.459 471.072C589.291 470.652 589.033 470.376 588.685 470.244C588.349 470.112 587.941 470.046 587.461 470.046H585.481V475.194H583.159ZM585.481 468.336H588.325C589.141 468.336 589.759 468.168 590.179 467.832C590.611 467.484 590.827 466.98 590.827 466.32C590.827 465.66 590.611 465.162 590.179 464.826C589.759 464.49 589.141 464.322 588.325 464.322H585.481V468.336ZM599.399 475.374C598.607 475.374 597.911 475.188 597.311 474.816C596.711 474.432 596.243 473.886 595.907 473.178C595.571 472.47 595.403 471.624 595.403 470.64C595.403 469.656 595.571 468.816 595.907 468.12C596.243 467.412 596.711 466.872 597.311 466.5C597.911 466.116 598.607 465.924 599.399 465.924C600.167 465.924 600.839 466.116 601.415 466.5C602.003 466.872 602.393 467.376 602.585 468.012H602.387L602.585 466.104H604.745C604.709 466.476 604.673 466.854 604.637 467.238C604.613 467.622 604.601 468 604.601 468.372V475.194H602.369L602.351 473.322H602.567C602.375 473.946 601.985 474.444 601.397 474.816C600.809 475.188 600.143 475.374 599.399 475.374ZM600.029 473.646C600.737 473.646 601.307 473.4 601.739 472.908C602.171 472.404 602.387 471.648 602.387 470.64C602.387 469.632 602.171 468.882 601.739 468.39C601.307 467.898 600.737 467.652 600.029 467.652C599.321 467.652 598.751 467.898 598.319 468.39C597.887 468.882 597.671 469.632 597.671 470.64C597.671 471.648 597.881 472.404 598.301 472.908C598.733 473.4 599.309 473.646 600.029 473.646ZM610.939 475.374C610.147 475.374 609.445 475.188 608.833 474.816C608.233 474.432 607.765 473.886 607.429 473.178C607.093 472.47 606.925 471.624 606.925 470.64C606.925 469.656 607.093 468.816 607.429 468.12C607.765 467.412 608.233 466.872 608.833 466.5C609.445 466.116 610.147 465.924 610.939 465.924C611.695 465.924 612.361 466.11 612.937 466.482C613.525 466.842 613.915 467.334 614.107 467.958H613.873V461.946H616.123V475.194H613.909V473.268H614.125C613.933 473.916 613.543 474.432 612.955 474.816C612.379 475.188 611.707 475.374 610.939 475.374ZM611.569 473.646C612.277 473.646 612.847 473.4 613.279 472.908C613.711 472.404 613.927 471.648 613.927 470.64C613.927 469.632 613.711 468.882 613.279 468.39C612.847 467.898 612.277 467.652 611.569 467.652C610.861 467.652 610.285 467.898 609.841 468.39C609.409 468.882 609.193 469.632 609.193 470.64C609.193 471.648 609.409 472.404 609.841 472.908C610.285 473.4 610.861 473.646 611.569 473.646ZM618.934 475.194V466.104H621.184V475.194H618.934ZM618.808 464.394V462.198H621.31V464.394H618.808ZM628.091 475.374C627.155 475.374 626.345 475.182 625.661 474.798C624.977 474.414 624.443 473.868 624.059 473.16C623.687 472.452 623.501 471.612 623.501 470.64C623.501 469.668 623.687 468.834 624.059 468.138C624.443 467.43 624.977 466.884 625.661 466.5C626.345 466.116 627.155 465.924 628.091 465.924C629.027 465.924 629.837 466.116 630.521 466.5C631.217 466.884 631.751 467.43 632.123 468.138C632.507 468.834 632.699 469.668 632.699 470.64C632.699 471.612 632.507 472.452 632.123 473.16C631.751 473.868 631.217 474.414 630.521 474.798C629.837 475.182 629.027 475.374 628.091 475.374ZM628.091 473.646C628.799 473.646 629.363 473.4 629.783 472.908C630.203 472.404 630.413 471.648 630.413 470.64C630.413 469.632 630.203 468.882 629.783 468.39C629.363 467.898 628.799 467.652 628.091 467.652C627.383 467.652 626.819 467.898 626.399 468.39C625.979 468.882 625.769 469.632 625.769 470.64C625.769 471.648 625.979 472.404 626.399 472.908C626.819 473.4 627.383 473.646 628.091 473.646ZM634.999 475.194V461.946H637.249V475.194H634.999ZM644.157 475.374C643.221 475.374 642.411 475.182 641.727 474.798C641.043 474.414 640.509 473.868 640.125 473.16C639.753 472.452 639.567 471.612 639.567 470.64C639.567 469.668 639.753 468.834 640.125 468.138C640.509 467.43 641.043 466.884 641.727 466.5C642.411 466.116 643.221 465.924 644.157 465.924C645.093 465.924 645.903 466.116 646.587 466.5C647.283 466.884 647.817 467.43 648.189 468.138C648.573 468.834 648.765 469.668 648.765 470.64C648.765 471.612 648.573 472.452 648.189 473.16C647.817 473.868 647.283 474.414 646.587 474.798C645.903 475.182 645.093 475.374 644.157 475.374ZM644.157 473.646C644.865 473.646 645.429 473.4 645.849 472.908C646.269 472.404 646.479 471.648 646.479 470.64C646.479 469.632 646.269 468.882 645.849 468.39C645.429 467.898 644.865 467.652 644.157 467.652C643.449 467.652 642.885 467.898 642.465 468.39C642.045 468.882 641.835 469.632 641.835 470.64C641.835 471.648 642.045 472.404 642.465 472.908C642.885 473.4 643.449 473.646 644.157 473.646ZM655.277 479.226C654.437 479.226 653.675 479.136 652.991 478.956C652.319 478.776 651.719 478.5 651.191 478.128L651.677 476.508C652.025 476.736 652.385 476.922 652.757 477.066C653.129 477.21 653.513 477.318 653.909 477.39C654.305 477.462 654.707 477.498 655.115 477.498C655.955 477.498 656.579 477.288 656.987 476.868C657.407 476.46 657.617 475.872 657.617 475.104V472.926H657.797C657.605 473.55 657.215 474.048 656.627 474.42C656.051 474.792 655.385 474.978 654.629 474.978C653.813 474.978 653.099 474.798 652.487 474.438C651.887 474.066 651.419 473.538 651.083 472.854C650.747 472.17 650.579 471.366 650.579 470.442C650.579 469.518 650.747 468.72 651.083 468.048C651.419 467.364 651.887 466.842 652.487 466.482C653.099 466.11 653.813 465.924 654.629 465.924C655.397 465.924 656.063 466.11 656.627 466.482C657.203 466.842 657.587 467.334 657.779 467.958L657.617 467.85L657.797 466.104H659.975C659.927 466.476 659.891 466.854 659.867 467.238C659.843 467.622 659.831 468 659.831 468.372V474.834C659.831 476.262 659.441 477.348 658.661 478.092C657.893 478.848 656.765 479.226 655.277 479.226ZM655.241 473.25C655.961 473.25 656.531 473.01 656.951 472.53C657.383 472.038 657.599 471.342 657.599 470.442C657.599 469.542 657.383 468.852 656.951 468.372C656.531 467.892 655.961 467.652 655.241 467.652C654.509 467.652 653.927 467.892 653.495 468.372C653.063 468.852 652.847 469.542 652.847 470.442C652.847 471.342 653.063 472.038 653.495 472.53C653.927 473.01 654.509 473.25 655.241 473.25ZM662.442 479.28L661.92 477.498C662.484 477.378 662.958 477.24 663.342 477.084C663.726 476.928 664.044 476.724 664.296 476.472C664.548 476.22 664.758 475.896 664.926 475.5L665.376 474.438L665.322 475.32L661.362 466.104H663.756L666.6 473.196H666.078L668.94 466.104H671.208L667.068 475.698C666.792 476.346 666.492 476.88 666.168 477.3C665.844 477.732 665.496 478.074 665.124 478.326C664.752 478.59 664.344 478.794 663.9 478.938C663.456 479.082 662.97 479.196 662.442 479.28ZM676.831 475.194L682.573 462.504H684.517L690.331 475.194H687.973L686.425 471.63L687.361 472.26H679.747L680.719 471.63L679.171 475.194H676.831ZM683.527 464.988L680.989 471L680.521 470.442H686.569L686.191 471L683.599 464.988H683.527ZM692.095 475.194V462.504H694.417V475.194H692.095Z" fill="#222831"/>
</svg>
