<svg width="30" height="30" viewBox="0 0 30 30" fill="none" xmlns="http://www.w3.org/2000/svg">
<path d="M24.2793 2.06934C26.2957 2.0695 27.9306 3.70432 27.9307 5.7207V24.2793C27.9306 26.2957 26.2957 27.9305 24.2793 27.9307H5.7207C3.7042 27.9307 2.06936 26.2958 2.06934 24.2793V5.7207C2.06938 3.70422 3.70421 2.06934 5.7207 2.06934H24.2793ZM5.7207 4.06934C4.80878 4.06934 4.06938 4.80879 4.06934 5.7207V24.2793C4.06936 25.1912 4.80877 25.9307 5.7207 25.9307H24.2793C25.1911 25.9305 25.9306 25.1911 25.9307 24.2793V5.7207C25.9306 4.80889 25.1911 4.0695 24.2793 4.06934H5.7207ZM15.0107 7.37207C15.5062 7.37846 15.9874 7.54324 16.3828 7.8418C16.7482 8.11788 17.0214 8.49625 17.1729 8.92676L18.1191 10.79H18.1201C18.1434 10.8358 18.1772 10.876 18.2188 10.9062C18.2603 10.9363 18.3087 10.9569 18.3594 10.9648H18.3604L20.4795 11.2959C20.9318 11.318 21.3692 11.4706 21.7363 11.7383C22.1315 12.0265 22.4257 12.4324 22.5771 12.8975C22.7286 13.3627 22.7299 13.8643 22.5801 14.3301C22.4404 14.7639 22.1746 15.1443 21.8203 15.4287L20.3027 16.9424V16.9434C20.2663 16.9797 20.2386 17.0243 20.2227 17.0732C20.2069 17.1217 20.2031 17.1733 20.2109 17.2236L20.543 19.2969C20.6741 19.7364 20.6745 20.2055 20.5391 20.6455C20.3924 21.1217 20.0965 21.5386 19.6953 21.834C19.2939 22.1294 18.807 22.2886 18.3086 22.2871C17.8473 22.2855 17.3987 22.1446 17.0176 21.8877L15.126 20.9199C15.0801 20.8964 15.029 20.8839 14.9775 20.8838C14.926 20.8838 14.875 20.8964 14.8291 20.9199L12.9365 21.8877C12.555 22.1435 12.1065 22.2835 11.6455 22.2842C11.1486 22.2847 10.6639 22.1256 10.2637 21.8311C9.86351 21.5364 9.56801 21.1211 9.4209 20.6465C9.28519 20.2085 9.28333 19.7411 9.41211 19.3027L9.74512 17.2256C9.75306 17.175 9.74922 17.1229 9.7334 17.0742C9.71747 17.0253 9.68972 16.9807 9.65332 16.9443L9.65234 16.9434L8.16602 15.46C7.80438 15.1821 7.53038 14.805 7.38184 14.3721C7.22092 13.9028 7.21373 13.3942 7.3623 12.9209C7.51086 12.4477 7.80694 12.0343 8.20703 11.7412C8.57791 11.4697 9.02092 11.3162 9.47852 11.2959L11.5947 10.9648L11.6689 10.9443C11.6926 10.9346 11.7155 10.9214 11.7363 10.9062C11.7779 10.876 11.8117 10.8358 11.835 10.79L12.8037 8.88184C12.9653 8.45057 13.2513 8.07569 13.627 7.80664C14.0299 7.51814 14.5152 7.36584 15.0107 7.37207ZM14.9854 9.37207C14.916 9.3712 14.8474 9.39226 14.791 9.43262C14.7347 9.47299 14.6934 9.53082 14.6719 9.59668C14.6559 9.6458 14.6357 9.69417 14.6123 9.74023L13.6182 11.6963C13.4514 12.0245 13.209 12.3091 12.9111 12.5254C12.6506 12.7145 12.3536 12.8467 12.04 12.915L11.9043 12.9404L9.73926 13.2803C9.68745 13.2884 9.63447 13.2921 9.58203 13.292C9.51272 13.2919 9.44462 13.3136 9.38867 13.3545C9.33268 13.3955 9.2913 13.4543 9.27051 13.5205C9.24988 13.5866 9.25097 13.6581 9.27344 13.7236C9.2904 13.7728 9.31924 13.8169 9.35645 13.8525L9.39648 13.8857L9.4668 13.9395C9.4895 13.9584 9.51225 13.9781 9.5332 13.999L11.0654 15.5273H11.0645C11.3252 15.7871 11.5208 16.1051 11.6348 16.4551C11.7487 16.8051 11.7786 17.1775 11.7207 17.541V17.542L11.3779 19.6797C11.3686 19.7377 11.3543 19.7951 11.335 19.8506C11.3121 19.9163 11.3114 19.9882 11.332 20.0547C11.3527 20.1209 11.3934 20.1796 11.4492 20.2207C11.5051 20.2617 11.5732 20.2842 11.6426 20.2842C11.712 20.284 11.7801 20.261 11.8359 20.2197C11.8798 20.1873 11.927 20.1586 11.9756 20.1338L13.917 19.1396L14.042 19.0801C14.3363 18.9508 14.6551 18.8838 14.9775 18.8838C15.3462 18.8839 15.71 18.9715 16.0381 19.1396L17.9795 20.1338L18.1221 20.2227C18.1779 20.2641 18.2459 20.2869 18.3154 20.2871C18.3851 20.2873 18.4536 20.2649 18.5098 20.2236C18.5658 20.1823 18.6074 20.1232 18.6279 20.0566C18.6483 19.9902 18.6471 19.9181 18.624 19.8525C18.6042 19.7962 18.5886 19.7377 18.5791 19.6787L18.2363 17.541V17.54C18.1784 17.1765 18.2074 16.8041 18.3213 16.4541C18.4353 16.104 18.6306 15.7852 18.8916 15.5254L20.4453 13.9775L20.5586 13.8799C20.6136 13.8394 20.6548 13.7827 20.6758 13.7178C20.6967 13.6526 20.6969 13.5817 20.6758 13.5166C20.6546 13.4516 20.6128 13.3948 20.5576 13.3545C20.5024 13.3143 20.4355 13.2923 20.3672 13.292C20.317 13.2918 20.2664 13.288 20.2168 13.2803L18.0508 12.9404C17.6872 12.8836 17.3418 12.7415 17.0439 12.5254C16.7834 12.3362 16.5655 12.0944 16.4033 11.8174L16.3369 11.6963L15.3594 9.77148C15.3323 9.71811 15.3101 9.66184 15.293 9.60449C15.2732 9.5382 15.2329 9.47928 15.1777 9.4375C15.1225 9.39578 15.0546 9.37304 14.9854 9.37207Z" fill="#00ADB5"/>
</svg>
