<svg width="30" height="30" viewBox="0 0 30 30" fill="none" xmlns="http://www.w3.org/2000/svg">
<path d="M23.9136 2.85791C24.7698 2.85793 25.5914 3.1978 26.1968 3.80322C26.8021 4.40865 27.1421 5.23028 27.1421 6.08643V23.9136C27.142 24.7696 26.8021 25.5914 26.1968 26.1968C25.5914 26.802 24.7696 27.1421 23.9136 27.1421H6.08643C5.23037 27.142 4.40859 26.8021 3.80322 26.1968C3.19789 25.5914 2.85803 24.7696 2.85791 23.9136V13.8853C2.85803 13.0294 3.19821 12.2083 3.80322 11.603C4.40861 10.9976 5.23029 10.6578 6.08643 10.6577H7.31494V6.08643C7.31494 5.23035 7.65501 4.40863 8.26025 3.80322C8.86563 3.19791 9.68738 2.85798 10.5435 2.85791H23.9136ZM6.08643 12.6577C5.76072 12.6578 5.4476 12.7868 5.21729 13.0171C4.98735 13.2473 4.85803 13.5599 4.85791 13.8853V23.9136C4.85803 24.239 4.98727 24.5515 5.21729 24.7817C5.44759 25.012 5.76076 25.142 6.08643 25.1421C6.41202 25.1421 6.72428 25.0119 6.95459 24.7817C7.18484 24.5515 7.31482 24.2392 7.31494 23.9136V12.6577H6.08643ZM10.5435 4.85791C10.2178 4.85798 9.90462 4.98705 9.67432 5.21729C9.44415 5.44762 9.31494 5.76079 9.31494 6.08643V23.9136C9.31488 24.339 9.2306 24.7562 9.07178 25.1421H23.9136C24.2392 25.1421 24.5514 25.0119 24.7817 24.7817C25.012 24.5515 25.142 24.2392 25.1421 23.9136V6.08643C25.1421 5.76067 25.0121 5.44765 24.7817 5.21729C24.5514 4.98718 24.2392 4.85793 23.9136 4.85791H10.5435ZM18.3433 20.6851C18.8953 20.6853 19.3433 21.1329 19.3433 21.6851C19.3431 22.237 18.8952 22.6848 18.3433 22.6851H12.772C12.2198 22.6851 11.7722 22.2372 11.772 21.6851C11.772 21.1328 12.2197 20.6851 12.772 20.6851H18.3433ZM21.686 16.228C22.238 16.2284 22.686 16.676 22.686 17.228C22.686 17.78 22.238 18.2277 21.686 18.228H12.772C12.2197 18.228 11.772 17.7803 11.772 17.228C11.772 16.6757 12.2197 16.228 12.772 16.228H21.686ZM20.5718 7.31396C21.739 7.3143 22.6858 8.26095 22.686 9.42822V11.6567C22.6859 12.8241 21.7391 13.7707 20.5718 13.771H13.8862C12.7186 13.771 11.7721 12.8243 11.772 11.6567V9.42822C11.7722 8.26074 12.7187 7.31396 13.8862 7.31396H20.5718ZM13.8862 9.31396C13.8233 9.31396 13.7722 9.36531 13.772 9.42822V11.6567C13.7721 11.7197 13.8232 11.771 13.8862 11.771H20.5718C20.6345 11.7707 20.6859 11.7195 20.686 11.6567V9.42822C20.6858 9.36552 20.6344 9.3143 20.5718 9.31396H13.8862Z" fill="#00ADB5"/>
</svg>
