<svg width="30" height="30" viewBox="0 0 30 30" fill="none" xmlns="http://www.w3.org/2000/svg">
<path fill-rule="evenodd" clip-rule="evenodd" d="M19.0262 25.4097C19.5785 25.4097 20.0262 25.8574 20.0262 26.4097C20.0261 26.9619 19.5785 27.4097 19.0262 27.4097H10.9725C10.4204 27.4095 9.97253 26.9618 9.97248 26.4097C9.97248 25.8575 10.4203 25.4098 10.9725 25.4097H19.0262ZM15.0008 2.59033C15.3448 2.59037 15.6859 2.6579 16.0037 2.78955C16.3215 2.92124 16.6101 3.11469 16.8533 3.35791L25.9813 12.4858C26.3771 12.7846 26.6705 13.2003 26.8143 13.6772C26.9702 14.1945 26.9428 14.7503 26.7362 15.2495C26.5293 15.7488 26.1556 16.1618 25.6795 16.4175C25.2412 16.6528 24.7404 16.7395 24.2498 16.6714H20.369C20.2783 16.6715 20.1909 16.7069 20.1268 16.771C20.0627 16.8351 20.0272 16.9225 20.0272 17.0132V19.6978C20.0271 20.3189 19.7798 20.9148 19.3406 21.354C18.9014 21.7932 18.3056 22.0405 17.6844 22.0405H12.3153C11.6941 22.0405 11.0983 21.7932 10.659 21.354C10.2198 20.9148 9.97255 20.3189 9.97248 19.6978V17.0132C9.97244 16.9225 9.93692 16.8351 9.87287 16.771C9.80874 16.7069 9.72138 16.6715 9.63069 16.6714H5.74983C5.25924 16.7395 4.75848 16.6528 4.32014 16.4175C3.84402 16.1619 3.47129 15.7488 3.26448 15.2495C3.05771 14.7502 3.02945 14.1947 3.18537 13.6772C3.32917 13.2003 3.62256 12.7846 4.01838 12.4858L13.1473 3.35791C13.3906 3.11461 13.68 2.92124 13.9979 2.78955C14.3157 2.65791 14.6568 2.59033 15.0008 2.59033ZM15.0008 4.59033C14.9195 4.59033 14.8386 4.60615 14.7635 4.63721C14.6884 4.66834 14.6199 4.7145 14.5623 4.77197L5.38557 13.9468C5.34013 13.9922 5.29043 14.0339 5.23713 14.0698C5.17174 14.1139 5.12323 14.1789 5.10041 14.2544C5.07769 14.33 5.08193 14.4119 5.11213 14.4849C5.14241 14.5575 5.19704 14.6175 5.26643 14.6548C5.33598 14.6921 5.41651 14.705 5.49397 14.6899L5.58869 14.6753C5.62074 14.6722 5.65314 14.6714 5.68537 14.6714H9.63069C10.2518 14.6715 10.8477 14.9177 11.2869 15.3569C11.7261 15.7962 11.9724 16.3921 11.9725 17.0132V19.6978C11.9725 19.7884 12.009 19.8758 12.0731 19.9399C12.1373 20.0041 12.2245 20.0405 12.3153 20.0405H17.6844C17.7751 20.0405 17.8624 20.0041 17.9266 19.9399C17.9907 19.8758 18.0271 19.7884 18.0272 19.6978V17.0132C18.0272 16.3921 18.2736 15.7962 18.7127 15.3569C19.1519 14.9177 19.7479 14.6715 20.369 14.6714H24.3143L24.411 14.6753C24.4428 14.6784 24.4743 14.6838 24.5057 14.6899C24.5831 14.705 24.6637 14.6921 24.7332 14.6548C24.8026 14.6175 24.8572 14.5575 24.8875 14.4849C24.9177 14.4119 24.922 14.33 24.8992 14.2544C24.8764 14.1789 24.8279 14.1139 24.7625 14.0698C24.7092 14.0339 24.6595 13.9922 24.6141 13.9468L15.4393 4.77197C15.3817 4.71442 15.3133 4.66838 15.2381 4.63721C15.1629 4.60607 15.0822 4.59037 15.0008 4.59033Z" fill="#00ADB5"/>
</svg>
