<svg width="30" height="30" viewBox="0 0 30 30" fill="none" xmlns="http://www.w3.org/2000/svg">
<path d="M22.9056 17.1331C23.0803 16.6092 23.6473 16.3266 24.1712 16.5012C24.6949 16.676 24.9776 17.2421 24.8031 17.7659L24.6917 18.0979C25.1901 18.4221 25.6238 18.8366 25.9701 19.3186L26.3724 19.1584C26.8851 18.9535 27.4671 19.2034 27.6722 19.7161C27.8771 20.2287 27.6272 20.8108 27.1146 21.0159L26.7699 21.1526C26.8312 21.4576 26.8645 21.7729 26.8646 22.0959C26.8646 22.3429 26.8442 22.5856 26.808 22.8225L27.0589 22.9065C27.5828 23.0812 27.8664 23.6482 27.6917 24.1721C27.5168 24.6955 26.9507 24.9783 26.4271 24.804L26.0941 24.6926C25.7699 25.1908 25.3553 25.6238 24.8734 25.97L25.0345 26.3723C25.2395 26.8849 24.9903 27.4668 24.4779 27.6721C23.9651 27.8772 23.3832 27.6273 23.1781 27.1145L23.0404 26.7708C22.7351 26.8321 22.4194 26.8645 22.096 26.8645C21.8492 26.8645 21.6062 26.846 21.3695 26.8098L21.2865 27.0598C21.1119 27.5836 20.5457 27.867 20.0218 27.6926C19.498 27.5179 19.2154 26.9518 19.39 26.428L19.5003 26.095C19.0016 25.7705 18.5674 25.3559 18.221 24.8733L17.8197 25.0344C17.307 25.2394 16.725 24.9904 16.5199 24.4778C16.3148 23.965 16.5647 23.3831 17.0775 23.178L17.4212 23.0393C17.3601 22.7345 17.3285 22.4188 17.3285 22.0959C17.3285 21.8489 17.3469 21.6063 17.3831 21.3694L17.1322 21.2864C16.6084 21.1116 16.3257 20.5456 16.5003 20.0217C16.6751 19.4981 17.2412 19.2153 17.765 19.3899L18.097 19.5002C18.4212 19.002 18.8357 18.5681 19.3177 18.2219L19.1576 17.8206C18.9528 17.3079 19.2026 16.7258 19.7152 16.5208C20.2279 16.3159 20.8099 16.5658 21.015 17.0784L21.1527 17.4221C21.4575 17.3609 21.7732 17.3284 22.096 17.3284C22.3427 17.3284 22.585 17.3479 22.8216 17.384L22.9056 17.1331ZM23.3529 2.2561C24.284 2.25631 25.1778 2.626 25.8363 3.28442C26.4947 3.94288 26.8644 4.83666 26.8646 5.76782V12.676C26.8646 13.2282 26.4167 13.6758 25.8646 13.676C25.3123 13.676 24.8646 13.2283 24.8646 12.676V5.76782C24.8644 5.36706 24.7046 4.98188 24.4212 4.69849C24.1379 4.41539 23.7534 4.25631 23.3529 4.2561H19.3285V12.676C19.3285 13.2282 18.8806 13.6758 18.3285 13.676C17.7762 13.676 17.3285 13.2283 17.3285 12.676V4.2561H11.7923V24.8645H12.6761C13.2281 24.8647 13.6759 25.3125 13.6761 25.8645C13.676 26.4166 13.2282 26.8643 12.6761 26.8645H5.76791C4.83661 26.8644 3.94307 26.4947 3.28452 25.8362C2.62601 25.1777 2.25631 24.2841 2.2562 23.3528V5.76782C2.25638 4.83663 2.62605 3.94289 3.28452 3.28442C3.94304 2.62609 4.83675 2.25619 5.76791 2.2561H23.3529ZM5.76791 4.2561C5.36718 4.25619 4.98203 4.41523 4.69858 4.69849C4.41518 4.98188 4.25638 5.36706 4.2562 5.76782V23.3528C4.25631 23.7534 4.41541 24.1377 4.69858 24.4211C4.98207 24.7046 5.36701 24.8644 5.76791 24.8645H9.79233V4.2561H5.76791ZM22.096 19.3284C21.796 19.3284 21.5072 19.3777 21.2367 19.4661C21.1561 19.5347 21.064 19.5925 20.9603 19.634C20.8827 19.6651 20.8032 19.6837 20.724 19.6946C19.8908 20.1715 19.3287 21.0672 19.3285 22.0959C19.3285 22.3963 19.3767 22.6855 19.4652 22.9563C19.5338 23.0369 19.5917 23.129 19.6331 23.2327C19.6639 23.3096 19.6828 23.3885 19.6937 23.467C20.1705 24.3011 21.0667 24.8643 22.096 24.8645C22.3959 24.8645 22.684 24.8151 22.9544 24.7268C23.0352 24.6579 23.1287 24.6004 23.2328 24.5588C23.3104 24.5278 23.3898 24.5081 23.4691 24.4973C24.3017 24.0199 24.8646 23.1243 24.8646 22.0959C24.8645 21.7954 24.8146 21.5065 24.7259 21.2356C24.6579 21.1554 24.6002 21.0642 24.5589 20.9612C24.5277 20.8832 24.5082 20.8035 24.4974 20.7239C24.0202 19.8911 23.1245 19.3285 22.096 19.3284Z" fill="#00ADB5"/>
</svg>
