<svg width="30" height="30" viewBox="0 0 30 30" fill="none" xmlns="http://www.w3.org/2000/svg">
<path d="M23.0991 2.42969C23.6514 2.42969 24.0991 2.87743 24.0991 3.42969C24.0991 3.98197 23.6514 4.42969 23.0991 4.42969H21.7856V8.25684L21.7817 8.4209C21.741 9.23982 21.3974 10.017 20.8149 10.5996L16.4146 15L20.814 19.3994C21.4354 20.0208 21.7855 20.8644 21.7856 21.7432V25.5703H23.0991C23.6514 25.5703 24.0991 26.018 24.0991 26.5703C24.0991 27.1226 23.6514 27.5703 23.0991 27.5703H6.90088C6.34866 27.5703 5.90092 27.1225 5.90088 26.5703C5.90088 26.0181 6.34864 25.5704 6.90088 25.5703H8.21533V21.7432C8.21552 20.8643 8.56449 20.0208 9.18604 19.3994L13.5854 14.999L9.18604 10.5996C8.60346 10.017 8.25993 9.23992 8.21924 8.4209L8.21533 8.25684V4.42969H6.90088C6.34864 4.42963 5.90088 3.98194 5.90088 3.42969C5.90092 2.87747 6.34866 2.42974 6.90088 2.42969H23.0991ZM10.6001 20.8145C10.3538 21.0608 10.2155 21.3948 10.2153 21.7432V25.5703H19.7856V21.7432C19.7855 21.3949 19.647 21.0607 19.4009 20.8145L15.0005 16.4141L10.6001 20.8145ZM10.2153 4.42969V8.25684C10.2155 8.60515 10.3538 8.93925 10.6001 9.18555L15.0005 13.5859L19.4009 9.18555C19.647 8.93927 19.7855 8.60504 19.7856 8.25684V4.42969H10.2153Z" fill="#00ADB5"/>
</svg>
