<svg width="30" height="30" viewBox="0 0 30 30" fill="none" xmlns="http://www.w3.org/2000/svg">
<path d="M24.0996 2.2998C26.0876 2.29988 27.6999 3.9115 27.7002 5.89941V24.0996C27.7002 26.0878 26.0878 27.7001 24.0996 27.7002H5.89941C3.91137 27.7 2.2998 26.0877 2.2998 24.0996V5.89941C2.30012 3.91159 3.91156 2.30002 5.89941 2.2998H24.0996ZM5.89941 4.2998C5.01613 4.30002 4.30012 5.01616 4.2998 5.89941V24.0996C4.2998 24.9831 5.01594 25.7 5.89941 25.7002H24.0996C24.9832 25.7001 25.7002 24.9832 25.7002 24.0996V5.89941C25.6999 5.01607 24.983 4.29988 24.0996 4.2998H5.89941ZM13.791 7.50391C14.2315 7.54449 14.5938 7.86995 14.6807 8.30371L16.6201 18.0049L17.9717 14.6289L18.0381 14.4922C18.2158 14.1904 18.5427 14 18.9004 14H21.5C22.0521 14.0002 22.5 14.4478 22.5 15C22.5 15.5522 22.0521 15.9998 21.5 16H19.5762L17.2285 21.8711C17.0643 22.2817 16.6494 22.5362 16.209 22.4961C15.7684 22.4556 15.4062 22.1301 15.3193 21.6963L13.3789 11.9941L12.0283 15.3711C11.8765 15.7506 11.5084 15.9999 11.0996 16H8.5C7.94772 16 7.5 15.5523 7.5 15C7.5 14.4477 7.94772 14 8.5 14H10.4238L12.7715 8.12891C12.9358 7.71823 13.3505 7.46366 13.791 7.50391Z" fill="#00ADB5"/>
</svg>
