<svg width="139" height="50" viewBox="0 0 139 50" fill="none" xmlns="http://www.w3.org/2000/svg">
<path d="M-1.63913e-07 34L7.92 17.08H11.52L19.488 34H15.048L13.008 29.344L14.712 30.568H4.776L6.456 29.344L4.44 34H-1.63913e-07ZM9.696 21.64L6.888 28.336L6.216 27.208H13.248L12.648 28.336L9.816 21.64H9.696ZM20.7733 34V17.08H28.7653C30.7173 17.08 32.2213 17.544 33.2773 18.472C34.3493 19.4 34.8853 20.688 34.8853 22.336C34.8853 23.44 34.6453 24.384 34.1653 25.168C33.6853 25.936 32.9893 26.536 32.0773 26.968C31.1653 27.384 30.0773 27.592 28.8133 27.592L29.0293 26.992H30.2293C30.9333 26.992 31.5573 27.184 32.1013 27.568C32.6453 27.952 33.0933 28.488 33.4453 29.176L36.0133 34H31.1653L28.4053 28.6C28.2293 28.248 27.9653 28.008 27.6133 27.88C27.2773 27.752 26.8933 27.688 26.4613 27.688H25.2133V34H20.7733ZM25.2133 24.544H27.9973C28.8613 24.544 29.5173 24.376 29.9653 24.04C30.4133 23.688 30.6373 23.168 30.6373 22.48C30.6373 21.808 30.4133 21.304 29.9653 20.968C29.5173 20.632 28.8613 20.464 27.9973 20.464H25.2133V24.544ZM37.5495 25.528C37.5495 23.768 37.8935 22.24 38.5815 20.944C39.2695 19.632 40.2535 18.616 41.5335 17.896C42.8135 17.176 44.3255 16.816 46.0695 16.816C47.8295 16.816 49.3495 17.176 50.6295 17.896C51.9095 18.616 52.8935 19.632 53.5815 20.944C54.2855 22.24 54.6375 23.768 54.6375 25.528C54.6375 27.272 54.2855 28.8 53.5815 30.112C52.8935 31.424 51.9095 32.448 50.6295 33.184C49.3495 33.904 47.8295 34.264 46.0695 34.264C44.3255 34.264 42.8135 33.904 41.5335 33.184C40.2695 32.448 39.2855 31.424 38.5815 30.112C37.8935 28.8 37.5495 27.272 37.5495 25.528ZM42.1815 25.528C42.1815 27.112 42.5015 28.352 43.1415 29.248C43.7815 30.128 44.7575 30.568 46.0695 30.568C47.3815 30.568 48.3655 30.128 49.0215 29.248C49.6775 28.352 50.0055 27.112 50.0055 25.528C50.0055 23.944 49.6775 22.712 49.0215 21.832C48.3655 20.952 47.3815 20.512 46.0695 20.512C44.7575 20.512 43.7815 20.952 43.1415 21.832C42.5015 22.696 42.1815 23.928 42.1815 25.528ZM66.1746 34.264C64.2066 34.264 62.5426 33.904 61.1826 33.184C59.8386 32.464 58.8146 31.456 58.1106 30.16C57.4226 28.864 57.0786 27.352 57.0786 25.624C57.0786 23.832 57.4546 22.28 58.2066 20.968C58.9746 19.64 60.0706 18.616 61.4946 17.896C62.9186 17.176 64.6306 16.816 66.6306 16.816C67.8626 16.816 68.9506 16.96 69.8946 17.248C70.8546 17.536 71.6786 17.952 72.3666 18.496L70.9986 21.88C70.5026 21.544 70.0306 21.288 69.5826 21.112C69.1506 20.92 68.7026 20.784 68.2386 20.704C67.7906 20.624 67.2706 20.584 66.6786 20.584C65.0146 20.584 63.7666 21.016 62.9346 21.88C62.1186 22.728 61.7106 23.976 61.7106 25.624C61.7106 27.256 62.0866 28.488 62.8386 29.32C63.5906 30.152 64.7826 30.568 66.4146 30.568C66.9106 30.568 67.4466 30.52 68.0226 30.424C68.6146 30.328 69.2146 30.184 69.8226 29.992L69.0306 31.576V27.544H65.5266V24.472H72.6546V32.944C71.7426 33.376 70.7186 33.704 69.5826 33.928C68.4626 34.152 67.3266 34.264 66.1746 34.264ZM79.527 34V25.912L80.415 28.36L72.831 17.08H77.943L82.239 23.872H81.375L85.671 17.08H90.615L83.079 28.36L83.967 25.912V34H79.527ZM87.7547 34L95.6747 17.08H99.2747L107.243 34H102.803L100.763 29.344L102.467 30.568H92.5307L94.2107 29.344L92.1947 34H87.7547ZM97.4507 21.64L94.6427 28.336L93.9707 27.208H101.003L100.403 28.336L97.5707 21.64H97.4507ZM113.898 34L121.362 17.08H123.09L130.674 34H128.61L126.498 29.176L127.386 29.68H117.042L118.002 29.176L115.938 34H113.898ZM122.202 19.36L118.314 28.48L117.738 28.048H126.666L126.234 28.48L122.25 19.36H122.202ZM133.466 34V17.08H135.458V34H133.466Z" fill="#222831"/>
</svg>
