<svg width="30" height="30" viewBox="0 0 30 30" fill="none" xmlns="http://www.w3.org/2000/svg">
<path d="M20.5454 13.4961C21.0214 13.5022 21.4838 13.6604 21.8637 13.9473C22.2126 14.2108 22.4744 14.5712 22.6206 14.9814L23.5014 16.7168L23.5317 16.7627C23.5436 16.7766 23.5578 16.789 23.5727 16.7998C23.6027 16.8215 23.6378 16.8361 23.6743 16.8418L25.6411 17.1504C26.0754 17.1718 26.4955 17.3181 26.8481 17.5752C27.2277 17.8521 27.5112 18.2417 27.6567 18.6885C27.8021 19.1353 27.8025 19.6171 27.6586 20.0645C27.5252 20.4793 27.2719 20.8443 26.934 21.1172L25.5219 22.5254H25.521C25.4947 22.5515 25.4748 22.5839 25.4633 22.6191C25.4519 22.6544 25.4497 22.6919 25.4555 22.7285H25.4545L25.7641 24.6523C25.889 25.0737 25.8881 25.5237 25.7583 25.9453C25.6173 26.4027 25.3331 26.8032 24.9477 27.0869C24.5621 27.3707 24.0945 27.5229 23.6157 27.5215C23.1743 27.52 22.7446 27.3865 22.3793 27.1416L20.6215 26.2412H20.6206C20.5877 26.2244 20.551 26.2149 20.5141 26.2148C20.4772 26.2148 20.4406 26.2245 20.4077 26.2412H20.4067L18.646 27.1426C18.2808 27.3857 17.8519 27.5179 17.4116 27.5186C16.9343 27.5191 16.4688 27.3668 16.0844 27.084C15.6999 26.8009 15.4162 26.4014 15.2749 25.9453C15.145 25.526 15.1427 25.079 15.2651 24.6592L15.5737 22.7295C15.5794 22.693 15.5773 22.6552 15.5659 22.6201C15.5545 22.5852 15.5342 22.5534 15.5083 22.5273L15.5073 22.5264L14.1235 21.1455C13.7792 20.8791 13.5183 20.5188 13.3764 20.1055C13.2218 19.6546 13.2151 19.1657 13.3579 18.7109C13.5006 18.2565 13.7851 17.8596 14.1694 17.5781C14.5258 17.3173 14.9514 17.1688 15.3911 17.1494L17.354 16.8418L17.4067 16.8271C17.4237 16.8201 17.4405 16.8107 17.4555 16.7998C17.4853 16.7781 17.5101 16.7497 17.5268 16.7168L18.4282 14.9424C18.5837 14.5301 18.8568 14.1716 19.2163 13.9141C19.6034 13.6369 20.0693 13.4901 20.5454 13.4961ZM9.40572 17.29C9.95774 17.2902 10.4055 17.7381 10.4057 18.29C10.4057 18.8422 9.95789 19.2899 9.40572 19.29H8.17134C7.12721 19.29 6.12553 19.7051 5.38716 20.4434C4.64888 21.1816 4.23397 22.1835 4.23384 23.2275V25.6963C4.23372 26.2485 3.78603 26.6963 3.23384 26.6963C2.68163 26.6963 2.23397 26.2485 2.23384 25.6963V23.2275C2.23397 21.653 2.85974 20.1427 3.9731 19.0293C5.08654 17.916 6.59678 17.29 8.17134 17.29H9.40572ZM20.52 15.4961C20.4704 15.4956 20.4217 15.5112 20.3813 15.54C20.3407 15.5691 20.3099 15.6108 20.2944 15.6582C20.2784 15.7071 20.2591 15.755 20.2358 15.8008L19.31 17.623C19.1498 17.9383 18.9164 18.2112 18.6303 18.4189C18.3442 18.6266 18.0119 18.7627 17.6626 18.8174L15.6479 19.1338C15.5961 19.1419 15.5431 19.1466 15.4907 19.1465C15.4408 19.1464 15.3913 19.162 15.351 19.1914C15.3108 19.2209 15.281 19.263 15.2661 19.3105C15.2512 19.358 15.252 19.409 15.268 19.4561C15.2761 19.4796 15.2883 19.5019 15.3032 19.5215L15.3559 19.5732L15.4272 19.627C15.4499 19.6459 15.4717 19.6666 15.4926 19.6875L16.9184 21.1094C17.1689 21.3589 17.3577 21.6648 17.4672 22.001C17.563 22.2952 17.5963 22.6061 17.5659 22.9131L17.5493 23.0449L17.2309 25.0361C17.2216 25.0942 17.2073 25.1515 17.1879 25.207C17.1715 25.2543 17.1702 25.3057 17.185 25.3535C17.1998 25.4012 17.2298 25.443 17.27 25.4727C17.3101 25.5021 17.3589 25.5185 17.4086 25.5186C17.4586 25.5184 17.5082 25.5023 17.5483 25.4727L17.687 25.3867L19.4956 24.4609C19.8107 24.2996 20.1601 24.2148 20.5141 24.2148C20.8682 24.2149 21.2176 24.2995 21.5327 24.4609L23.3413 25.3867L23.4829 25.4746C23.5231 25.5045 23.5724 25.5213 23.6225 25.5215C23.6725 25.5215 23.7219 25.5052 23.7622 25.4756C23.8023 25.4459 23.8324 25.4041 23.8471 25.3564C23.8619 25.3085 23.8608 25.2563 23.8442 25.209C23.8243 25.1526 23.8097 25.0942 23.8002 25.0352L23.4799 23.0449V23.043C23.4243 22.6937 23.4525 22.3363 23.562 22C23.6715 21.6637 23.8592 21.3579 24.1098 21.1084L25.5561 19.667L25.6704 19.5693C25.7099 19.5402 25.7393 19.4989 25.7543 19.4521C25.7694 19.4053 25.7695 19.3544 25.7543 19.3076C25.7391 19.261 25.709 19.2204 25.6694 19.1914C25.6297 19.1625 25.5818 19.1468 25.5327 19.1465C25.4823 19.1463 25.4311 19.1416 25.3813 19.1338L23.3647 18.8184C23.0155 18.7637 22.684 18.6265 22.3979 18.4189C22.1117 18.2112 21.8785 17.9383 21.7182 17.623V17.6221L20.8081 15.8301C20.781 15.7767 20.7588 15.7204 20.7417 15.6631C20.7274 15.6155 20.6982 15.573 20.6586 15.543C20.6189 15.5131 20.5697 15.4968 20.52 15.4961ZM11.8745 2.47852C15.1534 2.47868 17.812 5.13701 17.812 8.41602C17.8119 11.6949 15.1534 14.3533 11.8745 14.3535C8.59542 14.3535 5.93707 11.695 5.93697 8.41602C5.93697 5.13691 8.59536 2.47852 11.8745 2.47852ZM11.8745 4.47852C9.69993 4.47852 7.93697 6.24148 7.93697 8.41602C7.93707 10.5905 9.69999 12.3535 11.8745 12.3535C14.0488 12.3533 15.8119 10.5904 15.812 8.41602C15.812 6.24158 14.0489 4.47868 11.8745 4.47852Z" fill="#00ADB5"/>
</svg>
