<svg width="30" height="30" viewBox="0 0 30 30" fill="none" xmlns="http://www.w3.org/2000/svg">
<path d="M6.47705 16.2725C7.02925 16.2725 7.47691 16.7203 7.47705 17.2725C7.47705 17.8247 7.02934 18.2725 6.47705 18.2725H5.90869C5.57132 18.2726 5.24786 18.407 5.00928 18.6455C4.77072 18.8841 4.63637 19.2076 4.63623 19.5449V24.0908C4.63628 24.4282 4.77079 24.7516 5.00928 24.9902C5.24787 25.2288 5.57129 25.3632 5.90869 25.3633H24.0903C24.4279 25.3633 24.752 25.2289 24.9907 24.9902C25.2292 24.7516 25.3637 24.4282 25.3638 24.0908V19.5449C25.3636 19.2076 25.2292 18.8841 24.9907 18.6455C24.7521 18.4069 24.4278 18.2725 24.0903 18.2725H23.5229C22.9707 18.2724 22.5229 17.8247 22.5229 17.2725C22.5231 16.7203 22.9708 16.2725 23.5229 16.2725H24.0903C24.9582 16.2725 25.791 16.6178 26.4048 17.2314C27.0183 17.8451 27.3636 18.6772 27.3638 19.5449V24.0908C27.3637 24.9587 27.0185 25.7916 26.4048 26.4053C25.7911 27.0188 24.9582 27.3633 24.0903 27.3633H5.90869C5.04106 27.3632 4.20883 27.0187 3.59521 26.4053C2.98163 25.7916 2.63628 24.9586 2.63623 24.0908V19.5449C2.63637 18.6771 2.98158 17.8451 3.59521 17.2314C4.20887 16.6178 5.04089 16.2726 5.90869 16.2725H6.47705ZM8.19385 20.8184C8.74583 20.8187 9.19385 21.2663 9.19385 21.8184C9.19375 22.3703 8.74577 22.818 8.19385 22.8184H8.18213C7.6299 22.8184 7.18222 22.3706 7.18213 21.8184C7.18213 21.2661 7.62984 20.8184 8.18213 20.8184H8.19385ZM15.8159 10.418C16.0276 9.90822 16.6127 9.66574 17.1226 9.87695C17.6325 10.0886 17.8739 10.6736 17.6626 11.1836L17.5659 11.415C17.762 11.5553 17.9474 11.7106 18.1187 11.8818C18.2888 12.052 18.443 12.2369 18.5825 12.4316L18.8159 12.3359C19.3258 12.1247 19.9108 12.3673 20.1226 12.877C20.3339 13.3869 20.0914 13.9719 19.5815 14.1836L19.3481 14.2793C19.3876 14.5171 19.4097 14.7579 19.4097 15C19.4096 15.2416 19.3884 15.4824 19.3491 15.7197L19.5815 15.8164C20.0916 16.0281 20.3341 16.613 20.1226 17.123C19.9108 17.633 19.3259 17.8746 18.8159 17.6631L18.5835 17.5664C18.4434 17.7621 18.2886 17.9473 18.1177 18.1182C17.9467 18.289 17.7616 18.444 17.5659 18.584L17.6626 18.8174C17.8736 19.3277 17.6309 19.913 17.1206 20.124C16.6103 20.335 16.025 20.0923 15.814 19.582L15.7173 19.3486C15.4805 19.3877 15.2406 19.4092 14.9995 19.4092C14.7577 19.4092 14.5172 19.388 14.2798 19.3486L14.1841 19.582C13.9723 20.0917 13.3873 20.3343 12.8774 20.123C12.3677 19.9115 12.1254 19.3263 12.3364 18.8164L12.4321 18.584C12.2367 18.444 12.0521 18.288 11.8813 18.1172C11.7106 17.9464 11.5554 17.7619 11.4155 17.5664L11.1841 17.6631C10.6741 17.8745 10.0891 17.6329 9.87744 17.123C9.66592 16.613 9.90849 16.0281 10.4185 15.8164L10.6509 15.7197C10.6115 15.4821 10.5903 15.2409 10.5903 14.999C10.5904 14.7574 10.6106 14.5167 10.6499 14.2793L10.4185 14.1836C9.90865 13.9719 9.66613 13.3869 9.87744 12.877C10.0891 12.3673 10.6743 12.1248 11.1841 12.3359L11.4155 12.4316C11.5555 12.2365 11.7117 12.0524 11.8823 11.8818C12.0529 11.7113 12.237 11.5559 12.4321 11.416L12.3364 11.1836C12.1254 10.6737 12.3677 10.0885 12.8774 9.87695C13.3873 9.66567 13.9723 9.90831 14.1841 10.418L14.2798 10.6504C14.5173 10.6111 14.7586 10.5898 15.0005 10.5898C15.2417 10.5899 15.4823 10.6102 15.7192 10.6494L15.8159 10.418ZM15.0005 12.5898C14.6842 12.5899 14.3699 12.6524 14.0776 12.7734C13.7855 12.8945 13.52 13.0723 13.2964 13.2959C13.0728 13.5195 12.895 13.7851 12.7739 14.0771C12.6529 14.3692 12.5905 14.6829 12.5903 14.999C12.5903 15.3153 12.653 15.6296 12.7739 15.9219C12.8949 16.214 13.0729 16.4795 13.2964 16.7031C13.52 16.9268 13.7855 17.1045 14.0776 17.2256C14.3699 17.3467 14.6832 17.4091 14.9995 17.4092C15.3158 17.4092 15.6291 17.3466 15.9214 17.2256C15.9227 17.225 15.924 17.2242 15.9253 17.2236C16.2162 17.1026 16.4808 16.9259 16.7036 16.7031C16.9272 16.4795 17.105 16.2141 17.2261 15.9219C17.3471 15.6297 17.4096 15.3162 17.4097 15C17.4096 14.6838 17.347 14.3702 17.2261 14.0781C17.105 13.786 16.9272 13.5195 16.7036 13.2959C16.4806 13.073 16.2164 12.8954 15.9253 12.7744C15.9242 12.774 15.9225 12.7739 15.9214 12.7734C15.9203 12.773 15.9195 12.7719 15.9185 12.7715C15.6275 12.6516 15.3152 12.5899 15.0005 12.5898ZM24.0903 2.63672C24.9583 2.63672 25.791 2.98195 26.4048 3.5957C27.0183 4.20937 27.3637 5.04141 27.3638 5.90918V10.4551C27.3636 11.3229 27.0184 12.1559 26.4048 12.7695C25.7911 13.3829 24.9581 13.7275 24.0903 13.7275H23.5229C22.9708 13.7275 22.5231 13.2796 22.5229 12.7275C22.523 12.1753 22.9708 11.7276 23.5229 11.7275H24.0903C24.4278 11.7275 24.7521 11.593 24.9907 11.3545C25.2292 11.116 25.3636 10.7923 25.3638 10.4551V5.90918C25.3637 5.57184 25.2292 5.24836 24.9907 5.00977C24.752 4.77108 24.4279 4.63672 24.0903 4.63672H5.90869C5.57129 4.63682 5.24787 4.77118 5.00928 5.00977C4.77081 5.24836 4.6363 5.57184 4.63623 5.90918V10.4551C4.63637 10.7924 4.77075 11.1159 5.00928 11.3545C5.24786 11.593 5.57134 11.7274 5.90869 11.7275H6.47705C7.02931 11.7275 7.477 12.1753 7.47705 12.7275C7.47686 13.2797 7.02922 13.7275 6.47705 13.7275H5.90869C5.04112 13.7274 4.20882 13.3828 3.59521 12.7695C2.98159 12.1559 2.63637 11.3229 2.63623 10.4551V5.90918C2.6363 5.04141 2.98167 4.20937 3.59521 3.5957C4.20888 2.98204 5.04085 2.63682 5.90869 2.63672H24.0903ZM8.19385 7.18164C8.74577 7.182 9.19375 7.62966 9.19385 8.18164C9.19385 8.7337 8.74583 9.18128 8.19385 9.18164H8.18213C7.62984 9.18164 7.18213 8.73393 7.18213 8.18164C7.18222 7.62944 7.6299 7.18164 8.18213 7.18164H8.19385Z" fill="#979797"/>
</svg>
