<svg width="611" height="360" viewBox="0 0 611 360" fill="none" xmlns="http://www.w3.org/2000/svg">
<g filter="url(#filter0_d_609_1149)">
<rect x="30" y="10" width="551" height="300" rx="12" fill="white" shape-rendering="crispEdges"/>
<rect x="30.5" y="10.5" width="550" height="299" rx="11.5" stroke="#C2FCFF" shape-rendering="crispEdges"/>
<path d="M61.56 60V45.9H67.82C69.3667 45.9 70.5467 46.2733 71.36 47.02C72.1733 47.7667 72.58 48.7933 72.58 50.1C72.58 51.3933 72.1733 52.42 71.36 53.18C70.5467 53.94 69.3667 54.32 67.82 54.32H64.14V60H61.56ZM64.14 52.28H67.52C68.3733 52.28 69.0133 52.0933 69.44 51.72C69.8667 51.3333 70.08 50.7933 70.08 50.1C70.08 49.4067 69.8667 48.8733 69.44 48.5C69.0133 48.1133 68.3733 47.92 67.52 47.92H64.14V52.28ZM78.5116 60.2C77.6316 60.2 76.8582 59.9933 76.1916 59.58C75.5249 59.1533 75.0049 58.5467 74.6316 57.76C74.2582 56.9733 74.0716 56.0333 74.0716 54.94C74.0716 53.8467 74.2582 52.9133 74.6316 52.14C75.0049 51.3533 75.5249 50.7533 76.1916 50.34C76.8582 49.9133 77.6316 49.7 78.5116 49.7C79.3649 49.7 80.1116 49.9133 80.7516 50.34C81.4049 50.7533 81.8382 51.3133 82.0516 52.02H81.8316L82.0516 49.9H84.4516C84.4116 50.3133 84.3716 50.7333 84.3316 51.16C84.3049 51.5867 84.2916 52.0067 84.2916 52.42V60H81.8116L81.7916 57.92H82.0316C81.8182 58.6133 81.3849 59.1667 80.7316 59.58C80.0782 59.9933 79.3382 60.2 78.5116 60.2ZM79.2116 58.28C79.9982 58.28 80.6316 58.0067 81.1116 57.46C81.5916 56.9 81.8316 56.06 81.8316 54.94C81.8316 53.82 81.5916 52.9867 81.1116 52.44C80.6316 51.8933 79.9982 51.62 79.2116 51.62C78.4249 51.62 77.7916 51.8933 77.3116 52.44C76.8316 52.9867 76.5916 53.82 76.5916 54.94C76.5916 56.06 76.8249 56.9 77.2916 57.46C77.7716 58.0067 78.4116 58.28 79.2116 58.28ZM91.7339 60.2C90.5339 60.2 89.6272 59.8867 89.0139 59.26C88.4006 58.6333 88.0939 57.6933 88.0939 56.44V51.78H86.1539V49.9H88.0939V47.32L90.5939 46.68V49.9H93.2939V51.78H90.5939V56.28C90.5939 56.9733 90.7272 57.46 90.9939 57.74C91.2606 58.02 91.6272 58.16 92.0939 58.16C92.3472 58.16 92.5606 58.14 92.7339 58.1C92.9206 58.06 93.1006 58.0067 93.2739 57.94V59.92C93.0472 60.0133 92.7939 60.08 92.5139 60.12C92.2472 60.1733 91.9872 60.2 91.7339 60.2ZM95.392 60V49.9H97.892V60H95.392ZM95.252 48V45.56H98.032V48H95.252ZM105.887 60.2C104.194 60.2 102.867 59.7333 101.907 58.8C100.947 57.8667 100.467 56.5867 100.467 54.96C100.467 53.9067 100.674 52.9867 101.087 52.2C101.5 51.4133 102.074 50.8 102.807 50.36C103.554 49.92 104.42 49.7 105.407 49.7C106.38 49.7 107.194 49.9067 107.847 50.32C108.5 50.7333 108.994 51.3133 109.327 52.06C109.674 52.8067 109.847 53.68 109.847 54.68V55.34H102.487V54.02H108.067L107.727 54.3C107.727 53.3667 107.527 52.6533 107.127 52.16C106.74 51.6667 106.174 51.42 105.427 51.42C104.6 51.42 103.96 51.7133 103.507 52.3C103.067 52.8867 102.847 53.7067 102.847 54.76V55.02C102.847 56.1133 103.114 56.9333 103.647 57.48C104.194 58.0133 104.96 58.28 105.947 58.28C106.52 58.28 107.054 58.2067 107.547 58.06C108.054 57.9 108.534 57.6467 108.987 57.3L109.727 58.98C109.247 59.3667 108.674 59.6667 108.007 59.88C107.34 60.0933 106.634 60.2 105.887 60.2ZM112.364 60V52.42C112.364 52.0067 112.351 51.5867 112.324 51.16C112.297 50.7333 112.257 50.3133 112.204 49.9H114.624L114.824 51.9H114.584C114.904 51.1933 115.377 50.6533 116.004 50.28C116.631 49.8933 117.357 49.7 118.184 49.7C119.371 49.7 120.264 50.0333 120.864 50.7C121.464 51.3667 121.764 52.4067 121.764 53.82V60H119.264V53.94C119.264 53.1267 119.104 52.5467 118.784 52.2C118.477 51.84 118.011 51.66 117.384 51.66C116.611 51.66 115.997 51.9 115.544 52.38C115.091 52.86 114.864 53.5 114.864 54.3V60H112.364ZM129.135 60.2C127.935 60.2 127.028 59.8867 126.415 59.26C125.801 58.6333 125.495 57.6933 125.495 56.44V51.78H123.555V49.9H125.495V47.32L127.995 46.68V49.9H130.695V51.78H127.995V56.28C127.995 56.9733 128.128 57.46 128.395 57.74C128.661 58.02 129.028 58.16 129.495 58.16C129.748 58.16 129.961 58.14 130.135 58.1C130.321 58.06 130.501 58.0067 130.675 57.94V59.92C130.448 60.0133 130.195 60.08 129.915 60.12C129.648 60.1733 129.388 60.2 129.135 60.2ZM142.281 60.2C141.414 60.2 140.614 60.1 139.881 59.9C139.161 59.6867 138.554 59.3933 138.061 59.02L138.761 57.34C139.268 57.6867 139.828 57.9533 140.441 58.14C141.054 58.3267 141.674 58.42 142.301 58.42C142.968 58.42 143.461 58.3067 143.781 58.08C144.114 57.8533 144.281 57.5467 144.281 57.16C144.281 56.8533 144.174 56.6133 143.961 56.44C143.761 56.2533 143.434 56.1133 142.981 56.02L140.981 55.64C140.128 55.4533 139.474 55.1333 139.021 54.68C138.581 54.2267 138.361 53.6333 138.361 52.9C138.361 52.2733 138.528 51.72 138.861 51.24C139.208 50.76 139.694 50.3867 140.321 50.12C140.961 49.84 141.708 49.7 142.561 49.7C143.308 49.7 144.008 49.8 144.661 50C145.328 50.2 145.888 50.5 146.341 50.9L145.621 52.52C145.208 52.1867 144.734 51.9267 144.201 51.74C143.668 51.5533 143.148 51.46 142.641 51.46C141.948 51.46 141.441 51.5867 141.121 51.84C140.801 52.08 140.641 52.3933 140.641 52.78C140.641 53.0733 140.734 53.32 140.921 53.52C141.121 53.7067 141.428 53.8467 141.841 53.94L143.841 54.32C144.734 54.4933 145.408 54.8 145.861 55.24C146.328 55.6667 146.561 56.2533 146.561 57C146.561 57.6667 146.381 58.24 146.021 58.72C145.661 59.2 145.161 59.5667 144.521 59.82C143.881 60.0733 143.134 60.2 142.281 60.2ZM152.741 60.2C151.501 60.2 150.574 59.86 149.961 59.18C149.347 58.5 149.041 57.46 149.041 56.06V49.9H151.541V56.04C151.541 56.7867 151.694 57.34 152.001 57.7C152.307 58.0467 152.774 58.22 153.401 58.22C154.107 58.22 154.681 57.98 155.121 57.5C155.574 57.02 155.801 56.3867 155.801 55.6V49.9H158.301V60H155.861V57.94H156.141C155.847 58.66 155.401 59.22 154.801 59.62C154.214 60.0067 153.527 60.2 152.741 60.2ZM161.415 60V52.42C161.415 52.0067 161.401 51.5867 161.375 51.16C161.348 50.7333 161.308 50.3133 161.255 49.9H163.675L163.875 51.9H163.635C163.915 51.2067 164.341 50.6667 164.915 50.28C165.501 49.8933 166.195 49.7 166.995 49.7C167.795 49.7 168.455 49.8933 168.975 50.28C169.508 50.6533 169.881 51.24 170.095 52.04H169.775C170.055 51.32 170.515 50.7533 171.155 50.34C171.795 49.9133 172.528 49.7 173.355 49.7C174.488 49.7 175.335 50.0333 175.895 50.7C176.455 51.3667 176.735 52.4067 176.735 53.82V60H174.235V53.92C174.235 53.12 174.101 52.5467 173.835 52.2C173.568 51.84 173.141 51.66 172.555 51.66C171.861 51.66 171.315 51.9067 170.915 52.4C170.515 52.88 170.315 53.5333 170.315 54.36V60H167.815V53.92C167.815 53.12 167.681 52.5467 167.415 52.2C167.148 51.84 166.721 51.66 166.135 51.66C165.441 51.66 164.895 51.9067 164.495 52.4C164.108 52.88 163.915 53.5333 163.915 54.36V60H161.415ZM179.803 60V52.42C179.803 52.0067 179.79 51.5867 179.763 51.16C179.736 50.7333 179.696 50.3133 179.643 49.9H182.063L182.263 51.9H182.023C182.303 51.2067 182.73 50.6667 183.303 50.28C183.89 49.8933 184.583 49.7 185.383 49.7C186.183 49.7 186.843 49.8933 187.363 50.28C187.896 50.6533 188.27 51.24 188.483 52.04H188.163C188.443 51.32 188.903 50.7533 189.543 50.34C190.183 49.9133 190.916 49.7 191.743 49.7C192.876 49.7 193.723 50.0333 194.283 50.7C194.843 51.3667 195.123 52.4067 195.123 53.82V60H192.623V53.92C192.623 53.12 192.49 52.5467 192.223 52.2C191.956 51.84 191.53 51.66 190.943 51.66C190.25 51.66 189.703 51.9067 189.303 52.4C188.903 52.88 188.703 53.5333 188.703 54.36V60H186.203V53.92C186.203 53.12 186.07 52.5467 185.803 52.2C185.536 51.84 185.11 51.66 184.523 51.66C183.83 51.66 183.283 51.9067 182.883 52.4C182.496 52.88 182.303 53.5333 182.303 54.36V60H179.803ZM202.091 60.2C201.211 60.2 200.438 59.9933 199.771 59.58C199.105 59.1533 198.585 58.5467 198.211 57.76C197.838 56.9733 197.651 56.0333 197.651 54.94C197.651 53.8467 197.838 52.9133 198.211 52.14C198.585 51.3533 199.105 50.7533 199.771 50.34C200.438 49.9133 201.211 49.7 202.091 49.7C202.945 49.7 203.691 49.9133 204.331 50.34C204.985 50.7533 205.418 51.3133 205.631 52.02H205.411L205.631 49.9H208.031C207.991 50.3133 207.951 50.7333 207.911 51.16C207.885 51.5867 207.871 52.0067 207.871 52.42V60H205.391L205.371 57.92H205.611C205.398 58.6133 204.965 59.1667 204.311 59.58C203.658 59.9933 202.918 60.2 202.091 60.2ZM202.791 58.28C203.578 58.28 204.211 58.0067 204.691 57.46C205.171 56.9 205.411 56.06 205.411 54.94C205.411 53.82 205.171 52.9867 204.691 52.44C204.211 51.8933 203.578 51.62 202.791 51.62C202.005 51.62 201.371 51.8933 200.891 52.44C200.411 52.9867 200.171 53.82 200.171 54.94C200.171 56.06 200.405 56.9 200.871 57.46C201.351 58.0067 201.991 58.28 202.791 58.28ZM210.974 60V52.48C210.974 52.0533 210.96 51.62 210.934 51.18C210.92 50.74 210.887 50.3133 210.834 49.9H213.254L213.534 52.66H213.134C213.267 51.9933 213.487 51.44 213.794 51C214.114 50.56 214.5 50.2333 214.954 50.02C215.407 49.8067 215.9 49.7 216.434 49.7C216.674 49.7 216.867 49.7133 217.014 49.74C217.16 49.7533 217.307 49.7867 217.454 49.84L217.434 52.04C217.18 51.9333 216.96 51.8667 216.774 51.84C216.6 51.8133 216.38 51.8 216.114 51.8C215.54 51.8 215.054 51.92 214.654 52.16C214.267 52.4 213.974 52.7333 213.774 53.16C213.587 53.5867 213.494 54.0733 213.494 54.62V60H210.974ZM219.651 64.54L219.071 62.56C219.697 62.4267 220.224 62.2733 220.651 62.1C221.077 61.9267 221.431 61.7 221.711 61.42C221.991 61.14 222.224 60.78 222.411 60.34L222.911 59.16L222.851 60.14L218.451 49.9H221.111L224.271 57.78H223.691L226.871 49.9H229.391L224.791 60.56C224.484 61.28 224.151 61.8733 223.791 62.34C223.431 62.82 223.044 63.2 222.631 63.48C222.217 63.7733 221.764 64 221.271 64.16C220.777 64.32 220.237 64.4467 219.651 64.54ZM240.898 60.2C240.018 60.2 239.245 59.9933 238.578 59.58C237.912 59.1533 237.392 58.5467 237.018 57.76C236.645 56.9733 236.458 56.0333 236.458 54.94C236.458 53.8467 236.645 52.9133 237.018 52.14C237.392 51.3533 237.912 50.7533 238.578 50.34C239.245 49.9133 240.018 49.7 240.898 49.7C241.752 49.7 242.498 49.9133 243.138 50.34C243.792 50.7533 244.225 51.3133 244.438 52.02H244.218L244.438 49.9H246.838C246.798 50.3133 246.758 50.7333 246.718 51.16C246.692 51.5867 246.678 52.0067 246.678 52.42V60H244.198L244.178 57.92H244.418C244.205 58.6133 243.772 59.1667 243.118 59.58C242.465 59.9933 241.725 60.2 240.898 60.2ZM241.598 58.28C242.385 58.28 243.018 58.0067 243.498 57.46C243.978 56.9 244.218 56.06 244.218 54.94C244.218 53.82 243.978 52.9867 243.498 52.44C243.018 51.8933 242.385 51.62 241.598 51.62C240.812 51.62 240.178 51.8933 239.698 52.44C239.218 52.9867 238.978 53.82 238.978 54.94C238.978 56.06 239.212 56.9 239.678 57.46C240.158 58.0067 240.798 58.28 241.598 58.28ZM253.441 60.2C252.201 60.2 251.274 59.86 250.661 59.18C250.047 58.5 249.741 57.46 249.741 56.06V49.9H252.241V56.04C252.241 56.7867 252.394 57.34 252.701 57.7C253.007 58.0467 253.474 58.22 254.101 58.22C254.807 58.22 255.381 57.98 255.821 57.5C256.274 57.02 256.501 56.3867 256.501 55.6V49.9H259.001V60H256.561V57.94H256.841C256.547 58.66 256.101 59.22 255.501 59.62C254.914 60.0067 254.227 60.2 253.441 60.2ZM266.435 60.2C265.235 60.2 264.328 59.8867 263.715 59.26C263.101 58.6333 262.795 57.6933 262.795 56.44V51.78H260.855V49.9H262.795V47.32L265.295 46.68V49.9H267.995V51.78H265.295V56.28C265.295 56.9733 265.428 57.46 265.695 57.74C265.961 58.02 266.328 58.16 266.795 58.16C267.048 58.16 267.261 58.14 267.435 58.1C267.621 58.06 267.801 58.0067 267.975 57.94V59.92C267.748 60.0133 267.495 60.08 267.215 60.12C266.948 60.1733 266.688 60.2 266.435 60.2ZM274.555 60.2C273.515 60.2 272.615 59.9867 271.855 59.56C271.095 59.1333 270.502 58.5267 270.075 57.74C269.662 56.9533 269.455 56.02 269.455 54.94C269.455 53.86 269.662 52.9333 270.075 52.16C270.502 51.3733 271.095 50.7667 271.855 50.34C272.615 49.9133 273.515 49.7 274.555 49.7C275.595 49.7 276.495 49.9133 277.255 50.34C278.028 50.7667 278.622 51.3733 279.035 52.16C279.462 52.9333 279.675 53.86 279.675 54.94C279.675 56.02 279.462 56.9533 279.035 57.74C278.622 58.5267 278.028 59.1333 277.255 59.56C276.495 59.9867 275.595 60.2 274.555 60.2ZM274.555 58.28C275.342 58.28 275.968 58.0067 276.435 57.46C276.902 56.9 277.135 56.06 277.135 54.94C277.135 53.82 276.902 52.9867 276.435 52.44C275.968 51.8933 275.342 51.62 274.555 51.62C273.768 51.62 273.142 51.8933 272.675 52.44C272.208 52.9867 271.975 53.82 271.975 54.94C271.975 56.06 272.208 56.9 272.675 57.46C273.142 58.0067 273.768 58.28 274.555 58.28ZM288.799 60V51.78H286.859V49.9H289.499L288.799 50.54V49C288.799 47.7467 289.113 46.8 289.739 46.16C290.379 45.52 291.306 45.2 292.519 45.2C292.813 45.2 293.119 45.22 293.439 45.26C293.773 45.3 294.059 45.3733 294.299 45.48V47.44C294.126 47.3733 293.919 47.32 293.679 47.28C293.439 47.24 293.206 47.22 292.979 47.22C292.459 47.22 292.046 47.3733 291.739 47.68C291.433 47.9733 291.279 48.4533 291.279 49.12V50.34L290.919 49.9H297.939V60H295.439V51.78H291.299V60H288.799ZM295.299 48V45.56H298.079V48H295.299ZM301.058 60V45.28H303.558V60H301.058ZM311.553 60.2C309.86 60.2 308.533 59.7333 307.573 58.8C306.613 57.8667 306.133 56.5867 306.133 54.96C306.133 53.9067 306.34 52.9867 306.753 52.2C307.167 51.4133 307.74 50.8 308.473 50.36C309.22 49.92 310.087 49.7 311.073 49.7C312.047 49.7 312.86 49.9067 313.513 50.32C314.167 50.7333 314.66 51.3133 314.993 52.06C315.34 52.8067 315.513 53.68 315.513 54.68V55.34H308.153V54.02H313.733L313.393 54.3C313.393 53.3667 313.193 52.6533 312.793 52.16C312.407 51.6667 311.84 51.42 311.093 51.42C310.267 51.42 309.627 51.7133 309.173 52.3C308.733 52.8867 308.513 53.7067 308.513 54.76V55.02C308.513 56.1133 308.78 56.9333 309.313 57.48C309.86 58.0133 310.627 58.28 311.613 58.28C312.187 58.28 312.72 58.2067 313.213 58.06C313.72 57.9 314.2 57.6467 314.653 57.3L315.393 58.98C314.913 59.3667 314.34 59.6667 313.673 59.88C313.007 60.0933 312.3 60.2 311.553 60.2ZM321.95 60.2C321.07 60.2 320.29 59.9933 319.61 59.58C318.944 59.1533 318.424 58.5467 318.05 57.76C317.677 56.9733 317.49 56.0333 317.49 54.94C317.49 53.8467 317.677 52.9133 318.05 52.14C318.424 51.3533 318.944 50.7533 319.61 50.34C320.29 49.9133 321.07 49.7 321.95 49.7C322.79 49.7 323.53 49.9067 324.17 50.32C324.824 50.72 325.257 51.2667 325.47 51.96H325.21V45.28H327.71V60H325.25V57.86H325.49C325.277 58.58 324.844 59.1533 324.19 59.58C323.55 59.9933 322.804 60.2 321.95 60.2ZM322.65 58.28C323.437 58.28 324.07 58.0067 324.55 57.46C325.03 56.9 325.27 56.06 325.27 54.94C325.27 53.82 325.03 52.9867 324.55 52.44C324.07 51.8933 323.437 51.62 322.65 51.62C321.864 51.62 321.224 51.8933 320.73 52.44C320.25 52.9867 320.01 53.82 320.01 54.94C320.01 56.06 320.25 56.9 320.73 57.46C321.224 58.0067 321.864 58.28 322.65 58.28Z" fill="#00ADB5"/>
<path d="M65.742 121.162C64.722 121.162 63.804 121.03 62.988 120.766C62.172 120.502 61.464 120.13 60.864 119.65L61.44 118.318C61.86 118.63 62.286 118.894 62.718 119.11C63.15 119.314 63.612 119.47 64.104 119.578C64.608 119.674 65.154 119.722 65.742 119.722C66.786 119.722 67.554 119.536 68.046 119.164C68.55 118.78 68.802 118.276 68.802 117.652C68.802 117.112 68.628 116.698 68.28 116.41C67.932 116.122 67.326 115.894 66.462 115.726L64.536 115.33C63.372 115.09 62.502 114.7 61.926 114.16C61.362 113.608 61.08 112.864 61.08 111.928C61.08 111.172 61.278 110.512 61.674 109.948C62.082 109.372 62.64 108.928 63.348 108.616C64.068 108.304 64.908 108.148 65.868 108.148C66.756 108.148 67.578 108.28 68.334 108.544C69.09 108.808 69.726 109.198 70.242 109.714L69.666 110.992C69.126 110.5 68.544 110.146 67.92 109.93C67.308 109.702 66.612 109.588 65.832 109.588C64.884 109.588 64.134 109.792 63.582 110.2C63.03 110.608 62.754 111.16 62.754 111.856C62.754 112.408 62.928 112.846 63.276 113.17C63.624 113.482 64.2 113.722 65.004 113.89L66.93 114.268C68.154 114.508 69.048 114.886 69.612 115.402C70.188 115.918 70.476 116.632 70.476 117.544C70.476 118.264 70.284 118.9 69.9 119.452C69.516 119.992 68.97 120.412 68.262 120.712C67.554 121.012 66.714 121.162 65.742 121.162ZM72.9617 125.086L72.5837 123.754C73.1477 123.622 73.6157 123.466 73.9877 123.286C74.3597 123.118 74.6717 122.896 74.9237 122.62C75.1757 122.344 75.3977 121.996 75.5897 121.576L76.0397 120.496L76.0037 121.18L72.0617 111.946H73.8257L76.9757 119.704H76.5077L79.6577 111.946H81.3497L77.1917 121.702C76.9397 122.29 76.6637 122.782 76.3637 123.178C76.0757 123.574 75.7577 123.898 75.4097 124.15C75.0737 124.402 74.7017 124.6 74.2937 124.744C73.8857 124.888 73.4417 125.002 72.9617 125.086ZM83.6029 121V114.088C83.6029 113.74 83.5909 113.386 83.5669 113.026C83.5429 112.666 83.5069 112.306 83.4589 111.946H85.0429L85.2229 113.89H85.0069C85.2469 113.218 85.6309 112.702 86.1589 112.342C86.6869 111.97 87.3169 111.784 88.0489 111.784C88.7929 111.784 89.4049 111.964 89.8849 112.324C90.3649 112.672 90.6889 113.224 90.8569 113.98H90.5869C90.8149 113.308 91.2169 112.774 91.7929 112.378C92.3689 111.982 93.0409 111.784 93.8089 111.784C94.8049 111.784 95.5549 112.078 96.0589 112.666C96.5629 113.242 96.8149 114.142 96.8149 115.366V121H95.1769V115.456C95.1769 114.628 95.0329 114.034 94.7449 113.674C94.4569 113.302 94.0009 113.116 93.3769 113.116C92.6449 113.116 92.0689 113.368 91.6489 113.872C91.2289 114.364 91.0189 115.036 91.0189 115.888V121H89.3809V115.456C89.3809 114.628 89.2369 114.034 88.9489 113.674C88.6729 113.302 88.2169 113.116 87.5809 113.116C86.8489 113.116 86.2729 113.368 85.8529 113.872C85.4449 114.364 85.2409 115.036 85.2409 115.888V121H83.6029ZM100.214 124.888V114.088C100.214 113.74 100.202 113.386 100.178 113.026C100.154 112.666 100.118 112.306 100.07 111.946H101.654L101.852 114.034H101.654C101.834 113.338 102.218 112.792 102.806 112.396C103.394 111.988 104.096 111.784 104.912 111.784C105.716 111.784 106.418 111.97 107.018 112.342C107.618 112.714 108.08 113.254 108.404 113.962C108.74 114.658 108.908 115.492 108.908 116.464C108.908 117.436 108.74 118.276 108.404 118.984C108.08 119.692 107.618 120.232 107.018 120.604C106.418 120.976 105.716 121.162 104.912 121.162C104.108 121.162 103.412 120.964 102.824 120.568C102.248 120.16 101.858 119.614 101.654 118.93H101.852V124.888H100.214ZM104.534 119.866C105.362 119.866 106.022 119.578 106.514 119.002C107.006 118.426 107.252 117.58 107.252 116.464C107.252 115.348 107.006 114.508 106.514 113.944C106.022 113.38 105.362 113.098 104.534 113.098C103.706 113.098 103.046 113.38 102.554 113.944C102.074 114.508 101.834 115.348 101.834 116.464C101.834 117.58 102.074 118.426 102.554 119.002C103.046 119.578 103.706 119.866 104.534 119.866ZM115.128 121.162C114.18 121.162 113.46 120.904 112.968 120.388C112.488 119.86 112.248 119.068 112.248 118.012V113.206H110.484V111.946H112.248V109.516L113.886 109.066V111.946H116.442V113.206H113.886V117.868C113.886 118.564 114.006 119.062 114.246 119.362C114.498 119.65 114.858 119.794 115.326 119.794C115.566 119.794 115.77 119.776 115.938 119.74C116.118 119.692 116.28 119.638 116.424 119.578V120.928C116.244 121 116.034 121.054 115.794 121.09C115.566 121.138 115.344 121.162 115.128 121.162ZM122.608 121.162C121.72 121.162 120.952 120.976 120.304 120.604C119.656 120.22 119.152 119.68 118.792 118.984C118.432 118.276 118.252 117.436 118.252 116.464C118.252 115.504 118.432 114.676 118.792 113.98C119.152 113.272 119.656 112.732 120.304 112.36C120.952 111.976 121.72 111.784 122.608 111.784C123.496 111.784 124.264 111.976 124.912 112.36C125.572 112.732 126.076 113.272 126.424 113.98C126.784 114.676 126.964 115.504 126.964 116.464C126.964 117.436 126.784 118.276 126.424 118.984C126.076 119.68 125.572 120.22 124.912 120.604C124.264 120.976 123.496 121.162 122.608 121.162ZM122.608 119.866C123.424 119.866 124.078 119.578 124.57 119.002C125.062 118.426 125.308 117.58 125.308 116.464C125.308 115.348 125.062 114.508 124.57 113.944C124.078 113.38 123.424 113.098 122.608 113.098C121.78 113.098 121.12 113.38 120.628 113.944C120.148 114.508 119.908 115.348 119.908 116.464C119.908 117.58 120.148 118.426 120.628 119.002C121.12 119.578 121.78 119.866 122.608 119.866ZM129.883 121V114.088C129.883 113.74 129.871 113.386 129.847 113.026C129.823 112.666 129.787 112.306 129.739 111.946H131.323L131.503 113.89H131.287C131.527 113.218 131.911 112.702 132.439 112.342C132.967 111.97 133.597 111.784 134.329 111.784C135.073 111.784 135.685 111.964 136.165 112.324C136.645 112.672 136.969 113.224 137.137 113.98H136.867C137.095 113.308 137.497 112.774 138.073 112.378C138.649 111.982 139.321 111.784 140.089 111.784C141.085 111.784 141.835 112.078 142.339 112.666C142.843 113.242 143.095 114.142 143.095 115.366V121H141.457V115.456C141.457 114.628 141.313 114.034 141.025 113.674C140.737 113.302 140.281 113.116 139.657 113.116C138.925 113.116 138.349 113.368 137.929 113.872C137.509 114.364 137.299 115.036 137.299 115.888V121H135.661V115.456C135.661 114.628 135.517 114.034 135.229 113.674C134.953 113.302 134.497 113.116 133.861 113.116C133.129 113.116 132.553 113.368 132.133 113.872C131.725 114.364 131.521 115.036 131.521 115.888V121H129.883ZM149.554 121.162C148.822 121.162 148.138 121.066 147.502 120.874C146.878 120.682 146.362 120.406 145.954 120.046L146.476 118.912C146.92 119.248 147.406 119.506 147.934 119.686C148.474 119.854 149.026 119.938 149.59 119.938C150.274 119.938 150.79 119.812 151.138 119.56C151.498 119.308 151.678 118.972 151.678 118.552C151.678 118.216 151.564 117.946 151.336 117.742C151.108 117.538 150.748 117.388 150.256 117.292L148.546 116.95C147.778 116.77 147.196 116.482 146.8 116.086C146.416 115.678 146.224 115.156 146.224 114.52C146.224 113.992 146.368 113.524 146.656 113.116C146.944 112.696 147.352 112.372 147.88 112.144C148.42 111.904 149.05 111.784 149.77 111.784C150.43 111.784 151.042 111.88 151.606 112.072C152.182 112.264 152.656 112.546 153.028 112.918L152.488 114.016C152.116 113.692 151.696 113.446 151.228 113.278C150.772 113.098 150.304 113.008 149.824 113.008C149.128 113.008 148.612 113.146 148.276 113.422C147.94 113.686 147.772 114.034 147.772 114.466C147.772 114.79 147.874 115.06 148.078 115.276C148.282 115.48 148.612 115.636 149.068 115.744L150.778 116.086C151.582 116.254 152.188 116.53 152.596 116.914C153.004 117.298 153.208 117.808 153.208 118.444C153.208 119.008 153.052 119.494 152.74 119.902C152.44 120.31 152.014 120.622 151.462 120.838C150.922 121.054 150.286 121.162 149.554 121.162Z" fill="black"/>
<line x1="288" y1="111" x2="547" y2="111" stroke="#DFEAF0" stroke-width="6" stroke-linecap="round"/>
<path d="M61.548 177V164.31H63.024L68.028 175.578H67.488L72.492 164.31H73.95V177H72.42V166.542H72.978L68.28 177H67.218L62.52 166.542H63.078V177H61.548ZM81.7139 177.162C80.2739 177.162 79.1339 176.748 78.2939 175.92C77.4659 175.092 77.0519 173.952 77.0519 172.5C77.0519 171.54 77.2319 170.712 77.5919 170.016C77.9639 169.308 78.4739 168.762 79.1219 168.378C79.7699 167.982 80.5259 167.784 81.3899 167.784C82.2179 167.784 82.9199 167.964 83.4959 168.324C84.0719 168.672 84.5099 169.17 84.8099 169.818C85.1099 170.466 85.2599 171.234 85.2599 172.122V172.662H78.3299V171.69H84.1439L83.8379 171.924C83.8379 170.988 83.6279 170.262 83.2079 169.746C82.7999 169.23 82.1939 168.972 81.3899 168.972C80.5139 168.972 79.8359 169.278 79.3559 169.89C78.8759 170.49 78.6359 171.312 78.6359 172.356V172.518C78.6359 173.622 78.9059 174.456 79.4459 175.02C79.9979 175.584 80.7599 175.866 81.7319 175.866C82.2719 175.866 82.7759 175.788 83.2439 175.632C83.7119 175.476 84.1619 175.218 84.5939 174.858L85.1339 175.992C84.7259 176.364 84.2159 176.652 83.6039 176.856C83.0039 177.06 82.3739 177.162 81.7139 177.162ZM91.5765 177.162C90.7845 177.162 90.0885 176.976 89.4885 176.604C88.8885 176.232 88.4205 175.692 88.0845 174.984C87.7485 174.276 87.5805 173.436 87.5805 172.464C87.5805 171.492 87.7485 170.658 88.0845 169.962C88.4205 169.254 88.8885 168.714 89.4885 168.342C90.0885 167.97 90.7845 167.784 91.5765 167.784C92.3685 167.784 93.0585 167.982 93.6465 168.378C94.2465 168.774 94.6485 169.32 94.8525 170.016H94.6365V163.752H96.2745V177H94.6545V174.894H94.8525C94.6605 175.602 94.2645 176.16 93.6645 176.568C93.0765 176.964 92.3805 177.162 91.5765 177.162ZM91.9545 175.866C92.7705 175.866 93.4245 175.578 93.9165 175.002C94.4205 174.426 94.6725 173.58 94.6725 172.464C94.6725 171.348 94.4205 170.508 93.9165 169.944C93.4245 169.38 92.7705 169.098 91.9545 169.098C91.1385 169.098 90.4785 169.38 89.9745 169.944C89.4825 170.508 89.2365 171.348 89.2365 172.464C89.2365 173.58 89.4825 174.426 89.9745 175.002C90.4785 175.578 91.1385 175.866 91.9545 175.866ZM99.7389 177V167.946H101.377V177H99.7389ZM99.5949 165.966V164.202H101.539V165.966H99.5949ZM108.724 177.162C107.824 177.162 107.044 176.976 106.384 176.604C105.724 176.22 105.208 175.674 104.836 174.966C104.476 174.246 104.296 173.394 104.296 172.41C104.296 171.438 104.482 170.61 104.854 169.926C105.226 169.23 105.742 168.702 106.402 168.342C107.062 167.97 107.836 167.784 108.724 167.784C109.312 167.784 109.882 167.886 110.434 168.09C110.986 168.282 111.436 168.564 111.784 168.936L111.226 170.088C110.878 169.752 110.494 169.506 110.074 169.35C109.654 169.182 109.24 169.098 108.832 169.098C107.944 169.098 107.248 169.386 106.744 169.962C106.24 170.526 105.988 171.348 105.988 172.428C105.988 173.52 106.24 174.36 106.744 174.948C107.248 175.536 107.944 175.83 108.832 175.83C109.228 175.83 109.636 175.752 110.056 175.596C110.476 175.44 110.866 175.194 111.226 174.858L111.784 175.992C111.424 176.376 110.962 176.67 110.398 176.874C109.846 177.066 109.288 177.162 108.724 177.162ZM117.889 177.162C117.097 177.162 116.401 176.976 115.801 176.604C115.201 176.232 114.733 175.692 114.397 174.984C114.061 174.276 113.893 173.436 113.893 172.464C113.893 171.492 114.061 170.658 114.397 169.962C114.733 169.254 115.201 168.714 115.801 168.342C116.401 167.97 117.097 167.784 117.889 167.784C118.693 167.784 119.389 167.988 119.977 168.396C120.577 168.792 120.973 169.338 121.165 170.034H120.949L121.147 167.946H122.731C122.695 168.306 122.659 168.666 122.623 169.026C122.599 169.386 122.587 169.74 122.587 170.088V177H120.949V174.93H121.147C120.955 175.614 120.559 176.16 119.959 176.568C119.371 176.964 118.681 177.162 117.889 177.162ZM118.267 175.866C119.083 175.866 119.737 175.578 120.229 175.002C120.721 174.426 120.967 173.58 120.967 172.464C120.967 171.348 120.721 170.508 120.229 169.944C119.737 169.38 119.083 169.098 118.267 169.098C117.451 169.098 116.791 169.38 116.287 169.944C115.795 170.508 115.549 171.348 115.549 172.464C115.549 173.58 115.795 174.426 116.287 175.002C116.779 175.578 117.439 175.866 118.267 175.866ZM129.435 177.162C128.487 177.162 127.767 176.904 127.275 176.388C126.795 175.86 126.555 175.068 126.555 174.012V169.206H124.791V167.946H126.555V165.516L128.193 165.066V167.946H130.749V169.206H128.193V173.868C128.193 174.564 128.313 175.062 128.553 175.362C128.805 175.65 129.165 175.794 129.633 175.794C129.873 175.794 130.077 175.776 130.245 175.74C130.425 175.692 130.587 175.638 130.731 175.578V176.928C130.551 177 130.341 177.054 130.101 177.09C129.873 177.138 129.651 177.162 129.435 177.162ZM133.187 177V167.946H134.825V177H133.187ZM133.043 165.966V164.202H134.987V165.966H133.043ZM142.1 177.162C141.212 177.162 140.444 176.976 139.796 176.604C139.148 176.22 138.644 175.68 138.284 174.984C137.924 174.276 137.744 173.436 137.744 172.464C137.744 171.504 137.924 170.676 138.284 169.98C138.644 169.272 139.148 168.732 139.796 168.36C140.444 167.976 141.212 167.784 142.1 167.784C142.988 167.784 143.756 167.976 144.404 168.36C145.064 168.732 145.568 169.272 145.916 169.98C146.276 170.676 146.456 171.504 146.456 172.464C146.456 173.436 146.276 174.276 145.916 174.984C145.568 175.68 145.064 176.22 144.404 176.604C143.756 176.976 142.988 177.162 142.1 177.162ZM142.1 175.866C142.916 175.866 143.57 175.578 144.062 175.002C144.554 174.426 144.8 173.58 144.8 172.464C144.8 171.348 144.554 170.508 144.062 169.944C143.57 169.38 142.916 169.098 142.1 169.098C141.272 169.098 140.612 169.38 140.12 169.944C139.64 170.508 139.4 171.348 139.4 172.464C139.4 173.58 139.64 174.426 140.12 175.002C140.612 175.578 141.272 175.866 142.1 175.866ZM149.375 177V170.088C149.375 169.74 149.363 169.386 149.339 169.026C149.315 168.666 149.279 168.306 149.231 167.946H150.815L150.995 169.89H150.779C151.055 169.206 151.481 168.684 152.057 168.324C152.633 167.964 153.305 167.784 154.073 167.784C155.141 167.784 155.945 168.078 156.485 168.666C157.025 169.242 157.295 170.142 157.295 171.366V177H155.657V171.456C155.657 170.628 155.495 170.034 155.171 169.674C154.847 169.302 154.343 169.116 153.659 169.116C152.843 169.116 152.195 169.362 151.715 169.854C151.247 170.346 151.013 171.012 151.013 171.852V177H149.375ZM163.755 177.162C163.023 177.162 162.339 177.066 161.703 176.874C161.079 176.682 160.563 176.406 160.155 176.046L160.677 174.912C161.121 175.248 161.607 175.506 162.135 175.686C162.675 175.854 163.227 175.938 163.791 175.938C164.475 175.938 164.991 175.812 165.339 175.56C165.699 175.308 165.879 174.972 165.879 174.552C165.879 174.216 165.765 173.946 165.537 173.742C165.309 173.538 164.949 173.388 164.457 173.292L162.747 172.95C161.979 172.77 161.397 172.482 161.001 172.086C160.617 171.678 160.425 171.156 160.425 170.52C160.425 169.992 160.569 169.524 160.857 169.116C161.145 168.696 161.553 168.372 162.081 168.144C162.621 167.904 163.251 167.784 163.971 167.784C164.631 167.784 165.243 167.88 165.807 168.072C166.383 168.264 166.857 168.546 167.229 168.918L166.689 170.016C166.317 169.692 165.897 169.446 165.429 169.278C164.973 169.098 164.505 169.008 164.025 169.008C163.329 169.008 162.813 169.146 162.477 169.422C162.141 169.686 161.973 170.034 161.973 170.466C161.973 170.79 162.075 171.06 162.279 171.276C162.483 171.48 162.813 171.636 163.269 171.744L164.979 172.086C165.783 172.254 166.389 172.53 166.797 172.914C167.205 173.298 167.409 173.808 167.409 174.444C167.409 175.008 167.253 175.494 166.941 175.902C166.641 176.31 166.215 176.622 165.663 176.838C165.123 177.054 164.487 177.162 163.755 177.162Z" fill="black"/>
<line x1="343" y1="167" x2="547" y2="167" stroke="#DFEAF0" stroke-width="6" stroke-linecap="round"/>
<path d="M60.252 233L65.868 220.31H67.326L73.032 233H71.304L69.738 229.4L70.458 229.832H62.736L63.528 229.4L61.962 233H60.252ZM66.57 222.182L63.762 228.842L63.33 228.464H69.864L69.522 228.842L66.642 222.182H66.57ZM75.3771 233V219.752H77.0151V233H75.3771ZM80.474 233V219.752H82.112V233H80.474ZM89.693 233.162C88.253 233.162 87.113 232.748 86.273 231.92C85.445 231.092 85.031 229.952 85.031 228.5C85.031 227.54 85.211 226.712 85.571 226.016C85.943 225.308 86.453 224.762 87.101 224.378C87.749 223.982 88.505 223.784 89.369 223.784C90.197 223.784 90.899 223.964 91.475 224.324C92.051 224.672 92.489 225.17 92.789 225.818C93.089 226.466 93.239 227.234 93.239 228.122V228.662H86.309V227.69H92.123L91.817 227.924C91.817 226.988 91.607 226.262 91.187 225.746C90.779 225.23 90.173 224.972 89.369 224.972C88.493 224.972 87.815 225.278 87.335 225.89C86.855 226.49 86.615 227.312 86.615 228.356V228.518C86.615 229.622 86.885 230.456 87.425 231.02C87.977 231.584 88.739 231.866 89.711 231.866C90.251 231.866 90.755 231.788 91.223 231.632C91.691 231.476 92.141 231.218 92.573 230.858L93.113 231.992C92.705 232.364 92.195 232.652 91.583 232.856C90.983 233.06 90.353 233.162 89.693 233.162ZM96.0816 233V226.16C96.0816 225.8 96.0696 225.434 96.0456 225.062C96.0336 224.678 96.0036 224.306 95.9556 223.946H97.5396L97.7376 226.214L97.4676 226.232C97.5876 225.68 97.7916 225.224 98.0796 224.864C98.3796 224.492 98.7336 224.222 99.1416 224.054C99.5616 223.874 99.9936 223.784 100.438 223.784C100.63 223.784 100.792 223.79 100.924 223.802C101.056 223.814 101.188 223.844 101.32 223.892L101.284 225.35C101.104 225.278 100.936 225.236 100.78 225.224C100.636 225.2 100.456 225.188 100.24 225.188C99.7116 225.188 99.2556 225.308 98.8716 225.548C98.4996 225.788 98.2116 226.106 98.0076 226.502C97.8156 226.898 97.7196 227.324 97.7196 227.78V233H96.0816ZM107.391 237.032C106.599 237.032 105.873 236.936 105.213 236.744C104.553 236.552 103.959 236.258 103.431 235.862L103.863 234.656C104.235 234.908 104.601 235.112 104.961 235.268C105.321 235.424 105.693 235.538 106.077 235.61C106.473 235.682 106.881 235.718 107.301 235.718C108.189 235.718 108.855 235.49 109.299 235.034C109.743 234.578 109.965 233.93 109.965 233.09V230.552H110.145C109.953 231.236 109.557 231.782 108.957 232.19C108.369 232.586 107.673 232.784 106.869 232.784C106.053 232.784 105.339 232.604 104.727 232.244C104.127 231.872 103.659 231.35 103.323 230.678C102.987 229.994 102.819 229.196 102.819 228.284C102.819 227.36 102.987 226.562 103.323 225.89C103.659 225.218 104.127 224.702 104.727 224.342C105.339 223.97 106.053 223.784 106.869 223.784C107.673 223.784 108.369 223.982 108.957 224.378C109.545 224.774 109.935 225.32 110.127 226.016L109.965 225.854L110.127 223.946H111.711C111.675 224.306 111.639 224.666 111.603 225.026C111.579 225.386 111.567 225.74 111.567 226.088V232.892C111.567 234.236 111.213 235.262 110.505 235.97C109.809 236.678 108.771 237.032 107.391 237.032ZM107.229 231.488C108.057 231.488 108.717 231.206 109.209 230.642C109.701 230.078 109.947 229.292 109.947 228.284C109.947 227.264 109.701 226.478 109.209 225.926C108.717 225.374 108.057 225.098 107.229 225.098C106.389 225.098 105.717 225.374 105.213 225.926C104.721 226.478 104.475 227.264 104.475 228.284C104.475 229.292 104.721 230.078 105.213 230.642C105.717 231.206 106.389 231.488 107.229 231.488ZM115.03 233V223.946H116.668V233H115.03ZM114.886 221.966V220.202H116.83V221.966H114.886ZM124.249 233.162C122.809 233.162 121.669 232.748 120.829 231.92C120.001 231.092 119.587 229.952 119.587 228.5C119.587 227.54 119.767 226.712 120.127 226.016C120.499 225.308 121.009 224.762 121.657 224.378C122.305 223.982 123.061 223.784 123.925 223.784C124.753 223.784 125.455 223.964 126.031 224.324C126.607 224.672 127.045 225.17 127.345 225.818C127.645 226.466 127.795 227.234 127.795 228.122V228.662H120.865V227.69H126.679L126.373 227.924C126.373 226.988 126.163 226.262 125.743 225.746C125.335 225.23 124.729 224.972 123.925 224.972C123.049 224.972 122.371 225.278 121.891 225.89C121.411 226.49 121.171 227.312 121.171 228.356V228.518C121.171 229.622 121.441 230.456 121.981 231.02C122.533 231.584 123.295 231.866 124.267 231.866C124.807 231.866 125.311 231.788 125.779 231.632C126.247 231.476 126.697 231.218 127.129 230.858L127.669 231.992C127.261 232.364 126.751 232.652 126.139 232.856C125.539 233.06 124.909 233.162 124.249 233.162ZM133.715 233.162C132.983 233.162 132.299 233.066 131.663 232.874C131.039 232.682 130.523 232.406 130.115 232.046L130.637 230.912C131.081 231.248 131.567 231.506 132.095 231.686C132.635 231.854 133.187 231.938 133.751 231.938C134.435 231.938 134.951 231.812 135.299 231.56C135.659 231.308 135.839 230.972 135.839 230.552C135.839 230.216 135.725 229.946 135.497 229.742C135.269 229.538 134.909 229.388 134.417 229.292L132.707 228.95C131.939 228.77 131.357 228.482 130.961 228.086C130.577 227.678 130.385 227.156 130.385 226.52C130.385 225.992 130.529 225.524 130.817 225.116C131.105 224.696 131.513 224.372 132.041 224.144C132.581 223.904 133.211 223.784 133.931 223.784C134.591 223.784 135.203 223.88 135.767 224.072C136.343 224.264 136.817 224.546 137.189 224.918L136.649 226.016C136.277 225.692 135.857 225.446 135.389 225.278C134.933 225.098 134.465 225.008 133.985 225.008C133.289 225.008 132.773 225.146 132.437 225.422C132.101 225.686 131.933 226.034 131.933 226.466C131.933 226.79 132.035 227.06 132.239 227.276C132.443 227.48 132.773 227.636 133.229 227.744L134.939 228.086C135.743 228.254 136.349 228.53 136.757 228.914C137.165 229.298 137.369 229.808 137.369 230.444C137.369 231.008 137.213 231.494 136.901 231.902C136.601 232.31 136.175 232.622 135.623 232.838C135.083 233.054 134.447 233.162 133.715 233.162Z" fill="black"/>
<line x1="289" y1="223" x2="548" y2="223" stroke="#DFEAF0" stroke-width="6" stroke-linecap="round"/>
</g>
<defs>
<filter id="filter0_d_609_1149" x="0" y="0" width="611" height="360" filterUnits="userSpaceOnUse" color-interpolation-filters="sRGB">
<feFlood flood-opacity="0" result="BackgroundImageFix"/>
<feColorMatrix in="SourceAlpha" type="matrix" values="0 0 0 0 0 0 0 0 0 0 0 0 0 0 0 0 0 0 127 0" result="hardAlpha"/>
<feOffset dy="20"/>
<feGaussianBlur stdDeviation="15"/>
<feComposite in2="hardAlpha" operator="out"/>
<feColorMatrix type="matrix" values="0 0 0 0 0.663462 0 0 0 0 0.663462 0 0 0 0 0.663462 0 0 0 0.16 0"/>
<feBlend mode="normal" in2="BackgroundImageFix" result="effect1_dropShadow_609_1149"/>
<feBlend mode="normal" in="SourceGraphic" in2="effect1_dropShadow_609_1149" result="shape"/>
</filter>
</defs>
</svg>
