<svg width="611" height="358" viewBox="0 0 611 358" fill="none" xmlns="http://www.w3.org/2000/svg">
<g filter="url(#filter0_d_609_1213)">
<rect x="30" y="10" width="551" height="298" rx="12" fill="white" shape-rendering="crispEdges"/>
<rect x="30.5" y="10.5" width="550" height="297" rx="11.5" stroke="#C2FCFF" shape-rendering="crispEdges"/>
<rect x="30.5" y="10.5" width="550" height="297" rx="11.5" fill="white"/>
<rect x="30.5" y="10.5" width="550" height="297" rx="11.5" stroke="#C2FCFF"/>
<line x1="63" y1="37" x2="512" y2="37" stroke="#DFEAF0" stroke-width="6" stroke-linecap="round"/>
<line x1="63" y1="61" x2="359" y2="61" stroke="#DFEAF0" stroke-width="6" stroke-linecap="round"/>
<line x1="63" y1="85" x2="439" y2="85" stroke="#DFEAF0" stroke-width="6" stroke-linecap="round"/>
<mask id="path-7-inside-1_609_1213" fill="white">
<path d="M30 100H581V144H30V100Z"/>
</mask>
<path d="M30 100V101H581V100V99H30V100Z" fill="#C2FCFF" mask="url(#path-7-inside-1_609_1213)"/>
<path d="M60 128L65.104 116.72H66.832L72 128H69.904L68.528 124.832L69.36 125.392H62.592L63.456 124.832L62.08 128H60ZM65.952 118.928L63.696 124.272L63.28 123.776H68.656L68.32 124.272L66.016 118.928H65.952ZM76.64 128.16C75.648 128.16 74.9067 127.888 74.416 127.344C73.9253 126.8 73.68 125.968 73.68 124.848V119.92H75.68V124.832C75.68 125.429 75.8027 125.872 76.048 126.16C76.2933 126.437 76.6667 126.576 77.168 126.576C77.7333 126.576 78.192 126.384 78.544 126C78.9067 125.616 79.088 125.109 79.088 124.48V119.92H81.088V128H79.136V126.352H79.36C79.1253 126.928 78.768 127.376 78.288 127.696C77.8187 128.005 77.2693 128.16 76.64 128.16ZM87.3553 128.16C86.3953 128.16 85.6699 127.909 85.1793 127.408C84.6886 126.907 84.4433 126.155 84.4433 125.152V121.424H82.8913V119.92H84.4433V117.856L86.4433 117.344V119.92H88.6033V121.424H86.4433V125.024C86.4433 125.579 86.5499 125.968 86.7633 126.192C86.9766 126.416 87.2699 126.528 87.6433 126.528C87.8459 126.528 88.0166 126.512 88.1553 126.48C88.3046 126.448 88.4486 126.405 88.5873 126.352V127.936C88.4059 128.011 88.2033 128.064 87.9793 128.096C87.7659 128.139 87.5579 128.16 87.3553 128.16ZM94.1716 128.16C93.3396 128.16 92.6196 127.989 92.0116 127.648C91.4036 127.307 90.929 126.821 90.5876 126.192C90.257 125.563 90.0916 124.816 90.0916 123.952C90.0916 123.088 90.257 122.347 90.5876 121.728C90.929 121.099 91.4036 120.613 92.0116 120.272C92.6196 119.931 93.3396 119.76 94.1716 119.76C95.0036 119.76 95.7236 119.931 96.3316 120.272C96.9503 120.613 97.425 121.099 97.7556 121.728C98.097 122.347 98.2676 123.088 98.2676 123.952C98.2676 124.816 98.097 125.563 97.7556 126.192C97.425 126.821 96.9503 127.307 96.3316 127.648C95.7236 127.989 95.0036 128.16 94.1716 128.16ZM94.1716 126.624C94.801 126.624 95.3023 126.405 95.6756 125.968C96.049 125.52 96.2356 124.848 96.2356 123.952C96.2356 123.056 96.049 122.389 95.6756 121.952C95.3023 121.515 94.801 121.296 94.1716 121.296C93.5423 121.296 93.041 121.515 92.6676 121.952C92.2943 122.389 92.1076 123.056 92.1076 123.952C92.1076 124.848 92.2943 125.52 92.6676 125.968C93.041 126.405 93.5423 126.624 94.1716 126.624ZM100.851 124.384V122.8H105.715V124.384H100.851ZM108.522 131.456V121.936C108.522 121.605 108.512 121.269 108.49 120.928C108.469 120.587 108.437 120.251 108.394 119.92H110.33L110.506 121.616H110.33C110.49 121.051 110.826 120.603 111.338 120.272C111.861 119.931 112.464 119.76 113.146 119.76C113.861 119.76 114.485 119.931 115.018 120.272C115.552 120.603 115.968 121.083 116.266 121.712C116.565 122.331 116.714 123.077 116.714 123.952C116.714 124.827 116.565 125.579 116.266 126.208C115.968 126.837 115.552 127.323 115.018 127.664C114.485 127.995 113.861 128.16 113.146 128.16C112.474 128.16 111.882 127.995 111.37 127.664C110.858 127.333 110.517 126.891 110.346 126.336H110.522V131.456H108.522ZM112.586 126.624C113.226 126.624 113.738 126.405 114.122 125.968C114.506 125.52 114.698 124.848 114.698 123.952C114.698 123.056 114.506 122.389 114.122 121.952C113.738 121.515 113.226 121.296 112.586 121.296C111.957 121.296 111.45 121.515 111.066 121.952C110.682 122.389 110.49 123.056 110.49 123.952C110.49 124.848 110.682 125.52 111.066 125.968C111.45 126.405 111.957 126.624 112.586 126.624ZM122.732 128.16C121.9 128.16 121.18 127.989 120.572 127.648C119.964 127.307 119.49 126.821 119.148 126.192C118.818 125.563 118.652 124.816 118.652 123.952C118.652 123.088 118.818 122.347 119.148 121.728C119.49 121.099 119.964 120.613 120.572 120.272C121.18 119.931 121.9 119.76 122.732 119.76C123.564 119.76 124.284 119.931 124.892 120.272C125.511 120.613 125.986 121.099 126.316 121.728C126.658 122.347 126.828 123.088 126.828 123.952C126.828 124.816 126.658 125.563 126.316 126.192C125.986 126.821 125.511 127.307 124.892 127.648C124.284 127.989 123.564 128.16 122.732 128.16ZM122.732 126.624C123.362 126.624 123.863 126.405 124.236 125.968C124.61 125.52 124.796 124.848 124.796 123.952C124.796 123.056 124.61 122.389 124.236 121.952C123.863 121.515 123.362 121.296 122.732 121.296C122.103 121.296 121.602 121.515 121.228 121.952C120.855 122.389 120.668 123.056 120.668 123.952C120.668 124.848 120.855 125.52 121.228 125.968C121.602 126.405 122.103 126.624 122.732 126.624ZM129.193 131.456V121.936C129.193 121.605 129.182 121.269 129.161 120.928C129.14 120.587 129.108 120.251 129.065 119.92H131.001L131.177 121.616H131.001C131.161 121.051 131.497 120.603 132.009 120.272C132.532 119.931 133.134 119.76 133.817 119.76C134.532 119.76 135.156 119.931 135.689 120.272C136.222 120.603 136.638 121.083 136.937 121.712C137.236 122.331 137.385 123.077 137.385 123.952C137.385 124.827 137.236 125.579 136.937 126.208C136.638 126.837 136.222 127.323 135.689 127.664C135.156 127.995 134.532 128.16 133.817 128.16C133.145 128.16 132.553 127.995 132.041 127.664C131.529 127.333 131.188 126.891 131.017 126.336H131.193V131.456H129.193ZM133.257 126.624C133.897 126.624 134.409 126.405 134.793 125.968C135.177 125.52 135.369 124.848 135.369 123.952C135.369 123.056 135.177 122.389 134.793 121.952C134.409 121.515 133.897 121.296 133.257 121.296C132.628 121.296 132.121 121.515 131.737 121.952C131.353 122.389 131.161 123.056 131.161 123.952C131.161 124.848 131.353 125.52 131.737 125.968C132.121 126.405 132.628 126.624 133.257 126.624ZM142.667 128.16C141.675 128.16 140.934 127.888 140.443 127.344C139.952 126.8 139.707 125.968 139.707 124.848V119.92H141.707V124.832C141.707 125.429 141.83 125.872 142.075 126.16C142.32 126.437 142.694 126.576 143.195 126.576C143.76 126.576 144.219 126.384 144.571 126C144.934 125.616 145.115 125.109 145.115 124.48V119.92H147.115V128H145.163V126.352H145.387C145.152 126.928 144.795 127.376 144.315 127.696C143.846 128.005 143.296 128.16 142.667 128.16ZM149.926 128V116.224H151.926V128H149.926ZM157.858 128.16C157.154 128.16 156.535 127.995 156.002 127.664C155.469 127.323 155.053 126.837 154.754 126.208C154.455 125.579 154.306 124.827 154.306 123.952C154.306 123.077 154.455 122.331 154.754 121.712C155.053 121.083 155.469 120.603 156.002 120.272C156.535 119.931 157.154 119.76 157.858 119.76C158.541 119.76 159.138 119.931 159.65 120.272C160.173 120.603 160.519 121.051 160.69 121.616H160.514L160.69 119.92H162.61C162.578 120.251 162.546 120.587 162.514 120.928C162.493 121.269 162.482 121.605 162.482 121.936V128H160.498L160.482 126.336H160.674C160.503 126.891 160.157 127.333 159.634 127.664C159.111 127.995 158.519 128.16 157.858 128.16ZM158.418 126.624C159.047 126.624 159.554 126.405 159.938 125.968C160.322 125.52 160.514 124.848 160.514 123.952C160.514 123.056 160.322 122.389 159.938 121.952C159.554 121.515 159.047 121.296 158.418 121.296C157.789 121.296 157.282 121.515 156.898 121.952C156.514 122.389 156.322 123.056 156.322 123.952C156.322 124.848 156.509 125.52 156.882 125.968C157.266 126.405 157.778 126.624 158.418 126.624ZM168.756 128.16C167.796 128.16 167.071 127.909 166.58 127.408C166.089 126.907 165.844 126.155 165.844 125.152V121.424H164.292V119.92H165.844V117.856L167.844 117.344V119.92H170.004V121.424H167.844V125.024C167.844 125.579 167.951 125.968 168.164 126.192C168.377 126.416 168.671 126.528 169.044 126.528C169.247 126.528 169.417 126.512 169.556 126.48C169.705 126.448 169.849 126.405 169.988 126.352V127.936C169.807 128.011 169.604 128.064 169.38 128.096C169.167 128.139 168.959 128.16 168.756 128.16ZM172.002 128V119.92H174.002V128H172.002ZM171.89 118.4V116.448H174.114V118.4H171.89ZM180.462 128.16C179.63 128.16 178.91 127.989 178.302 127.648C177.694 127.307 177.22 126.821 176.878 126.192C176.548 125.563 176.382 124.816 176.382 123.952C176.382 123.088 176.548 122.347 176.878 121.728C177.22 121.099 177.694 120.613 178.302 120.272C178.91 119.931 179.63 119.76 180.462 119.76C181.294 119.76 182.014 119.931 182.622 120.272C183.241 120.613 183.716 121.099 184.046 121.728C184.388 122.347 184.558 123.088 184.558 123.952C184.558 124.816 184.388 125.563 184.046 126.192C183.716 126.821 183.241 127.307 182.622 127.648C182.014 127.989 181.294 128.16 180.462 128.16ZM180.462 126.624C181.092 126.624 181.593 126.405 181.966 125.968C182.34 125.52 182.526 124.848 182.526 123.952C182.526 123.056 182.34 122.389 181.966 121.952C181.593 121.515 181.092 121.296 180.462 121.296C179.833 121.296 179.332 121.515 178.958 121.952C178.585 122.389 178.398 123.056 178.398 123.952C178.398 124.848 178.585 125.52 178.958 125.968C179.332 126.405 179.833 126.624 180.462 126.624ZM186.923 128V121.936C186.923 121.605 186.912 121.269 186.891 120.928C186.87 120.587 186.838 120.251 186.795 119.92H188.731L188.891 121.52H188.699C188.955 120.955 189.334 120.523 189.835 120.224C190.336 119.915 190.918 119.76 191.579 119.76C192.528 119.76 193.243 120.027 193.723 120.56C194.203 121.093 194.443 121.925 194.443 123.056V128H192.443V123.152C192.443 122.501 192.315 122.037 192.059 121.76C191.814 121.472 191.44 121.328 190.939 121.328C190.32 121.328 189.83 121.52 189.467 121.904C189.104 122.288 188.923 122.8 188.923 123.44V128H186.923ZM205.946 128.16C205.114 128.16 204.384 127.989 203.754 127.648C203.136 127.307 202.656 126.821 202.314 126.192C201.973 125.552 201.802 124.795 201.802 123.92C201.802 123.045 201.973 122.299 202.314 121.68C202.666 121.061 203.152 120.587 203.77 120.256C204.389 119.925 205.114 119.76 205.946 119.76C206.48 119.76 206.997 119.845 207.498 120.016C208.01 120.176 208.426 120.411 208.746 120.72L208.138 122.112C207.85 121.845 207.525 121.648 207.162 121.52C206.81 121.381 206.464 121.312 206.122 121.312C205.408 121.312 204.848 121.536 204.442 121.984C204.048 122.432 203.85 123.083 203.85 123.936C203.85 124.789 204.048 125.445 204.442 125.904C204.848 126.363 205.408 126.592 206.122 126.592C206.453 126.592 206.794 126.528 207.146 126.4C207.509 126.272 207.84 126.075 208.138 125.808L208.746 127.184C208.416 127.493 207.994 127.733 207.482 127.904C206.981 128.075 206.469 128.16 205.946 128.16ZM210.937 128V116.224H212.937V128H210.937ZM215.749 128V119.92H217.749V128H215.749ZM215.637 118.4V116.448H217.861V118.4H215.637ZM220.561 128V121.936C220.561 121.605 220.55 121.269 220.529 120.928C220.507 120.587 220.475 120.251 220.433 119.92H222.369L222.529 121.52H222.337C222.593 120.955 222.971 120.523 223.473 120.224C223.974 119.915 224.555 119.76 225.217 119.76C226.166 119.76 226.881 120.027 227.361 120.56C227.841 121.093 228.081 121.925 228.081 123.056V128H226.081V123.152C226.081 122.501 225.953 122.037 225.697 121.76C225.451 121.472 225.078 121.328 224.577 121.328C223.958 121.328 223.467 121.52 223.105 121.904C222.742 122.288 222.561 122.8 222.561 123.44V128H220.561ZM230.841 128V119.92H232.841V128H230.841ZM230.729 118.4V116.448H232.953V118.4H230.729ZM239.365 128.16C238.533 128.16 237.802 127.989 237.173 127.648C236.554 127.307 236.074 126.821 235.733 126.192C235.392 125.552 235.221 124.795 235.221 123.92C235.221 123.045 235.392 122.299 235.733 121.68C236.085 121.061 236.57 120.587 237.189 120.256C237.808 119.925 238.533 119.76 239.365 119.76C239.898 119.76 240.416 119.845 240.917 120.016C241.429 120.176 241.845 120.411 242.165 120.72L241.557 122.112C241.269 121.845 240.944 121.648 240.581 121.52C240.229 121.381 239.882 121.312 239.541 121.312C238.826 121.312 238.266 121.536 237.861 121.984C237.466 122.432 237.269 123.083 237.269 123.936C237.269 124.789 237.466 125.445 237.861 125.904C238.266 126.363 238.826 126.592 239.541 126.592C239.872 126.592 240.213 126.528 240.565 126.4C240.928 126.272 241.258 126.075 241.557 125.808L242.165 127.184C241.834 127.493 241.413 127.733 240.901 127.904C240.4 128.075 239.888 128.16 239.365 128.16ZM247.429 128.16C246.725 128.16 246.106 127.995 245.573 127.664C245.039 127.323 244.623 126.837 244.325 126.208C244.026 125.579 243.877 124.827 243.877 123.952C243.877 123.077 244.026 122.331 244.325 121.712C244.623 121.083 245.039 120.603 245.573 120.272C246.106 119.931 246.725 119.76 247.429 119.76C248.111 119.76 248.709 119.931 249.221 120.272C249.743 120.603 250.09 121.051 250.261 121.616H250.085L250.261 119.92H252.181C252.149 120.251 252.117 120.587 252.085 120.928C252.063 121.269 252.053 121.605 252.053 121.936V128H250.069L250.053 126.336H250.245C250.074 126.891 249.727 127.333 249.205 127.664C248.682 127.995 248.09 128.16 247.429 128.16ZM247.989 126.624C248.618 126.624 249.125 126.405 249.509 125.968C249.893 125.52 250.085 124.848 250.085 123.952C250.085 123.056 249.893 122.389 249.509 121.952C249.125 121.515 248.618 121.296 247.989 121.296C247.359 121.296 246.853 121.515 246.469 121.952C246.085 122.389 245.893 123.056 245.893 123.952C245.893 124.848 246.079 125.52 246.453 125.968C246.837 126.405 247.349 126.624 247.989 126.624ZM254.871 128V116.224H256.871V128H254.871ZM264.713 128V121.936C264.713 121.605 264.702 121.269 264.681 120.928C264.66 120.587 264.628 120.251 264.585 119.92H266.521L266.681 121.52H266.489C266.713 120.965 267.054 120.533 267.513 120.224C267.982 119.915 268.537 119.76 269.177 119.76C269.817 119.76 270.345 119.915 270.761 120.224C271.188 120.523 271.486 120.992 271.657 121.632H271.401C271.625 121.056 271.993 120.603 272.505 120.272C273.017 119.931 273.604 119.76 274.265 119.76C275.172 119.76 275.849 120.027 276.297 120.56C276.745 121.093 276.969 121.925 276.969 123.056V128H274.969V123.136C274.969 122.496 274.862 122.037 274.649 121.76C274.436 121.472 274.094 121.328 273.625 121.328C273.07 121.328 272.633 121.525 272.313 121.92C271.993 122.304 271.833 122.827 271.833 123.488V128H269.833V123.136C269.833 122.496 269.726 122.037 269.513 121.76C269.3 121.472 268.958 121.328 268.489 121.328C267.934 121.328 267.497 121.525 267.177 121.92C266.868 122.304 266.713 122.827 266.713 123.488V128H264.713ZM283.392 128.16C282.56 128.16 281.84 127.989 281.232 127.648C280.624 127.307 280.149 126.821 279.808 126.192C279.477 125.563 279.312 124.816 279.312 123.952C279.312 123.088 279.477 122.347 279.808 121.728C280.149 121.099 280.624 120.613 281.232 120.272C281.84 119.931 282.56 119.76 283.392 119.76C284.224 119.76 284.944 119.931 285.552 120.272C286.17 120.613 286.645 121.099 286.976 121.728C287.317 122.347 287.488 123.088 287.488 123.952C287.488 124.816 287.317 125.563 286.976 126.192C286.645 126.821 286.17 127.307 285.552 127.648C284.944 127.989 284.224 128.16 283.392 128.16ZM283.392 126.624C284.021 126.624 284.522 126.405 284.896 125.968C285.269 125.52 285.456 124.848 285.456 123.952C285.456 123.056 285.269 122.389 284.896 121.952C284.522 121.515 284.021 121.296 283.392 121.296C282.762 121.296 282.261 121.515 281.888 121.952C281.514 122.389 281.328 123.056 281.328 123.952C281.328 124.848 281.514 125.52 281.888 125.968C282.261 126.405 282.762 126.624 283.392 126.624ZM293.23 128.16C292.27 128.16 291.545 127.909 291.054 127.408C290.564 126.907 290.318 126.155 290.318 125.152V121.424H288.766V119.92H290.318V117.856L292.318 117.344V119.92H294.478V121.424H292.318V125.024C292.318 125.579 292.425 125.968 292.638 126.192C292.852 126.416 293.145 126.528 293.518 126.528C293.721 126.528 293.892 126.512 294.03 126.48C294.18 126.448 294.324 126.405 294.462 126.352V127.936C294.281 128.011 294.078 128.064 293.854 128.096C293.641 128.139 293.433 128.16 293.23 128.16ZM300.303 128.16C298.948 128.16 297.887 127.787 297.119 127.04C296.351 126.293 295.967 125.269 295.967 123.968C295.967 123.125 296.132 122.389 296.463 121.76C296.793 121.131 297.252 120.64 297.839 120.288C298.436 119.936 299.129 119.76 299.919 119.76C300.697 119.76 301.348 119.925 301.871 120.256C302.393 120.587 302.788 121.051 303.055 121.648C303.332 122.245 303.471 122.944 303.471 123.744V124.272H297.583V123.216H302.047L301.775 123.44C301.775 122.693 301.615 122.123 301.295 121.728C300.985 121.333 300.532 121.136 299.935 121.136C299.273 121.136 298.761 121.371 298.399 121.84C298.047 122.309 297.871 122.965 297.871 123.808V124.016C297.871 124.891 298.084 125.547 298.511 125.984C298.948 126.411 299.561 126.624 300.351 126.624C300.809 126.624 301.236 126.565 301.631 126.448C302.036 126.32 302.42 126.117 302.783 125.84L303.375 127.184C302.991 127.493 302.532 127.733 301.999 127.904C301.465 128.075 300.9 128.16 300.303 128.16Z" fill="black"/>
<mask id="path-10-inside-2_609_1213" fill="white">
<path d="M63 162C63 158.686 65.6863 156 69 156H545C548.314 156 551 158.686 551 162V272C551 275.314 548.314 278 545 278H69C65.6863 278 63 275.314 63 272V162Z"/>
</mask>
<path d="M63 162C63 158.686 65.6863 156 69 156H545C548.314 156 551 158.686 551 162V272C551 275.314 548.314 278 545 278H69C65.6863 278 63 275.314 63 272V162Z" fill="#E5F7F8"/>
<path d="M63 156H551H63M63 156M551 278H63H551M69 278C64.0294 278 60 273.971 60 269V165C60 160.029 64.0294 156 69 156C67.3431 156 66 158.686 66 162V272C66 275.314 67.3431 278 69 278ZM69 278M551 156V278V156" fill="#00ADB5" mask="url(#path-10-inside-2_609_1213)"/>
<path d="M87 199L93.38 184.9H95.54L102 199H99.38L97.66 195.04L98.7 195.74H90.24L91.32 195.04L89.6 199H87ZM94.44 187.66L91.62 194.34L91.1 193.72H97.82L97.4 194.34L94.52 187.66H94.44ZM103.56 199V184.9H106.14V199H103.56ZM119.652 199.2C118.519 199.2 117.472 199.06 116.512 198.78C115.565 198.487 114.752 198.087 114.072 197.58L114.872 195.56C115.325 195.88 115.799 196.153 116.292 196.38C116.785 196.593 117.312 196.76 117.872 196.88C118.432 196.987 119.025 197.04 119.652 197.04C120.705 197.04 121.465 196.867 121.932 196.52C122.399 196.173 122.632 195.72 122.632 195.16C122.632 194.667 122.472 194.293 122.152 194.04C121.832 193.773 121.259 193.553 120.432 193.38L118.172 192.92C116.879 192.653 115.912 192.207 115.272 191.58C114.632 190.953 114.312 190.113 114.312 189.06C114.312 188.18 114.545 187.413 115.012 186.76C115.479 186.107 116.132 185.6 116.972 185.24C117.812 184.88 118.792 184.7 119.912 184.7C120.912 184.7 121.839 184.847 122.692 185.14C123.545 185.42 124.259 185.827 124.832 186.36L124.032 188.28C123.459 187.8 122.832 187.447 122.152 187.22C121.472 186.98 120.712 186.86 119.872 186.86C118.925 186.86 118.185 187.047 117.652 187.42C117.132 187.78 116.872 188.28 116.872 188.92C116.872 189.413 117.032 189.807 117.352 190.1C117.685 190.393 118.245 190.62 119.032 190.78L121.272 191.22C122.605 191.487 123.592 191.927 124.232 192.54C124.872 193.14 125.192 193.953 125.192 194.98C125.192 195.82 124.965 196.56 124.512 197.2C124.059 197.827 123.419 198.32 122.592 198.68C121.765 199.027 120.785 199.2 119.652 199.2ZM132.063 199.2C131.023 199.2 130.109 198.987 129.323 198.56C128.549 198.133 127.949 197.527 127.523 196.74C127.096 195.94 126.883 194.993 126.883 193.9C126.883 192.807 127.096 191.873 127.523 191.1C127.963 190.327 128.569 189.733 129.343 189.32C130.116 188.907 131.023 188.7 132.063 188.7C132.729 188.7 133.376 188.807 134.003 189.02C134.643 189.22 135.163 189.513 135.563 189.9L134.803 191.64C134.443 191.307 134.036 191.06 133.583 190.9C133.143 190.727 132.709 190.64 132.283 190.64C131.389 190.64 130.689 190.92 130.183 191.48C129.689 192.04 129.443 192.853 129.443 193.92C129.443 194.987 129.689 195.807 130.183 196.38C130.689 196.953 131.389 197.24 132.283 197.24C132.696 197.24 133.123 197.16 133.563 197C134.016 196.84 134.429 196.593 134.803 196.26L135.563 197.98C135.149 198.367 134.623 198.667 133.983 198.88C133.356 199.093 132.716 199.2 132.063 199.2ZM137.481 199V191.48C137.481 191.053 137.467 190.62 137.441 190.18C137.427 189.74 137.394 189.313 137.341 188.9H139.761L140.041 191.66H139.641C139.774 190.993 139.994 190.44 140.301 190C140.621 189.56 141.007 189.233 141.461 189.02C141.914 188.807 142.407 188.7 142.941 188.7C143.181 188.7 143.374 188.713 143.521 188.74C143.667 188.753 143.814 188.787 143.961 188.84L143.941 191.04C143.687 190.933 143.467 190.867 143.281 190.84C143.107 190.813 142.887 190.8 142.621 190.8C142.047 190.8 141.561 190.92 141.161 191.16C140.774 191.4 140.481 191.733 140.281 192.16C140.094 192.587 140.001 193.073 140.001 193.62V199H137.481ZM145.352 199V188.9H147.852V199H145.352ZM145.212 187V184.56H147.992V187H145.212ZM156.347 199.2C155.494 199.2 154.747 198.993 154.107 198.58C153.467 198.153 153.04 197.58 152.827 196.86H153.047V199H150.567V184.28H153.067V190.96H152.827C153.054 190.267 153.487 189.72 154.127 189.32C154.767 188.907 155.507 188.7 156.347 188.7C157.24 188.7 158.02 188.913 158.687 189.34C159.354 189.767 159.874 190.373 160.247 191.16C160.62 191.933 160.807 192.867 160.807 193.96C160.807 195.053 160.62 195.993 160.247 196.78C159.874 197.553 159.347 198.153 158.667 198.58C158 198.993 157.227 199.2 156.347 199.2ZM155.647 197.28C156.434 197.28 157.067 197.007 157.547 196.46C158.04 195.913 158.287 195.08 158.287 193.96C158.287 192.84 158.04 192.007 157.547 191.46C157.067 190.9 156.434 190.62 155.647 190.62C154.86 190.62 154.227 190.893 153.747 191.44C153.267 191.987 153.027 192.82 153.027 193.94C153.027 195.06 153.267 195.9 153.747 196.46C154.227 197.007 154.86 197.28 155.647 197.28ZM167.849 199.2C166.156 199.2 164.829 198.733 163.869 197.8C162.909 196.867 162.429 195.587 162.429 193.96C162.429 192.907 162.636 191.987 163.049 191.2C163.463 190.413 164.036 189.8 164.769 189.36C165.516 188.92 166.383 188.7 167.369 188.7C168.343 188.7 169.156 188.907 169.809 189.32C170.463 189.733 170.956 190.313 171.289 191.06C171.636 191.807 171.809 192.68 171.809 193.68V194.34H164.449V193.02H170.029L169.689 193.3C169.689 192.367 169.489 191.653 169.089 191.16C168.703 190.667 168.136 190.42 167.389 190.42C166.563 190.42 165.923 190.713 165.469 191.3C165.029 191.887 164.809 192.707 164.809 193.76V194.02C164.809 195.113 165.076 195.933 165.609 196.48C166.156 197.013 166.923 197.28 167.909 197.28C168.483 197.28 169.016 197.207 169.509 197.06C170.016 196.9 170.496 196.647 170.949 196.3L171.689 197.98C171.209 198.367 170.636 198.667 169.969 198.88C169.303 199.093 168.596 199.2 167.849 199.2ZM183.015 199.2C182.148 199.2 181.348 199.1 180.615 198.9C179.895 198.687 179.288 198.393 178.795 198.02L179.495 196.34C180.001 196.687 180.561 196.953 181.175 197.14C181.788 197.327 182.408 197.42 183.035 197.42C183.701 197.42 184.195 197.307 184.515 197.08C184.848 196.853 185.015 196.547 185.015 196.16C185.015 195.853 184.908 195.613 184.695 195.44C184.495 195.253 184.168 195.113 183.715 195.02L181.715 194.64C180.861 194.453 180.208 194.133 179.755 193.68C179.315 193.227 179.095 192.633 179.095 191.9C179.095 191.273 179.261 190.72 179.595 190.24C179.941 189.76 180.428 189.387 181.055 189.12C181.695 188.84 182.441 188.7 183.295 188.7C184.041 188.7 184.741 188.8 185.395 189C186.061 189.2 186.621 189.5 187.075 189.9L186.355 191.52C185.941 191.187 185.468 190.927 184.935 190.74C184.401 190.553 183.881 190.46 183.375 190.46C182.681 190.46 182.175 190.587 181.855 190.84C181.535 191.08 181.375 191.393 181.375 191.78C181.375 192.073 181.468 192.32 181.655 192.52C181.855 192.707 182.161 192.847 182.575 192.94L184.575 193.32C185.468 193.493 186.141 193.8 186.595 194.24C187.061 194.667 187.295 195.253 187.295 196C187.295 196.667 187.115 197.24 186.755 197.72C186.395 198.2 185.895 198.567 185.255 198.82C184.615 199.073 183.868 199.2 183.015 199.2ZM193.074 199.2C191.834 199.2 190.908 198.86 190.294 198.18C189.681 197.5 189.374 196.46 189.374 195.06V188.9H191.874V195.04C191.874 195.787 192.028 196.34 192.334 196.7C192.641 197.047 193.108 197.22 193.734 197.22C194.441 197.22 195.014 196.98 195.454 196.5C195.908 196.02 196.134 195.387 196.134 194.6V188.9H198.634V199H196.194V196.94H196.474C196.181 197.66 195.734 198.22 195.134 198.62C194.548 199.007 193.861 199.2 193.074 199.2ZM206.028 203.48C205.095 203.48 204.248 203.38 203.488 203.18C202.742 202.98 202.075 202.673 201.488 202.26L202.028 200.46C202.415 200.713 202.815 200.92 203.228 201.08C203.642 201.24 204.068 201.36 204.508 201.44C204.948 201.52 205.395 201.56 205.848 201.56C206.782 201.56 207.475 201.327 207.928 200.86C208.395 200.407 208.628 199.753 208.628 198.9V196.48H208.828C208.615 197.173 208.182 197.727 207.528 198.14C206.888 198.553 206.148 198.76 205.308 198.76C204.402 198.76 203.608 198.56 202.928 198.16C202.262 197.747 201.742 197.16 201.368 196.4C200.995 195.64 200.808 194.747 200.808 193.72C200.808 192.693 200.995 191.807 201.368 191.06C201.742 190.3 202.262 189.72 202.928 189.32C203.608 188.907 204.402 188.7 205.308 188.7C206.162 188.7 206.902 188.907 207.528 189.32C208.168 189.72 208.595 190.267 208.808 190.96L208.628 190.84L208.828 188.9H211.248C211.195 189.313 211.155 189.733 211.128 190.16C211.102 190.587 211.088 191.007 211.088 191.42V198.6C211.088 200.187 210.655 201.393 209.788 202.22C208.935 203.06 207.682 203.48 206.028 203.48ZM205.988 196.84C206.788 196.84 207.422 196.573 207.888 196.04C208.368 195.493 208.608 194.72 208.608 193.72C208.608 192.72 208.368 191.953 207.888 191.42C207.422 190.887 206.788 190.62 205.988 190.62C205.175 190.62 204.528 190.887 204.048 191.42C203.568 191.953 203.328 192.72 203.328 193.72C203.328 194.72 203.568 195.493 204.048 196.04C204.528 196.573 205.175 196.84 205.988 196.84ZM218.47 203.48C217.536 203.48 216.69 203.38 215.93 203.18C215.183 202.98 214.516 202.673 213.93 202.26L214.47 200.46C214.856 200.713 215.256 200.92 215.67 201.08C216.083 201.24 216.51 201.36 216.95 201.44C217.39 201.52 217.836 201.56 218.29 201.56C219.223 201.56 219.916 201.327 220.37 200.86C220.836 200.407 221.07 199.753 221.07 198.9V196.48H221.27C221.056 197.173 220.623 197.727 219.97 198.14C219.33 198.553 218.59 198.76 217.75 198.76C216.843 198.76 216.05 198.56 215.37 198.16C214.703 197.747 214.183 197.16 213.81 196.4C213.436 195.64 213.25 194.747 213.25 193.72C213.25 192.693 213.436 191.807 213.81 191.06C214.183 190.3 214.703 189.72 215.37 189.32C216.05 188.907 216.843 188.7 217.75 188.7C218.603 188.7 219.343 188.907 219.97 189.32C220.61 189.72 221.036 190.267 221.25 190.96L221.07 190.84L221.27 188.9H223.69C223.636 189.313 223.596 189.733 223.57 190.16C223.543 190.587 223.53 191.007 223.53 191.42V198.6C223.53 200.187 223.096 201.393 222.23 202.22C221.376 203.06 220.123 203.48 218.47 203.48ZM218.43 196.84C219.23 196.84 219.863 196.573 220.33 196.04C220.81 195.493 221.05 194.72 221.05 193.72C221.05 192.72 220.81 191.953 220.33 191.42C219.863 190.887 219.23 190.62 218.43 190.62C217.616 190.62 216.97 190.887 216.49 191.42C216.01 191.953 215.77 192.72 215.77 193.72C215.77 194.72 216.01 195.493 216.49 196.04C216.97 196.573 217.616 196.84 218.43 196.84ZM231.111 199.2C229.418 199.2 228.091 198.733 227.131 197.8C226.171 196.867 225.691 195.587 225.691 193.96C225.691 192.907 225.898 191.987 226.311 191.2C226.724 190.413 227.298 189.8 228.031 189.36C228.778 188.92 229.644 188.7 230.631 188.7C231.604 188.7 232.418 188.907 233.071 189.32C233.724 189.733 234.218 190.313 234.551 191.06C234.898 191.807 235.071 192.68 235.071 193.68V194.34H227.711V193.02H233.291L232.951 193.3C232.951 192.367 232.751 191.653 232.351 191.16C231.964 190.667 231.398 190.42 230.651 190.42C229.824 190.42 229.184 190.713 228.731 191.3C228.291 191.887 228.071 192.707 228.071 193.76V194.02C228.071 195.113 228.338 195.933 228.871 196.48C229.418 197.013 230.184 197.28 231.171 197.28C231.744 197.28 232.278 197.207 232.771 197.06C233.278 196.9 233.758 196.647 234.211 196.3L234.951 197.98C234.471 198.367 233.898 198.667 233.231 198.88C232.564 199.093 231.858 199.2 231.111 199.2ZM240.788 199.2C239.921 199.2 239.121 199.1 238.388 198.9C237.668 198.687 237.061 198.393 236.568 198.02L237.268 196.34C237.775 196.687 238.335 196.953 238.948 197.14C239.561 197.327 240.181 197.42 240.808 197.42C241.475 197.42 241.968 197.307 242.288 197.08C242.621 196.853 242.788 196.547 242.788 196.16C242.788 195.853 242.681 195.613 242.468 195.44C242.268 195.253 241.941 195.113 241.488 195.02L239.488 194.64C238.635 194.453 237.981 194.133 237.528 193.68C237.088 193.227 236.868 192.633 236.868 191.9C236.868 191.273 237.035 190.72 237.368 190.24C237.715 189.76 238.201 189.387 238.828 189.12C239.468 188.84 240.215 188.7 241.068 188.7C241.815 188.7 242.515 188.8 243.168 189C243.835 189.2 244.395 189.5 244.848 189.9L244.128 191.52C243.715 191.187 243.241 190.927 242.708 190.74C242.175 190.553 241.655 190.46 241.148 190.46C240.455 190.46 239.948 190.587 239.628 190.84C239.308 191.08 239.148 191.393 239.148 191.78C239.148 192.073 239.241 192.32 239.428 192.52C239.628 192.707 239.935 192.847 240.348 192.94L242.348 193.32C243.241 193.493 243.915 193.8 244.368 194.24C244.835 194.667 245.068 195.253 245.068 196C245.068 196.667 244.888 197.24 244.528 197.72C244.168 198.2 243.668 198.567 243.028 198.82C242.388 199.073 241.641 199.2 240.788 199.2ZM251.43 199.2C250.23 199.2 249.323 198.887 248.71 198.26C248.097 197.633 247.79 196.693 247.79 195.44V190.78H245.85V188.9H247.79V186.32L250.29 185.68V188.9H252.99V190.78H250.29V195.28C250.29 195.973 250.423 196.46 250.69 196.74C250.957 197.02 251.323 197.16 251.79 197.16C252.043 197.16 252.257 197.14 252.43 197.1C252.617 197.06 252.797 197.007 252.97 196.94V198.92C252.743 199.013 252.49 199.08 252.21 199.12C251.943 199.173 251.683 199.2 251.43 199.2ZM258.288 199.2C257.421 199.2 256.621 199.1 255.888 198.9C255.168 198.687 254.561 198.393 254.068 198.02L254.768 196.34C255.275 196.687 255.835 196.953 256.448 197.14C257.061 197.327 257.681 197.42 258.308 197.42C258.975 197.42 259.468 197.307 259.788 197.08C260.121 196.853 260.288 196.547 260.288 196.16C260.288 195.853 260.181 195.613 259.968 195.44C259.768 195.253 259.441 195.113 258.988 195.02L256.988 194.64C256.135 194.453 255.481 194.133 255.028 193.68C254.588 193.227 254.368 192.633 254.368 191.9C254.368 191.273 254.535 190.72 254.868 190.24C255.215 189.76 255.701 189.387 256.328 189.12C256.968 188.84 257.715 188.7 258.568 188.7C259.315 188.7 260.015 188.8 260.668 189C261.335 189.2 261.895 189.5 262.348 189.9L261.628 191.52C261.215 191.187 260.741 190.927 260.208 190.74C259.675 190.553 259.155 190.46 258.648 190.46C257.955 190.46 257.448 190.587 257.128 190.84C256.808 191.08 256.648 191.393 256.648 191.78C256.648 192.073 256.741 192.32 256.928 192.52C257.128 192.707 257.435 192.847 257.848 192.94L259.848 193.32C260.741 193.493 261.415 193.8 261.868 194.24C262.335 194.667 262.568 195.253 262.568 196C262.568 196.667 262.388 197.24 262.028 197.72C261.668 198.2 261.168 198.567 260.528 198.82C259.888 199.073 259.141 199.2 258.288 199.2Z" fill="#00ADB5"/>
<path d="M87.976 223.288V222.072C87.976 221.613 88.0507 221.187 88.2 220.792C88.36 220.387 88.632 219.992 89.016 219.608L89.672 220.136C89.3733 220.445 89.1707 220.733 89.064 221C88.9573 221.256 88.904 221.528 88.904 221.816L88.504 221.512H89.752V223.288H87.976ZM90.776 223.288V222.072C90.776 221.613 90.8507 221.187 91 220.792C91.16 220.387 91.432 219.992 91.816 219.608L92.472 220.136C92.1733 220.445 91.9707 220.733 91.864 221C91.7573 221.256 91.704 221.528 91.704 221.816L91.304 221.512H92.552V223.288H90.776ZM100.11 231.144C98.9788 231.144 98.0082 230.909 97.1975 230.44C96.3975 229.971 95.7842 229.304 95.3575 228.44C94.9308 227.565 94.7175 226.536 94.7175 225.352C94.7175 224.168 94.9308 223.144 95.3575 222.28C95.7842 221.416 96.3975 220.749 97.1975 220.28C98.0082 219.811 98.9788 219.576 100.11 219.576C100.92 219.576 101.64 219.699 102.27 219.944C102.899 220.179 103.448 220.525 103.918 220.984L103.374 222.184C102.862 221.736 102.355 221.416 101.854 221.224C101.363 221.021 100.792 220.92 100.142 220.92C98.8935 220.92 97.9388 221.304 97.2775 222.072C96.6162 222.84 96.2855 223.933 96.2855 225.352C96.2855 226.771 96.6162 227.869 97.2775 228.648C97.9388 229.416 98.8935 229.8 100.142 229.8C100.792 229.8 101.363 229.704 101.854 229.512C102.355 229.309 102.862 228.984 103.374 228.536L103.918 229.72C103.448 230.179 102.894 230.531 102.254 230.776C101.624 231.021 100.91 231.144 100.11 231.144ZM109.076 231.144C108.287 231.144 107.604 230.979 107.028 230.648C106.452 230.307 106.004 229.827 105.684 229.208C105.364 228.579 105.204 227.832 105.204 226.968C105.204 226.115 105.364 225.379 105.684 224.76C106.004 224.131 106.452 223.651 107.028 223.32C107.604 222.979 108.287 222.808 109.076 222.808C109.865 222.808 110.548 222.979 111.124 223.32C111.711 223.651 112.159 224.131 112.468 224.76C112.788 225.379 112.948 226.115 112.948 226.968C112.948 227.832 112.788 228.579 112.468 229.208C112.159 229.827 111.711 230.307 111.124 230.648C110.548 230.979 109.865 231.144 109.076 231.144ZM109.076 229.992C109.801 229.992 110.383 229.736 110.82 229.224C111.257 228.712 111.476 227.96 111.476 226.968C111.476 225.976 111.257 225.229 110.82 224.728C110.383 224.227 109.801 223.976 109.076 223.976C108.34 223.976 107.753 224.227 107.316 224.728C106.889 225.229 106.676 225.976 106.676 226.968C106.676 227.96 106.889 228.712 107.316 229.224C107.753 229.736 108.34 229.992 109.076 229.992ZM115.223 231V224.856C115.223 224.547 115.212 224.232 115.191 223.912C115.17 223.592 115.138 223.272 115.095 222.952H116.503L116.663 224.68H116.471C116.716 224.072 117.095 223.608 117.607 223.288C118.119 222.968 118.716 222.808 119.399 222.808C120.348 222.808 121.063 223.069 121.543 223.592C122.023 224.104 122.263 224.904 122.263 225.992V231H120.807V226.072C120.807 225.336 120.663 224.808 120.375 224.488C120.087 224.157 119.639 223.992 119.031 223.992C118.306 223.992 117.73 224.211 117.303 224.648C116.887 225.085 116.679 225.677 116.679 226.424V231H115.223ZM127.685 231.144C127.034 231.144 126.426 231.059 125.861 230.888C125.306 230.717 124.847 230.472 124.485 230.152L124.949 229.144C125.343 229.443 125.775 229.672 126.245 229.832C126.725 229.981 127.215 230.056 127.717 230.056C128.325 230.056 128.783 229.944 129.093 229.72C129.413 229.496 129.573 229.197 129.573 228.824C129.573 228.525 129.471 228.285 129.269 228.104C129.066 227.923 128.746 227.789 128.309 227.704L126.789 227.4C126.106 227.24 125.589 226.984 125.237 226.632C124.895 226.269 124.725 225.805 124.725 225.24C124.725 224.771 124.853 224.355 125.109 223.992C125.365 223.619 125.727 223.331 126.197 223.128C126.677 222.915 127.237 222.808 127.877 222.808C128.463 222.808 129.007 222.893 129.509 223.064C130.021 223.235 130.442 223.485 130.773 223.816L130.293 224.792C129.962 224.504 129.589 224.285 129.173 224.136C128.767 223.976 128.351 223.896 127.925 223.896C127.306 223.896 126.847 224.019 126.549 224.264C126.25 224.499 126.101 224.808 126.101 225.192C126.101 225.48 126.191 225.72 126.373 225.912C126.554 226.093 126.847 226.232 127.253 226.328L128.773 226.632C129.487 226.781 130.026 227.027 130.389 227.368C130.751 227.709 130.933 228.163 130.933 228.728C130.933 229.229 130.794 229.661 130.517 230.024C130.25 230.387 129.871 230.664 129.381 230.856C128.901 231.048 128.335 231.144 127.685 231.144ZM133.238 231V222.952H134.694V231H133.238ZM133.11 221.192V219.624H134.838V221.192H133.11ZM140.52 231.144C139.816 231.144 139.198 230.979 138.664 230.648C138.131 230.317 137.715 229.837 137.416 229.208C137.118 228.579 136.968 227.832 136.968 226.968C136.968 226.104 137.118 225.363 137.416 224.744C137.715 224.115 138.131 223.635 138.664 223.304C139.198 222.973 139.816 222.808 140.52 222.808C141.224 222.808 141.838 222.984 142.36 223.336C142.894 223.688 143.251 224.173 143.432 224.792H143.24V219.224H144.696V231H143.256V229.128H143.432C143.262 229.757 142.91 230.253 142.376 230.616C141.854 230.968 141.235 231.144 140.52 231.144ZM140.856 229.992C141.582 229.992 142.163 229.736 142.6 229.224C143.048 228.712 143.272 227.96 143.272 226.968C143.272 225.976 143.048 225.229 142.6 224.728C142.163 224.227 141.582 223.976 140.856 223.976C140.131 223.976 139.544 224.227 139.096 224.728C138.659 225.229 138.44 225.976 138.44 226.968C138.44 227.96 138.659 228.712 139.096 229.224C139.544 229.736 140.131 229.992 140.856 229.992ZM151.12 231.144C149.84 231.144 148.827 230.776 148.08 230.04C147.344 229.304 146.976 228.291 146.976 227C146.976 226.147 147.136 225.411 147.456 224.792C147.787 224.163 148.24 223.677 148.816 223.336C149.392 222.984 150.064 222.808 150.832 222.808C151.568 222.808 152.192 222.968 152.704 223.288C153.216 223.597 153.605 224.04 153.872 224.616C154.139 225.192 154.272 225.875 154.272 226.664V227.144H148.112V226.28H153.28L153.008 226.488C153.008 225.656 152.821 225.011 152.448 224.552C152.085 224.093 151.547 223.864 150.832 223.864C150.053 223.864 149.451 224.136 149.024 224.68C148.597 225.213 148.384 225.944 148.384 226.872V227.016C148.384 227.997 148.624 228.739 149.104 229.24C149.595 229.741 150.272 229.992 151.136 229.992C151.616 229.992 152.064 229.923 152.48 229.784C152.896 229.645 153.296 229.416 153.68 229.096L154.16 230.104C153.797 230.435 153.344 230.691 152.8 230.872C152.267 231.053 151.707 231.144 151.12 231.144ZM156.479 231V224.92C156.479 224.6 156.468 224.275 156.447 223.944C156.436 223.603 156.409 223.272 156.367 222.952H157.775L157.951 224.968L157.711 224.984C157.817 224.493 157.999 224.088 158.255 223.768C158.521 223.437 158.836 223.197 159.199 223.048C159.572 222.888 159.956 222.808 160.351 222.808C160.521 222.808 160.665 222.813 160.783 222.824C160.9 222.835 161.017 222.861 161.135 222.904L161.103 224.2C160.943 224.136 160.793 224.099 160.655 224.088C160.527 224.067 160.367 224.056 160.175 224.056C159.705 224.056 159.3 224.163 158.959 224.376C158.628 224.589 158.372 224.872 158.191 225.224C158.02 225.576 157.935 225.955 157.935 226.36V231H156.479ZM170.347 231.144C169.643 231.144 169.025 230.979 168.491 230.648C167.958 230.317 167.542 229.837 167.243 229.208C166.945 228.579 166.795 227.832 166.795 226.968C166.795 226.104 166.945 225.363 167.243 224.744C167.542 224.115 167.958 223.635 168.491 223.304C169.025 222.973 169.643 222.808 170.347 222.808C171.062 222.808 171.681 222.989 172.203 223.352C172.737 223.704 173.089 224.189 173.259 224.808H173.067L173.243 222.952H174.651C174.619 223.272 174.587 223.592 174.555 223.912C174.534 224.232 174.523 224.547 174.523 224.856V231H173.067V229.16H173.243C173.073 229.768 172.721 230.253 172.187 230.616C171.665 230.968 171.051 231.144 170.347 231.144ZM170.683 229.992C171.409 229.992 171.99 229.736 172.427 229.224C172.865 228.712 173.083 227.96 173.083 226.968C173.083 225.976 172.865 225.229 172.427 224.728C171.99 224.227 171.409 223.976 170.683 223.976C169.958 223.976 169.371 224.227 168.923 224.728C168.486 225.229 168.267 225.976 168.267 226.968C168.267 227.96 168.486 228.712 168.923 229.224C169.361 229.736 169.947 229.992 170.683 229.992ZM180.003 231.144C179.352 231.144 178.744 231.059 178.179 230.888C177.624 230.717 177.166 230.472 176.803 230.152L177.267 229.144C177.662 229.443 178.094 229.672 178.563 229.832C179.043 229.981 179.534 230.056 180.035 230.056C180.643 230.056 181.102 229.944 181.411 229.72C181.731 229.496 181.891 229.197 181.891 228.824C181.891 228.525 181.79 228.285 181.587 228.104C181.384 227.923 181.064 227.789 180.627 227.704L179.107 227.4C178.424 227.24 177.907 226.984 177.555 226.632C177.214 226.269 177.043 225.805 177.043 225.24C177.043 224.771 177.171 224.355 177.427 223.992C177.683 223.619 178.046 223.331 178.515 223.128C178.995 222.915 179.555 222.808 180.195 222.808C180.782 222.808 181.326 222.893 181.827 223.064C182.339 223.235 182.76 223.485 183.091 223.816L182.611 224.792C182.28 224.504 181.907 224.285 181.491 224.136C181.086 223.976 180.67 223.896 180.243 223.896C179.624 223.896 179.166 224.019 178.867 224.264C178.568 224.499 178.419 224.808 178.419 225.192C178.419 225.48 178.51 225.72 178.691 225.912C178.872 226.093 179.166 226.232 179.571 226.328L181.091 226.632C181.806 226.781 182.344 227.027 182.707 227.368C183.07 227.709 183.251 228.163 183.251 228.728C183.251 229.229 183.112 229.661 182.835 230.024C182.568 230.387 182.19 230.664 181.699 230.856C181.219 231.048 180.654 231.144 180.003 231.144ZM185.556 231V219.224H187.012V226.504H187.044L190.676 222.952H192.484L188.164 227.176L188.18 226.488L192.868 231H191.012L187.044 227.256H187.012V231H185.556ZM194.251 231V222.952H195.707V231H194.251ZM194.123 221.192V219.624H195.851V221.192H194.123ZM198.462 231V224.856C198.462 224.547 198.451 224.232 198.43 223.912C198.408 223.592 198.376 223.272 198.334 222.952H199.742L199.902 224.68H199.71C199.955 224.072 200.334 223.608 200.846 223.288C201.358 222.968 201.955 222.808 202.638 222.808C203.587 222.808 204.302 223.069 204.782 223.592C205.262 224.104 205.502 224.904 205.502 225.992V231H204.046V226.072C204.046 225.336 203.902 224.808 203.614 224.488C203.326 224.157 202.878 223.992 202.27 223.992C201.544 223.992 200.968 224.211 200.542 224.648C200.126 225.085 199.918 225.677 199.918 226.424V231H198.462ZM211.788 234.584C211.084 234.584 210.438 234.499 209.852 234.328C209.265 234.157 208.737 233.896 208.268 233.544L208.652 232.472C208.982 232.696 209.308 232.877 209.628 233.016C209.948 233.155 210.278 233.256 210.62 233.32C210.972 233.384 211.334 233.416 211.708 233.416C212.497 233.416 213.089 233.213 213.484 232.808C213.878 232.403 214.076 231.827 214.076 231.08V228.824H214.236C214.065 229.432 213.713 229.917 213.18 230.28C212.657 230.632 212.038 230.808 211.324 230.808C210.598 230.808 209.964 230.648 209.42 230.328C208.886 229.997 208.47 229.533 208.172 228.936C207.873 228.328 207.724 227.619 207.724 226.808C207.724 225.987 207.873 225.277 208.172 224.68C208.47 224.083 208.886 223.624 209.42 223.304C209.964 222.973 210.598 222.808 211.324 222.808C212.038 222.808 212.657 222.984 213.18 223.336C213.702 223.688 214.049 224.173 214.22 224.792L214.076 224.648L214.22 222.952H215.628C215.596 223.272 215.564 223.592 215.532 223.912C215.51 224.232 215.5 224.547 215.5 224.856V230.904C215.5 232.099 215.185 233.011 214.556 233.64C213.937 234.269 213.014 234.584 211.788 234.584ZM211.644 229.656C212.38 229.656 212.966 229.405 213.404 228.904C213.841 228.403 214.06 227.704 214.06 226.808C214.06 225.901 213.841 225.203 213.404 224.712C212.966 224.221 212.38 223.976 211.644 223.976C210.897 223.976 210.3 224.221 209.852 224.712C209.414 225.203 209.196 225.901 209.196 226.808C209.196 227.704 209.414 228.403 209.852 228.904C210.3 229.405 210.897 229.656 211.644 229.656ZM218.018 224.712V222.952H219.794V224.712H218.018ZM218.018 231V229.224H219.794V231H218.018ZM227.011 231V219.72H228.499V224.648H235.059V219.72H236.563V231H235.059V225.912H228.499V231H227.011ZM242.524 231.144C241.82 231.144 241.202 230.979 240.668 230.648C240.135 230.317 239.719 229.837 239.42 229.208C239.122 228.579 238.972 227.832 238.972 226.968C238.972 226.104 239.122 225.363 239.42 224.744C239.719 224.115 240.135 223.635 240.668 223.304C241.202 222.973 241.82 222.808 242.524 222.808C243.239 222.808 243.858 222.989 244.38 223.352C244.914 223.704 245.266 224.189 245.436 224.808H245.244L245.42 222.952H246.828C246.796 223.272 246.764 223.592 246.732 223.912C246.711 224.232 246.7 224.547 246.7 224.856V231H245.244V229.16H245.42C245.25 229.768 244.898 230.253 244.364 230.616C243.842 230.968 243.228 231.144 242.524 231.144ZM242.86 229.992C243.586 229.992 244.167 229.736 244.604 229.224C245.042 228.712 245.26 227.96 245.26 226.968C245.26 225.976 245.042 225.229 244.604 224.728C244.167 224.227 243.586 223.976 242.86 223.976C242.135 223.976 241.548 224.227 241.1 224.728C240.663 225.229 240.444 225.976 240.444 226.968C240.444 227.96 240.663 228.712 241.1 229.224C241.538 229.736 242.124 229.992 242.86 229.992ZM252.18 231.144C251.529 231.144 250.921 231.059 250.356 230.888C249.801 230.717 249.342 230.472 248.98 230.152L249.444 229.144C249.838 229.443 250.27 229.672 250.74 229.832C251.22 229.981 251.71 230.056 252.212 230.056C252.82 230.056 253.278 229.944 253.588 229.72C253.908 229.496 254.068 229.197 254.068 228.824C254.068 228.525 253.966 228.285 253.764 228.104C253.561 227.923 253.241 227.789 252.804 227.704L251.284 227.4C250.601 227.24 250.084 226.984 249.732 226.632C249.39 226.269 249.22 225.805 249.22 225.24C249.22 224.771 249.348 224.355 249.604 223.992C249.86 223.619 250.222 223.331 250.692 223.128C251.172 222.915 251.732 222.808 252.372 222.808C252.958 222.808 253.502 222.893 254.004 223.064C254.516 223.235 254.937 223.485 255.268 223.816L254.788 224.792C254.457 224.504 254.084 224.285 253.668 224.136C253.262 223.976 252.846 223.896 252.42 223.896C251.801 223.896 251.342 224.019 251.044 224.264C250.745 224.499 250.596 224.808 250.596 225.192C250.596 225.48 250.686 225.72 250.868 225.912C251.049 226.093 251.342 226.232 251.748 226.328L253.268 226.632C253.982 226.781 254.521 227.027 254.884 227.368C255.246 227.709 255.428 228.163 255.428 228.728C255.428 229.229 255.289 229.661 255.012 230.024C254.745 230.387 254.366 230.664 253.876 230.856C253.396 231.048 252.83 231.144 252.18 231.144ZM265.28 231.144C264.437 231.144 263.797 230.915 263.36 230.456C262.933 229.987 262.72 229.283 262.72 228.344V224.072H261.152V222.952H262.72V220.792L264.176 220.392V222.952H266.448V224.072H264.176V228.216C264.176 228.835 264.282 229.277 264.496 229.544C264.72 229.8 265.04 229.928 265.456 229.928C265.669 229.928 265.85 229.912 266 229.88C266.16 229.837 266.304 229.789 266.432 229.736V230.936C266.272 231 266.085 231.048 265.872 231.08C265.669 231.123 265.472 231.144 265.28 231.144ZM268.295 231V219.224H269.751V224.696H269.543C269.777 224.077 270.156 223.608 270.679 223.288C271.201 222.968 271.804 222.808 272.487 222.808C273.457 222.808 274.172 223.069 274.631 223.592C275.1 224.115 275.335 224.904 275.335 225.96V231H273.879V226.04C273.879 225.325 273.74 224.808 273.463 224.488C273.185 224.157 272.732 223.992 272.103 223.992C271.399 223.992 270.828 224.211 270.391 224.648C269.964 225.085 269.751 225.667 269.751 226.392V231H268.295ZM281.701 231.144C280.421 231.144 279.407 230.776 278.661 230.04C277.925 229.304 277.557 228.291 277.557 227C277.557 226.147 277.717 225.411 278.037 224.792C278.367 224.163 278.821 223.677 279.397 223.336C279.973 222.984 280.645 222.808 281.413 222.808C282.149 222.808 282.773 222.968 283.285 223.288C283.797 223.597 284.186 224.04 284.453 224.616C284.719 225.192 284.853 225.875 284.853 226.664V227.144H278.693V226.28H283.861L283.589 226.488C283.589 225.656 283.402 225.011 283.029 224.552C282.666 224.093 282.127 223.864 281.413 223.864C280.634 223.864 280.031 224.136 279.605 224.68C279.178 225.213 278.965 225.944 278.965 226.872V227.016C278.965 227.997 279.205 228.739 279.685 229.24C280.175 229.741 280.853 229.992 281.717 229.992C282.197 229.992 282.645 229.923 283.061 229.784C283.477 229.645 283.877 229.416 284.261 229.096L284.741 230.104C284.378 230.435 283.925 230.691 283.381 230.872C282.847 231.053 282.287 231.144 281.701 231.144ZM291.614 234.456V224.856C291.614 224.547 291.603 224.232 291.582 223.912C291.561 223.592 291.529 223.272 291.486 222.952H292.894L293.07 224.808H292.894C293.054 224.189 293.395 223.704 293.918 223.352C294.441 222.989 295.065 222.808 295.79 222.808C296.505 222.808 297.129 222.973 297.662 223.304C298.195 223.635 298.606 224.115 298.894 224.744C299.193 225.363 299.342 226.104 299.342 226.968C299.342 227.832 299.193 228.579 298.894 229.208C298.606 229.837 298.195 230.317 297.662 230.648C297.129 230.979 296.505 231.144 295.79 231.144C295.075 231.144 294.457 230.968 293.934 230.616C293.422 230.253 293.075 229.768 292.894 229.16H293.07V234.456H291.614ZM295.454 229.992C296.19 229.992 296.777 229.736 297.214 229.224C297.651 228.712 297.87 227.96 297.87 226.968C297.87 225.976 297.651 225.229 297.214 224.728C296.777 224.227 296.19 223.976 295.454 223.976C294.718 223.976 294.131 224.227 293.694 224.728C293.267 225.229 293.054 225.976 293.054 226.968C293.054 227.96 293.267 228.712 293.694 229.224C294.131 229.736 294.718 229.992 295.454 229.992ZM304.694 231.144C303.99 231.144 303.371 230.979 302.838 230.648C302.304 230.317 301.888 229.837 301.59 229.208C301.291 228.579 301.142 227.832 301.142 226.968C301.142 226.104 301.291 225.363 301.59 224.744C301.888 224.115 302.304 223.635 302.838 223.304C303.371 222.973 303.99 222.808 304.694 222.808C305.408 222.808 306.027 222.989 306.55 223.352C307.083 223.704 307.435 224.189 307.606 224.808H307.414L307.59 222.952H308.998C308.966 223.272 308.934 223.592 308.902 223.912C308.88 224.232 308.87 224.547 308.87 224.856V231H307.414V229.16H307.59C307.419 229.768 307.067 230.253 306.534 230.616C306.011 230.968 305.398 231.144 304.694 231.144ZM305.03 229.992C305.755 229.992 306.336 229.736 306.774 229.224C307.211 228.712 307.43 227.96 307.43 226.968C307.43 225.976 307.211 225.229 306.774 224.728C306.336 224.227 305.755 223.976 305.03 223.976C304.304 223.976 303.718 224.227 303.27 224.728C302.832 225.229 302.614 225.976 302.614 226.968C302.614 227.96 302.832 228.712 303.27 229.224C303.707 229.736 304.294 229.992 305.03 229.992ZM314.637 231.144C313.794 231.144 313.154 230.915 312.717 230.456C312.29 229.987 312.077 229.283 312.077 228.344V224.072H310.509V222.952H312.077V220.792L313.533 220.392V222.952H315.805V224.072H313.533V228.216C313.533 228.835 313.64 229.277 313.853 229.544C314.077 229.8 314.397 229.928 314.813 229.928C315.026 229.928 315.208 229.912 315.357 229.88C315.517 229.837 315.661 229.789 315.789 229.736V230.936C315.629 231 315.442 231.048 315.229 231.08C315.026 231.123 314.829 231.144 314.637 231.144ZM317.652 231V222.952H319.108V231H317.652ZM317.524 221.192V219.624H319.252V221.192H317.524ZM325.527 231.144C324.247 231.144 323.234 230.776 322.487 230.04C321.751 229.304 321.383 228.291 321.383 227C321.383 226.147 321.543 225.411 321.863 224.792C322.194 224.163 322.647 223.677 323.223 223.336C323.799 222.984 324.471 222.808 325.239 222.808C325.975 222.808 326.599 222.968 327.111 223.288C327.623 223.597 328.012 224.04 328.279 224.616C328.546 225.192 328.679 225.875 328.679 226.664V227.144H322.519V226.28H327.687L327.415 226.488C327.415 225.656 327.228 225.011 326.855 224.552C326.492 224.093 325.954 223.864 325.239 223.864C324.46 223.864 323.858 224.136 323.431 224.68C323.004 225.213 322.791 225.944 322.791 226.872V227.016C322.791 227.997 323.031 228.739 323.511 229.24C324.002 229.741 324.679 229.992 325.543 229.992C326.023 229.992 326.471 229.923 326.887 229.784C327.303 229.645 327.703 229.416 328.087 229.096L328.567 230.104C328.204 230.435 327.751 230.691 327.207 230.872C326.674 231.053 326.114 231.144 325.527 231.144ZM330.902 231V224.856C330.902 224.547 330.891 224.232 330.87 223.912C330.848 223.592 330.816 223.272 330.774 222.952H332.182L332.342 224.68H332.15C332.395 224.072 332.774 223.608 333.286 223.288C333.798 222.968 334.395 222.808 335.078 222.808C336.027 222.808 336.742 223.069 337.222 223.592C337.702 224.104 337.942 224.904 337.942 225.992V231H336.486V226.072C336.486 225.336 336.342 224.808 336.054 224.488C335.766 224.157 335.318 223.992 334.71 223.992C333.984 223.992 333.408 224.211 332.982 224.648C332.566 225.085 332.358 225.677 332.358 226.424V231H330.902ZM343.652 231.144C342.809 231.144 342.169 230.915 341.732 230.456C341.305 229.987 341.092 229.283 341.092 228.344V224.072H339.524V222.952H341.092V220.792L342.548 220.392V222.952H344.82V224.072H342.548V228.216C342.548 228.835 342.654 229.277 342.868 229.544C343.092 229.8 343.412 229.928 343.828 229.928C344.041 229.928 344.222 229.912 344.372 229.88C344.532 229.837 344.676 229.789 344.804 229.736V230.936C344.644 231 344.457 231.048 344.244 231.08C344.041 231.123 343.844 231.144 343.652 231.144ZM351.205 231V219.224H352.661V224.696H352.453C352.688 224.077 353.067 223.608 353.589 223.288C354.112 222.968 354.715 222.808 355.397 222.808C356.368 222.808 357.083 223.069 357.541 223.592C358.011 224.115 358.245 224.904 358.245 225.96V231H356.789V226.04C356.789 225.325 356.651 224.808 356.373 224.488C356.096 224.157 355.643 223.992 355.013 223.992C354.309 223.992 353.739 224.211 353.301 224.648C352.875 225.085 352.661 225.667 352.661 226.392V231H351.205ZM364.019 231.144C363.315 231.144 362.697 230.979 362.163 230.648C361.63 230.317 361.214 229.837 360.915 229.208C360.617 228.579 360.467 227.832 360.467 226.968C360.467 226.104 360.617 225.363 360.915 224.744C361.214 224.115 361.63 223.635 362.163 223.304C362.697 222.973 363.315 222.808 364.019 222.808C364.734 222.808 365.353 222.989 365.875 223.352C366.409 223.704 366.761 224.189 366.931 224.808H366.739L366.915 222.952H368.323C368.291 223.272 368.259 223.592 368.227 223.912C368.206 224.232 368.195 224.547 368.195 224.856V231H366.739V229.16H366.915C366.745 229.768 366.393 230.253 365.859 230.616C365.337 230.968 364.723 231.144 364.019 231.144ZM364.355 229.992C365.081 229.992 365.662 229.736 366.099 229.224C366.537 228.712 366.755 227.96 366.755 226.968C366.755 225.976 366.537 225.229 366.099 224.728C365.662 224.227 365.081 223.976 364.355 223.976C363.63 223.976 363.043 224.227 362.595 224.728C362.158 225.229 361.939 225.976 361.939 226.968C361.939 227.96 362.158 228.712 362.595 229.224C363.033 229.736 363.619 229.992 364.355 229.992ZM373.675 231.144C373.024 231.144 372.416 231.059 371.851 230.888C371.296 230.717 370.837 230.472 370.475 230.152L370.939 229.144C371.333 229.443 371.765 229.672 372.235 229.832C372.715 229.981 373.205 230.056 373.707 230.056C374.315 230.056 374.773 229.944 375.083 229.72C375.403 229.496 375.563 229.197 375.563 228.824C375.563 228.525 375.461 228.285 375.259 228.104C375.056 227.923 374.736 227.789 374.299 227.704L372.779 227.4C372.096 227.24 371.579 226.984 371.227 226.632C370.885 226.269 370.715 225.805 370.715 225.24C370.715 224.771 370.843 224.355 371.099 223.992C371.355 223.619 371.717 223.331 372.187 223.128C372.667 222.915 373.227 222.808 373.867 222.808C374.453 222.808 374.997 222.893 375.499 223.064C376.011 223.235 376.432 223.485 376.763 223.816L376.283 224.792C375.952 224.504 375.579 224.285 375.163 224.136C374.757 223.976 374.341 223.896 373.915 223.896C373.296 223.896 372.837 224.019 372.539 224.264C372.24 224.499 372.091 224.808 372.091 225.192C372.091 225.48 372.181 225.72 372.363 225.912C372.544 226.093 372.837 226.232 373.243 226.328L374.763 226.632C375.477 226.781 376.016 227.027 376.379 227.368C376.741 227.709 376.923 228.163 376.923 228.728C376.923 229.229 376.784 229.661 376.507 230.024C376.24 230.387 375.861 230.664 375.371 230.856C374.891 231.048 374.325 231.144 373.675 231.144ZM386.839 231.144C386.135 231.144 385.516 230.979 384.983 230.648C384.449 230.317 384.033 229.837 383.735 229.208C383.436 228.579 383.287 227.832 383.287 226.968C383.287 226.104 383.436 225.363 383.735 224.744C384.033 224.115 384.449 223.635 384.983 223.304C385.516 222.973 386.135 222.808 386.839 222.808C387.553 222.808 388.172 222.989 388.695 223.352C389.228 223.704 389.58 224.189 389.751 224.808H389.559L389.735 222.952H391.143C391.111 223.272 391.079 223.592 391.047 223.912C391.025 224.232 391.015 224.547 391.015 224.856V231H389.559V229.16H389.735C389.564 229.768 389.212 230.253 388.679 230.616C388.156 230.968 387.543 231.144 386.839 231.144ZM387.175 229.992C387.9 229.992 388.481 229.736 388.919 229.224C389.356 228.712 389.575 227.96 389.575 226.968C389.575 225.976 389.356 225.229 388.919 224.728C388.481 224.227 387.9 223.976 387.175 223.976C386.449 223.976 385.863 224.227 385.415 224.728C384.977 225.229 384.759 225.976 384.759 226.968C384.759 227.96 384.977 228.712 385.415 229.224C385.852 229.736 386.439 229.992 387.175 229.992ZM393.774 231V224.856C393.774 224.547 393.763 224.232 393.742 223.912C393.721 223.592 393.689 223.272 393.646 222.952H395.054L395.214 224.68H395.022C395.267 224.072 395.646 223.608 396.158 223.288C396.67 222.968 397.267 222.808 397.95 222.808C398.899 222.808 399.614 223.069 400.094 223.592C400.574 224.104 400.814 224.904 400.814 225.992V231H399.358V226.072C399.358 225.336 399.214 224.808 398.926 224.488C398.638 224.157 398.19 223.992 397.582 223.992C396.857 223.992 396.281 224.211 395.854 224.648C395.438 225.085 395.23 225.677 395.23 226.424V231H393.774ZM403.166 234.632L402.83 233.448C403.331 233.331 403.747 233.192 404.078 233.032C404.409 232.883 404.686 232.685 404.91 232.44C405.134 232.195 405.331 231.885 405.502 231.512L405.902 230.552L405.87 231.16L402.366 222.952H403.934L406.734 229.848H406.318L409.118 222.952H410.622L406.926 231.624C406.702 232.147 406.457 232.584 406.19 232.936C405.934 233.288 405.651 233.576 405.342 233.8C405.043 234.024 404.713 234.2 404.35 234.328C403.987 234.456 403.593 234.557 403.166 234.632ZM416.844 234.456V224.856C416.844 224.547 416.833 224.232 416.812 223.912C416.79 223.592 416.758 223.272 416.716 222.952H418.124L418.3 224.808H418.124C418.284 224.189 418.625 223.704 419.148 223.352C419.67 222.989 420.294 222.808 421.02 222.808C421.734 222.808 422.358 222.973 422.892 223.304C423.425 223.635 423.836 224.115 424.124 224.744C424.422 225.363 424.572 226.104 424.572 226.968C424.572 227.832 424.422 228.579 424.124 229.208C423.836 229.837 423.425 230.317 422.892 230.648C422.358 230.979 421.734 231.144 421.02 231.144C420.305 231.144 419.686 230.968 419.164 230.616C418.652 230.253 418.305 229.768 418.124 229.16H418.3V234.456H416.844ZM420.684 229.992C421.42 229.992 422.006 229.736 422.444 229.224C422.881 228.712 423.1 227.96 423.1 226.968C423.1 225.976 422.881 225.229 422.444 224.728C422.006 224.227 421.42 223.976 420.684 223.976C419.948 223.976 419.361 224.227 418.924 224.728C418.497 225.229 418.284 225.976 418.284 226.968C418.284 227.96 418.497 228.712 418.924 229.224C419.361 229.736 419.948 229.992 420.684 229.992ZM426.835 231V224.92C426.835 224.6 426.824 224.275 426.803 223.944C426.792 223.603 426.766 223.272 426.723 222.952H428.131L428.307 224.968L428.067 224.984C428.174 224.493 428.355 224.088 428.611 223.768C428.878 223.437 429.192 223.197 429.555 223.048C429.928 222.888 430.312 222.808 430.707 222.808C430.878 222.808 431.022 222.813 431.139 222.824C431.256 222.835 431.374 222.861 431.491 222.904L431.459 224.2C431.299 224.136 431.15 224.099 431.011 224.088C430.883 224.067 430.723 224.056 430.531 224.056C430.062 224.056 429.656 224.163 429.315 224.376C428.984 224.589 428.728 224.872 428.547 225.224C428.376 225.576 428.291 225.955 428.291 226.36V231H426.835ZM433.093 231V222.952H434.549V231H433.093ZM432.965 221.192V219.624H434.693V221.192H432.965ZM440.695 231.144C439.906 231.144 439.223 230.979 438.647 230.648C438.071 230.307 437.623 229.827 437.303 229.208C436.983 228.579 436.823 227.832 436.823 226.968C436.823 226.115 436.983 225.379 437.303 224.76C437.623 224.131 438.071 223.651 438.647 223.32C439.223 222.979 439.906 222.808 440.695 222.808C441.485 222.808 442.167 222.979 442.743 223.32C443.33 223.651 443.778 224.131 444.087 224.76C444.407 225.379 444.567 226.115 444.567 226.968C444.567 227.832 444.407 228.579 444.087 229.208C443.778 229.827 443.33 230.307 442.743 230.648C442.167 230.979 441.485 231.144 440.695 231.144ZM440.695 229.992C441.421 229.992 442.002 229.736 442.439 229.224C442.877 228.712 443.095 227.96 443.095 226.968C443.095 225.976 442.877 225.229 442.439 224.728C442.002 224.227 441.421 223.976 440.695 223.976C439.959 223.976 439.373 224.227 438.935 224.728C438.509 225.229 438.295 225.976 438.295 226.968C438.295 227.96 438.509 228.712 438.935 229.224C439.373 229.736 439.959 229.992 440.695 229.992ZM446.826 231V224.92C446.826 224.6 446.816 224.275 446.794 223.944C446.784 223.603 446.757 223.272 446.714 222.952H448.122L448.298 224.968L448.058 224.984C448.165 224.493 448.346 224.088 448.602 223.768C448.869 223.437 449.184 223.197 449.546 223.048C449.92 222.888 450.304 222.808 450.698 222.808C450.869 222.808 451.013 222.813 451.13 222.824C451.248 222.835 451.365 222.861 451.482 222.904L451.45 224.2C451.29 224.136 451.141 224.099 451.002 224.088C450.874 224.067 450.714 224.056 450.522 224.056C450.053 224.056 449.648 224.163 449.306 224.376C448.976 224.589 448.72 224.872 448.538 225.224C448.368 225.576 448.282 225.955 448.282 226.36V231H446.826ZM461.079 231.144C460.279 231.144 459.586 230.979 458.999 230.648C458.412 230.307 457.954 229.821 457.623 229.192C457.303 228.552 457.143 227.795 457.143 226.92C457.143 226.056 457.308 225.32 457.639 224.712C457.97 224.093 458.428 223.624 459.015 223.304C459.602 222.973 460.29 222.808 461.079 222.808C461.602 222.808 462.108 222.899 462.599 223.08C463.09 223.251 463.49 223.501 463.799 223.832L463.303 224.856C462.994 224.557 462.652 224.339 462.279 224.2C461.906 224.051 461.538 223.976 461.175 223.976C460.386 223.976 459.767 224.232 459.319 224.744C458.871 225.245 458.647 225.976 458.647 226.936C458.647 227.907 458.871 228.653 459.319 229.176C459.767 229.699 460.386 229.96 461.175 229.96C461.527 229.96 461.89 229.891 462.263 229.752C462.636 229.613 462.983 229.395 463.303 229.096L463.799 230.104C463.479 230.445 463.068 230.707 462.567 230.888C462.076 231.059 461.58 231.144 461.079 231.144ZM468.905 231.144C468.201 231.144 467.583 230.979 467.049 230.648C466.516 230.317 466.1 229.837 465.801 229.208C465.503 228.579 465.353 227.832 465.353 226.968C465.353 226.104 465.503 225.363 465.801 224.744C466.1 224.115 466.516 223.635 467.049 223.304C467.583 222.973 468.201 222.808 468.905 222.808C469.62 222.808 470.239 222.989 470.761 223.352C471.295 223.704 471.647 224.189 471.817 224.808H471.625L471.801 222.952H473.209C473.177 223.272 473.145 223.592 473.113 223.912C473.092 224.232 473.081 224.547 473.081 224.856V231H471.625V229.16H471.801C471.631 229.768 471.279 230.253 470.745 230.616C470.223 230.968 469.609 231.144 468.905 231.144ZM469.241 229.992C469.967 229.992 470.548 229.736 470.985 229.224C471.423 228.712 471.641 227.96 471.641 226.968C471.641 225.976 471.423 225.229 470.985 224.728C470.548 224.227 469.967 223.976 469.241 223.976C468.516 223.976 467.929 224.227 467.481 224.728C467.044 225.229 466.825 225.976 466.825 226.968C466.825 227.96 467.044 228.712 467.481 229.224C467.919 229.736 468.505 229.992 469.241 229.992ZM475.825 231V224.92C475.825 224.6 475.814 224.275 475.793 223.944C475.782 223.603 475.756 223.272 475.713 222.952H477.121L477.297 224.968L477.057 224.984C477.164 224.493 477.345 224.088 477.601 223.768C477.868 223.437 478.182 223.197 478.545 223.048C478.918 222.888 479.302 222.808 479.697 222.808C479.868 222.808 480.012 222.813 480.129 222.824C480.246 222.835 480.364 222.861 480.481 222.904L480.449 224.2C480.289 224.136 480.14 224.099 480.001 224.088C479.873 224.067 479.713 224.056 479.521 224.056C479.052 224.056 478.646 224.163 478.305 224.376C477.974 224.589 477.718 224.872 477.537 225.224C477.366 225.576 477.281 225.955 477.281 226.36V231H475.825ZM485.046 231.144C484.342 231.144 483.723 230.979 483.19 230.648C482.656 230.317 482.24 229.837 481.942 229.208C481.643 228.579 481.494 227.832 481.494 226.968C481.494 226.104 481.643 225.363 481.942 224.744C482.24 224.115 482.656 223.635 483.19 223.304C483.723 222.973 484.342 222.808 485.046 222.808C485.75 222.808 486.363 222.984 486.886 223.336C487.419 223.688 487.776 224.173 487.958 224.792H487.766V219.224H489.222V231H487.782V229.128H487.958C487.787 229.757 487.435 230.253 486.902 230.616C486.379 230.968 485.76 231.144 485.046 231.144ZM485.382 229.992C486.107 229.992 486.688 229.736 487.126 229.224C487.574 228.712 487.798 227.96 487.798 226.968C487.798 225.976 487.574 225.229 487.126 224.728C486.688 224.227 486.107 223.976 485.382 223.976C484.656 223.976 484.07 224.227 483.622 224.728C483.184 225.229 482.966 225.976 482.966 226.968C482.966 227.96 483.184 228.712 483.622 229.224C484.07 229.736 484.656 229.992 485.382 229.992ZM491.981 231V222.952H493.437V231H491.981ZM491.853 221.192V219.624H493.581V221.192H491.853ZM499.264 231.144C498.56 231.144 497.941 230.979 497.408 230.648C496.874 230.317 496.458 229.837 496.16 229.208C495.861 228.579 495.712 227.832 495.712 226.968C495.712 226.104 495.861 225.363 496.16 224.744C496.458 224.115 496.874 223.635 497.408 223.304C497.941 222.973 498.56 222.808 499.264 222.808C499.978 222.808 500.597 222.989 501.12 223.352C501.653 223.704 502.005 224.189 502.176 224.808H501.984L502.16 222.952H503.568C503.536 223.272 503.504 223.592 503.472 223.912C503.45 224.232 503.44 224.547 503.44 224.856V231H501.984V229.16H502.16C501.989 229.768 501.637 230.253 501.104 230.616C500.581 230.968 499.968 231.144 499.264 231.144ZM499.6 229.992C500.325 229.992 500.906 229.736 501.344 229.224C501.781 228.712 502 227.96 502 226.968C502 225.976 501.781 225.229 501.344 224.728C500.906 224.227 500.325 223.976 499.6 223.976C498.874 223.976 498.288 224.227 497.84 224.728C497.402 225.229 497.184 225.976 497.184 226.968C497.184 227.96 497.402 228.712 497.84 229.224C498.277 229.736 498.864 229.992 499.6 229.992ZM509.655 231.144C508.855 231.144 508.162 230.979 507.575 230.648C506.988 230.307 506.53 229.821 506.199 229.192C505.879 228.552 505.719 227.795 505.719 226.92C505.719 226.056 505.884 225.32 506.215 224.712C506.546 224.093 507.004 223.624 507.591 223.304C508.178 222.973 508.866 222.808 509.655 222.808C510.178 222.808 510.684 222.899 511.175 223.08C511.666 223.251 512.066 223.501 512.375 223.832L511.879 224.856C511.57 224.557 511.228 224.339 510.855 224.2C510.482 224.051 510.114 223.976 509.751 223.976C508.962 223.976 508.343 224.232 507.895 224.744C507.447 225.245 507.223 225.976 507.223 226.936C507.223 227.907 507.447 228.653 507.895 229.176C508.343 229.699 508.962 229.96 509.751 229.96C510.103 229.96 510.466 229.891 510.839 229.752C511.212 229.613 511.559 229.395 511.879 229.096L512.375 230.104C512.055 230.445 511.644 230.707 511.143 230.888C510.652 231.059 510.156 231.144 509.655 231.144ZM88.216 251V242.952H89.672V251H88.216ZM88.088 241.192V239.624H89.816V241.192H88.088ZM92.4266 251V244.856C92.4266 244.547 92.416 244.232 92.3946 243.912C92.3733 243.592 92.3413 243.272 92.2986 242.952H93.7066L93.8666 244.68H93.6746C93.92 244.072 94.2986 243.608 94.8106 243.288C95.3226 242.968 95.92 242.808 96.6026 242.808C97.552 242.808 98.2666 243.069 98.7466 243.592C99.2266 244.104 99.4666 244.904 99.4666 245.992V251H98.0106V246.072C98.0106 245.336 97.8666 244.808 97.5786 244.488C97.2906 244.157 96.8426 243.992 96.2346 243.992C95.5093 243.992 94.9333 244.211 94.5066 244.648C94.0906 245.085 93.8826 245.677 93.8826 246.424V251H92.4266ZM104.458 251L101.018 242.952H102.586L105.386 249.864H104.938L107.786 242.952H109.274L105.818 251H104.458ZM114.496 251.144C113.216 251.144 112.203 250.776 111.456 250.04C110.72 249.304 110.352 248.291 110.352 247C110.352 246.147 110.512 245.411 110.832 244.792C111.163 244.163 111.616 243.677 112.192 243.336C112.768 242.984 113.44 242.808 114.208 242.808C114.944 242.808 115.568 242.968 116.08 243.288C116.592 243.597 116.982 244.04 117.248 244.616C117.515 245.192 117.648 245.875 117.648 246.664V247.144H111.488V246.28H116.656L116.384 246.488C116.384 245.656 116.198 245.011 115.824 244.552C115.462 244.093 114.923 243.864 114.208 243.864C113.43 243.864 112.827 244.136 112.4 244.68C111.974 245.213 111.76 245.944 111.76 246.872V247.016C111.76 247.997 112 248.739 112.48 249.24C112.971 249.741 113.648 249.992 114.512 249.992C114.992 249.992 115.44 249.923 115.856 249.784C116.272 249.645 116.672 249.416 117.056 249.096L117.536 250.104C117.174 250.435 116.72 250.691 116.176 250.872C115.643 251.053 115.083 251.144 114.496 251.144ZM122.591 251.144C121.94 251.144 121.332 251.059 120.767 250.888C120.212 250.717 119.754 250.472 119.391 250.152L119.855 249.144C120.25 249.443 120.682 249.672 121.151 249.832C121.631 249.981 122.122 250.056 122.623 250.056C123.231 250.056 123.69 249.944 123.999 249.72C124.319 249.496 124.479 249.197 124.479 248.824C124.479 248.525 124.378 248.285 124.175 248.104C123.972 247.923 123.652 247.789 123.215 247.704L121.695 247.4C121.012 247.24 120.495 246.984 120.143 246.632C119.802 246.269 119.631 245.805 119.631 245.24C119.631 244.771 119.759 244.355 120.015 243.992C120.271 243.619 120.634 243.331 121.103 243.128C121.583 242.915 122.143 242.808 122.783 242.808C123.37 242.808 123.914 242.893 124.415 243.064C124.927 243.235 125.348 243.485 125.679 243.816L125.199 244.792C124.868 244.504 124.495 244.285 124.079 244.136C123.674 243.976 123.258 243.896 122.831 243.896C122.212 243.896 121.754 244.019 121.455 244.264C121.156 244.499 121.007 244.808 121.007 245.192C121.007 245.48 121.098 245.72 121.279 245.912C121.46 246.093 121.754 246.232 122.159 246.328L123.679 246.632C124.394 246.781 124.932 247.027 125.295 247.368C125.658 247.709 125.839 248.163 125.839 248.728C125.839 249.229 125.7 249.661 125.423 250.024C125.156 250.387 124.778 250.664 124.287 250.856C123.807 251.048 123.242 251.144 122.591 251.144ZM131.074 251.144C130.231 251.144 129.591 250.915 129.154 250.456C128.727 249.987 128.514 249.283 128.514 248.344V244.072H126.946V242.952H128.514V240.792L129.97 240.392V242.952H132.242V244.072H129.97V248.216C129.97 248.835 130.077 249.277 130.29 249.544C130.514 249.8 130.834 249.928 131.25 249.928C131.463 249.928 131.645 249.912 131.794 249.88C131.954 249.837 132.098 249.789 132.226 249.736V250.936C132.066 251 131.879 251.048 131.666 251.08C131.463 251.123 131.266 251.144 131.074 251.144ZM134.089 251V242.952H135.545V251H134.089ZM133.961 241.192V239.624H135.689V241.192H133.961ZM141.884 254.584C141.18 254.584 140.534 254.499 139.948 254.328C139.361 254.157 138.833 253.896 138.364 253.544L138.748 252.472C139.078 252.696 139.404 252.877 139.724 253.016C140.044 253.155 140.374 253.256 140.716 253.32C141.068 253.384 141.43 253.416 141.804 253.416C142.593 253.416 143.185 253.213 143.58 252.808C143.974 252.403 144.172 251.827 144.172 251.08V248.824H144.332C144.161 249.432 143.809 249.917 143.276 250.28C142.753 250.632 142.134 250.808 141.42 250.808C140.694 250.808 140.06 250.648 139.516 250.328C138.982 249.997 138.566 249.533 138.268 248.936C137.969 248.328 137.82 247.619 137.82 246.808C137.82 245.987 137.969 245.277 138.268 244.68C138.566 244.083 138.982 243.624 139.516 243.304C140.06 242.973 140.694 242.808 141.42 242.808C142.134 242.808 142.753 242.984 143.276 243.336C143.798 243.688 144.145 244.173 144.316 244.792L144.172 244.648L144.316 242.952H145.724C145.692 243.272 145.66 243.592 145.628 243.912C145.606 244.232 145.596 244.547 145.596 244.856V250.904C145.596 252.099 145.281 253.011 144.652 253.64C144.033 254.269 143.11 254.584 141.884 254.584ZM141.74 249.656C142.476 249.656 143.062 249.405 143.5 248.904C143.937 248.403 144.156 247.704 144.156 246.808C144.156 245.901 143.937 245.203 143.5 244.712C143.062 244.221 142.476 243.976 141.74 243.976C140.993 243.976 140.396 244.221 139.948 244.712C139.51 245.203 139.292 245.901 139.292 246.808C139.292 247.704 139.51 248.403 139.948 248.904C140.396 249.405 140.993 249.656 141.74 249.656ZM151.426 251.144C150.722 251.144 150.103 250.979 149.57 250.648C149.037 250.317 148.621 249.837 148.322 249.208C148.023 248.579 147.874 247.832 147.874 246.968C147.874 246.104 148.023 245.363 148.322 244.744C148.621 244.115 149.037 243.635 149.57 243.304C150.103 242.973 150.722 242.808 151.426 242.808C152.141 242.808 152.759 242.989 153.282 243.352C153.815 243.704 154.167 244.189 154.338 244.808H154.146L154.322 242.952H155.73C155.698 243.272 155.666 243.592 155.634 243.912C155.613 244.232 155.602 244.547 155.602 244.856V251H154.146V249.16H154.322C154.151 249.768 153.799 250.253 153.266 250.616C152.743 250.968 152.13 251.144 151.426 251.144ZM151.762 249.992C152.487 249.992 153.069 249.736 153.506 249.224C153.943 248.712 154.162 247.96 154.162 246.968C154.162 245.976 153.943 245.229 153.506 244.728C153.069 244.227 152.487 243.976 151.762 243.976C151.037 243.976 150.45 244.227 150.002 244.728C149.565 245.229 149.346 245.976 149.346 246.968C149.346 247.96 149.565 248.712 150.002 249.224C150.439 249.736 151.026 249.992 151.762 249.992ZM161.37 251.144C160.527 251.144 159.887 250.915 159.45 250.456C159.023 249.987 158.81 249.283 158.81 248.344V244.072H157.242V242.952H158.81V240.792L160.266 240.392V242.952H162.538V244.072H160.266V248.216C160.266 248.835 160.372 249.277 160.586 249.544C160.81 249.8 161.13 249.928 161.546 249.928C161.759 249.928 161.94 249.912 162.09 249.88C162.25 249.837 162.394 249.789 162.522 249.736V250.936C162.362 251 162.175 251.048 161.962 251.08C161.759 251.123 161.562 251.144 161.37 251.144ZM164.385 251V242.952H165.841V251H164.385ZM164.257 241.192V239.624H165.985V241.192H164.257ZM171.987 251.144C171.198 251.144 170.515 250.979 169.939 250.648C169.363 250.307 168.915 249.827 168.595 249.208C168.275 248.579 168.115 247.832 168.115 246.968C168.115 246.115 168.275 245.379 168.595 244.76C168.915 244.131 169.363 243.651 169.939 243.32C170.515 242.979 171.198 242.808 171.987 242.808C172.777 242.808 173.459 242.979 174.035 243.32C174.622 243.651 175.07 244.131 175.379 244.76C175.699 245.379 175.859 246.115 175.859 246.968C175.859 247.832 175.699 248.579 175.379 249.208C175.07 249.827 174.622 250.307 174.035 250.648C173.459 250.979 172.777 251.144 171.987 251.144ZM171.987 249.992C172.713 249.992 173.294 249.736 173.731 249.224C174.169 248.712 174.387 247.96 174.387 246.968C174.387 245.976 174.169 245.229 173.731 244.728C173.294 244.227 172.713 243.976 171.987 243.976C171.251 243.976 170.665 244.227 170.227 244.728C169.801 245.229 169.587 245.976 169.587 246.968C169.587 247.96 169.801 248.712 170.227 249.224C170.665 249.736 171.251 249.992 171.987 249.992ZM178.134 251V244.856C178.134 244.547 178.123 244.232 178.102 243.912C178.081 243.592 178.049 243.272 178.006 242.952H179.414L179.574 244.68H179.382C179.627 244.072 180.006 243.608 180.518 243.288C181.03 242.968 181.627 242.808 182.31 242.808C183.259 242.808 183.974 243.069 184.454 243.592C184.934 244.104 185.174 244.904 185.174 245.992V251H183.718V246.072C183.718 245.336 183.574 244.808 183.286 244.488C182.998 244.157 182.55 243.992 181.942 243.992C181.217 243.992 180.641 244.211 180.214 244.648C179.798 245.085 179.59 245.677 179.59 246.424V251H178.134ZM190.596 251.144C189.945 251.144 189.337 251.059 188.772 250.888C188.217 250.717 187.759 250.472 187.396 250.152L187.86 249.144C188.255 249.443 188.687 249.672 189.156 249.832C189.636 249.981 190.127 250.056 190.628 250.056C191.236 250.056 191.695 249.944 192.004 249.72C192.324 249.496 192.484 249.197 192.484 248.824C192.484 248.525 192.383 248.285 192.18 248.104C191.977 247.923 191.657 247.789 191.22 247.704L189.7 247.4C189.017 247.24 188.5 246.984 188.148 246.632C187.807 246.269 187.636 245.805 187.636 245.24C187.636 244.771 187.764 244.355 188.02 243.992C188.276 243.619 188.639 243.331 189.108 243.128C189.588 242.915 190.148 242.808 190.788 242.808C191.375 242.808 191.919 242.893 192.42 243.064C192.932 243.235 193.353 243.485 193.684 243.816L193.204 244.792C192.873 244.504 192.5 244.285 192.084 244.136C191.679 243.976 191.263 243.896 190.836 243.896C190.217 243.896 189.759 244.019 189.46 244.264C189.161 244.499 189.012 244.808 189.012 245.192C189.012 245.48 189.103 245.72 189.284 245.912C189.465 246.093 189.759 246.232 190.164 246.328L191.684 246.632C192.399 246.781 192.937 247.027 193.3 247.368C193.663 247.709 193.844 248.163 193.844 248.728C193.844 249.229 193.705 249.661 193.428 250.024C193.161 250.387 192.783 250.664 192.292 250.856C191.812 251.048 191.247 251.144 190.596 251.144ZM197.529 247.96V247.448C197.529 246.925 197.63 246.435 197.833 245.976C198.036 245.507 198.398 244.984 198.921 244.408C199.326 243.971 199.609 243.587 199.769 243.256C199.929 242.915 200.009 242.573 200.009 242.232C200.009 241.795 199.849 241.453 199.529 241.208C199.209 240.963 198.772 240.84 198.217 240.84C197.801 240.84 197.396 240.899 197.001 241.016C196.617 241.123 196.249 241.277 195.897 241.48V240.152C196.249 239.971 196.644 239.832 197.081 239.736C197.518 239.629 197.95 239.576 198.377 239.576C198.996 239.576 199.54 239.672 200.009 239.864C200.478 240.056 200.841 240.339 201.097 240.712C201.364 241.075 201.497 241.533 201.497 242.088C201.497 242.429 201.438 242.76 201.321 243.08C201.214 243.4 201.049 243.715 200.825 244.024C200.612 244.333 200.329 244.664 199.977 245.016C199.454 245.539 199.086 245.992 198.873 246.376C198.67 246.76 198.542 247.155 198.489 247.56L198.441 247.96H197.529ZM197.097 251V249.224H198.873V251H197.097ZM204.091 243.384L203.435 242.872C203.733 242.563 203.936 242.275 204.043 242.008C204.149 241.731 204.203 241.453 204.203 241.176L204.619 241.48H203.355V239.72H205.131V240.936C205.131 241.395 205.056 241.821 204.907 242.216C204.757 242.611 204.485 243 204.091 243.384ZM206.891 243.384L206.235 242.872C206.533 242.563 206.736 242.275 206.843 242.008C206.949 241.731 207.003 241.453 207.003 241.176L207.419 241.48H206.155V239.72H207.931V240.936C207.931 241.395 207.856 241.821 207.707 242.216C207.557 242.611 207.285 243 206.891 243.384Z" fill="#00ADB5"/>
</g>
<defs>
<filter id="filter0_d_609_1213" x="0" y="0" width="611" height="358" filterUnits="userSpaceOnUse" color-interpolation-filters="sRGB">
<feFlood flood-opacity="0" result="BackgroundImageFix"/>
<feColorMatrix in="SourceAlpha" type="matrix" values="0 0 0 0 0 0 0 0 0 0 0 0 0 0 0 0 0 0 127 0" result="hardAlpha"/>
<feOffset dy="20"/>
<feGaussianBlur stdDeviation="15"/>
<feComposite in2="hardAlpha" operator="out"/>
<feColorMatrix type="matrix" values="0 0 0 0 0.663462 0 0 0 0 0.663462 0 0 0 0 0.663462 0 0 0 0.16 0"/>
<feBlend mode="normal" in2="BackgroundImageFix" result="effect1_dropShadow_609_1213"/>
<feBlend mode="normal" in="SourceGraphic" in2="effect1_dropShadow_609_1213" result="shape"/>
</filter>
</defs>
</svg>
