<svg width="611" height="408" viewBox="0 0 611 408" fill="none" xmlns="http://www.w3.org/2000/svg">
<g filter="url(#filter0_d_628_394)">
<rect x="30" y="10" width="551" height="348" rx="12" fill="white" shape-rendering="crispEdges"/>
<rect x="30.5" y="10.5" width="550" height="347" rx="11.5" stroke="#C2FCFF" shape-rendering="crispEdges"/>
<path d="M68.12 60.2C66.6533 60.2 65.3933 59.9067 64.34 59.32C63.3 58.72 62.5 57.88 61.94 56.8C61.38 55.7067 61.1 54.42 61.1 52.94C61.1 51.46 61.38 50.18 61.94 49.1C62.5 48.02 63.3 47.1867 64.34 46.6C65.3933 46 66.6533 45.7 68.12 45.7C69.1067 45.7 69.9933 45.84 70.78 46.12C71.58 46.4 72.2667 46.8133 72.84 47.36L72 49.4C71.3733 48.8933 70.7667 48.5333 70.18 48.32C69.6067 48.0933 68.9467 47.98 68.2 47.98C66.7733 47.98 65.68 48.4133 64.92 49.28C64.1733 50.1333 63.8 51.3533 63.8 52.94C63.8 54.5267 64.1733 55.7533 64.92 56.62C65.68 57.4867 66.7733 57.92 68.2 57.92C68.9467 57.92 69.6067 57.8133 70.18 57.6C70.7667 57.3733 71.3733 57 72 56.48L72.84 58.52C72.2667 59.0533 71.58 59.4667 70.78 59.76C69.9933 60.0533 69.1067 60.2 68.12 60.2ZM79.3083 60.2C78.2683 60.2 77.3683 59.9867 76.6083 59.56C75.8483 59.1333 75.2549 58.5267 74.8283 57.74C74.4149 56.9533 74.2083 56.02 74.2083 54.94C74.2083 53.86 74.4149 52.9333 74.8283 52.16C75.2549 51.3733 75.8483 50.7667 76.6083 50.34C77.3683 49.9133 78.2683 49.7 79.3083 49.7C80.3483 49.7 81.2483 49.9133 82.0083 50.34C82.7816 50.7667 83.3749 51.3733 83.7883 52.16C84.2149 52.9333 84.4283 53.86 84.4283 54.94C84.4283 56.02 84.2149 56.9533 83.7883 57.74C83.3749 58.5267 82.7816 59.1333 82.0083 59.56C81.2483 59.9867 80.3483 60.2 79.3083 60.2ZM79.3083 58.28C80.0949 58.28 80.7216 58.0067 81.1883 57.46C81.6549 56.9 81.8883 56.06 81.8883 54.94C81.8883 53.82 81.6549 52.9867 81.1883 52.44C80.7216 51.8933 80.0949 51.62 79.3083 51.62C78.5216 51.62 77.8949 51.8933 77.4283 52.44C76.9616 52.9867 76.7283 53.82 76.7283 54.94C76.7283 56.06 76.9616 56.9 77.4283 57.46C77.8949 58.0067 78.5216 58.28 79.3083 58.28ZM86.9842 60V52.42C86.9842 52.0067 86.9709 51.5867 86.9442 51.16C86.9176 50.7333 86.8776 50.3133 86.8242 49.9H89.2442L89.4442 51.9H89.2042C89.5242 51.1933 89.9976 50.6533 90.6242 50.28C91.2509 49.8933 91.9776 49.7 92.8042 49.7C93.9909 49.7 94.8842 50.0333 95.4842 50.7C96.0842 51.3667 96.3842 52.4067 96.3842 53.82V60H93.8842V53.94C93.8842 53.1267 93.7242 52.5467 93.4042 52.2C93.0976 51.84 92.6309 51.66 92.0042 51.66C91.2309 51.66 90.6176 51.9 90.1642 52.38C89.7109 52.86 89.4842 53.5 89.4842 54.3V60H86.9842ZM103.035 60.2C102.168 60.2 101.368 60.1 100.635 59.9C99.915 59.6867 99.3083 59.3933 98.815 59.02L99.515 57.34C100.022 57.6867 100.582 57.9533 101.195 58.14C101.808 58.3267 102.428 58.42 103.055 58.42C103.722 58.42 104.215 58.3067 104.535 58.08C104.868 57.8533 105.035 57.5467 105.035 57.16C105.035 56.8533 104.928 56.6133 104.715 56.44C104.515 56.2533 104.188 56.1133 103.735 56.02L101.735 55.64C100.882 55.4533 100.228 55.1333 99.775 54.68C99.335 54.2267 99.115 53.6333 99.115 52.9C99.115 52.2733 99.2817 51.72 99.615 51.24C99.9617 50.76 100.448 50.3867 101.075 50.12C101.715 49.84 102.462 49.7 103.315 49.7C104.062 49.7 104.762 49.8 105.415 50C106.082 50.2 106.642 50.5 107.095 50.9L106.375 52.52C105.962 52.1867 105.488 51.9267 104.955 51.74C104.422 51.5533 103.902 51.46 103.395 51.46C102.702 51.46 102.195 51.5867 101.875 51.84C101.555 52.08 101.395 52.3933 101.395 52.78C101.395 53.0733 101.488 53.32 101.675 53.52C101.875 53.7067 102.182 53.8467 102.595 53.94L104.595 54.32C105.488 54.4933 106.162 54.8 106.615 55.24C107.082 55.6667 107.315 56.2533 107.315 57C107.315 57.6667 107.135 58.24 106.775 58.72C106.415 59.2 105.915 59.5667 105.275 59.82C104.635 60.0733 103.888 60.2 103.035 60.2ZM113.495 60.2C112.255 60.2 111.328 59.86 110.715 59.18C110.101 58.5 109.795 57.46 109.795 56.06V49.9H112.295V56.04C112.295 56.7867 112.448 57.34 112.755 57.7C113.061 58.0467 113.528 58.22 114.155 58.22C114.861 58.22 115.435 57.98 115.875 57.5C116.328 57.02 116.555 56.3867 116.555 55.6V49.9H119.055V60H116.615V57.94H116.895C116.601 58.66 116.155 59.22 115.555 59.62C114.968 60.0067 114.281 60.2 113.495 60.2ZM122.169 60V45.28H124.669V60H122.169ZM132.103 60.2C130.903 60.2 129.997 59.8867 129.383 59.26C128.77 58.6333 128.463 57.6933 128.463 56.44V51.78H126.523V49.9H128.463V47.32L130.963 46.68V49.9H133.663V51.78H130.963V56.28C130.963 56.9733 131.097 57.46 131.363 57.74C131.63 58.02 131.997 58.16 132.463 58.16C132.717 58.16 132.93 58.14 133.103 58.1C133.29 58.06 133.47 58.0067 133.643 57.94V59.92C133.417 60.0133 133.163 60.08 132.883 60.12C132.617 60.1733 132.357 60.2 132.103 60.2ZM139.662 60.2C138.782 60.2 138.008 59.9933 137.342 59.58C136.675 59.1533 136.155 58.5467 135.782 57.76C135.408 56.9733 135.222 56.0333 135.222 54.94C135.222 53.8467 135.408 52.9133 135.782 52.14C136.155 51.3533 136.675 50.7533 137.342 50.34C138.008 49.9133 138.782 49.7 139.662 49.7C140.515 49.7 141.262 49.9133 141.902 50.34C142.555 50.7533 142.988 51.3133 143.202 52.02H142.982L143.202 49.9H145.602C145.562 50.3133 145.522 50.7333 145.482 51.16C145.455 51.5867 145.442 52.0067 145.442 52.42V60H142.962L142.942 57.92H143.182C142.968 58.6133 142.535 59.1667 141.882 59.58C141.228 59.9933 140.488 60.2 139.662 60.2ZM140.362 58.28C141.148 58.28 141.782 58.0067 142.262 57.46C142.742 56.9 142.982 56.06 142.982 54.94C142.982 53.82 142.742 52.9867 142.262 52.44C141.782 51.8933 141.148 51.62 140.362 51.62C139.575 51.62 138.942 51.8933 138.462 52.44C137.982 52.9867 137.742 53.82 137.742 54.94C137.742 56.06 137.975 56.9 138.442 57.46C138.922 58.0067 139.562 58.28 140.362 58.28ZM152.884 60.2C151.684 60.2 150.777 59.8867 150.164 59.26C149.551 58.6333 149.244 57.6933 149.244 56.44V51.78H147.304V49.9H149.244V47.32L151.744 46.68V49.9H154.444V51.78H151.744V56.28C151.744 56.9733 151.877 57.46 152.144 57.74C152.411 58.02 152.777 58.16 153.244 58.16C153.497 58.16 153.711 58.14 153.884 58.1C154.071 58.06 154.251 58.0067 154.424 57.94V59.92C154.197 60.0133 153.944 60.08 153.664 60.12C153.397 60.1733 153.137 60.2 152.884 60.2ZM156.542 60V49.9H159.042V60H156.542ZM156.402 48V45.56H159.182V48H156.402ZM166.717 60.2C165.677 60.2 164.777 59.9867 164.017 59.56C163.257 59.1333 162.664 58.5267 162.237 57.74C161.824 56.9533 161.617 56.02 161.617 54.94C161.617 53.86 161.824 52.9333 162.237 52.16C162.664 51.3733 163.257 50.7667 164.017 50.34C164.777 49.9133 165.677 49.7 166.717 49.7C167.757 49.7 168.657 49.9133 169.417 50.34C170.19 50.7667 170.784 51.3733 171.197 52.16C171.624 52.9333 171.837 53.86 171.837 54.94C171.837 56.02 171.624 56.9533 171.197 57.74C170.784 58.5267 170.19 59.1333 169.417 59.56C168.657 59.9867 167.757 60.2 166.717 60.2ZM166.717 58.28C167.504 58.28 168.13 58.0067 168.597 57.46C169.064 56.9 169.297 56.06 169.297 54.94C169.297 53.82 169.064 52.9867 168.597 52.44C168.13 51.8933 167.504 51.62 166.717 51.62C165.93 51.62 165.304 51.8933 164.837 52.44C164.37 52.9867 164.137 53.82 164.137 54.94C164.137 56.06 164.37 56.9 164.837 57.46C165.304 58.0067 165.93 58.28 166.717 58.28ZM174.393 60V52.42C174.393 52.0067 174.379 51.5867 174.353 51.16C174.326 50.7333 174.286 50.3133 174.233 49.9H176.653L176.853 51.9H176.613C176.933 51.1933 177.406 50.6533 178.033 50.28C178.659 49.8933 179.386 49.7 180.213 49.7C181.399 49.7 182.293 50.0333 182.893 50.7C183.493 51.3667 183.793 52.4067 183.793 53.82V60H181.293V53.94C181.293 53.1267 181.133 52.5467 180.813 52.2C180.506 51.84 180.039 51.66 179.413 51.66C178.639 51.66 178.026 51.9 177.573 52.38C177.119 52.86 176.893 53.5 176.893 54.3V60H174.393ZM192.732 60V49.9H195.232V60H192.732ZM192.592 48V45.56H195.372V48H192.592ZM198.347 60V52.42C198.347 52.0067 198.333 51.5867 198.307 51.16C198.28 50.7333 198.24 50.3133 198.187 49.9H200.607L200.807 51.9H200.567C200.887 51.1933 201.36 50.6533 201.987 50.28C202.613 49.8933 203.34 49.7 204.167 49.7C205.353 49.7 206.247 50.0333 206.847 50.7C207.447 51.3667 207.747 52.4067 207.747 53.82V60H205.247V53.94C205.247 53.1267 205.087 52.5467 204.767 52.2C204.46 51.84 203.993 51.66 203.367 51.66C202.593 51.66 201.98 51.9 201.527 52.38C201.073 52.86 200.847 53.5 200.847 54.3V60H198.347ZM220.586 60.2C219.706 60.2 218.932 59.9933 218.266 59.58C217.599 59.1533 217.079 58.5467 216.706 57.76C216.332 56.9733 216.146 56.0333 216.146 54.94C216.146 53.8467 216.332 52.9133 216.706 52.14C217.079 51.3533 217.599 50.7533 218.266 50.34C218.932 49.9133 219.706 49.7 220.586 49.7C221.439 49.7 222.186 49.9133 222.826 50.34C223.479 50.7533 223.912 51.3133 224.126 52.02H223.906L224.126 49.9H226.526C226.486 50.3133 226.446 50.7333 226.406 51.16C226.379 51.5867 226.366 52.0067 226.366 52.42V60H223.886L223.866 57.92H224.106C223.892 58.6133 223.459 59.1667 222.806 59.58C222.152 59.9933 221.412 60.2 220.586 60.2ZM221.286 58.28C222.072 58.28 222.706 58.0067 223.186 57.46C223.666 56.9 223.906 56.06 223.906 54.94C223.906 53.82 223.666 52.9867 223.186 52.44C222.706 51.8933 222.072 51.62 221.286 51.62C220.499 51.62 219.866 51.8933 219.386 52.44C218.906 52.9867 218.666 53.82 218.666 54.94C218.666 56.06 218.899 56.9 219.366 57.46C219.846 58.0067 220.486 58.28 221.286 58.28ZM229.488 60V52.42C229.488 52.0067 229.475 51.5867 229.448 51.16C229.421 50.7333 229.381 50.3133 229.328 49.9H231.748L231.948 51.9H231.708C232.028 51.1933 232.501 50.6533 233.128 50.28C233.755 49.8933 234.481 49.7 235.308 49.7C236.495 49.7 237.388 50.0333 237.988 50.7C238.588 51.3667 238.888 52.4067 238.888 53.82V60H236.388V53.94C236.388 53.1267 236.228 52.5467 235.908 52.2C235.601 51.84 235.135 51.66 234.508 51.66C233.735 51.66 233.121 51.9 232.668 52.38C232.215 52.86 231.988 53.5 231.988 54.3V60H229.488ZM241.641 64.54L241.061 62.56C241.688 62.4267 242.215 62.2733 242.641 62.1C243.068 61.9267 243.421 61.7 243.701 61.42C243.981 61.14 244.215 60.78 244.401 60.34L244.901 59.16L244.841 60.14L240.441 49.9H243.101L246.261 57.78H245.681L248.861 49.9H251.381L246.781 60.56C246.475 61.28 246.141 61.8733 245.781 62.34C245.421 62.82 245.035 63.2 244.621 63.48C244.208 63.7733 243.755 64 243.261 64.16C242.768 64.32 242.228 64.4467 241.641 64.54ZM258.989 60V45.28H261.489V60H258.989ZM268.504 60.2C267.624 60.2 266.85 59.9933 266.184 59.58C265.517 59.1533 264.997 58.5467 264.624 57.76C264.25 56.9733 264.064 56.0333 264.064 54.94C264.064 53.8467 264.25 52.9133 264.624 52.14C264.997 51.3533 265.517 50.7533 266.184 50.34C266.85 49.9133 267.624 49.7 268.504 49.7C269.357 49.7 270.104 49.9133 270.744 50.34C271.397 50.7533 271.83 51.3133 272.044 52.02H271.824L272.044 49.9H274.444C274.404 50.3133 274.364 50.7333 274.324 51.16C274.297 51.5867 274.284 52.0067 274.284 52.42V60H271.804L271.784 57.92H272.024C271.81 58.6133 271.377 59.1667 270.724 59.58C270.07 59.9933 269.33 60.2 268.504 60.2ZM269.204 58.28C269.99 58.28 270.624 58.0067 271.104 57.46C271.584 56.9 271.824 56.06 271.824 54.94C271.824 53.82 271.584 52.9867 271.104 52.44C270.624 51.8933 269.99 51.62 269.204 51.62C268.417 51.62 267.784 51.8933 267.304 52.44C266.824 52.9867 266.584 53.82 266.584 54.94C266.584 56.06 266.817 56.9 267.284 57.46C267.764 58.0067 268.404 58.28 269.204 58.28ZM277.406 60V52.42C277.406 52.0067 277.393 51.5867 277.366 51.16C277.339 50.7333 277.299 50.3133 277.246 49.9H279.666L279.866 51.9H279.626C279.946 51.1933 280.419 50.6533 281.046 50.28C281.673 49.8933 282.399 49.7 283.226 49.7C284.413 49.7 285.306 50.0333 285.906 50.7C286.506 51.3667 286.806 52.4067 286.806 53.82V60H284.306V53.94C284.306 53.1267 284.146 52.5467 283.826 52.2C283.519 51.84 283.053 51.66 282.426 51.66C281.653 51.66 281.039 51.9 280.586 52.38C280.133 52.86 279.906 53.5 279.906 54.3V60H277.406ZM294.537 64.48C293.604 64.48 292.757 64.38 291.997 64.18C291.25 63.98 290.584 63.6733 289.997 63.26L290.537 61.46C290.924 61.7133 291.324 61.92 291.737 62.08C292.15 62.24 292.577 62.36 293.017 62.44C293.457 62.52 293.904 62.56 294.357 62.56C295.29 62.56 295.984 62.3267 296.437 61.86C296.904 61.4067 297.137 60.7533 297.137 59.9V57.48H297.337C297.124 58.1733 296.69 58.7267 296.037 59.14C295.397 59.5533 294.657 59.76 293.817 59.76C292.91 59.76 292.117 59.56 291.437 59.16C290.77 58.7467 290.25 58.16 289.877 57.4C289.504 56.64 289.317 55.7467 289.317 54.72C289.317 53.6933 289.504 52.8067 289.877 52.06C290.25 51.3 290.77 50.72 291.437 50.32C292.117 49.9067 292.91 49.7 293.817 49.7C294.67 49.7 295.41 49.9067 296.037 50.32C296.677 50.72 297.104 51.2667 297.317 51.96L297.137 51.84L297.337 49.9H299.757C299.704 50.3133 299.664 50.7333 299.637 51.16C299.61 51.5867 299.597 52.0067 299.597 52.42V59.6C299.597 61.1867 299.164 62.3933 298.297 63.22C297.444 64.06 296.19 64.48 294.537 64.48ZM294.497 57.84C295.297 57.84 295.93 57.5733 296.397 57.04C296.877 56.4933 297.117 55.72 297.117 54.72C297.117 53.72 296.877 52.9533 296.397 52.42C295.93 51.8867 295.297 51.62 294.497 51.62C293.684 51.62 293.037 51.8867 292.557 52.42C292.077 52.9533 291.837 53.72 291.837 54.72C291.837 55.72 292.077 56.4933 292.557 57.04C293.037 57.5733 293.684 57.84 294.497 57.84ZM306.338 60.2C305.098 60.2 304.172 59.86 303.558 59.18C302.945 58.5 302.638 57.46 302.638 56.06V49.9H305.138V56.04C305.138 56.7867 305.292 57.34 305.598 57.7C305.905 58.0467 306.372 58.22 306.998 58.22C307.705 58.22 308.278 57.98 308.718 57.5C309.172 57.02 309.398 56.3867 309.398 55.6V49.9H311.898V60H309.458V57.94H309.738C309.445 58.66 308.998 59.22 308.398 59.62C307.812 60.0067 307.125 60.2 306.338 60.2ZM318.912 60.2C318.032 60.2 317.259 59.9933 316.592 59.58C315.926 59.1533 315.406 58.5467 315.032 57.76C314.659 56.9733 314.472 56.0333 314.472 54.94C314.472 53.8467 314.659 52.9133 315.032 52.14C315.406 51.3533 315.926 50.7533 316.592 50.34C317.259 49.9133 318.032 49.7 318.912 49.7C319.766 49.7 320.512 49.9133 321.152 50.34C321.806 50.7533 322.239 51.3133 322.452 52.02H322.232L322.452 49.9H324.852C324.812 50.3133 324.772 50.7333 324.732 51.16C324.706 51.5867 324.692 52.0067 324.692 52.42V60H322.212L322.192 57.92H322.432C322.219 58.6133 321.786 59.1667 321.132 59.58C320.479 59.9933 319.739 60.2 318.912 60.2ZM319.612 58.28C320.399 58.28 321.032 58.0067 321.512 57.46C321.992 56.9 322.232 56.06 322.232 54.94C322.232 53.82 321.992 52.9867 321.512 52.44C321.032 51.8933 320.399 51.62 319.612 51.62C318.826 51.62 318.192 51.8933 317.712 52.44C317.232 52.9867 316.992 53.82 316.992 54.94C316.992 56.06 317.226 56.9 317.692 57.46C318.172 58.0067 318.812 58.28 319.612 58.28ZM332.495 64.48C331.561 64.48 330.715 64.38 329.955 64.18C329.208 63.98 328.541 63.6733 327.955 63.26L328.495 61.46C328.881 61.7133 329.281 61.92 329.695 62.08C330.108 62.24 330.535 62.36 330.975 62.44C331.415 62.52 331.861 62.56 332.315 62.56C333.248 62.56 333.941 62.3267 334.395 61.86C334.861 61.4067 335.095 60.7533 335.095 59.9V57.48H335.295C335.081 58.1733 334.648 58.7267 333.995 59.14C333.355 59.5533 332.615 59.76 331.775 59.76C330.868 59.76 330.075 59.56 329.395 59.16C328.728 58.7467 328.208 58.16 327.835 57.4C327.461 56.64 327.275 55.7467 327.275 54.72C327.275 53.6933 327.461 52.8067 327.835 52.06C328.208 51.3 328.728 50.72 329.395 50.32C330.075 49.9067 330.868 49.7 331.775 49.7C332.628 49.7 333.368 49.9067 333.995 50.32C334.635 50.72 335.061 51.2667 335.275 51.96L335.095 51.84L335.295 49.9H337.715C337.661 50.3133 337.621 50.7333 337.595 51.16C337.568 51.5867 337.555 52.0067 337.555 52.42V59.6C337.555 61.1867 337.121 62.3933 336.255 63.22C335.401 64.06 334.148 64.48 332.495 64.48ZM332.455 57.84C333.255 57.84 333.888 57.5733 334.355 57.04C334.835 56.4933 335.075 55.72 335.075 54.72C335.075 53.72 334.835 52.9533 334.355 52.42C333.888 51.8867 333.255 51.62 332.455 51.62C331.641 51.62 330.995 51.8867 330.515 52.42C330.035 52.9533 329.795 53.72 329.795 54.72C329.795 55.72 330.035 56.4933 330.515 57.04C330.995 57.5733 331.641 57.84 332.455 57.84ZM345.536 60.2C343.843 60.2 342.516 59.7333 341.556 58.8C340.596 57.8667 340.116 56.5867 340.116 54.96C340.116 53.9067 340.323 52.9867 340.736 52.2C341.149 51.4133 341.723 50.8 342.456 50.36C343.203 49.92 344.069 49.7 345.056 49.7C346.029 49.7 346.843 49.9067 347.496 50.32C348.149 50.7333 348.643 51.3133 348.976 52.06C349.323 52.8067 349.496 53.68 349.496 54.68V55.34H342.136V54.02H347.716L347.376 54.3C347.376 53.3667 347.176 52.6533 346.776 52.16C346.389 51.6667 345.823 51.42 345.076 51.42C344.249 51.42 343.609 51.7133 343.156 52.3C342.716 52.8867 342.496 53.7067 342.496 54.76V55.02C342.496 56.1133 342.763 56.9333 343.296 57.48C343.843 58.0133 344.609 58.28 345.596 58.28C346.169 58.28 346.703 58.2067 347.196 58.06C347.703 57.9 348.183 57.6467 348.636 57.3L349.376 58.98C348.896 59.3667 348.323 59.6667 347.656 59.88C346.989 60.0933 346.283 60.2 345.536 60.2ZM357.641 59.36V57.42L366.701 53.64V54.88L357.641 51.1V49.16L367.461 53.3V55.2L357.641 59.36ZM379.782 60.2C378.915 60.2 378.115 60.1 377.382 59.9C376.662 59.6867 376.055 59.3933 375.562 59.02L376.262 57.34C376.769 57.6867 377.329 57.9533 377.942 58.14C378.555 58.3267 379.175 58.42 379.802 58.42C380.469 58.42 380.962 58.3067 381.282 58.08C381.615 57.8533 381.782 57.5467 381.782 57.16C381.782 56.8533 381.675 56.6133 381.462 56.44C381.262 56.2533 380.935 56.1133 380.482 56.02L378.482 55.64C377.629 55.4533 376.975 55.1333 376.522 54.68C376.082 54.2267 375.862 53.6333 375.862 52.9C375.862 52.2733 376.029 51.72 376.362 51.24C376.709 50.76 377.195 50.3867 377.822 50.12C378.462 49.84 379.209 49.7 380.062 49.7C380.809 49.7 381.509 49.8 382.162 50C382.829 50.2 383.389 50.5 383.842 50.9L383.122 52.52C382.709 52.1867 382.235 51.9267 381.702 51.74C381.169 51.5533 380.649 51.46 380.142 51.46C379.449 51.46 378.942 51.5867 378.622 51.84C378.302 52.08 378.142 52.3933 378.142 52.78C378.142 53.0733 378.235 53.32 378.422 53.52C378.622 53.7067 378.929 53.8467 379.342 53.94L381.342 54.32C382.235 54.4933 382.909 54.8 383.362 55.24C383.829 55.6667 384.062 56.2533 384.062 57C384.062 57.6667 383.882 58.24 383.522 58.72C383.162 59.2 382.662 59.5667 382.022 59.82C381.382 60.0733 380.635 60.2 379.782 60.2ZM390.824 60.2C389.624 60.2 388.717 59.8867 388.104 59.26C387.49 58.6333 387.184 57.6933 387.184 56.44V51.78H385.244V49.9H387.184V47.32L389.684 46.68V49.9H392.384V51.78H389.684V56.28C389.684 56.9733 389.817 57.46 390.084 57.74C390.35 58.02 390.717 58.16 391.184 58.16C391.437 58.16 391.65 58.14 391.824 58.1C392.01 58.06 392.19 58.0067 392.364 57.94V59.92C392.137 60.0133 391.884 60.08 391.604 60.12C391.337 60.1733 391.077 60.2 390.824 60.2ZM394.462 60V52.48C394.462 52.0533 394.449 51.62 394.422 51.18C394.409 50.74 394.375 50.3133 394.322 49.9H396.742L397.022 52.66H396.622C396.755 51.9933 396.975 51.44 397.282 51C397.602 50.56 397.989 50.2333 398.442 50.02C398.895 49.8067 399.389 49.7 399.922 49.7C400.162 49.7 400.355 49.7133 400.502 49.74C400.649 49.7533 400.795 49.7867 400.942 49.84L400.922 52.04C400.669 51.9333 400.449 51.8667 400.262 51.84C400.089 51.8133 399.869 51.8 399.602 51.8C399.029 51.8 398.542 51.92 398.142 52.16C397.755 52.4 397.462 52.7333 397.262 53.16C397.075 53.5867 396.982 54.0733 396.982 54.62V60H394.462ZM406.373 60.2C405.133 60.2 404.207 59.86 403.593 59.18C402.98 58.5 402.673 57.46 402.673 56.06V49.9H405.173V56.04C405.173 56.7867 405.327 57.34 405.633 57.7C405.94 58.0467 406.407 58.22 407.033 58.22C407.74 58.22 408.313 57.98 408.753 57.5C409.207 57.02 409.433 56.3867 409.433 55.6V49.9H411.933V60H409.493V57.94H409.773C409.48 58.66 409.033 59.22 408.433 59.62C407.847 60.0067 407.16 60.2 406.373 60.2ZM419.688 60.2C418.648 60.2 417.734 59.9867 416.948 59.56C416.174 59.1333 415.574 58.5267 415.148 57.74C414.721 56.94 414.508 55.9933 414.508 54.9C414.508 53.8067 414.721 52.8733 415.148 52.1C415.588 51.3267 416.194 50.7333 416.968 50.32C417.741 49.9067 418.648 49.7 419.688 49.7C420.354 49.7 421.001 49.8067 421.628 50.02C422.268 50.22 422.788 50.5133 423.188 50.9L422.428 52.64C422.068 52.3067 421.661 52.06 421.208 51.9C420.768 51.7267 420.334 51.64 419.908 51.64C419.014 51.64 418.314 51.92 417.808 52.48C417.314 53.04 417.068 53.8533 417.068 54.92C417.068 55.9867 417.314 56.8067 417.808 57.38C418.314 57.9533 419.014 58.24 419.908 58.24C420.321 58.24 420.748 58.16 421.188 58C421.641 57.84 422.054 57.5933 422.428 57.26L423.188 58.98C422.774 59.3667 422.248 59.6667 421.608 59.88C420.981 60.0933 420.341 60.2 419.688 60.2ZM429.885 60.2C428.685 60.2 427.778 59.8867 427.165 59.26C426.551 58.6333 426.245 57.6933 426.245 56.44V51.78H424.305V49.9H426.245V47.32L428.745 46.68V49.9H431.445V51.78H428.745V56.28C428.745 56.9733 428.878 57.46 429.145 57.74C429.411 58.02 429.778 58.16 430.245 58.16C430.498 58.16 430.711 58.14 430.885 58.1C431.071 58.06 431.251 58.0067 431.425 57.94V59.92C431.198 60.0133 430.945 60.08 430.665 60.12C430.398 60.1733 430.138 60.2 429.885 60.2ZM437.183 60.2C435.943 60.2 435.016 59.86 434.403 59.18C433.789 58.5 433.483 57.46 433.483 56.06V49.9H435.983V56.04C435.983 56.7867 436.136 57.34 436.443 57.7C436.749 58.0467 437.216 58.22 437.843 58.22C438.549 58.22 439.123 57.98 439.563 57.5C440.016 57.02 440.243 56.3867 440.243 55.6V49.9H442.743V60H440.303V57.94H440.583C440.289 58.66 439.843 59.22 439.243 59.62C438.656 60.0067 437.969 60.2 437.183 60.2ZM445.837 60V52.48C445.837 52.0533 445.824 51.62 445.797 51.18C445.784 50.74 445.75 50.3133 445.697 49.9H448.117L448.397 52.66H447.997C448.13 51.9933 448.35 51.44 448.657 51C448.977 50.56 449.364 50.2333 449.817 50.02C450.27 49.8067 450.764 49.7 451.297 49.7C451.537 49.7 451.73 49.7133 451.877 49.74C452.024 49.7533 452.17 49.7867 452.317 49.84L452.297 52.04C452.044 51.9333 451.824 51.8667 451.637 51.84C451.464 51.8133 451.244 51.8 450.977 51.8C450.404 51.8 449.917 51.92 449.517 52.16C449.13 52.4 448.837 52.7333 448.637 53.16C448.45 53.5867 448.357 54.0733 448.357 54.62V60H445.837ZM458.832 60.2C457.139 60.2 455.812 59.7333 454.852 58.8C453.892 57.8667 453.412 56.5867 453.412 54.96C453.412 53.9067 453.619 52.9867 454.032 52.2C454.446 51.4133 455.019 50.8 455.752 50.36C456.499 49.92 457.366 49.7 458.352 49.7C459.326 49.7 460.139 49.9067 460.792 50.32C461.446 50.7333 461.939 51.3133 462.272 52.06C462.619 52.8067 462.792 53.68 462.792 54.68V55.34H455.432V54.02H461.012L460.672 54.3C460.672 53.3667 460.472 52.6533 460.072 52.16C459.686 51.6667 459.119 51.42 458.372 51.42C457.546 51.42 456.906 51.7133 456.452 52.3C456.012 52.8867 455.792 53.7067 455.792 54.76V55.02C455.792 56.1133 456.059 56.9333 456.592 57.48C457.139 58.0133 457.906 58.28 458.892 58.28C459.466 58.28 459.999 58.2067 460.492 58.06C460.999 57.9 461.479 57.6467 461.932 57.3L462.672 58.98C462.192 59.3667 461.619 59.6667 460.952 59.88C460.286 60.0933 459.579 60.2 458.832 60.2ZM469.229 60.2C468.349 60.2 467.569 59.9933 466.889 59.58C466.223 59.1533 465.703 58.5467 465.329 57.76C464.956 56.9733 464.769 56.0333 464.769 54.94C464.769 53.8467 464.956 52.9133 465.329 52.14C465.703 51.3533 466.223 50.7533 466.889 50.34C467.569 49.9133 468.349 49.7 469.229 49.7C470.069 49.7 470.809 49.9067 471.449 50.32C472.103 50.72 472.536 51.2667 472.749 51.96H472.489V45.28H474.989V60H472.529V57.86H472.769C472.556 58.58 472.123 59.1533 471.469 59.58C470.829 59.9933 470.083 60.2 469.229 60.2ZM469.929 58.28C470.716 58.28 471.349 58.0067 471.829 57.46C472.309 56.9 472.549 56.06 472.549 54.94C472.549 53.82 472.309 52.9867 471.829 52.44C471.349 51.8933 470.716 51.62 469.929 51.62C469.143 51.62 468.503 51.8933 468.009 52.44C467.529 52.9867 467.289 53.82 467.289 54.94C467.289 56.06 467.529 56.9 468.009 57.46C468.503 58.0067 469.143 58.28 469.929 58.28ZM484 60V52.42C484 52.0067 483.986 51.5867 483.96 51.16C483.933 50.7333 483.893 50.3133 483.84 49.9H486.26L486.46 51.9H486.22C486.54 51.1933 487.013 50.6533 487.64 50.28C488.266 49.8933 488.993 49.7 489.82 49.7C491.006 49.7 491.9 50.0333 492.5 50.7C493.1 51.3667 493.4 52.4067 493.4 53.82V60H490.9V53.94C490.9 53.1267 490.74 52.5467 490.42 52.2C490.113 51.84 489.646 51.66 489.02 51.66C488.246 51.66 487.633 51.9 487.18 52.38C486.726 52.86 486.5 53.5 486.5 54.3V60H484ZM501.011 60.2C499.971 60.2 499.071 59.9867 498.311 59.56C497.551 59.1333 496.957 58.5267 496.531 57.74C496.117 56.9533 495.911 56.02 495.911 54.94C495.911 53.86 496.117 52.9333 496.531 52.16C496.957 51.3733 497.551 50.7667 498.311 50.34C499.071 49.9133 499.971 49.7 501.011 49.7C502.051 49.7 502.951 49.9133 503.711 50.34C504.484 50.7667 505.077 51.3733 505.491 52.16C505.917 52.9333 506.131 53.86 506.131 54.94C506.131 56.02 505.917 56.9533 505.491 57.74C505.077 58.5267 504.484 59.1333 503.711 59.56C502.951 59.9867 502.051 60.2 501.011 60.2ZM501.011 58.28C501.797 58.28 502.424 58.0067 502.891 57.46C503.357 56.9 503.591 56.06 503.591 54.94C503.591 53.82 503.357 52.9867 502.891 52.44C502.424 51.8933 501.797 51.62 501.011 51.62C500.224 51.62 499.597 51.8933 499.131 52.44C498.664 52.9867 498.431 53.82 498.431 54.94C498.431 56.06 498.664 56.9 499.131 57.46C499.597 58.0067 500.224 58.28 501.011 58.28ZM512.909 60.2C511.709 60.2 510.802 59.8867 510.189 59.26C509.576 58.6333 509.269 57.6933 509.269 56.44V51.78H507.329V49.9H509.269V47.32L511.769 46.68V49.9H514.469V51.78H511.769V56.28C511.769 56.9733 511.902 57.46 512.169 57.74C512.436 58.02 512.802 58.16 513.269 58.16C513.522 58.16 513.736 58.14 513.909 58.1C514.096 58.06 514.276 58.0067 514.449 57.94V59.92C514.222 60.0133 513.969 60.08 513.689 60.12C513.422 60.1733 513.162 60.2 512.909 60.2ZM521.349 60.2C519.656 60.2 518.329 59.7333 517.369 58.8C516.409 57.8667 515.929 56.5867 515.929 54.96C515.929 53.9067 516.136 52.9867 516.549 52.2C516.963 51.4133 517.536 50.8 518.269 50.36C519.016 49.92 519.883 49.7 520.869 49.7C521.843 49.7 522.656 49.9067 523.309 50.32C523.963 50.7333 524.456 51.3133 524.789 52.06C525.136 52.8067 525.309 53.68 525.309 54.68V55.34H517.949V54.02H523.529L523.189 54.3C523.189 53.3667 522.989 52.6533 522.589 52.16C522.203 51.6667 521.636 51.42 520.889 51.42C520.063 51.42 519.423 51.7133 518.969 52.3C518.529 52.8867 518.309 53.7067 518.309 54.76V55.02C518.309 56.1133 518.576 56.9333 519.109 57.48C519.656 58.0133 520.423 58.28 521.409 58.28C521.983 58.28 522.516 58.2067 523.009 58.06C523.516 57.9 523.996 57.6467 524.449 57.3L525.189 58.98C524.709 59.3667 524.136 59.6667 523.469 59.88C522.803 60.0933 522.096 60.2 521.349 60.2Z" fill="#00ADB5"/>
<rect x="60" y="94" width="96" height="46" rx="6" fill="#C2FCFF"/>
<rect x="60" y="94" width="96" height="46" rx="6" stroke="#00ADB5"/>
<path d="M81.376 123V111.72H88.672V112.936H82.816V116.664H88.304V117.88H82.816V121.784H88.672V123H81.376ZM90.9735 123V116.856C90.9735 116.547 90.9628 116.232 90.9415 115.912C90.9202 115.592 90.8882 115.272 90.8455 114.952H92.2535L92.4135 116.68H92.2215C92.4668 116.072 92.8455 115.608 93.3575 115.288C93.8695 114.968 94.4668 114.808 95.1495 114.808C96.0988 114.808 96.8135 115.069 97.2935 115.592C97.7735 116.104 98.0135 116.904 98.0135 117.992V123H96.5575V118.072C96.5575 117.336 96.4135 116.808 96.1255 116.488C95.8375 116.157 95.3895 115.992 94.7815 115.992C94.0562 115.992 93.4802 116.211 93.0535 116.648C92.6375 117.085 92.4295 117.677 92.4295 118.424V123H90.9735ZM104.299 126.584C103.595 126.584 102.95 126.499 102.363 126.328C101.777 126.157 101.249 125.896 100.779 125.544L101.163 124.472C101.494 124.696 101.819 124.877 102.139 125.016C102.459 125.155 102.79 125.256 103.131 125.32C103.483 125.384 103.846 125.416 104.219 125.416C105.009 125.416 105.601 125.213 105.995 124.808C106.39 124.403 106.587 123.827 106.587 123.08V120.824H106.747C106.577 121.432 106.225 121.917 105.691 122.28C105.169 122.632 104.55 122.808 103.835 122.808C103.11 122.808 102.475 122.648 101.931 122.328C101.398 121.997 100.982 121.533 100.683 120.936C100.385 120.328 100.235 119.619 100.235 118.808C100.235 117.987 100.385 117.277 100.683 116.68C100.982 116.083 101.398 115.624 101.931 115.304C102.475 114.973 103.11 114.808 103.835 114.808C104.55 114.808 105.169 114.984 105.691 115.336C106.214 115.688 106.561 116.173 106.731 116.792L106.587 116.648L106.731 114.952H108.139C108.107 115.272 108.075 115.592 108.043 115.912C108.022 116.232 108.011 116.547 108.011 116.856V122.904C108.011 124.099 107.697 125.011 107.067 125.64C106.449 126.269 105.526 126.584 104.299 126.584ZM104.155 121.656C104.891 121.656 105.478 121.405 105.915 120.904C106.353 120.403 106.571 119.704 106.571 118.808C106.571 117.901 106.353 117.203 105.915 116.712C105.478 116.221 104.891 115.976 104.155 115.976C103.409 115.976 102.811 116.221 102.363 116.712C101.926 117.203 101.707 117.901 101.707 118.808C101.707 119.704 101.926 120.403 102.363 120.904C102.811 121.405 103.409 121.656 104.155 121.656ZM110.77 123V111.224H112.226V123H110.77ZM114.98 123V114.952H116.436V123H114.98ZM114.852 113.192V111.624H116.58V113.192H114.852ZM121.911 123.144C121.26 123.144 120.652 123.059 120.087 122.888C119.532 122.717 119.074 122.472 118.711 122.152L119.175 121.144C119.57 121.443 120.002 121.672 120.471 121.832C120.951 121.981 121.442 122.056 121.943 122.056C122.551 122.056 123.01 121.944 123.319 121.72C123.639 121.496 123.799 121.197 123.799 120.824C123.799 120.525 123.698 120.285 123.495 120.104C123.292 119.923 122.972 119.789 122.535 119.704L121.015 119.4C120.332 119.24 119.815 118.984 119.463 118.632C119.122 118.269 118.951 117.805 118.951 117.24C118.951 116.771 119.079 116.355 119.335 115.992C119.591 115.619 119.954 115.331 120.423 115.128C120.903 114.915 121.463 114.808 122.103 114.808C122.69 114.808 123.234 114.893 123.735 115.064C124.247 115.235 124.668 115.485 124.999 115.816L124.519 116.792C124.188 116.504 123.815 116.285 123.399 116.136C122.994 115.976 122.578 115.896 122.151 115.896C121.532 115.896 121.074 116.019 120.775 116.264C120.476 116.499 120.327 116.808 120.327 117.192C120.327 117.48 120.418 117.72 120.599 117.912C120.78 118.093 121.074 118.232 121.479 118.328L122.999 118.632C123.714 118.781 124.252 119.027 124.615 119.368C124.978 119.709 125.159 120.163 125.159 120.728C125.159 121.229 125.02 121.661 124.743 122.024C124.476 122.387 124.098 122.664 123.607 122.856C123.127 123.048 122.562 123.144 121.911 123.144ZM127.464 123V111.224H128.92V116.696H128.712C128.947 116.077 129.325 115.608 129.848 115.288C130.371 114.968 130.973 114.808 131.656 114.808C132.627 114.808 133.341 115.069 133.8 115.592C134.269 116.115 134.504 116.904 134.504 117.96V123H133.048V118.04C133.048 117.325 132.909 116.808 132.632 116.488C132.355 116.157 131.901 115.992 131.272 115.992C130.568 115.992 129.997 116.211 129.56 116.648C129.133 117.085 128.92 117.667 128.92 118.392V123H127.464Z" fill="#222831"/>
<rect x="172" y="94" width="80" height="46" rx="6" fill="#C2FCFF"/>
<rect x="172" y="94" width="80" height="46" rx="6" stroke="#00ADB5"/>
<path d="M193.376 123V111.72H194.864V116.648H201.424V111.72H202.928V123H201.424V117.912H194.864V123H193.376ZM205.497 123V114.952H206.953V123H205.497ZM205.369 113.192V111.624H207.097V113.192H205.369ZM209.388 123V116.856C209.388 116.547 209.377 116.232 209.356 115.912C209.335 115.592 209.303 115.272 209.26 114.952H210.668L210.828 116.68H210.636C210.881 116.072 211.26 115.608 211.772 115.288C212.284 114.968 212.881 114.808 213.564 114.808C214.513 114.808 215.228 115.069 215.708 115.592C216.188 116.104 216.428 116.904 216.428 117.992V123H214.972V118.072C214.972 117.336 214.828 116.808 214.54 116.488C214.252 116.157 213.804 115.992 213.196 115.992C212.471 115.992 211.895 116.211 211.468 116.648C211.052 117.085 210.844 117.677 210.844 118.424V123H209.388ZM221.882 123.144C221.178 123.144 220.559 122.979 220.026 122.648C219.492 122.317 219.076 121.837 218.778 121.208C218.479 120.579 218.33 119.832 218.33 118.968C218.33 118.104 218.479 117.363 218.778 116.744C219.076 116.115 219.492 115.635 220.026 115.304C220.559 114.973 221.178 114.808 221.882 114.808C222.586 114.808 223.199 114.984 223.722 115.336C224.255 115.688 224.612 116.173 224.794 116.792H224.602V111.224H226.058V123H224.618V121.128H224.794C224.623 121.757 224.271 122.253 223.738 122.616C223.215 122.968 222.596 123.144 221.882 123.144ZM222.218 121.992C222.943 121.992 223.524 121.736 223.962 121.224C224.41 120.712 224.634 119.96 224.634 118.968C224.634 117.976 224.41 117.229 223.962 116.728C223.524 116.227 222.943 115.976 222.218 115.976C221.492 115.976 220.906 116.227 220.458 116.728C220.02 117.229 219.802 117.976 219.802 118.968C219.802 119.96 220.02 120.712 220.458 121.224C220.906 121.736 221.492 121.992 222.218 121.992ZM228.497 123V114.952H229.953V123H228.497ZM228.369 113.192V111.624H230.097V113.192H228.369Z" fill="#222831"/>
<rect x="268" y="94" width="81" height="46" rx="6" fill="#C2FCFF"/>
<rect x="268" y="94" width="81" height="46" rx="6" stroke="#00ADB5"/>
<path d="M292.08 123V112.984H288.176V111.72H297.504V112.984H293.584V123H292.08ZM300.772 123.144C300.068 123.144 299.45 122.979 298.916 122.648C298.383 122.317 297.967 121.837 297.668 121.208C297.37 120.579 297.22 119.832 297.22 118.968C297.22 118.104 297.37 117.363 297.668 116.744C297.967 116.115 298.383 115.635 298.916 115.304C299.45 114.973 300.068 114.808 300.772 114.808C301.487 114.808 302.106 114.989 302.628 115.352C303.162 115.704 303.514 116.189 303.684 116.808H303.492L303.668 114.952H305.076C305.044 115.272 305.012 115.592 304.98 115.912C304.959 116.232 304.948 116.547 304.948 116.856V123H303.492V121.16H303.668C303.498 121.768 303.146 122.253 302.612 122.616C302.09 122.968 301.476 123.144 300.772 123.144ZM301.108 121.992C301.834 121.992 302.415 121.736 302.852 121.224C303.29 120.712 303.508 119.96 303.508 118.968C303.508 117.976 303.29 117.229 302.852 116.728C302.415 116.227 301.834 115.976 301.108 115.976C300.383 115.976 299.796 116.227 299.348 116.728C298.911 117.229 298.692 117.976 298.692 118.968C298.692 119.96 298.911 120.712 299.348 121.224C299.786 121.736 300.372 121.992 301.108 121.992ZM307.388 123V116.856C307.388 116.547 307.377 116.232 307.356 115.912C307.335 115.592 307.303 115.272 307.26 114.952H308.668L308.828 116.68H308.636C308.849 116.083 309.191 115.624 309.66 115.304C310.129 114.973 310.689 114.808 311.34 114.808C312.001 114.808 312.545 114.968 312.972 115.288C313.399 115.597 313.687 116.088 313.836 116.76H313.596C313.799 116.163 314.156 115.688 314.668 115.336C315.18 114.984 315.777 114.808 316.46 114.808C317.345 114.808 318.012 115.069 318.46 115.592C318.908 116.104 319.132 116.904 319.132 117.992V123H317.676V118.072C317.676 117.336 317.548 116.808 317.292 116.488C317.036 116.157 316.631 115.992 316.076 115.992C315.425 115.992 314.913 116.216 314.54 116.664C314.167 117.101 313.98 117.699 313.98 118.456V123H312.524V118.072C312.524 117.336 312.396 116.808 312.14 116.488C311.895 116.157 311.489 115.992 310.924 115.992C310.273 115.992 309.761 116.216 309.388 116.664C309.025 117.101 308.844 117.699 308.844 118.456V123H307.388ZM321.513 123V114.952H322.969V123H321.513ZM321.385 113.192V111.624H323.113V113.192H321.385ZM325.404 123V111.224H326.86V123H325.404Z" fill="#222831"/>
<rect x="365" y="94" width="90" height="46" rx="6" fill="#C2FCFF"/>
<rect x="365" y="94" width="90" height="46" rx="6" stroke="#00ADB5"/>
<path d="M389.08 123V112.984H385.176V111.72H394.504V112.984H390.584V123H389.08ZM398.364 123.144C397.084 123.144 396.071 122.776 395.324 122.04C394.588 121.304 394.22 120.291 394.22 119C394.22 118.147 394.38 117.411 394.7 116.792C395.031 116.163 395.484 115.677 396.06 115.336C396.636 114.984 397.308 114.808 398.076 114.808C398.812 114.808 399.436 114.968 399.948 115.288C400.46 115.597 400.85 116.04 401.116 116.616C401.383 117.192 401.516 117.875 401.516 118.664V119.144H395.356V118.28H400.524L400.252 118.488C400.252 117.656 400.066 117.011 399.692 116.552C399.33 116.093 398.791 115.864 398.076 115.864C397.298 115.864 396.695 116.136 396.268 116.68C395.842 117.213 395.628 117.944 395.628 118.872V119.016C395.628 119.997 395.868 120.739 396.348 121.24C396.839 121.741 397.516 121.992 398.38 121.992C398.86 121.992 399.308 121.923 399.724 121.784C400.14 121.645 400.54 121.416 400.924 121.096L401.404 122.104C401.042 122.435 400.588 122.691 400.044 122.872C399.511 123.053 398.951 123.144 398.364 123.144ZM403.419 123V111.224H404.875V123H403.419ZM410.174 123.144C409.203 123.144 408.472 122.883 407.982 122.36C407.502 121.837 407.262 121.032 407.262 119.944V114.952H408.718V119.912C408.718 120.616 408.862 121.133 409.15 121.464C409.438 121.795 409.886 121.96 410.494 121.96C411.155 121.96 411.688 121.741 412.094 121.304C412.51 120.856 412.718 120.264 412.718 119.528V114.952H414.174V123H412.766V121.224H412.974C412.75 121.832 412.392 122.307 411.902 122.648C411.411 122.979 410.835 123.144 410.174 123.144ZM420.206 126.584C419.502 126.584 418.857 126.499 418.27 126.328C417.684 126.157 417.156 125.896 416.686 125.544L417.07 124.472C417.401 124.696 417.726 124.877 418.046 125.016C418.366 125.155 418.697 125.256 419.038 125.32C419.39 125.384 419.753 125.416 420.126 125.416C420.916 125.416 421.508 125.213 421.902 124.808C422.297 124.403 422.494 123.827 422.494 123.08V120.824H422.654C422.484 121.432 422.132 121.917 421.598 122.28C421.076 122.632 420.457 122.808 419.742 122.808C419.017 122.808 418.382 122.648 417.838 122.328C417.305 121.997 416.889 121.533 416.59 120.936C416.292 120.328 416.142 119.619 416.142 118.808C416.142 117.987 416.292 117.277 416.59 116.68C416.889 116.083 417.305 115.624 417.838 115.304C418.382 114.973 419.017 114.808 419.742 114.808C420.457 114.808 421.076 114.984 421.598 115.336C422.121 115.688 422.468 116.173 422.638 116.792L422.494 116.648L422.638 114.952H424.046C424.014 115.272 423.982 115.592 423.95 115.912C423.929 116.232 423.918 116.547 423.918 116.856V122.904C423.918 124.099 423.604 125.011 422.974 125.64C422.356 126.269 421.433 126.584 420.206 126.584ZM420.062 121.656C420.798 121.656 421.385 121.405 421.822 120.904C422.26 120.403 422.478 119.704 422.478 118.808C422.478 117.901 422.26 117.203 421.822 116.712C421.385 116.221 420.798 115.976 420.062 115.976C419.316 115.976 418.718 116.221 418.27 116.712C417.833 117.203 417.614 117.901 417.614 118.808C417.614 119.704 417.833 120.403 418.27 120.904C418.718 121.405 419.316 121.656 420.062 121.656ZM429.221 123.144C428.25 123.144 427.519 122.883 427.029 122.36C426.549 121.837 426.309 121.032 426.309 119.944V114.952H427.765V119.912C427.765 120.616 427.909 121.133 428.197 121.464C428.485 121.795 428.933 121.96 429.541 121.96C430.202 121.96 430.735 121.741 431.141 121.304C431.557 120.856 431.765 120.264 431.765 119.528V114.952H433.221V123H431.813V121.224H432.021C431.797 121.832 431.439 122.307 430.949 122.648C430.458 122.979 429.882 123.144 429.221 123.144Z" fill="#222831"/>
<path d="M153 156C156.314 156 159 158.686 159 162V196C159 199.314 156.314 202 153 202H66C62.6863 202 60 199.314 60 196V162C60 158.686 62.6863 156 66 156H153Z" fill="#C7D6DE"/>
<path d="M153 156C156.314 156 159 158.686 159 162V196C159 199.314 156.314 202 153 202H66C62.6863 202 60 199.314 60 196V162C60 158.686 62.6863 156 66 156H153Z" stroke="#222831"/>
<path d="M81.376 185V173.72H82.688L87.136 183.736H86.656L91.104 173.72H92.4V185H91.04V175.704H91.536L87.36 185H86.416L82.24 175.704H82.736V185H81.376ZM98.0693 185.144C97.3653 185.144 96.7466 184.979 96.2133 184.648C95.6799 184.317 95.2639 183.837 94.9653 183.208C94.6666 182.579 94.5173 181.832 94.5173 180.968C94.5173 180.104 94.6666 179.363 94.9653 178.744C95.2639 178.115 95.6799 177.635 96.2133 177.304C96.7466 176.973 97.3653 176.808 98.0693 176.808C98.7839 176.808 99.4026 176.989 99.9253 177.352C100.459 177.704 100.811 178.189 100.981 178.808H100.789L100.965 176.952H102.373C102.341 177.272 102.309 177.592 102.277 177.912C102.256 178.232 102.245 178.547 102.245 178.856V185H100.789V183.16H100.965C100.795 183.768 100.443 184.253 99.9093 184.616C99.3866 184.968 98.7733 185.144 98.0693 185.144ZM98.4053 183.992C99.1306 183.992 99.7119 183.736 100.149 183.224C100.587 182.712 100.805 181.96 100.805 180.968C100.805 179.976 100.587 179.229 100.149 178.728C99.7119 178.227 99.1306 177.976 98.4053 177.976C97.6799 177.976 97.0933 178.227 96.6453 178.728C96.2079 179.229 95.9893 179.976 95.9893 180.968C95.9893 181.96 96.2079 182.712 96.6453 183.224C97.0826 183.736 97.6693 183.992 98.4053 183.992ZM104.669 185V178.92C104.669 178.6 104.658 178.275 104.637 177.944C104.626 177.603 104.599 177.272 104.557 176.952H105.965L106.141 178.968L105.901 178.984C106.007 178.493 106.189 178.088 106.445 177.768C106.711 177.437 107.026 177.197 107.389 177.048C107.762 176.888 108.146 176.808 108.541 176.808C108.711 176.808 108.855 176.813 108.973 176.824C109.09 176.835 109.207 176.861 109.325 176.904L109.293 178.2C109.133 178.136 108.983 178.099 108.845 178.088C108.717 178.067 108.557 178.056 108.365 178.056C107.895 178.056 107.49 178.163 107.149 178.376C106.818 178.589 106.562 178.872 106.381 179.224C106.21 179.576 106.125 179.955 106.125 180.36V185H104.669ZM113.601 185.144C112.897 185.144 112.278 184.979 111.745 184.648C111.211 184.317 110.795 183.837 110.497 183.208C110.198 182.579 110.049 181.832 110.049 180.968C110.049 180.104 110.198 179.363 110.497 178.744C110.795 178.115 111.211 177.635 111.745 177.304C112.278 176.973 112.897 176.808 113.601 176.808C114.315 176.808 114.934 176.989 115.457 177.352C115.99 177.704 116.342 178.189 116.513 178.808H116.321L116.497 176.952H117.905C117.873 177.272 117.841 177.592 117.809 177.912C117.787 178.232 117.777 178.547 117.777 178.856V185H116.321V183.16H116.497C116.326 183.768 115.974 184.253 115.441 184.616C114.918 184.968 114.305 185.144 113.601 185.144ZM113.937 183.992C114.662 183.992 115.243 183.736 115.681 183.224C116.118 182.712 116.337 181.96 116.337 180.968C116.337 179.976 116.118 179.229 115.681 178.728C115.243 178.227 114.662 177.976 113.937 177.976C113.211 177.976 112.625 178.227 112.177 178.728C111.739 179.229 111.521 179.976 111.521 180.968C111.521 181.96 111.739 182.712 112.177 183.224C112.614 183.736 113.201 183.992 113.937 183.992ZM123.224 185.144C122.381 185.144 121.741 184.915 121.304 184.456C120.877 183.987 120.664 183.283 120.664 182.344V178.072H119.096V176.952H120.664V174.792L122.12 174.392V176.952H124.392V178.072H122.12V182.216C122.12 182.835 122.227 183.277 122.44 183.544C122.664 183.8 122.984 183.928 123.4 183.928C123.613 183.928 123.795 183.912 123.944 183.88C124.104 183.837 124.248 183.789 124.376 183.736V184.936C124.216 185 124.029 185.048 123.816 185.08C123.613 185.123 123.416 185.144 123.224 185.144ZM125.919 185V173.224H127.375V178.696H127.167C127.402 178.077 127.78 177.608 128.303 177.288C128.826 176.968 129.428 176.808 130.111 176.808C131.082 176.808 131.796 177.069 132.255 177.592C132.724 178.115 132.959 178.904 132.959 179.96V185H131.503V180.04C131.503 179.325 131.364 178.808 131.087 178.488C130.81 178.157 130.356 177.992 129.727 177.992C129.023 177.992 128.452 178.211 128.015 178.648C127.588 179.085 127.375 179.667 127.375 180.392V185H125.919ZM135.341 185V176.952H136.797V185H135.341ZM135.213 175.192V173.624H136.941V175.192H135.213Z" fill="#222831"/>
<path d="M277 156C280.314 156 283 158.686 283 162V196C283 199.314 280.314 202 277 202H181C177.686 202 175 199.314 175 196V162C175 158.686 177.686 156 181 156H277Z" fill="#C7D6DE"/>
<path d="M277 156C280.314 156 283 158.686 283 162V196C283 199.314 280.314 202 277 202H181C177.686 202 175 199.314 175 196V162C175 158.686 177.686 156 181 156H277Z" stroke="#222831"/>
<path d="M196.376 185V173.72H197.864V178.824H197.896L203.192 173.72H205.064L198.92 179.56L198.936 178.84L205.496 185H203.56L197.896 179.704H197.864V185H196.376ZM209.538 185.144C208.834 185.144 208.215 184.979 207.682 184.648C207.149 184.317 206.733 183.837 206.434 183.208C206.135 182.579 205.986 181.832 205.986 180.968C205.986 180.104 206.135 179.363 206.434 178.744C206.733 178.115 207.149 177.635 207.682 177.304C208.215 176.973 208.834 176.808 209.538 176.808C210.253 176.808 210.871 176.989 211.394 177.352C211.927 177.704 212.279 178.189 212.45 178.808H212.258L212.434 176.952H213.842C213.81 177.272 213.778 177.592 213.746 177.912C213.725 178.232 213.714 178.547 213.714 178.856V185H212.258V183.16H212.434C212.263 183.768 211.911 184.253 211.378 184.616C210.855 184.968 210.242 185.144 209.538 185.144ZM209.874 183.992C210.599 183.992 211.181 183.736 211.618 183.224C212.055 182.712 212.274 181.96 212.274 180.968C212.274 179.976 212.055 179.229 211.618 178.728C211.181 178.227 210.599 177.976 209.874 177.976C209.149 177.976 208.562 178.227 208.114 178.728C207.677 179.229 207.458 179.976 207.458 180.968C207.458 181.96 207.677 182.712 208.114 183.224C208.551 183.736 209.138 183.992 209.874 183.992ZM216.154 185V178.856C216.154 178.547 216.143 178.232 216.122 177.912C216.1 177.592 216.068 177.272 216.026 176.952H217.434L217.594 178.68H217.402C217.647 178.072 218.026 177.608 218.538 177.288C219.05 176.968 219.647 176.808 220.33 176.808C221.279 176.808 221.994 177.069 222.474 177.592C222.954 178.104 223.194 178.904 223.194 179.992V185H221.738V180.072C221.738 179.336 221.594 178.808 221.306 178.488C221.018 178.157 220.57 177.992 219.962 177.992C219.236 177.992 218.66 178.211 218.234 178.648C217.818 179.085 217.61 179.677 217.61 180.424V185H216.154ZM225.575 185V178.856C225.575 178.547 225.565 178.232 225.543 177.912C225.522 177.592 225.49 177.272 225.447 176.952H226.855L227.015 178.68H226.823C227.069 178.072 227.447 177.608 227.959 177.288C228.471 176.968 229.069 176.808 229.751 176.808C230.701 176.808 231.415 177.069 231.895 177.592C232.375 178.104 232.615 178.904 232.615 179.992V185H231.159V180.072C231.159 179.336 231.015 178.808 230.727 178.488C230.439 178.157 229.991 177.992 229.383 177.992C228.658 177.992 228.082 178.211 227.655 178.648C227.239 179.085 227.031 179.677 227.031 180.424V185H225.575ZM238.069 185.144C237.365 185.144 236.747 184.979 236.213 184.648C235.68 184.317 235.264 183.837 234.965 183.208C234.667 182.579 234.517 181.832 234.517 180.968C234.517 180.104 234.667 179.363 234.965 178.744C235.264 178.115 235.68 177.635 236.213 177.304C236.747 176.973 237.365 176.808 238.069 176.808C238.784 176.808 239.403 176.989 239.925 177.352C240.459 177.704 240.811 178.189 240.981 178.808H240.789L240.965 176.952H242.373C242.341 177.272 242.309 177.592 242.277 177.912C242.256 178.232 242.245 178.547 242.245 178.856V185H240.789V183.16H240.965C240.795 183.768 240.443 184.253 239.909 184.616C239.387 184.968 238.773 185.144 238.069 185.144ZM238.405 183.992C239.131 183.992 239.712 183.736 240.149 183.224C240.587 182.712 240.805 181.96 240.805 180.968C240.805 179.976 240.587 179.229 240.149 178.728C239.712 178.227 239.131 177.976 238.405 177.976C237.68 177.976 237.093 178.227 236.645 178.728C236.208 179.229 235.989 179.976 235.989 180.968C235.989 181.96 236.208 182.712 236.645 183.224C237.083 183.736 237.669 183.992 238.405 183.992ZM247.757 185.144C247.053 185.144 246.434 184.979 245.901 184.648C245.367 184.317 244.951 183.837 244.653 183.208C244.354 182.579 244.205 181.832 244.205 180.968C244.205 180.104 244.354 179.363 244.653 178.744C244.951 178.115 245.367 177.635 245.901 177.304C246.434 176.973 247.053 176.808 247.757 176.808C248.461 176.808 249.074 176.984 249.597 177.336C250.13 177.688 250.487 178.173 250.669 178.792H250.477V173.224H251.933V185H250.493V183.128H250.669C250.498 183.757 250.146 184.253 249.613 184.616C249.09 184.968 248.471 185.144 247.757 185.144ZM248.093 183.992C248.818 183.992 249.399 183.736 249.837 183.224C250.285 182.712 250.509 181.96 250.509 180.968C250.509 179.976 250.285 179.229 249.837 178.728C249.399 178.227 248.818 177.976 248.093 177.976C247.367 177.976 246.781 178.227 246.333 178.728C245.895 179.229 245.677 179.976 245.677 180.968C245.677 181.96 245.895 182.712 246.333 183.224C246.781 183.736 247.367 183.992 248.093 183.992ZM257.444 185.144C256.74 185.144 256.122 184.979 255.588 184.648C255.055 184.317 254.639 183.837 254.34 183.208C254.042 182.579 253.892 181.832 253.892 180.968C253.892 180.104 254.042 179.363 254.34 178.744C254.639 178.115 255.055 177.635 255.588 177.304C256.122 176.973 256.74 176.808 257.444 176.808C258.159 176.808 258.778 176.989 259.3 177.352C259.834 177.704 260.186 178.189 260.356 178.808H260.164L260.34 176.952H261.748C261.716 177.272 261.684 177.592 261.652 177.912C261.631 178.232 261.62 178.547 261.62 178.856V185H260.164V183.16H260.34C260.17 183.768 259.818 184.253 259.284 184.616C258.762 184.968 258.148 185.144 257.444 185.144ZM257.78 183.992C258.506 183.992 259.087 183.736 259.524 183.224C259.962 182.712 260.18 181.96 260.18 180.968C260.18 179.976 259.962 179.229 259.524 178.728C259.087 178.227 258.506 177.976 257.78 177.976C257.055 177.976 256.468 178.227 256.02 178.728C255.583 179.229 255.364 179.976 255.364 180.968C255.364 181.96 255.583 182.712 256.02 183.224C256.458 183.736 257.044 183.992 257.78 183.992Z" fill="#222831"/>
<rect x="58.5" y="218" width="494" height="110" rx="10" fill="#DFEAF0"/>
<path d="M85.646 256.162C84.374 256.162 83.282 255.898 82.37 255.37C81.47 254.842 80.78 254.092 80.3 253.12C79.82 252.136 79.58 250.978 79.58 249.646C79.58 248.314 79.82 247.162 80.3 246.19C80.78 245.218 81.47 244.468 82.37 243.94C83.282 243.412 84.374 243.148 85.646 243.148C86.558 243.148 87.368 243.286 88.076 243.562C88.784 243.826 89.402 244.216 89.93 244.732L89.318 246.082C88.742 245.578 88.172 245.218 87.608 245.002C87.056 244.774 86.414 244.66 85.682 244.66C84.278 244.66 83.204 245.092 82.46 245.956C81.716 246.82 81.344 248.05 81.344 249.646C81.344 251.242 81.716 252.478 82.46 253.354C83.204 254.218 84.278 254.65 85.682 254.65C86.414 254.65 87.056 254.542 87.608 254.326C88.172 254.098 88.742 253.732 89.318 253.228L89.93 254.56C89.402 255.076 88.778 255.472 88.058 255.748C87.35 256.024 86.546 256.162 85.646 256.162ZM92.9103 256V242.752H94.5483V256H92.9103ZM98.0072 256V246.946H99.6452V256H98.0072ZM97.8632 244.966V243.202H99.8072V244.966H97.8632ZM103.104 256V249.088C103.104 248.74 103.092 248.386 103.068 248.026C103.044 247.666 103.008 247.306 102.96 246.946H104.544L104.724 248.89H104.508C104.784 248.206 105.21 247.684 105.786 247.324C106.362 246.964 107.034 246.784 107.802 246.784C108.87 246.784 109.674 247.078 110.214 247.666C110.754 248.242 111.024 249.142 111.024 250.366V256H109.386V250.456C109.386 249.628 109.224 249.034 108.9 248.674C108.576 248.302 108.072 248.116 107.388 248.116C106.572 248.116 105.924 248.362 105.444 248.854C104.976 249.346 104.742 250.012 104.742 250.852V256H103.104ZM114.424 256V246.946H116.062V256H114.424ZM114.28 244.966V243.202H116.224V244.966H114.28ZM123.409 256.162C122.509 256.162 121.729 255.976 121.069 255.604C120.409 255.22 119.893 254.674 119.521 253.966C119.161 253.246 118.981 252.394 118.981 251.41C118.981 250.438 119.167 249.61 119.539 248.926C119.911 248.23 120.427 247.702 121.087 247.342C121.747 246.97 122.521 246.784 123.409 246.784C123.997 246.784 124.567 246.886 125.119 247.09C125.671 247.282 126.121 247.564 126.469 247.936L125.911 249.088C125.563 248.752 125.179 248.506 124.759 248.35C124.339 248.182 123.925 248.098 123.517 248.098C122.629 248.098 121.933 248.386 121.429 248.962C120.925 249.526 120.673 250.348 120.673 251.428C120.673 252.52 120.925 253.36 121.429 253.948C121.933 254.536 122.629 254.83 123.517 254.83C123.913 254.83 124.321 254.752 124.741 254.596C125.161 254.44 125.551 254.194 125.911 253.858L126.469 254.992C126.109 255.376 125.647 255.67 125.083 255.874C124.531 256.066 123.973 256.162 123.409 256.162ZM132.574 256.162C131.782 256.162 131.086 255.976 130.486 255.604C129.886 255.232 129.418 254.692 129.082 253.984C128.746 253.276 128.578 252.436 128.578 251.464C128.578 250.492 128.746 249.658 129.082 248.962C129.418 248.254 129.886 247.714 130.486 247.342C131.086 246.97 131.782 246.784 132.574 246.784C133.378 246.784 134.074 246.988 134.662 247.396C135.262 247.792 135.658 248.338 135.85 249.034H135.634L135.832 246.946H137.416C137.38 247.306 137.344 247.666 137.308 248.026C137.284 248.386 137.272 248.74 137.272 249.088V256H135.634V253.93H135.832C135.64 254.614 135.244 255.16 134.644 255.568C134.056 255.964 133.366 256.162 132.574 256.162ZM132.952 254.866C133.768 254.866 134.422 254.578 134.914 254.002C135.406 253.426 135.652 252.58 135.652 251.464C135.652 250.348 135.406 249.508 134.914 248.944C134.422 248.38 133.768 248.098 132.952 248.098C132.136 248.098 131.476 248.38 130.972 248.944C130.48 249.508 130.234 250.348 130.234 251.464C130.234 252.58 130.48 253.426 130.972 254.002C131.464 254.578 132.124 254.866 132.952 254.866ZM140.736 256V242.752H142.374V256H140.736ZM151.479 256V243.31H152.775L160.731 253.822H160.299V243.31H161.865V256H160.587L152.631 245.488H153.045V256H151.479ZM169.3 256.162C168.412 256.162 167.644 255.976 166.996 255.604C166.348 255.22 165.844 254.68 165.484 253.984C165.124 253.276 164.944 252.436 164.944 251.464C164.944 250.504 165.124 249.676 165.484 248.98C165.844 248.272 166.348 247.732 166.996 247.36C167.644 246.976 168.412 246.784 169.3 246.784C170.188 246.784 170.956 246.976 171.604 247.36C172.264 247.732 172.768 248.272 173.116 248.98C173.476 249.676 173.656 250.504 173.656 251.464C173.656 252.436 173.476 253.276 173.116 253.984C172.768 254.68 172.264 255.22 171.604 255.604C170.956 255.976 170.188 256.162 169.3 256.162ZM169.3 254.866C170.116 254.866 170.77 254.578 171.262 254.002C171.754 253.426 172 252.58 172 251.464C172 250.348 171.754 249.508 171.262 248.944C170.77 248.38 170.116 248.098 169.3 248.098C168.472 248.098 167.812 248.38 167.32 248.944C166.84 249.508 166.6 250.348 166.6 251.464C166.6 252.58 166.84 253.426 167.32 254.002C167.812 254.578 168.472 254.866 169.3 254.866ZM179.871 256.162C178.923 256.162 178.203 255.904 177.711 255.388C177.231 254.86 176.991 254.068 176.991 253.012V248.206H175.227V246.946H176.991V244.516L178.629 244.066V246.946H181.185V248.206H178.629V252.868C178.629 253.564 178.749 254.062 178.989 254.362C179.241 254.65 179.601 254.794 180.069 254.794C180.309 254.794 180.513 254.776 180.681 254.74C180.861 254.692 181.023 254.638 181.167 254.578V255.928C180.987 256 180.777 256.054 180.537 256.09C180.309 256.138 180.087 256.162 179.871 256.162ZM187.657 256.162C186.217 256.162 185.077 255.748 184.237 254.92C183.409 254.092 182.995 252.952 182.995 251.5C182.995 250.54 183.175 249.712 183.535 249.016C183.907 248.308 184.417 247.762 185.065 247.378C185.713 246.982 186.469 246.784 187.333 246.784C188.161 246.784 188.863 246.964 189.439 247.324C190.015 247.672 190.453 248.17 190.753 248.818C191.053 249.466 191.203 250.234 191.203 251.122V251.662H184.273V250.69H190.087L189.781 250.924C189.781 249.988 189.571 249.262 189.151 248.746C188.743 248.23 188.137 247.972 187.333 247.972C186.457 247.972 185.779 248.278 185.299 248.89C184.819 249.49 184.579 250.312 184.579 251.356V251.518C184.579 252.622 184.849 253.456 185.389 254.02C185.941 254.584 186.703 254.866 187.675 254.866C188.215 254.866 188.719 254.788 189.187 254.632C189.655 254.476 190.105 254.218 190.537 253.858L191.077 254.992C190.669 255.364 190.159 255.652 189.547 255.856C188.947 256.06 188.317 256.162 187.657 256.162Z" fill="black"/>
<line x1="81.5" y1="282" x2="529.5" y2="282" stroke="white" stroke-width="6" stroke-linecap="round"/>
<line x1="81.5" y1="301" x2="375.5" y2="301" stroke="white" stroke-width="6" stroke-linecap="round"/>
</g>
<defs>
<filter id="filter0_d_628_394" x="0" y="0" width="611" height="408" filterUnits="userSpaceOnUse" color-interpolation-filters="sRGB">
<feFlood flood-opacity="0" result="BackgroundImageFix"/>
<feColorMatrix in="SourceAlpha" type="matrix" values="0 0 0 0 0 0 0 0 0 0 0 0 0 0 0 0 0 0 127 0" result="hardAlpha"/>
<feOffset dy="20"/>
<feGaussianBlur stdDeviation="15"/>
<feComposite in2="hardAlpha" operator="out"/>
<feColorMatrix type="matrix" values="0 0 0 0 0.663462 0 0 0 0 0.663462 0 0 0 0 0.663462 0 0 0 0.16 0"/>
<feBlend mode="normal" in2="BackgroundImageFix" result="effect1_dropShadow_628_394"/>
<feBlend mode="normal" in="SourceGraphic" in2="effect1_dropShadow_628_394" result="shape"/>
</filter>
</defs>
</svg>
