<svg width="30" height="29" viewBox="0 0 30 29" fill="none" xmlns="http://www.w3.org/2000/svg">
<path d="M4.7484 18.8156C4.67808 18.8156 4.60777 18.8015 4.54215 18.7687C4.38746 18.6937 4.29372 18.5343 4.29372 18.3609V15.5203H2.0953C0.937492 15.5203 0 14.5828 0 13.4296V2.09062C0 0.937492 0.942172 0 2.0953 0H16.6452C17.803 0 18.7405 0.937492 18.7405 2.09062V13.4341C18.7405 14.5873 17.7983 15.5248 16.6452 15.5248H9.35614L5.02028 18.7311C4.94059 18.7874 4.84215 18.8156 4.7484 18.8156ZM2.09528 0.909308C1.43903 0.909308 0.904649 1.43898 0.904649 2.09055V13.4341C0.904649 14.0856 1.439 14.6153 2.09528 14.6153H4.7484C5.00152 14.6153 5.20307 14.8169 5.20307 15.07V17.4653L8.93894 14.7044C9.01863 14.6481 9.11238 14.6153 9.21082 14.6153H16.6499C17.3061 14.6153 17.8358 14.0856 17.8358 13.4341V2.09055C17.8358 1.43899 17.3014 0.909314 16.6499 0.909314L2.09528 0.909308Z" fill="#00ADB5"/>
<path d="M6.79676 12.6185C6.77332 12.6185 6.75457 12.6185 6.73113 12.6139C6.4827 12.5764 6.30928 12.3467 6.34677 12.0982L7.62644 3.4358C7.66394 3.18736 7.89363 3.01862 8.14208 3.05144C8.39051 3.08894 8.56394 3.31862 8.52644 3.56708L7.24677 12.2295C7.21395 12.4545 7.02175 12.6185 6.79676 12.6185Z" fill="#00ADB5"/>
<path d="M10.4298 12.6185C10.4063 12.6185 10.3876 12.6185 10.3641 12.6139C10.1157 12.5764 9.94227 12.3467 9.97977 12.0982L11.2594 3.4358C11.2969 3.18736 11.5266 3.01862 11.7751 3.05144C12.0235 3.08894 12.1969 3.31862 12.1594 3.56708L10.8798 12.2295C10.8469 12.4545 10.6548 12.6185 10.4298 12.6185Z" fill="#00ADB5"/>
<path d="M13.8749 6.44988H4.63589C4.38277 6.44988 4.18121 6.24832 4.18121 5.9952C4.18121 5.74209 4.38278 5.54053 4.63589 5.54053H13.8749C14.128 5.54053 14.3296 5.74209 14.3296 5.9952C14.3296 6.24832 14.1233 6.44988 13.8749 6.44988Z" fill="#00ADB5"/>
<path d="M13.8749 10.1203H4.63589C4.38277 10.1203 4.18121 9.91873 4.18121 9.66561C4.18121 9.4125 4.38278 9.21094 4.63589 9.21094H13.8749C14.128 9.21094 14.3296 9.4125 14.3296 9.66561C14.3296 9.91873 14.1233 10.1203 13.8749 10.1203Z" fill="#00ADB5"/>
<path d="M25.2514 28.828C25.1577 28.828 25.0592 28.7999 24.9795 28.7389L20.6389 25.5325H13.3546C12.1968 25.5325 11.2593 24.595 11.2593 23.4419V15.0654C11.2593 14.8123 11.4609 14.6107 11.714 14.6107C11.9671 14.6107 12.1687 14.8123 12.1687 15.0654V23.4419C12.1687 24.0935 12.703 24.6232 13.3546 24.6232H20.7937C20.8921 24.6232 20.9858 24.656 21.0655 24.7122L24.8014 27.4731V25.0778C24.8014 24.8247 25.003 24.6232 25.2561 24.6232H27.9092C28.5654 24.6232 29.0998 24.0935 29.0998 23.4419V12.0984C29.0998 11.4468 28.5655 10.9172 27.9092 10.9172H18.2907C18.0375 10.9172 17.836 10.7156 17.836 10.4625C17.836 10.2094 18.0376 10.0078 18.2907 10.0078H27.9047C29.0625 10.0078 30 10.9453 30 12.0984V23.4419C30 24.5951 29.0578 25.5326 27.9047 25.5326H25.7063V28.3732C25.7063 28.5466 25.6078 28.7013 25.4578 28.781C25.3922 28.8091 25.3217 28.828 25.2514 28.828Z" fill="#00ADB5"/>
<path d="M25.12 15.4357H19.8137C19.5606 15.4357 19.359 15.2342 19.359 14.981C19.359 14.7279 19.5606 14.5264 19.8137 14.5264H25.1152C25.3684 14.5264 25.5699 14.7279 25.5699 14.981C25.5699 15.2342 25.3685 15.4357 25.12 15.4357Z" fill="#00ADB5"/>
<path d="M25.12 20.5593H16.2374C15.9843 20.5593 15.7827 20.3577 15.7827 20.1046C15.7827 19.8515 15.9843 19.6499 16.2374 19.6499H25.12C25.3731 19.6499 25.5747 19.8515 25.5747 20.1046C25.5747 20.3577 25.3684 20.5593 25.12 20.5593Z" fill="#00ADB5"/>
</svg>
