<svg width="30" height="33" viewBox="0 0 30 33" fill="none" xmlns="http://www.w3.org/2000/svg">
<path d="M12.8435 10.1125L12.8488 0.95084C12.8515 0.425961 13.2833 0.00131667 13.8155 0L25.6921 0.00659416H25.9033C26.0263 0.00659416 26.1426 0.0633022 26.2162 0.159571L29.9131 4.01438L29.9184 4.02098L29.9198 4.02362L29.9251 4.02889V4.03021L29.9305 4.03549H29.9331L29.9372 4.04076V4.04208L29.9412 4.04735H29.9425L29.9465 4.05263L29.9479 4.05395L29.9532 4.06186L29.9572 4.06714V4.06846L29.9612 4.07373V4.07505L29.9652 4.08296V4.09615L29.9692 4.10142V4.10274L29.9706 4.1067V4.11197L29.9786 4.1278V4.13703L29.9826 4.14494V4.14626L29.9866 4.15154V4.15813L29.988 4.16209V4.17396L29.9893 4.17923L29.992 4.18055V4.20429L29.9933 4.20956V4.24385H29.996V4.27946H30L29.9906 20.4492V20.4479C29.988 20.9741 29.5548 21.3987 29.0226 21.4001L19.0754 21.3948L20.6264 24.4583C20.724 24.6495 20.6451 24.883 20.4512 24.9792C20.3964 25.0056 20.3349 25.0188 20.2734 25.0188H18.1836V26.6739L18.185 26.6752C18.1823 26.8901 18.0058 27.0629 17.7879 27.0629H16.4415L17.7625 28.3685C17.836 28.4423 17.8774 28.5412 17.8774 28.6454V30.1317C17.8774 30.3466 17.701 30.5207 17.483 30.522L13.2782 30.5194V32.6097C13.2782 32.8246 13.103 32.9987 12.8851 33L2.13151 32.9934C1.91225 32.9934 1.73441 32.8193 1.73441 32.6031C1.73574 32.5609 1.74243 32.5187 1.7558 32.4778L3.70115 26.1476C1.6181 24.5783 0.293119 22.2243 0.042916 19.6514C-0.207106 17.0771 0.643233 14.5173 2.38671 12.5879C4.1302 10.6572 6.61039 9.53097 9.23085 9.48087H9.27364L9.30974 9.47823H9.57447C10.6949 9.49538 11.8019 9.71034 12.8448 10.1126L12.8435 10.1125ZM21.1984 26.6921C21.1222 26.6183 21.0807 26.5167 21.0821 26.4126C21.0821 26.3084 21.1262 26.2081 21.2024 26.1356C21.2786 26.0631 21.3816 26.0235 21.4872 26.0275C21.5942 26.0301 21.6944 26.0749 21.7653 26.1528C21.9378 26.3282 22.0728 26.5352 22.1651 26.762C22.2587 26.9875 22.3055 27.2289 22.3041 27.4729C22.3041 27.7195 22.256 27.9621 22.1611 28.1903C22.0675 28.4198 21.9284 28.6281 21.7519 28.8035C21.5982 28.9539 21.3508 28.9539 21.1971 28.8048C21.0433 28.6558 21.0406 28.4118 21.1904 28.2575C21.2933 28.1547 21.3762 28.032 21.4324 27.8975C21.4872 27.7617 21.5153 27.6166 21.5153 27.4702C21.5153 27.3265 21.4872 27.1841 21.4337 27.0509C21.3789 26.9177 21.3 26.795 21.1984 26.6921ZM22.9365 25.0845C22.7881 24.9289 22.7948 24.6836 22.9525 24.5359C23.1103 24.3895 23.359 24.3961 23.5087 24.5518C25.1024 26.2147 25.073 28.8245 23.4432 30.4532C23.2908 30.6035 23.0435 30.6035 22.8897 30.4545C22.7359 30.3054 22.7319 30.0615 22.8817 29.9085C24.2133 28.5765 24.2374 26.4454 22.9365 25.0845ZM24.553 23.3583C24.4233 23.2026 24.434 22.9745 24.5797 22.8321C24.7254 22.6896 24.9568 22.6804 25.1132 22.8096C26.366 24.048 27.0692 25.7255 27.0692 27.4754C27.0692 29.2452 26.3459 30.9413 25.0623 32.1796C24.9059 32.322 24.6626 32.3168 24.5128 32.1664C24.3631 32.0174 24.3617 31.7761 24.5102 31.6244C25.6359 30.5391 26.2737 29.0528 26.2817 27.5005C26.2897 25.947 25.6667 24.4556 24.553 23.3583ZM11.4743 22.8743L11.8834 24.9039L14.4959 26.1791H14.4973C14.5922 26.2239 14.6671 26.3044 14.7018 26.4033C14.7366 26.5009 14.7299 26.6103 14.6831 26.704C14.6363 26.7976 14.5521 26.8688 14.4518 26.9005C14.3515 26.9334 14.2419 26.9242 14.147 26.8767L11.3834 25.5263C11.2617 25.4762 11.1721 25.3694 11.1467 25.2414L10.7282 23.1631H10.7269C8.77217 23.7143 6.70103 22.778 5.84808 20.9567C4.99373 19.1368 5.61277 16.974 7.30409 15.8609L7.30676 10.5118H7.3081C5.16888 11.0419 3.31717 12.3581 2.13255 14.1924C0.947973 16.0268 0.521464 18.2383 0.938595 20.3737C1.35576 22.5101 2.58579 24.4064 4.37743 25.6751C4.5205 25.7701 4.58333 25.9468 4.53386 26.1104L2.66069 32.2136L12.4864 32.2189V30.1273C12.4864 29.9124 12.6629 29.737 12.8821 29.737L17.0842 29.7396V28.8046L15.2071 26.9504C15.1295 26.8779 15.0867 26.7763 15.0881 26.6721C15.0881 26.4559 15.2646 26.2818 15.4838 26.2818H17.3864V24.6254C17.3864 24.5226 17.4278 24.4236 17.5027 24.3498C17.5776 24.2773 17.6779 24.2364 17.7821 24.2377H19.6326L17.8944 20.8022C17.8463 20.7191 17.8303 20.6228 17.8503 20.5292C17.976 19.9503 18.0375 19.3581 18.0362 18.766C18.0362 16.9355 17.4385 15.1526 16.3315 13.6833C15.2244 12.2141 13.6668 11.1354 11.8898 10.6079V15.8631C12.1157 16.0121 12.3243 16.1822 12.5155 16.3721C13.446 17.294 13.8752 18.5983 13.6693 19.8826C13.4634 21.1671 12.6492 22.2775 11.4753 22.871L11.4743 22.8743ZM9.59711 17.1744C10.6012 17.1731 11.4649 17.872 11.6614 18.8427C11.858 19.8133 11.3325 20.7866 10.4046 21.165C9.4781 21.5449 8.40715 21.2244 7.84962 20.4015C7.29209 19.5786 7.40306 18.4813 8.11301 17.7811C8.50608 17.392 9.03958 17.1744 9.59711 17.1744ZM10.525 18.3336C10.0824 17.8945 9.38853 17.8259 8.86574 18.1688C8.34431 18.5103 8.13974 19.1684 8.37905 19.7407C8.61704 20.3118 9.23207 20.6375 9.84711 20.5175C10.4621 20.3988 10.906 19.8674 10.906 19.2489C10.9074 18.906 10.7697 18.5763 10.525 18.3336ZM9.73881 15.1804C10.2054 15.1949 10.6654 15.2873 11.1012 15.4561L11.1039 10.4183V10.4169C10.1145 10.2244 9.09838 10.2033 8.09966 10.3523L8.09698 15.4532C8.53284 15.2858 8.99279 15.1934 9.45941 15.1803H9.50353C9.51557 15.1803 9.52894 15.1789 9.54231 15.1776H9.65595C9.66932 15.1803 9.68269 15.1803 9.69473 15.1803L9.73881 15.1804ZM11.9569 16.9212C11.7617 16.7287 11.5425 16.5612 11.3058 16.4201C11.2978 16.4161 11.2911 16.4108 11.2818 16.4069C10.041 15.6921 8.47403 15.8411 7.39521 16.7775C6.31492 17.7138 5.96594 19.2278 6.52748 20.532C7.08901 21.8376 8.43539 22.6407 9.86867 22.526C11.3019 22.4113 12.4986 21.4024 12.8382 20.0256V18.4721C12.6951 17.8852 12.3889 17.3485 11.9558 16.9212L11.9569 16.9212ZM18.6809 20.614L29.0454 20.6192L29.0467 20.6206C29.0922 20.6192 29.1363 20.6008 29.1697 20.5691C29.2031 20.5375 29.2218 20.4926 29.2218 20.4478L29.2312 4.66866H25.6893C25.4714 4.66734 25.2963 4.49326 25.2963 4.27831L25.2989 0.784741L13.8153 0.778147C13.7685 0.779466 13.7244 0.797929 13.6909 0.829578C13.6588 0.862548 13.6401 0.906067 13.6401 0.950905L13.6348 10.458C14.5373 10.9063 15.3622 11.4945 16.0762 12.1987C16.3075 12.4295 16.5281 12.6695 16.7353 12.9214L27.0491 12.9267C27.255 12.9438 27.4114 13.114 27.4114 13.317C27.4114 13.5201 27.255 13.6889 27.0491 13.7061L17.309 13.7021C17.6125 14.1584 17.8732 14.6411 18.0884 15.1435L27.0478 15.1488C27.2671 15.1488 27.4449 15.3242 27.4449 15.5391C27.4449 15.7554 27.2671 15.9308 27.0478 15.9308L18.3814 15.9256C18.5365 16.3964 18.6515 16.8777 18.725 17.367L27.0478 17.3723C27.2524 17.3894 27.4101 17.5595 27.4101 17.7613C27.4101 17.9644 27.2524 18.1345 27.0478 18.1516L18.8106 18.1464C18.8253 18.3521 18.8333 18.5605 18.832 18.7702C18.832 19.0933 18.8146 19.4164 18.7798 19.7368C18.7491 20.0164 18.7076 20.2907 18.6542 20.5597L18.6809 20.614ZM15.8117 11.4786C15.7007 11.4879 15.5911 11.4509 15.5095 11.3771C15.428 11.3019 15.3812 11.1977 15.3812 11.0883C15.3812 10.9788 15.428 10.8746 15.5095 10.8008C15.5911 10.7269 15.7007 10.69 15.8117 10.6992L27.0507 10.7058C27.2552 10.723 27.413 10.8918 27.413 11.0948C27.413 11.2979 27.2552 11.4668 27.0507 11.4839L15.8117 11.4786ZM15.8117 9.2578C15.5924 9.2578 15.416 9.0824 15.416 8.86611C15.416 8.65114 15.5924 8.47576 15.8117 8.47576L27.0507 8.48236C27.2686 8.48236 27.4464 8.65643 27.4464 8.8727C27.4464 9.08896 27.2686 9.26439 27.0507 9.26439L15.8117 9.2578ZM15.8117 7.03566V7.03434C15.7007 7.04357 15.5911 7.00797 15.5095 6.93279C15.428 6.85894 15.3812 6.75476 15.3812 6.6453C15.3812 6.53584 15.428 6.43166 15.5095 6.35781C15.5911 6.28395 15.7007 6.24703 15.8117 6.25626L27.0507 6.26286C27.2552 6.28 27.413 6.4488 27.413 6.65188C27.413 6.85497 27.2552 7.02379 27.0507 7.04091L15.8117 7.03566ZM15.8117 4.81484V4.81352C15.5924 4.81352 15.416 4.63944 15.416 4.42318C15.416 4.20691 15.5924 4.03283 15.8117 4.03283L22.1986 4.03679V4.03547C22.4178 4.03547 22.5943 4.21087 22.5943 4.42716C22.5943 4.64213 22.4178 4.81751 22.1986 4.81751L15.8117 4.81484ZM28.71 3.89036L27.857 3.00151L26.0841 1.15388V3.88773L28.71 3.89036Z" fill="#00ADB5"/>
</svg>
