<svg width="30" height="30" viewBox="0 0 30 30" fill="none" xmlns="http://www.w3.org/2000/svg">
<path d="M28.3151 0H1.63807C0.74883 0 0 0.74883 0 1.63807V22.4181C0 23.3541 0.74883 24.0562 1.63807 24.0562C4.53978 24.0562 7.16069 24.0562 10.0624 24.0562L9.40718 26.3495H7.81591C6.13105 26.3495 4.72699 27.7535 4.72699 29.4384C4.72699 29.7192 4.9142 29.9064 5.19501 29.9064H24.805C25.0858 29.9064 25.273 29.7192 25.273 29.4384C25.273 27.7535 23.869 26.3495 22.1841 26.3495H20.5928L19.9376 24.0562C22.0437 24.0562 26.2558 24.0562 28.3619 24.0562C29.298 24.0562 30 23.3073 30 22.4181V1.63807C29.9532 0.74883 29.2044 0 28.3151 0ZM24.2434 29.0172H5.70983C5.94384 28.0343 6.78627 27.3323 7.81591 27.3323C7.76911 27.3323 10.156 27.3323 22.1373 27.3323C23.1669 27.3323 24.0562 28.0343 24.2434 29.0172ZM19.5632 26.3963H10.39L11.0452 24.103H18.908L19.5632 26.3963ZM29.0172 22.4181C29.0172 22.7925 28.6895 23.1201 28.3151 23.1201C18.7676 23.1201 10.2964 23.1201 1.68487 23.1201C1.31045 23.1201 0.982839 22.7925 0.982839 22.4181V1.63807C0.936037 1.26365 1.26365 0.936037 1.63807 0.936037H28.2683C28.6896 0.936037 29.0172 1.26365 29.0172 1.63807V22.4181Z" fill="#00ADB5"/>
<path d="M22.9798 2.15276C22.3714 2.15276 21.8098 2.52717 21.6226 3.0888H20.6865C20.4993 3.0888 20.3589 3.1824 20.2653 3.32281L19.5165 4.63326H17.1296V3.32281C17.1296 3.04199 16.9424 2.85479 16.6616 2.85479H13.0578C12.777 2.85479 12.5898 3.04199 12.5898 3.32281V4.63326H9.26686L8.51803 3.32281C8.42442 3.1824 8.28402 3.0888 8.09681 3.0888H7.39478C7.20757 2.52717 6.64595 2.10596 6.03753 2.10596C5.2419 2.10596 4.58667 2.76118 4.58667 3.55682C4.58667 4.35245 5.2419 5.00767 6.03753 5.00767C6.69275 5.00767 7.20757 4.58646 7.39478 4.02483H7.816L8.56483 5.33529C8.65843 5.47569 8.79884 5.5693 8.98605 5.5693H12.543V7.34777H9.73488C9.54767 6.78614 8.98605 6.36493 8.37762 6.36493C7.58199 6.36493 6.92676 7.02015 6.92676 7.81579C6.92676 8.61142 7.58199 9.26664 8.37762 9.26664C9.03285 9.26664 9.54767 8.84543 9.73488 8.2838H12.543V9.31345C10.2029 10.2495 8.61163 12.5428 8.61163 15.0701C8.61163 18.4866 11.3729 21.2947 14.8363 21.2947C18.2528 21.2947 21.0609 18.5334 21.0609 15.0701C21.0609 14.9765 21.0609 14.9297 21.0609 14.8361V14.7893V14.7425C20.9205 12.3088 19.4229 10.2027 17.1296 9.31345V8.2838H19.6101C19.7505 8.93903 20.3121 9.40705 21.0141 9.40705C21.8098 9.40705 22.465 8.75182 22.465 7.95619C22.465 7.16056 21.8098 6.50533 21.0141 6.50533C20.4525 6.50533 19.9377 6.83295 19.7037 7.34777H17.1296V5.5693H19.7505C19.9377 5.5693 20.0781 5.47569 20.1717 5.33529L20.9205 4.02483H21.5758C21.763 4.58646 22.3246 5.05448 22.933 5.05448C23.7286 5.05448 24.3839 4.39925 24.3839 3.60362C24.3839 2.80799 23.7754 2.15276 22.9798 2.15276ZM6.03753 4.07164C5.75672 4.07164 5.52271 3.83763 5.52271 3.55682C5.52271 3.276 5.75672 3.04199 6.03753 3.04199C6.31834 3.04199 6.55235 3.276 6.55235 3.55682C6.55235 3.83763 6.31834 4.07164 6.03753 4.07164ZM8.42442 8.33061C8.14361 8.33061 7.9096 8.0966 7.9096 7.81579C7.9096 7.53497 8.14361 7.30097 8.42442 7.30097C8.70524 7.30097 8.93924 7.53497 8.93924 7.81579C8.93924 8.0966 8.70524 8.33061 8.42442 8.33061ZM21.0141 7.44137C21.2949 7.44137 21.5289 7.67538 21.5289 7.95619C21.5289 8.237 21.2949 8.47101 21.0141 8.47101C20.7333 8.47101 20.4993 8.237 20.4993 7.95619C20.4993 7.67538 20.7333 7.44137 21.0141 7.44137ZM14.8831 20.3587C12.0282 20.3587 9.73488 18.1122 9.64127 15.2573H20.1249C20.0313 18.1122 17.6912 20.3587 14.8831 20.3587ZM20.0781 14.368H9.64127C9.92208 12.4024 11.2793 10.7643 13.1982 10.1091C13.3854 10.0623 13.5258 9.87507 13.5258 9.68786C13.5258 9.50065 13.5258 3.69722 13.5258 3.83763H16.1935C16.1935 4.21204 16.1935 9.96867 16.1935 9.68786C16.1935 9.87507 16.3339 10.0623 16.5211 10.1091C18.44 10.7175 19.7973 12.4024 20.0781 14.368ZM22.9798 4.11844C22.699 4.11844 22.465 3.88443 22.465 3.60362C22.465 3.32281 22.699 3.0888 22.9798 3.0888C23.2606 3.0888 23.4946 3.32281 23.4946 3.60362C23.4946 3.88443 23.2606 4.11844 22.9798 4.11844Z" fill="#00ADB5"/>
</svg>
