<svg width="30" height="33" viewBox="0 0 30 33" fill="none" xmlns="http://www.w3.org/2000/svg">
<path d="M15.0024 7.97016C17.1781 7.97016 18.9487 6.18185 18.9487 3.98428C18.9487 1.7867 17.1781 0 15.0024 0C12.8266 0 11.056 1.7867 11.056 3.98428C11.056 6.1802 12.8266 7.97016 15.0024 7.97016ZM15.0024 0.902135C16.6868 0.902135 18.057 2.28448 18.057 3.9858C18.057 5.68552 16.6868 7.07108 15.0024 7.07108C13.3179 7.07108 11.9477 5.68713 11.9477 3.9858C11.9477 2.28448 13.3179 0.902135 15.0024 0.902135ZM20.3076 10.8296C20.4528 10.588 20.5373 10.3044 20.5373 10.0015C20.5373 9.12026 19.8275 8.4017 18.9534 8.4017C18.5211 8.4017 18.1287 8.57731 17.8432 8.86087C16.9994 8.51449 16.0216 8.30828 15.0517 8.27281C15.0182 8.26798 14.9847 8.26798 14.9512 8.27281C12.7436 8.35498 10.8277 9.2298 9.82278 10.6138C9.81959 10.6186 9.81481 10.625 9.81161 10.6299L9.80045 10.646C9.79566 10.654 9.78928 10.6621 9.7845 10.6701L8.44462 13.0159C8.32339 12.9869 8.19897 12.9708 8.06977 12.9708C7.19725 12.9708 6.48582 13.6877 6.48582 14.5706C6.48582 14.9992 6.65331 15.3875 6.92447 15.6758L5.99131 17.3111C5.75364 17.7251 5.69142 18.2069 5.81425 18.6709C5.93708 19.1349 6.23216 19.5215 6.6421 19.7584C7.48751 20.2514 8.5738 19.9565 9.06349 19.1027L10.8405 15.9948V20.3321C10.1833 20.527 9.70313 21.1408 9.70313 21.8659C9.70313 22.4571 10.0222 22.9743 10.4959 23.2514L8.69981 30.7542C8.58018 31.2133 8.64398 31.6934 8.88166 32.1075C9.12093 32.5231 9.50214 32.8196 9.95994 32.942C10.1051 32.9807 10.2519 33 10.3954 33C11.1483 33 11.8549 32.4973 12.1133 31.7208L14.7118 23.9293H15.2908L17.8893 31.7191C18.1971 32.6455 19.143 33.182 20.0443 32.9403C20.5021 32.8163 20.8849 32.5198 21.1226 32.1042C21.3586 31.6901 21.4224 31.21 21.3028 30.7525L20.853 28.8675C21.3267 28.5904 21.6457 28.0732 21.6457 27.4819C21.6457 26.6264 20.9758 25.924 20.1384 25.8853L19.1637 21.8141V15.9966L20.9407 19.1044C21.4304 19.9583 22.5167 20.2531 23.3605 19.7618C23.7705 19.5249 24.0656 19.1383 24.1884 18.6759C24.3128 18.2135 24.2506 17.7285 24.0129 17.3145L20.3091 10.8329L20.3076 10.8296ZM18.9534 9.30231C19.3346 9.30231 19.6457 9.61648 19.6457 10.0015C19.6457 10.3866 19.3346 10.7007 18.9534 10.7007C18.5722 10.7007 18.2611 10.3866 18.2611 10.0015C18.2611 9.61648 18.5722 9.30231 18.9534 9.30231ZM8.07006 13.8713C8.45129 13.8713 8.76233 14.1855 8.76233 14.5706C8.76233 14.9556 8.45128 15.2714 8.07006 15.2714C7.95202 15.2714 7.83877 15.2408 7.74146 15.1876C7.73668 15.1844 7.7303 15.1795 7.72551 15.1763C7.72232 15.1747 7.72073 15.1731 7.71913 15.1731C7.51655 15.0507 7.37937 14.8267 7.37937 14.5706C7.37937 14.1855 7.69042 13.8714 8.07165 13.8714L8.07006 13.8713ZM11.2858 21.165C11.667 21.165 11.9781 21.4791 11.9781 21.8642C11.9781 22.2492 11.667 22.5634 11.2858 22.5634C10.9046 22.5634 10.5935 22.2492 10.5935 21.8642C10.5935 21.4791 10.9046 21.165 11.2858 21.165ZM20.753 27.4803C20.753 27.8654 20.4419 28.1795 20.0607 28.1795C19.6795 28.1795 19.3684 27.8653 19.3684 27.4803C19.3684 27.0953 19.6795 26.7811 20.0607 26.7811C20.4419 26.7811 20.753 27.0953 20.753 27.4803ZM19.2711 26.0947C18.7974 26.3719 18.4784 26.889 18.4784 27.4803C18.4784 28.3358 19.1483 29.0382 19.9857 29.0769L20.4372 30.9667C20.4388 30.9699 20.4388 30.9748 20.4404 30.978C20.501 31.2052 20.4691 31.4452 20.351 31.6514C20.233 31.8593 20.0416 32.0075 19.8167 32.0687C19.37 32.1879 18.8947 31.9076 18.7368 31.4307L16.0363 23.3332C15.9756 23.1495 15.805 23.0271 15.6135 23.0271H14.3949C14.2034 23.0271 14.0328 23.1512 13.9721 23.3332L11.2716 31.4307C11.1121 31.9076 10.6383 32.1879 10.1917 32.0687C9.9652 32.0075 9.77539 31.8593 9.65575 31.653C9.53771 31.4452 9.50421 31.2052 9.56482 30.978C9.56642 30.9748 9.56642 30.9716 9.56801 30.9683L11.3641 23.4623C12.2031 23.422 12.8715 22.7212 12.8715 21.8657C12.8715 21.1407 12.3898 20.5269 11.7341 20.3319V19.5102H18.2726V21.8656C18.2726 21.9011 18.2774 21.9365 18.2854 21.972L19.2728 26.098L19.2711 26.0947ZM23.3259 18.4373C23.2653 18.6677 23.1186 18.8594 22.9144 18.9771C22.4949 19.2219 21.9541 19.0753 21.7117 18.65L19.1037 14.0859C19.0032 13.9087 18.7974 13.8233 18.6028 13.8765C18.4082 13.9296 18.2726 14.1069 18.2726 14.3115V18.6066H11.7341V14.3115C11.7341 14.1085 11.5985 13.9296 11.4039 13.8765C11.2077 13.8233 11.0035 13.9103 10.903 14.0859L8.29503 18.6483C8.05097 19.0737 7.51181 19.2203 7.09072 18.9738C6.88655 18.8562 6.74139 18.6645 6.67918 18.4325C6.61857 18.2021 6.64888 17.9636 6.76692 17.7574L7.70008 16.1238C7.81971 16.1528 7.94413 16.1689 8.07333 16.1689C8.94586 16.1689 9.65728 15.4503 9.65728 14.5675C9.65728 14.1405 9.49139 13.7522 9.22022 13.4654L10.5537 11.1326C11.5539 9.76477 13.5079 9.22183 15.0056 9.16866C15.843 9.19767 16.682 9.36683 17.4126 9.65201C17.3887 9.76317 17.3743 9.87917 17.3743 9.99678C17.3743 10.878 18.0841 11.5966 18.9582 11.5966C19.2007 11.5966 19.4288 11.5418 19.6346 11.4436L23.2443 17.7576C23.3607 17.9622 23.3926 18.2023 23.3304 18.4343L23.3259 18.4373ZM5.24052 9.04478V9.1495C5.24052 9.39761 5.04113 9.60063 4.79387 9.60063C4.54822 9.60063 4.34721 9.39925 4.34721 9.1495V9.04478C4.34721 8.79667 4.5466 8.59365 4.79387 8.59365C5.03951 8.59365 5.24052 8.79504 5.24052 9.04478ZM25.5943 2.19122C23.1665 2.19122 21.1903 4.18736 21.1903 6.63942C21.1903 9.09147 23.1666 11.0893 25.5943 11.0893C28.0221 11.0893 30 9.09312 30 6.63942C30 4.18571 28.0237 2.19122 25.5943 2.19122ZM25.5943 10.1872C23.6578 10.1872 22.0818 8.59547 22.0818 6.63797C22.0818 4.68048 23.6578 3.09031 25.5943 3.09031C27.5308 3.09031 29.1084 4.68209 29.1084 6.63797C29.1084 8.59386 27.5324 10.1872 25.5943 10.1872ZM5.24052 4.77064V7.83496C5.24052 8.08307 5.04113 8.28609 4.79387 8.28609C4.54822 8.28609 4.34721 8.08471 4.34721 7.83496V4.77064C4.34721 4.52253 4.5466 4.31951 4.79387 4.31951C5.03951 4.31951 5.24052 4.5209 5.24052 4.77064ZM27.7908 5.30393H26.9167V4.42105C26.9167 4.17294 26.7173 3.96992 26.4701 3.96992H24.7186C24.473 3.96992 24.272 4.17131 24.272 4.42105V5.30393H23.3978C23.1522 5.30393 22.9512 5.50532 22.9512 5.75506V7.52406C22.9512 7.77217 23.1506 7.97519 23.3978 7.97519H24.272V8.85807C24.272 9.10618 24.4713 9.3092 24.7186 9.3092H26.4701C26.7157 9.3092 26.9167 9.10781 26.9167 8.85807V7.97519H27.7908C28.0365 7.97519 28.2375 7.77381 28.2375 7.52406V5.75506C28.2375 5.50695 28.0381 5.30393 27.7908 5.30393ZM27.3442 7.07293H26.4701C26.2244 7.07293 26.0234 7.27432 26.0234 7.52406V8.40694H25.1636V7.52406C25.1636 7.27595 24.9642 7.07293 24.717 7.07293H23.8429V6.20454H24.717C24.9626 6.20454 25.1636 6.00315 25.1636 5.75341V4.87053H26.0234V5.75341C26.0234 6.00152 26.2228 6.20454 26.4701 6.20454H27.3442V7.07293ZM9.36739 10.242C9.65929 9.73286 9.65929 9.15127 9.36739 8.64537L6.16278 3.03698C5.87247 2.52947 5.37479 2.23787 4.79415 2.23787C4.21352 2.23787 3.71427 2.52948 3.42553 3.03698L1.82083 5.84192L0.217734 8.64686C-0.0725781 9.15276 -0.0725781 9.73434 0.217734 10.2435C0.503261 10.7429 1.01528 11.041 1.58636 11.041H7.99868C8.57931 11.041 9.07697 10.751 9.3673 10.2451L9.36739 10.242ZM0.991313 9.7925C0.863703 9.56694 0.863703 9.32046 0.991313 9.0965L2.59441 6.29156L4.19911 3.48662C4.32671 3.26268 4.53886 3.13863 4.79566 3.13863C5.05248 3.13863 5.26302 3.26268 5.39222 3.48662L8.59842 9.09667C8.72603 9.319 8.72603 9.56549 8.59683 9.78944C8.46922 10.0134 8.25707 10.1358 8.00027 10.1358H1.58795C1.33113 10.1358 1.12059 10.0118 0.991392 9.78944L0.991313 9.7925Z" fill="#00ADB5"/>
</svg>
