<svg width="30" height="23" viewBox="0 0 30 23" fill="none" xmlns="http://www.w3.org/2000/svg">
<path d="M14.2404 4.22063C15.1906 7.07399 16.5072 5.30164 18.5069 5.3205C24.4192 5.37706 22.8107 10.8512 26.8723 10.7695C28.2821 10.7381 29.8595 7.72134 28.5429 5.67245C25.8103 1.41756 25.3011 3.70527 21.4382 2.07119C19.9602 1.4427 15.3583 1.57468 14.3336 3.09563C14.141 3.39102 14.0913 3.75555 14.2404 4.22063ZM17.0537 6.57748C15.5632 7.02371 14.2901 7.40709 13.3275 4.5286C12.7685 2.8568 13.9112 1.79465 15.4017 1.26672C16.3706 0.921046 17.563 0.763923 18.6746 0.738783C19.9477 0.713644 21.1339 0.883336 21.8046 1.16616C25.4688 2.71225 26.301 0.405682 29.3502 5.14452C31.0457 7.77162 29.1391 11.6997 26.8909 11.7437C22.022 11.8443 23.792 6.34494 18.4945 6.29466C18.0225 6.28837 17.5257 6.43921 17.0537 6.57748ZM9.16031 0.789063C8.99263 0.575375 9.0361 0.267413 9.24725 0.104005C9.45841 -0.0656878 9.76272 -0.0216932 9.9304 0.191994L11.4333 2.15289C11.6196 2.398 11.5389 2.74368 11.278 2.88823L9.18515 4.14521C8.95537 4.28348 8.66348 4.20178 8.52685 3.96924C8.39022 3.73669 8.46475 3.4413 8.69453 3.30303L9.70682 2.6934L4.55842 1.70666C4.29758 1.65638 4.12369 1.3987 4.17337 1.13473C4.22306 0.870767 4.47768 0.694789 4.73852 0.745068L9.88071 1.7318L9.16031 0.789063ZM14.3584 13.1641C13.5573 15.0684 12.5884 18.6194 13.4889 20.662C13.9112 21.6236 14.6813 22.0196 15.7247 22.0196H21.5749C23.7174 22.0196 24.3261 20.2598 24.3261 18.3114C24.3261 16.6334 23.8603 14.7165 23.2144 13.1704C22.2828 10.9455 20.6557 7.83447 18.7864 7.83447C16.9171 7.83447 15.29 10.9392 14.3584 13.1641ZM12.6505 15.2193C13.3399 12.567 14.9049 9.39313 16.4078 7.96645C17.9542 6.48949 19.6248 6.48949 21.165 7.96645C22.1711 8.92805 23.1523 10.5307 24.0963 12.787C25.0402 15.0307 25.8352 18.6194 24.8229 20.9385C24.2205 22.3149 23.0778 23 21.5749 23H15.7247C14.3336 23 13.2405 22.4092 12.6505 21.1522C12.0606 22.4092 10.9675 23 9.5764 23H3.72002C0.993661 23 0 20.8128 0 18.3114C0 16.5014 0.49683 14.4462 1.1986 12.787C2.30405 10.141 4.08643 6.8603 6.51469 6.8603C8.93673 6.8603 10.7191 10.141 11.8308 12.787C12.1413 13.5286 12.427 14.3582 12.6505 15.2193ZM12.1661 18.6068C12.1661 16.8596 11.6258 14.8045 10.9427 13.1641C10.0111 10.9392 8.38401 7.82818 6.51469 7.82818C4.64536 7.82818 3.01824 10.9392 2.08669 13.1641C1.26071 15.1313 0.471989 18.5 1.36007 20.5426C1.80722 21.567 2.60836 22.0196 3.72002 22.0196H9.57019C11.5948 22.0133 12.1661 20.4672 12.1661 18.6068Z" fill="#00ADB5"/>
</svg>
