<svg width="30" height="33" viewBox="0 0 30 33" fill="none" xmlns="http://www.w3.org/2000/svg">
<path fill-rule="evenodd" clip-rule="evenodd" d="M25.682 18.8287H24.3958V19.4887C24.3958 19.5708 24.3691 19.6506 24.3199 19.7161C24.2706 19.7816 24.2015 19.8292 24.1229 19.8517C24.0022 19.8864 23.8836 19.9279 23.7675 19.976C23.6599 20.0207 23.5548 20.0711 23.4526 20.1271C23.3802 20.1754 23.2934 20.197 23.2069 20.1882C23.1204 20.1794 23.0396 20.1409 22.9783 20.079L22.5141 19.6126L21.606 20.5256L22.0697 20.9917C22.1274 21.0496 22.1647 21.1248 22.176 21.2059C22.1872 21.287 22.1718 21.3697 22.1321 21.4412C22.0711 21.552 22.0164 21.6663 21.9683 21.7833C21.9224 21.8947 21.8825 22.0085 21.849 22.1243C21.8294 22.2068 21.7828 22.2803 21.7166 22.333C21.6504 22.3857 21.5685 22.4145 21.4841 22.4147H20.8273V23.7072H21.4841C21.5658 23.7073 21.6452 23.7341 21.7104 23.7836C21.7755 23.8331 21.8229 23.9025 21.8453 23.9815C21.8797 24.1028 21.921 24.222 21.969 24.3386C22.0135 24.4466 22.0636 24.5522 22.119 24.655C22.1671 24.7278 22.1886 24.815 22.1799 24.902C22.1712 24.9889 22.1328 25.0701 22.0712 25.1317L21.606 25.5981L22.5156 26.5122L22.9794 26.0462C23.0369 25.9883 23.1117 25.9508 23.1924 25.9395C23.2731 25.9282 23.3552 25.9436 23.4263 25.9835C23.5368 26.0448 23.6505 26.0997 23.7671 26.1481C23.878 26.1943 23.9913 26.2343 24.1065 26.268C24.1886 26.2877 24.2618 26.3345 24.3142 26.401C24.3666 26.4675 24.3952 26.5498 24.3955 26.6347V27.2947H25.6817V26.6347C25.6818 26.5526 25.7085 26.4728 25.7577 26.4073C25.8069 26.3418 25.876 26.2942 25.9546 26.2717C26.0752 26.2371 26.1938 26.1956 26.3096 26.1474C26.4172 26.1027 26.5225 26.0524 26.6249 25.9967C26.6973 25.9483 26.7841 25.9267 26.8706 25.9354C26.9571 25.9442 27.0379 25.9828 27.0992 26.0447L27.563 26.5107L28.4726 25.5966L28.0089 25.1306C27.9512 25.0728 27.9139 24.9977 27.9025 24.9166C27.8912 24.8355 27.9065 24.753 27.9461 24.6814C28.0655 24.4649 28.1606 24.2356 28.2296 23.998C28.2491 23.9154 28.2957 23.8419 28.3619 23.7892C28.4281 23.7365 28.51 23.7077 28.5945 23.7076H29.2513V22.4154H28.5945C28.5128 22.4154 28.4333 22.3886 28.3682 22.3391C28.303 22.2896 28.2556 22.2201 28.2333 22.1412C28.1987 22.02 28.1574 21.9009 28.1096 21.7844C28.0651 21.6762 28.0149 21.5704 27.9592 21.4676C27.9112 21.3948 27.8898 21.3076 27.8985 21.2207C27.9072 21.1338 27.9456 21.0526 28.007 20.9909L28.4708 20.5249L27.5611 19.6104L27.0974 20.0768C27.0397 20.1346 26.9648 20.172 26.8841 20.1833C26.8034 20.1946 26.7213 20.1793 26.65 20.1395C26.5398 20.0781 26.4261 20.023 26.3096 19.9745C26.1987 19.9283 26.0852 19.8883 25.9699 19.8546C25.8878 19.835 25.8147 19.7881 25.7624 19.7216C25.71 19.6551 25.6814 19.5728 25.6813 19.488V18.828L25.682 18.8287ZM25.9564 22.1397C26.1688 22.353 26.301 22.6337 26.3306 22.934C26.3601 23.2343 26.2851 23.5356 26.1183 23.7865C25.9516 24.0375 25.7034 24.2225 25.4161 24.3102C25.1287 24.3979 24.82 24.3827 24.5426 24.2673C24.2652 24.1519 24.0361 23.9434 23.8945 23.6773C23.7529 23.4112 23.7075 23.104 23.766 22.8081C23.8245 22.5121 23.9833 22.2457 24.2154 22.0542C24.4475 21.8627 24.7385 21.7581 25.0387 21.758C25.2092 21.7578 25.378 21.7914 25.5354 21.8569C25.6929 21.9224 25.836 22.0185 25.9564 22.1397ZM25.0387 21.003C25.513 21.0029 25.9727 21.1681 26.3393 21.4704C26.706 21.7727 26.957 22.1934 27.0496 22.6609C27.1422 23.1283 27.0706 23.6135 26.847 24.0339C26.6235 24.4542 26.2618 24.7837 25.8236 24.9661C25.3855 25.1485 24.8979 25.1726 24.4441 25.0342C23.9902 24.8958 23.5981 24.6036 23.3347 24.2073C23.0712 23.811 22.9526 23.3352 22.9991 22.8609C23.0456 22.3866 23.2544 21.9432 23.5898 21.6062C23.7799 21.4147 24.0057 21.2629 24.2544 21.1594C24.503 21.0559 24.7696 21.0027 25.0387 21.003ZM22.601 5.56747V18.81C22.513 18.7971 22.4232 18.8036 22.338 18.8289C22.2527 18.8542 22.1739 18.8978 22.1069 18.9567C22.0958 18.9655 22.0852 18.9751 22.0752 18.9853L20.9806 20.0853C20.9227 20.1432 20.8769 20.212 20.8456 20.2877C20.8143 20.3635 20.7982 20.4447 20.7982 20.5267C20.7982 20.6088 20.8143 20.69 20.8456 20.7657C20.8769 20.8415 20.9227 20.9103 20.9806 20.9682L21.3432 21.3327C21.3189 21.3867 21.2946 21.4408 21.2703 21.4951C21.2459 21.5494 21.2245 21.6044 21.206 21.6601H20.6967C20.5323 21.6605 20.3748 21.7264 20.2588 21.8434C20.1424 21.96 20.0768 22.1183 20.0764 22.2834V23.837C20.0769 24.0028 20.1426 24.1616 20.2592 24.2788C20.3759 24.396 20.5339 24.4621 20.6989 24.4625H21.2115C21.2316 24.5175 21.2531 24.5725 21.2757 24.6275C21.2984 24.6825 21.3217 24.7375 21.3487 24.7896L20.986 25.1563C20.8749 25.268 20.8101 25.418 20.8048 25.576C20.7995 25.7339 20.8541 25.8879 20.9576 26.0069C20.9663 26.0182 20.9758 26.0289 20.986 26.0388L22.0807 27.1388C22.1489 27.2071 22.2318 27.2586 22.3231 27.2893C22.4144 27.32 22.5115 27.3291 22.6068 27.3159V29.5057C22.6069 29.5804 22.5775 29.6521 22.5251 29.7051C22.4994 29.731 22.4688 29.7516 22.4352 29.7655C22.4016 29.7795 22.3655 29.7866 22.3291 29.7865H1.02969C0.993295 29.7867 0.957236 29.7795 0.923602 29.7656C0.889969 29.7516 0.859428 29.7311 0.833749 29.7051C0.807748 29.6789 0.787147 29.6478 0.773122 29.6136C0.759098 29.5793 0.751926 29.5427 0.752016 29.5057V1.03657C0.751926 0.999553 0.759098 0.962884 0.773122 0.928657C0.787147 0.894431 0.807748 0.863319 0.833749 0.8371C0.859428 0.811183 0.889969 0.790643 0.923602 0.77667C0.957236 0.762698 0.993295 0.75557 1.02969 0.7557H17.8254V4.67903C17.8265 4.91447 17.9199 5.13998 18.0855 5.3066C18.251 5.47322 18.4753 5.56749 18.7095 5.56893L22.601 5.56747ZM2.98252 30.5433H22.3233C22.5963 30.5419 22.8576 30.4322 23.0505 30.238C23.2433 30.0439 23.352 29.7811 23.353 29.5068V26.7901C23.3953 26.8096 23.4373 26.8268 23.4796 26.8455C23.5341 26.8682 23.5887 26.8897 23.6434 26.91V27.4267C23.6435 27.5085 23.6597 27.5894 23.691 27.665C23.7223 27.7405 23.7681 27.809 23.8259 27.8667C23.8833 27.9247 23.9515 27.9708 24.0266 28.0022C24.1017 28.0337 24.1823 28.0499 24.2637 28.05H24.6607V31.9601C24.6602 32.0354 24.6303 32.1073 24.5774 32.1605C24.5244 32.2137 24.4528 32.2438 24.3779 32.2443H3.2653C3.19045 32.2438 3.1188 32.2137 3.06588 32.1605C3.01295 32.1073 2.983 32.0354 2.98252 31.9601V30.5433ZM24.6629 18.073H24.2659C24.1007 18.0733 23.9423 18.1395 23.8256 18.2571C23.7088 18.3746 23.6433 18.5339 23.6434 18.7V19.2133C23.5885 19.2336 23.5337 19.255 23.4792 19.2775C23.4373 19.2951 23.395 19.3142 23.353 19.3329V5.18943C23.353 5.14007 23.3434 5.09118 23.3246 5.04556C23.3058 4.99995 23.2783 4.9585 23.2435 4.9236L21.5465 3.21383H24.379C24.4539 3.21431 24.5255 3.24441 24.5785 3.2976C24.6314 3.35078 24.6613 3.42278 24.6618 3.498V18.073H24.6629ZM20.7959 2.45667H24.379C24.6533 2.45715 24.9163 2.56686 25.1102 2.76177C25.3042 2.95668 25.4134 3.22089 25.4138 3.49653V18.073H25.8108C25.9752 18.0734 26.1327 18.1393 26.2487 18.2563C26.3651 18.3729 26.4307 18.5312 26.4311 18.6963V19.2133C26.4863 19.2336 26.5411 19.255 26.5953 19.2775C26.6493 19.2999 26.7048 19.3241 26.757 19.3508L27.1196 18.986C27.1297 18.9759 27.1403 18.9663 27.1514 18.9574C27.2698 18.8534 27.4232 18.7984 27.5804 18.8037C27.7377 18.809 27.887 18.8742 27.9983 18.986L29.0929 20.086C29.2095 20.2033 29.275 20.3624 29.275 20.5282C29.275 20.694 29.2095 20.8531 29.0929 20.9704L28.7299 21.3349C28.7542 21.3889 28.7785 21.443 28.8028 21.4973C28.8272 21.5516 28.8484 21.6066 28.8667 21.6623H29.3797C29.5441 21.6627 29.7015 21.7286 29.8176 21.8456C29.934 21.9622 29.9996 22.1205 30 22.2856V23.8392C29.9999 23.921 29.9838 24.002 29.9525 24.0775C29.9212 24.153 29.8753 24.2216 29.8176 24.2792C29.7015 24.3962 29.5441 24.4621 29.3797 24.4625H28.8671C28.8469 24.5175 28.8256 24.5724 28.8032 24.6272C28.7809 24.6814 28.7569 24.7372 28.7302 24.7896L29.0933 25.1563C29.151 25.2142 29.1968 25.2829 29.2281 25.3587C29.2594 25.4344 29.2755 25.5156 29.2755 25.5976C29.2755 25.6795 29.2594 25.7607 29.2281 25.8364C29.1968 25.9122 29.151 25.9809 29.0933 26.0388L27.9986 27.1388C27.8819 27.256 27.7236 27.3218 27.5586 27.3218C27.3936 27.3218 27.2353 27.256 27.1185 27.1388L26.7559 26.7744C26.7023 26.7988 26.6485 26.8233 26.5942 26.8477C26.54 26.8721 26.4852 26.8937 26.43 26.9122V27.4267C26.4296 27.5918 26.364 27.7501 26.2476 27.8667H26.2494C26.1333 27.9835 25.9759 28.0494 25.8116 28.05H25.4149V31.9601C25.4144 32.236 25.3051 32.5003 25.1109 32.6953C24.9167 32.8902 24.6535 32.9998 24.379 33H3.2653C2.9911 32.9993 2.72832 32.8895 2.53447 32.6947C2.34061 32.4998 2.23145 32.2357 2.23087 31.9601V30.5433H1.02969C0.756698 30.542 0.495298 30.4323 0.302433 30.2381C0.109567 30.044 0.000863024 29.7811 0 29.5068V1.03657C0.000863024 0.762236 0.109567 0.499362 0.302433 0.305208C0.495298 0.111055 0.756698 0.00135295 1.02969 6.77807e-08H18.2016C18.2559 -3.26107e-05 18.3095 0.0117513 18.3587 0.0345396C18.408 0.0573279 18.4517 0.0905786 18.487 0.132L20.7959 2.45667ZM20.3946 3.1207C20.38 3.10847 20.3666 3.09498 20.3544 3.08037L18.5775 1.2903V4.67757C18.5773 4.7134 18.5914 4.74782 18.6165 4.77327C18.6415 4.79726 18.6749 4.81043 18.7095 4.80993H22.0726L20.396 3.1207H20.3946ZM9.14387 15.4942C9.04687 15.3968 8.91924 15.3361 8.78272 15.3226C8.6462 15.3091 8.50924 15.3436 8.39519 15.4202C8.28113 15.4968 8.19703 15.6107 8.15722 15.7426C8.11741 15.8746 8.12434 16.0163 8.17684 16.1436C8.22934 16.271 8.32417 16.3761 8.44515 16.4411C8.56613 16.506 8.70579 16.5268 8.84033 16.4999C8.97487 16.473 9.09597 16.4001 9.18299 16.2935C9.27001 16.187 9.31756 16.0534 9.31755 15.9155C9.31761 15.8373 9.3023 15.7598 9.27249 15.6875C9.24269 15.6152 9.19898 15.5495 9.14387 15.4942ZM13.0543 13.361C12.9573 13.2632 12.8295 13.2023 12.6928 13.1886C12.5561 13.1749 12.4189 13.2093 12.3046 13.2859C12.1903 13.3625 12.106 13.4765 12.066 13.6086C12.026 13.7407 12.0328 13.8826 12.0853 14.0102C12.1378 14.1377 12.2327 14.2431 12.3538 14.3082C12.4749 14.3734 12.6148 14.3943 12.7495 14.3674C12.8843 14.3405 13.0056 14.2675 13.0928 14.1608C13.1799 14.0541 13.2276 13.9203 13.2276 13.7823C13.2277 13.704 13.2124 13.6266 13.1827 13.5543C13.1529 13.482 13.1093 13.4163 13.0543 13.361ZM16.9643 15.4942C16.8673 15.3968 16.7397 15.3361 16.6032 15.3226C16.4667 15.3091 16.3297 15.3436 16.2156 15.4202C16.1016 15.4968 16.0175 15.6107 15.9777 15.7426C15.9379 15.8746 15.9448 16.0163 15.9973 16.1436C16.0498 16.271 16.1446 16.3761 16.2656 16.4411C16.3866 16.506 16.5262 16.5268 16.6608 16.4999C16.7953 16.473 16.9164 16.4001 17.0034 16.2935C17.0905 16.187 17.138 16.0534 17.138 15.9155C17.1381 15.8373 17.1228 15.7598 17.0929 15.6875C17.0631 15.6152 17.0194 15.5495 16.9643 15.4942ZM5.23383 13.361C5.13682 13.2632 5.00907 13.2023 4.87237 13.1886C4.73567 13.1749 4.59847 13.2093 4.48417 13.2859C4.36986 13.3625 4.28553 13.4765 4.24554 13.6086C4.20555 13.7407 4.21238 13.8826 4.26486 14.0102C4.31734 14.1377 4.41224 14.2431 4.53336 14.3082C4.65448 14.3734 4.79434 14.3943 4.92909 14.3674C5.06384 14.3405 5.18514 14.2675 5.27231 14.1608C5.35949 14.0541 5.40714 13.9203 5.40714 13.7823C5.40723 13.704 5.39196 13.6266 5.36222 13.5543C5.33248 13.482 5.28885 13.4163 5.23383 13.361ZM4.81458 12.43C4.60067 12.4299 4.38983 12.4811 4.19956 12.5794C4.0093 12.6776 3.84511 12.8201 3.72063 12.9949C3.59615 13.1697 3.51497 13.3718 3.48383 13.5845C3.4527 13.7972 3.47251 14.0142 3.54161 14.2177C3.61072 14.4211 3.72713 14.605 3.88117 14.7542C4.03522 14.9033 4.22245 15.0134 4.42732 15.0752C4.63219 15.1371 4.84879 15.1489 5.05912 15.1097C5.26945 15.0705 5.46744 14.9815 5.63665 14.85L7.39792 15.6933C7.38608 15.7661 7.3801 15.8396 7.38005 15.9133C7.37987 16.0993 7.41787 16.2832 7.49167 16.4537C7.56547 16.6242 7.67348 16.7776 7.80896 16.9042C7.94443 17.0309 8.10445 17.128 8.279 17.1897C8.45355 17.2513 8.63889 17.2761 8.82341 17.2625C9.00794 17.2489 9.18769 17.1972 9.35142 17.1106C9.51514 17.024 9.65933 16.9044 9.77496 16.7593C9.89058 16.6141 9.97516 16.4465 10.0234 16.267C10.0717 16.0875 10.0825 15.9 10.0553 15.7161L11.7498 14.7972C12.0066 15.0228 12.3391 15.1419 12.68 15.1305C13.0209 15.1191 13.3447 14.9779 13.5859 14.7356C13.6031 14.7184 13.6198 14.6989 13.6363 14.6824L15.229 15.6358C15.21 15.7272 15.2005 15.8203 15.2005 15.9137C15.2004 16.12 15.2474 16.3235 15.3377 16.5087C15.428 16.694 15.5593 16.856 15.7215 16.9823C15.8837 17.1087 16.0726 17.1961 16.2736 17.2377C16.4746 17.2794 16.6825 17.2743 16.8812 17.2229C17.08 17.1714 17.2644 17.0748 17.4203 16.9407C17.5762 16.8065 17.6994 16.6383 17.7806 16.4488C17.8619 16.2594 17.8988 16.0538 17.8888 15.8478C17.8787 15.6418 17.8218 15.4408 17.7225 15.2603L19.7166 12.7527V13.8024C19.7197 13.9006 19.7606 13.9937 19.8308 14.0621C19.901 14.1305 19.9949 14.1687 20.0926 14.1687C20.1904 14.1687 20.2843 14.1305 20.3545 14.0621C20.4246 13.9937 20.4656 13.9006 20.4686 13.8024V11.9324C20.4686 11.8326 20.4291 11.7368 20.3589 11.6662C20.2886 11.5955 20.1933 11.5559 20.0939 11.5559H18.233C18.1357 11.5589 18.0434 11.5999 17.9756 11.6702C17.9079 11.7404 17.87 11.8344 17.87 11.9323C17.87 12.0301 17.9079 12.1241 17.9756 12.1943C18.0434 12.2646 18.1357 12.3056 18.233 12.3086H19.116L17.1909 14.729C16.9359 14.5895 16.6428 14.5366 16.3555 14.5782C16.0681 14.6199 15.8018 14.7538 15.5964 14.96L15.5833 14.9736L13.9617 14.0045C13.9947 13.8043 13.9824 13.5991 13.9256 13.4044C13.8689 13.2096 13.7692 13.0302 13.634 12.8794C13.4989 12.7287 13.3316 12.6105 13.1447 12.5336C12.9578 12.4566 12.7561 12.423 12.5545 12.4352C12.353 12.4474 12.1567 12.505 11.9803 12.6039C11.8039 12.7027 11.652 12.8402 11.5357 13.0061C11.4195 13.1721 11.3419 13.3622 11.3088 13.5624C11.2757 13.7626 11.2879 13.9677 11.3445 14.1625L9.74154 15.0333C9.72038 15.0088 9.69849 14.9849 9.6755 14.96C9.42335 14.7066 9.08138 14.5643 8.72481 14.5643C8.36824 14.5643 8.02627 14.7066 7.77412 14.96C7.7566 14.9776 7.73982 14.9967 7.7234 15.0139L6.08399 14.2292C6.15469 14.0256 6.17585 13.8079 6.14571 13.5943C6.11557 13.3808 6.035 13.1775 5.91074 13.0017C5.78647 12.8258 5.62213 12.6824 5.43143 12.5834C5.24073 12.4843 5.02922 12.4326 4.81458 12.4326V12.43ZM15.9525 23.0633H17.138V19.1818H15.9525V23.0659V23.0633ZM12.0425 23.0633H13.2276V16.8084H12.0425V23.0659V23.0633ZM8.13206 23.0633H9.31755V19.1818H8.13206V23.0659V23.0633ZM4.22202 23.0633H5.40714V17.2975H4.22202V23.0659V23.0633ZM2.88473 23.819H18.4892C18.5395 23.8206 18.5897 23.812 18.6367 23.7937C18.6837 23.7754 18.7265 23.7479 18.7627 23.7126C18.7989 23.6774 18.8277 23.6352 18.8473 23.5886C18.8669 23.5419 18.8771 23.4918 18.8771 23.4412C18.8771 23.3905 18.8669 23.3404 18.8473 23.2938C18.8277 23.2472 18.7989 23.205 18.7627 23.1697C18.7265 23.1345 18.6837 23.1069 18.6367 23.0886C18.5897 23.0704 18.5395 23.0618 18.4892 23.0633H17.89V18.8041C17.89 18.7039 17.8504 18.6077 17.7798 18.5368C17.7093 18.4659 17.6136 18.4261 17.5138 18.4261H15.5767C15.4769 18.4262 15.3813 18.4661 15.3108 18.5369C15.2403 18.6078 15.2006 18.7039 15.2005 18.8041V23.0659H13.98V16.4292C13.9799 16.329 13.9402 16.2329 13.8697 16.162C13.7992 16.0912 13.7035 16.0513 13.6038 16.0512H11.6663C11.5666 16.0513 11.471 16.0912 11.4005 16.1621C11.33 16.2329 11.2905 16.329 11.2905 16.4292V23.0659H10.0696V18.8041C10.0696 18.7039 10.0299 18.6077 9.95939 18.5368C9.88884 18.4659 9.79315 18.4261 9.69338 18.4261H7.75624C7.65649 18.4262 7.56086 18.4661 7.49034 18.5369C7.41981 18.6078 7.38014 18.7039 7.38005 18.8041V23.0659H6.15916V16.9195C6.15916 16.8193 6.11956 16.7232 6.04908 16.6524C5.9786 16.5816 5.88301 16.5418 5.78333 16.5418H3.84583C3.74615 16.5418 3.65056 16.5816 3.58008 16.6524C3.5096 16.7232 3.47 16.8193 3.47 16.9195V23.0659H2.88619C2.83583 23.0643 2.78566 23.0729 2.73867 23.0912C2.69168 23.1095 2.64883 23.1371 2.61265 23.1723C2.57647 23.2076 2.5477 23.2497 2.52806 23.2964C2.50841 23.343 2.49829 23.3931 2.49829 23.4438C2.49829 23.4944 2.50841 23.5445 2.52806 23.5911C2.5477 23.6378 2.57647 23.6799 2.61265 23.7152C2.64883 23.7504 2.69168 23.778 2.73867 23.7963C2.78566 23.8146 2.83583 23.8232 2.88619 23.8216L2.88473 23.819ZM9.02419 2.51533C7.92044 2.51526 6.85081 2.89978 5.99755 3.60337C5.1443 4.30696 4.56021 5.28609 4.34481 6.37392C4.12942 7.46176 4.29604 8.59099 4.81629 9.56921C5.33654 10.5474 6.17823 11.3141 7.19794 11.7386C8.21765 12.1631 9.35229 12.2192 10.4085 11.8973C11.4648 11.5754 12.3773 10.8954 12.9905 9.9732C13.6038 9.05099 13.8799 7.94364 13.7717 6.83982C13.6636 5.73599 13.1779 4.704 12.3975 3.91967C11.955 3.47383 11.4292 3.12025 10.8503 2.87925C10.2714 2.63825 9.6508 2.51457 9.02419 2.51533ZM9.40002 3.28863V6.93H13.0251C12.9375 5.99362 12.5274 5.11732 11.8657 4.45228C11.2039 3.78725 10.3318 3.37518 9.40002 3.28717V3.28863ZM13.0251 7.68863H9.02419C8.92445 7.68854 8.82882 7.64868 8.75829 7.5778C8.68776 7.50693 8.6481 7.41083 8.648 7.3106V3.28863C7.8886 3.36056 7.16524 3.64816 6.56243 4.11783C5.95963 4.58751 5.50227 5.21986 5.24379 5.94102C4.98531 6.66218 4.93639 7.44236 5.10273 8.19042C5.26907 8.93848 5.64382 9.62353 6.18318 10.1655C6.72254 10.7075 7.40425 11.0841 8.14866 11.2513C8.89307 11.4184 9.66945 11.3693 10.3871 11.1095C11.1047 10.8498 11.734 10.3902 12.2014 9.78442C12.6688 9.17866 12.955 8.45176 13.0266 7.68863H13.0251Z" fill="#00ADB5"/>
</svg>
