<svg width="30" height="30" viewBox="0 0 30 30" fill="none" xmlns="http://www.w3.org/2000/svg">
<path fill-rule="evenodd" clip-rule="evenodd" d="M5.63161 11.6485C5.6925 11.8578 5.57325 12.0772 5.36392 12.1381C5.15459 12.199 4.93511 12.0798 4.87422 11.8705C4.81459 11.6688 4.62429 11.6485 4.40988 11.5584C4.17645 11.462 4.01404 11.3263 3.80852 11.4836C3.54337 11.6865 3.31249 11.7969 2.97375 11.7741C2.70859 11.7563 2.44978 11.646 2.2506 11.4468L1.55918 10.7555C1.15954 10.3559 1.11767 9.7242 1.46276 9.27516C1.56171 9.14704 1.64925 9.03542 1.55918 8.84641L1.3435 8.32506C1.20903 7.95593 0.757376 8.27812 0.279108 7.73268C0.104033 7.53353 0 7.27348 0 6.9906V6.01261C0 5.44812 0.417405 4.97119 0.979401 4.89761C1.13672 4.87731 1.27881 4.85955 1.34731 4.66547L1.55791 4.15681C1.64798 3.96781 1.56045 3.85745 1.46149 3.72934C1.11641 3.2803 1.15828 2.64859 1.55918 2.24901L2.2506 1.55769C2.65024 1.15811 3.28203 1.11625 3.73113 1.46128C3.85926 1.56022 3.97091 1.64775 4.15993 1.55769L4.66867 1.34712C4.86277 1.27735 4.88053 1.13655 4.90083 0.979263C4.97441 0.417314 5.45143 0 6.01599 0H6.99412C7.55868 0 8.03569 0.417346 8.10928 0.979263C8.12958 1.13656 8.14734 1.27863 8.34145 1.34712L8.85018 1.55769C9.03921 1.64775 9.14958 1.56023 9.27772 1.46128C9.72682 1.11625 10.3586 1.15812 10.7583 1.55769L11.4497 2.24901C11.8493 2.64859 11.8912 3.2803 11.5461 3.72934C11.4471 3.85745 11.3596 3.96781 11.4497 4.15681L11.6653 4.67817C11.6996 4.77204 11.777 4.84434 11.8721 4.87225C12.0815 4.93314 12.2007 5.15259 12.1398 5.36188C12.0789 5.57118 11.8594 5.69041 11.6501 5.62953C11.3063 5.52805 11.0374 5.26927 10.9156 4.93061C10.7735 4.53229 10.5883 4.29638 10.6301 3.89553C10.6872 3.35897 11.0069 3.29808 10.9879 3.02281C10.9828 2.9467 10.9498 2.86932 10.8889 2.8097L10.1975 2.11838C10.0745 1.99534 9.8905 1.98646 9.75602 2.08921C9.54669 2.2503 9.38304 2.34925 9.11153 2.37715C8.70935 2.42028 8.4721 2.23255 8.07756 2.09174C7.67286 1.94714 7.39501 1.60464 7.33921 1.17717C7.32272 1.05666 7.31891 0.961525 7.21615 0.87146C7.15779 0.820721 7.07913 0.790277 6.99287 0.790277H6.01473C5.84219 0.790277 5.70391 0.912052 5.68109 1.08076C5.64683 1.34334 5.60116 1.52853 5.43116 1.73909C5.17489 2.05621 4.87293 2.09172 4.49616 2.27185C4.10922 2.45578 3.66898 2.40884 3.33027 2.1488C3.23258 2.07396 3.16154 2.00927 3.02452 2.01941C2.94713 2.02449 2.87101 2.05747 2.81138 2.11836L2.11996 2.80968C1.9969 2.93272 1.98802 3.11665 2.09078 3.25112C2.2519 3.46042 2.35086 3.62404 2.37877 3.89552C2.42191 4.29764 2.23414 4.53485 2.09332 4.92934C1.94869 5.33399 1.60615 5.61179 1.17862 5.66758C1.05809 5.68407 0.962943 5.68788 0.872866 5.79063C0.822119 5.84898 0.791671 5.92763 0.791671 6.01388V6.99188C0.791671 7.16439 0.913463 7.30266 1.0822 7.32548C1.34481 7.35972 1.53003 7.40539 1.74062 7.57537C2.06032 7.83414 2.09839 8.14365 2.27345 8.51024C2.45741 8.89712 2.41047 9.3373 2.15039 9.67596C2.07554 9.77363 2.01083 9.84467 2.02098 9.98167C2.02606 10.059 2.05904 10.1352 2.11994 10.1948L2.81136 10.8861C2.93442 11.0091 3.11838 11.018 3.25286 10.9153C3.46219 10.7542 3.62584 10.6552 3.89735 10.6273C4.29953 10.5842 4.53678 10.7719 4.93132 10.9127C5.27259 11.037 5.52885 11.3022 5.63161 11.6485ZM14.6289 3.17883C14.4107 3.17883 14.2331 3.00124 14.2331 2.78305C14.2331 2.56485 14.4107 2.38726 14.6289 2.38726H24.7834C26.3426 2.38726 27.6138 3.6583 27.6138 5.21724V15.3703C27.6138 15.5885 27.4362 15.7661 27.218 15.7661C26.9998 15.7661 26.8221 15.5885 26.8221 15.3703L26.8234 5.21724C26.8234 4.09464 25.9074 3.1788 24.7847 3.1788L14.6289 3.17883ZM15.3724 26.821H5.21657C4.09382 26.821 3.17784 25.9051 3.17784 24.7825V14.6281C3.17784 14.41 3.00023 14.2324 2.782 14.2324C2.56378 14.2324 2.38616 14.41 2.38616 14.6281V24.7812C2.38616 26.3402 3.65738 27.6112 5.21654 27.6112H15.3711C15.5893 27.6112 15.7669 27.4336 15.7669 27.2154C15.7669 26.9972 15.5906 26.821 15.3724 26.821ZM12.0395 14.6753L13.4465 17.1121C13.5759 17.3366 13.8842 17.3785 14.0681 17.1958L17.9008 13.3636C18.0556 13.2089 18.0556 12.959 17.9008 12.8042C17.746 12.6495 17.4961 12.6495 17.3413 12.8042L13.8714 16.2737L12.722 14.2834C12.6129 14.0944 12.3731 14.0297 12.1841 14.1388C11.9963 14.2454 11.9317 14.4863 12.0395 14.6753ZM15.0006 9.57606C12.0052 9.57606 9.57581 12.0039 9.57581 15.0001C9.57581 17.995 12.004 20.4241 15.0006 20.4241C17.9959 20.4241 20.4253 17.9962 20.4253 15.0001C20.4253 12.0051 17.9958 9.57606 15.0006 9.57606ZM18.2776 11.7236C16.4685 9.91475 13.5342 9.91475 11.7249 11.7236C9.91576 13.5325 9.91576 16.4663 11.7249 18.2754C13.534 20.0843 16.4683 20.0843 18.2776 18.2754C20.0867 16.4666 20.0867 13.5337 18.2776 11.7236ZM17.6902 6.62174C17.5621 6.57988 17.4771 6.47967 17.4593 6.34521L17.3451 5.47376C17.2715 4.91181 16.7945 4.4945 16.23 4.4945H13.7713C13.2067 4.4945 12.7297 4.91184 12.6561 5.47376L12.542 6.34521C12.5242 6.4784 12.4392 6.57988 12.3111 6.62047C11.8455 6.77015 11.4103 6.95027 10.9777 7.17226C10.8546 7.23568 10.729 7.22427 10.6186 7.13928L9.92089 6.60399C9.47178 6.25896 8.83999 6.30082 8.44035 6.7004L6.70227 8.43823C6.30263 8.83782 6.26077 9.46952 6.60585 9.91856L7.14122 10.6162C7.22622 10.7266 7.23764 10.8521 7.1742 10.9752C6.95218 11.4065 6.77076 11.8429 6.62234 12.3084C6.58047 12.4365 6.48025 12.5215 6.34704 12.5393L5.47546 12.6534C4.91343 12.727 4.49606 13.2039 4.49606 13.7684V16.2267C4.49606 16.7912 4.91347 17.2682 5.47546 17.3417L6.34704 17.4559C6.48025 17.4737 6.58174 17.5587 6.62234 17.6868C6.77204 18.1523 6.95218 18.5874 7.17547 19.02C7.2389 19.143 7.22748 19.2686 7.14248 19.379L6.60712 20.0766C6.26204 20.5256 6.30391 21.1573 6.70354 21.5569L8.44162 23.2948C8.84126 23.6943 9.47305 23.7362 9.92215 23.3924L10.6199 22.8572C10.7303 22.7722 10.8559 22.7607 10.9789 22.8242C11.4103 23.0462 11.8467 23.2276 12.3123 23.376C12.4405 23.4178 12.5255 23.518 12.5432 23.6525L12.6574 24.5239C12.731 25.0859 13.208 25.5032 13.7726 25.5032H16.2312C16.7958 25.5032 17.2728 25.0859 17.3464 24.5239L17.4606 23.6525C17.4783 23.5193 17.5633 23.4178 17.6915 23.3772C18.1571 23.2275 18.5922 23.0474 19.0248 22.8242C19.1479 22.7607 19.2735 22.7722 19.3839 22.8572L20.0816 23.3924C20.5307 23.7375 21.1625 23.6956 21.5622 23.2948L23.3003 21.5569C23.6999 21.1573 23.7418 20.5256 23.3967 20.0766L22.8613 19.379C22.7763 19.2686 22.7649 19.143 22.8283 19.02C23.0516 18.5874 23.2318 18.1536 23.3814 17.6868C23.4233 17.5587 23.5235 17.4737 23.6568 17.4559L24.5283 17.3417C25.0904 17.2682 25.5077 16.7912 25.5077 16.2267V13.7684C25.5077 13.2039 25.0903 12.727 24.5283 12.6534L23.6568 12.5393C23.5235 12.5215 23.422 12.4365 23.3814 12.3084C23.2317 11.8429 23.0516 11.4078 22.8283 10.9752C22.7649 10.8522 22.7763 10.7266 22.8613 10.6162L23.3967 9.91856C23.7417 9.46952 23.6999 8.83782 23.3003 8.43823L21.5609 6.70293C21.1613 6.30335 20.5295 6.26149 20.0804 6.60652L19.3826 7.14181C19.2722 7.2268 19.1466 7.23822 19.0236 7.17479C18.591 6.95154 18.1558 6.77141 17.6902 6.62174ZM18.0657 7.59974C17.8602 7.51475 17.6547 7.43864 17.4491 7.37268C17.0267 7.23695 16.7362 6.88811 16.6778 6.44794L16.5636 5.57648C16.5408 5.40778 16.4025 5.286 16.23 5.286H13.7713C13.5988 5.286 13.4605 5.40778 13.4377 5.57648L13.3235 6.44794C13.2651 6.88811 12.9746 7.23694 12.5521 7.37268C12.1411 7.5046 11.7237 7.67711 11.3393 7.87627C10.9473 8.07796 10.488 8.0361 10.1391 7.76972L9.44138 7.23316C9.3069 7.12915 9.12168 7.1393 8.99988 7.26234L7.26179 9.00018C7.13873 9.12322 7.12985 9.30715 7.23261 9.44162L7.76798 10.1393C8.03567 10.4881 8.07753 10.9473 7.87454 11.3393C7.67663 11.7236 7.5041 12.1397 7.37088 12.5519C7.23513 12.9743 6.88624 13.2648 6.44601 13.3232L5.57443 13.4373C5.4057 13.4602 5.28391 13.5984 5.28391 13.7709V16.2293C5.28391 16.4018 5.4057 16.54 5.57443 16.5629L6.44601 16.677C6.88624 16.7354 7.23512 17.0258 7.37088 17.4483C7.50282 17.8592 7.67536 18.2766 7.87454 18.6609C8.07626 19.0529 8.0344 19.5121 7.76798 19.8597L7.23261 20.5573C7.12858 20.6918 7.13873 20.877 7.26179 20.9987L8.99988 22.7366C9.12294 22.8596 9.30689 22.8685 9.44138 22.7658L10.1391 22.2305C10.488 21.9628 10.946 21.9222 11.3393 22.1239C11.7237 22.3218 12.1411 22.4956 12.5521 22.6275C12.9746 22.7632 13.2651 23.1121 13.3235 23.5523L13.4377 24.4237C13.4605 24.5924 13.5988 24.7142 13.7713 24.7142H16.23C16.4025 24.7142 16.5408 24.5924 16.5636 24.4237L16.6778 23.5523C16.7362 23.1121 17.0267 22.7633 17.4491 22.6275C17.8602 22.4956 18.2776 22.3218 18.662 22.1239C19.054 21.9222 19.5133 21.9641 19.8609 22.2305L20.5586 22.767C20.6931 22.871 20.8783 22.8609 21.0001 22.7379L22.7382 21C22.8613 20.877 22.8702 20.693 22.7674 20.5586L22.232 19.8609C21.9643 19.5121 21.9238 19.0542 22.1255 18.6622C22.3234 18.2778 22.4972 17.8618 22.6291 17.4495C22.7649 17.0271 23.1138 16.7354 23.554 16.6783L24.4256 16.5641C24.5943 16.5426 24.7161 16.403 24.7161 16.2305V13.7722C24.7161 13.5997 24.5943 13.4614 24.4256 13.4386L23.554 13.3244C23.1138 13.2661 22.7649 12.9756 22.6291 12.5532C22.4972 12.141 22.3247 11.7249 22.1255 11.3405C21.9238 10.9486 21.9656 10.4894 22.232 10.1405L22.7674 9.44288C22.8714 9.30842 22.8613 9.12322 22.7382 9.00144L21.0001 7.26361C20.8771 7.14056 20.6931 7.13168 20.5586 7.23443L19.8609 7.76972C19.512 8.03737 19.054 8.07796 18.6607 7.87627C18.4692 7.77733 18.27 7.68472 18.0657 7.59974ZM24.343 21.5545C24.1438 21.4669 24.0525 21.2348 24.1388 21.0356C24.2263 20.8365 24.4585 20.7451 24.6577 20.8314C26.5302 21.647 27.006 24.1002 25.5533 25.5514C24.1007 27.0038 21.6485 26.5281 20.8327 24.6558C20.7451 24.4567 20.8365 24.2233 21.0369 24.137C21.2361 24.0495 21.4695 24.1408 21.5558 24.3412C22.1496 25.7023 23.9384 26.0499 24.9952 24.9932C26.0508 23.9353 25.7043 22.1469 24.343 21.5545ZM24.3697 18.3515C24.3088 18.1422 24.428 17.9228 24.6373 17.8619C24.8467 17.801 25.0662 17.9202 25.127 18.1295C25.1867 18.3312 25.377 18.3515 25.5914 18.4416C25.8248 18.538 25.9872 18.6737 26.1927 18.5164C26.4566 18.3135 26.6888 18.2031 27.0275 18.226C27.2927 18.2437 27.5515 18.3541 27.7507 18.5532L28.4421 19.2445C28.8417 19.6441 28.8836 20.2758 28.5385 20.7249C28.4396 20.853 28.352 20.9633 28.4421 21.1523L28.6527 21.661C28.7225 21.8551 28.8633 21.8728 29.0206 21.8931C29.5826 21.9667 30 22.4436 30 23.0081V23.9861C30 24.5506 29.5826 25.0275 29.0206 25.1011C28.8633 25.1214 28.7212 25.1392 28.6527 25.3333L28.4421 25.8419C28.352 26.0309 28.4396 26.1413 28.5385 26.2694C28.8836 26.7184 28.8417 27.3501 28.4421 27.7497L27.7507 28.441C27.351 28.8406 26.7192 28.8825 26.2701 28.5387C26.142 28.4398 26.0304 28.3523 25.8413 28.4423L25.3326 28.6529C25.1385 28.7226 25.122 28.8634 25.1004 29.0207C25.0269 29.5827 24.5498 30 23.9853 30H23.0071C22.4426 30 21.9656 29.5827 21.892 29.0207C21.8717 28.8634 21.8539 28.7214 21.6598 28.6529L21.1511 28.4423C20.9621 28.3523 20.8517 28.4398 20.7235 28.5387C20.2744 28.8837 19.6427 28.8419 19.243 28.441L18.5516 27.7497C18.152 27.3501 18.1101 26.7184 18.4552 26.2694C18.5541 26.1413 18.6417 26.0297 18.5516 25.8407L18.341 25.332C18.3042 25.2305 18.2319 25.1569 18.1291 25.1252C17.9198 25.0643 17.8006 24.8449 17.8614 24.6356C17.9223 24.4263 18.1418 24.3071 18.3511 24.3679C18.6975 24.4694 18.9639 24.7269 19.0857 25.0681C19.2265 25.4626 19.413 25.6986 19.3711 26.102C19.3141 26.6385 18.9943 26.6994 19.0121 26.9747C19.0172 27.052 19.0502 27.1282 19.1111 27.1878L19.8025 27.8791C19.9255 28.0021 20.1095 28.0123 20.244 27.9083C20.4533 27.7472 20.617 27.6482 20.8885 27.6203C21.2906 27.5772 21.5279 27.7649 21.9224 27.9057C22.3271 28.0503 22.605 28.3928 22.6608 28.8203C22.6773 28.9408 22.6811 29.036 22.7838 29.126C22.8422 29.1768 22.9209 29.2072 23.0071 29.2072H23.9853C24.1578 29.2072 24.2961 29.0854 24.3189 28.9167C24.3532 28.6541 24.3988 28.4689 24.5688 28.2584C24.8251 27.9413 25.1258 27.9058 25.5038 27.7256C25.8908 27.5417 26.331 27.5886 26.6697 27.8487C26.7674 27.9235 26.8385 27.9882 26.9755 27.9781C27.0529 27.973 27.129 27.94 27.1886 27.8791L27.88 27.1878C28.0031 27.0648 28.0132 26.8808 27.9092 26.7464C27.7481 26.5371 27.6491 26.3734 27.6212 26.102C27.5781 25.6998 27.7659 25.4626 27.9067 25.0681C28.0513 24.6635 28.3938 24.3857 28.8214 24.3299C28.9419 24.3134 29.0371 24.3096 29.1271 24.2069C29.1779 24.1485 29.2083 24.0699 29.2083 23.9836V23.0056C29.2083 22.8331 29.0865 22.6948 28.9178 22.672C28.6552 22.6378 28.47 22.5921 28.2594 22.4221C27.9422 22.1659 27.9067 21.864 27.7266 21.486C27.5426 21.0991 27.5895 20.6589 27.8496 20.3203C27.9245 20.2226 27.9879 20.1515 27.979 20.0145C27.9739 19.9372 27.941 19.8611 27.8801 19.8014L27.1886 19.1101C27.0656 18.9871 26.8816 18.9782 26.7471 19.0809C26.5378 19.242 26.3742 19.341 26.1026 19.3689C25.7005 19.412 25.4632 19.2243 25.0687 19.0835C24.7287 18.963 24.4724 18.6978 24.3697 18.3515ZM5.65822 8.44589C4.29694 7.85225 3.94933 6.06369 5.00739 5.00698C6.06419 3.95033 7.853 4.29662 8.44679 5.65771C8.53433 5.85686 8.7665 5.94819 8.96569 5.86193C9.16487 5.77441 9.25622 5.54227 9.16995 5.34311C8.3542 3.47083 5.90073 2.99513 4.4493 4.44756C2.99666 5.89999 3.47243 8.35182 5.34497 9.16755C5.54415 9.25507 5.77758 9.16374 5.86387 8.96332C5.95014 8.76543 5.85866 8.53344 5.65822 8.44589Z" fill="#00ADB5"/>
</svg>
