<svg width="30" height="26" viewBox="0 0 30 26" fill="none" xmlns="http://www.w3.org/2000/svg">
<path d="M29.1667 1.17529C28.5184 0.428879 27.5794 0.000660831 26.5907 0.000660831C26.584 -0.000826039 26.5847 0.000660831 26.5818 0.000660831C25.8123 0.00140427 25.0666 0.266067 24.4697 0.739635C23.1746 -0.290766 21.2818 -0.25062 20.0306 0.906908C18.6501 2.18413 18.566 4.34752 19.8433 5.72808C19.9273 5.81878 21.8989 7.64763 23.1367 8.79401H18.8946L17.8315 5.89089C17.755 5.68199 17.5527 5.5452 17.3319 5.54966C17.1097 5.55412 16.9149 5.69983 16.8472 5.91171L14.4266 13.5059L12.3777 6.92204C12.3108 6.70793 12.1153 6.56073 11.8915 6.55627C11.6662 6.55106 11.4655 6.69083 11.3904 6.90197L10.392 9.71066L5.15076 9.71513C4.86751 9.71513 4.63556 9.94708 4.63556 10.2303C4.63556 10.5136 4.86751 10.7455 5.15076 10.7455L10.7592 10.7507C10.9793 10.7507 11.1756 10.6125 11.2499 10.4043L11.8484 8.72115L13.924 15.3912C13.9917 15.6083 14.1917 15.7563 14.4192 15.757H14.4206C14.6474 15.757 14.8474 15.6106 14.9165 15.395L17.3773 7.67588L18.0427 9.49284C18.1178 9.69802 18.3133 9.83407 18.5311 9.83407C18.5311 9.83407 24.4555 9.83779 24.4697 9.83779C24.5938 9.83779 24.7172 9.79393 24.8161 9.70546C25.0547 9.49284 28.1207 6.71908 28.8448 5.97119C30.2484 4.7356 30.3941 2.58856 29.1659 1.17454L29.1667 1.17529ZM28.1452 5.20173C28.1333 5.21214 28.1222 5.22255 28.111 5.23444C27.5638 5.80466 25.3499 7.82011 24.4726 8.61484C23.4876 7.70562 20.78 5.18835 20.6008 5.01439C19.7199 4.05461 19.7801 2.55659 20.7376 1.67116C21.6974 0.783497 23.1999 0.841485 24.0875 1.80126C24.1864 1.90757 24.3247 1.96853 24.4697 1.96853C24.6146 1.96853 24.7529 1.90757 24.8518 1.80126C25.2971 1.31877 25.929 1.04221 26.5855 1.04221H26.5892C26.5892 1.04221 26.5951 1.04221 26.5981 1.04221C27.2821 1.04444 27.9311 1.34182 28.3801 1.8585C29.2373 2.84504 29.1317 4.34529 28.1445 5.20247L28.1452 5.20173Z" fill="#00ADB5"/>
<path d="M18.9965 11.2978C18.7117 11.2978 18.4813 11.5283 18.4813 11.813V24.2098C18.4813 24.3592 18.4144 24.5042 18.2962 24.6224C18.1415 24.7718 17.92 24.87 17.6828 24.8491C17.2345 24.8387 16.9357 24.4834 16.9357 24.1637V23.2723C16.9357 22.9891 16.7037 22.7571 16.4205 22.7571H2.58516V3.33265L16.4792 3.35049C16.7691 3.35049 17.0041 3.11631 17.0041 2.82637C17.0041 2.53643 16.7691 2.30225 16.48 2.30225H2.58516C2.01643 2.30225 1.55475 2.76392 1.55475 3.33265V22.7571H0.524354C0.240362 22.7571 0.00915355 22.9891 0.00915355 23.2723V24.0403C-0.0889798 24.89 0.611336 25.658 1.65809 25.8439C1.68857 25.8491 1.73541 25.8491 1.76589 25.8491H17.4501C17.4814 25.8491 17.5066 25.8491 17.5379 25.8439C17.5787 25.8439 17.6152 25.8491 17.6561 25.8491H17.7081C18.1973 25.8491 18.6716 25.658 19.0166 25.3287C19.3362 25.0142 19.5117 24.6068 19.5117 24.1793V11.813C19.5117 11.5283 19.2812 11.2978 18.9965 11.2978ZM1.79711 24.8179C1.38451 24.7354 0.987514 24.4626 1.03435 24.1481C1.03955 24.1228 1.03955 24.0968 1.03955 24.0708V23.7875H15.9045V24.1325C15.9045 24.3748 15.961 24.6068 16.0592 24.8179H1.79711Z" fill="#00ADB5"/>
<path d="M5.15149 6.90039C4.86824 6.90039 4.63629 7.13234 4.63629 7.41559C4.63629 7.69884 4.86824 7.93079 5.15149 7.93079H9.10434C9.38907 7.93079 9.61953 7.70033 9.61953 7.41559C9.61953 7.13085 9.38907 6.90039 9.10434 6.90039H5.15149Z" fill="#00ADB5"/>
<path d="M10.6209 12.5298H5.15149C4.86676 12.5298 4.63629 12.7602 4.63629 13.045C4.63629 13.3297 4.86676 13.5602 5.15149 13.5602H10.6209C10.9057 13.5602 11.1361 13.3297 11.1361 13.045C11.1361 12.7602 10.9057 12.5298 10.6209 12.5298Z" fill="#00ADB5"/>
<path d="M5.15149 16.3746H10.6209C10.9057 16.3746 11.1361 16.1442 11.1361 15.8594C11.1361 15.5747 10.9057 15.3442 10.6209 15.3442H5.15149C4.86676 15.3442 4.63629 15.5747 4.63629 15.8594C4.63629 16.1442 4.86676 16.3746 5.15149 16.3746Z" fill="#00ADB5"/>
<path d="M5.15149 19.1896H15.8941C16.1789 19.1896 16.4093 18.9591 16.4093 18.6744C16.4093 18.3896 16.1789 18.1592 15.8941 18.1592H5.15149C4.86676 18.1592 4.63629 18.3896 4.63629 18.6744C4.63629 18.9591 4.86676 19.1896 5.15149 19.1896Z" fill="#00ADB5"/>
</svg>
