<svg width="30" height="30" viewBox="0 0 30 30" fill="none" xmlns="http://www.w3.org/2000/svg">
<path d="M3 22.6156C3.04006 22.5248 3.06413 22.3611 3.0876 22.2596C3.12664 22.0958 3.18118 21.9359 3.2505 21.7824C3.31886 21.6318 3.43376 21.4394 3.5176 21.294L12.262 6.14776C12.4013 5.9065 12.577 5.58166 12.7377 5.36388C13.0281 4.96215 13.4235 4.64816 13.8806 4.45635C14.58 4.16114 15.368 4.15495 16.0719 4.43911C16.55 4.63355 16.9644 4.95755 17.2684 5.37465C17.4667 5.64618 17.7137 6.1069 17.89 6.4125L26.2491 20.8907C26.408 21.1652 26.6655 21.5834 26.7804 21.8589C26.8479 22.0198 26.8992 22.1872 26.9336 22.3584C26.9493 22.4332 26.9776 22.5975 27 22.6633V23.2311C26.9447 23.3961 26.9318 23.5868 26.8777 23.7575C26.6483 24.4808 26.1509 25.0968 25.4759 25.4493C25.1319 25.6284 24.7548 25.7349 24.368 25.7622C24.0757 25.7814 23.6902 25.7702 23.389 25.7702L6.96423 25.7698C6.56524 25.7701 6.10511 25.7819 5.71093 25.7656C5.45838 25.753 5.20842 25.7086 4.96692 25.6337C4.2478 25.4039 3.65084 24.8953 3.30963 24.2218C3.21484 24.0412 3.14214 23.8497 3.09311 23.6518C3.07558 23.5787 3.02377 23.3056 3 23.2571V22.6156ZM23.4308 24.3533C24.0863 24.3534 24.6574 24.4486 25.1673 23.9443C25.4357 23.6779 25.587 23.3155 25.5875 22.9373C25.5871 22.7118 25.527 22.4721 25.4182 22.2757C25.2186 21.9148 25.0062 21.5544 24.7996 21.197L16.624 7.03534C16.1905 6.28446 15.9573 5.64844 14.9579 5.65085C14.0979 5.70982 13.8993 6.12342 13.5085 6.80073L5.27796 21.057C5.04517 21.4602 4.80602 21.8669 4.58024 22.2739C4.45407 22.5013 4.39493 22.7844 4.41388 23.0451C4.44504 23.426 4.62598 23.7788 4.91701 24.0263C5.1135 24.192 5.35236 24.2994 5.60665 24.3365C5.83078 24.3673 6.36863 24.3532 6.61935 24.3531L23.4308 24.3533Z" fill="#122056"/>
<path d="M14.3021 11.2479C14.769 11.245 15.236 11.2457 15.7029 11.2499L15.7041 15.5864C15.7041 16.4754 15.7177 17.3948 15.7015 18.2802C15.2375 18.2885 14.7611 18.2803 14.2956 18.2824C14.3108 17.7284 14.2971 17.103 14.2972 16.5446L14.2968 11.9428C14.2967 11.726 14.2889 11.4587 14.3021 11.2479Z" fill="#122056"/>
<path d="M14.9085 19.6893C15.4214 19.6398 15.8782 20.0137 15.9307 20.5264C15.9832 21.0391 15.6118 21.498 15.0995 21.5534C14.583 21.6093 14.1196 21.2343 14.0666 20.7174C14.0136 20.2006 14.3913 19.7394 14.9085 19.6893Z" fill="#122056"/>
</svg>
